M48
;DRILL file {KiCad 4.0.5} date 03/03/17 17:59:18
;FORMAT={2:4/ absolute / inch / suppress leading zeros}
FMAT,2
INCH,TZ
T1C0.012
T2C0.016
T3C0.020
T4C0.022
T5C0.028
T6C0.039
T7C0.043
T8C0.126
%
G90
G05
M72
T1
X51107Y-39810
X51107Y-40164
X52387Y-47525
X52397Y-47790
X54793Y-45659
X54793Y-45935
X55205Y-39253
X55228Y-39512
X56622Y-40476
X56882Y-40476
X57142Y-40476
X59677Y-37740
X59870Y-37915
X60898Y-33980
X61154Y-36369
X62469Y-33404
X62672Y-33643
X62691Y-33179
X63165Y-36627
X64805Y-38636
X64864Y-41844
X65199Y-38606
X65543Y-39640
X65898Y-43213
X65915Y-39630
X66360Y-43252
X66760Y-42823
X66942Y-42620
X68240Y-43528
X68468Y-43402
X69748Y-35124
X69752Y-38703
X69763Y-42337
X70496Y-25051
X71565Y-28627
X71665Y-26627
X71665Y-30727
X71765Y-28027
X71772Y-26024
X71909Y-30110
T2
X46423Y-41372
X46713Y-45256
X46732Y-44921
X46753Y-45572
X46758Y-45977
X46995Y-37827
X48283Y-44882
X48484Y-38012
X48838Y-44412
X48913Y-29453
X49015Y-38147
X49433Y-44437
X50036Y-45801
X50110Y-33409
X50255Y-35497
X50426Y-44831
X50571Y-49689
X50651Y-49089
X50995Y-40977
X51211Y-48099
X51358Y-37992
X51496Y-38661
X51560Y-39014
X52221Y-49689
X52245Y-38727
X52415Y-39697
X52559Y-37087
X52561Y-46719
X52575Y-37547
X52615Y-36577
X52925Y-40007
X53001Y-47129
X53515Y-40017
X53561Y-48529
X53636Y-45151
X54141Y-47749
X54163Y-40185
X54360Y-50020
X54570Y-43599
X54749Y-53534
X55125Y-38527
X55329Y-54344
X55455Y-35407
X55649Y-40411
X55709Y-35866
X55709Y-27251
X55787Y-51486
X55878Y-33862
X55895Y-34347
X56395Y-36817
X56398Y-37264
X56449Y-30004
X56629Y-48384
X56769Y-54184
X57030Y-42649
X57096Y-43622
X57329Y-53604
X57394Y-31972
X57735Y-35407
X57865Y-36907
X58075Y-34377
X58181Y-27602
X58255Y-40467
X58445Y-42847
X58772Y-26067
X58919Y-53604
X58985Y-41877
X59224Y-36382
X60094Y-34145
X60649Y-48384
X61043Y-40925
X61289Y-40177
X61417Y-41909
X61539Y-53824
X61791Y-40935
X61791Y-42057
X61939Y-28429
X62136Y-45640
X62313Y-52146
X62362Y-46339
X62598Y-46969
X63394Y-30421
X63457Y-23272
X63564Y-26101
X63850Y-23272
X64254Y-23281
X64645Y-49480
X65324Y-25758
X65384Y-30968
X65600Y-24223
X65757Y-27924
X67250Y-49555
X67274Y-28921
X67432Y-30732
X68770Y-30928
X69717Y-28872
X69717Y-29256
X69717Y-29610
X72245Y-23335
T5
X64432Y-52820
X65220Y-52820
X66007Y-52820
X66794Y-52820
X69145Y-52845
X69933Y-52845
X70720Y-52845
X71507Y-52845
X75376Y-47698
X75376Y-48485
X75376Y-49273
X75376Y-50060
X75396Y-43328
X75396Y-44115
X75396Y-44902
X75396Y-45690
T6
X47949Y-29445
X47949Y-30445
X74350Y-29671
X74350Y-30671
X74352Y-25609
X74352Y-26609
X74352Y-27644
X74352Y-28644
T7
X49165Y-26382
X49165Y-27760
X72186Y-32701
X72186Y-34079
X72190Y-36304
X72190Y-37682
X72196Y-39912
X72196Y-41290
T8
X47217Y-23232
X47217Y-52760
X74776Y-23232
X74776Y-52760
T3
X45239Y-35638G85X45495Y-35638
G05
X45239Y-38394G85X45495Y-38394
G05
T4
X46430Y-35973G85X46430Y-36091
G05
X46430Y-37942G85X46430Y-38060
G05
T0
M30
