<?xml version="1.0" standalone="no"?>
 <!DOCTYPE svg PUBLIC "-//W3C//DTD SVG 1.1//EN" 
 "http://www.w3.org/Graphics/SVG/1.1/DTD/svg11.dtd"> 
<svg xmlns="http://www.w3.org/2000/svg" version="1.1" 
    width="29.7002cm" height="21.0007cm" viewBox="0 0 116930 82680 ">
<title>SVG Picture created as 12Vto5V-Power Distribution-12Vto5V.sch.svg date 2016/10/13 16:35:05 </title>
  <desc>Picture generated by Eeschema-SVG </desc>
<g style="fill:#000000; fill-opacity:1;stroke:#000000; stroke-opacity:1;
stroke-linecap:round; stroke-linejoin:round; "
 transform="translate(0 0) scale(1 1)">
</g>
<g style="fill:#000000; fill-opacity:0.0; 
stroke:#000000; stroke-width:-10; stroke-opacity:1; 
stroke-linecap:round; stroke-linejoin:round;">
</g>
<g style="fill:#840000; fill-opacity:0.0; 
stroke:#840000; stroke-width:-10; stroke-opacity:1; 
stroke-linecap:round; stroke-linejoin:round;">
</g>
<g style="fill:#840000; fill-opacity:0.0; 
stroke:#840000; stroke-width:100; stroke-opacity:1; 
stroke-linecap:round; stroke-linejoin:round;">
</g>
<g style="fill:#840000; fill-opacity:0.0; 
stroke:#840000; stroke-width:60; stroke-opacity:1; 
stroke-linecap:round; stroke-linejoin:round;">
<rect x="69690" y="65360" width="42520" height="12600" rx="0" />
</g>
<g style="fill:#840000; fill-opacity:0.0; 
stroke:#840000; stroke-width:100; stroke-opacity:1; 
stroke-linecap:round; stroke-linejoin:round;">
</g>
<g style="fill:#840000; fill-opacity:0.0; 
stroke:#840000; stroke-width:60; stroke-opacity:1; 
stroke-linecap:round; stroke-linejoin:round;">
<rect x="3940" y="3940" width="109050" height="74800" rx="0" />
</g>
<g style="fill:#840000; fill-opacity:0.0; 
stroke:#840000; stroke-width:100; stroke-opacity:1; 
stroke-linecap:round; stroke-linejoin:round;">
</g>
<g style="fill:#840000; fill-opacity:0.0; 
stroke:#840000; stroke-width:60; stroke-opacity:1; 
stroke-linecap:round; stroke-linejoin:round;">
<rect x="4720" y="4720" width="107490" height="73240" rx="0" />
</g>
<g style="fill:#840000; fill-opacity:0.0; 
stroke:#840000; stroke-width:100; stroke-opacity:1; 
stroke-linecap:round; stroke-linejoin:round;">
</g>
<g style="fill:#840000; fill-opacity:0.0; 
stroke:#840000; stroke-width:60; stroke-opacity:1; 
stroke-linecap:round; stroke-linejoin:round;">
<path d="M23620 4720
L23620 3940
" />
</g>
<g style="fill:#840000; fill-opacity:0.0; 
stroke:#840000; stroke-width:100; stroke-opacity:1; 
stroke-linecap:round; stroke-linejoin:round;">
</g>
<g style="fill:#840000; fill-opacity:0.0; 
stroke:#840000; stroke-width:60; stroke-opacity:1; 
stroke-linecap:round; stroke-linejoin:round;">
<path d="M43310 4720
L43310 3940
" />
</g>
<g style="fill:#840000; fill-opacity:0.0; 
stroke:#840000; stroke-width:100; stroke-opacity:1; 
stroke-linecap:round; stroke-linejoin:round;">
</g>
<g style="fill:#840000; fill-opacity:0.0; 
stroke:#840000; stroke-width:60; stroke-opacity:1; 
stroke-linecap:round; stroke-linejoin:round;">
<path d="M62990 4720
L62990 3940
" />
</g>
<g style="fill:#840000; fill-opacity:0.0; 
stroke:#840000; stroke-width:100; stroke-opacity:1; 
stroke-linecap:round; stroke-linejoin:round;">
</g>
<g style="fill:#840000; fill-opacity:0.0; 
stroke:#840000; stroke-width:60; stroke-opacity:1; 
stroke-linecap:round; stroke-linejoin:round;">
<path d="M82680 4720
L82680 3940
" />
</g>
<g style="fill:#840000; fill-opacity:0.0; 
stroke:#840000; stroke-width:100; stroke-opacity:1; 
stroke-linecap:round; stroke-linejoin:round;">
</g>
<g style="fill:#840000; fill-opacity:0.0; 
stroke:#840000; stroke-width:60; stroke-opacity:1; 
stroke-linecap:round; stroke-linejoin:round;">
<path d="M102360 4720
L102360 3940
" />
</g>
<g style="fill:#840000; fill-opacity:0.0; 
stroke:#840000; stroke-width:100; stroke-opacity:1; 
stroke-linecap:round; stroke-linejoin:round;">
</g>
<g style="fill:#840000; fill-opacity:0.0; 
stroke:#840000; stroke-width:60; stroke-opacity:1; 
stroke-linecap:round; stroke-linejoin:round;">
<path d="M14170 4560
L13880 4560
" />
<path d="M14020 4560
L14020 4050
L13970 4120
L13930 4170
L13880 4190
" />
</g>
<g style="fill:#840000; fill-opacity:0.0; 
stroke:#840000; stroke-width:100; stroke-opacity:1; 
stroke-linecap:round; stroke-linejoin:round;">
</g>
<g style="fill:#840000; fill-opacity:0.0; 
stroke:#840000; stroke-width:60; stroke-opacity:1; 
stroke-linecap:round; stroke-linejoin:round;">
<path d="M33560 4090
L33580 4070
L33630 4050
L33750 4050
L33800 4070
L33820 4090
L33850 4140
L33850 4190
L33820 4260
L33530 4560
L33850 4560
" />
</g>
<g style="fill:#840000; fill-opacity:0.0; 
stroke:#840000; stroke-width:100; stroke-opacity:1; 
stroke-linecap:round; stroke-linejoin:round;">
</g>
<g style="fill:#840000; fill-opacity:0.0; 
stroke:#840000; stroke-width:60; stroke-opacity:1; 
stroke-linecap:round; stroke-linejoin:round;">
<path d="M53220 4050
L53540 4050
L53370 4240
L53440 4240
L53490 4260
L53510 4290
L53540 4340
L53540 4460
L53510 4510
L53490 4530
L53440 4560
L53300 4560
L53250 4530
L53220 4510
" />
</g>
<g style="fill:#840000; fill-opacity:0.0; 
stroke:#840000; stroke-width:100; stroke-opacity:1; 
stroke-linecap:round; stroke-linejoin:round;">
</g>
<g style="fill:#840000; fill-opacity:0.0; 
stroke:#840000; stroke-width:60; stroke-opacity:1; 
stroke-linecap:round; stroke-linejoin:round;">
<path d="M73170 4220
L73170 4560
" />
<path d="M73050 4020
L72930 4390
L73240 4390
" />
</g>
<g style="fill:#840000; fill-opacity:0.0; 
stroke:#840000; stroke-width:100; stroke-opacity:1; 
stroke-linecap:round; stroke-linejoin:round;">
</g>
<g style="fill:#840000; fill-opacity:0.0; 
stroke:#840000; stroke-width:60; stroke-opacity:1; 
stroke-linecap:round; stroke-linejoin:round;">
<path d="M92880 4050
L92640 4050
L92620 4290
L92640 4260
L92690 4240
L92810 4240
L92860 4260
L92880 4290
L92910 4340
L92910 4460
L92880 4510
L92860 4530
L92810 4560
L92690 4560
L92640 4530
L92620 4510
" />
</g>
<g style="fill:#840000; fill-opacity:0.0; 
stroke:#840000; stroke-width:100; stroke-opacity:1; 
stroke-linecap:round; stroke-linejoin:round;">
</g>
<g style="fill:#840000; fill-opacity:0.0; 
stroke:#840000; stroke-width:60; stroke-opacity:1; 
stroke-linecap:round; stroke-linejoin:round;">
<path d="M112540 4050
L112440 4050
L112390 4070
L112370 4090
L112320 4170
L112300 4260
L112300 4460
L112320 4510
L112350 4530
L112390 4560
L112490 4560
L112540 4530
L112560 4510
L112590 4460
L112590 4340
L112560 4290
L112540 4260
L112490 4240
L112390 4240
L112350 4260
L112320 4290
L112300 4340
" />
</g>
<g style="fill:#840000; fill-opacity:0.0; 
stroke:#840000; stroke-width:100; stroke-opacity:1; 
stroke-linecap:round; stroke-linejoin:round;">
</g>
<g style="fill:#840000; fill-opacity:0.0; 
stroke:#840000; stroke-width:60; stroke-opacity:1; 
stroke-linecap:round; stroke-linejoin:round;">
<path d="M23620 77960
L23620 78740
" />
</g>
<g style="fill:#840000; fill-opacity:0.0; 
stroke:#840000; stroke-width:100; stroke-opacity:1; 
stroke-linecap:round; stroke-linejoin:round;">
</g>
<g style="fill:#840000; fill-opacity:0.0; 
stroke:#840000; stroke-width:60; stroke-opacity:1; 
stroke-linecap:round; stroke-linejoin:round;">
<path d="M43310 77960
L43310 78740
" />
</g>
<g style="fill:#840000; fill-opacity:0.0; 
stroke:#840000; stroke-width:100; stroke-opacity:1; 
stroke-linecap:round; stroke-linejoin:round;">
</g>
<g style="fill:#840000; fill-opacity:0.0; 
stroke:#840000; stroke-width:60; stroke-opacity:1; 
stroke-linecap:round; stroke-linejoin:round;">
<path d="M62990 77960
L62990 78740
" />
</g>
<g style="fill:#840000; fill-opacity:0.0; 
stroke:#840000; stroke-width:100; stroke-opacity:1; 
stroke-linecap:round; stroke-linejoin:round;">
</g>
<g style="fill:#840000; fill-opacity:0.0; 
stroke:#840000; stroke-width:60; stroke-opacity:1; 
stroke-linecap:round; stroke-linejoin:round;">
<path d="M82680 77960
L82680 78740
" />
</g>
<g style="fill:#840000; fill-opacity:0.0; 
stroke:#840000; stroke-width:100; stroke-opacity:1; 
stroke-linecap:round; stroke-linejoin:round;">
</g>
<g style="fill:#840000; fill-opacity:0.0; 
stroke:#840000; stroke-width:60; stroke-opacity:1; 
stroke-linecap:round; stroke-linejoin:round;">
<path d="M102360 77960
L102360 78740
" />
</g>
<g style="fill:#840000; fill-opacity:0.0; 
stroke:#840000; stroke-width:100; stroke-opacity:1; 
stroke-linecap:round; stroke-linejoin:round;">
</g>
<g style="fill:#840000; fill-opacity:0.0; 
stroke:#840000; stroke-width:60; stroke-opacity:1; 
stroke-linecap:round; stroke-linejoin:round;">
<path d="M14170 78580
L13880 78580
" />
<path d="M14020 78580
L14020 78070
L13970 78140
L13930 78190
L13880 78210
" />
</g>
<g style="fill:#840000; fill-opacity:0.0; 
stroke:#840000; stroke-width:100; stroke-opacity:1; 
stroke-linecap:round; stroke-linejoin:round;">
</g>
<g style="fill:#840000; fill-opacity:0.0; 
stroke:#840000; stroke-width:60; stroke-opacity:1; 
stroke-linecap:round; stroke-linejoin:round;">
<path d="M33560 78110
L33580 78090
L33630 78070
L33750 78070
L33800 78090
L33820 78110
L33850 78160
L33850 78210
L33820 78280
L33530 78580
L33850 78580
" />
</g>
<g style="fill:#840000; fill-opacity:0.0; 
stroke:#840000; stroke-width:100; stroke-opacity:1; 
stroke-linecap:round; stroke-linejoin:round;">
</g>
<g style="fill:#840000; fill-opacity:0.0; 
stroke:#840000; stroke-width:60; stroke-opacity:1; 
stroke-linecap:round; stroke-linejoin:round;">
<path d="M53220 78070
L53540 78070
L53370 78260
L53440 78260
L53490 78280
L53510 78310
L53540 78360
L53540 78480
L53510 78530
L53490 78550
L53440 78580
L53300 78580
L53250 78550
L53220 78530
" />
</g>
<g style="fill:#840000; fill-opacity:0.0; 
stroke:#840000; stroke-width:100; stroke-opacity:1; 
stroke-linecap:round; stroke-linejoin:round;">
</g>
<g style="fill:#840000; fill-opacity:0.0; 
stroke:#840000; stroke-width:60; stroke-opacity:1; 
stroke-linecap:round; stroke-linejoin:round;">
<path d="M73170 78240
L73170 78580
" />
<path d="M73050 78040
L72930 78410
L73240 78410
" />
</g>
<g style="fill:#840000; fill-opacity:0.0; 
stroke:#840000; stroke-width:100; stroke-opacity:1; 
stroke-linecap:round; stroke-linejoin:round;">
</g>
<g style="fill:#840000; fill-opacity:0.0; 
stroke:#840000; stroke-width:60; stroke-opacity:1; 
stroke-linecap:round; stroke-linejoin:round;">
<path d="M92880 78070
L92640 78070
L92620 78310
L92640 78280
L92690 78260
L92810 78260
L92860 78280
L92880 78310
L92910 78360
L92910 78480
L92880 78530
L92860 78550
L92810 78580
L92690 78580
L92640 78550
L92620 78530
" />
</g>
<g style="fill:#840000; fill-opacity:0.0; 
stroke:#840000; stroke-width:100; stroke-opacity:1; 
stroke-linecap:round; stroke-linejoin:round;">
</g>
<g style="fill:#840000; fill-opacity:0.0; 
stroke:#840000; stroke-width:60; stroke-opacity:1; 
stroke-linecap:round; stroke-linejoin:round;">
<path d="M112540 78070
L112440 78070
L112390 78090
L112370 78110
L112320 78190
L112300 78280
L112300 78480
L112320 78530
L112350 78550
L112390 78580
L112490 78580
L112540 78550
L112560 78530
L112590 78480
L112590 78360
L112560 78310
L112540 78280
L112490 78260
L112390 78260
L112350 78280
L112320 78310
L112300 78360
" />
</g>
<g style="fill:#840000; fill-opacity:0.0; 
stroke:#840000; stroke-width:100; stroke-opacity:1; 
stroke-linecap:round; stroke-linejoin:round;">
</g>
<g style="fill:#840000; fill-opacity:0.0; 
stroke:#840000; stroke-width:60; stroke-opacity:1; 
stroke-linecap:round; stroke-linejoin:round;">
<path d="M3940 23620
L4720 23620
" />
</g>
<g style="fill:#840000; fill-opacity:0.0; 
stroke:#840000; stroke-width:100; stroke-opacity:1; 
stroke-linecap:round; stroke-linejoin:round;">
</g>
<g style="fill:#840000; fill-opacity:0.0; 
stroke:#840000; stroke-width:60; stroke-opacity:1; 
stroke-linecap:round; stroke-linejoin:round;">
<path d="M3940 43310
L4720 43310
" />
</g>
<g style="fill:#840000; fill-opacity:0.0; 
stroke:#840000; stroke-width:100; stroke-opacity:1; 
stroke-linecap:round; stroke-linejoin:round;">
</g>
<g style="fill:#840000; fill-opacity:0.0; 
stroke:#840000; stroke-width:60; stroke-opacity:1; 
stroke-linecap:round; stroke-linejoin:round;">
<path d="M3940 62990
L4720 62990
" />
</g>
<g style="fill:#840000; fill-opacity:0.0; 
stroke:#840000; stroke-width:100; stroke-opacity:1; 
stroke-linecap:round; stroke-linejoin:round;">
</g>
<g style="fill:#840000; fill-opacity:0.0; 
stroke:#840000; stroke-width:60; stroke-opacity:1; 
stroke-linecap:round; stroke-linejoin:round;">
<path d="M4210 13860
L4450 13860
" />
<path d="M4160 14010
L4330 13500
L4500 14010
" />
</g>
<g style="fill:#840000; fill-opacity:0.0; 
stroke:#840000; stroke-width:100; stroke-opacity:1; 
stroke-linecap:round; stroke-linejoin:round;">
</g>
<g style="fill:#840000; fill-opacity:0.0; 
stroke:#840000; stroke-width:60; stroke-opacity:1; 
stroke-linecap:round; stroke-linejoin:round;">
<path d="M4370 33420
L4440 33440
L4470 33470
L4490 33520
L4490 33590
L4470 33640
L4440 33660
L4400 33690
L4200 33690
L4200 33180
L4370 33180
L4420 33200
L4440 33220
L4470 33270
L4470 33320
L4440 33370
L4420 33390
L4370 33420
L4200 33420
" />
</g>
<g style="fill:#840000; fill-opacity:0.0; 
stroke:#840000; stroke-width:100; stroke-opacity:1; 
stroke-linecap:round; stroke-linejoin:round;">
</g>
<g style="fill:#840000; fill-opacity:0.0; 
stroke:#840000; stroke-width:60; stroke-opacity:1; 
stroke-linecap:round; stroke-linejoin:round;">
<path d="M4490 53330
L4470 53350
L4400 53380
L4350 53380
L4270 53350
L4230 53300
L4200 53250
L4180 53160
L4180 53080
L4200 52990
L4230 52940
L4270 52890
L4350 52870
L4400 52870
L4470 52890
L4490 52910
" />
</g>
<g style="fill:#840000; fill-opacity:0.0; 
stroke:#840000; stroke-width:100; stroke-opacity:1; 
stroke-linecap:round; stroke-linejoin:round;">
</g>
<g style="fill:#840000; fill-opacity:0.0; 
stroke:#840000; stroke-width:60; stroke-opacity:1; 
stroke-linecap:round; stroke-linejoin:round;">
<path d="M4200 73060
L4200 72550
L4320 72550
L4400 72570
L4440 72620
L4470 72670
L4490 72760
L4490 72840
L4470 72930
L4440 72980
L4400 73030
L4320 73060
L4200 73060
" />
</g>
<g style="fill:#840000; fill-opacity:0.0; 
stroke:#840000; stroke-width:100; stroke-opacity:1; 
stroke-linecap:round; stroke-linejoin:round;">
</g>
<g style="fill:#840000; fill-opacity:0.0; 
stroke:#840000; stroke-width:60; stroke-opacity:1; 
stroke-linecap:round; stroke-linejoin:round;">
<path d="M112990 23620
L112210 23620
" />
</g>
<g style="fill:#840000; fill-opacity:0.0; 
stroke:#840000; stroke-width:100; stroke-opacity:1; 
stroke-linecap:round; stroke-linejoin:round;">
</g>
<g style="fill:#840000; fill-opacity:0.0; 
stroke:#840000; stroke-width:60; stroke-opacity:1; 
stroke-linecap:round; stroke-linejoin:round;">
<path d="M112990 43310
L112210 43310
" />
</g>
<g style="fill:#840000; fill-opacity:0.0; 
stroke:#840000; stroke-width:100; stroke-opacity:1; 
stroke-linecap:round; stroke-linejoin:round;">
</g>
<g style="fill:#840000; fill-opacity:0.0; 
stroke:#840000; stroke-width:60; stroke-opacity:1; 
stroke-linecap:round; stroke-linejoin:round;">
<path d="M112990 62990
L112210 62990
" />
</g>
<g style="fill:#840000; fill-opacity:0.0; 
stroke:#840000; stroke-width:100; stroke-opacity:1; 
stroke-linecap:round; stroke-linejoin:round;">
</g>
<g style="fill:#840000; fill-opacity:0.0; 
stroke:#840000; stroke-width:60; stroke-opacity:1; 
stroke-linecap:round; stroke-linejoin:round;">
<path d="M112480 13860
L112720 13860
" />
<path d="M112430 14010
L112600 13500
L112770 14010
" />
</g>
<g style="fill:#840000; fill-opacity:0.0; 
stroke:#840000; stroke-width:100; stroke-opacity:1; 
stroke-linecap:round; stroke-linejoin:round;">
</g>
<g style="fill:#840000; fill-opacity:0.0; 
stroke:#840000; stroke-width:60; stroke-opacity:1; 
stroke-linecap:round; stroke-linejoin:round;">
<path d="M112640 33420
L112710 33440
L112740 33470
L112760 33520
L112760 33590
L112740 33640
L112710 33660
L112670 33690
L112470 33690
L112470 33180
L112640 33180
L112690 33200
L112710 33220
L112740 33270
L112740 33320
L112710 33370
L112690 33390
L112640 33420
L112470 33420
" />
</g>
<g style="fill:#840000; fill-opacity:0.0; 
stroke:#840000; stroke-width:100; stroke-opacity:1; 
stroke-linecap:round; stroke-linejoin:round;">
</g>
<g style="fill:#840000; fill-opacity:0.0; 
stroke:#840000; stroke-width:60; stroke-opacity:1; 
stroke-linecap:round; stroke-linejoin:round;">
<path d="M112760 53330
L112740 53350
L112670 53380
L112620 53380
L112540 53350
L112500 53300
L112470 53250
L112450 53160
L112450 53080
L112470 52990
L112500 52940
L112540 52890
L112620 52870
L112670 52870
L112740 52890
L112760 52910
" />
</g>
<g style="fill:#840000; fill-opacity:0.0; 
stroke:#840000; stroke-width:100; stroke-opacity:1; 
stroke-linecap:round; stroke-linejoin:round;">
</g>
<g style="fill:#840000; fill-opacity:0.0; 
stroke:#840000; stroke-width:60; stroke-opacity:1; 
stroke-linecap:round; stroke-linejoin:round;">
<path d="M112470 73060
L112470 72550
L112590 72550
L112670 72570
L112710 72620
L112740 72670
L112760 72760
L112760 72840
L112740 72930
L112710 72980
L112670 73030
L112590 73060
L112470 73060
" />
</g>
<g style="fill:#840000; fill-opacity:0.0; 
stroke:#840000; stroke-width:100; stroke-opacity:1; 
stroke-linecap:round; stroke-linejoin:round;">
</g>
<g style="fill:#840000; fill-opacity:0.0; 
stroke:#840000; stroke-width:60; stroke-opacity:1; 
stroke-linecap:round; stroke-linejoin:round;">
<path d="M78880 76290
L78880 75700
L79020 75700
L79110 75730
L79160 75790
L79190 75840
L79220 75950
L79220 76040
L79190 76150
L79160 76210
L79110 76260
L79020 76290
L78880 76290
" />
<path d="M79720 76290
L79720 75980
L79700 75930
L79640 75900
L79530 75900
L79470 75930
" />
<path d="M79720 76260
L79670 76290
L79530 76290
L79470 76260
L79440 76210
L79440 76150
L79470 76100
L79530 76070
L79670 76070
L79720 76040
" />
<path d="M79920 75900
L80140 75900
" />
<path d="M80000 75700
L80000 76210
L80030 76260
L80080 76290
L80140 76290
" />
<path d="M80570 76260
L80510 76290
L80400 76290
L80340 76260
L80310 76210
L80310 75980
L80340 75930
L80400 75900
L80510 75900
L80570 75930
L80590 75980
L80590 76040
L80310 76100
" />
<path d="M80850 76240
L80880 76260
L80850 76290
L80820 76260
L80850 76240
L80850 76290
" />
<path d="M80850 75930
L80880 75950
L80850 75980
L80820 75950
L80850 75930
L80850 75980
" />
</g>
<g style="fill:#840000; fill-opacity:0.0; 
stroke:#840000; stroke-width:100; stroke-opacity:1; 
stroke-linecap:round; stroke-linejoin:round;">
</g>
<g style="fill:#840000; fill-opacity:0.0; 
stroke:#840000; stroke-width:60; stroke-opacity:1; 
stroke-linecap:round; stroke-linejoin:round;">
<path d="M69690 76580
L112210 76580
" />
</g>
<g style="fill:#840000; fill-opacity:0.0; 
stroke:#840000; stroke-width:100; stroke-opacity:1; 
stroke-linecap:round; stroke-linejoin:round;">
</g>
<g style="fill:#840000; fill-opacity:0.0; 
stroke:#840000; stroke-width:60; stroke-opacity:1; 
stroke-linecap:round; stroke-linejoin:round;">
<path d="M70220 77390
L70220 76800
" />
<path d="M70560 77390
L70300 77050
" />
<path d="M70560 76800
L70220 77140
" />
<path d="M70810 77390
L70810 77000
" />
<path d="M70810 76800
L70780 76830
L70810 76860
L70840 76830
L70810 76800
L70810 76860
" />
<path d="M71430 77340
L71400 77360
L71320 77390
L71260 77390
L71170 77360
L71120 77310
L71090 77250
L71060 77140
L71060 77050
L71090 76940
L71120 76890
L71170 76830
L71260 76800
L71320 76800
L71400 76830
L71430 76860
" />
<path d="M71930 77390
L71930 77080
L71910 77030
L71850 77000
L71740 77000
L71680 77030
" />
<path d="M71930 77360
L71880 77390
L71740 77390
L71680 77360
L71650 77310
L71650 77250
L71680 77200
L71740 77170
L71880 77170
L71930 77140
" />
<path d="M72460 77390
L72460 76800
" />
<path d="M72460 77360
L72410 77390
L72290 77390
L72240 77360
L72210 77340
L72180 77280
L72180 77110
L72210 77050
L72240 77030
L72290 77000
L72410 77000
L72460 77030
" />
<path d="M73190 77080
L73390 77080
" />
<path d="M73470 77390
L73190 77390
L73190 76800
L73470 76800
" />
<path d="M73720 77340
L73750 77360
L73720 77390
L73690 77360
L73720 77340
L73720 77390
" />
<path d="M74000 77390
L74000 76800
L74140 76800
L74230 76830
L74280 76890
L74310 76940
L74340 77050
L74340 77140
L74310 77250
L74280 77310
L74230 77360
L74140 77390
L74000 77390
" />
<path d="M74590 77340
L74620 77360
L74590 77390
L74560 77360
L74590 77340
L74590 77390
" />
<path d="M74840 77220
L75120 77220
" />
<path d="M74790 77390
L74980 76800
L75180 77390
" />
<path d="M75380 77340
L75410 77360
L75380 77390
L75350 77360
L75380 77340
L75380 77390
" />
<path d="M76560 77390
L76560 76800
" />
<path d="M76620 77170
L76790 77390
" />
<path d="M76790 77000
L76560 77220
" />
<path d="M77040 77390
L77040 77000
" />
<path d="M77040 76800
L77010 76830
L77040 76860
L77070 76830
L77040 76800
L77040 76860
" />
<path d="M77570 77360
L77520 77390
L77400 77390
L77350 77360
L77320 77340
L77290 77280
L77290 77110
L77320 77050
L77350 77030
L77400 77000
L77520 77000
L77570 77030
" />
<path d="M78080 77390
L78080 77080
L78060 77030
L78000 77000
L77890 77000
L77830 77030
" />
<path d="M78080 77360
L78030 77390
L77890 77390
L77830 77360
L77800 77310
L77800 77250
L77830 77200
L77890 77170
L78030 77170
L78080 77140
" />
<path d="M78610 77390
L78610 76800
" />
<path d="M78610 77360
L78560 77390
L78440 77390
L78390 77360
L78360 77340
L78330 77280
L78330 77110
L78360 77050
L78390 77030
L78440 77000
L78560 77000
L78610 77030
" />
<path d="M79590 77000
L79590 77390
" />
<path d="M79450 76770
L79310 77200
L79680 77200
" />
<path d="M79900 77340
L79930 77360
L79900 77390
L79870 77360
L79900 77340
L79900 77390
" />
<path d="M80290 76800
L80350 76800
L80410 76830
L80430 76860
L80460 76910
L80490 77030
L80490 77170
L80460 77280
L80430 77340
L80410 77360
L80350 77390
L80290 77390
L80240 77360
L80210 77340
L80180 77280
L80150 77170
L80150 77030
L80180 76910
L80210 76860
L80240 76830
L80290 76800
" />
<path d="M80740 77340
L80770 77360
L80740 77390
L80710 77360
L80740 77340
L80740 77390
" />
<path d="M80990 76860
L81020 76830
L81080 76800
L81220 76800
L81270 76830
L81300 76860
L81330 76910
L81330 76970
L81300 77050
L80960 77390
L81330 77390
" />
<path d="M81580 77170
L82030 77170
" />
<path d="M82280 77360
L82340 77390
L82450 77390
L82510 77360
L82540 77310
L82540 77280
L82510 77220
L82450 77200
L82370 77200
L82310 77170
L82280 77110
L82280 77080
L82310 77030
L82370 77000
L82450 77000
L82510 77030
" />
<path d="M82710 77000
L82930 77000
" />
<path d="M82790 76800
L82790 77310
L82820 77360
L82870 77390
L82930 77390
" />
<path d="M83380 77390
L83380 77080
L83360 77030
L83300 77000
L83190 77000
L83130 77030
" />
<path d="M83380 77360
L83330 77390
L83190 77390
L83130 77360
L83100 77310
L83100 77250
L83130 77200
L83190 77170
L83330 77170
L83380 77140
" />
<path d="M83660 77390
L83660 76800
" />
<path d="M83660 77030
L83720 77000
L83830 77000
L83890 77030
L83910 77050
L83940 77110
L83940 77280
L83910 77340
L83890 77360
L83830 77390
L83720 77390
L83660 77360
" />
<path d="M84270 77390
L84220 77360
L84190 77310
L84190 76800
" />
<path d="M84730 77360
L84670 77390
L84560 77390
L84500 77360
L84470 77310
L84470 77080
L84500 77030
L84560 77000
L84670 77000
L84730 77030
L84750 77080
L84750 77140
L84470 77200
" />
</g>
<g style="fill:#840000; fill-opacity:0.0; 
stroke:#840000; stroke-width:100; stroke-opacity:1; 
stroke-linecap:round; stroke-linejoin:round;">
</g>
<g style="fill:#840000; fill-opacity:0.0; 
stroke:#840000; stroke-width:60; stroke-opacity:1; 
stroke-linecap:round; stroke-linejoin:round;">
<path d="M69690 75400
L112210 75400
" />
</g>
<g style="fill:#840000; fill-opacity:0.0; 
stroke:#840000; stroke-width:100; stroke-opacity:1; 
stroke-linecap:round; stroke-linejoin:round;">
</g>
<g style="fill:#840000; fill-opacity:0.0; 
stroke:#840000; stroke-width:120; stroke-opacity:1; 
stroke-linecap:round; stroke-linejoin:round;">
<path d="M104020 76290
L103820 76010
" />
<path d="M103680 76290
L103680 75700
L103910 75700
L103960 75730
L103990 75760
L104020 75810
L104020 75900
L103990 75950
L103960 75980
L103910 76010
L103680 76010
" />
<path d="M104500 76260
L104440 76290
L104330 76290
L104270 76260
L104240 76210
L104240 75980
L104270 75930
L104330 75900
L104440 75900
L104500 75930
L104520 75980
L104520 76040
L104240 76100
" />
<path d="M104720 75900
L104860 76290
L105010 75900
" />
<path d="M105230 76240
L105260 76260
L105230 76290
L105200 76260
L105230 76240
L105230 76290
" />
<path d="M105230 75930
L105260 75950
L105230 75980
L105200 75950
L105230 75930
L105230 75980
" />
</g>
<g style="fill:#840000; fill-opacity:0.0; 
stroke:#840000; stroke-width:100; stroke-opacity:1; 
stroke-linecap:round; stroke-linejoin:round;">
</g>
<g style="fill:#840000; fill-opacity:0.0; 
stroke:#840000; stroke-width:60; stroke-opacity:1; 
stroke-linecap:round; stroke-linejoin:round;">
<path d="M70190 76260
L70280 76290
L70420 76290
L70470 76260
L70500 76240
L70530 76180
L70530 76120
L70500 76070
L70470 76040
L70420 76010
L70300 75980
L70250 75950
L70220 75930
L70190 75870
L70190 75810
L70220 75760
L70250 75730
L70300 75700
L70450 75700
L70530 75730
" />
<path d="M70780 76290
L70780 75900
" />
<path d="M70780 75700
L70750 75730
L70780 75760
L70810 75730
L70780 75700
L70780 75760
" />
<path d="M71000 75900
L71310 75900
L71000 76290
L71310 76290
" />
<path d="M71770 76260
L71710 76290
L71600 76290
L71540 76260
L71510 76210
L71510 75980
L71540 75930
L71600 75900
L71710 75900
L71770 75930
L71790 75980
L71790 76040
L71510 76100
" />
<path d="M72050 76240
L72080 76260
L72050 76290
L72020 76260
L72050 76240
L72050 76290
" />
<path d="M72050 75930
L72080 75950
L72050 75980
L72020 75950
L72050 75930
L72050 75980
" />
<path d="M72750 76120
L73030 76120
" />
<path d="M72700 76290
L72890 75700
L73090 76290
" />
<path d="M73540 75900
L73540 76290
" />
<path d="M73400 75670
L73260 76100
L73630 76100
" />
</g>
<g style="fill:#840000; fill-opacity:0.0; 
stroke:#840000; stroke-width:100; stroke-opacity:1; 
stroke-linecap:round; stroke-linejoin:round;">
</g>
<g style="fill:#840000; fill-opacity:0.0; 
stroke:#840000; stroke-width:60; stroke-opacity:1; 
stroke-linecap:round; stroke-linejoin:round;">
<path d="M103680 77390
L103680 76800
" />
<path d="M104210 77390
L104210 76800
" />
<path d="M104210 77360
L104160 77390
L104040 77390
L103990 77360
L103960 77340
L103930 77280
L103930 77110
L103960 77050
L103990 77030
L104040 77000
L104160 77000
L104210 77030
" />
<path d="M104490 77340
L104520 77360
L104490 77390
L104460 77360
L104490 77340
L104490 77390
" />
<path d="M104490 77030
L104520 77050
L104490 77080
L104460 77050
L104490 77030
L104490 77080
" />
<path d="M105470 76800
L105360 76800
L105300 76830
L105280 76860
L105220 76940
L105190 77050
L105190 77280
L105220 77340
L105250 77360
L105300 77390
L105420 77390
L105470 77360
L105500 77340
L105530 77280
L105530 77140
L105500 77080
L105470 77050
L105420 77030
L105300 77030
L105250 77050
L105220 77080
L105190 77140
" />
<path d="M106200 76770
L105700 77530
" />
<path d="M106340 76800
L106740 76800
L106480 77390
" />
</g>
<g style="fill:#840000; fill-opacity:0.0; 
stroke:#840000; stroke-width:100; stroke-opacity:1; 
stroke-linecap:round; stroke-linejoin:round;">
</g>
<g style="fill:#840000; fill-opacity:0.0; 
stroke:#840000; stroke-width:60; stroke-opacity:1; 
stroke-linecap:round; stroke-linejoin:round;">
<path d="M69690 73820
L112210 73820
" />
</g>
<g style="fill:#840000; fill-opacity:0.0; 
stroke:#840000; stroke-width:100; stroke-opacity:1; 
stroke-linecap:round; stroke-linejoin:round;">
</g>
<g style="fill:#840000; fill-opacity:0.0; 
stroke:#840000; stroke-width:160; stroke-opacity:1; 
stroke-linecap:round; stroke-linejoin:round;">
<path d="M70260 74090
L70710 74090
" />
<path d="M70390 74880
L70480 74090
" />
<path d="M70880 74880
L70940 74360
" />
<path d="M70970 74090
L70930 74130
L70960 74170
L71010 74130
L70970 74090
L70960 74170
" />
<path d="M71210 74360
L71510 74360
" />
<path d="M71350 74090
L71270 74770
L71300 74840
L71370 74880
L71450 74880
" />
<path d="M71820 74880
L71750 74840
L71720 74770
L71800 74090
" />
<path d="M72420 74840
L72340 74880
L72190 74880
L72120 74840
L72090 74770
L72130 74470
L72180 74390
L72250 74360
L72400 74360
L72480 74390
L72510 74470
L72500 74540
L72110 74620
" />
<path d="M72800 74810
L72840 74840
L72800 74880
L72760 74840
L72800 74810
L72800 74880
" />
<path d="M72860 74390
L72890 74430
L72850 74470
L72810 74430
L72860 74390
L72850 74470
" />
</g>
<g style="fill:#840000; fill-opacity:0.0; 
stroke:#840000; stroke-width:100; stroke-opacity:1; 
stroke-linecap:round; stroke-linejoin:round;">
</g>
<g style="fill:#840000; fill-opacity:0.0; 
stroke:#840000; stroke-width:60; stroke-opacity:1; 
stroke-linecap:round; stroke-linejoin:round;">
<path d="M70420 73060
L70220 73060
" />
<path d="M70220 73370
L70220 72780
L70500 72780
" />
<path d="M70730 73370
L70730 72980
" />
<path d="M70730 72780
L70700 72810
L70730 72840
L70760 72810
L70730 72780
L70730 72840
" />
<path d="M71090 73370
L71040 73340
L71010 73290
L71010 72780
" />
<path d="M71550 73340
L71490 73370
L71380 73370
L71320 73340
L71290 73290
L71290 73060
L71320 73010
L71380 72980
L71490 72980
L71550 73010
L71570 73060
L71570 73120
L71290 73180
" />
<path d="M71830 73320
L71860 73340
L71830 73370
L71800 73340
L71830 73320
L71830 73370
" />
<path d="M71830 73010
L71860 73030
L71830 73060
L71800 73030
L71830 73010
L71830 73060
" />
<path d="M72870 73370
L72530 73370
" />
<path d="M72700 73370
L72700 72780
L72640 72870
L72590 72920
L72530 72950
" />
<path d="M73090 72840
L73120 72810
L73180 72780
L73320 72780
L73370 72810
L73400 72840
L73430 72890
L73430 72950
L73400 73030
L73060 73370
L73430 73370
" />
<path d="M73600 72780
L73790 73370
L73990 72780
" />
<path d="M74110 72980
L74330 72980
" />
<path d="M74190 72780
L74190 73290
L74220 73340
L74270 73370
L74330 73370
" />
<path d="M74610 73370
L74560 73340
L74530 73320
L74500 73260
L74500 73090
L74530 73030
L74560 73010
L74610 72980
L74700 72980
L74760 73010
L74780 73030
L74810 73090
L74810 73260
L74780 73320
L74760 73340
L74700 73370
L74610 73370
" />
<path d="M75340 72780
L75060 72780
L75030 73060
L75060 73030
L75120 73010
L75260 73010
L75310 73030
L75340 73060
L75370 73120
L75370 73260
L75340 73320
L75310 73340
L75260 73370
L75120 73370
L75060 73340
L75030 73320
" />
<path d="M75540 72780
L75730 73370
L75930 72780
" />
<path d="M76130 73320
L76160 73340
L76130 73370
L76100 73340
L76130 73320
L76130 73370
" />
<path d="M76380 73340
L76440 73370
L76550 73370
L76610 73340
L76640 73290
L76640 73260
L76610 73200
L76550 73180
L76470 73180
L76410 73150
L76380 73090
L76380 73060
L76410 73010
L76470 72980
L76550 72980
L76610 73010
" />
<path d="M77140 73340
L77090 73370
L76970 73370
L76920 73340
L76890 73320
L76860 73260
L76860 73090
L76890 73030
L76920 73010
L76970 72980
L77090 72980
L77140 73010
" />
<path d="M77400 73370
L77400 72780
" />
<path d="M77650 73370
L77650 73060
L77630 73010
L77570 72980
L77480 72980
L77430 73010
L77400 73030
" />
</g>
<g style="fill:#840000; fill-opacity:0.0; 
stroke:#840000; stroke-width:100; stroke-opacity:1; 
stroke-linecap:round; stroke-linejoin:round;">
</g>
<g style="fill:#840000; fill-opacity:0.0; 
stroke:#840000; stroke-width:60; stroke-opacity:1; 
stroke-linecap:round; stroke-linejoin:round;">
<path d="M69690 71460
L112210 71460
" />
</g>
<g style="fill:#840000; fill-opacity:0.0; 
stroke:#840000; stroke-width:100; stroke-opacity:1; 
stroke-linecap:round; stroke-linejoin:round;">
</g>
<g style="fill:#840000; fill-opacity:0.0; 
stroke:#840000; stroke-width:60; stroke-opacity:1; 
stroke-linecap:round; stroke-linejoin:round;">
<path d="M70190 72280
L70280 72310
L70420 72310
L70470 72280
L70500 72260
L70530 72200
L70530 72140
L70500 72090
L70470 72060
L70420 72030
L70300 72000
L70250 71970
L70220 71950
L70190 71890
L70190 71830
L70220 71780
L70250 71750
L70300 71720
L70450 71720
L70530 71750
" />
<path d="M70780 72310
L70780 71720
" />
<path d="M71030 72310
L71030 72000
L71010 71950
L70950 71920
L70860 71920
L70810 71950
L70780 71970
" />
<path d="M71540 72280
L71480 72310
L71370 72310
L71310 72280
L71280 72230
L71280 72000
L71310 71950
L71370 71920
L71480 71920
L71540 71950
L71560 72000
L71560 72060
L71280 72120
" />
<path d="M72050 72280
L71990 72310
L71880 72310
L71820 72280
L71790 72230
L71790 72000
L71820 71950
L71880 71920
L71990 71920
L72050 71950
L72070 72000
L72070 72060
L71790 72120
" />
<path d="M72250 71920
L72470 71920
" />
<path d="M72330 71720
L72330 72230
L72360 72280
L72410 72310
L72470 72310
" />
<path d="M72670 72260
L72700 72280
L72670 72310
L72640 72280
L72670 72260
L72670 72310
" />
<path d="M72670 71950
L72700 71970
L72670 72000
L72640 71970
L72670 71950
L72670 72000
" />
<path d="M73820 71690
L73320 72450
" />
<path d="M74020 72310
L74020 71720
L74250 71720
L74300 71750
L74330 71780
L74360 71830
L74360 71920
L74330 71970
L74300 72000
L74250 72030
L74020 72030
" />
<path d="M74690 72310
L74640 72280
L74610 72260
L74580 72200
L74580 72030
L74610 71970
L74640 71950
L74690 71920
L74780 71920
L74840 71950
L74860 71970
L74890 72030
L74890 72200
L74860 72260
L74840 72280
L74780 72310
L74690 72310
" />
<path d="M75080 71920
L75200 72310
L75310 72030
L75420 72310
L75530 71920
" />
<path d="M75990 72280
L75930 72310
L75820 72310
L75760 72280
L75730 72230
L75730 72000
L75760 71950
L75820 71920
L75930 71920
L75990 71950
L76010 72000
L76010 72060
L75730 72120
" />
<path d="M76270 72310
L76270 71920
" />
<path d="M76270 72030
L76300 71970
L76330 71950
L76380 71920
L76440 71920
" />
<path d="M77090 72310
L77090 71720
L77230 71720
L77320 71750
L77370 71810
L77400 71860
L77430 71970
L77430 72060
L77400 72170
L77370 72230
L77320 72280
L77230 72310
L77090 72310
" />
<path d="M77680 72310
L77680 71920
" />
<path d="M77680 71720
L77650 71750
L77680 71780
L77710 71750
L77680 71720
L77680 71780
" />
<path d="M77930 72280
L77990 72310
L78100 72310
L78160 72280
L78190 72230
L78190 72200
L78160 72140
L78100 72120
L78020 72120
L77960 72090
L77930 72030
L77930 72000
L77960 71950
L78020 71920
L78100 71920
L78160 71950
" />
<path d="M78360 71920
L78580 71920
" />
<path d="M78440 71720
L78440 72230
L78470 72280
L78520 72310
L78580 72310
" />
<path d="M78780 72310
L78780 71920
" />
<path d="M78780 72030
L78810 71970
L78840 71950
L78890 71920
L78950 71920
" />
<path d="M79150 72310
L79150 71920
" />
<path d="M79150 71720
L79120 71750
L79150 71780
L79180 71750
L79150 71720
L79150 71780
" />
<path d="M79430 72310
L79430 71720
" />
<path d="M79430 71950
L79490 71920
L79600 71920
L79660 71950
L79680 71970
L79710 72030
L79710 72200
L79680 72260
L79660 72280
L79600 72310
L79490 72310
L79430 72280
" />
<path d="M80210 71920
L80210 72310
" />
<path d="M79960 71920
L79960 72230
L79990 72280
L80040 72310
L80130 72310
L80190 72280
L80210 72260
" />
<path d="M80410 71920
L80630 71920
" />
<path d="M80490 71720
L80490 72230
L80520 72280
L80570 72310
L80630 72310
" />
<path d="M80830 72310
L80830 71920
" />
<path d="M80830 71720
L80800 71750
L80830 71780
L80860 71750
L80830 71720
L80830 71780
" />
<path d="M81190 72310
L81140 72280
L81110 72260
L81080 72200
L81080 72030
L81110 71970
L81140 71950
L81190 71920
L81280 71920
L81340 71950
L81360 71970
L81390 72030
L81390 72200
L81360 72260
L81340 72280
L81280 72310
L81190 72310
" />
<path d="M81640 71920
L81640 72310
" />
<path d="M81640 71970
L81670 71950
L81720 71920
L81810 71920
L81870 71950
L81890 72000
L81890 72310
" />
<path d="M82590 71690
L82090 72450
" />
<path d="M83100 72310
L82760 72310
" />
<path d="M82930 72310
L82930 71720
L82870 71810
L82820 71860
L82760 71890
" />
<path d="M83320 71780
L83350 71750
L83410 71720
L83550 71720
L83600 71750
L83630 71780
L83660 71830
L83660 71890
L83630 71970
L83290 72310
L83660 72310
" />
<path d="M83830 71720
L84020 72310
L84220 71720
" />
<path d="M84340 71920
L84560 71920
" />
<path d="M84420 71720
L84420 72230
L84450 72280
L84500 72310
L84560 72310
" />
<path d="M84840 72310
L84790 72280
L84760 72260
L84730 72200
L84730 72030
L84760 71970
L84790 71950
L84840 71920
L84930 71920
L84990 71950
L85010 71970
L85040 72030
L85040 72200
L85010 72260
L84990 72280
L84930 72310
L84840 72310
" />
<path d="M85570 71720
L85290 71720
L85260 72000
L85290 71970
L85350 71950
L85490 71950
L85540 71970
L85570 72000
L85600 72060
L85600 72200
L85570 72260
L85540 72280
L85490 72310
L85350 72310
L85290 72280
L85260 72260
" />
<path d="M85770 71720
L85960 72310
L86160 71720
" />
<path d="M86360 72260
L86390 72280
L86360 72310
L86330 72280
L86360 72260
L86360 72310
" />
<path d="M86610 72280
L86670 72310
L86780 72310
L86840 72280
L86870 72230
L86870 72200
L86840 72140
L86780 72120
L86700 72120
L86640 72090
L86610 72030
L86610 72000
L86640 71950
L86700 71920
L86780 71920
L86840 71950
" />
<path d="M87370 72280
L87320 72310
L87200 72310
L87150 72280
L87120 72260
L87090 72200
L87090 72030
L87120 71970
L87150 71950
L87200 71920
L87320 71920
L87370 71950
" />
<path d="M87630 72310
L87630 71720
" />
<path d="M87880 72310
L87880 72000
L87860 71950
L87800 71920
L87710 71920
L87660 71950
L87630 71970
" />
<path d="M88580 71690
L88080 72450
" />
</g>
<g style="fill:#840000; fill-opacity:0.0; 
stroke:#840000; stroke-width:100; stroke-opacity:1; 
stroke-linecap:round; stroke-linejoin:round;">
</g>
<g style="fill:#840000; fill-opacity:0.0; 
stroke:#840000; stroke-width:60; stroke-opacity:1; 
stroke-linecap:round; stroke-linejoin:round;">
<path d="M77560 75400
L77560 76580
" />
</g>
<g style="fill:#840000; fill-opacity:0.0; 
stroke:#840000; stroke-width:100; stroke-opacity:1; 
stroke-linecap:round; stroke-linejoin:round;">
</g>
<g style="fill:#840000; fill-opacity:0.0; 
stroke:#840000; stroke-width:60; stroke-opacity:1; 
stroke-linecap:round; stroke-linejoin:round;">
<path d="M102760 75400
L102760 77960
" />
</g>
<g style="fill:#840000; fill-opacity:0.0; 
stroke:#840000; stroke-width:0; stroke-opacity:1; 
stroke-linecap:round; stroke-linejoin:round;">
</g>
<g style="fill:#840000; fill-opacity:0.0; 
stroke:#840000; stroke-width:60; stroke-opacity:1; 
stroke-linecap:round; stroke-linejoin:round;">
<rect x="38500" y="26000" width="6000" height="6000" rx="0" />
<path d="M38500 27000
L36500 27000
" />
</g>
<g style="fill:#008484; fill-opacity:0.0; 
stroke:#008484; stroke-width:60; stroke-opacity:1; 
stroke-linecap:round; stroke-linejoin:round;">
<path d="M39280 26750
L39230 26730
L39160 26730
L39090 26750
L39040 26800
L39020 26850
L39000 26940
L39000 27010
L39020 27110
L39040 27150
L39090 27200
L39160 27230
L39210 27230
L39280 27200
L39300 27180
L39300 27010
L39210 27010
" />
<path d="M39520 27230
L39520 26730
L39800 27230
L39800 26730
" />
<path d="M40040 27230
L40040 26730
L40160 26730
L40230 26750
L40280 26800
L40300 26850
L40320 26940
L40320 27010
L40300 27110
L40280 27150
L40230 27200
L40160 27230
L40040 27230
" />
</g>
<g style="fill:#840000; fill-opacity:0.0; 
stroke:#840000; stroke-width:60; stroke-opacity:1; 
stroke-linecap:round; stroke-linejoin:round;">
<path d="M37640 26880
L37360 26880
" />
<path d="M37500 26880
L37500 26380
L37450 26450
L37400 26500
L37360 26520
" />
<path d="M38500 29000
L36500 29000
" />
</g>
<g style="fill:#008484; fill-opacity:0.0; 
stroke:#008484; stroke-width:60; stroke-opacity:1; 
stroke-linecap:round; stroke-linejoin:round;">
<path d="M39000 29200
L39070 29230
L39190 29230
L39230 29200
L39260 29180
L39280 29130
L39280 29080
L39260 29040
L39230 29010
L39190 28990
L39090 28960
L39040 28940
L39020 28920
L39000 28870
L39000 28820
L39020 28770
L39040 28750
L39090 28730
L39210 28730
L39280 28750
" />
<path d="M39450 28730
L39570 29230
L39670 28870
L39760 29230
L39880 28730
" />
</g>
<g style="fill:#840000; fill-opacity:0.0; 
stroke:#840000; stroke-width:60; stroke-opacity:1; 
stroke-linecap:round; stroke-linejoin:round;">
<path d="M37360 28420
L37380 28400
L37430 28380
L37550 28380
L37590 28400
L37620 28420
L37640 28470
L37640 28520
L37620 28590
L37330 28880
L37640 28880
" />
<path d="M38500 30500
L36500 30500
" />
</g>
<g style="fill:#008484; fill-opacity:0.0; 
stroke:#008484; stroke-width:60; stroke-opacity:1; 
stroke-linecap:round; stroke-linejoin:round;">
<path d="M38950 30230
L39110 30730
L39280 30230
" />
<path d="M39450 30730
L39450 30230
" />
<path d="M39690 30730
L39690 30230
L39970 30730
L39970 30230
" />
</g>
<g style="fill:#840000; fill-opacity:0.0; 
stroke:#840000; stroke-width:60; stroke-opacity:1; 
stroke-linecap:round; stroke-linejoin:round;">
<path d="M37330 29880
L37640 29880
L37470 30070
L37550 30070
L37590 30090
L37620 30110
L37640 30160
L37640 30280
L37620 30330
L37590 30350
L37550 30380
L37400 30380
L37360 30350
L37330 30330
" />
<path d="M44500 30500
L46500 30500
" />
</g>
<g style="fill:#008484; fill-opacity:0.0; 
stroke:#008484; stroke-width:60; stroke-opacity:1; 
stroke-linecap:round; stroke-linejoin:round;">
<path d="M42790 30230
L42950 30730
L43120 30230
" />
<path d="M43460 30460
L43290 30460
" />
<path d="M43290 30730
L43290 30230
L43530 30230
" />
<path d="M43890 30460
L43960 30490
L43980 30510
L44000 30560
L44000 30630
L43980 30680
L43960 30700
L43910 30730
L43720 30730
L43720 30230
L43890 30230
L43930 30250
L43960 30270
L43980 30320
L43980 30370
L43960 30420
L43930 30440
L43890 30460
L43720 30460
" />
</g>
<g style="fill:#840000; fill-opacity:0.0; 
stroke:#840000; stroke-width:60; stroke-opacity:1; 
stroke-linecap:round; stroke-linejoin:round;">
<path d="M45590 30040
L45590 30380
" />
<path d="M45470 29850
L45360 30210
L45660 30210
" />
<path d="M44500 29000
L46500 29000
" />
</g>
<g style="fill:#008484; fill-opacity:0.0; 
stroke:#008484; stroke-width:60; stroke-opacity:1; 
stroke-linecap:round; stroke-linejoin:round;">
<path d="M43250 28960
L43420 28960
" />
<path d="M43490 29230
L43250 29230
L43250 28730
L43490 28730
" />
<path d="M43700 29230
L43700 28730
L43980 29230
L43980 28730
" />
</g>
<g style="fill:#840000; fill-opacity:0.0; 
stroke:#840000; stroke-width:60; stroke-opacity:1; 
stroke-linecap:round; stroke-linejoin:round;">
<path d="M45620 28380
L45380 28380
L45360 28610
L45380 28590
L45430 28570
L45550 28570
L45590 28590
L45620 28610
L45640 28660
L45640 28780
L45620 28830
L45590 28850
L45550 28880
L45430 28880
L45380 28850
L45360 28830
" />
<path d="M44500 27000
L46500 27000
" />
</g>
<g style="fill:#008484; fill-opacity:0.0; 
stroke:#008484; stroke-width:60; stroke-opacity:1; 
stroke-linecap:round; stroke-linejoin:round;">
<path d="M42360 26730
L42520 27230
L42690 26730
" />
<path d="M43030 26960
L43100 26990
L43120 27010
L43140 27060
L43140 27130
L43120 27180
L43100 27200
L43050 27230
L42860 27230
L42860 26730
L43030 26730
L43070 26750
L43100 26770
L43120 26820
L43120 26870
L43100 26920
L43070 26940
L43030 26960
L42860 26960
" />
<path d="M43340 27200
L43410 27230
L43530 27230
L43570 27200
L43600 27180
L43620 27130
L43620 27080
L43600 27040
L43570 27010
L43530 26990
L43430 26960
L43380 26940
L43360 26920
L43340 26870
L43340 26820
L43360 26770
L43380 26750
L43430 26730
L43550 26730
L43620 26750
" />
<path d="M43770 26730
L44050 26730
" />
<path d="M43910 27230
L43910 26730
" />
</g>
<g style="fill:#840000; fill-opacity:0.0; 
stroke:#840000; stroke-width:60; stroke-opacity:1; 
stroke-linecap:round; stroke-linejoin:round;">
<path d="M45590 26380
L45500 26380
L45450 26400
L45430 26420
L45380 26500
L45360 26590
L45360 26780
L45380 26830
L45400 26850
L45450 26880
L45550 26880
L45590 26850
L45620 26830
L45640 26780
L45640 26660
L45620 26610
L45590 26590
L45550 26570
L45450 26570
L45400 26590
L45380 26610
L45360 26660
" />
</g>
<g style="fill:#008484; fill-opacity:0.0; 
stroke:#008484; stroke-width:60; stroke-opacity:1; 
stroke-linecap:round; stroke-linejoin:round;">
<path d="M40470 26140
L40470 26630
L40500 26680
L40530 26710
L40590 26740
L40700 26740
L40760 26710
L40790 26680
L40820 26630
L40820 26140
" />
<path d="M41420 26740
L41070 26740
" />
<path d="M41250 26740
L41250 26140
L41190 26230
L41130 26280
L41070 26310
" />
<path d="M41790 26140
L41840 26140
L41900 26170
L41930 26200
L41960 26260
L41990 26370
L41990 26510
L41960 26630
L41930 26680
L41900 26710
L41840 26740
L41790 26740
L41730 26710
L41700 26680
L41670 26630
L41640 26510
L41640 26370
L41670 26260
L41700 26200
L41730 26170
L41790 26140
" />
<path d="M42330 26400
L42270 26370
L42240 26340
L42210 26280
L42210 26260
L42240 26200
L42270 26170
L42330 26140
L42440 26140
L42500 26170
L42530 26200
L42560 26260
L42560 26280
L42530 26340
L42500 26370
L42440 26400
L42330 26400
L42270 26430
L42240 26460
L42210 26510
L42210 26630
L42240 26680
L42270 26710
L42330 26740
L42440 26740
L42500 26710
L42530 26680
L42560 26630
L42560 26510
L42530 26460
L42500 26430
L42440 26400
" />
<path d="M39040 31140
L39380 31140
" />
<path d="M39210 31740
L39210 31140
" />
<path d="M39580 31740
L39580 31140
L39810 31140
L39870 31170
L39900 31200
L39930 31260
L39930 31340
L39900 31400
L39870 31430
L39810 31460
L39580 31460
" />
<path d="M40150 31710
L40240 31740
L40380 31740
L40440 31710
L40470 31680
L40500 31630
L40500 31570
L40470 31510
L40440 31480
L40380 31460
L40270 31430
L40210 31400
L40180 31370
L40150 31310
L40150 31260
L40180 31200
L40210 31170
L40270 31140
L40410 31140
L40500 31170
" />
<path d="M41040 31140
L40750 31140
L40720 31430
L40750 31400
L40810 31370
L40950 31370
L41010 31400
L41040 31430
L41070 31480
L41070 31630
L41040 31680
L41010 31710
L40950 31740
L40810 31740
L40750 31710
L40720 31680
" />
<path d="M41580 31140
L41470 31140
L41410 31170
L41380 31200
L41320 31280
L41290 31400
L41290 31630
L41320 31680
L41350 31710
L41410 31740
L41520 31740
L41580 31710
L41610 31680
L41640 31630
L41640 31480
L41610 31430
L41580 31400
L41520 31370
L41410 31370
L41350 31400
L41320 31430
L41290 31480
" />
<path d="M41840 31140
L42210 31140
L42010 31370
L42090 31370
L42150 31400
L42180 31430
L42210 31480
L42210 31630
L42180 31680
L42150 31710
L42090 31740
L41920 31740
L41860 31710
L41840 31680
" />
<path d="M42430 31200
L42460 31170
L42520 31140
L42660 31140
L42720 31170
L42750 31200
L42780 31260
L42780 31310
L42750 31400
L42410 31740
L42780 31740
" />
<path d="M43150 31140
L43200 31140
L43260 31170
L43290 31200
L43320 31260
L43350 31370
L43350 31510
L43320 31630
L43290 31680
L43260 31710
L43200 31740
L43150 31740
L43090 31710
L43060 31680
L43030 31630
L43000 31510
L43000 31370
L43030 31260
L43060 31200
L43090 31170
L43150 31140
" />
<path d="M43720 31140
L43770 31140
L43830 31170
L43860 31200
L43890 31260
L43920 31370
L43920 31510
L43890 31630
L43860 31680
L43830 31710
L43770 31740
L43720 31740
L43660 31710
L43630 31680
L43600 31630
L43570 31510
L43570 31370
L43600 31260
L43630 31200
L43660 31170
L43720 31140
" />
</g>
<g style="fill:#008484; fill-opacity:0.0; 
stroke:#008484; stroke-width:0; stroke-opacity:1; 
stroke-linecap:round; stroke-linejoin:round;">
</g>
<g style="fill:#840000; fill-opacity:0.0; 
stroke:#840000; stroke-width:0; stroke-opacity:1; 
stroke-linecap:round; stroke-linejoin:round;">
</g>
<g style="fill:#840000; fill-opacity:0.0; 
stroke:#840000; stroke-width:200; stroke-opacity:1; 
stroke-linecap:round; stroke-linejoin:round;">
<polyline fill="none;"
points="29200,29300
30800,29300
" /> 
<polyline fill="none;"
points="29200,28700
30800,28700
" /> 
</g>
<g style="fill:#840000; fill-opacity:0.0; 
stroke:#840000; stroke-width:60; stroke-opacity:1; 
stroke-linecap:round; stroke-linejoin:round;">
<path d="M30000 28600
L30000 27500
" />
<path d="M30000 29400
L30000 30500
" />
</g>
<g style="fill:#008484; fill-opacity:0.0; 
stroke:#008484; stroke-width:60; stroke-opacity:1; 
stroke-linecap:round; stroke-linejoin:round;">
<path d="M30320 28110
L30300 28130
L30250 28150
L30210 28150
L30150 28130
L30110 28090
L30100 28060
L30080 27980
L30080 27920
L30100 27850
L30110 27810
L30150 27770
L30210 27750
L30250 27750
L30300 27770
L30320 27790
" />
<path d="M30700 28150
L30480 28150
" />
<path d="M30590 28150
L30590 27750
L30550 27810
L30510 27850
L30480 27870
" />
<path d="M31080 28150
L30860 28150
" />
<path d="M30970 28150
L30970 27750
L30930 27810
L30890 27850
L30860 27870
" />
<path d="M31310 27920
L31270 27900
L31260 27880
L31240 27850
L31240 27830
L31260 27790
L31270 27770
L31310 27750
L31390 27750
L31430 27770
L31450 27790
L31460 27830
L31460 27850
L31450 27880
L31430 27900
L31390 27920
L31310 27920
L31270 27940
L31260 27960
L31240 28000
L31240 28070
L31260 28110
L31270 28130
L31310 28150
L31390 28150
L31430 28130
L31450 28110
L31460 28070
L31460 28000
L31450 27960
L31430 27940
L31390 27920
" />
<path d="M30140 29640
L30160 29620
L30190 29600
L30290 29600
L30330 29620
L30350 29640
L30360 29680
L30360 29720
L30350 29770
L30120 30000
L30360 30000
" />
<path d="M30520 29640
L30540 29620
L30570 29600
L30670 29600
L30710 29620
L30730 29640
L30740 29680
L30740 29720
L30730 29770
L30500 30000
L30740 30000
" />
<path d="M31090 29730
L31090 30000
" />
<path d="M30920 29730
L30920 29940
L30930 29980
L30970 30000
L31030 30000
L31070 29980
L31090 29960
" />
<path d="M31220 29730
L31370 29730
" />
<path d="M31280 30000
L31280 29660
L31290 29620
L31330 29600
L31370 29600
" />
</g>
<g style="fill:#848400; fill-opacity:0.0; 
stroke:#848400; stroke-width:60; stroke-opacity:1; 
stroke-linecap:round; stroke-linejoin:round;">
<path d="M21960 31670
L22160 32270
L22360 31670
" />
<path d="M22550 32270
L22550 31870
" />
<path d="M22550 31670
L22520 31700
L22550 31730
L22580 31700
L22550 31670
L22550 31730
" />
<path d="M22840 31870
L22840 32270
" />
<path d="M22840 31930
L22870 31900
L22930 31870
L23010 31870
L23070 31900
L23100 31960
L23100 32270
" />
</g>
<g style="fill:#848400; fill-opacity:0.0; 
stroke:#848400; stroke-width:100; stroke-opacity:1; 
stroke-linecap:round; stroke-linejoin:round;">
<polyline fill="none;"
points="24000,32000
23700,31700
23400,31700
23400,32300
23700,32300
24000,32000
" /> 
</g>
<g style="fill:#848400; fill-opacity:0.0; 
stroke:#848400; stroke-width:60; stroke-opacity:1; 
stroke-linecap:round; stroke-linejoin:round;">
<path d="M22020 26200
L21960 26170
L21870 26170
L21790 26200
L21730 26260
L21700 26310
L21670 26430
L21670 26510
L21700 26630
L21730 26690
L21790 26740
L21870 26770
L21930 26770
L22020 26740
L22050 26710
L22050 26510
L21930 26510
" />
<path d="M22300 26370
L22300 26770
" />
<path d="M22300 26430
L22330 26400
L22390 26370
L22470 26370
L22530 26400
L22560 26460
L22560 26770
" />
<path d="M23100 26770
L23100 26170
" />
<path d="M23100 26740
L23040 26770
L22930 26770
L22870 26740
L22840 26710
L22810 26660
L22810 26490
L22840 26430
L22870 26400
L22930 26370
L23040 26370
L23100 26400
" />
</g>
<g style="fill:#848400; fill-opacity:0.0; 
stroke:#848400; stroke-width:100; stroke-opacity:1; 
stroke-linecap:round; stroke-linejoin:round;">
<polyline fill="none;"
points="24000,26500
23700,26200
23400,26200
23400,26800
23700,26800
24000,26500
" /> 
</g>
<g style="fill:#848400; fill-opacity:0.0; 
stroke:#848400; stroke-width:0; stroke-opacity:1; 
stroke-linecap:round; stroke-linejoin:round;">
</g>
<g style="fill:#840000; fill-opacity:0.0; 
stroke:#840000; stroke-width:0; stroke-opacity:1; 
stroke-linecap:round; stroke-linejoin:round;">
</g>
<g style="fill:#840000; fill-opacity:0.0; 
stroke:#840000; stroke-width:200; stroke-opacity:1; 
stroke-linecap:round; stroke-linejoin:round;">
<polyline fill="none;"
points="48700,26200
48700,27800
" /> 
<polyline fill="none;"
points="49300,26200
49300,27800
" /> 
</g>
<g style="fill:#840000; fill-opacity:0.0; 
stroke:#840000; stroke-width:60; stroke-opacity:1; 
stroke-linecap:round; stroke-linejoin:round;">
<path d="M49400 27000
L50500 27000
" />
<path d="M48600 27000
L47500 27000
" />
</g>
<g style="fill:#008484; fill-opacity:0.0; 
stroke:#008484; stroke-width:60; stroke-opacity:1; 
stroke-linecap:round; stroke-linejoin:round;">
<path d="M50170 28220
L50190 28240
L50210 28290
L50210 28330
L50190 28390
L50150 28430
L50120 28440
L50040 28460
L49980 28460
L49910 28440
L49870 28430
L49830 28390
L49810 28330
L49810 28290
L49830 28240
L49850 28220
" />
<path d="M50210 27840
L50210 28060
" />
<path d="M50210 27950
L49810 27950
L49870 27990
L49910 28030
L49930 28060
" />
<path d="M49850 27680
L49830 27660
L49810 27630
L49810 27530
L49830 27490
L49850 27470
L49890 27460
L49930 27460
L49980 27470
L50210 27700
L50210 27460
" />
<path d="M50210 27080
L50210 27300
" />
<path d="M50210 27190
L49810 27190
L49870 27230
L49910 27270
L49930 27300
" />
<path d="M48360 28480
L48360 28700
" />
<path d="M48360 28590
L47960 28590
L48020 28630
L48060 28670
L48080 28700
" />
<path d="M47960 28230
L47960 28190
L47980 28150
L48000 28130
L48040 28110
L48110 28100
L48210 28100
L48280 28110
L48320 28130
L48340 28150
L48360 28190
L48360 28230
L48340 28270
L48320 28290
L48280 28300
L48210 28320
L48110 28320
L48040 28300
L48000 28290
L47980 28270
L47960 28230
" />
<path d="M47960 27850
L47960 27810
L47980 27770
L48000 27750
L48040 27730
L48110 27720
L48210 27720
L48280 27730
L48320 27750
L48340 27770
L48360 27810
L48360 27850
L48340 27890
L48320 27910
L48280 27920
L48210 27940
L48110 27940
L48040 27920
L48000 27910
L47980 27890
L47960 27850
" />
<path d="M48090 27540
L48360 27540
" />
<path d="M48130 27540
L48110 27530
L48090 27490
L48090 27430
L48110 27390
L48150 27370
L48360 27370
" />
<path d="M48090 27240
L48090 27090
" />
<path d="M48360 27180
L48020 27180
L47980 27170
L47960 27130
L47960 27090
" />
</g>
<g style="fill:#008484; fill-opacity:0.0; 
stroke:#008484; stroke-width:0; stroke-opacity:1; 
stroke-linecap:round; stroke-linejoin:round;">
</g>
<g style="fill:#840000; fill-opacity:0.0; 
stroke:#840000; stroke-width:0; stroke-opacity:1; 
stroke-linecap:round; stroke-linejoin:round;">
</g>
<g style="fill:#840000; fill-opacity:0.0; 
stroke:#840000; stroke-width:100; stroke-opacity:1; 
stroke-linecap:round; stroke-linejoin:round;">
<rect x="60100" y="28500" width="800" height="2000" rx="0" />
</g>
<g style="fill:#840000; fill-opacity:0.0; 
stroke:#840000; stroke-width:60; stroke-opacity:1; 
stroke-linecap:round; stroke-linejoin:round;">
<path d="M60500 28500
L60500 28000
" />
<path d="M60500 30500
L60500 31000
" />
</g>
<g style="fill:#008484; fill-opacity:0.0; 
stroke:#008484; stroke-width:60; stroke-opacity:1; 
stroke-linecap:round; stroke-linejoin:round;">
<path d="M61450 29950
L61260 30080
" />
<path d="M61450 30170
L61050 30170
L61050 30020
L61070 29980
L61090 29970
L61130 29950
L61180 29950
L61220 29970
L61240 29980
L61260 30020
L61260 30170
" />
<path d="M61450 29570
L61450 29790
" />
<path d="M61450 29680
L61050 29680
L61110 29720
L61150 29760
L61170 29790
" />
<path d="M61180 29220
L61450 29220
" />
<path d="M61030 29320
L61320 29410
L61320 29170
" />
<path d="M61050 29050
L61050 28790
L61450 28960
" />
<path d="M60320 30010
L60320 30200
L60510 30220
L60490 30200
L60470 30170
L60470 30070
L60490 30030
L60510 30010
L60550 30000
L60640 30000
L60680 30010
L60700 30030
L60720 30070
L60720 30170
L60700 30200
L60680 30220
" />
<path d="M60320 29650
L60320 29730
L60340 29770
L60360 29790
L60420 29820
L60490 29840
L60640 29840
L60680 29820
L60700 29810
L60720 29770
L60720 29690
L60700 29650
L60680 29630
L60640 29620
L60550 29620
L60510 29630
L60490 29650
L60470 29690
L60470 29770
L60490 29810
L60510 29820
L60550 29840
" />
<path d="M60680 29440
L60700 29430
L60720 29440
L60700 29460
L60680 29440
L60720 29440
" />
<path d="M60360 29270
L60340 29250
L60320 29220
L60320 29120
L60340 29080
L60360 29060
L60400 29050
L60440 29050
L60490 29060
L60720 29290
L60720 29050
" />
<path d="M60720 28870
L60320 28870
" />
<path d="M60570 28840
L60720 28720
" />
<path d="M60450 28720
L60610 28870
" />
</g>
<g style="fill:#008484; fill-opacity:0.0; 
stroke:#008484; stroke-width:0; stroke-opacity:1; 
stroke-linecap:round; stroke-linejoin:round;">
</g>
<g style="fill:#840000; fill-opacity:0.0; 
stroke:#840000; stroke-width:0; stroke-opacity:1; 
stroke-linecap:round; stroke-linejoin:round;">
</g>
<g style="fill:#840000; fill-opacity:0.0; 
stroke:#840000; stroke-width:100; stroke-opacity:1; 
stroke-linecap:round; stroke-linejoin:round;">
<rect x="60100" y="34500" width="800" height="2000" rx="0" />
</g>
<g style="fill:#840000; fill-opacity:0.0; 
stroke:#840000; stroke-width:60; stroke-opacity:1; 
stroke-linecap:round; stroke-linejoin:round;">
<path d="M60500 34500
L60500 34000
" />
<path d="M60500 36500
L60500 37000
" />
</g>
<g style="fill:#008484; fill-opacity:0.0; 
stroke:#008484; stroke-width:60; stroke-opacity:1; 
stroke-linecap:round; stroke-linejoin:round;">
<path d="M61450 35950
L61260 36080
" />
<path d="M61450 36170
L61050 36170
L61050 36020
L61070 35980
L61090 35970
L61130 35950
L61180 35950
L61220 35970
L61240 35980
L61260 36020
L61260 36170
" />
<path d="M61450 35570
L61450 35790
" />
<path d="M61450 35680
L61050 35680
L61110 35720
L61150 35760
L61170 35790
" />
<path d="M61180 35220
L61450 35220
" />
<path d="M61030 35320
L61320 35410
L61320 35170
" />
<path d="M61050 34820
L61050 35010
L61240 35030
L61220 35010
L61200 34980
L61200 34880
L61220 34840
L61240 34820
L61280 34810
L61370 34810
L61410 34820
L61430 34840
L61450 34880
L61450 34980
L61430 35010
L61410 35030
" />
<path d="M60720 35730
L60720 35950
" />
<path d="M60720 35840
L60320 35840
L60380 35880
L60420 35920
L60440 35950
" />
<path d="M60320 35480
L60320 35440
L60340 35400
L60360 35380
L60400 35360
L60470 35350
L60570 35350
L60640 35360
L60680 35380
L60700 35400
L60720 35440
L60720 35480
L60700 35520
L60680 35540
L60640 35550
L60570 35570
L60470 35570
L60400 35550
L60360 35540
L60340 35520
L60320 35480
" />
<path d="M60720 35170
L60320 35170
" />
<path d="M60570 35140
L60720 35020
" />
<path d="M60450 35020
L60610 35170
" />
</g>
<g style="fill:#008484; fill-opacity:0.0; 
stroke:#008484; stroke-width:0; stroke-opacity:1; 
stroke-linecap:round; stroke-linejoin:round;">
</g>
<g style="fill:#840000; fill-opacity:0.0; 
stroke:#840000; stroke-width:0; stroke-opacity:1; 
stroke-linecap:round; stroke-linejoin:round;">
</g>
<g style="fill:#840000; fill-opacity:0.0; 
stroke:#840000; stroke-width:60; stroke-opacity:1; 
stroke-linecap:round; stroke-linejoin:round;">
<path d="M53500.1 27009.6 A500 500 0.0 0 0 54499.9 27009.6 " />
<path d="M54500.1 27009.8 A510 510 0.0 0 0 55519.9 27009.8 " />
<path d="M55500.1 27009.8 A510 510 0.0 0 0 56519.9 27009.8 " />
<path d="M56500.1 27009.2 A480 480 0.0 0 0 57459.9 27009.2 " />
<path d="M57500 27000
L58500 27000
" />
<path d="M53500 27000
L52500 27000
" />
</g>
<g style="fill:#008484; fill-opacity:0.0; 
stroke:#008484; stroke-width:60; stroke-opacity:1; 
stroke-linecap:round; stroke-linejoin:round;">
<path d="M55060 26650
L54870 26650
L54870 26250
" />
<path d="M55390 26650
L55170 26650
" />
<path d="M55280 26650
L55280 26250
L55240 26310
L55200 26350
L55170 26370
" />
<path d="M55640 26250
L55680 26250
L55720 26270
L55740 26290
L55760 26330
L55770 26400
L55770 26500
L55760 26570
L55740 26610
L55720 26630
L55680 26650
L55640 26650
L55600 26630
L55580 26610
L55570 26570
L55550 26500
L55550 26400
L55570 26330
L55580 26290
L55600 26270
L55640 26250
" />
<path d="M55910 26250
L56150 26250
L56020 26400
L56080 26400
L56120 26420
L56140 26440
L56150 26480
L56150 26570
L56140 26610
L56120 26630
L56080 26650
L55960 26650
L55930 26630
L55910 26610
" />
<path d="M54730 27750
L54970 27750
L54840 27900
L54900 27900
L54940 27920
L54960 27940
L54970 27980
L54970 28070
L54960 28110
L54940 28130
L54900 28150
L54780 28150
L54750 28130
L54730 28110
" />
<path d="M55150 28110
L55160 28130
L55150 28150
L55130 28130
L55150 28110
L55150 28150
" />
<path d="M55300 27750
L55540 27750
L55410 27900
L55470 27900
L55510 27920
L55530 27940
L55540 27980
L55540 28070
L55530 28110
L55510 28130
L55470 28150
L55350 28150
L55320 28130
L55300 28110
" />
<path d="M55890 27880
L55890 28150
" />
<path d="M55720 27880
L55720 28090
L55730 28130
L55770 28150
L55830 28150
L55870 28130
L55890 28110
" />
<path d="M56080 28150
L56080 27750
" />
<path d="M56250 28150
L56250 27940
L56230 27900
L56190 27880
L56130 27880
L56090 27900
L56080 27920
" />
</g>
<g style="fill:#008484; fill-opacity:0.0; 
stroke:#008484; stroke-width:0; stroke-opacity:1; 
stroke-linecap:round; stroke-linejoin:round;">
</g>
<g style="fill:#840000; fill-opacity:0.0; 
stroke:#840000; stroke-width:0; stroke-opacity:1; 
stroke-linecap:round; stroke-linejoin:round;">
</g>
<g style="fill:#840000; fill-opacity:0.0; 
stroke:#840000; stroke-width:100; stroke-opacity:1; 
stroke-linecap:round; stroke-linejoin:round;">
<rect x="43500" y="34600" width="2000" height="800" rx="0" />
</g>
<g style="fill:#840000; fill-opacity:0.0; 
stroke:#840000; stroke-width:60; stroke-opacity:1; 
stroke-linecap:round; stroke-linejoin:round;">
<path d="M45500 35000
L46000 35000
" />
<path d="M43500 35000
L43000 35000
" />
</g>
<g style="fill:#008484; fill-opacity:0.0; 
stroke:#008484; stroke-width:60; stroke-opacity:1; 
stroke-linecap:round; stroke-linejoin:round;">
<path d="M44050 35950
L43920 35760
" />
<path d="M43830 35950
L43830 35550
L43980 35550
L44020 35570
L44030 35590
L44050 35630
L44050 35680
L44030 35720
L44020 35740
L43980 35760
L43830 35760
" />
<path d="M44430 35950
L44210 35950
" />
<path d="M44320 35950
L44320 35550
L44280 35610
L44240 35650
L44210 35670
" />
<path d="M44780 35680
L44780 35950
" />
<path d="M44680 35530
L44590 35820
L44830 35820
" />
<path d="M45060 35550
L45100 35550
L45140 35570
L45160 35590
L45180 35630
L45190 35700
L45190 35800
L45180 35870
L45160 35910
L45140 35930
L45100 35950
L45060 35950
L45020 35930
L45000 35910
L44990 35870
L44970 35800
L44970 35700
L44990 35630
L45000 35590
L45020 35570
L45060 35550
" />
<path d="M44230 35220
L44010 35220
" />
<path d="M44120 35220
L44120 34820
L44080 34880
L44040 34920
L44010 34940
" />
<path d="M44480 34820
L44520 34820
L44560 34840
L44580 34860
L44600 34900
L44610 34970
L44610 35070
L44600 35140
L44580 35180
L44560 35200
L44520 35220
L44480 35220
L44440 35200
L44420 35180
L44410 35140
L44390 35070
L44390 34970
L44410 34900
L44420 34860
L44440 34840
L44480 34820
" />
<path d="M44790 35220
L44790 34820
" />
<path d="M45010 35220
L44840 34990
" />
<path d="M45010 34820
L44790 35050
" />
</g>
<g style="fill:#008484; fill-opacity:0.0; 
stroke:#008484; stroke-width:0; stroke-opacity:1; 
stroke-linecap:round; stroke-linejoin:round;">
</g>
<g style="fill:#840000; fill-opacity:0.0; 
stroke:#840000; stroke-width:0; stroke-opacity:1; 
stroke-linecap:round; stroke-linejoin:round;">
</g>
<g style="fill:#840000; fill-opacity:0.0; 
stroke:#840000; stroke-width:100; stroke-opacity:1; 
stroke-linecap:round; stroke-linejoin:round;">
<rect x="42100" y="40500" width="800" height="2000" rx="0" />
</g>
<g style="fill:#840000; fill-opacity:0.0; 
stroke:#840000; stroke-width:60; stroke-opacity:1; 
stroke-linecap:round; stroke-linejoin:round;">
<path d="M42500 40500
L42500 40000
" />
<path d="M42500 42500
L42500 43000
" />
</g>
<g style="fill:#008484; fill-opacity:0.0; 
stroke:#008484; stroke-width:60; stroke-opacity:1; 
stroke-linecap:round; stroke-linejoin:round;">
<path d="M43450 41950
L43260 42080
" />
<path d="M43450 42170
L43050 42170
L43050 42020
L43070 41980
L43090 41970
L43130 41950
L43180 41950
L43220 41970
L43240 41980
L43260 42020
L43260 42170
" />
<path d="M43450 41570
L43450 41790
" />
<path d="M43450 41680
L43050 41680
L43110 41720
L43150 41760
L43170 41790
" />
<path d="M43180 41220
L43450 41220
" />
<path d="M43030 41320
L43320 41410
L43320 41170
" />
<path d="M43450 40810
L43450 41030
" />
<path d="M43450 40920
L43050 40920
L43110 40960
L43150 41000
L43170 41030
" />
<path d="M42720 41770
L42720 41990
" />
<path d="M42720 41880
L42320 41880
L42380 41920
L42420 41960
L42440 41990
" />
<path d="M42320 41520
L42320 41480
L42340 41440
L42360 41420
L42400 41400
L42470 41390
L42570 41390
L42640 41400
L42680 41420
L42700 41440
L42720 41480
L42720 41520
L42700 41560
L42680 41580
L42640 41590
L42570 41610
L42470 41610
L42400 41590
L42360 41580
L42340 41560
L42320 41520
" />
<path d="M42720 41210
L42320 41210
" />
<path d="M42720 40990
L42490 41160
" />
<path d="M42320 40990
L42550 41210
" />
</g>
<g style="fill:#848400; fill-opacity:0.0; 
stroke:#848400; stroke-width:60; stroke-opacity:1; 
stroke-linecap:round; stroke-linejoin:round;">
<path d="M37800 38460
L38000 38460
" />
<path d="M38090 38770
L37800 38770
L37800 38170
L38090 38170
" />
<path d="M38340 38370
L38340 38770
" />
<path d="M38340 38430
L38370 38400
L38430 38370
L38510 38370
L38570 38400
L38600 38460
L38600 38770
" />
</g>
<g style="fill:#848400; fill-opacity:0.0; 
stroke:#848400; stroke-width:100; stroke-opacity:1; 
stroke-linecap:round; stroke-linejoin:round;">
<polyline fill="none;"
points="39500,38500
39200,38200
38900,38200
38900,38800
39200,38800
39500,38500
" /> 
</g>
<g style="fill:#848400; fill-opacity:0.0; 
stroke:#848400; stroke-width:0; stroke-opacity:1; 
stroke-linecap:round; stroke-linejoin:round;">
</g>
<g style="fill:#840000; fill-opacity:0.0; 
stroke:#840000; stroke-width:0; stroke-opacity:1; 
stroke-linecap:round; stroke-linejoin:round;">
</g>
<g style="fill:#840000; fill-opacity:0.0; 
stroke:#840000; stroke-width:200; stroke-opacity:1; 
stroke-linecap:round; stroke-linejoin:round;">
<polyline fill="none;"
points="63200,29800
64800,29800
" /> 
<polyline fill="none;"
points="63200,29200
64800,29200
" /> 
</g>
<g style="fill:#840000; fill-opacity:0.0; 
stroke:#840000; stroke-width:60; stroke-opacity:1; 
stroke-linecap:round; stroke-linejoin:round;">
<path d="M64000 29100
L64000 28000
" />
<path d="M64000 29900
L64000 31000
" />
</g>
<g style="fill:#008484; fill-opacity:0.0; 
stroke:#008484; stroke-width:60; stroke-opacity:1; 
stroke-linecap:round; stroke-linejoin:round;">
<path d="M64320 28610
L64300 28630
L64250 28650
L64210 28650
L64150 28630
L64110 28590
L64100 28560
L64080 28480
L64080 28420
L64100 28350
L64110 28310
L64150 28270
L64210 28250
L64250 28250
L64300 28270
L64320 28290
" />
<path d="M64700 28650
L64480 28650
" />
<path d="M64590 28650
L64590 28250
L64550 28310
L64510 28350
L64480 28370
" />
<path d="M64860 28290
L64880 28270
L64910 28250
L65010 28250
L65050 28270
L65070 28290
L65080 28330
L65080 28370
L65070 28420
L64840 28650
L65080 28650
" />
<path d="M65240 28290
L65260 28270
L65290 28250
L65390 28250
L65430 28270
L65450 28290
L65460 28330
L65460 28370
L65450 28420
L65220 28650
L65460 28650
" />
<path d="M64330 30230
L64330 30500
" />
<path d="M64230 30080
L64140 30370
L64380 30370
" />
<path d="M64500 30100
L64760 30100
L64590 30500
" />
<path d="M65090 30230
L65090 30500
" />
<path d="M64920 30230
L64920 30440
L64930 30480
L64970 30500
L65030 30500
L65070 30480
L65090 30460
" />
<path d="M65220 30230
L65370 30230
" />
<path d="M65280 30500
L65280 30160
L65290 30120
L65330 30100
L65370 30100
" />
</g>
<g style="fill:#848400; fill-opacity:0.0; 
stroke:#848400; stroke-width:60; stroke-opacity:1; 
stroke-linecap:round; stroke-linejoin:round;">
<path d="M70820 26170
L71020 26770
L71220 26170
" />
<path d="M71500 26770
L71440 26740
L71410 26710
L71380 26660
L71380 26490
L71410 26430
L71440 26400
L71500 26370
L71580 26370
L71640 26400
L71670 26430
L71700 26490
L71700 26660
L71670 26710
L71640 26740
L71580 26770
L71500 26770
" />
<path d="M72210 26370
L72210 26770
" />
<path d="M71950 26370
L71950 26690
L71980 26740
L72040 26770
L72120 26770
L72180 26740
L72210 26710
" />
<path d="M72410 26370
L72640 26370
" />
<path d="M72490 26170
L72490 26690
L72520 26740
L72580 26770
L72640 26770
" />
</g>
<g style="fill:#848400; fill-opacity:0.0; 
stroke:#848400; stroke-width:100; stroke-opacity:1; 
stroke-linecap:round; stroke-linejoin:round;">
<polyline fill="none;"
points="70000,26500
70300,26800
70600,26800
70600,26200
70300,26200
70000,26500
" /> 
</g>
<g style="fill:#848400; fill-opacity:0.0; 
stroke:#848400; stroke-width:0; stroke-opacity:1; 
stroke-linecap:round; stroke-linejoin:round;">
</g>
<g style="fill:#840000; fill-opacity:0.0; 
stroke:#840000; stroke-width:0; stroke-opacity:1; 
stroke-linecap:round; stroke-linejoin:round;">
</g>
<g style="fill:#840000; fill-opacity:0.0; 
stroke:#840000; stroke-width:80; stroke-opacity:1; 
stroke-linecap:round; stroke-linejoin:round;">
<polyline fill="none;"
points="46500,39500
46500,37500
" /> 
</g>
<g style="fill:#840000; fill-opacity:0.0; 
stroke:#840000; stroke-width:100; stroke-opacity:1; 
stroke-linecap:round; stroke-linejoin:round;">
<polyline fill="none;"
points="47000,40000
47000,37000
" /> 
</g>
<g style="fill:#840000; fill-opacity:0.0; 
stroke:#840000; stroke-width:60; stroke-opacity:1; 
stroke-linecap:round; stroke-linejoin:round;">
<polyline fill="none;"
points="48000,39500
47000,39500
" /> 
<polyline fill="none;"
points="48000,37500
47000,37500
" /> 
</g>
<g style="fill:#840000; fill-opacity:0.0; 
stroke:#840000; stroke-width:80; stroke-opacity:1; 
stroke-linecap:round; stroke-linejoin:round;">
<polyline fill="none;"
points="48000,39500
48000,38500
47500,38500
" /> 
<polyline fill="none;"
points="47500,38200
47500,38800
47000,38500
47500,38200
47500,38200
" /> 
</g>
<g style="fill:#840000; fill-opacity:0.0; 
stroke:#840000; stroke-width:60; stroke-opacity:1; 
stroke-linecap:round; stroke-linejoin:round;">
<path d="M46500 38500
L45000 38500
" />
</g>
<g style="fill:#008484; fill-opacity:0.0; 
stroke:#008484; stroke-width:60; stroke-opacity:1; 
stroke-linecap:round; stroke-linejoin:round;">
<path d="M45850 38000
L45820 37980
L45760 37980
L45700 38000
L45660 38040
L45650 38080
L45630 38150
L45630 38210
L45650 38290
L45660 38320
L45700 38360
L45760 38380
L45800 38380
L45850 38360
L45870 38340
L45870 38210
L45800 38210
" />
</g>
<g style="fill:#840000; fill-opacity:0.0; 
stroke:#840000; stroke-width:60; stroke-opacity:1; 
stroke-linecap:round; stroke-linejoin:round;">
<path d="M48000 39500
L48000 40500
" />
</g>
<g style="fill:#008484; fill-opacity:0.0; 
stroke:#008484; stroke-width:60; stroke-opacity:1; 
stroke-linecap:round; stroke-linejoin:round;">
<path d="M47860 40110
L47880 40060
L47880 39960
L47860 39920
L47840 39900
L47800 39890
L47770 39890
L47730 39900
L47710 39920
L47690 39960
L47670 40040
L47650 40080
L47630 40090
L47600 40110
L47560 40110
L47520 40090
L47500 40080
L47480 40040
L47480 39940
L47500 39890
" />
</g>
<g style="fill:#840000; fill-opacity:0.0; 
stroke:#840000; stroke-width:60; stroke-opacity:1; 
stroke-linecap:round; stroke-linejoin:round;">
<path d="M48000 37500
L48000 36500
" />
</g>
<g style="fill:#008484; fill-opacity:0.0; 
stroke:#008484; stroke-width:60; stroke-opacity:1; 
stroke-linecap:round; stroke-linejoin:round;">
<path d="M47880 37100
L47480 37100
L47480 37010
L47500 36950
L47540 36910
L47580 36900
L47650 36880
L47710 36880
L47790 36900
L47820 36910
L47860 36950
L47880 37010
L47880 37100
" />
<path d="M45300 37100
L45250 37070
L45190 37010
L45100 36930
L45050 36900
L44990 36900
" />
<path d="M45020 37040
L44960 37010
L44900 36960
L44870 36840
L44870 36640
L44900 36530
L44960 36470
L45020 36440
L45130 36440
L45190 36470
L45250 36530
L45270 36640
L45270 36840
L45250 36960
L45190 37010
L45130 37040
L45020 37040
" />
<path d="M45850 37040
L45500 37040
" />
<path d="M45680 37040
L45680 36440
L45620 36530
L45560 36580
L45500 36610
" />
<path d="M46220 36440
L46270 36440
L46330 36470
L46360 36500
L46390 36560
L46420 36670
L46420 36810
L46390 36930
L46360 36980
L46330 37010
L46270 37040
L46220 37040
L46160 37010
L46130 36980
L46100 36930
L46070 36810
L46070 36670
L46100 36560
L46130 36500
L46160 36470
L46220 36440
" />
<path d="M46930 36640
L46930 37040
" />
<path d="M46790 36410
L46640 36840
L47020 36840
" />
<path d="M39450 40240
L39450 39640
L39650 40070
L39850 39640
L39850 40240
" />
<path d="M40260 39640
L40370 39640
L40430 39670
L40490 39730
L40510 39840
L40510 40040
L40490 40160
L40430 40210
L40370 40240
L40260 40240
L40200 40210
L40140 40160
L40110 40040
L40110 39840
L40140 39730
L40200 39670
L40260 39640
" />
<path d="M40740 40210
L40830 40240
L40970 40240
L41030 40210
L41060 40180
L41090 40130
L41090 40070
L41060 40010
L41030 39980
L40970 39960
L40860 39930
L40800 39900
L40770 39870
L40740 39810
L40740 39760
L40770 39700
L40800 39670
L40860 39640
L41000 39640
L41090 39670
" />
<path d="M41200 40300
L41660 40300
" />
<path d="M41800 40240
L41800 39640
L42150 40240
L42150 39640
" />
<path d="M42290 40300
L42750 40300
" />
<path d="M42890 39840
L42890 40240
" />
<path d="M42890 39900
L42920 39870
L42980 39840
L43060 39840
L43120 39870
L43150 39930
L43150 40240
" />
<path d="M43690 39840
L43690 40240
" />
<path d="M43430 39840
L43430 40160
L43460 40210
L43520 40240
L43600 40240
L43660 40210
L43690 40180
" />
<path d="M43970 40240
L43970 39840
" />
<path d="M43970 39900
L44000 39870
L44060 39840
L44140 39840
L44200 39870
L44230 39930
L44230 40240
" />
<path d="M44230 39930
L44260 39870
L44320 39840
L44400 39840
L44460 39870
L44490 39930
L44490 40240
" />
<path d="M44770 40240
L44770 39640
" />
<path d="M44770 39870
L44830 39840
L44940 39840
L45000 39870
L45030 39900
L45060 39960
L45060 40130
L45030 40180
L45000 40210
L44940 40240
L44830 40240
L44770 40210
" />
<path d="M45540 40210
L45480 40240
L45370 40240
L45310 40210
L45280 40160
L45280 39930
L45310 39870
L45370 39840
L45480 39840
L45540 39870
L45570 39930
L45570 39980
L45280 40040
" />
<path d="M45820 40240
L45820 39840
" />
<path d="M45820 39960
L45850 39900
L45880 39870
L45940 39840
L45990 39840
" />
<path d="M46420 40210
L46360 40240
L46250 40240
L46190 40210
L46160 40160
L46160 39930
L46190 39870
L46250 39840
L46360 39840
L46420 39870
L46450 39930
L46450 39980
L46160 40040
" />
<path d="M46960 40240
L46960 39640
" />
<path d="M46960 40210
L46900 40240
L46790 40240
L46730 40210
L46700 40180
L46670 40130
L46670 39960
L46700 39900
L46730 39870
L46790 39840
L46900 39840
L46960 39870
" />
</g>
<g style="fill:#008400; fill-opacity:0.0; 
stroke:#008400; stroke-width:60; stroke-opacity:1; 
stroke-linecap:round; stroke-linejoin:round;">
<path d="M24000 26500
L36500 26500
" />
<path d="M36500 26500
L36500 27000
" />
<path d="M30000 26500
L30000 27500
" />
</g>
<g style="fill:#008400; fill-opacity:0.0; 
stroke:#008400; stroke-width:0; stroke-opacity:1; 
stroke-linecap:round; stroke-linejoin:round;">
</g>
<g style="fill:#008400; fill-opacity:1.0; 
stroke:#008400; stroke-width:100; stroke-opacity:1; 
stroke-linecap:round; stroke-linejoin:round;">
<circle cx="30000" cy="26500" r="200" /> 
</g>
<g style="fill:#008400; fill-opacity:1.0; 
stroke:#008400; stroke-width:60; stroke-opacity:1; 
stroke-linecap:round; stroke-linejoin:round;">
</g>
<g style="fill:#008400; fill-opacity:0.0; 
stroke:#008400; stroke-width:60; stroke-opacity:1; 
stroke-linecap:round; stroke-linejoin:round;">
<path d="M24000 32000
L36500 32000
" />
<path d="M36500 32000
L36500 30500
" />
<path d="M30000 30500
L30000 32000
" />
</g>
<g style="fill:#008400; fill-opacity:0.0; 
stroke:#008400; stroke-width:0; stroke-opacity:1; 
stroke-linecap:round; stroke-linejoin:round;">
</g>
<g style="fill:#008400; fill-opacity:1.0; 
stroke:#008400; stroke-width:100; stroke-opacity:1; 
stroke-linecap:round; stroke-linejoin:round;">
<circle cx="30000" cy="32000" r="200" /> 
</g>
<g style="fill:#008400; fill-opacity:1.0; 
stroke:#008400; stroke-width:0; stroke-opacity:1; 
stroke-linecap:round; stroke-linejoin:round;">
</g>
<g style="fill:#008400; fill-opacity:1.0; 
stroke:#008400; stroke-width:100; stroke-opacity:1; 
stroke-linecap:round; stroke-linejoin:round;">
<circle cx="51500" cy="27000" r="200" /> 
</g>
<g style="fill:#008400; fill-opacity:1.0; 
stroke:#008400; stroke-width:60; stroke-opacity:1; 
stroke-linecap:round; stroke-linejoin:round;">
</g>
<g style="fill:#008400; fill-opacity:0.0; 
stroke:#008400; stroke-width:60; stroke-opacity:1; 
stroke-linecap:round; stroke-linejoin:round;">
<path d="M58500 27000
L60500 27000
" />
<path d="M60500 31000
L60500 34000
" />
<path d="M60500 32500
L46500 32500
" />
<path d="M46500 32500
L46500 30500
" />
</g>
<g style="fill:#008400; fill-opacity:0.0; 
stroke:#008400; stroke-width:0; stroke-opacity:1; 
stroke-linecap:round; stroke-linejoin:round;">
</g>
<g style="fill:#008400; fill-opacity:1.0; 
stroke:#008400; stroke-width:100; stroke-opacity:1; 
stroke-linecap:round; stroke-linejoin:round;">
<circle cx="60500" cy="32500" r="200" /> 
</g>
<g style="fill:#008400; fill-opacity:1.0; 
stroke:#008400; stroke-width:60; stroke-opacity:1; 
stroke-linecap:round; stroke-linejoin:round;">
</g>
<g style="fill:#008400; fill-opacity:0.0; 
stroke:#008400; stroke-width:60; stroke-opacity:1; 
stroke-linecap:round; stroke-linejoin:round;">
<path d="M46500 27000
L47500 27000
" />
<path d="M50500 27000
L52500 27000
" />
<path d="M36500 29000
L33500 29000
" />
<path d="M33500 29000
L33500 24000
" />
<path d="M33500 24000
L51500 24000
" />
<path d="M51500 24000
L51500 27000
" />
<path d="M60500 37000
L60500 45000
" />
<path d="M46500 29000
L48000 29000
" />
<path d="M48000 29000
L48000 36500
" />
<path d="M35500 32000
L35500 35000
" />
<path d="M35500 35000
L43000 35000
" />
</g>
<g style="fill:#008400; fill-opacity:0.0; 
stroke:#008400; stroke-width:0; stroke-opacity:1; 
stroke-linecap:round; stroke-linejoin:round;">
</g>
<g style="fill:#008400; fill-opacity:1.0; 
stroke:#008400; stroke-width:100; stroke-opacity:1; 
stroke-linecap:round; stroke-linejoin:round;">
<circle cx="35500" cy="32000" r="200" /> 
</g>
<g style="fill:#008400; fill-opacity:1.0; 
stroke:#008400; stroke-width:60; stroke-opacity:1; 
stroke-linecap:round; stroke-linejoin:round;">
</g>
<g style="fill:#008400; fill-opacity:0.0; 
stroke:#008400; stroke-width:60; stroke-opacity:1; 
stroke-linecap:round; stroke-linejoin:round;">
<path d="M46000 35000
L48000 35000
" />
</g>
<g style="fill:#008400; fill-opacity:0.0; 
stroke:#008400; stroke-width:0; stroke-opacity:1; 
stroke-linecap:round; stroke-linejoin:round;">
</g>
<g style="fill:#008400; fill-opacity:1.0; 
stroke:#008400; stroke-width:100; stroke-opacity:1; 
stroke-linecap:round; stroke-linejoin:round;">
<circle cx="48000" cy="35000" r="200" /> 
</g>
<g style="fill:#008400; fill-opacity:1.0; 
stroke:#008400; stroke-width:60; stroke-opacity:1; 
stroke-linecap:round; stroke-linejoin:round;">
</g>
<g style="fill:#008400; fill-opacity:0.0; 
stroke:#008400; stroke-width:60; stroke-opacity:1; 
stroke-linecap:round; stroke-linejoin:round;">
<path d="M48000 40500
L48000 45000
" />
<path d="M48000 44000
L42500 44000
" />
</g>
<g style="fill:#008400; fill-opacity:0.0; 
stroke:#008400; stroke-width:0; stroke-opacity:1; 
stroke-linecap:round; stroke-linejoin:round;">
</g>
<g style="fill:#008400; fill-opacity:1.0; 
stroke:#008400; stroke-width:100; stroke-opacity:1; 
stroke-linecap:round; stroke-linejoin:round;">
<circle cx="48000" cy="44000" r="200" /> 
</g>
<g style="fill:#008400; fill-opacity:1.0; 
stroke:#008400; stroke-width:60; stroke-opacity:1; 
stroke-linecap:round; stroke-linejoin:round;">
</g>
<g style="fill:#008400; fill-opacity:0.0; 
stroke:#008400; stroke-width:60; stroke-opacity:1; 
stroke-linecap:round; stroke-linejoin:round;">
<path d="M39500 38500
L45000 38500
" />
<path d="M42500 38500
L42500 40000
" />
</g>
<g style="fill:#008400; fill-opacity:0.0; 
stroke:#008400; stroke-width:0; stroke-opacity:1; 
stroke-linecap:round; stroke-linejoin:round;">
</g>
<g style="fill:#008400; fill-opacity:1.0; 
stroke:#008400; stroke-width:100; stroke-opacity:1; 
stroke-linecap:round; stroke-linejoin:round;">
<circle cx="42500" cy="38500" r="200" /> 
</g>
<g style="fill:#008400; fill-opacity:1.0; 
stroke:#008400; stroke-width:60; stroke-opacity:1; 
stroke-linecap:round; stroke-linejoin:round;">
</g>
<g style="fill:#008400; fill-opacity:0.0; 
stroke:#008400; stroke-width:60; stroke-opacity:1; 
stroke-linecap:round; stroke-linejoin:round;">
<path d="M64000 31000
L64000 38500
" />
<path d="M64000 38500
L60500 38500
" />
</g>
<g style="fill:#008400; fill-opacity:0.0; 
stroke:#008400; stroke-width:0; stroke-opacity:1; 
stroke-linecap:round; stroke-linejoin:round;">
</g>
<g style="fill:#008400; fill-opacity:1.0; 
stroke:#008400; stroke-width:100; stroke-opacity:1; 
stroke-linecap:round; stroke-linejoin:round;">
<circle cx="60500" cy="38500" r="200" /> 
</g>
<g style="fill:#008400; fill-opacity:1.0; 
stroke:#008400; stroke-width:60; stroke-opacity:1; 
stroke-linecap:round; stroke-linejoin:round;">
</g>
<g style="fill:#008400; fill-opacity:0.0; 
stroke:#008400; stroke-width:60; stroke-opacity:1; 
stroke-linecap:round; stroke-linejoin:round;">
<path d="M59500 27000
L59500 26500
" />
<path d="M59500 26500
L70000 26500
" />
<path d="M64000 26500
L64000 28000
" />
</g>
<g style="fill:#008400; fill-opacity:0.0; 
stroke:#008400; stroke-width:0; stroke-opacity:1; 
stroke-linecap:round; stroke-linejoin:round;">
</g>
<g style="fill:#008400; fill-opacity:1.0; 
stroke:#008400; stroke-width:100; stroke-opacity:1; 
stroke-linecap:round; stroke-linejoin:round;">
<circle cx="59500" cy="27000" r="200" /> 
</g>
<g style="fill:#008400; fill-opacity:1.0; 
stroke:#008400; stroke-width:0; stroke-opacity:1; 
stroke-linecap:round; stroke-linejoin:round;">
</g>
<g style="fill:#008400; fill-opacity:1.0; 
stroke:#008400; stroke-width:100; stroke-opacity:1; 
stroke-linecap:round; stroke-linejoin:round;">
<circle cx="64000" cy="26500" r="200" /> 
</g>
<g style="fill:#008400; fill-opacity:1.0; 
stroke:#008400; stroke-width:60; stroke-opacity:1; 
stroke-linecap:round; stroke-linejoin:round;">
</g>
<g style="fill:#008400; fill-opacity:0.0; 
stroke:#008400; stroke-width:60; stroke-opacity:1; 
stroke-linecap:round; stroke-linejoin:round;">
<path d="M60500 45000
L28000 45000
" />
<path d="M28000 45000
L28000 26500
" />
</g>
<g style="fill:#008400; fill-opacity:0.0; 
stroke:#008400; stroke-width:0; stroke-opacity:1; 
stroke-linecap:round; stroke-linejoin:round;">
</g>
<g style="fill:#008400; fill-opacity:1.0; 
stroke:#008400; stroke-width:100; stroke-opacity:1; 
stroke-linecap:round; stroke-linejoin:round;">
<circle cx="28000" cy="26500" r="200" /> 
</g>
<g style="fill:#008400; fill-opacity:1.0; 
stroke:#008400; stroke-width:0; stroke-opacity:1; 
stroke-linecap:round; stroke-linejoin:round;">
</g>
<g style="fill:#008400; fill-opacity:1.0; 
stroke:#008400; stroke-width:100; stroke-opacity:1; 
stroke-linecap:round; stroke-linejoin:round;">
<circle cx="48000" cy="45000" r="200" /> 
</g>
<g style="fill:#008400; fill-opacity:1.0; 
stroke:#008400; stroke-width:60; stroke-opacity:1; 
stroke-linecap:round; stroke-linejoin:round;">
</g>
<g style="fill:#008400; fill-opacity:0.0; 
stroke:#008400; stroke-width:60; stroke-opacity:1; 
stroke-linecap:round; stroke-linejoin:round;">
<path d="M60500 27000
L60500 28000
" />
<path d="M42500 44000
L42500 43000
" />
</g> 
</svg>
