<?xml version="1.0" standalone="no"?>
 <!DOCTYPE svg PUBLIC "-//W3C//DTD SVG 1.1//EN" 
 "http://www.w3.org/Graphics/SVG/1.1/DTD/svg11.dtd"> 
<svg xmlns="http://www.w3.org/2000/svg" version="1.1" 
    width="29.7002cm" height="21.0007cm" viewBox="0 0 116930 82680 ">
<title>SVG Picture created as 12Vto3v3-Power Distribution-12Vto3v3.sch.svg date 2016/10/13 16:35:05 </title>
  <desc>Picture generated by Eeschema-SVG </desc>
<g style="fill:#000000; fill-opacity:1;stroke:#000000; stroke-opacity:1;
stroke-linecap:round; stroke-linejoin:round; "
 transform="translate(0 0) scale(1 1)">
</g>
<g style="fill:#000000; fill-opacity:0.0; 
stroke:#000000; stroke-width:-10; stroke-opacity:1; 
stroke-linecap:round; stroke-linejoin:round;">
</g>
<g style="fill:#840000; fill-opacity:0.0; 
stroke:#840000; stroke-width:-10; stroke-opacity:1; 
stroke-linecap:round; stroke-linejoin:round;">
</g>
<g style="fill:#840000; fill-opacity:0.0; 
stroke:#840000; stroke-width:100; stroke-opacity:1; 
stroke-linecap:round; stroke-linejoin:round;">
</g>
<g style="fill:#840000; fill-opacity:0.0; 
stroke:#840000; stroke-width:60; stroke-opacity:1; 
stroke-linecap:round; stroke-linejoin:round;">
<rect x="69690" y="65360" width="42520" height="12600" rx="0" />
</g>
<g style="fill:#840000; fill-opacity:0.0; 
stroke:#840000; stroke-width:100; stroke-opacity:1; 
stroke-linecap:round; stroke-linejoin:round;">
</g>
<g style="fill:#840000; fill-opacity:0.0; 
stroke:#840000; stroke-width:60; stroke-opacity:1; 
stroke-linecap:round; stroke-linejoin:round;">
<rect x="3940" y="3940" width="109050" height="74800" rx="0" />
</g>
<g style="fill:#840000; fill-opacity:0.0; 
stroke:#840000; stroke-width:100; stroke-opacity:1; 
stroke-linecap:round; stroke-linejoin:round;">
</g>
<g style="fill:#840000; fill-opacity:0.0; 
stroke:#840000; stroke-width:60; stroke-opacity:1; 
stroke-linecap:round; stroke-linejoin:round;">
<rect x="4720" y="4720" width="107490" height="73240" rx="0" />
</g>
<g style="fill:#840000; fill-opacity:0.0; 
stroke:#840000; stroke-width:100; stroke-opacity:1; 
stroke-linecap:round; stroke-linejoin:round;">
</g>
<g style="fill:#840000; fill-opacity:0.0; 
stroke:#840000; stroke-width:60; stroke-opacity:1; 
stroke-linecap:round; stroke-linejoin:round;">
<path d="M23620 4720
L23620 3940
" />
</g>
<g style="fill:#840000; fill-opacity:0.0; 
stroke:#840000; stroke-width:100; stroke-opacity:1; 
stroke-linecap:round; stroke-linejoin:round;">
</g>
<g style="fill:#840000; fill-opacity:0.0; 
stroke:#840000; stroke-width:60; stroke-opacity:1; 
stroke-linecap:round; stroke-linejoin:round;">
<path d="M43310 4720
L43310 3940
" />
</g>
<g style="fill:#840000; fill-opacity:0.0; 
stroke:#840000; stroke-width:100; stroke-opacity:1; 
stroke-linecap:round; stroke-linejoin:round;">
</g>
<g style="fill:#840000; fill-opacity:0.0; 
stroke:#840000; stroke-width:60; stroke-opacity:1; 
stroke-linecap:round; stroke-linejoin:round;">
<path d="M62990 4720
L62990 3940
" />
</g>
<g style="fill:#840000; fill-opacity:0.0; 
stroke:#840000; stroke-width:100; stroke-opacity:1; 
stroke-linecap:round; stroke-linejoin:round;">
</g>
<g style="fill:#840000; fill-opacity:0.0; 
stroke:#840000; stroke-width:60; stroke-opacity:1; 
stroke-linecap:round; stroke-linejoin:round;">
<path d="M82680 4720
L82680 3940
" />
</g>
<g style="fill:#840000; fill-opacity:0.0; 
stroke:#840000; stroke-width:100; stroke-opacity:1; 
stroke-linecap:round; stroke-linejoin:round;">
</g>
<g style="fill:#840000; fill-opacity:0.0; 
stroke:#840000; stroke-width:60; stroke-opacity:1; 
stroke-linecap:round; stroke-linejoin:round;">
<path d="M102360 4720
L102360 3940
" />
</g>
<g style="fill:#840000; fill-opacity:0.0; 
stroke:#840000; stroke-width:100; stroke-opacity:1; 
stroke-linecap:round; stroke-linejoin:round;">
</g>
<g style="fill:#840000; fill-opacity:0.0; 
stroke:#840000; stroke-width:60; stroke-opacity:1; 
stroke-linecap:round; stroke-linejoin:round;">
<path d="M14170 4560
L13880 4560
" />
<path d="M14020 4560
L14020 4050
L13970 4120
L13930 4170
L13880 4190
" />
</g>
<g style="fill:#840000; fill-opacity:0.0; 
stroke:#840000; stroke-width:100; stroke-opacity:1; 
stroke-linecap:round; stroke-linejoin:round;">
</g>
<g style="fill:#840000; fill-opacity:0.0; 
stroke:#840000; stroke-width:60; stroke-opacity:1; 
stroke-linecap:round; stroke-linejoin:round;">
<path d="M33560 4090
L33580 4070
L33630 4050
L33750 4050
L33800 4070
L33820 4090
L33850 4140
L33850 4190
L33820 4260
L33530 4560
L33850 4560
" />
</g>
<g style="fill:#840000; fill-opacity:0.0; 
stroke:#840000; stroke-width:100; stroke-opacity:1; 
stroke-linecap:round; stroke-linejoin:round;">
</g>
<g style="fill:#840000; fill-opacity:0.0; 
stroke:#840000; stroke-width:60; stroke-opacity:1; 
stroke-linecap:round; stroke-linejoin:round;">
<path d="M53220 4050
L53540 4050
L53370 4240
L53440 4240
L53490 4260
L53510 4290
L53540 4340
L53540 4460
L53510 4510
L53490 4530
L53440 4560
L53300 4560
L53250 4530
L53220 4510
" />
</g>
<g style="fill:#840000; fill-opacity:0.0; 
stroke:#840000; stroke-width:100; stroke-opacity:1; 
stroke-linecap:round; stroke-linejoin:round;">
</g>
<g style="fill:#840000; fill-opacity:0.0; 
stroke:#840000; stroke-width:60; stroke-opacity:1; 
stroke-linecap:round; stroke-linejoin:round;">
<path d="M73170 4220
L73170 4560
" />
<path d="M73050 4020
L72930 4390
L73240 4390
" />
</g>
<g style="fill:#840000; fill-opacity:0.0; 
stroke:#840000; stroke-width:100; stroke-opacity:1; 
stroke-linecap:round; stroke-linejoin:round;">
</g>
<g style="fill:#840000; fill-opacity:0.0; 
stroke:#840000; stroke-width:60; stroke-opacity:1; 
stroke-linecap:round; stroke-linejoin:round;">
<path d="M92880 4050
L92640 4050
L92620 4290
L92640 4260
L92690 4240
L92810 4240
L92860 4260
L92880 4290
L92910 4340
L92910 4460
L92880 4510
L92860 4530
L92810 4560
L92690 4560
L92640 4530
L92620 4510
" />
</g>
<g style="fill:#840000; fill-opacity:0.0; 
stroke:#840000; stroke-width:100; stroke-opacity:1; 
stroke-linecap:round; stroke-linejoin:round;">
</g>
<g style="fill:#840000; fill-opacity:0.0; 
stroke:#840000; stroke-width:60; stroke-opacity:1; 
stroke-linecap:round; stroke-linejoin:round;">
<path d="M112540 4050
L112440 4050
L112390 4070
L112370 4090
L112320 4170
L112300 4260
L112300 4460
L112320 4510
L112350 4530
L112390 4560
L112490 4560
L112540 4530
L112560 4510
L112590 4460
L112590 4340
L112560 4290
L112540 4260
L112490 4240
L112390 4240
L112350 4260
L112320 4290
L112300 4340
" />
</g>
<g style="fill:#840000; fill-opacity:0.0; 
stroke:#840000; stroke-width:100; stroke-opacity:1; 
stroke-linecap:round; stroke-linejoin:round;">
</g>
<g style="fill:#840000; fill-opacity:0.0; 
stroke:#840000; stroke-width:60; stroke-opacity:1; 
stroke-linecap:round; stroke-linejoin:round;">
<path d="M23620 77960
L23620 78740
" />
</g>
<g style="fill:#840000; fill-opacity:0.0; 
stroke:#840000; stroke-width:100; stroke-opacity:1; 
stroke-linecap:round; stroke-linejoin:round;">
</g>
<g style="fill:#840000; fill-opacity:0.0; 
stroke:#840000; stroke-width:60; stroke-opacity:1; 
stroke-linecap:round; stroke-linejoin:round;">
<path d="M43310 77960
L43310 78740
" />
</g>
<g style="fill:#840000; fill-opacity:0.0; 
stroke:#840000; stroke-width:100; stroke-opacity:1; 
stroke-linecap:round; stroke-linejoin:round;">
</g>
<g style="fill:#840000; fill-opacity:0.0; 
stroke:#840000; stroke-width:60; stroke-opacity:1; 
stroke-linecap:round; stroke-linejoin:round;">
<path d="M62990 77960
L62990 78740
" />
</g>
<g style="fill:#840000; fill-opacity:0.0; 
stroke:#840000; stroke-width:100; stroke-opacity:1; 
stroke-linecap:round; stroke-linejoin:round;">
</g>
<g style="fill:#840000; fill-opacity:0.0; 
stroke:#840000; stroke-width:60; stroke-opacity:1; 
stroke-linecap:round; stroke-linejoin:round;">
<path d="M82680 77960
L82680 78740
" />
</g>
<g style="fill:#840000; fill-opacity:0.0; 
stroke:#840000; stroke-width:100; stroke-opacity:1; 
stroke-linecap:round; stroke-linejoin:round;">
</g>
<g style="fill:#840000; fill-opacity:0.0; 
stroke:#840000; stroke-width:60; stroke-opacity:1; 
stroke-linecap:round; stroke-linejoin:round;">
<path d="M102360 77960
L102360 78740
" />
</g>
<g style="fill:#840000; fill-opacity:0.0; 
stroke:#840000; stroke-width:100; stroke-opacity:1; 
stroke-linecap:round; stroke-linejoin:round;">
</g>
<g style="fill:#840000; fill-opacity:0.0; 
stroke:#840000; stroke-width:60; stroke-opacity:1; 
stroke-linecap:round; stroke-linejoin:round;">
<path d="M14170 78580
L13880 78580
" />
<path d="M14020 78580
L14020 78070
L13970 78140
L13930 78190
L13880 78210
" />
</g>
<g style="fill:#840000; fill-opacity:0.0; 
stroke:#840000; stroke-width:100; stroke-opacity:1; 
stroke-linecap:round; stroke-linejoin:round;">
</g>
<g style="fill:#840000; fill-opacity:0.0; 
stroke:#840000; stroke-width:60; stroke-opacity:1; 
stroke-linecap:round; stroke-linejoin:round;">
<path d="M33560 78110
L33580 78090
L33630 78070
L33750 78070
L33800 78090
L33820 78110
L33850 78160
L33850 78210
L33820 78280
L33530 78580
L33850 78580
" />
</g>
<g style="fill:#840000; fill-opacity:0.0; 
stroke:#840000; stroke-width:100; stroke-opacity:1; 
stroke-linecap:round; stroke-linejoin:round;">
</g>
<g style="fill:#840000; fill-opacity:0.0; 
stroke:#840000; stroke-width:60; stroke-opacity:1; 
stroke-linecap:round; stroke-linejoin:round;">
<path d="M53220 78070
L53540 78070
L53370 78260
L53440 78260
L53490 78280
L53510 78310
L53540 78360
L53540 78480
L53510 78530
L53490 78550
L53440 78580
L53300 78580
L53250 78550
L53220 78530
" />
</g>
<g style="fill:#840000; fill-opacity:0.0; 
stroke:#840000; stroke-width:100; stroke-opacity:1; 
stroke-linecap:round; stroke-linejoin:round;">
</g>
<g style="fill:#840000; fill-opacity:0.0; 
stroke:#840000; stroke-width:60; stroke-opacity:1; 
stroke-linecap:round; stroke-linejoin:round;">
<path d="M73170 78240
L73170 78580
" />
<path d="M73050 78040
L72930 78410
L73240 78410
" />
</g>
<g style="fill:#840000; fill-opacity:0.0; 
stroke:#840000; stroke-width:100; stroke-opacity:1; 
stroke-linecap:round; stroke-linejoin:round;">
</g>
<g style="fill:#840000; fill-opacity:0.0; 
stroke:#840000; stroke-width:60; stroke-opacity:1; 
stroke-linecap:round; stroke-linejoin:round;">
<path d="M92880 78070
L92640 78070
L92620 78310
L92640 78280
L92690 78260
L92810 78260
L92860 78280
L92880 78310
L92910 78360
L92910 78480
L92880 78530
L92860 78550
L92810 78580
L92690 78580
L92640 78550
L92620 78530
" />
</g>
<g style="fill:#840000; fill-opacity:0.0; 
stroke:#840000; stroke-width:100; stroke-opacity:1; 
stroke-linecap:round; stroke-linejoin:round;">
</g>
<g style="fill:#840000; fill-opacity:0.0; 
stroke:#840000; stroke-width:60; stroke-opacity:1; 
stroke-linecap:round; stroke-linejoin:round;">
<path d="M112540 78070
L112440 78070
L112390 78090
L112370 78110
L112320 78190
L112300 78280
L112300 78480
L112320 78530
L112350 78550
L112390 78580
L112490 78580
L112540 78550
L112560 78530
L112590 78480
L112590 78360
L112560 78310
L112540 78280
L112490 78260
L112390 78260
L112350 78280
L112320 78310
L112300 78360
" />
</g>
<g style="fill:#840000; fill-opacity:0.0; 
stroke:#840000; stroke-width:100; stroke-opacity:1; 
stroke-linecap:round; stroke-linejoin:round;">
</g>
<g style="fill:#840000; fill-opacity:0.0; 
stroke:#840000; stroke-width:60; stroke-opacity:1; 
stroke-linecap:round; stroke-linejoin:round;">
<path d="M3940 23620
L4720 23620
" />
</g>
<g style="fill:#840000; fill-opacity:0.0; 
stroke:#840000; stroke-width:100; stroke-opacity:1; 
stroke-linecap:round; stroke-linejoin:round;">
</g>
<g style="fill:#840000; fill-opacity:0.0; 
stroke:#840000; stroke-width:60; stroke-opacity:1; 
stroke-linecap:round; stroke-linejoin:round;">
<path d="M3940 43310
L4720 43310
" />
</g>
<g style="fill:#840000; fill-opacity:0.0; 
stroke:#840000; stroke-width:100; stroke-opacity:1; 
stroke-linecap:round; stroke-linejoin:round;">
</g>
<g style="fill:#840000; fill-opacity:0.0; 
stroke:#840000; stroke-width:60; stroke-opacity:1; 
stroke-linecap:round; stroke-linejoin:round;">
<path d="M3940 62990
L4720 62990
" />
</g>
<g style="fill:#840000; fill-opacity:0.0; 
stroke:#840000; stroke-width:100; stroke-opacity:1; 
stroke-linecap:round; stroke-linejoin:round;">
</g>
<g style="fill:#840000; fill-opacity:0.0; 
stroke:#840000; stroke-width:60; stroke-opacity:1; 
stroke-linecap:round; stroke-linejoin:round;">
<path d="M4210 13860
L4450 13860
" />
<path d="M4160 14010
L4330 13500
L4500 14010
" />
</g>
<g style="fill:#840000; fill-opacity:0.0; 
stroke:#840000; stroke-width:100; stroke-opacity:1; 
stroke-linecap:round; stroke-linejoin:round;">
</g>
<g style="fill:#840000; fill-opacity:0.0; 
stroke:#840000; stroke-width:60; stroke-opacity:1; 
stroke-linecap:round; stroke-linejoin:round;">
<path d="M4370 33420
L4440 33440
L4470 33470
L4490 33520
L4490 33590
L4470 33640
L4440 33660
L4400 33690
L4200 33690
L4200 33180
L4370 33180
L4420 33200
L4440 33220
L4470 33270
L4470 33320
L4440 33370
L4420 33390
L4370 33420
L4200 33420
" />
</g>
<g style="fill:#840000; fill-opacity:0.0; 
stroke:#840000; stroke-width:100; stroke-opacity:1; 
stroke-linecap:round; stroke-linejoin:round;">
</g>
<g style="fill:#840000; fill-opacity:0.0; 
stroke:#840000; stroke-width:60; stroke-opacity:1; 
stroke-linecap:round; stroke-linejoin:round;">
<path d="M4490 53330
L4470 53350
L4400 53380
L4350 53380
L4270 53350
L4230 53300
L4200 53250
L4180 53160
L4180 53080
L4200 52990
L4230 52940
L4270 52890
L4350 52870
L4400 52870
L4470 52890
L4490 52910
" />
</g>
<g style="fill:#840000; fill-opacity:0.0; 
stroke:#840000; stroke-width:100; stroke-opacity:1; 
stroke-linecap:round; stroke-linejoin:round;">
</g>
<g style="fill:#840000; fill-opacity:0.0; 
stroke:#840000; stroke-width:60; stroke-opacity:1; 
stroke-linecap:round; stroke-linejoin:round;">
<path d="M4200 73060
L4200 72550
L4320 72550
L4400 72570
L4440 72620
L4470 72670
L4490 72760
L4490 72840
L4470 72930
L4440 72980
L4400 73030
L4320 73060
L4200 73060
" />
</g>
<g style="fill:#840000; fill-opacity:0.0; 
stroke:#840000; stroke-width:100; stroke-opacity:1; 
stroke-linecap:round; stroke-linejoin:round;">
</g>
<g style="fill:#840000; fill-opacity:0.0; 
stroke:#840000; stroke-width:60; stroke-opacity:1; 
stroke-linecap:round; stroke-linejoin:round;">
<path d="M112990 23620
L112210 23620
" />
</g>
<g style="fill:#840000; fill-opacity:0.0; 
stroke:#840000; stroke-width:100; stroke-opacity:1; 
stroke-linecap:round; stroke-linejoin:round;">
</g>
<g style="fill:#840000; fill-opacity:0.0; 
stroke:#840000; stroke-width:60; stroke-opacity:1; 
stroke-linecap:round; stroke-linejoin:round;">
<path d="M112990 43310
L112210 43310
" />
</g>
<g style="fill:#840000; fill-opacity:0.0; 
stroke:#840000; stroke-width:100; stroke-opacity:1; 
stroke-linecap:round; stroke-linejoin:round;">
</g>
<g style="fill:#840000; fill-opacity:0.0; 
stroke:#840000; stroke-width:60; stroke-opacity:1; 
stroke-linecap:round; stroke-linejoin:round;">
<path d="M112990 62990
L112210 62990
" />
</g>
<g style="fill:#840000; fill-opacity:0.0; 
stroke:#840000; stroke-width:100; stroke-opacity:1; 
stroke-linecap:round; stroke-linejoin:round;">
</g>
<g style="fill:#840000; fill-opacity:0.0; 
stroke:#840000; stroke-width:60; stroke-opacity:1; 
stroke-linecap:round; stroke-linejoin:round;">
<path d="M112480 13860
L112720 13860
" />
<path d="M112430 14010
L112600 13500
L112770 14010
" />
</g>
<g style="fill:#840000; fill-opacity:0.0; 
stroke:#840000; stroke-width:100; stroke-opacity:1; 
stroke-linecap:round; stroke-linejoin:round;">
</g>
<g style="fill:#840000; fill-opacity:0.0; 
stroke:#840000; stroke-width:60; stroke-opacity:1; 
stroke-linecap:round; stroke-linejoin:round;">
<path d="M112640 33420
L112710 33440
L112740 33470
L112760 33520
L112760 33590
L112740 33640
L112710 33660
L112670 33690
L112470 33690
L112470 33180
L112640 33180
L112690 33200
L112710 33220
L112740 33270
L112740 33320
L112710 33370
L112690 33390
L112640 33420
L112470 33420
" />
</g>
<g style="fill:#840000; fill-opacity:0.0; 
stroke:#840000; stroke-width:100; stroke-opacity:1; 
stroke-linecap:round; stroke-linejoin:round;">
</g>
<g style="fill:#840000; fill-opacity:0.0; 
stroke:#840000; stroke-width:60; stroke-opacity:1; 
stroke-linecap:round; stroke-linejoin:round;">
<path d="M112760 53330
L112740 53350
L112670 53380
L112620 53380
L112540 53350
L112500 53300
L112470 53250
L112450 53160
L112450 53080
L112470 52990
L112500 52940
L112540 52890
L112620 52870
L112670 52870
L112740 52890
L112760 52910
" />
</g>
<g style="fill:#840000; fill-opacity:0.0; 
stroke:#840000; stroke-width:100; stroke-opacity:1; 
stroke-linecap:round; stroke-linejoin:round;">
</g>
<g style="fill:#840000; fill-opacity:0.0; 
stroke:#840000; stroke-width:60; stroke-opacity:1; 
stroke-linecap:round; stroke-linejoin:round;">
<path d="M112470 73060
L112470 72550
L112590 72550
L112670 72570
L112710 72620
L112740 72670
L112760 72760
L112760 72840
L112740 72930
L112710 72980
L112670 73030
L112590 73060
L112470 73060
" />
</g>
<g style="fill:#840000; fill-opacity:0.0; 
stroke:#840000; stroke-width:100; stroke-opacity:1; 
stroke-linecap:round; stroke-linejoin:round;">
</g>
<g style="fill:#840000; fill-opacity:0.0; 
stroke:#840000; stroke-width:60; stroke-opacity:1; 
stroke-linecap:round; stroke-linejoin:round;">
<path d="M78880 76290
L78880 75700
L79020 75700
L79110 75730
L79160 75790
L79190 75840
L79220 75950
L79220 76040
L79190 76150
L79160 76210
L79110 76260
L79020 76290
L78880 76290
" />
<path d="M79720 76290
L79720 75980
L79700 75930
L79640 75900
L79530 75900
L79470 75930
" />
<path d="M79720 76260
L79670 76290
L79530 76290
L79470 76260
L79440 76210
L79440 76150
L79470 76100
L79530 76070
L79670 76070
L79720 76040
" />
<path d="M79920 75900
L80140 75900
" />
<path d="M80000 75700
L80000 76210
L80030 76260
L80080 76290
L80140 76290
" />
<path d="M80570 76260
L80510 76290
L80400 76290
L80340 76260
L80310 76210
L80310 75980
L80340 75930
L80400 75900
L80510 75900
L80570 75930
L80590 75980
L80590 76040
L80310 76100
" />
<path d="M80850 76240
L80880 76260
L80850 76290
L80820 76260
L80850 76240
L80850 76290
" />
<path d="M80850 75930
L80880 75950
L80850 75980
L80820 75950
L80850 75930
L80850 75980
" />
</g>
<g style="fill:#840000; fill-opacity:0.0; 
stroke:#840000; stroke-width:100; stroke-opacity:1; 
stroke-linecap:round; stroke-linejoin:round;">
</g>
<g style="fill:#840000; fill-opacity:0.0; 
stroke:#840000; stroke-width:60; stroke-opacity:1; 
stroke-linecap:round; stroke-linejoin:round;">
<path d="M69690 76580
L112210 76580
" />
</g>
<g style="fill:#840000; fill-opacity:0.0; 
stroke:#840000; stroke-width:100; stroke-opacity:1; 
stroke-linecap:round; stroke-linejoin:round;">
</g>
<g style="fill:#840000; fill-opacity:0.0; 
stroke:#840000; stroke-width:60; stroke-opacity:1; 
stroke-linecap:round; stroke-linejoin:round;">
<path d="M70220 77390
L70220 76800
" />
<path d="M70560 77390
L70300 77050
" />
<path d="M70560 76800
L70220 77140
" />
<path d="M70810 77390
L70810 77000
" />
<path d="M70810 76800
L70780 76830
L70810 76860
L70840 76830
L70810 76800
L70810 76860
" />
<path d="M71430 77340
L71400 77360
L71320 77390
L71260 77390
L71170 77360
L71120 77310
L71090 77250
L71060 77140
L71060 77050
L71090 76940
L71120 76890
L71170 76830
L71260 76800
L71320 76800
L71400 76830
L71430 76860
" />
<path d="M71930 77390
L71930 77080
L71910 77030
L71850 77000
L71740 77000
L71680 77030
" />
<path d="M71930 77360
L71880 77390
L71740 77390
L71680 77360
L71650 77310
L71650 77250
L71680 77200
L71740 77170
L71880 77170
L71930 77140
" />
<path d="M72460 77390
L72460 76800
" />
<path d="M72460 77360
L72410 77390
L72290 77390
L72240 77360
L72210 77340
L72180 77280
L72180 77110
L72210 77050
L72240 77030
L72290 77000
L72410 77000
L72460 77030
" />
<path d="M73190 77080
L73390 77080
" />
<path d="M73470 77390
L73190 77390
L73190 76800
L73470 76800
" />
<path d="M73720 77340
L73750 77360
L73720 77390
L73690 77360
L73720 77340
L73720 77390
" />
<path d="M74000 77390
L74000 76800
L74140 76800
L74230 76830
L74280 76890
L74310 76940
L74340 77050
L74340 77140
L74310 77250
L74280 77310
L74230 77360
L74140 77390
L74000 77390
" />
<path d="M74590 77340
L74620 77360
L74590 77390
L74560 77360
L74590 77340
L74590 77390
" />
<path d="M74840 77220
L75120 77220
" />
<path d="M74790 77390
L74980 76800
L75180 77390
" />
<path d="M75380 77340
L75410 77360
L75380 77390
L75350 77360
L75380 77340
L75380 77390
" />
<path d="M76560 77390
L76560 76800
" />
<path d="M76620 77170
L76790 77390
" />
<path d="M76790 77000
L76560 77220
" />
<path d="M77040 77390
L77040 77000
" />
<path d="M77040 76800
L77010 76830
L77040 76860
L77070 76830
L77040 76800
L77040 76860
" />
<path d="M77570 77360
L77520 77390
L77400 77390
L77350 77360
L77320 77340
L77290 77280
L77290 77110
L77320 77050
L77350 77030
L77400 77000
L77520 77000
L77570 77030
" />
<path d="M78080 77390
L78080 77080
L78060 77030
L78000 77000
L77890 77000
L77830 77030
" />
<path d="M78080 77360
L78030 77390
L77890 77390
L77830 77360
L77800 77310
L77800 77250
L77830 77200
L77890 77170
L78030 77170
L78080 77140
" />
<path d="M78610 77390
L78610 76800
" />
<path d="M78610 77360
L78560 77390
L78440 77390
L78390 77360
L78360 77340
L78330 77280
L78330 77110
L78360 77050
L78390 77030
L78440 77000
L78560 77000
L78610 77030
" />
<path d="M79590 77000
L79590 77390
" />
<path d="M79450 76770
L79310 77200
L79680 77200
" />
<path d="M79900 77340
L79930 77360
L79900 77390
L79870 77360
L79900 77340
L79900 77390
" />
<path d="M80290 76800
L80350 76800
L80410 76830
L80430 76860
L80460 76910
L80490 77030
L80490 77170
L80460 77280
L80430 77340
L80410 77360
L80350 77390
L80290 77390
L80240 77360
L80210 77340
L80180 77280
L80150 77170
L80150 77030
L80180 76910
L80210 76860
L80240 76830
L80290 76800
" />
<path d="M80740 77340
L80770 77360
L80740 77390
L80710 77360
L80740 77340
L80740 77390
" />
<path d="M80990 76860
L81020 76830
L81080 76800
L81220 76800
L81270 76830
L81300 76860
L81330 76910
L81330 76970
L81300 77050
L80960 77390
L81330 77390
" />
<path d="M81580 77170
L82030 77170
" />
<path d="M82280 77360
L82340 77390
L82450 77390
L82510 77360
L82540 77310
L82540 77280
L82510 77220
L82450 77200
L82370 77200
L82310 77170
L82280 77110
L82280 77080
L82310 77030
L82370 77000
L82450 77000
L82510 77030
" />
<path d="M82710 77000
L82930 77000
" />
<path d="M82790 76800
L82790 77310
L82820 77360
L82870 77390
L82930 77390
" />
<path d="M83380 77390
L83380 77080
L83360 77030
L83300 77000
L83190 77000
L83130 77030
" />
<path d="M83380 77360
L83330 77390
L83190 77390
L83130 77360
L83100 77310
L83100 77250
L83130 77200
L83190 77170
L83330 77170
L83380 77140
" />
<path d="M83660 77390
L83660 76800
" />
<path d="M83660 77030
L83720 77000
L83830 77000
L83890 77030
L83910 77050
L83940 77110
L83940 77280
L83910 77340
L83890 77360
L83830 77390
L83720 77390
L83660 77360
" />
<path d="M84270 77390
L84220 77360
L84190 77310
L84190 76800
" />
<path d="M84730 77360
L84670 77390
L84560 77390
L84500 77360
L84470 77310
L84470 77080
L84500 77030
L84560 77000
L84670 77000
L84730 77030
L84750 77080
L84750 77140
L84470 77200
" />
</g>
<g style="fill:#840000; fill-opacity:0.0; 
stroke:#840000; stroke-width:100; stroke-opacity:1; 
stroke-linecap:round; stroke-linejoin:round;">
</g>
<g style="fill:#840000; fill-opacity:0.0; 
stroke:#840000; stroke-width:60; stroke-opacity:1; 
stroke-linecap:round; stroke-linejoin:round;">
<path d="M69690 75400
L112210 75400
" />
</g>
<g style="fill:#840000; fill-opacity:0.0; 
stroke:#840000; stroke-width:100; stroke-opacity:1; 
stroke-linecap:round; stroke-linejoin:round;">
</g>
<g style="fill:#840000; fill-opacity:0.0; 
stroke:#840000; stroke-width:120; stroke-opacity:1; 
stroke-linecap:round; stroke-linejoin:round;">
<path d="M104020 76290
L103820 76010
" />
<path d="M103680 76290
L103680 75700
L103910 75700
L103960 75730
L103990 75760
L104020 75810
L104020 75900
L103990 75950
L103960 75980
L103910 76010
L103680 76010
" />
<path d="M104500 76260
L104440 76290
L104330 76290
L104270 76260
L104240 76210
L104240 75980
L104270 75930
L104330 75900
L104440 75900
L104500 75930
L104520 75980
L104520 76040
L104240 76100
" />
<path d="M104720 75900
L104860 76290
L105010 75900
" />
<path d="M105230 76240
L105260 76260
L105230 76290
L105200 76260
L105230 76240
L105230 76290
" />
<path d="M105230 75930
L105260 75950
L105230 75980
L105200 75950
L105230 75930
L105230 75980
" />
</g>
<g style="fill:#840000; fill-opacity:0.0; 
stroke:#840000; stroke-width:100; stroke-opacity:1; 
stroke-linecap:round; stroke-linejoin:round;">
</g>
<g style="fill:#840000; fill-opacity:0.0; 
stroke:#840000; stroke-width:60; stroke-opacity:1; 
stroke-linecap:round; stroke-linejoin:round;">
<path d="M70190 76260
L70280 76290
L70420 76290
L70470 76260
L70500 76240
L70530 76180
L70530 76120
L70500 76070
L70470 76040
L70420 76010
L70300 75980
L70250 75950
L70220 75930
L70190 75870
L70190 75810
L70220 75760
L70250 75730
L70300 75700
L70450 75700
L70530 75730
" />
<path d="M70780 76290
L70780 75900
" />
<path d="M70780 75700
L70750 75730
L70780 75760
L70810 75730
L70780 75700
L70780 75760
" />
<path d="M71000 75900
L71310 75900
L71000 76290
L71310 76290
" />
<path d="M71770 76260
L71710 76290
L71600 76290
L71540 76260
L71510 76210
L71510 75980
L71540 75930
L71600 75900
L71710 75900
L71770 75930
L71790 75980
L71790 76040
L71510 76100
" />
<path d="M72050 76240
L72080 76260
L72050 76290
L72020 76260
L72050 76240
L72050 76290
" />
<path d="M72050 75930
L72080 75950
L72050 75980
L72020 75950
L72050 75930
L72050 75980
" />
<path d="M72750 76120
L73030 76120
" />
<path d="M72700 76290
L72890 75700
L73090 76290
" />
<path d="M73540 75900
L73540 76290
" />
<path d="M73400 75670
L73260 76100
L73630 76100
" />
</g>
<g style="fill:#840000; fill-opacity:0.0; 
stroke:#840000; stroke-width:100; stroke-opacity:1; 
stroke-linecap:round; stroke-linejoin:round;">
</g>
<g style="fill:#840000; fill-opacity:0.0; 
stroke:#840000; stroke-width:60; stroke-opacity:1; 
stroke-linecap:round; stroke-linejoin:round;">
<path d="M103680 77390
L103680 76800
" />
<path d="M104210 77390
L104210 76800
" />
<path d="M104210 77360
L104160 77390
L104040 77390
L103990 77360
L103960 77340
L103930 77280
L103930 77110
L103960 77050
L103990 77030
L104040 77000
L104160 77000
L104210 77030
" />
<path d="M104490 77340
L104520 77360
L104490 77390
L104460 77360
L104490 77340
L104490 77390
" />
<path d="M104490 77030
L104520 77050
L104490 77080
L104460 77050
L104490 77030
L104490 77080
" />
<path d="M105470 77000
L105470 77390
" />
<path d="M105330 76770
L105190 77200
L105560 77200
" />
<path d="M106200 76770
L105700 77530
" />
<path d="M106340 76800
L106740 76800
L106480 77390
" />
</g>
<g style="fill:#840000; fill-opacity:0.0; 
stroke:#840000; stroke-width:100; stroke-opacity:1; 
stroke-linecap:round; stroke-linejoin:round;">
</g>
<g style="fill:#840000; fill-opacity:0.0; 
stroke:#840000; stroke-width:60; stroke-opacity:1; 
stroke-linecap:round; stroke-linejoin:round;">
<path d="M69690 73820
L112210 73820
" />
</g>
<g style="fill:#840000; fill-opacity:0.0; 
stroke:#840000; stroke-width:100; stroke-opacity:1; 
stroke-linecap:round; stroke-linejoin:round;">
</g>
<g style="fill:#840000; fill-opacity:0.0; 
stroke:#840000; stroke-width:160; stroke-opacity:1; 
stroke-linecap:round; stroke-linejoin:round;">
<path d="M70260 74090
L70710 74090
" />
<path d="M70390 74880
L70480 74090
" />
<path d="M70880 74880
L70940 74360
" />
<path d="M70970 74090
L70930 74130
L70960 74170
L71010 74130
L70970 74090
L70960 74170
" />
<path d="M71210 74360
L71510 74360
" />
<path d="M71350 74090
L71270 74770
L71300 74840
L71370 74880
L71450 74880
" />
<path d="M71820 74880
L71750 74840
L71720 74770
L71800 74090
" />
<path d="M72420 74840
L72340 74880
L72190 74880
L72120 74840
L72090 74770
L72130 74470
L72180 74390
L72250 74360
L72400 74360
L72480 74390
L72510 74470
L72500 74540
L72110 74620
" />
<path d="M72800 74810
L72840 74840
L72800 74880
L72760 74840
L72800 74810
L72800 74880
" />
<path d="M72860 74390
L72890 74430
L72850 74470
L72810 74430
L72860 74390
L72850 74470
" />
</g>
<g style="fill:#840000; fill-opacity:0.0; 
stroke:#840000; stroke-width:100; stroke-opacity:1; 
stroke-linecap:round; stroke-linejoin:round;">
</g>
<g style="fill:#840000; fill-opacity:0.0; 
stroke:#840000; stroke-width:60; stroke-opacity:1; 
stroke-linecap:round; stroke-linejoin:round;">
<path d="M70420 73060
L70220 73060
" />
<path d="M70220 73370
L70220 72780
L70500 72780
" />
<path d="M70730 73370
L70730 72980
" />
<path d="M70730 72780
L70700 72810
L70730 72840
L70760 72810
L70730 72780
L70730 72840
" />
<path d="M71090 73370
L71040 73340
L71010 73290
L71010 72780
" />
<path d="M71550 73340
L71490 73370
L71380 73370
L71320 73340
L71290 73290
L71290 73060
L71320 73010
L71380 72980
L71490 72980
L71550 73010
L71570 73060
L71570 73120
L71290 73180
" />
<path d="M71830 73320
L71860 73340
L71830 73370
L71800 73340
L71830 73320
L71830 73370
" />
<path d="M71830 73010
L71860 73030
L71830 73060
L71800 73030
L71830 73010
L71830 73060
" />
<path d="M72870 73370
L72530 73370
" />
<path d="M72700 73370
L72700 72780
L72640 72870
L72590 72920
L72530 72950
" />
<path d="M73090 72840
L73120 72810
L73180 72780
L73320 72780
L73370 72810
L73400 72840
L73430 72890
L73430 72950
L73400 73030
L73060 73370
L73430 73370
" />
<path d="M73600 72780
L73790 73370
L73990 72780
" />
<path d="M74110 72980
L74330 72980
" />
<path d="M74190 72780
L74190 73290
L74220 73340
L74270 73370
L74330 73370
" />
<path d="M74610 73370
L74560 73340
L74530 73320
L74500 73260
L74500 73090
L74530 73030
L74560 73010
L74610 72980
L74700 72980
L74760 73010
L74780 73030
L74810 73090
L74810 73260
L74780 73320
L74760 73340
L74700 73370
L74610 73370
" />
<path d="M75000 72780
L75370 72780
L75170 73010
L75260 73010
L75310 73030
L75340 73060
L75370 73120
L75370 73260
L75340 73320
L75310 73340
L75260 73370
L75090 73370
L75030 73340
L75000 73320
" />
<path d="M75560 72980
L75700 73370
L75850 72980
" />
<path d="M76010 72780
L76380 72780
L76180 73010
L76270 73010
L76320 73030
L76350 73060
L76380 73120
L76380 73260
L76350 73320
L76320 73340
L76270 73370
L76100 73370
L76040 73340
L76010 73320
" />
<path d="M76630 73320
L76660 73340
L76630 73370
L76600 73340
L76630 73320
L76630 73370
" />
<path d="M76880 73340
L76940 73370
L77050 73370
L77110 73340
L77140 73290
L77140 73260
L77110 73200
L77050 73180
L76970 73180
L76910 73150
L76880 73090
L76880 73060
L76910 73010
L76970 72980
L77050 72980
L77110 73010
" />
<path d="M77640 73340
L77590 73370
L77470 73370
L77420 73340
L77390 73320
L77360 73260
L77360 73090
L77390 73030
L77420 73010
L77470 72980
L77590 72980
L77640 73010
" />
<path d="M77900 73370
L77900 72780
" />
<path d="M78150 73370
L78150 73060
L78130 73010
L78070 72980
L77980 72980
L77930 73010
L77900 73030
" />
</g>
<g style="fill:#840000; fill-opacity:0.0; 
stroke:#840000; stroke-width:100; stroke-opacity:1; 
stroke-linecap:round; stroke-linejoin:round;">
</g>
<g style="fill:#840000; fill-opacity:0.0; 
stroke:#840000; stroke-width:60; stroke-opacity:1; 
stroke-linecap:round; stroke-linejoin:round;">
<path d="M69690 71460
L112210 71460
" />
</g>
<g style="fill:#840000; fill-opacity:0.0; 
stroke:#840000; stroke-width:100; stroke-opacity:1; 
stroke-linecap:round; stroke-linejoin:round;">
</g>
<g style="fill:#840000; fill-opacity:0.0; 
stroke:#840000; stroke-width:60; stroke-opacity:1; 
stroke-linecap:round; stroke-linejoin:round;">
<path d="M70190 72280
L70280 72310
L70420 72310
L70470 72280
L70500 72260
L70530 72200
L70530 72140
L70500 72090
L70470 72060
L70420 72030
L70300 72000
L70250 71970
L70220 71950
L70190 71890
L70190 71830
L70220 71780
L70250 71750
L70300 71720
L70450 71720
L70530 71750
" />
<path d="M70780 72310
L70780 71720
" />
<path d="M71030 72310
L71030 72000
L71010 71950
L70950 71920
L70860 71920
L70810 71950
L70780 71970
" />
<path d="M71540 72280
L71480 72310
L71370 72310
L71310 72280
L71280 72230
L71280 72000
L71310 71950
L71370 71920
L71480 71920
L71540 71950
L71560 72000
L71560 72060
L71280 72120
" />
<path d="M72050 72280
L71990 72310
L71880 72310
L71820 72280
L71790 72230
L71790 72000
L71820 71950
L71880 71920
L71990 71920
L72050 71950
L72070 72000
L72070 72060
L71790 72120
" />
<path d="M72250 71920
L72470 71920
" />
<path d="M72330 71720
L72330 72230
L72360 72280
L72410 72310
L72470 72310
" />
<path d="M72670 72260
L72700 72280
L72670 72310
L72640 72280
L72670 72260
L72670 72310
" />
<path d="M72670 71950
L72700 71970
L72670 72000
L72640 71970
L72670 71950
L72670 72000
" />
<path d="M73820 71690
L73320 72450
" />
<path d="M74020 72310
L74020 71720
L74250 71720
L74300 71750
L74330 71780
L74360 71830
L74360 71920
L74330 71970
L74300 72000
L74250 72030
L74020 72030
" />
<path d="M74690 72310
L74640 72280
L74610 72260
L74580 72200
L74580 72030
L74610 71970
L74640 71950
L74690 71920
L74780 71920
L74840 71950
L74860 71970
L74890 72030
L74890 72200
L74860 72260
L74840 72280
L74780 72310
L74690 72310
" />
<path d="M75080 71920
L75200 72310
L75310 72030
L75420 72310
L75530 71920
" />
<path d="M75990 72280
L75930 72310
L75820 72310
L75760 72280
L75730 72230
L75730 72000
L75760 71950
L75820 71920
L75930 71920
L75990 71950
L76010 72000
L76010 72060
L75730 72120
" />
<path d="M76270 72310
L76270 71920
" />
<path d="M76270 72030
L76300 71970
L76330 71950
L76380 71920
L76440 71920
" />
<path d="M77090 72310
L77090 71720
L77230 71720
L77320 71750
L77370 71810
L77400 71860
L77430 71970
L77430 72060
L77400 72170
L77370 72230
L77320 72280
L77230 72310
L77090 72310
" />
<path d="M77680 72310
L77680 71920
" />
<path d="M77680 71720
L77650 71750
L77680 71780
L77710 71750
L77680 71720
L77680 71780
" />
<path d="M77930 72280
L77990 72310
L78100 72310
L78160 72280
L78190 72230
L78190 72200
L78160 72140
L78100 72120
L78020 72120
L77960 72090
L77930 72030
L77930 72000
L77960 71950
L78020 71920
L78100 71920
L78160 71950
" />
<path d="M78360 71920
L78580 71920
" />
<path d="M78440 71720
L78440 72230
L78470 72280
L78520 72310
L78580 72310
" />
<path d="M78780 72310
L78780 71920
" />
<path d="M78780 72030
L78810 71970
L78840 71950
L78890 71920
L78950 71920
" />
<path d="M79150 72310
L79150 71920
" />
<path d="M79150 71720
L79120 71750
L79150 71780
L79180 71750
L79150 71720
L79150 71780
" />
<path d="M79430 72310
L79430 71720
" />
<path d="M79430 71950
L79490 71920
L79600 71920
L79660 71950
L79680 71970
L79710 72030
L79710 72200
L79680 72260
L79660 72280
L79600 72310
L79490 72310
L79430 72280
" />
<path d="M80210 71920
L80210 72310
" />
<path d="M79960 71920
L79960 72230
L79990 72280
L80040 72310
L80130 72310
L80190 72280
L80210 72260
" />
<path d="M80410 71920
L80630 71920
" />
<path d="M80490 71720
L80490 72230
L80520 72280
L80570 72310
L80630 72310
" />
<path d="M80830 72310
L80830 71920
" />
<path d="M80830 71720
L80800 71750
L80830 71780
L80860 71750
L80830 71720
L80830 71780
" />
<path d="M81190 72310
L81140 72280
L81110 72260
L81080 72200
L81080 72030
L81110 71970
L81140 71950
L81190 71920
L81280 71920
L81340 71950
L81360 71970
L81390 72030
L81390 72200
L81360 72260
L81340 72280
L81280 72310
L81190 72310
" />
<path d="M81640 71920
L81640 72310
" />
<path d="M81640 71970
L81670 71950
L81720 71920
L81810 71920
L81870 71950
L81890 72000
L81890 72310
" />
<path d="M82590 71690
L82090 72450
" />
<path d="M83100 72310
L82760 72310
" />
<path d="M82930 72310
L82930 71720
L82870 71810
L82820 71860
L82760 71890
" />
<path d="M83320 71780
L83350 71750
L83410 71720
L83550 71720
L83600 71750
L83630 71780
L83660 71830
L83660 71890
L83630 71970
L83290 72310
L83660 72310
" />
<path d="M83830 71720
L84020 72310
L84220 71720
" />
<path d="M84340 71920
L84560 71920
" />
<path d="M84420 71720
L84420 72230
L84450 72280
L84500 72310
L84560 72310
" />
<path d="M84840 72310
L84790 72280
L84760 72260
L84730 72200
L84730 72030
L84760 71970
L84790 71950
L84840 71920
L84930 71920
L84990 71950
L85010 71970
L85040 72030
L85040 72200
L85010 72260
L84990 72280
L84930 72310
L84840 72310
" />
<path d="M85230 71720
L85600 71720
L85400 71950
L85490 71950
L85540 71970
L85570 72000
L85600 72060
L85600 72200
L85570 72260
L85540 72280
L85490 72310
L85320 72310
L85260 72280
L85230 72260
" />
<path d="M85790 71920
L85930 72310
L86080 71920
" />
<path d="M86240 71720
L86610 71720
L86410 71950
L86500 71950
L86550 71970
L86580 72000
L86610 72060
L86610 72200
L86580 72260
L86550 72280
L86500 72310
L86330 72310
L86270 72280
L86240 72260
" />
<path d="M86860 72260
L86890 72280
L86860 72310
L86830 72280
L86860 72260
L86860 72310
" />
<path d="M87110 72280
L87170 72310
L87280 72310
L87340 72280
L87370 72230
L87370 72200
L87340 72140
L87280 72120
L87200 72120
L87140 72090
L87110 72030
L87110 72000
L87140 71950
L87200 71920
L87280 71920
L87340 71950
" />
<path d="M87870 72280
L87820 72310
L87700 72310
L87650 72280
L87620 72260
L87590 72200
L87590 72030
L87620 71970
L87650 71950
L87700 71920
L87820 71920
L87870 71950
" />
<path d="M88130 72310
L88130 71720
" />
<path d="M88380 72310
L88380 72000
L88360 71950
L88300 71920
L88210 71920
L88160 71950
L88130 71970
" />
<path d="M89080 71690
L88580 72450
" />
</g>
<g style="fill:#840000; fill-opacity:0.0; 
stroke:#840000; stroke-width:100; stroke-opacity:1; 
stroke-linecap:round; stroke-linejoin:round;">
</g>
<g style="fill:#840000; fill-opacity:0.0; 
stroke:#840000; stroke-width:60; stroke-opacity:1; 
stroke-linecap:round; stroke-linejoin:round;">
<path d="M77560 75400
L77560 76580
" />
</g>
<g style="fill:#840000; fill-opacity:0.0; 
stroke:#840000; stroke-width:100; stroke-opacity:1; 
stroke-linecap:round; stroke-linejoin:round;">
</g>
<g style="fill:#840000; fill-opacity:0.0; 
stroke:#840000; stroke-width:60; stroke-opacity:1; 
stroke-linecap:round; stroke-linejoin:round;">
<path d="M102760 75400
L102760 77960
" />
</g>
<g style="fill:#840000; fill-opacity:0.0; 
stroke:#840000; stroke-width:0; stroke-opacity:1; 
stroke-linecap:round; stroke-linejoin:round;">
</g>
<g style="fill:#840000; fill-opacity:0.0; 
stroke:#840000; stroke-width:60; stroke-opacity:1; 
stroke-linecap:round; stroke-linejoin:round;">
<rect x="57000" y="22500" width="6000" height="6000" rx="0" />
<path d="M57000 23500
L55000 23500
" />
</g>
<g style="fill:#008484; fill-opacity:0.0; 
stroke:#008484; stroke-width:60; stroke-opacity:1; 
stroke-linecap:round; stroke-linejoin:round;">
<path d="M57780 23250
L57730 23230
L57660 23230
L57590 23250
L57540 23300
L57520 23350
L57500 23440
L57500 23510
L57520 23610
L57540 23650
L57590 23700
L57660 23730
L57710 23730
L57780 23700
L57800 23680
L57800 23510
L57710 23510
" />
<path d="M58020 23730
L58020 23230
L58300 23730
L58300 23230
" />
<path d="M58540 23730
L58540 23230
L58660 23230
L58730 23250
L58780 23300
L58800 23350
L58820 23440
L58820 23510
L58800 23610
L58780 23650
L58730 23700
L58660 23730
L58540 23730
" />
</g>
<g style="fill:#840000; fill-opacity:0.0; 
stroke:#840000; stroke-width:60; stroke-opacity:1; 
stroke-linecap:round; stroke-linejoin:round;">
<path d="M56140 23380
L55860 23380
" />
<path d="M56000 23380
L56000 22880
L55950 22950
L55900 23000
L55860 23020
" />
<path d="M57000 25500
L55000 25500
" />
</g>
<g style="fill:#008484; fill-opacity:0.0; 
stroke:#008484; stroke-width:60; stroke-opacity:1; 
stroke-linecap:round; stroke-linejoin:round;">
<path d="M57500 25700
L57570 25730
L57690 25730
L57730 25700
L57760 25680
L57780 25630
L57780 25580
L57760 25540
L57730 25510
L57690 25490
L57590 25460
L57540 25440
L57520 25420
L57500 25370
L57500 25320
L57520 25270
L57540 25250
L57590 25230
L57710 25230
L57780 25250
" />
<path d="M57950 25230
L58070 25730
L58170 25370
L58260 25730
L58380 25230
" />
</g>
<g style="fill:#840000; fill-opacity:0.0; 
stroke:#840000; stroke-width:60; stroke-opacity:1; 
stroke-linecap:round; stroke-linejoin:round;">
<path d="M55860 24920
L55880 24900
L55930 24880
L56050 24880
L56090 24900
L56120 24920
L56140 24970
L56140 25020
L56120 25090
L55830 25380
L56140 25380
" />
<path d="M57000 27000
L55000 27000
" />
</g>
<g style="fill:#008484; fill-opacity:0.0; 
stroke:#008484; stroke-width:60; stroke-opacity:1; 
stroke-linecap:round; stroke-linejoin:round;">
<path d="M57450 26730
L57610 27230
L57780 26730
" />
<path d="M57950 27230
L57950 26730
" />
<path d="M58190 27230
L58190 26730
L58470 27230
L58470 26730
" />
</g>
<g style="fill:#840000; fill-opacity:0.0; 
stroke:#840000; stroke-width:60; stroke-opacity:1; 
stroke-linecap:round; stroke-linejoin:round;">
<path d="M55830 26380
L56140 26380
L55970 26570
L56050 26570
L56090 26590
L56120 26610
L56140 26660
L56140 26780
L56120 26830
L56090 26850
L56050 26880
L55900 26880
L55860 26850
L55830 26830
" />
<path d="M63000 27000
L65000 27000
" />
</g>
<g style="fill:#008484; fill-opacity:0.0; 
stroke:#008484; stroke-width:60; stroke-opacity:1; 
stroke-linecap:round; stroke-linejoin:round;">
<path d="M61290 26730
L61450 27230
L61620 26730
" />
<path d="M61960 26960
L61790 26960
" />
<path d="M61790 27230
L61790 26730
L62030 26730
" />
<path d="M62390 26960
L62460 26990
L62480 27010
L62500 27060
L62500 27130
L62480 27180
L62460 27200
L62410 27230
L62220 27230
L62220 26730
L62390 26730
L62430 26750
L62460 26770
L62480 26820
L62480 26870
L62460 26920
L62430 26940
L62390 26960
L62220 26960
" />
</g>
<g style="fill:#840000; fill-opacity:0.0; 
stroke:#840000; stroke-width:60; stroke-opacity:1; 
stroke-linecap:round; stroke-linejoin:round;">
<path d="M64090 26540
L64090 26880
" />
<path d="M63970 26350
L63860 26710
L64160 26710
" />
<path d="M63000 25500
L65000 25500
" />
</g>
<g style="fill:#008484; fill-opacity:0.0; 
stroke:#008484; stroke-width:60; stroke-opacity:1; 
stroke-linecap:round; stroke-linejoin:round;">
<path d="M61750 25460
L61920 25460
" />
<path d="M61990 25730
L61750 25730
L61750 25230
L61990 25230
" />
<path d="M62200 25730
L62200 25230
L62480 25730
L62480 25230
" />
</g>
<g style="fill:#840000; fill-opacity:0.0; 
stroke:#840000; stroke-width:60; stroke-opacity:1; 
stroke-linecap:round; stroke-linejoin:round;">
<path d="M64120 24880
L63880 24880
L63860 25110
L63880 25090
L63930 25070
L64050 25070
L64090 25090
L64120 25110
L64140 25160
L64140 25280
L64120 25330
L64090 25350
L64050 25380
L63930 25380
L63880 25350
L63860 25330
" />
<path d="M63000 23500
L65000 23500
" />
</g>
<g style="fill:#008484; fill-opacity:0.0; 
stroke:#008484; stroke-width:60; stroke-opacity:1; 
stroke-linecap:round; stroke-linejoin:round;">
<path d="M60860 23230
L61020 23730
L61190 23230
" />
<path d="M61530 23460
L61600 23490
L61620 23510
L61640 23560
L61640 23630
L61620 23680
L61600 23700
L61550 23730
L61360 23730
L61360 23230
L61530 23230
L61570 23250
L61600 23270
L61620 23320
L61620 23370
L61600 23420
L61570 23440
L61530 23460
L61360 23460
" />
<path d="M61840 23700
L61910 23730
L62030 23730
L62070 23700
L62100 23680
L62120 23630
L62120 23580
L62100 23540
L62070 23510
L62030 23490
L61930 23460
L61880 23440
L61860 23420
L61840 23370
L61840 23320
L61860 23270
L61880 23250
L61930 23230
L62050 23230
L62120 23250
" />
<path d="M62270 23230
L62550 23230
" />
<path d="M62410 23730
L62410 23230
" />
</g>
<g style="fill:#840000; fill-opacity:0.0; 
stroke:#840000; stroke-width:60; stroke-opacity:1; 
stroke-linecap:round; stroke-linejoin:round;">
<path d="M64090 22880
L64000 22880
L63950 22900
L63930 22920
L63880 23000
L63860 23090
L63860 23280
L63880 23330
L63900 23350
L63950 23380
L64050 23380
L64090 23350
L64120 23330
L64140 23280
L64140 23160
L64120 23110
L64090 23090
L64050 23070
L63950 23070
L63900 23090
L63880 23110
L63860 23160
" />
</g>
<g style="fill:#008484; fill-opacity:0.0; 
stroke:#008484; stroke-width:60; stroke-opacity:1; 
stroke-linecap:round; stroke-linejoin:round;">
<path d="M58970 22640
L58970 23130
L59000 23180
L59030 23210
L59090 23240
L59200 23240
L59260 23210
L59290 23180
L59320 23130
L59320 22640
" />
<path d="M59920 23240
L59570 23240
" />
<path d="M59750 23240
L59750 22640
L59690 22730
L59630 22780
L59570 22810
" />
<path d="M60290 22640
L60340 22640
L60400 22670
L60430 22700
L60460 22760
L60490 22870
L60490 23010
L60460 23130
L60430 23180
L60400 23210
L60340 23240
L60290 23240
L60230 23210
L60200 23180
L60170 23130
L60140 23010
L60140 22870
L60170 22760
L60200 22700
L60230 22670
L60290 22640
" />
<path d="M61030 22640
L60740 22640
L60710 22930
L60740 22900
L60800 22870
L60940 22870
L61000 22900
L61030 22930
L61060 22980
L61060 23130
L61030 23180
L61000 23210
L60940 23240
L60800 23240
L60740 23210
L60710 23180
" />
<path d="M57540 27640
L57880 27640
" />
<path d="M57710 28240
L57710 27640
" />
<path d="M58080 28240
L58080 27640
L58310 27640
L58370 27670
L58400 27700
L58430 27760
L58430 27840
L58400 27900
L58370 27930
L58310 27960
L58080 27960
" />
<path d="M58650 28210
L58740 28240
L58880 28240
L58940 28210
L58970 28180
L59000 28130
L59000 28070
L58970 28010
L58940 27980
L58880 27960
L58770 27930
L58710 27900
L58680 27870
L58650 27810
L58650 27760
L58680 27700
L58710 27670
L58770 27640
L58910 27640
L59000 27670
" />
<path d="M59540 27640
L59250 27640
L59220 27930
L59250 27900
L59310 27870
L59450 27870
L59510 27900
L59540 27930
L59570 27980
L59570 28130
L59540 28180
L59510 28210
L59450 28240
L59310 28240
L59250 28210
L59220 28180
" />
<path d="M60080 27640
L59970 27640
L59910 27670
L59880 27700
L59820 27780
L59790 27900
L59790 28130
L59820 28180
L59850 28210
L59910 28240
L60020 28240
L60080 28210
L60110 28180
L60140 28130
L60140 27980
L60110 27930
L60080 27900
L60020 27870
L59910 27870
L59850 27900
L59820 27930
L59790 27980
" />
<path d="M60340 27640
L60710 27640
L60510 27870
L60590 27870
L60650 27900
L60680 27930
L60710 27980
L60710 28130
L60680 28180
L60650 28210
L60590 28240
L60420 28240
L60360 28210
L60340 28180
" />
<path d="M60930 27700
L60960 27670
L61020 27640
L61160 27640
L61220 27670
L61250 27700
L61280 27760
L61280 27810
L61250 27900
L60910 28240
L61280 28240
" />
<path d="M61650 27640
L61700 27640
L61760 27670
L61790 27700
L61820 27760
L61850 27870
L61850 28010
L61820 28130
L61790 28180
L61760 28210
L61700 28240
L61650 28240
L61590 28210
L61560 28180
L61530 28130
L61500 28010
L61500 27870
L61530 27760
L61560 27700
L61590 27670
L61650 27640
" />
<path d="M62220 27640
L62270 27640
L62330 27670
L62360 27700
L62390 27760
L62420 27870
L62420 28010
L62390 28130
L62360 28180
L62330 28210
L62270 28240
L62220 28240
L62160 28210
L62130 28180
L62100 28130
L62070 28010
L62070 27870
L62100 27760
L62130 27700
L62160 27670
L62220 27640
" />
</g>
<g style="fill:#008484; fill-opacity:0.0; 
stroke:#008484; stroke-width:0; stroke-opacity:1; 
stroke-linecap:round; stroke-linejoin:round;">
</g>
<g style="fill:#840000; fill-opacity:0.0; 
stroke:#840000; stroke-width:0; stroke-opacity:1; 
stroke-linecap:round; stroke-linejoin:round;">
</g>
<g style="fill:#840000; fill-opacity:0.0; 
stroke:#840000; stroke-width:200; stroke-opacity:1; 
stroke-linecap:round; stroke-linejoin:round;">
<polyline fill="none;"
points="47700,25800
49300,25800
" /> 
<polyline fill="none;"
points="47700,25200
49300,25200
" /> 
</g>
<g style="fill:#840000; fill-opacity:0.0; 
stroke:#840000; stroke-width:60; stroke-opacity:1; 
stroke-linecap:round; stroke-linejoin:round;">
<path d="M48500 25100
L48500 24000
" />
<path d="M48500 25900
L48500 27000
" />
</g>
<g style="fill:#008484; fill-opacity:0.0; 
stroke:#008484; stroke-width:60; stroke-opacity:1; 
stroke-linecap:round; stroke-linejoin:round;">
<path d="M48820 24610
L48800 24630
L48750 24650
L48710 24650
L48650 24630
L48610 24590
L48600 24560
L48580 24480
L48580 24420
L48600 24350
L48610 24310
L48650 24270
L48710 24250
L48750 24250
L48800 24270
L48820 24290
" />
<path d="M49200 24650
L48980 24650
" />
<path d="M49090 24650
L49090 24250
L49050 24310
L49010 24350
L48980 24370
" />
<path d="M49580 24650
L49360 24650
" />
<path d="M49470 24650
L49470 24250
L49430 24310
L49390 24350
L49360 24370
" />
<path d="M49930 24380
L49930 24650
" />
<path d="M49830 24230
L49740 24520
L49980 24520
" />
<path d="M48640 26140
L48660 26120
L48690 26100
L48790 26100
L48830 26120
L48850 26140
L48860 26180
L48860 26220
L48850 26270
L48620 26500
L48860 26500
" />
<path d="M49020 26140
L49040 26120
L49070 26100
L49170 26100
L49210 26120
L49230 26140
L49240 26180
L49240 26220
L49230 26270
L49000 26500
L49240 26500
" />
<path d="M49590 26230
L49590 26500
" />
<path d="M49420 26230
L49420 26440
L49430 26480
L49470 26500
L49530 26500
L49570 26480
L49590 26460
" />
<path d="M49720 26230
L49870 26230
" />
<path d="M49780 26500
L49780 26160
L49790 26120
L49830 26100
L49870 26100
" />
</g>
<g style="fill:#848400; fill-opacity:0.0; 
stroke:#848400; stroke-width:60; stroke-opacity:1; 
stroke-linecap:round; stroke-linejoin:round;">
<path d="M40460 28170
L40660 28770
L40860 28170
" />
<path d="M41050 28770
L41050 28370
" />
<path d="M41050 28170
L41020 28200
L41050 28230
L41080 28200
L41050 28170
L41050 28230
" />
<path d="M41340 28370
L41340 28770
" />
<path d="M41340 28430
L41370 28400
L41430 28370
L41510 28370
L41570 28400
L41600 28460
L41600 28770
" />
</g>
<g style="fill:#848400; fill-opacity:0.0; 
stroke:#848400; stroke-width:100; stroke-opacity:1; 
stroke-linecap:round; stroke-linejoin:round;">
<polyline fill="none;"
points="42500,28500
42200,28200
41900,28200
41900,28800
42200,28800
42500,28500
" /> 
</g>
<g style="fill:#848400; fill-opacity:0.0; 
stroke:#848400; stroke-width:60; stroke-opacity:1; 
stroke-linecap:round; stroke-linejoin:round;">
<path d="M40520 22700
L40460 22670
L40370 22670
L40290 22700
L40230 22760
L40200 22810
L40170 22930
L40170 23010
L40200 23130
L40230 23190
L40290 23240
L40370 23270
L40430 23270
L40520 23240
L40550 23210
L40550 23010
L40430 23010
" />
<path d="M40800 22870
L40800 23270
" />
<path d="M40800 22930
L40830 22900
L40890 22870
L40970 22870
L41030 22900
L41060 22960
L41060 23270
" />
<path d="M41600 23270
L41600 22670
" />
<path d="M41600 23240
L41540 23270
L41430 23270
L41370 23240
L41340 23210
L41310 23160
L41310 22990
L41340 22930
L41370 22900
L41430 22870
L41540 22870
L41600 22900
" />
</g>
<g style="fill:#848400; fill-opacity:0.0; 
stroke:#848400; stroke-width:100; stroke-opacity:1; 
stroke-linecap:round; stroke-linejoin:round;">
<polyline fill="none;"
points="42500,23000
42200,22700
41900,22700
41900,23300
42200,23300
42500,23000
" /> 
</g>
<g style="fill:#848400; fill-opacity:0.0; 
stroke:#848400; stroke-width:0; stroke-opacity:1; 
stroke-linecap:round; stroke-linejoin:round;">
</g>
<g style="fill:#840000; fill-opacity:0.0; 
stroke:#840000; stroke-width:0; stroke-opacity:1; 
stroke-linecap:round; stroke-linejoin:round;">
</g>
<g style="fill:#840000; fill-opacity:0.0; 
stroke:#840000; stroke-width:200; stroke-opacity:1; 
stroke-linecap:round; stroke-linejoin:round;">
<polyline fill="none;"
points="67200,22700
67200,24300
" /> 
<polyline fill="none;"
points="67800,22700
67800,24300
" /> 
</g>
<g style="fill:#840000; fill-opacity:0.0; 
stroke:#840000; stroke-width:60; stroke-opacity:1; 
stroke-linecap:round; stroke-linejoin:round;">
<path d="M67900 23500
L69000 23500
" />
<path d="M67100 23500
L66000 23500
" />
</g>
<g style="fill:#008484; fill-opacity:0.0; 
stroke:#008484; stroke-width:60; stroke-opacity:1; 
stroke-linecap:round; stroke-linejoin:round;">
<path d="M68670 24720
L68690 24740
L68710 24790
L68710 24830
L68690 24890
L68650 24930
L68620 24940
L68540 24960
L68480 24960
L68410 24940
L68370 24930
L68330 24890
L68310 24830
L68310 24790
L68330 24740
L68350 24720
" />
<path d="M68710 24340
L68710 24560
" />
<path d="M68710 24450
L68310 24450
L68370 24490
L68410 24530
L68430 24560
" />
<path d="M68310 24090
L68310 24050
L68330 24010
L68350 23990
L68390 23970
L68460 23960
L68560 23960
L68630 23970
L68670 23990
L68690 24010
L68710 24050
L68710 24090
L68690 24130
L68670 24150
L68630 24160
L68560 24180
L68460 24180
L68390 24160
L68350 24150
L68330 24130
L68310 24090
" />
<path d="M68710 23770
L68710 23690
L68690 23650
L68670 23630
L68620 23590
L68540 23580
L68390 23580
L68350 23590
L68330 23610
L68310 23650
L68310 23730
L68330 23770
L68350 23780
L68390 23800
L68480 23800
L68520 23780
L68540 23770
L68560 23730
L68560 23650
L68540 23610
L68520 23590
L68480 23580
" />
<path d="M66860 24980
L66860 25200
" />
<path d="M66860 25090
L66460 25090
L66520 25130
L66560 25170
L66580 25200
" />
<path d="M66460 24730
L66460 24690
L66480 24650
L66500 24630
L66540 24610
L66610 24600
L66710 24600
L66780 24610
L66820 24630
L66840 24650
L66860 24690
L66860 24730
L66840 24770
L66820 24790
L66780 24800
L66710 24820
L66610 24820
L66540 24800
L66500 24790
L66480 24770
L66460 24730
" />
<path d="M66460 24350
L66460 24310
L66480 24270
L66500 24250
L66540 24230
L66610 24220
L66710 24220
L66780 24230
L66820 24250
L66840 24270
L66860 24310
L66860 24350
L66840 24390
L66820 24410
L66780 24420
L66710 24440
L66610 24440
L66540 24420
L66500 24410
L66480 24390
L66460 24350
" />
<path d="M66590 24040
L66860 24040
" />
<path d="M66630 24040
L66610 24030
L66590 23990
L66590 23930
L66610 23890
L66650 23870
L66860 23870
" />
<path d="M66590 23740
L66590 23590
" />
<path d="M66860 23680
L66520 23680
L66480 23670
L66460 23630
L66460 23590
" />
</g>
<g style="fill:#008484; fill-opacity:0.0; 
stroke:#008484; stroke-width:0; stroke-opacity:1; 
stroke-linecap:round; stroke-linejoin:round;">
</g>
<g style="fill:#840000; fill-opacity:0.0; 
stroke:#840000; stroke-width:0; stroke-opacity:1; 
stroke-linecap:round; stroke-linejoin:round;">
</g>
<g style="fill:#840000; fill-opacity:0.0; 
stroke:#840000; stroke-width:100; stroke-opacity:1; 
stroke-linecap:round; stroke-linejoin:round;">
<rect x="78600" y="25000" width="800" height="2000" rx="0" />
</g>
<g style="fill:#840000; fill-opacity:0.0; 
stroke:#840000; stroke-width:60; stroke-opacity:1; 
stroke-linecap:round; stroke-linejoin:round;">
<path d="M79000 25000
L79000 24500
" />
<path d="M79000 27000
L79000 27500
" />
</g>
<g style="fill:#008484; fill-opacity:0.0; 
stroke:#008484; stroke-width:60; stroke-opacity:1; 
stroke-linecap:round; stroke-linejoin:round;">
<path d="M79950 26450
L79760 26580
" />
<path d="M79950 26670
L79550 26670
L79550 26520
L79570 26480
L79590 26470
L79630 26450
L79680 26450
L79720 26470
L79740 26480
L79760 26520
L79760 26670
" />
<path d="M79950 26070
L79950 26290
" />
<path d="M79950 26180
L79550 26180
L79610 26220
L79650 26260
L79670 26290
" />
<path d="M79550 25820
L79550 25780
L79570 25740
L79590 25720
L79630 25700
L79700 25690
L79800 25690
L79870 25700
L79910 25720
L79930 25740
L79950 25780
L79950 25820
L79930 25860
L79910 25880
L79870 25890
L79800 25910
L79700 25910
L79630 25890
L79590 25880
L79570 25860
L79550 25820
" />
<path d="M79720 25460
L79700 25500
L79680 25510
L79650 25530
L79630 25530
L79590 25510
L79570 25500
L79550 25460
L79550 25380
L79570 25340
L79590 25320
L79630 25310
L79650 25310
L79680 25320
L79700 25340
L79720 25380
L79720 25460
L79740 25500
L79760 25510
L79800 25530
L79870 25530
L79910 25510
L79930 25500
L79950 25460
L79950 25380
L79930 25340
L79910 25320
L79870 25310
L79800 25310
L79760 25320
L79740 25340
L79720 25380
" />
<path d="M78820 26740
L78820 26500
L78970 26630
L78970 26570
L78990 26530
L79010 26510
L79050 26500
L79140 26500
L79180 26510
L79200 26530
L79220 26570
L79220 26690
L79200 26720
L79180 26740
" />
<path d="M78820 26360
L78820 26120
L78970 26250
L78970 26190
L78990 26150
L79010 26130
L79050 26120
L79140 26120
L79180 26130
L79200 26150
L79220 26190
L79220 26310
L79200 26340
L79180 26360
" />
<path d="M79180 25940
L79200 25930
L79220 25940
L79200 25960
L79180 25940
L79220 25940
" />
<path d="M78860 25770
L78840 25750
L78820 25720
L78820 25620
L78840 25580
L78860 25560
L78900 25550
L78940 25550
L78990 25560
L79220 25790
L79220 25550
" />
<path d="M79220 25370
L78820 25370
" />
<path d="M79070 25340
L79220 25220
" />
<path d="M78950 25220
L79110 25370
" />
</g>
<g style="fill:#008484; fill-opacity:0.0; 
stroke:#008484; stroke-width:0; stroke-opacity:1; 
stroke-linecap:round; stroke-linejoin:round;">
</g>
<g style="fill:#840000; fill-opacity:0.0; 
stroke:#840000; stroke-width:0; stroke-opacity:1; 
stroke-linecap:round; stroke-linejoin:round;">
</g>
<g style="fill:#840000; fill-opacity:0.0; 
stroke:#840000; stroke-width:100; stroke-opacity:1; 
stroke-linecap:round; stroke-linejoin:round;">
<rect x="78600" y="31000" width="800" height="2000" rx="0" />
</g>
<g style="fill:#840000; fill-opacity:0.0; 
stroke:#840000; stroke-width:60; stroke-opacity:1; 
stroke-linecap:round; stroke-linejoin:round;">
<path d="M79000 31000
L79000 30500
" />
<path d="M79000 33000
L79000 33500
" />
</g>
<g style="fill:#008484; fill-opacity:0.0; 
stroke:#008484; stroke-width:60; stroke-opacity:1; 
stroke-linecap:round; stroke-linejoin:round;">
<path d="M79950 32450
L79760 32580
" />
<path d="M79950 32670
L79550 32670
L79550 32520
L79570 32480
L79590 32470
L79630 32450
L79680 32450
L79720 32470
L79740 32480
L79760 32520
L79760 32670
" />
<path d="M79950 32070
L79950 32290
" />
<path d="M79950 32180
L79550 32180
L79610 32220
L79650 32260
L79670 32290
" />
<path d="M79550 31820
L79550 31780
L79570 31740
L79590 31720
L79630 31700
L79700 31690
L79800 31690
L79870 31700
L79910 31720
L79930 31740
L79950 31780
L79950 31820
L79930 31860
L79910 31880
L79870 31890
L79800 31910
L79700 31910
L79630 31890
L79590 31880
L79570 31860
L79550 31820
" />
<path d="M79950 31500
L79950 31420
L79930 31380
L79910 31360
L79860 31320
L79780 31310
L79630 31310
L79590 31320
L79570 31340
L79550 31380
L79550 31460
L79570 31500
L79590 31510
L79630 31530
L79720 31530
L79760 31510
L79780 31500
L79800 31460
L79800 31380
L79780 31340
L79760 31320
L79720 31310
" />
<path d="M79220 32230
L79220 32450
" />
<path d="M79220 32340
L78820 32340
L78880 32380
L78920 32420
L78940 32450
" />
<path d="M78820 31980
L78820 31940
L78840 31900
L78860 31880
L78900 31860
L78970 31850
L79070 31850
L79140 31860
L79180 31880
L79200 31900
L79220 31940
L79220 31980
L79200 32020
L79180 32040
L79140 32050
L79070 32070
L78970 32070
L78900 32050
L78860 32040
L78840 32020
L78820 31980
" />
<path d="M79220 31670
L78820 31670
" />
<path d="M79070 31640
L79220 31520
" />
<path d="M78950 31520
L79110 31670
" />
</g>
<g style="fill:#008484; fill-opacity:0.0; 
stroke:#008484; stroke-width:0; stroke-opacity:1; 
stroke-linecap:round; stroke-linejoin:round;">
</g>
<g style="fill:#840000; fill-opacity:0.0; 
stroke:#840000; stroke-width:0; stroke-opacity:1; 
stroke-linecap:round; stroke-linejoin:round;">
</g>
<g style="fill:#840000; fill-opacity:0.0; 
stroke:#840000; stroke-width:60; stroke-opacity:1; 
stroke-linecap:round; stroke-linejoin:round;">
<path d="M72000.1 23509.6 A500 500 0.0 0 0 72999.9 23509.6 " />
<path d="M73000.1 23509.8 A510 510 0.0 0 0 74019.9 23509.8 " />
<path d="M74000.1 23509.8 A510 510 0.0 0 0 75019.9 23509.8 " />
<path d="M75000.1 23509.2 A480 480 0.0 0 0 75959.9 23509.2 " />
<path d="M76000 23500
L77000 23500
" />
<path d="M72000 23500
L71000 23500
" />
</g>
<g style="fill:#008484; fill-opacity:0.0; 
stroke:#008484; stroke-width:60; stroke-opacity:1; 
stroke-linecap:round; stroke-linejoin:round;">
<path d="M73560 23150
L73370 23150
L73370 22750
" />
<path d="M73890 23150
L73670 23150
" />
<path d="M73780 23150
L73780 22750
L73740 22810
L73700 22850
L73670 22870
" />
<path d="M74140 22750
L74180 22750
L74220 22770
L74240 22790
L74260 22830
L74270 22900
L74270 23000
L74260 23070
L74240 23110
L74220 23130
L74180 23150
L74140 23150
L74100 23130
L74080 23110
L74070 23070
L74050 23000
L74050 22900
L74070 22830
L74080 22790
L74100 22770
L74140 22750
" />
<path d="M74430 22790
L74450 22770
L74480 22750
L74580 22750
L74620 22770
L74640 22790
L74650 22830
L74650 22870
L74640 22920
L74410 23150
L74650 23150
" />
<path d="M73250 24290
L73270 24270
L73300 24250
L73400 24250
L73440 24270
L73460 24290
L73470 24330
L73470 24370
L73460 24420
L73230 24650
L73470 24650
" />
<path d="M73650 24610
L73660 24630
L73650 24650
L73630 24630
L73650 24610
L73650 24650
" />
<path d="M73820 24290
L73840 24270
L73870 24250
L73970 24250
L74010 24270
L74030 24290
L74040 24330
L74040 24370
L74030 24420
L73800 24650
L74040 24650
" />
<path d="M74390 24380
L74390 24650
" />
<path d="M74220 24380
L74220 24590
L74230 24630
L74270 24650
L74330 24650
L74370 24630
L74390 24610
" />
<path d="M74580 24650
L74580 24250
" />
<path d="M74750 24650
L74750 24440
L74730 24400
L74690 24380
L74630 24380
L74590 24400
L74580 24420
" />
</g>
<g style="fill:#008484; fill-opacity:0.0; 
stroke:#008484; stroke-width:0; stroke-opacity:1; 
stroke-linecap:round; stroke-linejoin:round;">
</g>
<g style="fill:#840000; fill-opacity:0.0; 
stroke:#840000; stroke-width:0; stroke-opacity:1; 
stroke-linecap:round; stroke-linejoin:round;">
</g>
<g style="fill:#840000; fill-opacity:0.0; 
stroke:#840000; stroke-width:100; stroke-opacity:1; 
stroke-linecap:round; stroke-linejoin:round;">
<rect x="62000" y="31100" width="2000" height="800" rx="0" />
</g>
<g style="fill:#840000; fill-opacity:0.0; 
stroke:#840000; stroke-width:60; stroke-opacity:1; 
stroke-linecap:round; stroke-linejoin:round;">
<path d="M64000 31500
L64500 31500
" />
<path d="M62000 31500
L61500 31500
" />
</g>
<g style="fill:#008484; fill-opacity:0.0; 
stroke:#008484; stroke-width:60; stroke-opacity:1; 
stroke-linecap:round; stroke-linejoin:round;">
<path d="M62550 32450
L62420 32260
" />
<path d="M62330 32450
L62330 32050
L62480 32050
L62520 32070
L62530 32090
L62550 32130
L62550 32180
L62530 32220
L62520 32240
L62480 32260
L62330 32260
" />
<path d="M62930 32450
L62710 32450
" />
<path d="M62820 32450
L62820 32050
L62780 32110
L62740 32150
L62710 32170
" />
<path d="M63090 32090
L63110 32070
L63140 32050
L63240 32050
L63280 32070
L63300 32090
L63310 32130
L63310 32170
L63300 32220
L63070 32450
L63310 32450
" />
<path d="M63660 32050
L63580 32050
L63540 32070
L63520 32090
L63490 32150
L63470 32220
L63470 32370
L63490 32410
L63500 32430
L63540 32450
L63620 32450
L63660 32430
L63680 32410
L63690 32370
L63690 32280
L63680 32240
L63660 32220
L63620 32200
L63540 32200
L63500 32220
L63490 32240
L63470 32280
" />
<path d="M62730 31720
L62510 31720
" />
<path d="M62620 31720
L62620 31320
L62580 31380
L62540 31420
L62510 31440
" />
<path d="M62980 31320
L63020 31320
L63060 31340
L63080 31360
L63100 31400
L63110 31470
L63110 31570
L63100 31640
L63080 31680
L63060 31700
L63020 31720
L62980 31720
L62940 31700
L62920 31680
L62910 31640
L62890 31570
L62890 31470
L62910 31400
L62920 31360
L62940 31340
L62980 31320
" />
<path d="M63290 31720
L63290 31320
" />
<path d="M63510 31720
L63340 31490
" />
<path d="M63510 31320
L63290 31550
" />
</g>
<g style="fill:#008484; fill-opacity:0.0; 
stroke:#008484; stroke-width:0; stroke-opacity:1; 
stroke-linecap:round; stroke-linejoin:round;">
</g>
<g style="fill:#840000; fill-opacity:0.0; 
stroke:#840000; stroke-width:0; stroke-opacity:1; 
stroke-linecap:round; stroke-linejoin:round;">
</g>
<g style="fill:#840000; fill-opacity:0.0; 
stroke:#840000; stroke-width:100; stroke-opacity:1; 
stroke-linecap:round; stroke-linejoin:round;">
<rect x="60600" y="37000" width="800" height="2000" rx="0" />
</g>
<g style="fill:#840000; fill-opacity:0.0; 
stroke:#840000; stroke-width:60; stroke-opacity:1; 
stroke-linecap:round; stroke-linejoin:round;">
<path d="M61000 37000
L61000 36500
" />
<path d="M61000 39000
L61000 39500
" />
</g>
<g style="fill:#008484; fill-opacity:0.0; 
stroke:#008484; stroke-width:60; stroke-opacity:1; 
stroke-linecap:round; stroke-linejoin:round;">
<path d="M61950 38450
L61760 38580
" />
<path d="M61950 38670
L61550 38670
L61550 38520
L61570 38480
L61590 38470
L61630 38450
L61680 38450
L61720 38470
L61740 38480
L61760 38520
L61760 38670
" />
<path d="M61950 38070
L61950 38290
" />
<path d="M61950 38180
L61550 38180
L61610 38220
L61650 38260
L61670 38290
" />
<path d="M61550 37930
L61550 37690
L61700 37820
L61700 37760
L61720 37720
L61740 37700
L61780 37690
L61870 37690
L61910 37700
L61930 37720
L61950 37760
L61950 37880
L61930 37910
L61910 37930
" />
<path d="M61550 37440
L61550 37400
L61570 37360
L61590 37340
L61630 37320
L61700 37310
L61800 37310
L61870 37320
L61910 37340
L61930 37360
L61950 37400
L61950 37440
L61930 37480
L61910 37500
L61870 37510
L61800 37530
L61700 37530
L61630 37510
L61590 37500
L61570 37480
L61550 37440
" />
<path d="M61220 38270
L61220 38490
" />
<path d="M61220 38380
L60820 38380
L60880 38420
L60920 38460
L60940 38490
" />
<path d="M60820 38020
L60820 37980
L60840 37940
L60860 37920
L60900 37900
L60970 37890
L61070 37890
L61140 37900
L61180 37920
L61200 37940
L61220 37980
L61220 38020
L61200 38060
L61180 38080
L61140 38090
L61070 38110
L60970 38110
L60900 38090
L60860 38080
L60840 38060
L60820 38020
" />
<path d="M61220 37710
L60820 37710
" />
<path d="M61220 37490
L60990 37660
" />
<path d="M60820 37490
L61050 37710
" />
</g>
<g style="fill:#848400; fill-opacity:0.0; 
stroke:#848400; stroke-width:60; stroke-opacity:1; 
stroke-linecap:round; stroke-linejoin:round;">
<path d="M56300 34960
L56500 34960
" />
<path d="M56590 35270
L56300 35270
L56300 34670
L56590 34670
" />
<path d="M56840 34870
L56840 35270
" />
<path d="M56840 34930
L56870 34900
L56930 34870
L57010 34870
L57070 34900
L57100 34960
L57100 35270
" />
</g>
<g style="fill:#848400; fill-opacity:0.0; 
stroke:#848400; stroke-width:100; stroke-opacity:1; 
stroke-linecap:round; stroke-linejoin:round;">
<polyline fill="none;"
points="58000,35000
57700,34700
57400,34700
57400,35300
57700,35300
58000,35000
" /> 
</g>
<g style="fill:#848400; fill-opacity:0.0; 
stroke:#848400; stroke-width:0; stroke-opacity:1; 
stroke-linecap:round; stroke-linejoin:round;">
</g>
<g style="fill:#840000; fill-opacity:0.0; 
stroke:#840000; stroke-width:0; stroke-opacity:1; 
stroke-linecap:round; stroke-linejoin:round;">
</g>
<g style="fill:#840000; fill-opacity:0.0; 
stroke:#840000; stroke-width:200; stroke-opacity:1; 
stroke-linecap:round; stroke-linejoin:round;">
<polyline fill="none;"
points="81700,26300
83300,26300
" /> 
<polyline fill="none;"
points="81700,25700
83300,25700
" /> 
</g>
<g style="fill:#840000; fill-opacity:0.0; 
stroke:#840000; stroke-width:60; stroke-opacity:1; 
stroke-linecap:round; stroke-linejoin:round;">
<path d="M82500 25600
L82500 24500
" />
<path d="M82500 26400
L82500 27500
" />
</g>
<g style="fill:#008484; fill-opacity:0.0; 
stroke:#008484; stroke-width:60; stroke-opacity:1; 
stroke-linecap:round; stroke-linejoin:round;">
<path d="M82820 25110
L82800 25130
L82750 25150
L82710 25150
L82650 25130
L82610 25090
L82600 25060
L82580 24980
L82580 24920
L82600 24850
L82610 24810
L82650 24770
L82710 24750
L82750 24750
L82800 24770
L82820 24790
" />
<path d="M83200 25150
L82980 25150
" />
<path d="M83090 25150
L83090 24750
L83050 24810
L83010 24850
L82980 24870
" />
<path d="M83450 24750
L83490 24750
L83530 24770
L83550 24790
L83570 24830
L83580 24900
L83580 25000
L83570 25070
L83550 25110
L83530 25130
L83490 25150
L83450 25150
L83410 25130
L83390 25110
L83380 25070
L83360 25000
L83360 24900
L83380 24830
L83390 24790
L83410 24770
L83450 24750
" />
<path d="M83950 24750
L83760 24750
L83740 24940
L83760 24920
L83790 24900
L83890 24900
L83930 24920
L83950 24940
L83960 24980
L83960 25070
L83950 25110
L83930 25130
L83890 25150
L83790 25150
L83760 25130
L83740 25110
" />
<path d="M82830 26730
L82830 27000
" />
<path d="M82730 26580
L82640 26870
L82880 26870
" />
<path d="M83000 26600
L83260 26600
L83090 27000
" />
<path d="M83590 26730
L83590 27000
" />
<path d="M83420 26730
L83420 26940
L83430 26980
L83470 27000
L83530 27000
L83570 26980
L83590 26960
" />
<path d="M83720 26730
L83870 26730
" />
<path d="M83780 27000
L83780 26660
L83790 26620
L83830 26600
L83870 26600
" />
</g>
<g style="fill:#848400; fill-opacity:0.0; 
stroke:#848400; stroke-width:60; stroke-opacity:1; 
stroke-linecap:round; stroke-linejoin:round;">
<path d="M89320 22670
L89520 23270
L89720 22670
" />
<path d="M90000 23270
L89940 23240
L89910 23210
L89880 23160
L89880 22990
L89910 22930
L89940 22900
L90000 22870
L90080 22870
L90140 22900
L90170 22930
L90200 22990
L90200 23160
L90170 23210
L90140 23240
L90080 23270
L90000 23270
" />
<path d="M90710 22870
L90710 23270
" />
<path d="M90450 22870
L90450 23190
L90480 23240
L90540 23270
L90620 23270
L90680 23240
L90710 23210
" />
<path d="M90910 22870
L91140 22870
" />
<path d="M90990 22670
L90990 23190
L91020 23240
L91080 23270
L91140 23270
" />
</g>
<g style="fill:#848400; fill-opacity:0.0; 
stroke:#848400; stroke-width:100; stroke-opacity:1; 
stroke-linecap:round; stroke-linejoin:round;">
<polyline fill="none;"
points="88500,23000
88800,23300
89100,23300
89100,22700
88800,22700
88500,23000
" /> 
</g>
<g style="fill:#848400; fill-opacity:0.0; 
stroke:#848400; stroke-width:0; stroke-opacity:1; 
stroke-linecap:round; stroke-linejoin:round;">
</g>
<g style="fill:#840000; fill-opacity:0.0; 
stroke:#840000; stroke-width:0; stroke-opacity:1; 
stroke-linecap:round; stroke-linejoin:round;">
</g>
<g style="fill:#840000; fill-opacity:0.0; 
stroke:#840000; stroke-width:80; stroke-opacity:1; 
stroke-linecap:round; stroke-linejoin:round;">
<polyline fill="none;"
points="65000,36000
65000,34000
" /> 
</g>
<g style="fill:#840000; fill-opacity:0.0; 
stroke:#840000; stroke-width:100; stroke-opacity:1; 
stroke-linecap:round; stroke-linejoin:round;">
<polyline fill="none;"
points="65500,36500
65500,33500
" /> 
</g>
<g style="fill:#840000; fill-opacity:0.0; 
stroke:#840000; stroke-width:60; stroke-opacity:1; 
stroke-linecap:round; stroke-linejoin:round;">
<polyline fill="none;"
points="66500,36000
65500,36000
" /> 
<polyline fill="none;"
points="66500,34000
65500,34000
" /> 
</g>
<g style="fill:#840000; fill-opacity:0.0; 
stroke:#840000; stroke-width:80; stroke-opacity:1; 
stroke-linecap:round; stroke-linejoin:round;">
<polyline fill="none;"
points="66500,36000
66500,35000
66000,35000
" /> 
<polyline fill="none;"
points="66000,34700
66000,35300
65500,35000
66000,34700
66000,34700
" /> 
</g>
<g style="fill:#840000; fill-opacity:0.0; 
stroke:#840000; stroke-width:60; stroke-opacity:1; 
stroke-linecap:round; stroke-linejoin:round;">
<path d="M65000 35000
L63500 35000
" />
</g>
<g style="fill:#008484; fill-opacity:0.0; 
stroke:#008484; stroke-width:60; stroke-opacity:1; 
stroke-linecap:round; stroke-linejoin:round;">
<path d="M64350 34500
L64320 34480
L64260 34480
L64200 34500
L64160 34540
L64150 34580
L64130 34650
L64130 34710
L64150 34790
L64160 34820
L64200 34860
L64260 34880
L64300 34880
L64350 34860
L64370 34840
L64370 34710
L64300 34710
" />
</g>
<g style="fill:#840000; fill-opacity:0.0; 
stroke:#840000; stroke-width:60; stroke-opacity:1; 
stroke-linecap:round; stroke-linejoin:round;">
<path d="M66500 36000
L66500 37000
" />
</g>
<g style="fill:#008484; fill-opacity:0.0; 
stroke:#008484; stroke-width:60; stroke-opacity:1; 
stroke-linecap:round; stroke-linejoin:round;">
<path d="M66360 36610
L66380 36560
L66380 36460
L66360 36420
L66340 36400
L66300 36390
L66270 36390
L66230 36400
L66210 36420
L66190 36460
L66170 36540
L66150 36580
L66130 36590
L66100 36610
L66060 36610
L66020 36590
L66000 36580
L65980 36540
L65980 36440
L66000 36390
" />
</g>
<g style="fill:#840000; fill-opacity:0.0; 
stroke:#840000; stroke-width:60; stroke-opacity:1; 
stroke-linecap:round; stroke-linejoin:round;">
<path d="M66500 34000
L66500 33000
" />
</g>
<g style="fill:#008484; fill-opacity:0.0; 
stroke:#008484; stroke-width:60; stroke-opacity:1; 
stroke-linecap:round; stroke-linejoin:round;">
<path d="M66380 33600
L65980 33600
L65980 33510
L66000 33450
L66040 33410
L66080 33400
L66150 33380
L66210 33380
L66290 33400
L66320 33410
L66360 33450
L66380 33510
L66380 33600
" />
<path d="M63800 33600
L63750 33570
L63690 33510
L63600 33430
L63550 33400
L63490 33400
" />
<path d="M63520 33540
L63460 33510
L63400 33460
L63370 33340
L63370 33140
L63400 33030
L63460 32970
L63520 32940
L63630 32940
L63690 32970
L63750 33030
L63770 33140
L63770 33340
L63750 33460
L63690 33510
L63630 33540
L63520 33540
" />
<path d="M64350 33540
L64000 33540
" />
<path d="M64180 33540
L64180 32940
L64120 33030
L64060 33080
L64000 33110
" />
<path d="M64720 32940
L64770 32940
L64830 32970
L64860 33000
L64890 33060
L64920 33170
L64920 33310
L64890 33430
L64860 33480
L64830 33510
L64770 33540
L64720 33540
L64660 33510
L64630 33480
L64600 33430
L64570 33310
L64570 33170
L64600 33060
L64630 33000
L64660 32970
L64720 32940
" />
<path d="M65490 33540
L65140 33540
" />
<path d="M65320 33540
L65320 32940
L65260 33030
L65200 33080
L65140 33110
" />
<path d="M57950 36740
L57950 36140
L58150 36570
L58350 36140
L58350 36740
" />
<path d="M58760 36140
L58870 36140
L58930 36170
L58990 36230
L59010 36340
L59010 36540
L58990 36660
L58930 36710
L58870 36740
L58760 36740
L58700 36710
L58640 36660
L58610 36540
L58610 36340
L58640 36230
L58700 36170
L58760 36140
" />
<path d="M59240 36710
L59330 36740
L59470 36740
L59530 36710
L59560 36680
L59590 36630
L59590 36570
L59560 36510
L59530 36480
L59470 36460
L59360 36430
L59300 36400
L59270 36370
L59240 36310
L59240 36260
L59270 36200
L59300 36170
L59360 36140
L59500 36140
L59590 36170
" />
<path d="M59700 36800
L60160 36800
" />
<path d="M60300 36740
L60300 36140
L60650 36740
L60650 36140
" />
<path d="M60790 36800
L61250 36800
" />
<path d="M61390 36340
L61390 36740
" />
<path d="M61390 36400
L61420 36370
L61480 36340
L61560 36340
L61620 36370
L61650 36430
L61650 36740
" />
<path d="M62190 36340
L62190 36740
" />
<path d="M61930 36340
L61930 36660
L61960 36710
L62020 36740
L62100 36740
L62160 36710
L62190 36680
" />
<path d="M62470 36740
L62470 36340
" />
<path d="M62470 36400
L62500 36370
L62560 36340
L62640 36340
L62700 36370
L62730 36430
L62730 36740
" />
<path d="M62730 36430
L62760 36370
L62820 36340
L62900 36340
L62960 36370
L62990 36430
L62990 36740
" />
<path d="M63270 36740
L63270 36140
" />
<path d="M63270 36370
L63330 36340
L63440 36340
L63500 36370
L63530 36400
L63560 36460
L63560 36630
L63530 36680
L63500 36710
L63440 36740
L63330 36740
L63270 36710
" />
<path d="M64040 36710
L63980 36740
L63870 36740
L63810 36710
L63780 36660
L63780 36430
L63810 36370
L63870 36340
L63980 36340
L64040 36370
L64070 36430
L64070 36480
L63780 36540
" />
<path d="M64320 36740
L64320 36340
" />
<path d="M64320 36460
L64350 36400
L64380 36370
L64440 36340
L64490 36340
" />
<path d="M64920 36710
L64860 36740
L64750 36740
L64690 36710
L64660 36660
L64660 36430
L64690 36370
L64750 36340
L64860 36340
L64920 36370
L64950 36430
L64950 36480
L64660 36540
" />
<path d="M65460 36740
L65460 36140
" />
<path d="M65460 36710
L65400 36740
L65290 36740
L65230 36710
L65200 36680
L65170 36630
L65170 36460
L65200 36400
L65230 36370
L65290 36340
L65400 36340
L65460 36370
" />
</g>
<g style="fill:#008400; fill-opacity:0.0; 
stroke:#008400; stroke-width:60; stroke-opacity:1; 
stroke-linecap:round; stroke-linejoin:round;">
<path d="M42500 23000
L55000 23000
" />
<path d="M55000 23000
L55000 23500
" />
<path d="M48500 23000
L48500 24000
" />
</g>
<g style="fill:#008400; fill-opacity:0.0; 
stroke:#008400; stroke-width:0; stroke-opacity:1; 
stroke-linecap:round; stroke-linejoin:round;">
</g>
<g style="fill:#008400; fill-opacity:1.0; 
stroke:#008400; stroke-width:100; stroke-opacity:1; 
stroke-linecap:round; stroke-linejoin:round;">
<circle cx="48500" cy="23000" r="200" /> 
</g>
<g style="fill:#008400; fill-opacity:1.0; 
stroke:#008400; stroke-width:60; stroke-opacity:1; 
stroke-linecap:round; stroke-linejoin:round;">
</g>
<g style="fill:#008400; fill-opacity:0.0; 
stroke:#008400; stroke-width:60; stroke-opacity:1; 
stroke-linecap:round; stroke-linejoin:round;">
<path d="M42500 28500
L55000 28500
" />
<path d="M55000 28500
L55000 27000
" />
<path d="M48500 27000
L48500 28500
" />
</g>
<g style="fill:#008400; fill-opacity:0.0; 
stroke:#008400; stroke-width:0; stroke-opacity:1; 
stroke-linecap:round; stroke-linejoin:round;">
</g>
<g style="fill:#008400; fill-opacity:1.0; 
stroke:#008400; stroke-width:100; stroke-opacity:1; 
stroke-linecap:round; stroke-linejoin:round;">
<circle cx="48500" cy="28500" r="200" /> 
</g>
<g style="fill:#008400; fill-opacity:1.0; 
stroke:#008400; stroke-width:0; stroke-opacity:1; 
stroke-linecap:round; stroke-linejoin:round;">
</g>
<g style="fill:#008400; fill-opacity:1.0; 
stroke:#008400; stroke-width:100; stroke-opacity:1; 
stroke-linecap:round; stroke-linejoin:round;">
<circle cx="70000" cy="23500" r="200" /> 
</g>
<g style="fill:#008400; fill-opacity:1.0; 
stroke:#008400; stroke-width:60; stroke-opacity:1; 
stroke-linecap:round; stroke-linejoin:round;">
</g>
<g style="fill:#008400; fill-opacity:0.0; 
stroke:#008400; stroke-width:60; stroke-opacity:1; 
stroke-linecap:round; stroke-linejoin:round;">
<path d="M77000 23500
L79000 23500
" />
<path d="M79000 27500
L79000 30500
" />
<path d="M79000 29000
L65000 29000
" />
<path d="M65000 29000
L65000 27000
" />
</g>
<g style="fill:#008400; fill-opacity:0.0; 
stroke:#008400; stroke-width:0; stroke-opacity:1; 
stroke-linecap:round; stroke-linejoin:round;">
</g>
<g style="fill:#008400; fill-opacity:1.0; 
stroke:#008400; stroke-width:100; stroke-opacity:1; 
stroke-linecap:round; stroke-linejoin:round;">
<circle cx="79000" cy="29000" r="200" /> 
</g>
<g style="fill:#008400; fill-opacity:1.0; 
stroke:#008400; stroke-width:60; stroke-opacity:1; 
stroke-linecap:round; stroke-linejoin:round;">
</g>
<g style="fill:#008400; fill-opacity:0.0; 
stroke:#008400; stroke-width:60; stroke-opacity:1; 
stroke-linecap:round; stroke-linejoin:round;">
<path d="M65000 23500
L66000 23500
" />
<path d="M69000 23500
L71000 23500
" />
<path d="M55000 25500
L52000 25500
" />
<path d="M52000 25500
L52000 20500
" />
<path d="M52000 20500
L70000 20500
" />
<path d="M70000 20500
L70000 23500
" />
<path d="M79000 33500
L79000 41500
" />
<path d="M65000 25500
L66500 25500
" />
<path d="M66500 25500
L66500 33000
" />
<path d="M54000 28500
L54000 31500
" />
<path d="M54000 31500
L61500 31500
" />
</g>
<g style="fill:#008400; fill-opacity:0.0; 
stroke:#008400; stroke-width:0; stroke-opacity:1; 
stroke-linecap:round; stroke-linejoin:round;">
</g>
<g style="fill:#008400; fill-opacity:1.0; 
stroke:#008400; stroke-width:100; stroke-opacity:1; 
stroke-linecap:round; stroke-linejoin:round;">
<circle cx="54000" cy="28500" r="200" /> 
</g>
<g style="fill:#008400; fill-opacity:1.0; 
stroke:#008400; stroke-width:60; stroke-opacity:1; 
stroke-linecap:round; stroke-linejoin:round;">
</g>
<g style="fill:#008400; fill-opacity:0.0; 
stroke:#008400; stroke-width:60; stroke-opacity:1; 
stroke-linecap:round; stroke-linejoin:round;">
<path d="M64500 31500
L66500 31500
" />
</g>
<g style="fill:#008400; fill-opacity:0.0; 
stroke:#008400; stroke-width:0; stroke-opacity:1; 
stroke-linecap:round; stroke-linejoin:round;">
</g>
<g style="fill:#008400; fill-opacity:1.0; 
stroke:#008400; stroke-width:100; stroke-opacity:1; 
stroke-linecap:round; stroke-linejoin:round;">
<circle cx="66500" cy="31500" r="200" /> 
</g>
<g style="fill:#008400; fill-opacity:1.0; 
stroke:#008400; stroke-width:60; stroke-opacity:1; 
stroke-linecap:round; stroke-linejoin:round;">
</g>
<g style="fill:#008400; fill-opacity:0.0; 
stroke:#008400; stroke-width:60; stroke-opacity:1; 
stroke-linecap:round; stroke-linejoin:round;">
<path d="M66500 37000
L66500 41500
" />
<path d="M66500 40500
L61000 40500
" />
</g>
<g style="fill:#008400; fill-opacity:0.0; 
stroke:#008400; stroke-width:0; stroke-opacity:1; 
stroke-linecap:round; stroke-linejoin:round;">
</g>
<g style="fill:#008400; fill-opacity:1.0; 
stroke:#008400; stroke-width:100; stroke-opacity:1; 
stroke-linecap:round; stroke-linejoin:round;">
<circle cx="66500" cy="40500" r="200" /> 
</g>
<g style="fill:#008400; fill-opacity:1.0; 
stroke:#008400; stroke-width:60; stroke-opacity:1; 
stroke-linecap:round; stroke-linejoin:round;">
</g>
<g style="fill:#008400; fill-opacity:0.0; 
stroke:#008400; stroke-width:60; stroke-opacity:1; 
stroke-linecap:round; stroke-linejoin:round;">
<path d="M58000 35000
L63500 35000
" />
<path d="M61000 35000
L61000 36500
" />
</g>
<g style="fill:#008400; fill-opacity:0.0; 
stroke:#008400; stroke-width:0; stroke-opacity:1; 
stroke-linecap:round; stroke-linejoin:round;">
</g>
<g style="fill:#008400; fill-opacity:1.0; 
stroke:#008400; stroke-width:100; stroke-opacity:1; 
stroke-linecap:round; stroke-linejoin:round;">
<circle cx="61000" cy="35000" r="200" /> 
</g>
<g style="fill:#008400; fill-opacity:1.0; 
stroke:#008400; stroke-width:60; stroke-opacity:1; 
stroke-linecap:round; stroke-linejoin:round;">
</g>
<g style="fill:#008400; fill-opacity:0.0; 
stroke:#008400; stroke-width:60; stroke-opacity:1; 
stroke-linecap:round; stroke-linejoin:round;">
<path d="M82500 27500
L82500 35000
" />
<path d="M82500 35000
L79000 35000
" />
</g>
<g style="fill:#008400; fill-opacity:0.0; 
stroke:#008400; stroke-width:0; stroke-opacity:1; 
stroke-linecap:round; stroke-linejoin:round;">
</g>
<g style="fill:#008400; fill-opacity:1.0; 
stroke:#008400; stroke-width:100; stroke-opacity:1; 
stroke-linecap:round; stroke-linejoin:round;">
<circle cx="79000" cy="35000" r="200" /> 
</g>
<g style="fill:#008400; fill-opacity:1.0; 
stroke:#008400; stroke-width:60; stroke-opacity:1; 
stroke-linecap:round; stroke-linejoin:round;">
</g>
<g style="fill:#008400; fill-opacity:0.0; 
stroke:#008400; stroke-width:60; stroke-opacity:1; 
stroke-linecap:round; stroke-linejoin:round;">
<path d="M78000 23500
L78000 23000
" />
<path d="M78000 23000
L88500 23000
" />
<path d="M82500 23000
L82500 24500
" />
</g>
<g style="fill:#008400; fill-opacity:0.0; 
stroke:#008400; stroke-width:0; stroke-opacity:1; 
stroke-linecap:round; stroke-linejoin:round;">
</g>
<g style="fill:#008400; fill-opacity:1.0; 
stroke:#008400; stroke-width:100; stroke-opacity:1; 
stroke-linecap:round; stroke-linejoin:round;">
<circle cx="78000" cy="23500" r="200" /> 
</g>
<g style="fill:#008400; fill-opacity:1.0; 
stroke:#008400; stroke-width:0; stroke-opacity:1; 
stroke-linecap:round; stroke-linejoin:round;">
</g>
<g style="fill:#008400; fill-opacity:1.0; 
stroke:#008400; stroke-width:100; stroke-opacity:1; 
stroke-linecap:round; stroke-linejoin:round;">
<circle cx="82500" cy="23000" r="200" /> 
</g>
<g style="fill:#008400; fill-opacity:1.0; 
stroke:#008400; stroke-width:60; stroke-opacity:1; 
stroke-linecap:round; stroke-linejoin:round;">
</g>
<g style="fill:#008400; fill-opacity:0.0; 
stroke:#008400; stroke-width:60; stroke-opacity:1; 
stroke-linecap:round; stroke-linejoin:round;">
<path d="M79000 41500
L46500 41500
" />
<path d="M46500 41500
L46500 23000
" />
</g>
<g style="fill:#008400; fill-opacity:0.0; 
stroke:#008400; stroke-width:0; stroke-opacity:1; 
stroke-linecap:round; stroke-linejoin:round;">
</g>
<g style="fill:#008400; fill-opacity:1.0; 
stroke:#008400; stroke-width:100; stroke-opacity:1; 
stroke-linecap:round; stroke-linejoin:round;">
<circle cx="46500" cy="23000" r="200" /> 
</g>
<g style="fill:#008400; fill-opacity:1.0; 
stroke:#008400; stroke-width:0; stroke-opacity:1; 
stroke-linecap:round; stroke-linejoin:round;">
</g>
<g style="fill:#008400; fill-opacity:1.0; 
stroke:#008400; stroke-width:100; stroke-opacity:1; 
stroke-linecap:round; stroke-linejoin:round;">
<circle cx="66500" cy="41500" r="200" /> 
</g>
<g style="fill:#008400; fill-opacity:1.0; 
stroke:#008400; stroke-width:60; stroke-opacity:1; 
stroke-linecap:round; stroke-linejoin:round;">
</g>
<g style="fill:#008400; fill-opacity:0.0; 
stroke:#008400; stroke-width:60; stroke-opacity:1; 
stroke-linecap:round; stroke-linejoin:round;">
<path d="M79000 23500
L79000 24500
" />
<path d="M61000 40500
L61000 39500
" />
</g> 
</svg>
