<?xml version="1.0" standalone="no"?>
 <!DOCTYPE svg PUBLIC "-//W3C//DTD SVG 1.1//EN" 
 "http://www.w3.org/Graphics/SVG/1.1/DTD/svg11.dtd"> 
<svg xmlns="http://www.w3.org/2000/svg" version="1.1" 
    width="29.7002cm" height="21.0007cm" viewBox="0 0 116930 82680 ">
<title>SVG Picture created as SpexPowerBoard-Power Distribution.svg date 2016/10/13 16:35:05 </title>
  <desc>Picture generated by Eeschema-SVG </desc>
<g style="fill:#000000; fill-opacity:1;stroke:#000000; stroke-opacity:1;
stroke-linecap:round; stroke-linejoin:round; "
 transform="translate(0 0) scale(1 1)">
</g>
<g style="fill:#000000; fill-opacity:0.0; 
stroke:#000000; stroke-width:-10; stroke-opacity:1; 
stroke-linecap:round; stroke-linejoin:round;">
</g>
<g style="fill:#840000; fill-opacity:0.0; 
stroke:#840000; stroke-width:-10; stroke-opacity:1; 
stroke-linecap:round; stroke-linejoin:round;">
</g>
<g style="fill:#840000; fill-opacity:0.0; 
stroke:#840000; stroke-width:100; stroke-opacity:1; 
stroke-linecap:round; stroke-linejoin:round;">
</g>
<g style="fill:#840000; fill-opacity:0.0; 
stroke:#840000; stroke-width:60; stroke-opacity:1; 
stroke-linecap:round; stroke-linejoin:round;">
<rect x="69690" y="65360" width="42520" height="12600" rx="0" />
</g>
<g style="fill:#840000; fill-opacity:0.0; 
stroke:#840000; stroke-width:100; stroke-opacity:1; 
stroke-linecap:round; stroke-linejoin:round;">
</g>
<g style="fill:#840000; fill-opacity:0.0; 
stroke:#840000; stroke-width:60; stroke-opacity:1; 
stroke-linecap:round; stroke-linejoin:round;">
<rect x="3940" y="3940" width="109050" height="74800" rx="0" />
</g>
<g style="fill:#840000; fill-opacity:0.0; 
stroke:#840000; stroke-width:100; stroke-opacity:1; 
stroke-linecap:round; stroke-linejoin:round;">
</g>
<g style="fill:#840000; fill-opacity:0.0; 
stroke:#840000; stroke-width:60; stroke-opacity:1; 
stroke-linecap:round; stroke-linejoin:round;">
<rect x="4720" y="4720" width="107490" height="73240" rx="0" />
</g>
<g style="fill:#840000; fill-opacity:0.0; 
stroke:#840000; stroke-width:100; stroke-opacity:1; 
stroke-linecap:round; stroke-linejoin:round;">
</g>
<g style="fill:#840000; fill-opacity:0.0; 
stroke:#840000; stroke-width:60; stroke-opacity:1; 
stroke-linecap:round; stroke-linejoin:round;">
<path d="M23620 4720
L23620 3940
" />
</g>
<g style="fill:#840000; fill-opacity:0.0; 
stroke:#840000; stroke-width:100; stroke-opacity:1; 
stroke-linecap:round; stroke-linejoin:round;">
</g>
<g style="fill:#840000; fill-opacity:0.0; 
stroke:#840000; stroke-width:60; stroke-opacity:1; 
stroke-linecap:round; stroke-linejoin:round;">
<path d="M43310 4720
L43310 3940
" />
</g>
<g style="fill:#840000; fill-opacity:0.0; 
stroke:#840000; stroke-width:100; stroke-opacity:1; 
stroke-linecap:round; stroke-linejoin:round;">
</g>
<g style="fill:#840000; fill-opacity:0.0; 
stroke:#840000; stroke-width:60; stroke-opacity:1; 
stroke-linecap:round; stroke-linejoin:round;">
<path d="M62990 4720
L62990 3940
" />
</g>
<g style="fill:#840000; fill-opacity:0.0; 
stroke:#840000; stroke-width:100; stroke-opacity:1; 
stroke-linecap:round; stroke-linejoin:round;">
</g>
<g style="fill:#840000; fill-opacity:0.0; 
stroke:#840000; stroke-width:60; stroke-opacity:1; 
stroke-linecap:round; stroke-linejoin:round;">
<path d="M82680 4720
L82680 3940
" />
</g>
<g style="fill:#840000; fill-opacity:0.0; 
stroke:#840000; stroke-width:100; stroke-opacity:1; 
stroke-linecap:round; stroke-linejoin:round;">
</g>
<g style="fill:#840000; fill-opacity:0.0; 
stroke:#840000; stroke-width:60; stroke-opacity:1; 
stroke-linecap:round; stroke-linejoin:round;">
<path d="M102360 4720
L102360 3940
" />
</g>
<g style="fill:#840000; fill-opacity:0.0; 
stroke:#840000; stroke-width:100; stroke-opacity:1; 
stroke-linecap:round; stroke-linejoin:round;">
</g>
<g style="fill:#840000; fill-opacity:0.0; 
stroke:#840000; stroke-width:60; stroke-opacity:1; 
stroke-linecap:round; stroke-linejoin:round;">
<path d="M14170 4560
L13880 4560
" />
<path d="M14020 4560
L14020 4050
L13970 4120
L13930 4170
L13880 4190
" />
</g>
<g style="fill:#840000; fill-opacity:0.0; 
stroke:#840000; stroke-width:100; stroke-opacity:1; 
stroke-linecap:round; stroke-linejoin:round;">
</g>
<g style="fill:#840000; fill-opacity:0.0; 
stroke:#840000; stroke-width:60; stroke-opacity:1; 
stroke-linecap:round; stroke-linejoin:round;">
<path d="M33560 4090
L33580 4070
L33630 4050
L33750 4050
L33800 4070
L33820 4090
L33850 4140
L33850 4190
L33820 4260
L33530 4560
L33850 4560
" />
</g>
<g style="fill:#840000; fill-opacity:0.0; 
stroke:#840000; stroke-width:100; stroke-opacity:1; 
stroke-linecap:round; stroke-linejoin:round;">
</g>
<g style="fill:#840000; fill-opacity:0.0; 
stroke:#840000; stroke-width:60; stroke-opacity:1; 
stroke-linecap:round; stroke-linejoin:round;">
<path d="M53220 4050
L53540 4050
L53370 4240
L53440 4240
L53490 4260
L53510 4290
L53540 4340
L53540 4460
L53510 4510
L53490 4530
L53440 4560
L53300 4560
L53250 4530
L53220 4510
" />
</g>
<g style="fill:#840000; fill-opacity:0.0; 
stroke:#840000; stroke-width:100; stroke-opacity:1; 
stroke-linecap:round; stroke-linejoin:round;">
</g>
<g style="fill:#840000; fill-opacity:0.0; 
stroke:#840000; stroke-width:60; stroke-opacity:1; 
stroke-linecap:round; stroke-linejoin:round;">
<path d="M73170 4220
L73170 4560
" />
<path d="M73050 4020
L72930 4390
L73240 4390
" />
</g>
<g style="fill:#840000; fill-opacity:0.0; 
stroke:#840000; stroke-width:100; stroke-opacity:1; 
stroke-linecap:round; stroke-linejoin:round;">
</g>
<g style="fill:#840000; fill-opacity:0.0; 
stroke:#840000; stroke-width:60; stroke-opacity:1; 
stroke-linecap:round; stroke-linejoin:round;">
<path d="M92880 4050
L92640 4050
L92620 4290
L92640 4260
L92690 4240
L92810 4240
L92860 4260
L92880 4290
L92910 4340
L92910 4460
L92880 4510
L92860 4530
L92810 4560
L92690 4560
L92640 4530
L92620 4510
" />
</g>
<g style="fill:#840000; fill-opacity:0.0; 
stroke:#840000; stroke-width:100; stroke-opacity:1; 
stroke-linecap:round; stroke-linejoin:round;">
</g>
<g style="fill:#840000; fill-opacity:0.0; 
stroke:#840000; stroke-width:60; stroke-opacity:1; 
stroke-linecap:round; stroke-linejoin:round;">
<path d="M112540 4050
L112440 4050
L112390 4070
L112370 4090
L112320 4170
L112300 4260
L112300 4460
L112320 4510
L112350 4530
L112390 4560
L112490 4560
L112540 4530
L112560 4510
L112590 4460
L112590 4340
L112560 4290
L112540 4260
L112490 4240
L112390 4240
L112350 4260
L112320 4290
L112300 4340
" />
</g>
<g style="fill:#840000; fill-opacity:0.0; 
stroke:#840000; stroke-width:100; stroke-opacity:1; 
stroke-linecap:round; stroke-linejoin:round;">
</g>
<g style="fill:#840000; fill-opacity:0.0; 
stroke:#840000; stroke-width:60; stroke-opacity:1; 
stroke-linecap:round; stroke-linejoin:round;">
<path d="M23620 77960
L23620 78740
" />
</g>
<g style="fill:#840000; fill-opacity:0.0; 
stroke:#840000; stroke-width:100; stroke-opacity:1; 
stroke-linecap:round; stroke-linejoin:round;">
</g>
<g style="fill:#840000; fill-opacity:0.0; 
stroke:#840000; stroke-width:60; stroke-opacity:1; 
stroke-linecap:round; stroke-linejoin:round;">
<path d="M43310 77960
L43310 78740
" />
</g>
<g style="fill:#840000; fill-opacity:0.0; 
stroke:#840000; stroke-width:100; stroke-opacity:1; 
stroke-linecap:round; stroke-linejoin:round;">
</g>
<g style="fill:#840000; fill-opacity:0.0; 
stroke:#840000; stroke-width:60; stroke-opacity:1; 
stroke-linecap:round; stroke-linejoin:round;">
<path d="M62990 77960
L62990 78740
" />
</g>
<g style="fill:#840000; fill-opacity:0.0; 
stroke:#840000; stroke-width:100; stroke-opacity:1; 
stroke-linecap:round; stroke-linejoin:round;">
</g>
<g style="fill:#840000; fill-opacity:0.0; 
stroke:#840000; stroke-width:60; stroke-opacity:1; 
stroke-linecap:round; stroke-linejoin:round;">
<path d="M82680 77960
L82680 78740
" />
</g>
<g style="fill:#840000; fill-opacity:0.0; 
stroke:#840000; stroke-width:100; stroke-opacity:1; 
stroke-linecap:round; stroke-linejoin:round;">
</g>
<g style="fill:#840000; fill-opacity:0.0; 
stroke:#840000; stroke-width:60; stroke-opacity:1; 
stroke-linecap:round; stroke-linejoin:round;">
<path d="M102360 77960
L102360 78740
" />
</g>
<g style="fill:#840000; fill-opacity:0.0; 
stroke:#840000; stroke-width:100; stroke-opacity:1; 
stroke-linecap:round; stroke-linejoin:round;">
</g>
<g style="fill:#840000; fill-opacity:0.0; 
stroke:#840000; stroke-width:60; stroke-opacity:1; 
stroke-linecap:round; stroke-linejoin:round;">
<path d="M14170 78580
L13880 78580
" />
<path d="M14020 78580
L14020 78070
L13970 78140
L13930 78190
L13880 78210
" />
</g>
<g style="fill:#840000; fill-opacity:0.0; 
stroke:#840000; stroke-width:100; stroke-opacity:1; 
stroke-linecap:round; stroke-linejoin:round;">
</g>
<g style="fill:#840000; fill-opacity:0.0; 
stroke:#840000; stroke-width:60; stroke-opacity:1; 
stroke-linecap:round; stroke-linejoin:round;">
<path d="M33560 78110
L33580 78090
L33630 78070
L33750 78070
L33800 78090
L33820 78110
L33850 78160
L33850 78210
L33820 78280
L33530 78580
L33850 78580
" />
</g>
<g style="fill:#840000; fill-opacity:0.0; 
stroke:#840000; stroke-width:100; stroke-opacity:1; 
stroke-linecap:round; stroke-linejoin:round;">
</g>
<g style="fill:#840000; fill-opacity:0.0; 
stroke:#840000; stroke-width:60; stroke-opacity:1; 
stroke-linecap:round; stroke-linejoin:round;">
<path d="M53220 78070
L53540 78070
L53370 78260
L53440 78260
L53490 78280
L53510 78310
L53540 78360
L53540 78480
L53510 78530
L53490 78550
L53440 78580
L53300 78580
L53250 78550
L53220 78530
" />
</g>
<g style="fill:#840000; fill-opacity:0.0; 
stroke:#840000; stroke-width:100; stroke-opacity:1; 
stroke-linecap:round; stroke-linejoin:round;">
</g>
<g style="fill:#840000; fill-opacity:0.0; 
stroke:#840000; stroke-width:60; stroke-opacity:1; 
stroke-linecap:round; stroke-linejoin:round;">
<path d="M73170 78240
L73170 78580
" />
<path d="M73050 78040
L72930 78410
L73240 78410
" />
</g>
<g style="fill:#840000; fill-opacity:0.0; 
stroke:#840000; stroke-width:100; stroke-opacity:1; 
stroke-linecap:round; stroke-linejoin:round;">
</g>
<g style="fill:#840000; fill-opacity:0.0; 
stroke:#840000; stroke-width:60; stroke-opacity:1; 
stroke-linecap:round; stroke-linejoin:round;">
<path d="M92880 78070
L92640 78070
L92620 78310
L92640 78280
L92690 78260
L92810 78260
L92860 78280
L92880 78310
L92910 78360
L92910 78480
L92880 78530
L92860 78550
L92810 78580
L92690 78580
L92640 78550
L92620 78530
" />
</g>
<g style="fill:#840000; fill-opacity:0.0; 
stroke:#840000; stroke-width:100; stroke-opacity:1; 
stroke-linecap:round; stroke-linejoin:round;">
</g>
<g style="fill:#840000; fill-opacity:0.0; 
stroke:#840000; stroke-width:60; stroke-opacity:1; 
stroke-linecap:round; stroke-linejoin:round;">
<path d="M112540 78070
L112440 78070
L112390 78090
L112370 78110
L112320 78190
L112300 78280
L112300 78480
L112320 78530
L112350 78550
L112390 78580
L112490 78580
L112540 78550
L112560 78530
L112590 78480
L112590 78360
L112560 78310
L112540 78280
L112490 78260
L112390 78260
L112350 78280
L112320 78310
L112300 78360
" />
</g>
<g style="fill:#840000; fill-opacity:0.0; 
stroke:#840000; stroke-width:100; stroke-opacity:1; 
stroke-linecap:round; stroke-linejoin:round;">
</g>
<g style="fill:#840000; fill-opacity:0.0; 
stroke:#840000; stroke-width:60; stroke-opacity:1; 
stroke-linecap:round; stroke-linejoin:round;">
<path d="M3940 23620
L4720 23620
" />
</g>
<g style="fill:#840000; fill-opacity:0.0; 
stroke:#840000; stroke-width:100; stroke-opacity:1; 
stroke-linecap:round; stroke-linejoin:round;">
</g>
<g style="fill:#840000; fill-opacity:0.0; 
stroke:#840000; stroke-width:60; stroke-opacity:1; 
stroke-linecap:round; stroke-linejoin:round;">
<path d="M3940 43310
L4720 43310
" />
</g>
<g style="fill:#840000; fill-opacity:0.0; 
stroke:#840000; stroke-width:100; stroke-opacity:1; 
stroke-linecap:round; stroke-linejoin:round;">
</g>
<g style="fill:#840000; fill-opacity:0.0; 
stroke:#840000; stroke-width:60; stroke-opacity:1; 
stroke-linecap:round; stroke-linejoin:round;">
<path d="M3940 62990
L4720 62990
" />
</g>
<g style="fill:#840000; fill-opacity:0.0; 
stroke:#840000; stroke-width:100; stroke-opacity:1; 
stroke-linecap:round; stroke-linejoin:round;">
</g>
<g style="fill:#840000; fill-opacity:0.0; 
stroke:#840000; stroke-width:60; stroke-opacity:1; 
stroke-linecap:round; stroke-linejoin:round;">
<path d="M4210 13860
L4450 13860
" />
<path d="M4160 14010
L4330 13500
L4500 14010
" />
</g>
<g style="fill:#840000; fill-opacity:0.0; 
stroke:#840000; stroke-width:100; stroke-opacity:1; 
stroke-linecap:round; stroke-linejoin:round;">
</g>
<g style="fill:#840000; fill-opacity:0.0; 
stroke:#840000; stroke-width:60; stroke-opacity:1; 
stroke-linecap:round; stroke-linejoin:round;">
<path d="M4370 33420
L4440 33440
L4470 33470
L4490 33520
L4490 33590
L4470 33640
L4440 33660
L4400 33690
L4200 33690
L4200 33180
L4370 33180
L4420 33200
L4440 33220
L4470 33270
L4470 33320
L4440 33370
L4420 33390
L4370 33420
L4200 33420
" />
</g>
<g style="fill:#840000; fill-opacity:0.0; 
stroke:#840000; stroke-width:100; stroke-opacity:1; 
stroke-linecap:round; stroke-linejoin:round;">
</g>
<g style="fill:#840000; fill-opacity:0.0; 
stroke:#840000; stroke-width:60; stroke-opacity:1; 
stroke-linecap:round; stroke-linejoin:round;">
<path d="M4490 53330
L4470 53350
L4400 53380
L4350 53380
L4270 53350
L4230 53300
L4200 53250
L4180 53160
L4180 53080
L4200 52990
L4230 52940
L4270 52890
L4350 52870
L4400 52870
L4470 52890
L4490 52910
" />
</g>
<g style="fill:#840000; fill-opacity:0.0; 
stroke:#840000; stroke-width:100; stroke-opacity:1; 
stroke-linecap:round; stroke-linejoin:round;">
</g>
<g style="fill:#840000; fill-opacity:0.0; 
stroke:#840000; stroke-width:60; stroke-opacity:1; 
stroke-linecap:round; stroke-linejoin:round;">
<path d="M4200 73060
L4200 72550
L4320 72550
L4400 72570
L4440 72620
L4470 72670
L4490 72760
L4490 72840
L4470 72930
L4440 72980
L4400 73030
L4320 73060
L4200 73060
" />
</g>
<g style="fill:#840000; fill-opacity:0.0; 
stroke:#840000; stroke-width:100; stroke-opacity:1; 
stroke-linecap:round; stroke-linejoin:round;">
</g>
<g style="fill:#840000; fill-opacity:0.0; 
stroke:#840000; stroke-width:60; stroke-opacity:1; 
stroke-linecap:round; stroke-linejoin:round;">
<path d="M112990 23620
L112210 23620
" />
</g>
<g style="fill:#840000; fill-opacity:0.0; 
stroke:#840000; stroke-width:100; stroke-opacity:1; 
stroke-linecap:round; stroke-linejoin:round;">
</g>
<g style="fill:#840000; fill-opacity:0.0; 
stroke:#840000; stroke-width:60; stroke-opacity:1; 
stroke-linecap:round; stroke-linejoin:round;">
<path d="M112990 43310
L112210 43310
" />
</g>
<g style="fill:#840000; fill-opacity:0.0; 
stroke:#840000; stroke-width:100; stroke-opacity:1; 
stroke-linecap:round; stroke-linejoin:round;">
</g>
<g style="fill:#840000; fill-opacity:0.0; 
stroke:#840000; stroke-width:60; stroke-opacity:1; 
stroke-linecap:round; stroke-linejoin:round;">
<path d="M112990 62990
L112210 62990
" />
</g>
<g style="fill:#840000; fill-opacity:0.0; 
stroke:#840000; stroke-width:100; stroke-opacity:1; 
stroke-linecap:round; stroke-linejoin:round;">
</g>
<g style="fill:#840000; fill-opacity:0.0; 
stroke:#840000; stroke-width:60; stroke-opacity:1; 
stroke-linecap:round; stroke-linejoin:round;">
<path d="M112480 13860
L112720 13860
" />
<path d="M112430 14010
L112600 13500
L112770 14010
" />
</g>
<g style="fill:#840000; fill-opacity:0.0; 
stroke:#840000; stroke-width:100; stroke-opacity:1; 
stroke-linecap:round; stroke-linejoin:round;">
</g>
<g style="fill:#840000; fill-opacity:0.0; 
stroke:#840000; stroke-width:60; stroke-opacity:1; 
stroke-linecap:round; stroke-linejoin:round;">
<path d="M112640 33420
L112710 33440
L112740 33470
L112760 33520
L112760 33590
L112740 33640
L112710 33660
L112670 33690
L112470 33690
L112470 33180
L112640 33180
L112690 33200
L112710 33220
L112740 33270
L112740 33320
L112710 33370
L112690 33390
L112640 33420
L112470 33420
" />
</g>
<g style="fill:#840000; fill-opacity:0.0; 
stroke:#840000; stroke-width:100; stroke-opacity:1; 
stroke-linecap:round; stroke-linejoin:round;">
</g>
<g style="fill:#840000; fill-opacity:0.0; 
stroke:#840000; stroke-width:60; stroke-opacity:1; 
stroke-linecap:round; stroke-linejoin:round;">
<path d="M112760 53330
L112740 53350
L112670 53380
L112620 53380
L112540 53350
L112500 53300
L112470 53250
L112450 53160
L112450 53080
L112470 52990
L112500 52940
L112540 52890
L112620 52870
L112670 52870
L112740 52890
L112760 52910
" />
</g>
<g style="fill:#840000; fill-opacity:0.0; 
stroke:#840000; stroke-width:100; stroke-opacity:1; 
stroke-linecap:round; stroke-linejoin:round;">
</g>
<g style="fill:#840000; fill-opacity:0.0; 
stroke:#840000; stroke-width:60; stroke-opacity:1; 
stroke-linecap:round; stroke-linejoin:round;">
<path d="M112470 73060
L112470 72550
L112590 72550
L112670 72570
L112710 72620
L112740 72670
L112760 72760
L112760 72840
L112740 72930
L112710 72980
L112670 73030
L112590 73060
L112470 73060
" />
</g>
<g style="fill:#840000; fill-opacity:0.0; 
stroke:#840000; stroke-width:100; stroke-opacity:1; 
stroke-linecap:round; stroke-linejoin:round;">
</g>
<g style="fill:#840000; fill-opacity:0.0; 
stroke:#840000; stroke-width:60; stroke-opacity:1; 
stroke-linecap:round; stroke-linejoin:round;">
<path d="M78880 76290
L78880 75700
L79020 75700
L79110 75730
L79160 75790
L79190 75840
L79220 75950
L79220 76040
L79190 76150
L79160 76210
L79110 76260
L79020 76290
L78880 76290
" />
<path d="M79720 76290
L79720 75980
L79700 75930
L79640 75900
L79530 75900
L79470 75930
" />
<path d="M79720 76260
L79670 76290
L79530 76290
L79470 76260
L79440 76210
L79440 76150
L79470 76100
L79530 76070
L79670 76070
L79720 76040
" />
<path d="M79920 75900
L80140 75900
" />
<path d="M80000 75700
L80000 76210
L80030 76260
L80080 76290
L80140 76290
" />
<path d="M80570 76260
L80510 76290
L80400 76290
L80340 76260
L80310 76210
L80310 75980
L80340 75930
L80400 75900
L80510 75900
L80570 75930
L80590 75980
L80590 76040
L80310 76100
" />
<path d="M80850 76240
L80880 76260
L80850 76290
L80820 76260
L80850 76240
L80850 76290
" />
<path d="M80850 75930
L80880 75950
L80850 75980
L80820 75950
L80850 75930
L80850 75980
" />
</g>
<g style="fill:#840000; fill-opacity:0.0; 
stroke:#840000; stroke-width:100; stroke-opacity:1; 
stroke-linecap:round; stroke-linejoin:round;">
</g>
<g style="fill:#840000; fill-opacity:0.0; 
stroke:#840000; stroke-width:60; stroke-opacity:1; 
stroke-linecap:round; stroke-linejoin:round;">
<path d="M69690 76580
L112210 76580
" />
</g>
<g style="fill:#840000; fill-opacity:0.0; 
stroke:#840000; stroke-width:100; stroke-opacity:1; 
stroke-linecap:round; stroke-linejoin:round;">
</g>
<g style="fill:#840000; fill-opacity:0.0; 
stroke:#840000; stroke-width:60; stroke-opacity:1; 
stroke-linecap:round; stroke-linejoin:round;">
<path d="M70220 77390
L70220 76800
" />
<path d="M70560 77390
L70300 77050
" />
<path d="M70560 76800
L70220 77140
" />
<path d="M70810 77390
L70810 77000
" />
<path d="M70810 76800
L70780 76830
L70810 76860
L70840 76830
L70810 76800
L70810 76860
" />
<path d="M71430 77340
L71400 77360
L71320 77390
L71260 77390
L71170 77360
L71120 77310
L71090 77250
L71060 77140
L71060 77050
L71090 76940
L71120 76890
L71170 76830
L71260 76800
L71320 76800
L71400 76830
L71430 76860
" />
<path d="M71930 77390
L71930 77080
L71910 77030
L71850 77000
L71740 77000
L71680 77030
" />
<path d="M71930 77360
L71880 77390
L71740 77390
L71680 77360
L71650 77310
L71650 77250
L71680 77200
L71740 77170
L71880 77170
L71930 77140
" />
<path d="M72460 77390
L72460 76800
" />
<path d="M72460 77360
L72410 77390
L72290 77390
L72240 77360
L72210 77340
L72180 77280
L72180 77110
L72210 77050
L72240 77030
L72290 77000
L72410 77000
L72460 77030
" />
<path d="M73190 77080
L73390 77080
" />
<path d="M73470 77390
L73190 77390
L73190 76800
L73470 76800
" />
<path d="M73720 77340
L73750 77360
L73720 77390
L73690 77360
L73720 77340
L73720 77390
" />
<path d="M74000 77390
L74000 76800
L74140 76800
L74230 76830
L74280 76890
L74310 76940
L74340 77050
L74340 77140
L74310 77250
L74280 77310
L74230 77360
L74140 77390
L74000 77390
" />
<path d="M74590 77340
L74620 77360
L74590 77390
L74560 77360
L74590 77340
L74590 77390
" />
<path d="M74840 77220
L75120 77220
" />
<path d="M74790 77390
L74980 76800
L75180 77390
" />
<path d="M75380 77340
L75410 77360
L75380 77390
L75350 77360
L75380 77340
L75380 77390
" />
<path d="M76560 77390
L76560 76800
" />
<path d="M76620 77170
L76790 77390
" />
<path d="M76790 77000
L76560 77220
" />
<path d="M77040 77390
L77040 77000
" />
<path d="M77040 76800
L77010 76830
L77040 76860
L77070 76830
L77040 76800
L77040 76860
" />
<path d="M77570 77360
L77520 77390
L77400 77390
L77350 77360
L77320 77340
L77290 77280
L77290 77110
L77320 77050
L77350 77030
L77400 77000
L77520 77000
L77570 77030
" />
<path d="M78080 77390
L78080 77080
L78060 77030
L78000 77000
L77890 77000
L77830 77030
" />
<path d="M78080 77360
L78030 77390
L77890 77390
L77830 77360
L77800 77310
L77800 77250
L77830 77200
L77890 77170
L78030 77170
L78080 77140
" />
<path d="M78610 77390
L78610 76800
" />
<path d="M78610 77360
L78560 77390
L78440 77390
L78390 77360
L78360 77340
L78330 77280
L78330 77110
L78360 77050
L78390 77030
L78440 77000
L78560 77000
L78610 77030
" />
<path d="M79590 77000
L79590 77390
" />
<path d="M79450 76770
L79310 77200
L79680 77200
" />
<path d="M79900 77340
L79930 77360
L79900 77390
L79870 77360
L79900 77340
L79900 77390
" />
<path d="M80290 76800
L80350 76800
L80410 76830
L80430 76860
L80460 76910
L80490 77030
L80490 77170
L80460 77280
L80430 77340
L80410 77360
L80350 77390
L80290 77390
L80240 77360
L80210 77340
L80180 77280
L80150 77170
L80150 77030
L80180 76910
L80210 76860
L80240 76830
L80290 76800
" />
<path d="M80740 77340
L80770 77360
L80740 77390
L80710 77360
L80740 77340
L80740 77390
" />
<path d="M80990 76860
L81020 76830
L81080 76800
L81220 76800
L81270 76830
L81300 76860
L81330 76910
L81330 76970
L81300 77050
L80960 77390
L81330 77390
" />
<path d="M81580 77170
L82030 77170
" />
<path d="M82280 77360
L82340 77390
L82450 77390
L82510 77360
L82540 77310
L82540 77280
L82510 77220
L82450 77200
L82370 77200
L82310 77170
L82280 77110
L82280 77080
L82310 77030
L82370 77000
L82450 77000
L82510 77030
" />
<path d="M82710 77000
L82930 77000
" />
<path d="M82790 76800
L82790 77310
L82820 77360
L82870 77390
L82930 77390
" />
<path d="M83380 77390
L83380 77080
L83360 77030
L83300 77000
L83190 77000
L83130 77030
" />
<path d="M83380 77360
L83330 77390
L83190 77390
L83130 77360
L83100 77310
L83100 77250
L83130 77200
L83190 77170
L83330 77170
L83380 77140
" />
<path d="M83660 77390
L83660 76800
" />
<path d="M83660 77030
L83720 77000
L83830 77000
L83890 77030
L83910 77050
L83940 77110
L83940 77280
L83910 77340
L83890 77360
L83830 77390
L83720 77390
L83660 77360
" />
<path d="M84270 77390
L84220 77360
L84190 77310
L84190 76800
" />
<path d="M84730 77360
L84670 77390
L84560 77390
L84500 77360
L84470 77310
L84470 77080
L84500 77030
L84560 77000
L84670 77000
L84730 77030
L84750 77080
L84750 77140
L84470 77200
" />
</g>
<g style="fill:#840000; fill-opacity:0.0; 
stroke:#840000; stroke-width:100; stroke-opacity:1; 
stroke-linecap:round; stroke-linejoin:round;">
</g>
<g style="fill:#840000; fill-opacity:0.0; 
stroke:#840000; stroke-width:60; stroke-opacity:1; 
stroke-linecap:round; stroke-linejoin:round;">
<path d="M69690 75400
L112210 75400
" />
</g>
<g style="fill:#840000; fill-opacity:0.0; 
stroke:#840000; stroke-width:100; stroke-opacity:1; 
stroke-linecap:round; stroke-linejoin:round;">
</g>
<g style="fill:#840000; fill-opacity:0.0; 
stroke:#840000; stroke-width:120; stroke-opacity:1; 
stroke-linecap:round; stroke-linejoin:round;">
<path d="M104020 76290
L103820 76010
" />
<path d="M103680 76290
L103680 75700
L103910 75700
L103960 75730
L103990 75760
L104020 75810
L104020 75900
L103990 75950
L103960 75980
L103910 76010
L103680 76010
" />
<path d="M104500 76260
L104440 76290
L104330 76290
L104270 76260
L104240 76210
L104240 75980
L104270 75930
L104330 75900
L104440 75900
L104500 75930
L104520 75980
L104520 76040
L104240 76100
" />
<path d="M104720 75900
L104860 76290
L105010 75900
" />
<path d="M105230 76240
L105260 76260
L105230 76290
L105200 76260
L105230 76240
L105230 76290
" />
<path d="M105230 75930
L105260 75950
L105230 75980
L105200 75950
L105230 75930
L105230 75980
" />
</g>
<g style="fill:#840000; fill-opacity:0.0; 
stroke:#840000; stroke-width:100; stroke-opacity:1; 
stroke-linecap:round; stroke-linejoin:round;">
</g>
<g style="fill:#840000; fill-opacity:0.0; 
stroke:#840000; stroke-width:60; stroke-opacity:1; 
stroke-linecap:round; stroke-linejoin:round;">
<path d="M70190 76260
L70280 76290
L70420 76290
L70470 76260
L70500 76240
L70530 76180
L70530 76120
L70500 76070
L70470 76040
L70420 76010
L70300 75980
L70250 75950
L70220 75930
L70190 75870
L70190 75810
L70220 75760
L70250 75730
L70300 75700
L70450 75700
L70530 75730
" />
<path d="M70780 76290
L70780 75900
" />
<path d="M70780 75700
L70750 75730
L70780 75760
L70810 75730
L70780 75700
L70780 75760
" />
<path d="M71000 75900
L71310 75900
L71000 76290
L71310 76290
" />
<path d="M71770 76260
L71710 76290
L71600 76290
L71540 76260
L71510 76210
L71510 75980
L71540 75930
L71600 75900
L71710 75900
L71770 75930
L71790 75980
L71790 76040
L71510 76100
" />
<path d="M72050 76240
L72080 76260
L72050 76290
L72020 76260
L72050 76240
L72050 76290
" />
<path d="M72050 75930
L72080 75950
L72050 75980
L72020 75950
L72050 75930
L72050 75980
" />
<path d="M72750 76120
L73030 76120
" />
<path d="M72700 76290
L72890 75700
L73090 76290
" />
<path d="M73540 75900
L73540 76290
" />
<path d="M73400 75670
L73260 76100
L73630 76100
" />
</g>
<g style="fill:#840000; fill-opacity:0.0; 
stroke:#840000; stroke-width:100; stroke-opacity:1; 
stroke-linecap:round; stroke-linejoin:round;">
</g>
<g style="fill:#840000; fill-opacity:0.0; 
stroke:#840000; stroke-width:60; stroke-opacity:1; 
stroke-linecap:round; stroke-linejoin:round;">
<path d="M103680 77390
L103680 76800
" />
<path d="M104210 77390
L104210 76800
" />
<path d="M104210 77360
L104160 77390
L104040 77390
L103990 77360
L103960 77340
L103930 77280
L103930 77110
L103960 77050
L103990 77030
L104040 77000
L104160 77000
L104210 77030
" />
<path d="M104490 77340
L104520 77360
L104490 77390
L104460 77360
L104490 77340
L104490 77390
" />
<path d="M104490 77030
L104520 77050
L104490 77080
L104460 77050
L104490 77030
L104490 77080
" />
<path d="M105160 76800
L105530 76800
L105330 77030
L105420 77030
L105470 77050
L105500 77080
L105530 77140
L105530 77280
L105500 77340
L105470 77360
L105420 77390
L105250 77390
L105190 77360
L105160 77340
" />
<path d="M106200 76770
L105700 77530
" />
<path d="M106340 76800
L106740 76800
L106480 77390
" />
</g>
<g style="fill:#840000; fill-opacity:0.0; 
stroke:#840000; stroke-width:100; stroke-opacity:1; 
stroke-linecap:round; stroke-linejoin:round;">
</g>
<g style="fill:#840000; fill-opacity:0.0; 
stroke:#840000; stroke-width:60; stroke-opacity:1; 
stroke-linecap:round; stroke-linejoin:round;">
<path d="M69690 73820
L112210 73820
" />
</g>
<g style="fill:#840000; fill-opacity:0.0; 
stroke:#840000; stroke-width:100; stroke-opacity:1; 
stroke-linecap:round; stroke-linejoin:round;">
</g>
<g style="fill:#840000; fill-opacity:0.0; 
stroke:#840000; stroke-width:160; stroke-opacity:1; 
stroke-linecap:round; stroke-linejoin:round;">
<path d="M70260 74090
L70710 74090
" />
<path d="M70390 74880
L70480 74090
" />
<path d="M70880 74880
L70940 74360
" />
<path d="M70970 74090
L70930 74130
L70960 74170
L71010 74130
L70970 74090
L70960 74170
" />
<path d="M71210 74360
L71510 74360
" />
<path d="M71350 74090
L71270 74770
L71300 74840
L71370 74880
L71450 74880
" />
<path d="M71820 74880
L71750 74840
L71720 74770
L71800 74090
" />
<path d="M72420 74840
L72340 74880
L72190 74880
L72120 74840
L72090 74770
L72130 74470
L72180 74390
L72250 74360
L72400 74360
L72480 74390
L72510 74470
L72500 74540
L72110 74620
" />
<path d="M72800 74810
L72840 74840
L72800 74880
L72760 74840
L72800 74810
L72800 74880
" />
<path d="M72860 74390
L72890 74430
L72850 74470
L72810 74430
L72860 74390
L72850 74470
" />
</g>
<g style="fill:#840000; fill-opacity:0.0; 
stroke:#840000; stroke-width:100; stroke-opacity:1; 
stroke-linecap:round; stroke-linejoin:round;">
</g>
<g style="fill:#840000; fill-opacity:0.0; 
stroke:#840000; stroke-width:60; stroke-opacity:1; 
stroke-linecap:round; stroke-linejoin:round;">
<path d="M70420 73060
L70220 73060
" />
<path d="M70220 73370
L70220 72780
L70500 72780
" />
<path d="M70730 73370
L70730 72980
" />
<path d="M70730 72780
L70700 72810
L70730 72840
L70760 72810
L70730 72780
L70730 72840
" />
<path d="M71090 73370
L71040 73340
L71010 73290
L71010 72780
" />
<path d="M71550 73340
L71490 73370
L71380 73370
L71320 73340
L71290 73290
L71290 73060
L71320 73010
L71380 72980
L71490 72980
L71550 73010
L71570 73060
L71570 73120
L71290 73180
" />
<path d="M71830 73320
L71860 73340
L71830 73370
L71800 73340
L71830 73320
L71830 73370
" />
<path d="M71830 73010
L71860 73030
L71830 73060
L71800 73030
L71830 73010
L71830 73060
" />
<path d="M72530 73340
L72620 73370
L72760 73370
L72810 73340
L72840 73320
L72870 73260
L72870 73200
L72840 73150
L72810 73120
L72760 73090
L72640 73060
L72590 73030
L72560 73010
L72530 72950
L72530 72890
L72560 72840
L72590 72810
L72640 72780
L72790 72780
L72870 72810
" />
<path d="M73120 72980
L73120 73570
" />
<path d="M73120 73010
L73180 72980
L73290 72980
L73350 73010
L73370 73030
L73400 73090
L73400 73260
L73370 73320
L73350 73340
L73290 73370
L73180 73370
L73120 73340
" />
<path d="M73880 73340
L73820 73370
L73710 73370
L73650 73340
L73620 73290
L73620 73060
L73650 73010
L73710 72980
L73820 72980
L73880 73010
L73900 73060
L73900 73120
L73620 73180
" />
<path d="M74100 73370
L74410 72980
" />
<path d="M74100 72980
L74410 73370
" />
<path d="M74640 73370
L74640 72780
L74870 72780
L74920 72810
L74950 72840
L74980 72890
L74980 72980
L74950 73030
L74920 73060
L74870 73090
L74640 73090
" />
<path d="M75310 73370
L75260 73340
L75230 73320
L75200 73260
L75200 73090
L75230 73030
L75260 73010
L75310 72980
L75400 72980
L75460 73010
L75480 73030
L75510 73090
L75510 73260
L75480 73320
L75460 73340
L75400 73370
L75310 73370
" />
<path d="M75700 72980
L75820 73370
L75930 73090
L76040 73370
L76150 72980
" />
<path d="M76610 73340
L76550 73370
L76440 73370
L76380 73340
L76350 73290
L76350 73060
L76380 73010
L76440 72980
L76550 72980
L76610 73010
L76630 73060
L76630 73120
L76350 73180
" />
<path d="M76890 73370
L76890 72980
" />
<path d="M76890 73090
L76920 73030
L76950 73010
L77000 72980
L77060 72980
" />
<path d="M77460 73060
L77540 73090
L77570 73120
L77600 73180
L77600 73260
L77570 73320
L77540 73340
L77490 73370
L77260 73370
L77260 72780
L77460 72780
L77510 72810
L77540 72840
L77570 72890
L77570 72950
L77540 73010
L77510 73030
L77460 73060
L77260 73060
" />
<path d="M77930 73370
L77880 73340
L77850 73320
L77820 73260
L77820 73090
L77850 73030
L77880 73010
L77930 72980
L78020 72980
L78080 73010
L78100 73030
L78130 73090
L78130 73260
L78100 73320
L78080 73340
L78020 73370
L77930 73370
" />
<path d="M78630 73370
L78630 73060
L78610 73010
L78550 72980
L78440 72980
L78380 73010
" />
<path d="M78630 73340
L78580 73370
L78440 73370
L78380 73340
L78350 73290
L78350 73230
L78380 73180
L78440 73150
L78580 73150
L78630 73120
" />
<path d="M78910 73370
L78910 72980
" />
<path d="M78910 73090
L78940 73030
L78970 73010
L79020 72980
L79080 72980
" />
<path d="M79530 73370
L79530 72780
" />
<path d="M79530 73340
L79480 73370
L79360 73370
L79310 73340
L79280 73320
L79250 73260
L79250 73090
L79280 73030
L79310 73010
L79360 72980
L79480 72980
L79530 73010
" />
<path d="M79810 73320
L79840 73340
L79810 73370
L79780 73340
L79810 73320
L79810 73370
" />
<path d="M80060 73340
L80120 73370
L80230 73370
L80290 73340
L80320 73290
L80320 73260
L80290 73200
L80230 73180
L80150 73180
L80090 73150
L80060 73090
L80060 73060
L80090 73010
L80150 72980
L80230 72980
L80290 73010
" />
<path d="M80820 73340
L80770 73370
L80650 73370
L80600 73340
L80570 73320
L80540 73260
L80540 73090
L80570 73030
L80600 73010
L80650 72980
L80770 72980
L80820 73010
" />
<path d="M81080 73370
L81080 72780
" />
<path d="M81330 73370
L81330 73060
L81310 73010
L81250 72980
L81160 72980
L81110 73010
L81080 73030
" />
</g>
<g style="fill:#840000; fill-opacity:0.0; 
stroke:#840000; stroke-width:100; stroke-opacity:1; 
stroke-linecap:round; stroke-linejoin:round;">
</g>
<g style="fill:#840000; fill-opacity:0.0; 
stroke:#840000; stroke-width:60; stroke-opacity:1; 
stroke-linecap:round; stroke-linejoin:round;">
<path d="M69690 71460
L112210 71460
" />
</g>
<g style="fill:#840000; fill-opacity:0.0; 
stroke:#840000; stroke-width:100; stroke-opacity:1; 
stroke-linecap:round; stroke-linejoin:round;">
</g>
<g style="fill:#840000; fill-opacity:0.0; 
stroke:#840000; stroke-width:60; stroke-opacity:1; 
stroke-linecap:round; stroke-linejoin:round;">
<path d="M70190 72280
L70280 72310
L70420 72310
L70470 72280
L70500 72260
L70530 72200
L70530 72140
L70500 72090
L70470 72060
L70420 72030
L70300 72000
L70250 71970
L70220 71950
L70190 71890
L70190 71830
L70220 71780
L70250 71750
L70300 71720
L70450 71720
L70530 71750
" />
<path d="M70780 72310
L70780 71720
" />
<path d="M71030 72310
L71030 72000
L71010 71950
L70950 71920
L70860 71920
L70810 71950
L70780 71970
" />
<path d="M71540 72280
L71480 72310
L71370 72310
L71310 72280
L71280 72230
L71280 72000
L71310 71950
L71370 71920
L71480 71920
L71540 71950
L71560 72000
L71560 72060
L71280 72120
" />
<path d="M72050 72280
L71990 72310
L71880 72310
L71820 72280
L71790 72230
L71790 72000
L71820 71950
L71880 71920
L71990 71920
L72050 71950
L72070 72000
L72070 72060
L71790 72120
" />
<path d="M72250 71920
L72470 71920
" />
<path d="M72330 71720
L72330 72230
L72360 72280
L72410 72310
L72470 72310
" />
<path d="M72670 72260
L72700 72280
L72670 72310
L72640 72280
L72670 72260
L72670 72310
" />
<path d="M72670 71950
L72700 71970
L72670 72000
L72640 71970
L72670 71950
L72670 72000
" />
<path d="M73820 71690
L73320 72450
" />
<path d="M74020 72310
L74020 71720
L74250 71720
L74300 71750
L74330 71780
L74360 71830
L74360 71920
L74330 71970
L74300 72000
L74250 72030
L74020 72030
" />
<path d="M74690 72310
L74640 72280
L74610 72260
L74580 72200
L74580 72030
L74610 71970
L74640 71950
L74690 71920
L74780 71920
L74840 71950
L74860 71970
L74890 72030
L74890 72200
L74860 72260
L74840 72280
L74780 72310
L74690 72310
" />
<path d="M75080 71920
L75200 72310
L75310 72030
L75420 72310
L75530 71920
" />
<path d="M75990 72280
L75930 72310
L75820 72310
L75760 72280
L75730 72230
L75730 72000
L75760 71950
L75820 71920
L75930 71920
L75990 71950
L76010 72000
L76010 72060
L75730 72120
" />
<path d="M76270 72310
L76270 71920
" />
<path d="M76270 72030
L76300 71970
L76330 71950
L76380 71920
L76440 71920
" />
<path d="M77090 72310
L77090 71720
L77230 71720
L77320 71750
L77370 71810
L77400 71860
L77430 71970
L77430 72060
L77400 72170
L77370 72230
L77320 72280
L77230 72310
L77090 72310
" />
<path d="M77680 72310
L77680 71920
" />
<path d="M77680 71720
L77650 71750
L77680 71780
L77710 71750
L77680 71720
L77680 71780
" />
<path d="M77930 72280
L77990 72310
L78100 72310
L78160 72280
L78190 72230
L78190 72200
L78160 72140
L78100 72120
L78020 72120
L77960 72090
L77930 72030
L77930 72000
L77960 71950
L78020 71920
L78100 71920
L78160 71950
" />
<path d="M78360 71920
L78580 71920
" />
<path d="M78440 71720
L78440 72230
L78470 72280
L78520 72310
L78580 72310
" />
<path d="M78780 72310
L78780 71920
" />
<path d="M78780 72030
L78810 71970
L78840 71950
L78890 71920
L78950 71920
" />
<path d="M79150 72310
L79150 71920
" />
<path d="M79150 71720
L79120 71750
L79150 71780
L79180 71750
L79150 71720
L79150 71780
" />
<path d="M79430 72310
L79430 71720
" />
<path d="M79430 71950
L79490 71920
L79600 71920
L79660 71950
L79680 71970
L79710 72030
L79710 72200
L79680 72260
L79660 72280
L79600 72310
L79490 72310
L79430 72280
" />
<path d="M80210 71920
L80210 72310
" />
<path d="M79960 71920
L79960 72230
L79990 72280
L80040 72310
L80130 72310
L80190 72280
L80210 72260
" />
<path d="M80410 71920
L80630 71920
" />
<path d="M80490 71720
L80490 72230
L80520 72280
L80570 72310
L80630 72310
" />
<path d="M80830 72310
L80830 71920
" />
<path d="M80830 71720
L80800 71750
L80830 71780
L80860 71750
L80830 71720
L80830 71780
" />
<path d="M81190 72310
L81140 72280
L81110 72260
L81080 72200
L81080 72030
L81110 71970
L81140 71950
L81190 71920
L81280 71920
L81340 71950
L81360 71970
L81390 72030
L81390 72200
L81360 72260
L81340 72280
L81280 72310
L81190 72310
" />
<path d="M81640 71920
L81640 72310
" />
<path d="M81640 71970
L81670 71950
L81720 71920
L81810 71920
L81870 71950
L81890 72000
L81890 72310
" />
<path d="M82590 71690
L82090 72450
" />
</g>
<g style="fill:#840000; fill-opacity:0.0; 
stroke:#840000; stroke-width:100; stroke-opacity:1; 
stroke-linecap:round; stroke-linejoin:round;">
</g>
<g style="fill:#840000; fill-opacity:0.0; 
stroke:#840000; stroke-width:60; stroke-opacity:1; 
stroke-linecap:round; stroke-linejoin:round;">
<path d="M77560 75400
L77560 76580
" />
</g>
<g style="fill:#840000; fill-opacity:0.0; 
stroke:#840000; stroke-width:100; stroke-opacity:1; 
stroke-linecap:round; stroke-linejoin:round;">
</g>
<g style="fill:#840000; fill-opacity:0.0; 
stroke:#840000; stroke-width:60; stroke-opacity:1; 
stroke-linecap:round; stroke-linejoin:round;">
<path d="M102760 75400
L102760 77960
" />
</g>
<g style="fill:#848400; fill-opacity:0.0; 
stroke:#848400; stroke-width:60; stroke-opacity:1; 
stroke-linecap:round; stroke-linejoin:round;">
<path d="M21160 23170
L21360 23770
L21560 23170
" />
<path d="M21950 23460
L22040 23490
L22070 23510
L22100 23570
L22100 23660
L22070 23710
L22040 23740
L21980 23770
L21750 23770
L21750 23170
L21950 23170
L22010 23200
L22040 23230
L22070 23290
L22070 23340
L22040 23400
L22010 23430
L21950 23460
L21750 23460
" />
<path d="M22610 23370
L22610 23770
" />
<path d="M22350 23370
L22350 23690
L22380 23740
L22440 23770
L22520 23770
L22580 23740
L22610 23710
" />
<path d="M22860 23740
L22920 23770
L23040 23770
L23090 23740
L23120 23690
L23120 23660
L23090 23600
L23040 23570
L22950 23570
L22890 23540
L22860 23490
L22860 23460
L22890 23400
L22950 23370
L23040 23370
L23090 23400
" />
</g>
<g style="fill:#848400; fill-opacity:0.0; 
stroke:#848400; stroke-width:100; stroke-opacity:1; 
stroke-linecap:round; stroke-linejoin:round;">
<polyline fill="none;"
points="24000,23500
23700,23200
23400,23200
23400,23800
23700,23800
24000,23500
" /> 
</g>
<g style="fill:#848400; fill-opacity:0.0; 
stroke:#848400; stroke-width:60; stroke-opacity:1; 
stroke-linecap:round; stroke-linejoin:round;">
<path d="M21310 24170
L21510 24770
L21710 24170
" />
<path d="M22100 24460
L22190 24490
L22220 24510
L22250 24570
L22250 24660
L22220 24710
L22190 24740
L22130 24770
L21900 24770
L21900 24170
L22100 24170
L22160 24200
L22190 24230
L22220 24290
L22220 24340
L22190 24400
L22160 24430
L22100 24460
L21900 24460
" />
<path d="M22760 24770
L22760 24460
L22730 24400
L22670 24370
L22560 24370
L22500 24400
" />
<path d="M22760 24740
L22700 24770
L22560 24770
L22500 24740
L22470 24690
L22470 24630
L22500 24570
L22560 24540
L22700 24540
L22760 24510
" />
<path d="M22960 24370
L23190 24370
" />
<path d="M23040 24170
L23040 24690
L23070 24740
L23130 24770
L23190 24770
" />
</g>
<g style="fill:#848400; fill-opacity:0.0; 
stroke:#848400; stroke-width:100; stroke-opacity:1; 
stroke-linecap:round; stroke-linejoin:round;">
<polyline fill="none;"
points="24000,24500
23700,24200
23400,24200
23400,24800
23700,24800
24000,24500
" /> 
</g>
<g style="fill:#848400; fill-opacity:0.0; 
stroke:#848400; stroke-width:60; stroke-opacity:1; 
stroke-linecap:round; stroke-linejoin:round;">
<path d="M20220 25460
L20310 25490
L20340 25510
L20370 25570
L20370 25660
L20340 25710
L20310 25740
L20250 25770
L20020 25770
L20020 25170
L20220 25170
L20280 25200
L20310 25230
L20340 25290
L20340 25340
L20310 25400
L20280 25430
L20220 25460
L20020 25460
" />
<path d="M20880 25770
L20880 25460
L20850 25400
L20790 25370
L20680 25370
L20620 25400
" />
<path d="M20880 25740
L20820 25770
L20680 25770
L20620 25740
L20590 25690
L20590 25630
L20620 25570
L20680 25540
L20820 25540
L20880 25510
" />
<path d="M21080 25370
L21310 25370
" />
<path d="M21160 25170
L21160 25690
L21190 25740
L21250 25770
L21310 25770
" />
<path d="M21820 25770
L21470 25770
" />
<path d="M21650 25770
L21650 25170
L21590 25260
L21530 25310
L21470 25340
" />
<path d="M22070 25540
L22530 25540
" />
<path d="M22780 25230
L22810 25200
L22870 25170
L23010 25170
L23070 25200
L23100 25230
L23130 25290
L23130 25340
L23100 25430
L22760 25770
L23130 25770
" />
</g>
<g style="fill:#848400; fill-opacity:0.0; 
stroke:#848400; stroke-width:100; stroke-opacity:1; 
stroke-linecap:round; stroke-linejoin:round;">
<polyline fill="none;"
points="24000,25500
23700,25200
23400,25200
23400,25800
23700,25800
24000,25500
" /> 
</g>
<g style="fill:#848400; fill-opacity:0.0; 
stroke:#848400; stroke-width:60; stroke-opacity:1; 
stroke-linecap:round; stroke-linejoin:round;">
<path d="M20220 26460
L20310 26490
L20340 26510
L20370 26570
L20370 26660
L20340 26710
L20310 26740
L20250 26770
L20020 26770
L20020 26170
L20220 26170
L20280 26200
L20310 26230
L20340 26290
L20340 26340
L20310 26400
L20280 26430
L20220 26460
L20020 26460
" />
<path d="M20880 26770
L20880 26460
L20850 26400
L20790 26370
L20680 26370
L20620 26400
" />
<path d="M20880 26740
L20820 26770
L20680 26770
L20620 26740
L20590 26690
L20590 26630
L20620 26570
L20680 26540
L20820 26540
L20880 26510
" />
<path d="M21080 26370
L21310 26370
" />
<path d="M21160 26170
L21160 26690
L21190 26740
L21250 26770
L21310 26770
" />
<path d="M21470 26230
L21500 26200
L21560 26170
L21700 26170
L21760 26200
L21790 26230
L21820 26290
L21820 26340
L21790 26430
L21450 26770
L21820 26770
" />
<path d="M22070 26540
L22530 26540
" />
<path d="M22760 26170
L23130 26170
L22930 26400
L23010 26400
L23070 26430
L23100 26460
L23130 26510
L23130 26660
L23100 26710
L23070 26740
L23010 26770
L22840 26770
L22780 26740
L22760 26710
" />
</g>
<g style="fill:#848400; fill-opacity:0.0; 
stroke:#848400; stroke-width:100; stroke-opacity:1; 
stroke-linecap:round; stroke-linejoin:round;">
<polyline fill="none;"
points="24000,26500
23700,26200
23400,26200
23400,26800
23700,26800
24000,26500
" /> 
</g>
<g style="fill:#848400; fill-opacity:0.0; 
stroke:#848400; stroke-width:60; stroke-opacity:1; 
stroke-linecap:round; stroke-linejoin:round;">
<path d="M20420 27460
L20510 27490
L20540 27510
L20570 27570
L20570 27660
L20540 27710
L20510 27740
L20450 27770
L20220 27770
L20220 27170
L20420 27170
L20480 27200
L20510 27230
L20540 27290
L20540 27340
L20510 27400
L20480 27430
L20420 27460
L20220 27460
" />
<path d="M21080 27770
L21080 27460
L21050 27400
L20990 27370
L20880 27370
L20820 27400
" />
<path d="M21080 27740
L21020 27770
L20880 27770
L20820 27740
L20790 27690
L20790 27630
L20820 27570
L20880 27540
L21020 27540
L21080 27510
" />
<path d="M21280 27370
L21510 27370
" />
<path d="M21360 27170
L21360 27690
L21390 27740
L21450 27770
L21510 27770
" />
<path d="M22020 27200
L21960 27170
L21870 27170
L21790 27200
L21730 27260
L21700 27310
L21670 27430
L21670 27510
L21700 27630
L21730 27690
L21790 27740
L21870 27770
L21930 27770
L22020 27740
L22050 27710
L22050 27510
L21930 27510
" />
<path d="M22300 27370
L22300 27770
" />
<path d="M22300 27430
L22330 27400
L22390 27370
L22470 27370
L22530 27400
L22560 27460
L22560 27770
" />
<path d="M23100 27770
L23100 27170
" />
<path d="M23100 27740
L23040 27770
L22930 27770
L22870 27740
L22840 27710
L22810 27660
L22810 27490
L22840 27430
L22870 27400
L22930 27370
L23040 27370
L23100 27400
" />
</g>
<g style="fill:#848400; fill-opacity:0.0; 
stroke:#848400; stroke-width:100; stroke-opacity:1; 
stroke-linecap:round; stroke-linejoin:round;">
<polyline fill="none;"
points="24000,27500
23700,27200
23400,27200
23400,27800
23700,27800
24000,27500
" /> 
</g>
<g style="fill:#848400; fill-opacity:0.0; 
stroke:#848400; stroke-width:60; stroke-opacity:1; 
stroke-linecap:round; stroke-linejoin:round;">
<path d="M19930 29770
L19930 29170
L20160 29170
L20220 29200
L20250 29230
L20280 29290
L20280 29370
L20250 29430
L20220 29460
L20160 29490
L19930 29490
" />
<path d="M20620 29770
L20560 29740
L20530 29710
L20500 29660
L20500 29490
L20530 29430
L20560 29400
L20620 29370
L20700 29370
L20760 29400
L20790 29430
L20820 29490
L20820 29660
L20790 29710
L20760 29740
L20700 29770
L20620 29770
" />
<path d="M21020 29370
L21130 29770
L21240 29490
L21360 29770
L21470 29370
" />
<path d="M21670 29740
L21760 29770
L21900 29770
L21960 29740
L21990 29710
L22020 29660
L22020 29600
L21990 29540
L21960 29510
L21900 29490
L21790 29460
L21730 29430
L21700 29400
L21670 29340
L21670 29290
L21700 29230
L21730 29200
L21790 29170
L21930 29170
L22020 29200
" />
<path d="M22270 29770
L22270 29170
L22420 29170
L22500 29200
L22560 29260
L22590 29310
L22620 29430
L22620 29510
L22590 29630
L22560 29690
L22500 29740
L22420 29770
L22270 29770
" />
<path d="M22840 29600
L23130 29600
" />
<path d="M22790 29770
L22990 29170
L23190 29770
" />
</g>
<g style="fill:#848400; fill-opacity:0.0; 
stroke:#848400; stroke-width:100; stroke-opacity:1; 
stroke-linecap:round; stroke-linejoin:round;">
<polyline fill="none;"
points="24000,29500
23700,29200
23400,29200
23400,29800
23700,29800
24000,29500
" /> 
</g>
<g style="fill:#848400; fill-opacity:0.0; 
stroke:#848400; stroke-width:60; stroke-opacity:1; 
stroke-linecap:round; stroke-linejoin:round;">
<path d="M19950 30770
L19950 30170
L20180 30170
L20240 30200
L20270 30230
L20300 30290
L20300 30370
L20270 30430
L20240 30460
L20180 30490
L19950 30490
" />
<path d="M20640 30770
L20580 30740
L20550 30710
L20520 30660
L20520 30490
L20550 30430
L20580 30400
L20640 30370
L20720 30370
L20780 30400
L20810 30430
L20840 30490
L20840 30660
L20810 30710
L20780 30740
L20720 30770
L20640 30770
" />
<path d="M21040 30370
L21150 30770
L21260 30490
L21380 30770
L21490 30370
" />
<path d="M21690 30740
L21780 30770
L21920 30770
L21980 30740
L22010 30710
L22040 30660
L22040 30600
L22010 30540
L21980 30510
L21920 30490
L21810 30460
L21750 30430
L21720 30400
L21690 30340
L21690 30290
L21720 30230
L21750 30200
L21810 30170
L21950 30170
L22040 30200
" />
<path d="M22640 30710
L22610 30740
L22520 30770
L22460 30770
L22380 30740
L22320 30690
L22290 30630
L22260 30510
L22260 30430
L22290 30310
L22320 30260
L22380 30200
L22460 30170
L22520 30170
L22610 30200
L22640 30230
" />
<path d="M23180 30770
L22890 30770
L22890 30170
" />
</g>
<g style="fill:#848400; fill-opacity:0.0; 
stroke:#848400; stroke-width:100; stroke-opacity:1; 
stroke-linecap:round; stroke-linejoin:round;">
<polyline fill="none;"
points="24000,30500
23700,30200
23400,30200
23400,30800
23700,30800
24000,30500
" /> 
</g>
<g style="fill:#848400; fill-opacity:0.0; 
stroke:#848400; stroke-width:60; stroke-opacity:1; 
stroke-linecap:round; stroke-linejoin:round;">
<path d="M20090 31770
L20090 31170
L20320 31170
L20380 31200
L20410 31230
L20440 31290
L20440 31370
L20410 31430
L20380 31460
L20320 31490
L20090 31490
" />
<path d="M20780 31770
L20720 31740
L20690 31710
L20660 31660
L20660 31490
L20690 31430
L20720 31400
L20780 31370
L20860 31370
L20920 31400
L20950 31430
L20980 31490
L20980 31660
L20950 31710
L20920 31740
L20860 31770
L20780 31770
" />
<path d="M21180 31370
L21290 31770
L21400 31490
L21520 31770
L21630 31370
" />
<path d="M21860 31770
L21860 31170
" />
<path d="M22500 31770
L22300 31490
" />
<path d="M22150 31770
L22150 31170
L22380 31170
L22440 31200
L22470 31230
L22500 31290
L22500 31370
L22470 31430
L22440 31460
L22380 31490
L22150 31490
" />
<path d="M23150 31830
L23100 31800
L23040 31740
L22950 31660
L22900 31630
L22840 31630
" />
<path d="M22870 31770
L22810 31740
L22750 31690
L22720 31570
L22720 31370
L22750 31260
L22810 31200
L22870 31170
L22980 31170
L23040 31200
L23100 31260
L23120 31370
L23120 31570
L23100 31690
L23040 31740
L22980 31770
L22870 31770
" />
</g>
<g style="fill:#848400; fill-opacity:0.0; 
stroke:#848400; stroke-width:100; stroke-opacity:1; 
stroke-linecap:round; stroke-linejoin:round;">
<polyline fill="none;"
points="24000,31500
23700,31200
23400,31200
23400,31800
23700,31800
24000,31500
" /> 
</g>
<g style="fill:#848400; fill-opacity:0.0; 
stroke:#848400; stroke-width:60; stroke-opacity:1; 
stroke-linecap:round; stroke-linejoin:round;">
<path d="M20220 33170
L20590 33170
L20390 33400
L20470 33400
L20530 33430
L20560 33460
L20590 33510
L20590 33660
L20560 33710
L20530 33740
L20470 33770
L20300 33770
L20240 33740
L20220 33710
" />
<path d="M20790 33370
L20930 33770
L21070 33370
" />
<path d="M21250 33170
L21620 33170
L21420 33400
L21500 33400
L21560 33430
L21590 33460
L21620 33510
L21620 33660
L21590 33710
L21560 33740
L21500 33770
L21330 33770
L21270 33740
L21250 33710
" />
<path d="M21990 33170
L22100 33170
L22160 33200
L22220 33260
L22240 33370
L22240 33570
L22220 33690
L22160 33740
L22100 33770
L21990 33770
L21930 33740
L21870 33690
L21840 33570
L21840 33370
L21870 33260
L21930 33200
L21990 33170
" />
<path d="M22760 33370
L22760 33770
" />
<path d="M22500 33370
L22500 33690
L22530 33740
L22590 33770
L22670 33770
L22730 33740
L22760 33710
" />
<path d="M22960 33370
L23190 33370
" />
<path d="M23040 33170
L23040 33690
L23070 33740
L23130 33770
L23190 33770
" />
</g>
<g style="fill:#848400; fill-opacity:0.0; 
stroke:#848400; stroke-width:100; stroke-opacity:1; 
stroke-linecap:round; stroke-linejoin:round;">
<polyline fill="none;"
points="24000,33500
23700,33200
23400,33200
23400,33800
23700,33800
24000,33500
" /> 
</g>
<g style="fill:#848400; fill-opacity:0.0; 
stroke:#848400; stroke-width:60; stroke-opacity:1; 
stroke-linecap:round; stroke-linejoin:round;">
<path d="M20050 34170
L20420 34170
L20220 34400
L20300 34400
L20360 34430
L20390 34460
L20420 34510
L20420 34660
L20390 34710
L20360 34740
L20300 34770
L20130 34770
L20070 34740
L20050 34710
" />
<path d="M20620 34370
L20760 34770
L20900 34370
" />
<path d="M21080 34170
L21450 34170
L21250 34400
L21330 34400
L21390 34430
L21420 34460
L21450 34510
L21450 34660
L21420 34710
L21390 34740
L21330 34770
L21160 34770
L21100 34740
L21080 34710
" />
<path d="M22020 34200
L21960 34170
L21870 34170
L21790 34200
L21730 34260
L21700 34310
L21670 34430
L21670 34510
L21700 34630
L21730 34690
L21790 34740
L21870 34770
L21930 34770
L22020 34740
L22050 34710
L22050 34510
L21930 34510
" />
<path d="M22300 34370
L22300 34770
" />
<path d="M22300 34430
L22330 34400
L22390 34370
L22470 34370
L22530 34400
L22560 34460
L22560 34770
" />
<path d="M23100 34770
L23100 34170
" />
<path d="M23100 34740
L23040 34770
L22930 34770
L22870 34740
L22840 34710
L22810 34660
L22810 34490
L22840 34430
L22870 34400
L22930 34370
L23040 34370
L23100 34400
" />
</g>
<g style="fill:#848400; fill-opacity:0.0; 
stroke:#848400; stroke-width:100; stroke-opacity:1; 
stroke-linecap:round; stroke-linejoin:round;">
<polyline fill="none;"
points="24000,34500
23700,34200
23400,34200
23400,34800
23700,34800
24000,34500
" /> 
</g>
<g style="fill:#848400; fill-opacity:0.0; 
stroke:#848400; stroke-width:60; stroke-opacity:1; 
stroke-linecap:round; stroke-linejoin:round;">
</g>
<g style="fill:#840084; fill-opacity:0.0; 
stroke:#840084; stroke-width:60; stroke-opacity:1; 
stroke-linecap:round; stroke-linejoin:round;">
<path d="M56000 23500
L64000 23500
L64000 31500
L56000 31500
L56000 23500
" />
</g>
<g style="fill:#008484; fill-opacity:0.0; 
stroke:#008484; stroke-width:60; stroke-opacity:1; 
stroke-linecap:round; stroke-linejoin:round;">
<path d="M56460 23430
L56110 23430
" />
<path d="M56290 23430
L56290 22830
L56230 22920
L56170 22970
L56110 23000
" />
<path d="M56680 22890
L56710 22860
L56770 22830
L56910 22830
L56970 22860
L57000 22890
L57030 22950
L57030 23000
L57000 23090
L56660 23430
L57030 23430
" />
<path d="M57200 22830
L57400 23430
L57600 22830
" />
<path d="M57710 23030
L57940 23030
" />
<path d="M57790 22830
L57790 23350
L57820 23400
L57880 23430
L57940 23430
" />
<path d="M58220 23430
L58160 23400
L58130 23370
L58100 23320
L58100 23150
L58130 23090
L58160 23060
L58220 23030
L58300 23030
L58360 23060
L58390 23090
L58420 23150
L58420 23320
L58390 23370
L58360 23400
L58300 23430
L58220 23430
" />
<path d="M58620 22830
L58990 22830
L58790 23060
L58870 23060
L58930 23090
L58960 23120
L58990 23170
L58990 23320
L58960 23370
L58930 23400
L58870 23430
L58700 23430
L58640 23400
L58620 23370
" />
<path d="M59190 23030
L59330 23430
L59470 23030
" />
<path d="M59650 22830
L60020 22830
L59820 23060
L59900 23060
L59960 23090
L59990 23120
L60020 23170
L60020 23320
L59990 23370
L59960 23400
L59900 23430
L59730 23430
L59670 23400
L59650 23370
" />
<path d="M60270 23370
L60300 23400
L60270 23430
L60240 23400
L60270 23370
L60270 23430
" />
<path d="M60530 23400
L60590 23430
L60710 23430
L60760 23400
L60790 23350
L60790 23320
L60760 23260
L60710 23230
L60620 23230
L60560 23200
L60530 23150
L60530 23120
L60560 23060
L60620 23030
L60710 23030
L60760 23060
" />
<path d="M61310 23400
L61250 23430
L61140 23430
L61080 23400
L61050 23370
L61020 23320
L61020 23150
L61050 23090
L61080 23060
L61140 23030
L61250 23030
L61310 23060
" />
<path d="M61560 23430
L61560 22830
" />
<path d="M61820 23430
L61820 23120
L61790 23060
L61730 23030
L61650 23030
L61590 23060
L61560 23090
" />
</g>
<g style="fill:#848400; fill-opacity:0.0; 
stroke:#848400; stroke-width:60; stroke-opacity:1; 
stroke-linecap:round; stroke-linejoin:round;">
<path d="M56140 31710
L56140 32310
" />
<path d="M56140 31740
L56200 31710
L56310 31710
L56370 31740
L56400 31770
L56430 31830
L56430 32000
L56400 32050
L56370 32080
L56310 32110
L56200 32110
L56140 32080
" />
<path d="M56770 32110
L56710 32080
L56680 32050
L56650 32000
L56650 31830
L56680 31770
L56710 31740
L56770 31710
L56850 31710
L56910 31740
L56940 31770
L56970 31830
L56970 32000
L56940 32050
L56910 32080
L56850 32110
L56770 32110
" />
<path d="M57170 31710
L57280 32110
L57390 31830
L57510 32110
L57620 31710
" />
<path d="M58080 32080
L58020 32110
L57910 32110
L57850 32080
L57820 32030
L57820 31800
L57850 31740
L57910 31710
L58020 31710
L58080 31740
L58110 31800
L58110 31850
L57820 31910
" />
<path d="M58360 32110
L58360 31710
" />
<path d="M58360 31830
L58390 31770
L58420 31740
L58480 31710
L58530 31710
" />
<path d="M59160 31480
L58650 32250
" />
<path d="M59680 32110
L59330 32110
" />
<path d="M59510 32110
L59510 31510
L59450 31600
L59390 31650
L59330 31680
" />
<path d="M59900 31570
L59930 31540
L59990 31510
L60130 31510
L60190 31540
L60220 31570
L60250 31630
L60250 31680
L60220 31770
L59880 32110
L60250 32110
" />
<path d="M60420 31510
L60620 32110
L60820 31510
" />
<path d="M60930 31710
L61160 31710
" />
<path d="M61010 31510
L61010 32030
L61040 32080
L61100 32110
L61160 32110
" />
<path d="M61440 32110
L61380 32080
L61350 32050
L61320 32000
L61320 31830
L61350 31770
L61380 31740
L61440 31710
L61520 31710
L61580 31740
L61610 31770
L61640 31830
L61640 32000
L61610 32050
L61580 32080
L61520 32110
L61440 32110
" />
<path d="M61840 31510
L62210 31510
L62010 31740
L62090 31740
L62150 31770
L62180 31800
L62210 31850
L62210 32000
L62180 32050
L62150 32080
L62090 32110
L61920 32110
L61860 32080
L61840 32050
" />
<path d="M62410 31710
L62550 32110
L62690 31710
" />
<path d="M62870 31510
L63240 31510
L63040 31740
L63120 31740
L63180 31770
L63210 31800
L63240 31850
L63240 32000
L63210 32050
L63180 32080
L63120 32110
L62950 32110
L62890 32080
L62870 32050
" />
<path d="M63490 32050
L63520 32080
L63490 32110
L63460 32080
L63490 32050
L63490 32110
" />
<path d="M63750 32080
L63810 32110
L63930 32110
L63980 32080
L64010 32030
L64010 32000
L63980 31940
L63930 31910
L63840 31910
L63780 31880
L63750 31830
L63750 31800
L63780 31740
L63840 31710
L63930 31710
L63980 31740
" />
<path d="M64530 32080
L64470 32110
L64360 32110
L64300 32080
L64270 32050
L64240 32000
L64240 31830
L64270 31770
L64300 31740
L64360 31710
L64470 31710
L64530 31740
" />
<path d="M64780 32110
L64780 31510
" />
<path d="M65040 32110
L65040 31800
L65010 31740
L64950 31710
L64870 31710
L64810 31740
L64780 31770
" />
</g>
<g style="fill:#840084; fill-opacity:0.0; 
stroke:#840084; stroke-width:60; stroke-opacity:1; 
stroke-linecap:round; stroke-linejoin:round;">
</g>
<g style="fill:#848400; fill-opacity:0.0; 
stroke:#848400; stroke-width:60; stroke-opacity:1; 
stroke-linecap:round; stroke-linejoin:round;">
<path d="M56820 24670
L57020 25270
L57220 24670
" />
<path d="M57410 25270
L57410 24870
" />
<path d="M57410 24670
L57380 24700
L57410 24730
L57440 24700
L57410 24670
L57410 24730
" />
<path d="M57700 24870
L57700 25270
" />
<path d="M57700 24930
L57730 24900
L57790 24870
L57870 24870
L57930 24900
L57960 24960
L57960 25270
" />
</g>
<g style="fill:#848400; fill-opacity:0.0; 
stroke:#848400; stroke-width:100; stroke-opacity:1; 
stroke-linecap:round; stroke-linejoin:round;">
<polyline fill="none;"
points="56600,25000
56300,24700
56000,24700
56000,25300
56300,25300
56600,25000
" /> 
</g>
<g style="fill:#848400; fill-opacity:0.0; 
stroke:#848400; stroke-width:60; stroke-opacity:1; 
stroke-linecap:round; stroke-linejoin:round;">
<path d="M57220 25700
L57160 25670
L57070 25670
L56990 25700
L56930 25760
L56900 25810
L56870 25930
L56870 26010
L56900 26130
L56930 26190
L56990 26240
L57070 26270
L57130 26270
L57220 26240
L57250 26210
L57250 26010
L57130 26010
" />
<path d="M57500 25870
L57500 26270
" />
<path d="M57500 25930
L57530 25900
L57590 25870
L57670 25870
L57730 25900
L57760 25960
L57760 26270
" />
<path d="M58300 26270
L58300 25670
" />
<path d="M58300 26240
L58240 26270
L58130 26270
L58070 26240
L58040 26210
L58010 26160
L58010 25990
L58040 25930
L58070 25900
L58130 25870
L58240 25870
L58300 25900
" />
</g>
<g style="fill:#848400; fill-opacity:0.0; 
stroke:#848400; stroke-width:100; stroke-opacity:1; 
stroke-linecap:round; stroke-linejoin:round;">
<polyline fill="none;"
points="56600,26000
56300,25700
56000,25700
56000,26300
56300,26300
56600,26000
" /> 
</g>
<g style="fill:#848400; fill-opacity:0.0; 
stroke:#848400; stroke-width:60; stroke-opacity:1; 
stroke-linecap:round; stroke-linejoin:round;">
<path d="M56900 26960
L57100 26960
" />
<path d="M57190 27270
L56900 27270
L56900 26670
L57190 26670
" />
<path d="M57440 26870
L57440 27270
" />
<path d="M57440 26930
L57470 26900
L57530 26870
L57610 26870
L57670 26900
L57700 26960
L57700 27270
" />
</g>
<g style="fill:#848400; fill-opacity:0.0; 
stroke:#848400; stroke-width:100; stroke-opacity:1; 
stroke-linecap:round; stroke-linejoin:round;">
<polyline fill="none;"
points="56600,27000
56300,26700
56000,26700
56000,27300
56300,27300
56600,27000
" /> 
</g>
<g style="fill:#848400; fill-opacity:0.0; 
stroke:#848400; stroke-width:60; stroke-opacity:1; 
stroke-linecap:round; stroke-linejoin:round;">
<path d="M61370 24670
L61570 25270
L61770 24670
" />
<path d="M62050 25270
L61990 25240
L61960 25210
L61930 25160
L61930 24990
L61960 24930
L61990 24900
L62050 24870
L62130 24870
L62190 24900
L62220 24930
L62250 24990
L62250 25160
L62220 25210
L62190 25240
L62130 25270
L62050 25270
" />
<path d="M62760 24870
L62760 25270
" />
<path d="M62500 24870
L62500 25190
L62530 25240
L62590 25270
L62670 25270
L62730 25240
L62760 25210
" />
<path d="M62960 24870
L63190 24870
" />
<path d="M63040 24670
L63040 25190
L63070 25240
L63130 25270
L63190 25270
" />
</g>
<g style="fill:#848400; fill-opacity:0.0; 
stroke:#848400; stroke-width:100; stroke-opacity:1; 
stroke-linecap:round; stroke-linejoin:round;">
<polyline fill="none;"
points="63400,25000
63700,25300
64000,25300
64000,24700
63700,24700
63400,25000
" /> 
</g>
<g style="fill:#848400; fill-opacity:0.0; 
stroke:#848400; stroke-width:60; stroke-opacity:1; 
stroke-linecap:round; stroke-linejoin:round;">
</g>
<g style="fill:#840084; fill-opacity:0.0; 
stroke:#840084; stroke-width:60; stroke-opacity:1; 
stroke-linecap:round; stroke-linejoin:round;">
<path d="M35000 23500
L44500 23500
L44500 29500
L35000 29500
L35000 23500
" />
</g>
<g style="fill:#008484; fill-opacity:0.0; 
stroke:#008484; stroke-width:60; stroke-opacity:1; 
stroke-linecap:round; stroke-linejoin:round;">
<path d="M35140 23030
L35140 23630
" />
<path d="M35140 23060
L35200 23030
L35310 23030
L35370 23060
L35400 23090
L35430 23150
L35430 23320
L35400 23370
L35370 23400
L35310 23430
L35200 23430
L35140 23400
" />
<path d="M35680 23430
L35680 23030
" />
<path d="M35680 23150
L35710 23090
L35740 23060
L35800 23030
L35850 23030
" />
<path d="M36140 23430
L36080 23400
L36050 23370
L36020 23320
L36020 23150
L36050 23090
L36080 23060
L36140 23030
L36220 23030
L36280 23060
L36310 23090
L36340 23150
L36340 23320
L36310 23370
L36280 23400
L36220 23430
L36140 23430
" />
<path d="M36510 23030
L36740 23030
" />
<path d="M36590 22830
L36590 23350
L36620 23400
L36680 23430
L36740 23430
" />
<path d="M37160 23400
L37100 23430
L36990 23430
L36930 23400
L36900 23350
L36900 23120
L36930 23060
L36990 23030
L37100 23030
L37160 23060
L37190 23120
L37190 23170
L36900 23230
" />
<path d="M37700 23400
L37640 23430
L37530 23430
L37470 23400
L37440 23370
L37410 23320
L37410 23150
L37440 23090
L37470 23060
L37530 23030
L37640 23030
L37700 23060
" />
<path d="M37870 23030
L38100 23030
" />
<path d="M37950 22830
L37950 23350
L37980 23400
L38040 23430
L38100 23430
" />
<path d="M38290 23430
L38290 23030
" />
<path d="M38290 22830
L38260 22860
L38290 22890
L38320 22860
L38290 22830
L38290 22890
" />
<path d="M38670 23430
L38610 23400
L38580 23370
L38550 23320
L38550 23150
L38580 23090
L38610 23060
L38670 23030
L38750 23030
L38810 23060
L38840 23090
L38870 23150
L38870 23320
L38840 23370
L38810 23400
L38750 23430
L38670 23430
" />
<path d="M39120 23030
L39120 23430
" />
<path d="M39120 23090
L39150 23060
L39210 23030
L39290 23030
L39350 23060
L39380 23120
L39380 23430
" />
<path d="M39660 23370
L39690 23400
L39660 23430
L39630 23400
L39660 23370
L39660 23430
" />
<path d="M39920 23400
L39980 23430
L40100 23430
L40150 23400
L40180 23350
L40180 23320
L40150 23260
L40100 23230
L40010 23230
L39950 23200
L39920 23150
L39920 23120
L39950 23060
L40010 23030
L40100 23030
L40150 23060
" />
<path d="M40700 23400
L40640 23430
L40530 23430
L40470 23400
L40440 23370
L40410 23320
L40410 23150
L40440 23090
L40470 23060
L40530 23030
L40640 23030
L40700 23060
" />
<path d="M40950 23430
L40950 22830
" />
<path d="M41210 23430
L41210 23120
L41180 23060
L41120 23030
L41040 23030
L40980 23060
L40950 23090
" />
</g>
<g style="fill:#848400; fill-opacity:0.0; 
stroke:#848400; stroke-width:60; stroke-opacity:1; 
stroke-linecap:round; stroke-linejoin:round;">
<path d="M35140 29710
L35140 30310
" />
<path d="M35140 29740
L35200 29710
L35310 29710
L35370 29740
L35400 29770
L35430 29830
L35430 30000
L35400 30050
L35370 30080
L35310 30110
L35200 30110
L35140 30080
" />
<path d="M35770 30110
L35710 30080
L35680 30050
L35650 30000
L35650 29830
L35680 29770
L35710 29740
L35770 29710
L35850 29710
L35910 29740
L35940 29770
L35970 29830
L35970 30000
L35940 30050
L35910 30080
L35850 30110
L35770 30110
" />
<path d="M36170 29710
L36280 30110
L36390 29830
L36510 30110
L36620 29710
" />
<path d="M37080 30080
L37020 30110
L36910 30110
L36850 30080
L36820 30030
L36820 29800
L36850 29740
L36910 29710
L37020 29710
L37080 29740
L37110 29800
L37110 29850
L36820 29910
" />
<path d="M37360 30110
L37360 29710
" />
<path d="M37360 29830
L37390 29770
L37420 29740
L37480 29710
L37530 29710
" />
<path d="M38160 29480
L37650 30250
" />
<path d="M38360 29710
L38360 30310
" />
<path d="M38360 29740
L38420 29710
L38530 29710
L38590 29740
L38620 29770
L38650 29830
L38650 30000
L38620 30050
L38590 30080
L38530 30110
L38420 30110
L38360 30080
" />
<path d="M38900 30110
L38900 29710
" />
<path d="M38900 29830
L38930 29770
L38960 29740
L39020 29710
L39070 29710
" />
<path d="M39360 30110
L39300 30080
L39270 30050
L39240 30000
L39240 29830
L39270 29770
L39300 29740
L39360 29710
L39440 29710
L39500 29740
L39530 29770
L39560 29830
L39560 30000
L39530 30050
L39500 30080
L39440 30110
L39360 30110
" />
<path d="M40070 30080
L40010 30110
L39900 30110
L39840 30080
L39810 30050
L39780 30000
L39780 29830
L39810 29770
L39840 29740
L39900 29710
L40010 29710
L40070 29740
" />
<path d="M40550 30080
L40490 30110
L40380 30110
L40320 30080
L40290 30030
L40290 29800
L40320 29740
L40380 29710
L40490 29710
L40550 29740
L40580 29800
L40580 29850
L40290 29910
" />
<path d="M41090 30080
L41030 30110
L40920 30110
L40860 30080
L40830 30050
L40800 30000
L40800 29830
L40830 29770
L40860 29740
L40920 29710
L41030 29710
L41090 29740
" />
<path d="M41260 29710
L41490 29710
" />
<path d="M41340 29510
L41340 30030
L41370 30080
L41430 30110
L41490 30110
" />
<path d="M41680 30110
L41680 29710
" />
<path d="M41680 29510
L41650 29540
L41680 29570
L41710 29540
L41680 29510
L41680 29570
" />
<path d="M42060 30110
L42000 30080
L41970 30050
L41940 30000
L41940 29830
L41970 29770
L42000 29740
L42060 29710
L42140 29710
L42200 29740
L42230 29770
L42260 29830
L42260 30000
L42230 30050
L42200 30080
L42140 30110
L42060 30110
" />
<path d="M42510 29710
L42510 30110
" />
<path d="M42510 29770
L42540 29740
L42600 29710
L42680 29710
L42740 29740
L42770 29800
L42770 30110
" />
<path d="M43050 30050
L43080 30080
L43050 30110
L43020 30080
L43050 30050
L43050 30110
" />
<path d="M43310 30080
L43370 30110
L43490 30110
L43540 30080
L43570 30030
L43570 30000
L43540 29940
L43490 29910
L43400 29910
L43340 29880
L43310 29830
L43310 29800
L43340 29740
L43400 29710
L43490 29710
L43540 29740
" />
<path d="M44090 30080
L44030 30110
L43920 30110
L43860 30080
L43830 30050
L43800 30000
L43800 29830
L43830 29770
L43860 29740
L43920 29710
L44030 29710
L44090 29740
" />
<path d="M44340 30110
L44340 29510
" />
<path d="M44600 30110
L44600 29800
L44570 29740
L44510 29710
L44430 29710
L44370 29740
L44340 29770
" />
</g>
<g style="fill:#840084; fill-opacity:0.0; 
stroke:#840084; stroke-width:60; stroke-opacity:1; 
stroke-linecap:round; stroke-linejoin:round;">
</g>
<g style="fill:#848400; fill-opacity:0.0; 
stroke:#848400; stroke-width:60; stroke-opacity:1; 
stroke-linecap:round; stroke-linejoin:round;">
<path d="M36220 27700
L36160 27670
L36070 27670
L35990 27700
L35930 27760
L35900 27810
L35870 27930
L35870 28010
L35900 28130
L35930 28190
L35990 28240
L36070 28270
L36130 28270
L36220 28240
L36250 28210
L36250 28010
L36130 28010
" />
<path d="M36500 28270
L36500 27670
L36850 28270
L36850 27670
" />
<path d="M37130 28270
L37130 27670
L37280 27670
L37360 27700
L37420 27760
L37450 27810
L37480 27930
L37480 28010
L37450 28130
L37420 28190
L37360 28240
L37280 28270
L37130 28270
" />
</g>
<g style="fill:#848400; fill-opacity:0.0; 
stroke:#848400; stroke-width:100; stroke-opacity:1; 
stroke-linecap:round; stroke-linejoin:round;">
<polyline fill="none;"
points="35600,28000
35300,27700
35000,27700
35000,28300
35300,28300
35600,28000
" /> 
</g>
<g style="fill:#848400; fill-opacity:0.0; 
stroke:#848400; stroke-width:60; stroke-opacity:1; 
stroke-linecap:round; stroke-linejoin:round;">
<path d="M35820 24170
L36020 24770
L36220 24170
" />
<path d="M36410 24770
L36410 24370
" />
<path d="M36410 24170
L36380 24200
L36410 24230
L36440 24200
L36410 24170
L36410 24230
" />
<path d="M36700 24370
L36700 24770
" />
<path d="M36700 24430
L36730 24400
L36790 24370
L36870 24370
L36930 24400
L36960 24460
L36960 24770
" />
</g>
<g style="fill:#848400; fill-opacity:0.0; 
stroke:#848400; stroke-width:100; stroke-opacity:1; 
stroke-linecap:round; stroke-linejoin:round;">
<polyline fill="none;"
points="35600,24500
35300,24200
35000,24200
35000,24800
35300,24800
35600,24500
" /> 
</g>
<g style="fill:#848400; fill-opacity:0.0; 
stroke:#848400; stroke-width:60; stroke-opacity:1; 
stroke-linecap:round; stroke-linejoin:round;">
<path d="M41870 25170
L42070 25770
L42270 25170
" />
<path d="M42550 25770
L42490 25740
L42460 25710
L42430 25660
L42430 25490
L42460 25430
L42490 25400
L42550 25370
L42630 25370
L42690 25400
L42720 25430
L42750 25490
L42750 25660
L42720 25710
L42690 25740
L42630 25770
L42550 25770
" />
<path d="M43260 25370
L43260 25770
" />
<path d="M43000 25370
L43000 25690
L43030 25740
L43090 25770
L43170 25770
L43230 25740
L43260 25710
" />
<path d="M43460 25370
L43690 25370
" />
<path d="M43540 25170
L43540 25690
L43570 25740
L43630 25770
L43690 25770
" />
</g>
<g style="fill:#848400; fill-opacity:0.0; 
stroke:#848400; stroke-width:100; stroke-opacity:1; 
stroke-linecap:round; stroke-linejoin:round;">
<polyline fill="none;"
points="43900,25500
44200,25800
44500,25800
44500,25200
44200,25200
43900,25500
" /> 
</g>
<g style="fill:#848400; fill-opacity:0.0; 
stroke:#848400; stroke-width:60; stroke-opacity:1; 
stroke-linecap:round; stroke-linejoin:round;">
</g>
<g style="fill:#000000; fill-opacity:0.0; 
stroke:#000000; stroke-width:60; stroke-opacity:1; 
stroke-linecap:round; stroke-linejoin:round;">
<path d="M44560 24770
L44760 25370
L44960 24770
" />
<path d="M45350 25060
L45440 25090
L45470 25110
L45500 25170
L45500 25260
L45470 25310
L45440 25340
L45380 25370
L45150 25370
L45150 24770
L45350 24770
L45410 24800
L45440 24830
L45470 24890
L45470 24940
L45440 25000
L45410 25030
L45350 25060
L45150 25060
" />
<path d="M45750 24770
L45750 25260
L45780 25310
L45810 25340
L45870 25370
L45980 25370
L46040 25340
L46070 25310
L46100 25260
L46100 24770
" />
<path d="M46350 25340
L46440 25370
L46580 25370
L46640 25340
L46670 25310
L46700 25260
L46700 25200
L46670 25140
L46640 25110
L46580 25090
L46470 25060
L46410 25030
L46380 25000
L46350 24940
L46350 24890
L46380 24830
L46410 24800
L46470 24770
L46610 24770
L46700 24800
" />
<path d="M50560 24270
L50760 24870
L50960 24270
" />
<path d="M51350 24560
L51440 24590
L51470 24610
L51500 24670
L51500 24760
L51470 24810
L51440 24840
L51380 24870
L51150 24870
L51150 24270
L51350 24270
L51410 24300
L51440 24330
L51470 24390
L51470 24440
L51440 24500
L51410 24530
L51350 24560
L51150 24560
" />
<path d="M51750 24270
L51750 24760
L51780 24810
L51810 24840
L51870 24870
L51980 24870
L52040 24840
L52070 24810
L52100 24760
L52100 24270
" />
<path d="M52350 24840
L52440 24870
L52580 24870
L52640 24840
L52670 24810
L52700 24760
L52700 24700
L52670 24640
L52640 24610
L52580 24590
L52470 24560
L52410 24530
L52380 24500
L52350 24440
L52350 24390
L52380 24330
L52410 24300
L52470 24270
L52610 24270
L52700 24300
" />
</g>
<g style="fill:#000000; fill-opacity:0.0; 
stroke:#000000; stroke-width:0; stroke-opacity:1; 
stroke-linecap:round; stroke-linejoin:round;">
</g>
<g style="fill:#840000; fill-opacity:0.0; 
stroke:#840000; stroke-width:0; stroke-opacity:1; 
stroke-linecap:round; stroke-linejoin:round;">
</g>
<g style="fill:#840000; fill-opacity:0.0; 
stroke:#840000; stroke-width:60; stroke-opacity:1; 
stroke-linecap:round; stroke-linejoin:round;">
<polyline fill="none;"
points="54000,28500
54000,29000
54500,29000
54000,29500
53500,29000
54000,29000
" /> 
</g>
<g style="fill:#008484; fill-opacity:0.0; 
stroke:#008484; stroke-width:60; stroke-opacity:1; 
stroke-linecap:round; stroke-linejoin:round;">
<path d="M53700 29950
L53650 29930
L53580 29930
L53510 29950
L53460 30000
L53440 30050
L53420 30140
L53420 30210
L53440 30310
L53460 30350
L53510 30400
L53580 30430
L53630 30430
L53700 30400
L53720 30380
L53720 30210
L53630 30210
" />
<path d="M53940 30430
L53940 29930
L54220 30430
L54220 29930
" />
<path d="M54460 30430
L54460 29930
L54580 29930
L54650 29950
L54700 30000
L54720 30050
L54740 30140
L54740 30210
L54720 30310
L54700 30350
L54650 30400
L54580 30430
L54460 30430
" />
</g>
<g style="fill:#008400; fill-opacity:0.0; 
stroke:#008400; stroke-width:60; stroke-opacity:1; 
stroke-linecap:round; stroke-linejoin:round;">
<path d="M24000 23500
L28500 23500
" />
<path d="M24000 24500
L35000 24500
" />
<path d="M24000 25500
L24500 25500
" />
<path d="M24000 26500
L24500 26500
" />
<path d="M24000 27500
L30500 27500
" />
<path d="M24000 29500
L28500 29500
" />
<path d="M24000 30500
L28500 30500
" />
<path d="M24000 31500
L28500 31500
" />
<path d="M24000 33500
L28500 33500
" />
<path d="M24000 34500
L28500 34500
" />
<path d="M30500 28000
L35000 28000
" />
<path d="M30500 27500
L30500 28000
" />
<path d="M44500 25500
L47000 25500
" />
<path d="M56000 25000
L50500 25000
" />
<path d="M56000 27000
L50500 27000
" />
<path d="M50500 27000
L50500 25000
" />
<path d="M54000 26000
L56000 26000
" />
<path d="M54000 26000
L54000 28500
" />
<path d="M64000 25000
L67500 25000
" />
</g>
<g style="fill:#000000; fill-opacity:0.0; 
stroke:#000000; stroke-width:60; stroke-opacity:1; 
stroke-linecap:round; stroke-linejoin:round;">
<path d="M64590 24270
L64960 24270
L64760 24500
L64840 24500
L64900 24530
L64930 24560
L64960 24610
L64960 24760
L64930 24810
L64900 24840
L64840 24870
L64670 24870
L64610 24840
L64590 24810
" />
<path d="M65160 24470
L65300 24870
L65440 24470
" />
<path d="M65620 24270
L65990 24270
L65790 24500
L65870 24500
L65930 24530
L65960 24560
L65990 24610
L65990 24760
L65960 24810
L65930 24840
L65870 24870
L65700 24870
L65640 24840
L65620 24810
" />
<path d="M71060 25770
L71260 26370
L71460 25770
" />
<path d="M71850 26060
L71940 26090
L71970 26110
L72000 26170
L72000 26260
L71970 26310
L71940 26340
L71880 26370
L71650 26370
L71650 25770
L71850 25770
L71910 25800
L71940 25830
L71970 25890
L71970 25940
L71940 26000
L71910 26030
L71850 26060
L71650 26060
" />
<path d="M72250 25770
L72250 26260
L72280 26310
L72310 26340
L72370 26370
L72480 26370
L72540 26340
L72570 26310
L72600 26260
L72600 25770
" />
<path d="M72850 26340
L72940 26370
L73080 26370
L73140 26340
L73170 26310
L73200 26260
L73200 26200
L73170 26140
L73140 26110
L73080 26090
L72970 26060
L72910 26030
L72880 26000
L72850 25940
L72850 25890
L72880 25830
L72910 25800
L72970 25770
L73110 25770
L73200 25800
" />
</g>
<g style="fill:#000000; fill-opacity:0.0; 
stroke:#000000; stroke-width:0; stroke-opacity:1; 
stroke-linecap:round; stroke-linejoin:round;">
</g>
<g style="fill:#840000; fill-opacity:0.0; 
stroke:#840000; stroke-width:0; stroke-opacity:1; 
stroke-linecap:round; stroke-linejoin:round;">
</g>
<g style="fill:#840000; fill-opacity:0.0; 
stroke:#840000; stroke-width:60; stroke-opacity:1; 
stroke-linecap:round; stroke-linejoin:round;">
<polyline fill="none;"
points="74500,30000
74500,30500
75000,30500
74500,31000
74000,30500
74500,30500
" /> 
</g>
<g style="fill:#008484; fill-opacity:0.0; 
stroke:#008484; stroke-width:60; stroke-opacity:1; 
stroke-linecap:round; stroke-linejoin:round;">
<path d="M74200 31450
L74150 31430
L74080 31430
L74010 31450
L73960 31500
L73940 31550
L73920 31640
L73920 31710
L73940 31810
L73960 31850
L74010 31900
L74080 31930
L74130 31930
L74200 31900
L74220 31880
L74220 31710
L74130 31710
" />
<path d="M74440 31930
L74440 31430
L74720 31930
L74720 31430
" />
<path d="M74960 31930
L74960 31430
L75080 31430
L75150 31450
L75200 31500
L75220 31550
L75240 31640
L75240 31710
L75220 31810
L75200 31850
L75150 31900
L75080 31930
L74960 31930
" />
</g>
<g style="fill:#008400; fill-opacity:0.0; 
stroke:#008400; stroke-width:60; stroke-opacity:1; 
stroke-linecap:round; stroke-linejoin:round;">
<path d="M76500 26500
L71000 26500
" />
<path d="M76500 28500
L71000 28500
" />
<path d="M71000 28500
L71000 26500
" />
<path d="M74500 27500
L76500 27500
" />
<path d="M74500 27500
L74500 30000
" />
</g>
<g style="fill:#840084; fill-opacity:0.0; 
stroke:#840084; stroke-width:60; stroke-opacity:1; 
stroke-linecap:round; stroke-linejoin:round;">
<path d="M76500 23500
L84500 23500
L84500 31000
L76500 31000
L76500 23500
" />
</g>
<g style="fill:#008484; fill-opacity:0.0; 
stroke:#008484; stroke-width:60; stroke-opacity:1; 
stroke-linecap:round; stroke-linejoin:round;">
<path d="M76960 23430
L76610 23430
" />
<path d="M76790 23430
L76790 22830
L76730 22920
L76670 22970
L76610 23000
" />
<path d="M77180 22890
L77210 22860
L77270 22830
L77410 22830
L77470 22860
L77500 22890
L77530 22950
L77530 23000
L77500 23090
L77160 23430
L77530 23430
" />
<path d="M77700 22830
L77900 23430
L78100 22830
" />
<path d="M78210 23030
L78440 23030
" />
<path d="M78290 22830
L78290 23350
L78320 23400
L78380 23430
L78440 23430
" />
<path d="M78720 23430
L78660 23400
L78630 23370
L78600 23320
L78600 23150
L78630 23090
L78660 23060
L78720 23030
L78800 23030
L78860 23060
L78890 23090
L78920 23150
L78920 23320
L78890 23370
L78860 23400
L78800 23430
L78720 23430
" />
<path d="M79460 22830
L79170 22830
L79140 23120
L79170 23090
L79230 23060
L79370 23060
L79430 23090
L79460 23120
L79490 23170
L79490 23320
L79460 23370
L79430 23400
L79370 23430
L79230 23430
L79170 23400
L79140 23370
" />
<path d="M79660 22830
L79860 23430
L80060 22830
" />
<path d="M80250 23370
L80280 23400
L80250 23430
L80220 23400
L80250 23370
L80250 23430
" />
<path d="M80510 23400
L80570 23430
L80690 23430
L80740 23400
L80770 23350
L80770 23320
L80740 23260
L80690 23230
L80600 23230
L80540 23200
L80510 23150
L80510 23120
L80540 23060
L80600 23030
L80690 23030
L80740 23060
" />
<path d="M81290 23400
L81230 23430
L81120 23430
L81060 23400
L81030 23370
L81000 23320
L81000 23150
L81030 23090
L81060 23060
L81120 23030
L81230 23030
L81290 23060
" />
<path d="M81540 23430
L81540 22830
" />
<path d="M81800 23430
L81800 23120
L81770 23060
L81710 23030
L81630 23030
L81570 23060
L81540 23090
" />
</g>
<g style="fill:#848400; fill-opacity:0.0; 
stroke:#848400; stroke-width:60; stroke-opacity:1; 
stroke-linecap:round; stroke-linejoin:round;">
<path d="M76640 31210
L76640 31810
" />
<path d="M76640 31240
L76700 31210
L76810 31210
L76870 31240
L76900 31270
L76930 31330
L76930 31500
L76900 31550
L76870 31580
L76810 31610
L76700 31610
L76640 31580
" />
<path d="M77270 31610
L77210 31580
L77180 31550
L77150 31500
L77150 31330
L77180 31270
L77210 31240
L77270 31210
L77350 31210
L77410 31240
L77440 31270
L77470 31330
L77470 31500
L77440 31550
L77410 31580
L77350 31610
L77270 31610
" />
<path d="M77670 31210
L77780 31610
L77890 31330
L78010 31610
L78120 31210
" />
<path d="M78580 31580
L78520 31610
L78410 31610
L78350 31580
L78320 31530
L78320 31300
L78350 31240
L78410 31210
L78520 31210
L78580 31240
L78610 31300
L78610 31350
L78320 31410
" />
<path d="M78860 31610
L78860 31210
" />
<path d="M78860 31330
L78890 31270
L78920 31240
L78980 31210
L79030 31210
" />
<path d="M79660 30980
L79150 31750
" />
<path d="M80180 31610
L79830 31610
" />
<path d="M80010 31610
L80010 31010
L79950 31100
L79890 31150
L79830 31180
" />
<path d="M80400 31070
L80430 31040
L80490 31010
L80630 31010
L80690 31040
L80720 31070
L80750 31130
L80750 31180
L80720 31270
L80380 31610
L80750 31610
" />
<path d="M80920 31010
L81120 31610
L81320 31010
" />
<path d="M81430 31210
L81660 31210
" />
<path d="M81510 31010
L81510 31530
L81540 31580
L81600 31610
L81660 31610
" />
<path d="M81940 31610
L81880 31580
L81850 31550
L81820 31500
L81820 31330
L81850 31270
L81880 31240
L81940 31210
L82020 31210
L82080 31240
L82110 31270
L82140 31330
L82140 31500
L82110 31550
L82080 31580
L82020 31610
L81940 31610
" />
<path d="M82680 31010
L82390 31010
L82360 31300
L82390 31270
L82450 31240
L82590 31240
L82650 31270
L82680 31300
L82710 31350
L82710 31500
L82680 31550
L82650 31580
L82590 31610
L82450 31610
L82390 31580
L82360 31550
" />
<path d="M82880 31010
L83080 31610
L83280 31010
" />
<path d="M83470 31550
L83500 31580
L83470 31610
L83440 31580
L83470 31550
L83470 31610
" />
<path d="M83730 31580
L83790 31610
L83910 31610
L83960 31580
L83990 31530
L83990 31500
L83960 31440
L83910 31410
L83820 31410
L83760 31380
L83730 31330
L83730 31300
L83760 31240
L83820 31210
L83910 31210
L83960 31240
" />
<path d="M84510 31580
L84450 31610
L84340 31610
L84280 31580
L84250 31550
L84220 31500
L84220 31330
L84250 31270
L84280 31240
L84340 31210
L84450 31210
L84510 31240
" />
<path d="M84760 31610
L84760 31010
" />
<path d="M85020 31610
L85020 31300
L84990 31240
L84930 31210
L84850 31210
L84790 31240
L84760 31270
" />
</g>
<g style="fill:#840084; fill-opacity:0.0; 
stroke:#840084; stroke-width:60; stroke-opacity:1; 
stroke-linecap:round; stroke-linejoin:round;">
</g>
<g style="fill:#848400; fill-opacity:0.0; 
stroke:#848400; stroke-width:60; stroke-opacity:1; 
stroke-linecap:round; stroke-linejoin:round;">
<path d="M77320 26170
L77520 26770
L77720 26170
" />
<path d="M77910 26770
L77910 26370
" />
<path d="M77910 26170
L77880 26200
L77910 26230
L77940 26200
L77910 26170
L77910 26230
" />
<path d="M78200 26370
L78200 26770
" />
<path d="M78200 26430
L78230 26400
L78290 26370
L78370 26370
L78430 26400
L78460 26460
L78460 26770
" />
</g>
<g style="fill:#848400; fill-opacity:0.0; 
stroke:#848400; stroke-width:100; stroke-opacity:1; 
stroke-linecap:round; stroke-linejoin:round;">
<polyline fill="none;"
points="77100,26500
76800,26200
76500,26200
76500,26800
76800,26800
77100,26500
" /> 
</g>
<g style="fill:#848400; fill-opacity:0.0; 
stroke:#848400; stroke-width:60; stroke-opacity:1; 
stroke-linecap:round; stroke-linejoin:round;">
<path d="M77720 27200
L77660 27170
L77570 27170
L77490 27200
L77430 27260
L77400 27310
L77370 27430
L77370 27510
L77400 27630
L77430 27690
L77490 27740
L77570 27770
L77630 27770
L77720 27740
L77750 27710
L77750 27510
L77630 27510
" />
<path d="M78000 27370
L78000 27770
" />
<path d="M78000 27430
L78030 27400
L78090 27370
L78170 27370
L78230 27400
L78260 27460
L78260 27770
" />
<path d="M78800 27770
L78800 27170
" />
<path d="M78800 27740
L78740 27770
L78630 27770
L78570 27740
L78540 27710
L78510 27660
L78510 27490
L78540 27430
L78570 27400
L78630 27370
L78740 27370
L78800 27400
" />
</g>
<g style="fill:#848400; fill-opacity:0.0; 
stroke:#848400; stroke-width:100; stroke-opacity:1; 
stroke-linecap:round; stroke-linejoin:round;">
<polyline fill="none;"
points="77100,27500
76800,27200
76500,27200
76500,27800
76800,27800
77100,27500
" /> 
</g>
<g style="fill:#848400; fill-opacity:0.0; 
stroke:#848400; stroke-width:60; stroke-opacity:1; 
stroke-linecap:round; stroke-linejoin:round;">
<path d="M77400 28460
L77600 28460
" />
<path d="M77690 28770
L77400 28770
L77400 28170
L77690 28170
" />
<path d="M77940 28370
L77940 28770
" />
<path d="M77940 28430
L77970 28400
L78030 28370
L78110 28370
L78170 28400
L78200 28460
L78200 28770
" />
</g>
<g style="fill:#848400; fill-opacity:0.0; 
stroke:#848400; stroke-width:100; stroke-opacity:1; 
stroke-linecap:round; stroke-linejoin:round;">
<polyline fill="none;"
points="77100,28500
76800,28200
76500,28200
76500,28800
76800,28800
77100,28500
" /> 
</g>
<g style="fill:#848400; fill-opacity:0.0; 
stroke:#848400; stroke-width:60; stroke-opacity:1; 
stroke-linecap:round; stroke-linejoin:round;">
<path d="M81870 26670
L82070 27270
L82270 26670
" />
<path d="M82550 27270
L82490 27240
L82460 27210
L82430 27160
L82430 26990
L82460 26930
L82490 26900
L82550 26870
L82630 26870
L82690 26900
L82720 26930
L82750 26990
L82750 27160
L82720 27210
L82690 27240
L82630 27270
L82550 27270
" />
<path d="M83260 26870
L83260 27270
" />
<path d="M83000 26870
L83000 27190
L83030 27240
L83090 27270
L83170 27270
L83230 27240
L83260 27210
" />
<path d="M83460 26870
L83690 26870
" />
<path d="M83540 26670
L83540 27190
L83570 27240
L83630 27270
L83690 27270
" />
</g>
<g style="fill:#848400; fill-opacity:0.0; 
stroke:#848400; stroke-width:100; stroke-opacity:1; 
stroke-linecap:round; stroke-linejoin:round;">
<polyline fill="none;"
points="83900,27000
84200,27300
84500,27300
84500,26700
84200,26700
83900,27000
" /> 
</g>
<g style="fill:#848400; fill-opacity:0.0; 
stroke:#848400; stroke-width:60; stroke-opacity:1; 
stroke-linecap:round; stroke-linejoin:round;">
</g>
<g style="fill:#008400; fill-opacity:0.0; 
stroke:#008400; stroke-width:60; stroke-opacity:1; 
stroke-linecap:round; stroke-linejoin:round;">
<path d="M84500 27000
L87500 27000
" />
</g>
<g style="fill:#000000; fill-opacity:0.0; 
stroke:#000000; stroke-width:60; stroke-opacity:1; 
stroke-linecap:round; stroke-linejoin:round;">
<path d="M85430 26270
L85140 26270
L85110 26560
L85140 26530
L85200 26500
L85340 26500
L85400 26530
L85430 26560
L85460 26610
L85460 26760
L85430 26810
L85400 26840
L85340 26870
L85200 26870
L85140 26840
L85110 26810
" />
<path d="M85660 26470
L85800 26870
L85940 26470
" />
<path d="M25090 32770
L25460 32770
L25260 33000
L25340 33000
L25400 33030
L25430 33060
L25460 33110
L25460 33260
L25430 33310
L25400 33340
L25340 33370
L25170 33370
L25110 33340
L25090 33310
" />
<path d="M25660 32970
L25800 33370
L25940 32970
" />
<path d="M26120 32770
L26490 32770
L26290 33000
L26370 33000
L26430 33030
L26460 33060
L26490 33110
L26490 33260
L26460 33310
L26430 33340
L26370 33370
L26200 33370
L26140 33340
L26120 33310
" />
</g>
<g style="fill:#000000; fill-opacity:0.0; 
stroke:#000000; stroke-width:0; stroke-opacity:1; 
stroke-linecap:round; stroke-linejoin:round;">
</g>
<g style="fill:#840000; fill-opacity:0.0; 
stroke:#840000; stroke-width:0; stroke-opacity:1; 
stroke-linecap:round; stroke-linejoin:round;">
</g>
<g style="fill:#840000; fill-opacity:0.0; 
stroke:#840000; stroke-width:60; stroke-opacity:1; 
stroke-linecap:round; stroke-linejoin:round;">
<polyline fill="none;"
points="28500,34500
28500,35000
29000,35000
28500,35500
28000,35000
28500,35000
" /> 
</g>
<g style="fill:#008484; fill-opacity:0.0; 
stroke:#008484; stroke-width:60; stroke-opacity:1; 
stroke-linecap:round; stroke-linejoin:round;">
<path d="M28200 35950
L28150 35930
L28080 35930
L28010 35950
L27960 36000
L27940 36050
L27920 36140
L27920 36210
L27940 36310
L27960 36350
L28010 36400
L28080 36430
L28130 36430
L28200 36400
L28220 36380
L28220 36210
L28130 36210
" />
<path d="M28440 36430
L28440 35930
L28720 36430
L28720 35930
" />
<path d="M28960 36430
L28960 35930
L29080 35930
L29150 35950
L29200 36000
L29220 36050
L29240 36140
L29240 36210
L29220 36310
L29200 36350
L29150 36400
L29080 36430
L28960 36430
" />
</g>
<g style="fill:#000084; fill-opacity:0.0; 
stroke:#000084; stroke-width:60; stroke-opacity:1; 
stroke-linecap:round; stroke-linejoin:round;">
<path d="M28260 29260
L28740 29740
" />
<path d="M28740 29260
L28260 29740
" />
<path d="M28260 30260
L28740 30740
" />
<path d="M28740 30260
L28260 30740
" />
<path d="M28260 31260
L28740 31740
" />
<path d="M28740 31260
L28260 31740
" />
<path d="M24260 25260
L24740 25740
" />
<path d="M24740 25260
L24260 25740
" />
<path d="M24260 26260
L24740 26740
" />
<path d="M24740 26260
L24260 26740
" />
</g>
<g style="fill:#000000; fill-opacity:0.0; 
stroke:#000000; stroke-width:60; stroke-opacity:1; 
stroke-linecap:round; stroke-linejoin:round;">
<path d="M25060 22770
L25260 23370
L25460 22770
" />
<path d="M25850 23060
L25940 23090
L25970 23110
L26000 23170
L26000 23260
L25970 23310
L25940 23340
L25880 23370
L25650 23370
L25650 22770
L25850 22770
L25910 22800
L25940 22830
L25970 22890
L25970 22940
L25940 23000
L25910 23030
L25850 23060
L25650 23060
" />
<path d="M26250 22770
L26250 23260
L26280 23310
L26310 23340
L26370 23370
L26480 23370
L26540 23340
L26570 23310
L26600 23260
L26600 22770
" />
<path d="M26850 23340
L26940 23370
L27080 23370
L27140 23340
L27170 23310
L27200 23260
L27200 23200
L27170 23140
L27140 23110
L27080 23090
L26970 23060
L26910 23030
L26880 23000
L26850 22940
L26850 22890
L26880 22830
L26910 22800
L26970 22770
L27110 22770
L27200 22800
" />
</g>
<g style="fill:#848400; fill-opacity:0.0; 
stroke:#848400; stroke-width:60; stroke-opacity:1; 
stroke-linecap:round; stroke-linejoin:round;">
<path d="M21130 37670
L20840 37670
L20810 37960
L20840 37930
L20900 37900
L21040 37900
L21100 37930
L21130 37960
L21160 38010
L21160 38160
L21130 38210
L21100 38240
L21040 38270
L20900 38270
L20840 38240
L20810 38210
" />
<path d="M21360 37870
L21500 38270
L21640 37870
" />
<path d="M21990 37670
L22100 37670
L22160 37700
L22220 37760
L22240 37870
L22240 38070
L22220 38190
L22160 38240
L22100 38270
L21990 38270
L21930 38240
L21870 38190
L21840 38070
L21840 37870
L21870 37760
L21930 37700
L21990 37670
" />
<path d="M22760 37870
L22760 38270
" />
<path d="M22500 37870
L22500 38190
L22530 38240
L22590 38270
L22670 38270
L22730 38240
L22760 38210
" />
<path d="M22960 37870
L23190 37870
" />
<path d="M23040 37670
L23040 38190
L23070 38240
L23130 38270
L23190 38270
" />
</g>
<g style="fill:#848400; fill-opacity:0.0; 
stroke:#848400; stroke-width:100; stroke-opacity:1; 
stroke-linecap:round; stroke-linejoin:round;">
<polyline fill="none;"
points="24000,38000
23700,37700
23400,37700
23400,38300
23700,38300
24000,38000
" /> 
</g>
<g style="fill:#848400; fill-opacity:0.0; 
stroke:#848400; stroke-width:60; stroke-opacity:1; 
stroke-linecap:round; stroke-linejoin:round;">
<path d="M20960 38670
L20670 38670
L20640 38960
L20670 38930
L20730 38900
L20870 38900
L20930 38930
L20960 38960
L20990 39010
L20990 39160
L20960 39210
L20930 39240
L20870 39270
L20730 39270
L20670 39240
L20640 39210
" />
<path d="M21190 38870
L21330 39270
L21470 38870
" />
<path d="M22020 38700
L21960 38670
L21870 38670
L21790 38700
L21730 38760
L21700 38810
L21670 38930
L21670 39010
L21700 39130
L21730 39190
L21790 39240
L21870 39270
L21930 39270
L22020 39240
L22050 39210
L22050 39010
L21930 39010
" />
<path d="M22300 38870
L22300 39270
" />
<path d="M22300 38930
L22330 38900
L22390 38870
L22470 38870
L22530 38900
L22560 38960
L22560 39270
" />
<path d="M23100 39270
L23100 38670
" />
<path d="M23100 39240
L23040 39270
L22930 39270
L22870 39240
L22840 39210
L22810 39160
L22810 38990
L22840 38930
L22870 38900
L22930 38870
L23040 38870
L23100 38900
" />
</g>
<g style="fill:#848400; fill-opacity:0.0; 
stroke:#848400; stroke-width:100; stroke-opacity:1; 
stroke-linecap:round; stroke-linejoin:round;">
<polyline fill="none;"
points="24000,39000
23700,38700
23400,38700
23400,39300
23700,39300
24000,39000
" /> 
</g>
<g style="fill:#848400; fill-opacity:0.0; 
stroke:#848400; stroke-width:60; stroke-opacity:1; 
stroke-linecap:round; stroke-linejoin:round;">
</g>
<g style="fill:#008400; fill-opacity:0.0; 
stroke:#008400; stroke-width:60; stroke-opacity:1; 
stroke-linecap:round; stroke-linejoin:round;">
<path d="M24000 38000
L28500 38000
" />
<path d="M24000 39000
L28500 39000
" />
</g>
<g style="fill:#000000; fill-opacity:0.0; 
stroke:#000000; stroke-width:60; stroke-opacity:1; 
stroke-linecap:round; stroke-linejoin:round;">
<path d="M25430 37270
L25140 37270
L25110 37560
L25140 37530
L25200 37500
L25340 37500
L25400 37530
L25430 37560
L25460 37610
L25460 37760
L25430 37810
L25400 37840
L25340 37870
L25200 37870
L25140 37840
L25110 37810
" />
<path d="M25660 37470
L25800 37870
L25940 37470
" />
</g>
<g style="fill:#000000; fill-opacity:0.0; 
stroke:#000000; stroke-width:0; stroke-opacity:1; 
stroke-linecap:round; stroke-linejoin:round;">
</g>
<g style="fill:#840000; fill-opacity:0.0; 
stroke:#840000; stroke-width:0; stroke-opacity:1; 
stroke-linecap:round; stroke-linejoin:round;">
</g>
<g style="fill:#840000; fill-opacity:0.0; 
stroke:#840000; stroke-width:60; stroke-opacity:1; 
stroke-linecap:round; stroke-linejoin:round;">
<polyline fill="none;"
points="28500,39000
28500,39500
29000,39500
28500,40000
28000,39500
28500,39500
" /> 
</g>
<g style="fill:#008484; fill-opacity:0.0; 
stroke:#008484; stroke-width:60; stroke-opacity:1; 
stroke-linecap:round; stroke-linejoin:round;">
<path d="M28200 40450
L28150 40430
L28080 40430
L28010 40450
L27960 40500
L27940 40550
L27920 40640
L27920 40710
L27940 40810
L27960 40850
L28010 40900
L28080 40930
L28130 40930
L28200 40900
L28220 40880
L28220 40710
L28130 40710
" />
<path d="M28440 40930
L28440 40430
L28720 40930
L28720 40430
" />
<path d="M28960 40930
L28960 40430
L29080 40430
L29150 40450
L29200 40500
L29220 40550
L29240 40640
L29240 40710
L29220 40810
L29200 40850
L29150 40900
L29080 40930
L28960 40930
" />
</g>
<g style="fill:#008484; fill-opacity:0.0; 
stroke:#008484; stroke-width:0; stroke-opacity:1; 
stroke-linecap:round; stroke-linejoin:round;">
</g>
<g style="fill:#840000; fill-opacity:0.0; 
stroke:#840000; stroke-width:0; stroke-opacity:1; 
stroke-linecap:round; stroke-linejoin:round;">
</g>
<g style="fill:#840000; fill-opacity:0.0; 
stroke:#840000; stroke-width:60; stroke-opacity:1; 
stroke-linecap:round; stroke-linejoin:round;">
<rect x="8400" y="9450" width="600" height="100" rx="0" />
<rect x="8400" y="10450" width="600" height="100" rx="0" />
<rect x="8000" y="9000" width="1000" height="2000" rx="0" />
<path d="M9000 10500
L10500 10500
" />
<path d="M9890 10380
L9610 10380
" />
<path d="M9750 10380
L9750 9880
L9700 9950
L9650 10000
L9610 10020
" />
<path d="M9000 9500
L10500 9500
" />
<path d="M9610 8920
L9630 8900
L9680 8880
L9800 8880
L9840 8900
L9870 8920
L9890 8970
L9890 9020
L9870 9090
L9580 9380
L9890 9380
" />
</g>
<g style="fill:#008484; fill-opacity:0.0; 
stroke:#008484; stroke-width:60; stroke-opacity:1; 
stroke-linecap:round; stroke-linejoin:round;">
<path d="M7890 11760
L7890 11260
L8080 11260
L8130 11280
L8150 11300
L8170 11350
L8170 11420
L8150 11470
L8130 11490
L8080 11520
L7890 11520
" />
<path d="M8650 11760
L8370 11760
" />
<path d="M8510 11760
L8510 11260
L8460 11330
L8410 11380
L8370 11400
" />
<path d="M8820 11260
L9130 11260
L8960 11450
L9040 11450
L9080 11470
L9110 11490
L9130 11540
L9130 11660
L9110 11710
L9080 11730
L9040 11760
L8890 11760
L8850 11730
L8820 11710
" />
<path d="M7710 12020
L7730 12040
L7760 12110
L7760 12160
L7730 12230
L7680 12280
L7640 12300
L7540 12320
L7470 12320
L7380 12300
L7330 12280
L7280 12230
L7260 12160
L7260 12110
L7280 12040
L7300 12020
" />
<path d="M7260 11710
L7260 11610
L7280 11560
L7330 11520
L7420 11490
L7590 11490
L7680 11520
L7730 11560
L7760 11610
L7760 11710
L7730 11750
L7680 11800
L7590 11820
L7420 11820
L7330 11800
L7280 11750
L7260 11710
" />
<path d="M7760 11280
L7260 11280
L7760 11000
L7260 11000
" />
<path d="M7760 10760
L7260 10760
L7760 10480
L7260 10480
" />
<path d="M7800 10360
L7800 9980
" />
<path d="M7260 9770
L7260 9720
L7280 9670
L7300 9650
L7350 9620
L7450 9600
L7570 9600
L7660 9620
L7710 9650
L7730 9670
L7760 9720
L7760 9770
L7730 9810
L7710 9840
L7660 9860
L7570 9880
L7450 9880
L7350 9860
L7300 9840
L7280 9810
L7260 9770
" />
<path d="M7760 9120
L7760 9400
" />
<path d="M7760 9260
L7260 9260
L7330 9310
L7380 9360
L7400 9400
" />
<path d="M7260 8950
L7760 8620
" />
<path d="M7260 8620
L7760 8950
" />
<path d="M7260 8330
L7260 8280
L7280 8230
L7300 8210
L7350 8180
L7450 8160
L7570 8160
L7660 8180
L7710 8210
L7730 8230
L7760 8280
L7760 8330
L7730 8370
L7710 8400
L7660 8420
L7570 8440
L7450 8440
L7350 8420
L7300 8400
L7280 8370
L7260 8330
" />
<path d="M7300 7960
L7280 7940
L7260 7890
L7260 7770
L7280 7730
L7300 7700
L7350 7680
L7400 7680
L7470 7700
L7760 7990
L7760 7680
" />
</g>
<g style="fill:#008484; fill-opacity:0.0; 
stroke:#008484; stroke-width:0; stroke-opacity:1; 
stroke-linecap:round; stroke-linejoin:round;">
</g>
<g style="fill:#840000; fill-opacity:0.0; 
stroke:#840000; stroke-width:0; stroke-opacity:1; 
stroke-linecap:round; stroke-linejoin:round;">
</g>
<g style="fill:#840000; fill-opacity:0.0; 
stroke:#840000; stroke-width:60; stroke-opacity:1; 
stroke-linecap:round; stroke-linejoin:round;">
<polyline fill="none;"
points="11000,11000
11000,11500
11500,11500
11000,12000
10500,11500
11000,11500
" /> 
</g>
<g style="fill:#008484; fill-opacity:0.0; 
stroke:#008484; stroke-width:60; stroke-opacity:1; 
stroke-linecap:round; stroke-linejoin:round;">
<path d="M10700 12450
L10650 12430
L10580 12430
L10510 12450
L10460 12500
L10440 12550
L10420 12640
L10420 12710
L10440 12810
L10460 12850
L10510 12900
L10580 12930
L10630 12930
L10700 12900
L10720 12880
L10720 12710
L10630 12710
" />
<path d="M10940 12930
L10940 12430
L11220 12930
L11220 12430
" />
<path d="M11460 12930
L11460 12430
L11580 12430
L11650 12450
L11700 12500
L11720 12550
L11740 12640
L11740 12710
L11720 12810
L11700 12850
L11650 12900
L11580 12930
L11460 12930
" />
</g>
<g style="fill:#008400; fill-opacity:0.0; 
stroke:#008400; stroke-width:60; stroke-opacity:1; 
stroke-linecap:round; stroke-linejoin:round;">
<path d="M10500 10500
L11000 10500
" />
<path d="M11000 10500
L11000 11000
" />
</g>
<g style="fill:#848400; fill-opacity:0.0; 
stroke:#848400; stroke-width:60; stroke-opacity:1; 
stroke-linecap:round; stroke-linejoin:round;">
<path d="M12320 9170
L12520 9770
L12720 9170
" />
<path d="M13110 9460
L13200 9490
L13230 9510
L13260 9570
L13260 9660
L13230 9710
L13200 9740
L13140 9770
L12910 9770
L12910 9170
L13110 9170
L13170 9200
L13200 9230
L13230 9290
L13230 9340
L13200 9400
L13170 9430
L13110 9460
L12910 9460
" />
<path d="M13770 9770
L13770 9460
L13740 9400
L13680 9370
L13570 9370
L13510 9400
" />
<path d="M13770 9740
L13710 9770
L13570 9770
L13510 9740
L13480 9690
L13480 9630
L13510 9570
L13570 9540
L13710 9540
L13770 9510
" />
<path d="M13970 9370
L14200 9370
" />
<path d="M14050 9170
L14050 9690
L14080 9740
L14140 9770
L14200 9770
" />
</g>
<g style="fill:#848400; fill-opacity:0.0; 
stroke:#848400; stroke-width:100; stroke-opacity:1; 
stroke-linecap:round; stroke-linejoin:round;">
<polyline fill="none;"
points="11500,9500
11800,9800
12100,9800
12100,9200
11800,9200
11500,9500
" /> 
</g>
<g style="fill:#848400; fill-opacity:0.0; 
stroke:#848400; stroke-width:60; stroke-opacity:1; 
stroke-linecap:round; stroke-linejoin:round;">
</g>
<g style="fill:#008400; fill-opacity:0.0; 
stroke:#008400; stroke-width:60; stroke-opacity:1; 
stroke-linecap:round; stroke-linejoin:round;">
<path d="M11500 9500
L10500 9500
" />
</g> 
</svg>
