<?xml version="1.0" standalone="no"?>
 <!DOCTYPE svg PUBLIC "-//W3C//DTD SVG 1.1//EN" 
 "http://www.w3.org/Graphics/SVG/1.1/DTD/svg11.dtd"> 
<svg xmlns="http://www.w3.org/2000/svg" version="1.1" 
    width="29.7002cm" height="21.0007cm" viewBox="0 0 116930 82680 ">
<title>SVG Picture created as SpexPowerBoard-Power Distribution.svg date 2016/03/24 14:43:11 </title>
  <desc>Picture generated by Eeschema-SVG </desc>
<g style="fill:#000000; fill-opacity:1;stroke:#000000; stroke-opacity:1;
stroke-linecap:round; stroke-linejoin:round; "
 transform="translate(0 0) scale(1 1)">
</g>
<g style="fill:#000000; fill-opacity:0.0; 
stroke:#000000; stroke-width:-10; stroke-opacity:1; 
stroke-linecap:round; stroke-linejoin:round;">
</g>
<g style="fill:#000000; fill-opacity:0.0; 
stroke:#000000; stroke-width:100; stroke-opacity:1; 
stroke-linecap:round; stroke-linejoin:round;">
</g>
<g style="fill:#000000; fill-opacity:0.0; 
stroke:#000000; stroke-width:60; stroke-opacity:1; 
stroke-linecap:round; stroke-linejoin:round;">
<rect x="69690" y="65360" width="42520" height="12600" rx="0" />
</g>
<g style="fill:#000000; fill-opacity:0.0; 
stroke:#000000; stroke-width:100; stroke-opacity:1; 
stroke-linecap:round; stroke-linejoin:round;">
</g>
<g style="fill:#000000; fill-opacity:0.0; 
stroke:#000000; stroke-width:60; stroke-opacity:1; 
stroke-linecap:round; stroke-linejoin:round;">
<rect x="3940" y="3940" width="109050" height="74800" rx="0" />
</g>
<g style="fill:#000000; fill-opacity:0.0; 
stroke:#000000; stroke-width:100; stroke-opacity:1; 
stroke-linecap:round; stroke-linejoin:round;">
</g>
<g style="fill:#000000; fill-opacity:0.0; 
stroke:#000000; stroke-width:60; stroke-opacity:1; 
stroke-linecap:round; stroke-linejoin:round;">
<rect x="4720" y="4720" width="107490" height="73240" rx="0" />
</g>
<g style="fill:#000000; fill-opacity:0.0; 
stroke:#000000; stroke-width:100; stroke-opacity:1; 
stroke-linecap:round; stroke-linejoin:round;">
</g>
<g style="fill:#000000; fill-opacity:0.0; 
stroke:#000000; stroke-width:60; stroke-opacity:1; 
stroke-linecap:round; stroke-linejoin:round;">
<path d="M23620 4720
L23620 3940
" />
</g>
<g style="fill:#000000; fill-opacity:0.0; 
stroke:#000000; stroke-width:100; stroke-opacity:1; 
stroke-linecap:round; stroke-linejoin:round;">
</g>
<g style="fill:#000000; fill-opacity:0.0; 
stroke:#000000; stroke-width:60; stroke-opacity:1; 
stroke-linecap:round; stroke-linejoin:round;">
<path d="M43310 4720
L43310 3940
" />
</g>
<g style="fill:#000000; fill-opacity:0.0; 
stroke:#000000; stroke-width:100; stroke-opacity:1; 
stroke-linecap:round; stroke-linejoin:round;">
</g>
<g style="fill:#000000; fill-opacity:0.0; 
stroke:#000000; stroke-width:60; stroke-opacity:1; 
stroke-linecap:round; stroke-linejoin:round;">
<path d="M62990 4720
L62990 3940
" />
</g>
<g style="fill:#000000; fill-opacity:0.0; 
stroke:#000000; stroke-width:100; stroke-opacity:1; 
stroke-linecap:round; stroke-linejoin:round;">
</g>
<g style="fill:#000000; fill-opacity:0.0; 
stroke:#000000; stroke-width:60; stroke-opacity:1; 
stroke-linecap:round; stroke-linejoin:round;">
<path d="M82680 4720
L82680 3940
" />
</g>
<g style="fill:#000000; fill-opacity:0.0; 
stroke:#000000; stroke-width:100; stroke-opacity:1; 
stroke-linecap:round; stroke-linejoin:round;">
</g>
<g style="fill:#000000; fill-opacity:0.0; 
stroke:#000000; stroke-width:60; stroke-opacity:1; 
stroke-linecap:round; stroke-linejoin:round;">
<path d="M102360 4720
L102360 3940
" />
</g>
<g style="fill:#000000; fill-opacity:0.0; 
stroke:#000000; stroke-width:100; stroke-opacity:1; 
stroke-linecap:round; stroke-linejoin:round;">
</g>
<g style="fill:#000000; fill-opacity:0.0; 
stroke:#000000; stroke-width:60; stroke-opacity:1; 
stroke-linecap:round; stroke-linejoin:round;">
<path d="M14170 4560
L13880 4560
" />
<path d="M14020 4560
L14020 4050
L13970 4120
L13930 4170
L13880 4190
" />
</g>
<g style="fill:#000000; fill-opacity:0.0; 
stroke:#000000; stroke-width:100; stroke-opacity:1; 
stroke-linecap:round; stroke-linejoin:round;">
</g>
<g style="fill:#000000; fill-opacity:0.0; 
stroke:#000000; stroke-width:60; stroke-opacity:1; 
stroke-linecap:round; stroke-linejoin:round;">
<path d="M33560 4090
L33580 4070
L33630 4050
L33750 4050
L33800 4070
L33820 4090
L33850 4140
L33850 4190
L33820 4260
L33530 4560
L33850 4560
" />
</g>
<g style="fill:#000000; fill-opacity:0.0; 
stroke:#000000; stroke-width:100; stroke-opacity:1; 
stroke-linecap:round; stroke-linejoin:round;">
</g>
<g style="fill:#000000; fill-opacity:0.0; 
stroke:#000000; stroke-width:60; stroke-opacity:1; 
stroke-linecap:round; stroke-linejoin:round;">
<path d="M53220 4050
L53540 4050
L53370 4240
L53440 4240
L53490 4260
L53510 4290
L53540 4340
L53540 4460
L53510 4510
L53490 4530
L53440 4560
L53300 4560
L53250 4530
L53220 4510
" />
</g>
<g style="fill:#000000; fill-opacity:0.0; 
stroke:#000000; stroke-width:100; stroke-opacity:1; 
stroke-linecap:round; stroke-linejoin:round;">
</g>
<g style="fill:#000000; fill-opacity:0.0; 
stroke:#000000; stroke-width:60; stroke-opacity:1; 
stroke-linecap:round; stroke-linejoin:round;">
<path d="M73170 4220
L73170 4560
" />
<path d="M73050 4020
L72930 4390
L73240 4390
" />
</g>
<g style="fill:#000000; fill-opacity:0.0; 
stroke:#000000; stroke-width:100; stroke-opacity:1; 
stroke-linecap:round; stroke-linejoin:round;">
</g>
<g style="fill:#000000; fill-opacity:0.0; 
stroke:#000000; stroke-width:60; stroke-opacity:1; 
stroke-linecap:round; stroke-linejoin:round;">
<path d="M92880 4050
L92640 4050
L92620 4290
L92640 4260
L92690 4240
L92810 4240
L92860 4260
L92880 4290
L92910 4340
L92910 4460
L92880 4510
L92860 4530
L92810 4560
L92690 4560
L92640 4530
L92620 4510
" />
</g>
<g style="fill:#000000; fill-opacity:0.0; 
stroke:#000000; stroke-width:100; stroke-opacity:1; 
stroke-linecap:round; stroke-linejoin:round;">
</g>
<g style="fill:#000000; fill-opacity:0.0; 
stroke:#000000; stroke-width:60; stroke-opacity:1; 
stroke-linecap:round; stroke-linejoin:round;">
<path d="M112540 4050
L112440 4050
L112390 4070
L112370 4090
L112320 4170
L112300 4260
L112300 4460
L112320 4510
L112350 4530
L112390 4560
L112490 4560
L112540 4530
L112560 4510
L112590 4460
L112590 4340
L112560 4290
L112540 4260
L112490 4240
L112390 4240
L112350 4260
L112320 4290
L112300 4340
" />
</g>
<g style="fill:#000000; fill-opacity:0.0; 
stroke:#000000; stroke-width:100; stroke-opacity:1; 
stroke-linecap:round; stroke-linejoin:round;">
</g>
<g style="fill:#000000; fill-opacity:0.0; 
stroke:#000000; stroke-width:60; stroke-opacity:1; 
stroke-linecap:round; stroke-linejoin:round;">
<path d="M23620 77960
L23620 78740
" />
</g>
<g style="fill:#000000; fill-opacity:0.0; 
stroke:#000000; stroke-width:100; stroke-opacity:1; 
stroke-linecap:round; stroke-linejoin:round;">
</g>
<g style="fill:#000000; fill-opacity:0.0; 
stroke:#000000; stroke-width:60; stroke-opacity:1; 
stroke-linecap:round; stroke-linejoin:round;">
<path d="M43310 77960
L43310 78740
" />
</g>
<g style="fill:#000000; fill-opacity:0.0; 
stroke:#000000; stroke-width:100; stroke-opacity:1; 
stroke-linecap:round; stroke-linejoin:round;">
</g>
<g style="fill:#000000; fill-opacity:0.0; 
stroke:#000000; stroke-width:60; stroke-opacity:1; 
stroke-linecap:round; stroke-linejoin:round;">
<path d="M62990 77960
L62990 78740
" />
</g>
<g style="fill:#000000; fill-opacity:0.0; 
stroke:#000000; stroke-width:100; stroke-opacity:1; 
stroke-linecap:round; stroke-linejoin:round;">
</g>
<g style="fill:#000000; fill-opacity:0.0; 
stroke:#000000; stroke-width:60; stroke-opacity:1; 
stroke-linecap:round; stroke-linejoin:round;">
<path d="M82680 77960
L82680 78740
" />
</g>
<g style="fill:#000000; fill-opacity:0.0; 
stroke:#000000; stroke-width:100; stroke-opacity:1; 
stroke-linecap:round; stroke-linejoin:round;">
</g>
<g style="fill:#000000; fill-opacity:0.0; 
stroke:#000000; stroke-width:60; stroke-opacity:1; 
stroke-linecap:round; stroke-linejoin:round;">
<path d="M102360 77960
L102360 78740
" />
</g>
<g style="fill:#000000; fill-opacity:0.0; 
stroke:#000000; stroke-width:100; stroke-opacity:1; 
stroke-linecap:round; stroke-linejoin:round;">
</g>
<g style="fill:#000000; fill-opacity:0.0; 
stroke:#000000; stroke-width:60; stroke-opacity:1; 
stroke-linecap:round; stroke-linejoin:round;">
<path d="M14170 78580
L13880 78580
" />
<path d="M14020 78580
L14020 78070
L13970 78140
L13930 78190
L13880 78210
" />
</g>
<g style="fill:#000000; fill-opacity:0.0; 
stroke:#000000; stroke-width:100; stroke-opacity:1; 
stroke-linecap:round; stroke-linejoin:round;">
</g>
<g style="fill:#000000; fill-opacity:0.0; 
stroke:#000000; stroke-width:60; stroke-opacity:1; 
stroke-linecap:round; stroke-linejoin:round;">
<path d="M33560 78110
L33580 78090
L33630 78070
L33750 78070
L33800 78090
L33820 78110
L33850 78160
L33850 78210
L33820 78280
L33530 78580
L33850 78580
" />
</g>
<g style="fill:#000000; fill-opacity:0.0; 
stroke:#000000; stroke-width:100; stroke-opacity:1; 
stroke-linecap:round; stroke-linejoin:round;">
</g>
<g style="fill:#000000; fill-opacity:0.0; 
stroke:#000000; stroke-width:60; stroke-opacity:1; 
stroke-linecap:round; stroke-linejoin:round;">
<path d="M53220 78070
L53540 78070
L53370 78260
L53440 78260
L53490 78280
L53510 78310
L53540 78360
L53540 78480
L53510 78530
L53490 78550
L53440 78580
L53300 78580
L53250 78550
L53220 78530
" />
</g>
<g style="fill:#000000; fill-opacity:0.0; 
stroke:#000000; stroke-width:100; stroke-opacity:1; 
stroke-linecap:round; stroke-linejoin:round;">
</g>
<g style="fill:#000000; fill-opacity:0.0; 
stroke:#000000; stroke-width:60; stroke-opacity:1; 
stroke-linecap:round; stroke-linejoin:round;">
<path d="M73170 78240
L73170 78580
" />
<path d="M73050 78040
L72930 78410
L73240 78410
" />
</g>
<g style="fill:#000000; fill-opacity:0.0; 
stroke:#000000; stroke-width:100; stroke-opacity:1; 
stroke-linecap:round; stroke-linejoin:round;">
</g>
<g style="fill:#000000; fill-opacity:0.0; 
stroke:#000000; stroke-width:60; stroke-opacity:1; 
stroke-linecap:round; stroke-linejoin:round;">
<path d="M92880 78070
L92640 78070
L92620 78310
L92640 78280
L92690 78260
L92810 78260
L92860 78280
L92880 78310
L92910 78360
L92910 78480
L92880 78530
L92860 78550
L92810 78580
L92690 78580
L92640 78550
L92620 78530
" />
</g>
<g style="fill:#000000; fill-opacity:0.0; 
stroke:#000000; stroke-width:100; stroke-opacity:1; 
stroke-linecap:round; stroke-linejoin:round;">
</g>
<g style="fill:#000000; fill-opacity:0.0; 
stroke:#000000; stroke-width:60; stroke-opacity:1; 
stroke-linecap:round; stroke-linejoin:round;">
<path d="M112540 78070
L112440 78070
L112390 78090
L112370 78110
L112320 78190
L112300 78280
L112300 78480
L112320 78530
L112350 78550
L112390 78580
L112490 78580
L112540 78550
L112560 78530
L112590 78480
L112590 78360
L112560 78310
L112540 78280
L112490 78260
L112390 78260
L112350 78280
L112320 78310
L112300 78360
" />
</g>
<g style="fill:#000000; fill-opacity:0.0; 
stroke:#000000; stroke-width:100; stroke-opacity:1; 
stroke-linecap:round; stroke-linejoin:round;">
</g>
<g style="fill:#000000; fill-opacity:0.0; 
stroke:#000000; stroke-width:60; stroke-opacity:1; 
stroke-linecap:round; stroke-linejoin:round;">
<path d="M3940 23620
L4720 23620
" />
</g>
<g style="fill:#000000; fill-opacity:0.0; 
stroke:#000000; stroke-width:100; stroke-opacity:1; 
stroke-linecap:round; stroke-linejoin:round;">
</g>
<g style="fill:#000000; fill-opacity:0.0; 
stroke:#000000; stroke-width:60; stroke-opacity:1; 
stroke-linecap:round; stroke-linejoin:round;">
<path d="M3940 43310
L4720 43310
" />
</g>
<g style="fill:#000000; fill-opacity:0.0; 
stroke:#000000; stroke-width:100; stroke-opacity:1; 
stroke-linecap:round; stroke-linejoin:round;">
</g>
<g style="fill:#000000; fill-opacity:0.0; 
stroke:#000000; stroke-width:60; stroke-opacity:1; 
stroke-linecap:round; stroke-linejoin:round;">
<path d="M3940 62990
L4720 62990
" />
</g>
<g style="fill:#000000; fill-opacity:0.0; 
stroke:#000000; stroke-width:100; stroke-opacity:1; 
stroke-linecap:round; stroke-linejoin:round;">
</g>
<g style="fill:#000000; fill-opacity:0.0; 
stroke:#000000; stroke-width:60; stroke-opacity:1; 
stroke-linecap:round; stroke-linejoin:round;">
<path d="M4210 13860
L4450 13860
" />
<path d="M4160 14010
L4330 13500
L4500 14010
" />
</g>
<g style="fill:#000000; fill-opacity:0.0; 
stroke:#000000; stroke-width:100; stroke-opacity:1; 
stroke-linecap:round; stroke-linejoin:round;">
</g>
<g style="fill:#000000; fill-opacity:0.0; 
stroke:#000000; stroke-width:60; stroke-opacity:1; 
stroke-linecap:round; stroke-linejoin:round;">
<path d="M4370 33420
L4440 33440
L4470 33470
L4490 33520
L4490 33590
L4470 33640
L4440 33660
L4400 33690
L4200 33690
L4200 33180
L4370 33180
L4420 33200
L4440 33220
L4470 33270
L4470 33320
L4440 33370
L4420 33390
L4370 33420
L4200 33420
" />
</g>
<g style="fill:#000000; fill-opacity:0.0; 
stroke:#000000; stroke-width:100; stroke-opacity:1; 
stroke-linecap:round; stroke-linejoin:round;">
</g>
<g style="fill:#000000; fill-opacity:0.0; 
stroke:#000000; stroke-width:60; stroke-opacity:1; 
stroke-linecap:round; stroke-linejoin:round;">
<path d="M4490 53330
L4470 53350
L4400 53380
L4350 53380
L4270 53350
L4230 53300
L4200 53250
L4180 53160
L4180 53080
L4200 52990
L4230 52940
L4270 52890
L4350 52870
L4400 52870
L4470 52890
L4490 52910
" />
</g>
<g style="fill:#000000; fill-opacity:0.0; 
stroke:#000000; stroke-width:100; stroke-opacity:1; 
stroke-linecap:round; stroke-linejoin:round;">
</g>
<g style="fill:#000000; fill-opacity:0.0; 
stroke:#000000; stroke-width:60; stroke-opacity:1; 
stroke-linecap:round; stroke-linejoin:round;">
<path d="M4200 73060
L4200 72550
L4320 72550
L4400 72570
L4440 72620
L4470 72670
L4490 72760
L4490 72840
L4470 72930
L4440 72980
L4400 73030
L4320 73060
L4200 73060
" />
</g>
<g style="fill:#000000; fill-opacity:0.0; 
stroke:#000000; stroke-width:100; stroke-opacity:1; 
stroke-linecap:round; stroke-linejoin:round;">
</g>
<g style="fill:#000000; fill-opacity:0.0; 
stroke:#000000; stroke-width:60; stroke-opacity:1; 
stroke-linecap:round; stroke-linejoin:round;">
<path d="M112990 23620
L112210 23620
" />
</g>
<g style="fill:#000000; fill-opacity:0.0; 
stroke:#000000; stroke-width:100; stroke-opacity:1; 
stroke-linecap:round; stroke-linejoin:round;">
</g>
<g style="fill:#000000; fill-opacity:0.0; 
stroke:#000000; stroke-width:60; stroke-opacity:1; 
stroke-linecap:round; stroke-linejoin:round;">
<path d="M112990 43310
L112210 43310
" />
</g>
<g style="fill:#000000; fill-opacity:0.0; 
stroke:#000000; stroke-width:100; stroke-opacity:1; 
stroke-linecap:round; stroke-linejoin:round;">
</g>
<g style="fill:#000000; fill-opacity:0.0; 
stroke:#000000; stroke-width:60; stroke-opacity:1; 
stroke-linecap:round; stroke-linejoin:round;">
<path d="M112990 62990
L112210 62990
" />
</g>
<g style="fill:#000000; fill-opacity:0.0; 
stroke:#000000; stroke-width:100; stroke-opacity:1; 
stroke-linecap:round; stroke-linejoin:round;">
</g>
<g style="fill:#000000; fill-opacity:0.0; 
stroke:#000000; stroke-width:60; stroke-opacity:1; 
stroke-linecap:round; stroke-linejoin:round;">
<path d="M112480 13860
L112720 13860
" />
<path d="M112430 14010
L112600 13500
L112770 14010
" />
</g>
<g style="fill:#000000; fill-opacity:0.0; 
stroke:#000000; stroke-width:100; stroke-opacity:1; 
stroke-linecap:round; stroke-linejoin:round;">
</g>
<g style="fill:#000000; fill-opacity:0.0; 
stroke:#000000; stroke-width:60; stroke-opacity:1; 
stroke-linecap:round; stroke-linejoin:round;">
<path d="M112640 33420
L112710 33440
L112740 33470
L112760 33520
L112760 33590
L112740 33640
L112710 33660
L112670 33690
L112470 33690
L112470 33180
L112640 33180
L112690 33200
L112710 33220
L112740 33270
L112740 33320
L112710 33370
L112690 33390
L112640 33420
L112470 33420
" />
</g>
<g style="fill:#000000; fill-opacity:0.0; 
stroke:#000000; stroke-width:100; stroke-opacity:1; 
stroke-linecap:round; stroke-linejoin:round;">
</g>
<g style="fill:#000000; fill-opacity:0.0; 
stroke:#000000; stroke-width:60; stroke-opacity:1; 
stroke-linecap:round; stroke-linejoin:round;">
<path d="M112760 53330
L112740 53350
L112670 53380
L112620 53380
L112540 53350
L112500 53300
L112470 53250
L112450 53160
L112450 53080
L112470 52990
L112500 52940
L112540 52890
L112620 52870
L112670 52870
L112740 52890
L112760 52910
" />
</g>
<g style="fill:#000000; fill-opacity:0.0; 
stroke:#000000; stroke-width:100; stroke-opacity:1; 
stroke-linecap:round; stroke-linejoin:round;">
</g>
<g style="fill:#000000; fill-opacity:0.0; 
stroke:#000000; stroke-width:60; stroke-opacity:1; 
stroke-linecap:round; stroke-linejoin:round;">
<path d="M112470 73060
L112470 72550
L112590 72550
L112670 72570
L112710 72620
L112740 72670
L112760 72760
L112760 72840
L112740 72930
L112710 72980
L112670 73030
L112590 73060
L112470 73060
" />
</g>
<g style="fill:#000000; fill-opacity:0.0; 
stroke:#000000; stroke-width:100; stroke-opacity:1; 
stroke-linecap:round; stroke-linejoin:round;">
</g>
<g style="fill:#000000; fill-opacity:0.0; 
stroke:#000000; stroke-width:60; stroke-opacity:1; 
stroke-linecap:round; stroke-linejoin:round;">
<path d="M78880 76290
L78880 75700
L79020 75700
L79110 75730
L79160 75790
L79190 75840
L79220 75950
L79220 76040
L79190 76150
L79160 76210
L79110 76260
L79020 76290
L78880 76290
" />
<path d="M79720 76290
L79720 75980
L79700 75930
L79640 75900
L79530 75900
L79470 75930
" />
<path d="M79720 76260
L79670 76290
L79530 76290
L79470 76260
L79440 76210
L79440 76150
L79470 76100
L79530 76070
L79670 76070
L79720 76040
" />
<path d="M79920 75900
L80140 75900
" />
<path d="M80000 75700
L80000 76210
L80030 76260
L80080 76290
L80140 76290
" />
<path d="M80570 76260
L80510 76290
L80400 76290
L80340 76260
L80310 76210
L80310 75980
L80340 75930
L80400 75900
L80510 75900
L80570 75930
L80590 75980
L80590 76040
L80310 76100
" />
<path d="M80850 76240
L80880 76260
L80850 76290
L80820 76260
L80850 76240
L80850 76290
" />
<path d="M80850 75930
L80880 75950
L80850 75980
L80820 75950
L80850 75930
L80850 75980
" />
</g>
<g style="fill:#000000; fill-opacity:0.0; 
stroke:#000000; stroke-width:100; stroke-opacity:1; 
stroke-linecap:round; stroke-linejoin:round;">
</g>
<g style="fill:#000000; fill-opacity:0.0; 
stroke:#000000; stroke-width:60; stroke-opacity:1; 
stroke-linecap:round; stroke-linejoin:round;">
<path d="M69690 76580
L112210 76580
" />
</g>
<g style="fill:#000000; fill-opacity:0.0; 
stroke:#000000; stroke-width:100; stroke-opacity:1; 
stroke-linecap:round; stroke-linejoin:round;">
</g>
<g style="fill:#000000; fill-opacity:0.0; 
stroke:#000000; stroke-width:60; stroke-opacity:1; 
stroke-linecap:round; stroke-linejoin:round;">
<path d="M70220 77390
L70220 76800
" />
<path d="M70560 77390
L70300 77050
" />
<path d="M70560 76800
L70220 77140
" />
<path d="M70810 77390
L70810 77000
" />
<path d="M70810 76800
L70780 76830
L70810 76860
L70840 76830
L70810 76800
L70810 76860
" />
<path d="M71430 77340
L71400 77360
L71320 77390
L71260 77390
L71170 77360
L71120 77310
L71090 77250
L71060 77140
L71060 77050
L71090 76940
L71120 76890
L71170 76830
L71260 76800
L71320 76800
L71400 76830
L71430 76860
" />
<path d="M71930 77390
L71930 77080
L71910 77030
L71850 77000
L71740 77000
L71680 77030
" />
<path d="M71930 77360
L71880 77390
L71740 77390
L71680 77360
L71650 77310
L71650 77250
L71680 77200
L71740 77170
L71880 77170
L71930 77140
" />
<path d="M72460 77390
L72460 76800
" />
<path d="M72460 77360
L72410 77390
L72290 77390
L72240 77360
L72210 77340
L72180 77280
L72180 77110
L72210 77050
L72240 77030
L72290 77000
L72410 77000
L72460 77030
" />
<path d="M73190 77080
L73390 77080
" />
<path d="M73470 77390
L73190 77390
L73190 76800
L73470 76800
" />
<path d="M73720 77340
L73750 77360
L73720 77390
L73690 77360
L73720 77340
L73720 77390
" />
<path d="M74000 77390
L74000 76800
L74140 76800
L74230 76830
L74280 76890
L74310 76940
L74340 77050
L74340 77140
L74310 77250
L74280 77310
L74230 77360
L74140 77390
L74000 77390
" />
<path d="M74590 77340
L74620 77360
L74590 77390
L74560 77360
L74590 77340
L74590 77390
" />
<path d="M74840 77220
L75120 77220
" />
<path d="M74790 77390
L74980 76800
L75180 77390
" />
<path d="M75380 77340
L75410 77360
L75380 77390
L75350 77360
L75380 77340
L75380 77390
" />
<path d="M76560 77390
L76560 76800
" />
<path d="M76620 77170
L76790 77390
" />
<path d="M76790 77000
L76560 77220
" />
<path d="M77040 77390
L77040 77000
" />
<path d="M77040 76800
L77010 76830
L77040 76860
L77070 76830
L77040 76800
L77040 76860
" />
<path d="M77570 77360
L77520 77390
L77400 77390
L77350 77360
L77320 77340
L77290 77280
L77290 77110
L77320 77050
L77350 77030
L77400 77000
L77520 77000
L77570 77030
" />
<path d="M78080 77390
L78080 77080
L78060 77030
L78000 77000
L77890 77000
L77830 77030
" />
<path d="M78080 77360
L78030 77390
L77890 77390
L77830 77360
L77800 77310
L77800 77250
L77830 77200
L77890 77170
L78030 77170
L78080 77140
" />
<path d="M78610 77390
L78610 76800
" />
<path d="M78610 77360
L78560 77390
L78440 77390
L78390 77360
L78360 77340
L78330 77280
L78330 77110
L78360 77050
L78390 77030
L78440 77000
L78560 77000
L78610 77030
" />
<path d="M79590 77000
L79590 77390
" />
<path d="M79450 76770
L79310 77200
L79680 77200
" />
<path d="M79900 77340
L79930 77360
L79900 77390
L79870 77360
L79900 77340
L79900 77390
" />
<path d="M80290 76800
L80350 76800
L80410 76830
L80430 76860
L80460 76910
L80490 77030
L80490 77170
L80460 77280
L80430 77340
L80410 77360
L80350 77390
L80290 77390
L80240 77360
L80210 77340
L80180 77280
L80150 77170
L80150 77030
L80180 76910
L80210 76860
L80240 76830
L80290 76800
" />
<path d="M80740 77340
L80770 77360
L80740 77390
L80710 77360
L80740 77340
L80740 77390
" />
<path d="M80990 76860
L81020 76830
L81080 76800
L81220 76800
L81270 76830
L81300 76860
L81330 76910
L81330 76970
L81300 77050
L80960 77390
L81330 77390
" />
<path d="M81580 77170
L82030 77170
" />
<path d="M82280 77360
L82340 77390
L82450 77390
L82510 77360
L82540 77310
L82540 77280
L82510 77220
L82450 77200
L82370 77200
L82310 77170
L82280 77110
L82280 77080
L82310 77030
L82370 77000
L82450 77000
L82510 77030
" />
<path d="M82710 77000
L82930 77000
" />
<path d="M82790 76800
L82790 77310
L82820 77360
L82870 77390
L82930 77390
" />
<path d="M83380 77390
L83380 77080
L83360 77030
L83300 77000
L83190 77000
L83130 77030
" />
<path d="M83380 77360
L83330 77390
L83190 77390
L83130 77360
L83100 77310
L83100 77250
L83130 77200
L83190 77170
L83330 77170
L83380 77140
" />
<path d="M83660 77390
L83660 76800
" />
<path d="M83660 77030
L83720 77000
L83830 77000
L83890 77030
L83910 77050
L83940 77110
L83940 77280
L83910 77340
L83890 77360
L83830 77390
L83720 77390
L83660 77360
" />
<path d="M84270 77390
L84220 77360
L84190 77310
L84190 76800
" />
<path d="M84730 77360
L84670 77390
L84560 77390
L84500 77360
L84470 77310
L84470 77080
L84500 77030
L84560 77000
L84670 77000
L84730 77030
L84750 77080
L84750 77140
L84470 77200
" />
</g>
<g style="fill:#000000; fill-opacity:0.0; 
stroke:#000000; stroke-width:100; stroke-opacity:1; 
stroke-linecap:round; stroke-linejoin:round;">
</g>
<g style="fill:#000000; fill-opacity:0.0; 
stroke:#000000; stroke-width:60; stroke-opacity:1; 
stroke-linecap:round; stroke-linejoin:round;">
<path d="M69690 75400
L112210 75400
" />
</g>
<g style="fill:#000000; fill-opacity:0.0; 
stroke:#000000; stroke-width:100; stroke-opacity:1; 
stroke-linecap:round; stroke-linejoin:round;">
</g>
<g style="fill:#000000; fill-opacity:0.0; 
stroke:#000000; stroke-width:120; stroke-opacity:1; 
stroke-linecap:round; stroke-linejoin:round;">
<path d="M104020 76290
L103820 76010
" />
<path d="M103680 76290
L103680 75700
L103910 75700
L103960 75730
L103990 75760
L104020 75810
L104020 75900
L103990 75950
L103960 75980
L103910 76010
L103680 76010
" />
<path d="M104500 76260
L104440 76290
L104330 76290
L104270 76260
L104240 76210
L104240 75980
L104270 75930
L104330 75900
L104440 75900
L104500 75930
L104520 75980
L104520 76040
L104240 76100
" />
<path d="M104720 75900
L104860 76290
L105010 75900
" />
<path d="M105230 76240
L105260 76260
L105230 76290
L105200 76260
L105230 76240
L105230 76290
" />
<path d="M105230 75930
L105260 75950
L105230 75980
L105200 75950
L105230 75930
L105230 75980
" />
</g>
<g style="fill:#000000; fill-opacity:0.0; 
stroke:#000000; stroke-width:100; stroke-opacity:1; 
stroke-linecap:round; stroke-linejoin:round;">
</g>
<g style="fill:#000000; fill-opacity:0.0; 
stroke:#000000; stroke-width:60; stroke-opacity:1; 
stroke-linecap:round; stroke-linejoin:round;">
<path d="M70190 76260
L70280 76290
L70420 76290
L70470 76260
L70500 76240
L70530 76180
L70530 76120
L70500 76070
L70470 76040
L70420 76010
L70300 75980
L70250 75950
L70220 75930
L70190 75870
L70190 75810
L70220 75760
L70250 75730
L70300 75700
L70450 75700
L70530 75730
" />
<path d="M70780 76290
L70780 75900
" />
<path d="M70780 75700
L70750 75730
L70780 75760
L70810 75730
L70780 75700
L70780 75760
" />
<path d="M71000 75900
L71310 75900
L71000 76290
L71310 76290
" />
<path d="M71770 76260
L71710 76290
L71600 76290
L71540 76260
L71510 76210
L71510 75980
L71540 75930
L71600 75900
L71710 75900
L71770 75930
L71790 75980
L71790 76040
L71510 76100
" />
<path d="M72050 76240
L72080 76260
L72050 76290
L72020 76260
L72050 76240
L72050 76290
" />
<path d="M72050 75930
L72080 75950
L72050 75980
L72020 75950
L72050 75930
L72050 75980
" />
<path d="M72750 76120
L73030 76120
" />
<path d="M72700 76290
L72890 75700
L73090 76290
" />
<path d="M73540 75900
L73540 76290
" />
<path d="M73400 75670
L73260 76100
L73630 76100
" />
</g>
<g style="fill:#000000; fill-opacity:0.0; 
stroke:#000000; stroke-width:100; stroke-opacity:1; 
stroke-linecap:round; stroke-linejoin:round;">
</g>
<g style="fill:#000000; fill-opacity:0.0; 
stroke:#000000; stroke-width:60; stroke-opacity:1; 
stroke-linecap:round; stroke-linejoin:round;">
<path d="M103680 77390
L103680 76800
" />
<path d="M104210 77390
L104210 76800
" />
<path d="M104210 77360
L104160 77390
L104040 77390
L103990 77360
L103960 77340
L103930 77280
L103930 77110
L103960 77050
L103990 77030
L104040 77000
L104160 77000
L104210 77030
" />
<path d="M104490 77340
L104520 77360
L104490 77390
L104460 77360
L104490 77340
L104490 77390
" />
<path d="M104490 77030
L104520 77050
L104490 77080
L104460 77050
L104490 77030
L104490 77080
" />
<path d="M105160 76800
L105530 76800
L105330 77030
L105420 77030
L105470 77050
L105500 77080
L105530 77140
L105530 77280
L105500 77340
L105470 77360
L105420 77390
L105250 77390
L105190 77360
L105160 77340
" />
<path d="M106200 76770
L105700 77530
" />
<path d="M106650 77000
L106650 77390
" />
<path d="M106510 76770
L106370 77200
L106740 77200
" />
</g>
<g style="fill:#000000; fill-opacity:0.0; 
stroke:#000000; stroke-width:100; stroke-opacity:1; 
stroke-linecap:round; stroke-linejoin:round;">
</g>
<g style="fill:#000000; fill-opacity:0.0; 
stroke:#000000; stroke-width:60; stroke-opacity:1; 
stroke-linecap:round; stroke-linejoin:round;">
<path d="M69690 73820
L112210 73820
" />
</g>
<g style="fill:#000000; fill-opacity:0.0; 
stroke:#000000; stroke-width:100; stroke-opacity:1; 
stroke-linecap:round; stroke-linejoin:round;">
</g>
<g style="fill:#000000; fill-opacity:0.0; 
stroke:#000000; stroke-width:160; stroke-opacity:1; 
stroke-linecap:round; stroke-linejoin:round;">
<path d="M70260 74090
L70710 74090
" />
<path d="M70390 74880
L70480 74090
" />
<path d="M70880 74880
L70940 74360
" />
<path d="M70970 74090
L70930 74130
L70960 74170
L71010 74130
L70970 74090
L70960 74170
" />
<path d="M71210 74360
L71510 74360
" />
<path d="M71350 74090
L71270 74770
L71300 74840
L71370 74880
L71450 74880
" />
<path d="M71820 74880
L71750 74840
L71720 74770
L71800 74090
" />
<path d="M72420 74840
L72340 74880
L72190 74880
L72120 74840
L72090 74770
L72130 74470
L72180 74390
L72250 74360
L72400 74360
L72480 74390
L72510 74470
L72500 74540
L72110 74620
" />
<path d="M72800 74810
L72840 74840
L72800 74880
L72760 74840
L72800 74810
L72800 74880
" />
<path d="M72860 74390
L72890 74430
L72850 74470
L72810 74430
L72860 74390
L72850 74470
" />
</g>
<g style="fill:#000000; fill-opacity:0.0; 
stroke:#000000; stroke-width:100; stroke-opacity:1; 
stroke-linecap:round; stroke-linejoin:round;">
</g>
<g style="fill:#000000; fill-opacity:0.0; 
stroke:#000000; stroke-width:60; stroke-opacity:1; 
stroke-linecap:round; stroke-linejoin:round;">
<path d="M70420 73060
L70220 73060
" />
<path d="M70220 73370
L70220 72780
L70500 72780
" />
<path d="M70730 73370
L70730 72980
" />
<path d="M70730 72780
L70700 72810
L70730 72840
L70760 72810
L70730 72780
L70730 72840
" />
<path d="M71090 73370
L71040 73340
L71010 73290
L71010 72780
" />
<path d="M71550 73340
L71490 73370
L71380 73370
L71320 73340
L71290 73290
L71290 73060
L71320 73010
L71380 72980
L71490 72980
L71550 73010
L71570 73060
L71570 73120
L71290 73180
" />
<path d="M71830 73320
L71860 73340
L71830 73370
L71800 73340
L71830 73320
L71830 73370
" />
<path d="M71830 73010
L71860 73030
L71830 73060
L71800 73030
L71830 73010
L71830 73060
" />
<path d="M72530 73340
L72620 73370
L72760 73370
L72810 73340
L72840 73320
L72870 73260
L72870 73200
L72840 73150
L72810 73120
L72760 73090
L72640 73060
L72590 73030
L72560 73010
L72530 72950
L72530 72890
L72560 72840
L72590 72810
L72640 72780
L72790 72780
L72870 72810
" />
<path d="M73120 72980
L73120 73570
" />
<path d="M73120 73010
L73180 72980
L73290 72980
L73350 73010
L73370 73030
L73400 73090
L73400 73260
L73370 73320
L73350 73340
L73290 73370
L73180 73370
L73120 73340
" />
<path d="M73880 73340
L73820 73370
L73710 73370
L73650 73340
L73620 73290
L73620 73060
L73650 73010
L73710 72980
L73820 72980
L73880 73010
L73900 73060
L73900 73120
L73620 73180
" />
<path d="M74100 73370
L74410 72980
" />
<path d="M74100 72980
L74410 73370
" />
<path d="M74640 73370
L74640 72780
L74870 72780
L74920 72810
L74950 72840
L74980 72890
L74980 72980
L74950 73030
L74920 73060
L74870 73090
L74640 73090
" />
<path d="M75310 73370
L75260 73340
L75230 73320
L75200 73260
L75200 73090
L75230 73030
L75260 73010
L75310 72980
L75400 72980
L75460 73010
L75480 73030
L75510 73090
L75510 73260
L75480 73320
L75460 73340
L75400 73370
L75310 73370
" />
<path d="M75700 72980
L75820 73370
L75930 73090
L76040 73370
L76150 72980
" />
<path d="M76610 73340
L76550 73370
L76440 73370
L76380 73340
L76350 73290
L76350 73060
L76380 73010
L76440 72980
L76550 72980
L76610 73010
L76630 73060
L76630 73120
L76350 73180
" />
<path d="M76890 73370
L76890 72980
" />
<path d="M76890 73090
L76920 73030
L76950 73010
L77000 72980
L77060 72980
" />
<path d="M77460 73060
L77540 73090
L77570 73120
L77600 73180
L77600 73260
L77570 73320
L77540 73340
L77490 73370
L77260 73370
L77260 72780
L77460 72780
L77510 72810
L77540 72840
L77570 72890
L77570 72950
L77540 73010
L77510 73030
L77460 73060
L77260 73060
" />
<path d="M77930 73370
L77880 73340
L77850 73320
L77820 73260
L77820 73090
L77850 73030
L77880 73010
L77930 72980
L78020 72980
L78080 73010
L78100 73030
L78130 73090
L78130 73260
L78100 73320
L78080 73340
L78020 73370
L77930 73370
" />
<path d="M78630 73370
L78630 73060
L78610 73010
L78550 72980
L78440 72980
L78380 73010
" />
<path d="M78630 73340
L78580 73370
L78440 73370
L78380 73340
L78350 73290
L78350 73230
L78380 73180
L78440 73150
L78580 73150
L78630 73120
" />
<path d="M78910 73370
L78910 72980
" />
<path d="M78910 73090
L78940 73030
L78970 73010
L79020 72980
L79080 72980
" />
<path d="M79530 73370
L79530 72780
" />
<path d="M79530 73340
L79480 73370
L79360 73370
L79310 73340
L79280 73320
L79250 73260
L79250 73090
L79280 73030
L79310 73010
L79360 72980
L79480 72980
L79530 73010
" />
<path d="M79810 73320
L79840 73340
L79810 73370
L79780 73340
L79810 73320
L79810 73370
" />
<path d="M80060 73340
L80120 73370
L80230 73370
L80290 73340
L80320 73290
L80320 73260
L80290 73200
L80230 73180
L80150 73180
L80090 73150
L80060 73090
L80060 73060
L80090 73010
L80150 72980
L80230 72980
L80290 73010
" />
<path d="M80820 73340
L80770 73370
L80650 73370
L80600 73340
L80570 73320
L80540 73260
L80540 73090
L80570 73030
L80600 73010
L80650 72980
L80770 72980
L80820 73010
" />
<path d="M81080 73370
L81080 72780
" />
<path d="M81330 73370
L81330 73060
L81310 73010
L81250 72980
L81160 72980
L81110 73010
L81080 73030
" />
</g>
<g style="fill:#000000; fill-opacity:0.0; 
stroke:#000000; stroke-width:100; stroke-opacity:1; 
stroke-linecap:round; stroke-linejoin:round;">
</g>
<g style="fill:#000000; fill-opacity:0.0; 
stroke:#000000; stroke-width:60; stroke-opacity:1; 
stroke-linecap:round; stroke-linejoin:round;">
<path d="M69690 71460
L112210 71460
" />
</g>
<g style="fill:#000000; fill-opacity:0.0; 
stroke:#000000; stroke-width:100; stroke-opacity:1; 
stroke-linecap:round; stroke-linejoin:round;">
</g>
<g style="fill:#000000; fill-opacity:0.0; 
stroke:#000000; stroke-width:60; stroke-opacity:1; 
stroke-linecap:round; stroke-linejoin:round;">
<path d="M70190 72280
L70280 72310
L70420 72310
L70470 72280
L70500 72260
L70530 72200
L70530 72140
L70500 72090
L70470 72060
L70420 72030
L70300 72000
L70250 71970
L70220 71950
L70190 71890
L70190 71830
L70220 71780
L70250 71750
L70300 71720
L70450 71720
L70530 71750
" />
<path d="M70780 72310
L70780 71720
" />
<path d="M71030 72310
L71030 72000
L71010 71950
L70950 71920
L70860 71920
L70810 71950
L70780 71970
" />
<path d="M71540 72280
L71480 72310
L71370 72310
L71310 72280
L71280 72230
L71280 72000
L71310 71950
L71370 71920
L71480 71920
L71540 71950
L71560 72000
L71560 72060
L71280 72120
" />
<path d="M72050 72280
L71990 72310
L71880 72310
L71820 72280
L71790 72230
L71790 72000
L71820 71950
L71880 71920
L71990 71920
L72050 71950
L72070 72000
L72070 72060
L71790 72120
" />
<path d="M72250 71920
L72470 71920
" />
<path d="M72330 71720
L72330 72230
L72360 72280
L72410 72310
L72470 72310
" />
<path d="M72670 72260
L72700 72280
L72670 72310
L72640 72280
L72670 72260
L72670 72310
" />
<path d="M72670 71950
L72700 71970
L72670 72000
L72640 71970
L72670 71950
L72670 72000
" />
<path d="M73820 71690
L73320 72450
" />
<path d="M74020 72310
L74020 71720
L74250 71720
L74300 71750
L74330 71780
L74360 71830
L74360 71920
L74330 71970
L74300 72000
L74250 72030
L74020 72030
" />
<path d="M74690 72310
L74640 72280
L74610 72260
L74580 72200
L74580 72030
L74610 71970
L74640 71950
L74690 71920
L74780 71920
L74840 71950
L74860 71970
L74890 72030
L74890 72200
L74860 72260
L74840 72280
L74780 72310
L74690 72310
" />
<path d="M75080 71920
L75200 72310
L75310 72030
L75420 72310
L75530 71920
" />
<path d="M75990 72280
L75930 72310
L75820 72310
L75760 72280
L75730 72230
L75730 72000
L75760 71950
L75820 71920
L75930 71920
L75990 71950
L76010 72000
L76010 72060
L75730 72120
" />
<path d="M76270 72310
L76270 71920
" />
<path d="M76270 72030
L76300 71970
L76330 71950
L76380 71920
L76440 71920
" />
<path d="M77090 72310
L77090 71720
L77230 71720
L77320 71750
L77370 71810
L77400 71860
L77430 71970
L77430 72060
L77400 72170
L77370 72230
L77320 72280
L77230 72310
L77090 72310
" />
<path d="M77680 72310
L77680 71920
" />
<path d="M77680 71720
L77650 71750
L77680 71780
L77710 71750
L77680 71720
L77680 71780
" />
<path d="M77930 72280
L77990 72310
L78100 72310
L78160 72280
L78190 72230
L78190 72200
L78160 72140
L78100 72120
L78020 72120
L77960 72090
L77930 72030
L77930 72000
L77960 71950
L78020 71920
L78100 71920
L78160 71950
" />
<path d="M78360 71920
L78580 71920
" />
<path d="M78440 71720
L78440 72230
L78470 72280
L78520 72310
L78580 72310
" />
<path d="M78780 72310
L78780 71920
" />
<path d="M78780 72030
L78810 71970
L78840 71950
L78890 71920
L78950 71920
" />
<path d="M79150 72310
L79150 71920
" />
<path d="M79150 71720
L79120 71750
L79150 71780
L79180 71750
L79150 71720
L79150 71780
" />
<path d="M79430 72310
L79430 71720
" />
<path d="M79430 71950
L79490 71920
L79600 71920
L79660 71950
L79680 71970
L79710 72030
L79710 72200
L79680 72260
L79660 72280
L79600 72310
L79490 72310
L79430 72280
" />
<path d="M80210 71920
L80210 72310
" />
<path d="M79960 71920
L79960 72230
L79990 72280
L80040 72310
L80130 72310
L80190 72280
L80210 72260
" />
<path d="M80410 71920
L80630 71920
" />
<path d="M80490 71720
L80490 72230
L80520 72280
L80570 72310
L80630 72310
" />
<path d="M80830 72310
L80830 71920
" />
<path d="M80830 71720
L80800 71750
L80830 71780
L80860 71750
L80830 71720
L80830 71780
" />
<path d="M81190 72310
L81140 72280
L81110 72260
L81080 72200
L81080 72030
L81110 71970
L81140 71950
L81190 71920
L81280 71920
L81340 71950
L81360 71970
L81390 72030
L81390 72200
L81360 72260
L81340 72280
L81280 72310
L81190 72310
" />
<path d="M81640 71920
L81640 72310
" />
<path d="M81640 71970
L81670 71950
L81720 71920
L81810 71920
L81870 71950
L81890 72000
L81890 72310
" />
<path d="M82590 71690
L82090 72450
" />
</g>
<g style="fill:#000000; fill-opacity:0.0; 
stroke:#000000; stroke-width:100; stroke-opacity:1; 
stroke-linecap:round; stroke-linejoin:round;">
</g>
<g style="fill:#000000; fill-opacity:0.0; 
stroke:#000000; stroke-width:60; stroke-opacity:1; 
stroke-linecap:round; stroke-linejoin:round;">
<path d="M77560 75400
L77560 76580
" />
</g>
<g style="fill:#000000; fill-opacity:0.0; 
stroke:#000000; stroke-width:100; stroke-opacity:1; 
stroke-linecap:round; stroke-linejoin:round;">
</g>
<g style="fill:#000000; fill-opacity:0.0; 
stroke:#000000; stroke-width:60; stroke-opacity:1; 
stroke-linecap:round; stroke-linejoin:round;">
<path d="M102760 75400
L102760 77960
" />
<path d="M16660 7670
L16860 8270
L17060 7670
" />
<path d="M17450 7960
L17540 7990
L17570 8010
L17600 8070
L17600 8160
L17570 8210
L17540 8240
L17480 8270
L17250 8270
L17250 7670
L17450 7670
L17510 7700
L17540 7730
L17570 7790
L17570 7840
L17540 7900
L17510 7930
L17450 7960
L17250 7960
" />
<path d="M18110 7870
L18110 8270
" />
<path d="M17850 7870
L17850 8190
L17880 8240
L17940 8270
L18020 8270
L18080 8240
L18110 8210
" />
<path d="M18360 8240
L18420 8270
L18540 8270
L18590 8240
L18620 8190
L18620 8160
L18590 8100
L18540 8070
L18450 8070
L18390 8040
L18360 7990
L18360 7960
L18390 7900
L18450 7870
L18540 7870
L18590 7900
" />
</g>
<g style="fill:#000000; fill-opacity:0.0; 
stroke:#000000; stroke-width:100; stroke-opacity:1; 
stroke-linecap:round; stroke-linejoin:round;">
<polyline fill="none;"
points="19500,8000
19200,7700
18900,7700
18900,8300
19200,8300
19500,8000
" /> 
</g>
<g style="fill:#000000; fill-opacity:0.0; 
stroke:#000000; stroke-width:60; stroke-opacity:1; 
stroke-linecap:round; stroke-linejoin:round;">
<path d="M16810 8670
L17010 9270
L17210 8670
" />
<path d="M17600 8960
L17690 8990
L17720 9010
L17750 9070
L17750 9160
L17720 9210
L17690 9240
L17630 9270
L17400 9270
L17400 8670
L17600 8670
L17660 8700
L17690 8730
L17720 8790
L17720 8840
L17690 8900
L17660 8930
L17600 8960
L17400 8960
" />
<path d="M18260 9270
L18260 8960
L18230 8900
L18170 8870
L18060 8870
L18000 8900
" />
<path d="M18260 9240
L18200 9270
L18060 9270
L18000 9240
L17970 9190
L17970 9130
L18000 9070
L18060 9040
L18200 9040
L18260 9010
" />
<path d="M18460 8870
L18690 8870
" />
<path d="M18540 8670
L18540 9190
L18570 9240
L18630 9270
L18690 9270
" />
</g>
<g style="fill:#000000; fill-opacity:0.0; 
stroke:#000000; stroke-width:100; stroke-opacity:1; 
stroke-linecap:round; stroke-linejoin:round;">
<polyline fill="none;"
points="19500,9000
19200,8700
18900,8700
18900,9300
19200,9300
19500,9000
" /> 
</g>
<g style="fill:#000000; fill-opacity:0.0; 
stroke:#000000; stroke-width:60; stroke-opacity:1; 
stroke-linecap:round; stroke-linejoin:round;">
<path d="M15720 9960
L15810 9990
L15840 10010
L15870 10070
L15870 10160
L15840 10210
L15810 10240
L15750 10270
L15520 10270
L15520 9670
L15720 9670
L15780 9700
L15810 9730
L15840 9790
L15840 9840
L15810 9900
L15780 9930
L15720 9960
L15520 9960
" />
<path d="M16380 10270
L16380 9960
L16350 9900
L16290 9870
L16180 9870
L16120 9900
" />
<path d="M16380 10240
L16320 10270
L16180 10270
L16120 10240
L16090 10190
L16090 10130
L16120 10070
L16180 10040
L16320 10040
L16380 10010
" />
<path d="M16580 9870
L16810 9870
" />
<path d="M16660 9670
L16660 10190
L16690 10240
L16750 10270
L16810 10270
" />
<path d="M17320 10270
L16970 10270
" />
<path d="M17150 10270
L17150 9670
L17090 9760
L17030 9810
L16970 9840
" />
<path d="M17570 10040
L18030 10040
" />
<path d="M18280 9730
L18310 9700
L18370 9670
L18510 9670
L18570 9700
L18600 9730
L18630 9790
L18630 9840
L18600 9930
L18260 10270
L18630 10270
" />
</g>
<g style="fill:#000000; fill-opacity:0.0; 
stroke:#000000; stroke-width:100; stroke-opacity:1; 
stroke-linecap:round; stroke-linejoin:round;">
<polyline fill="none;"
points="19500,10000
19200,9700
18900,9700
18900,10300
19200,10300
19500,10000
" /> 
</g>
<g style="fill:#000000; fill-opacity:0.0; 
stroke:#000000; stroke-width:60; stroke-opacity:1; 
stroke-linecap:round; stroke-linejoin:round;">
<path d="M15720 10960
L15810 10990
L15840 11010
L15870 11070
L15870 11160
L15840 11210
L15810 11240
L15750 11270
L15520 11270
L15520 10670
L15720 10670
L15780 10700
L15810 10730
L15840 10790
L15840 10840
L15810 10900
L15780 10930
L15720 10960
L15520 10960
" />
<path d="M16380 11270
L16380 10960
L16350 10900
L16290 10870
L16180 10870
L16120 10900
" />
<path d="M16380 11240
L16320 11270
L16180 11270
L16120 11240
L16090 11190
L16090 11130
L16120 11070
L16180 11040
L16320 11040
L16380 11010
" />
<path d="M16580 10870
L16810 10870
" />
<path d="M16660 10670
L16660 11190
L16690 11240
L16750 11270
L16810 11270
" />
<path d="M16970 10730
L17000 10700
L17060 10670
L17200 10670
L17260 10700
L17290 10730
L17320 10790
L17320 10840
L17290 10930
L16950 11270
L17320 11270
" />
<path d="M17570 11040
L18030 11040
" />
<path d="M18260 10670
L18630 10670
L18430 10900
L18510 10900
L18570 10930
L18600 10960
L18630 11010
L18630 11160
L18600 11210
L18570 11240
L18510 11270
L18340 11270
L18280 11240
L18260 11210
" />
</g>
<g style="fill:#000000; fill-opacity:0.0; 
stroke:#000000; stroke-width:100; stroke-opacity:1; 
stroke-linecap:round; stroke-linejoin:round;">
<polyline fill="none;"
points="19500,11000
19200,10700
18900,10700
18900,11300
19200,11300
19500,11000
" /> 
</g>
<g style="fill:#000000; fill-opacity:0.0; 
stroke:#000000; stroke-width:60; stroke-opacity:1; 
stroke-linecap:round; stroke-linejoin:round;">
<path d="M15920 11960
L16010 11990
L16040 12010
L16070 12070
L16070 12160
L16040 12210
L16010 12240
L15950 12270
L15720 12270
L15720 11670
L15920 11670
L15980 11700
L16010 11730
L16040 11790
L16040 11840
L16010 11900
L15980 11930
L15920 11960
L15720 11960
" />
<path d="M16580 12270
L16580 11960
L16550 11900
L16490 11870
L16380 11870
L16320 11900
" />
<path d="M16580 12240
L16520 12270
L16380 12270
L16320 12240
L16290 12190
L16290 12130
L16320 12070
L16380 12040
L16520 12040
L16580 12010
" />
<path d="M16780 11870
L17010 11870
" />
<path d="M16860 11670
L16860 12190
L16890 12240
L16950 12270
L17010 12270
" />
<path d="M17520 11700
L17460 11670
L17370 11670
L17290 11700
L17230 11760
L17200 11810
L17170 11930
L17170 12010
L17200 12130
L17230 12190
L17290 12240
L17370 12270
L17430 12270
L17520 12240
L17550 12210
L17550 12010
L17430 12010
" />
<path d="M17800 11870
L17800 12270
" />
<path d="M17800 11930
L17830 11900
L17890 11870
L17970 11870
L18030 11900
L18060 11960
L18060 12270
" />
<path d="M18600 12270
L18600 11670
" />
<path d="M18600 12240
L18540 12270
L18430 12270
L18370 12240
L18340 12210
L18310 12160
L18310 11990
L18340 11930
L18370 11900
L18430 11870
L18540 11870
L18600 11900
" />
</g>
<g style="fill:#000000; fill-opacity:0.0; 
stroke:#000000; stroke-width:100; stroke-opacity:1; 
stroke-linecap:round; stroke-linejoin:round;">
<polyline fill="none;"
points="19500,12000
19200,11700
18900,11700
18900,12300
19200,12300
19500,12000
" /> 
</g>
<g style="fill:#000000; fill-opacity:0.0; 
stroke:#000000; stroke-width:60; stroke-opacity:1; 
stroke-linecap:round; stroke-linejoin:round;">
<path d="M15430 14270
L15430 13670
L15660 13670
L15720 13700
L15750 13730
L15780 13790
L15780 13870
L15750 13930
L15720 13960
L15660 13990
L15430 13990
" />
<path d="M16120 14270
L16060 14240
L16030 14210
L16000 14160
L16000 13990
L16030 13930
L16060 13900
L16120 13870
L16200 13870
L16260 13900
L16290 13930
L16320 13990
L16320 14160
L16290 14210
L16260 14240
L16200 14270
L16120 14270
" />
<path d="M16520 13870
L16630 14270
L16740 13990
L16860 14270
L16970 13870
" />
<path d="M17170 14240
L17260 14270
L17400 14270
L17460 14240
L17490 14210
L17520 14160
L17520 14100
L17490 14040
L17460 14010
L17400 13990
L17290 13960
L17230 13930
L17200 13900
L17170 13840
L17170 13790
L17200 13730
L17230 13700
L17290 13670
L17430 13670
L17520 13700
" />
<path d="M17770 14270
L17770 13670
L17920 13670
L18000 13700
L18060 13760
L18090 13810
L18120 13930
L18120 14010
L18090 14130
L18060 14190
L18000 14240
L17920 14270
L17770 14270
" />
<path d="M18340 14100
L18630 14100
" />
<path d="M18290 14270
L18490 13670
L18690 14270
" />
</g>
<g style="fill:#000000; fill-opacity:0.0; 
stroke:#000000; stroke-width:100; stroke-opacity:1; 
stroke-linecap:round; stroke-linejoin:round;">
<polyline fill="none;"
points="19500,14000
19200,13700
18900,13700
18900,14300
19200,14300
19500,14000
" /> 
</g>
<g style="fill:#000000; fill-opacity:0.0; 
stroke:#000000; stroke-width:60; stroke-opacity:1; 
stroke-linecap:round; stroke-linejoin:round;">
<path d="M15450 15270
L15450 14670
L15680 14670
L15740 14700
L15770 14730
L15800 14790
L15800 14870
L15770 14930
L15740 14960
L15680 14990
L15450 14990
" />
<path d="M16140 15270
L16080 15240
L16050 15210
L16020 15160
L16020 14990
L16050 14930
L16080 14900
L16140 14870
L16220 14870
L16280 14900
L16310 14930
L16340 14990
L16340 15160
L16310 15210
L16280 15240
L16220 15270
L16140 15270
" />
<path d="M16540 14870
L16650 15270
L16760 14990
L16880 15270
L16990 14870
" />
<path d="M17190 15240
L17280 15270
L17420 15270
L17480 15240
L17510 15210
L17540 15160
L17540 15100
L17510 15040
L17480 15010
L17420 14990
L17310 14960
L17250 14930
L17220 14900
L17190 14840
L17190 14790
L17220 14730
L17250 14700
L17310 14670
L17450 14670
L17540 14700
" />
<path d="M18140 15210
L18110 15240
L18020 15270
L17960 15270
L17880 15240
L17820 15190
L17790 15130
L17760 15010
L17760 14930
L17790 14810
L17820 14760
L17880 14700
L17960 14670
L18020 14670
L18110 14700
L18140 14730
" />
<path d="M18680 15270
L18390 15270
L18390 14670
" />
</g>
<g style="fill:#000000; fill-opacity:0.0; 
stroke:#000000; stroke-width:100; stroke-opacity:1; 
stroke-linecap:round; stroke-linejoin:round;">
<polyline fill="none;"
points="19500,15000
19200,14700
18900,14700
18900,15300
19200,15300
19500,15000
" /> 
</g>
<g style="fill:#000000; fill-opacity:0.0; 
stroke:#000000; stroke-width:60; stroke-opacity:1; 
stroke-linecap:round; stroke-linejoin:round;">
<path d="M15590 16270
L15590 15670
L15820 15670
L15880 15700
L15910 15730
L15940 15790
L15940 15870
L15910 15930
L15880 15960
L15820 15990
L15590 15990
" />
<path d="M16280 16270
L16220 16240
L16190 16210
L16160 16160
L16160 15990
L16190 15930
L16220 15900
L16280 15870
L16360 15870
L16420 15900
L16450 15930
L16480 15990
L16480 16160
L16450 16210
L16420 16240
L16360 16270
L16280 16270
" />
<path d="M16680 15870
L16790 16270
L16900 15990
L17020 16270
L17130 15870
" />
<path d="M17360 16270
L17360 15670
" />
<path d="M18000 16270
L17800 15990
" />
<path d="M17650 16270
L17650 15670
L17880 15670
L17940 15700
L17970 15730
L18000 15790
L18000 15870
L17970 15930
L17940 15960
L17880 15990
L17650 15990
" />
<path d="M18650 16330
L18600 16300
L18540 16240
L18450 16160
L18400 16130
L18340 16130
" />
<path d="M18370 16270
L18310 16240
L18250 16190
L18220 16070
L18220 15870
L18250 15760
L18310 15700
L18370 15670
L18480 15670
L18540 15700
L18600 15760
L18620 15870
L18620 16070
L18600 16190
L18540 16240
L18480 16270
L18370 16270
" />
</g>
<g style="fill:#000000; fill-opacity:0.0; 
stroke:#000000; stroke-width:100; stroke-opacity:1; 
stroke-linecap:round; stroke-linejoin:round;">
<polyline fill="none;"
points="19500,16000
19200,15700
18900,15700
18900,16300
19200,16300
19500,16000
" /> 
</g>
<g style="fill:#000000; fill-opacity:0.0; 
stroke:#000000; stroke-width:60; stroke-opacity:1; 
stroke-linecap:round; stroke-linejoin:round;">
<path d="M15720 17670
L16090 17670
L15890 17900
L15970 17900
L16030 17930
L16060 17960
L16090 18010
L16090 18160
L16060 18210
L16030 18240
L15970 18270
L15800 18270
L15740 18240
L15720 18210
" />
<path d="M16290 17870
L16430 18270
L16570 17870
" />
<path d="M16750 17670
L17120 17670
L16920 17900
L17000 17900
L17060 17930
L17090 17960
L17120 18010
L17120 18160
L17090 18210
L17060 18240
L17000 18270
L16830 18270
L16770 18240
L16750 18210
" />
<path d="M17490 17670
L17600 17670
L17660 17700
L17720 17760
L17740 17870
L17740 18070
L17720 18190
L17660 18240
L17600 18270
L17490 18270
L17430 18240
L17370 18190
L17340 18070
L17340 17870
L17370 17760
L17430 17700
L17490 17670
" />
<path d="M18260 17870
L18260 18270
" />
<path d="M18000 17870
L18000 18190
L18030 18240
L18090 18270
L18170 18270
L18230 18240
L18260 18210
" />
<path d="M18460 17870
L18690 17870
" />
<path d="M18540 17670
L18540 18190
L18570 18240
L18630 18270
L18690 18270
" />
</g>
<g style="fill:#000000; fill-opacity:0.0; 
stroke:#000000; stroke-width:100; stroke-opacity:1; 
stroke-linecap:round; stroke-linejoin:round;">
<polyline fill="none;"
points="19500,18000
19200,17700
18900,17700
18900,18300
19200,18300
19500,18000
" /> 
</g>
<g style="fill:#000000; fill-opacity:0.0; 
stroke:#000000; stroke-width:60; stroke-opacity:1; 
stroke-linecap:round; stroke-linejoin:round;">
<path d="M15550 18670
L15920 18670
L15720 18900
L15800 18900
L15860 18930
L15890 18960
L15920 19010
L15920 19160
L15890 19210
L15860 19240
L15800 19270
L15630 19270
L15570 19240
L15550 19210
" />
<path d="M16120 18870
L16260 19270
L16400 18870
" />
<path d="M16580 18670
L16950 18670
L16750 18900
L16830 18900
L16890 18930
L16920 18960
L16950 19010
L16950 19160
L16920 19210
L16890 19240
L16830 19270
L16660 19270
L16600 19240
L16580 19210
" />
<path d="M17520 18700
L17460 18670
L17370 18670
L17290 18700
L17230 18760
L17200 18810
L17170 18930
L17170 19010
L17200 19130
L17230 19190
L17290 19240
L17370 19270
L17430 19270
L17520 19240
L17550 19210
L17550 19010
L17430 19010
" />
<path d="M17800 18870
L17800 19270
" />
<path d="M17800 18930
L17830 18900
L17890 18870
L17970 18870
L18030 18900
L18060 18960
L18060 19270
" />
<path d="M18600 19270
L18600 18670
" />
<path d="M18600 19240
L18540 19270
L18430 19270
L18370 19240
L18340 19210
L18310 19160
L18310 18990
L18340 18930
L18370 18900
L18430 18870
L18540 18870
L18600 18900
" />
</g>
<g style="fill:#000000; fill-opacity:0.0; 
stroke:#000000; stroke-width:100; stroke-opacity:1; 
stroke-linecap:round; stroke-linejoin:round;">
<polyline fill="none;"
points="19500,19000
19200,18700
18900,18700
18900,19300
19200,19300
19500,19000
" /> 
</g>
<g style="fill:#000000; fill-opacity:0.0; 
stroke:#000000; stroke-width:0; stroke-opacity:1; 
stroke-linecap:round; stroke-linejoin:round;">
</g>
<g style="fill:#000000; fill-opacity:0.0; 
stroke:#000000; stroke-width:100; stroke-opacity:1; 
stroke-linecap:round; stroke-linejoin:round;">
<rect x="20500" y="7600" width="2000" height="800" rx="0" />
</g>
<g style="fill:#000000; fill-opacity:0.0; 
stroke:#000000; stroke-width:60; stroke-opacity:1; 
stroke-linecap:round; stroke-linejoin:round;">
<path d="M22500 8000
L23000 8000
" />
<path d="M20500 8000
L20000 8000
" />
<path d="M21170 9000
L21010 8760
" />
<path d="M20890 9000
L20890 8500
L21080 8500
L21130 8520
L21150 8540
L21170 8590
L21170 8660
L21150 8710
L21130 8730
L21080 8760
L20890 8760
" />
<path d="M21650 9000
L21370 9000
" />
<path d="M21510 9000
L21510 8500
L21460 8570
L21410 8620
L21370 8640
" />
<path d="M21940 8710
L21890 8690
L21870 8660
L21850 8620
L21850 8590
L21870 8540
L21890 8520
L21940 8500
L22040 8500
L22080 8520
L22110 8540
L22130 8590
L22130 8620
L22110 8660
L22080 8690
L22040 8710
L21940 8710
L21890 8730
L21870 8760
L21850 8810
L21850 8900
L21870 8950
L21890 8970
L21940 9000
L22040 9000
L22080 8970
L22110 8950
L22130 8900
L22130 8810
L22110 8760
L22080 8730
L22040 8710
" />
<path d="M21650 8200
L21490 7960
" />
<path d="M21370 8200
L21370 7700
L21560 7700
L21610 7720
L21630 7740
L21650 7790
L21650 7860
L21630 7910
L21610 7930
L21560 7960
L21370 7960
" />
</g>
<g style="fill:#000000; fill-opacity:0.0; 
stroke:#000000; stroke-width:0; stroke-opacity:1; 
stroke-linecap:round; stroke-linejoin:round;">
</g>
<g style="fill:#000000; fill-opacity:0.0; 
stroke:#000000; stroke-width:100; stroke-opacity:1; 
stroke-linecap:round; stroke-linejoin:round;">
<rect x="20500" y="8600" width="2000" height="800" rx="0" />
</g>
<g style="fill:#000000; fill-opacity:0.0; 
stroke:#000000; stroke-width:60; stroke-opacity:1; 
stroke-linecap:round; stroke-linejoin:round;">
<path d="M22500 9000
L23000 9000
" />
<path d="M20500 9000
L20000 9000
" />
<path d="M21170 10000
L21010 9760
" />
<path d="M20890 10000
L20890 9500
L21080 9500
L21130 9520
L21150 9540
L21170 9590
L21170 9660
L21150 9710
L21130 9730
L21080 9760
L20890 9760
" />
<path d="M21650 10000
L21370 10000
" />
<path d="M21510 10000
L21510 9500
L21460 9570
L21410 9620
L21370 9640
" />
<path d="M21890 10000
L21990 10000
L22040 9970
L22060 9950
L22110 9880
L22130 9780
L22130 9590
L22110 9540
L22080 9520
L22040 9500
L21940 9500
L21890 9520
L21870 9540
L21850 9590
L21850 9710
L21870 9760
L21890 9780
L21940 9810
L22040 9810
L22080 9780
L22110 9760
L22130 9710
" />
<path d="M21650 9200
L21490 8960
" />
<path d="M21370 9200
L21370 8700
L21560 8700
L21610 8720
L21630 8740
L21650 8790
L21650 8860
L21630 8910
L21610 8930
L21560 8960
L21370 8960
" />
</g>
<g style="fill:#000000; fill-opacity:0.0; 
stroke:#000000; stroke-width:0; stroke-opacity:1; 
stroke-linecap:round; stroke-linejoin:round;">
</g>
<g style="fill:#000000; fill-opacity:0.0; 
stroke:#000000; stroke-width:100; stroke-opacity:1; 
stroke-linecap:round; stroke-linejoin:round;">
<rect x="20500" y="9600" width="2000" height="800" rx="0" />
</g>
<g style="fill:#000000; fill-opacity:0.0; 
stroke:#000000; stroke-width:60; stroke-opacity:1; 
stroke-linecap:round; stroke-linejoin:round;">
<path d="M22500 10000
L23000 10000
" />
<path d="M20500 10000
L20000 10000
" />
<path d="M21170 11000
L21010 10760
" />
<path d="M20890 11000
L20890 10500
L21080 10500
L21130 10520
L21150 10540
L21170 10590
L21170 10660
L21150 10710
L21130 10730
L21080 10760
L20890 10760
" />
<path d="M21370 10540
L21390 10520
L21440 10500
L21560 10500
L21600 10520
L21630 10540
L21650 10590
L21650 10640
L21630 10710
L21340 11000
L21650 11000
" />
<path d="M21960 10500
L22010 10500
L22060 10520
L22080 10540
L22110 10590
L22130 10690
L22130 10810
L22110 10900
L22080 10950
L22060 10970
L22010 11000
L21960 11000
L21920 10970
L21890 10950
L21870 10900
L21850 10810
L21850 10690
L21870 10590
L21890 10540
L21920 10520
L21960 10500
" />
<path d="M21650 10200
L21490 9960
" />
<path d="M21370 10200
L21370 9700
L21560 9700
L21610 9720
L21630 9740
L21650 9790
L21650 9860
L21630 9910
L21610 9930
L21560 9960
L21370 9960
" />
</g>
<g style="fill:#000000; fill-opacity:0.0; 
stroke:#000000; stroke-width:0; stroke-opacity:1; 
stroke-linecap:round; stroke-linejoin:round;">
</g>
<g style="fill:#000000; fill-opacity:0.0; 
stroke:#000000; stroke-width:100; stroke-opacity:1; 
stroke-linecap:round; stroke-linejoin:round;">
<rect x="20500" y="10600" width="2000" height="800" rx="0" />
</g>
<g style="fill:#000000; fill-opacity:0.0; 
stroke:#000000; stroke-width:60; stroke-opacity:1; 
stroke-linecap:round; stroke-linejoin:round;">
<path d="M22500 11000
L23000 11000
" />
<path d="M20500 11000
L20000 11000
" />
<path d="M21170 12000
L21010 11760
" />
<path d="M20890 12000
L20890 11500
L21080 11500
L21130 11520
L21150 11540
L21170 11590
L21170 11660
L21150 11710
L21130 11730
L21080 11760
L20890 11760
" />
<path d="M21370 11540
L21390 11520
L21440 11500
L21560 11500
L21600 11520
L21630 11540
L21650 11590
L21650 11640
L21630 11710
L21340 12000
L21650 12000
" />
<path d="M22130 12000
L21850 12000
" />
<path d="M21990 12000
L21990 11500
L21940 11570
L21890 11620
L21850 11640
" />
<path d="M21650 11200
L21490 10960
" />
<path d="M21370 11200
L21370 10700
L21560 10700
L21610 10720
L21630 10740
L21650 10790
L21650 10860
L21630 10910
L21610 10930
L21560 10960
L21370 10960
" />
</g>
<g style="fill:#000000; fill-opacity:0.0; 
stroke:#000000; stroke-width:0; stroke-opacity:1; 
stroke-linecap:round; stroke-linejoin:round;">
</g>
<g style="fill:#000000; fill-opacity:0.0; 
stroke:#000000; stroke-width:100; stroke-opacity:1; 
stroke-linecap:round; stroke-linejoin:round;">
<rect x="20500" y="11600" width="2000" height="800" rx="0" />
</g>
<g style="fill:#000000; fill-opacity:0.0; 
stroke:#000000; stroke-width:60; stroke-opacity:1; 
stroke-linecap:round; stroke-linejoin:round;">
<path d="M22500 12000
L23000 12000
" />
<path d="M20500 12000
L20000 12000
" />
<path d="M21170 13000
L21010 12760
" />
<path d="M20890 13000
L20890 12500
L21080 12500
L21130 12520
L21150 12540
L21170 12590
L21170 12660
L21150 12710
L21130 12730
L21080 12760
L20890 12760
" />
<path d="M21370 12540
L21390 12520
L21440 12500
L21560 12500
L21600 12520
L21630 12540
L21650 12590
L21650 12640
L21630 12710
L21340 13000
L21650 13000
" />
<path d="M21850 12540
L21870 12520
L21920 12500
L22040 12500
L22080 12520
L22110 12540
L22130 12590
L22130 12640
L22110 12710
L21820 13000
L22130 13000
" />
<path d="M21650 12200
L21490 11960
" />
<path d="M21370 12200
L21370 11700
L21560 11700
L21610 11720
L21630 11740
L21650 11790
L21650 11860
L21630 11910
L21610 11930
L21560 11960
L21370 11960
" />
</g>
<g style="fill:#000000; fill-opacity:0.0; 
stroke:#000000; stroke-width:0; stroke-opacity:1; 
stroke-linecap:round; stroke-linejoin:round;">
</g>
<g style="fill:#000000; fill-opacity:0.0; 
stroke:#000000; stroke-width:100; stroke-opacity:1; 
stroke-linecap:round; stroke-linejoin:round;">
<rect x="20500" y="13600" width="2000" height="800" rx="0" />
</g>
<g style="fill:#000000; fill-opacity:0.0; 
stroke:#000000; stroke-width:60; stroke-opacity:1; 
stroke-linecap:round; stroke-linejoin:round;">
<path d="M22500 14000
L23000 14000
" />
<path d="M20500 14000
L20000 14000
" />
<path d="M21170 15000
L21010 14760
" />
<path d="M20890 15000
L20890 14500
L21080 14500
L21130 14520
L21150 14540
L21170 14590
L21170 14660
L21150 14710
L21130 14730
L21080 14760
L20890 14760
" />
<path d="M21370 14540
L21390 14520
L21440 14500
L21560 14500
L21600 14520
L21630 14540
L21650 14590
L21650 14640
L21630 14710
L21340 15000
L21650 15000
" />
<path d="M21820 14500
L22130 14500
L21960 14690
L22040 14690
L22080 14710
L22110 14730
L22130 14780
L22130 14900
L22110 14950
L22080 14970
L22040 15000
L21890 15000
L21850 14970
L21820 14950
" />
<path d="M21650 14200
L21490 13960
" />
<path d="M21370 14200
L21370 13700
L21560 13700
L21610 13720
L21630 13740
L21650 13790
L21650 13860
L21630 13910
L21610 13930
L21560 13960
L21370 13960
" />
</g>
<g style="fill:#000000; fill-opacity:0.0; 
stroke:#000000; stroke-width:0; stroke-opacity:1; 
stroke-linecap:round; stroke-linejoin:round;">
</g>
<g style="fill:#000000; fill-opacity:0.0; 
stroke:#000000; stroke-width:100; stroke-opacity:1; 
stroke-linecap:round; stroke-linejoin:round;">
<rect x="20500" y="14600" width="2000" height="800" rx="0" />
</g>
<g style="fill:#000000; fill-opacity:0.0; 
stroke:#000000; stroke-width:60; stroke-opacity:1; 
stroke-linecap:round; stroke-linejoin:round;">
<path d="M22500 15000
L23000 15000
" />
<path d="M20500 15000
L20000 15000
" />
<path d="M21170 16000
L21010 15760
" />
<path d="M20890 16000
L20890 15500
L21080 15500
L21130 15520
L21150 15540
L21170 15590
L21170 15660
L21150 15710
L21130 15730
L21080 15760
L20890 15760
" />
<path d="M21370 15540
L21390 15520
L21440 15500
L21560 15500
L21600 15520
L21630 15540
L21650 15590
L21650 15640
L21630 15710
L21340 16000
L21650 16000
" />
<path d="M22080 15660
L22080 16000
" />
<path d="M21960 15470
L21850 15830
L22150 15830
" />
<path d="M21650 15200
L21490 14960
" />
<path d="M21370 15200
L21370 14700
L21560 14700
L21610 14720
L21630 14740
L21650 14790
L21650 14860
L21630 14910
L21610 14930
L21560 14960
L21370 14960
" />
</g>
<g style="fill:#000000; fill-opacity:0.0; 
stroke:#000000; stroke-width:0; stroke-opacity:1; 
stroke-linecap:round; stroke-linejoin:round;">
</g>
<g style="fill:#000000; fill-opacity:0.0; 
stroke:#000000; stroke-width:100; stroke-opacity:1; 
stroke-linecap:round; stroke-linejoin:round;">
<rect x="20500" y="15600" width="2000" height="800" rx="0" />
</g>
<g style="fill:#000000; fill-opacity:0.0; 
stroke:#000000; stroke-width:60; stroke-opacity:1; 
stroke-linecap:round; stroke-linejoin:round;">
<path d="M22500 16000
L23000 16000
" />
<path d="M20500 16000
L20000 16000
" />
<path d="M21170 17000
L21010 16760
" />
<path d="M20890 17000
L20890 16500
L21080 16500
L21130 16520
L21150 16540
L21170 16590
L21170 16660
L21150 16710
L21130 16730
L21080 16760
L20890 16760
" />
<path d="M21370 16540
L21390 16520
L21440 16500
L21560 16500
L21600 16520
L21630 16540
L21650 16590
L21650 16640
L21630 16710
L21340 17000
L21650 17000
" />
<path d="M22110 16500
L21870 16500
L21850 16730
L21870 16710
L21920 16690
L22040 16690
L22080 16710
L22110 16730
L22130 16780
L22130 16900
L22110 16950
L22080 16970
L22040 17000
L21920 17000
L21870 16970
L21850 16950
" />
<path d="M21650 16200
L21490 15960
" />
<path d="M21370 16200
L21370 15700
L21560 15700
L21610 15720
L21630 15740
L21650 15790
L21650 15860
L21630 15910
L21610 15930
L21560 15960
L21370 15960
" />
</g>
<g style="fill:#000000; fill-opacity:0.0; 
stroke:#000000; stroke-width:0; stroke-opacity:1; 
stroke-linecap:round; stroke-linejoin:round;">
</g>
<g style="fill:#000000; fill-opacity:0.0; 
stroke:#000000; stroke-width:100; stroke-opacity:1; 
stroke-linecap:round; stroke-linejoin:round;">
<rect x="20500" y="17600" width="2000" height="800" rx="0" />
</g>
<g style="fill:#000000; fill-opacity:0.0; 
stroke:#000000; stroke-width:60; stroke-opacity:1; 
stroke-linecap:round; stroke-linejoin:round;">
<path d="M22500 18000
L23000 18000
" />
<path d="M20500 18000
L20000 18000
" />
<path d="M21170 19000
L21010 18760
" />
<path d="M20890 19000
L20890 18500
L21080 18500
L21130 18520
L21150 18540
L21170 18590
L21170 18660
L21150 18710
L21130 18730
L21080 18760
L20890 18760
" />
<path d="M21370 18540
L21390 18520
L21440 18500
L21560 18500
L21600 18520
L21630 18540
L21650 18590
L21650 18640
L21630 18710
L21340 19000
L21650 19000
" />
<path d="M22080 18500
L21990 18500
L21940 18520
L21920 18540
L21870 18620
L21850 18710
L21850 18900
L21870 18950
L21890 18970
L21940 19000
L22040 19000
L22080 18970
L22110 18950
L22130 18900
L22130 18780
L22110 18730
L22080 18710
L22040 18690
L21940 18690
L21890 18710
L21870 18730
L21850 18780
" />
<path d="M21650 18200
L21490 17960
" />
<path d="M21370 18200
L21370 17700
L21560 17700
L21610 17720
L21630 17740
L21650 17790
L21650 17860
L21630 17910
L21610 17930
L21560 17960
L21370 17960
" />
</g>
<g style="fill:#000000; fill-opacity:0.0; 
stroke:#000000; stroke-width:0; stroke-opacity:1; 
stroke-linecap:round; stroke-linejoin:round;">
</g>
<g style="fill:#000000; fill-opacity:0.0; 
stroke:#000000; stroke-width:100; stroke-opacity:1; 
stroke-linecap:round; stroke-linejoin:round;">
<rect x="20500" y="18600" width="2000" height="800" rx="0" />
</g>
<g style="fill:#000000; fill-opacity:0.0; 
stroke:#000000; stroke-width:60; stroke-opacity:1; 
stroke-linecap:round; stroke-linejoin:round;">
<path d="M22500 19000
L23000 19000
" />
<path d="M20500 19000
L20000 19000
" />
<path d="M21170 20000
L21010 19760
" />
<path d="M20890 20000
L20890 19500
L21080 19500
L21130 19520
L21150 19540
L21170 19590
L21170 19660
L21150 19710
L21130 19730
L21080 19760
L20890 19760
" />
<path d="M21370 19540
L21390 19520
L21440 19500
L21560 19500
L21600 19520
L21630 19540
L21650 19590
L21650 19640
L21630 19710
L21340 20000
L21650 20000
" />
<path d="M21820 19500
L22150 19500
L21940 20000
" />
<path d="M21650 19200
L21490 18960
" />
<path d="M21370 19200
L21370 18700
L21560 18700
L21610 18720
L21630 18740
L21650 18790
L21650 18860
L21630 18910
L21610 18930
L21560 18960
L21370 18960
" />
<path d="M19500 8000
L20000 8000
" />
<path d="M19500 9000
L20000 9000
" />
<path d="M19500 10000
L20000 10000
" />
<path d="M19500 11000
L20000 11000
" />
<path d="M19500 12000
L20000 12000
" />
<path d="M19500 14000
L20000 14000
" />
<path d="M19500 15000
L20000 15000
" />
<path d="M19500 16000
L20000 16000
" />
<path d="M19500 18000
L20000 18000
" />
<path d="M19500 19000
L20000 19000
" />
</g> 
</svg>
