G04 #@! TF.FileFunction,Copper,L2,Inr,Plane*
%FSLAX46Y46*%
G04 Gerber Fmt 4.6, Leading zero omitted, Abs format (unit mm)*
G04 Created by KiCad (PCBNEW 4.0.2-stable) date 4/11/2016 8:36:19 PM*
%MOMM*%
G01*
G04 APERTURE LIST*
%ADD10C,0.100000*%
%ADD11C,2.300000*%
%ADD12O,0.950000X1.250000*%
%ADD13O,1.550000X1.000000*%
%ADD14C,1.000000*%
%ADD15O,1.506220X3.014980*%
%ADD16R,1.200000X1.700000*%
%ADD17O,1.200000X1.700000*%
%ADD18C,1.700000*%
%ADD19C,3.500000*%
%ADD20C,6.000000*%
%ADD21C,0.508000*%
%ADD22C,0.600000*%
%ADD23C,0.250000*%
%ADD24C,0.500000*%
%ADD25C,2.000000*%
%ADD26C,1.000000*%
%ADD27C,0.254000*%
G04 APERTURE END LIST*
D10*
D11*
X157423600Y-89875200D03*
X151423600Y-87325200D03*
X163423600Y-87325200D03*
X151423600Y-75125200D03*
D12*
X88125740Y-70371700D03*
X88125740Y-75371700D03*
D13*
X85425740Y-69371700D03*
X85425740Y-76371700D03*
D14*
X99136200Y-84277200D03*
X100406200Y-84277200D03*
X99136200Y-83007200D03*
X100406200Y-83007200D03*
X99136200Y-81737200D03*
X100406200Y-81737200D03*
X99136200Y-80467200D03*
X100406200Y-80467200D03*
X99136200Y-79197200D03*
X100406200Y-79197200D03*
D15*
X122224800Y-54279800D03*
X124764800Y-54279800D03*
X127939800Y-54279800D03*
X130479800Y-54279800D03*
X133553200Y-54254400D03*
X136093200Y-54254400D03*
D11*
X157409400Y-103647400D03*
X163409400Y-106197400D03*
X151409400Y-106197400D03*
X163409400Y-118397400D03*
D16*
X140246100Y-53454300D03*
D17*
X142246100Y-53454300D03*
X144246100Y-53454300D03*
X146246100Y-53454300D03*
D16*
X151295100Y-53454300D03*
D17*
X153295100Y-53454300D03*
X155295100Y-53454300D03*
X157295100Y-53454300D03*
D16*
X162420300Y-53454300D03*
D17*
X164420300Y-53454300D03*
X166420300Y-53454300D03*
X168420300Y-53454300D03*
D16*
X173545500Y-53454300D03*
D17*
X175545500Y-53454300D03*
X177545500Y-53454300D03*
X179545500Y-53454300D03*
D18*
X96175000Y-115826600D03*
X96175000Y-119326600D03*
D19*
X88265000Y-117576600D03*
D18*
X172339000Y-76448800D03*
X172339000Y-72948800D03*
D19*
X180249000Y-74698800D03*
D18*
X172339000Y-89481600D03*
X172339000Y-85981600D03*
D19*
X180249000Y-87731600D03*
D18*
X172201400Y-102664200D03*
X172201400Y-99164200D03*
D19*
X180111400Y-100914200D03*
D18*
X172252200Y-128165800D03*
X172252200Y-124665800D03*
D19*
X180162200Y-126415800D03*
D18*
X172277600Y-119606000D03*
X172277600Y-116106000D03*
D19*
X180187600Y-117856000D03*
D18*
X172226800Y-111097000D03*
X172226800Y-107597000D03*
D19*
X180136800Y-109347000D03*
D20*
X90018000Y-125866000D03*
X90054000Y-84813000D03*
X179514000Y-63520000D03*
D21*
X133817360Y-81046320D03*
X114452400Y-65913000D03*
X132500000Y-103500000D03*
X131500000Y-103500000D03*
X131500000Y-102500000D03*
X132500000Y-102500000D03*
X133500000Y-102500000D03*
X134500000Y-102500000D03*
X135500000Y-102500000D03*
X135500000Y-103500000D03*
X136500000Y-103500000D03*
X136500000Y-102500000D03*
X137500000Y-102500000D03*
X143141700Y-60274200D03*
X116837460Y-89801700D03*
X102709980Y-57203340D03*
X166090600Y-63373000D03*
X101803200Y-73202800D03*
X105613200Y-71323200D03*
X118973600Y-51968400D03*
X91973400Y-66840100D03*
X101447600Y-70434200D03*
X127330200Y-65506600D03*
X128082040Y-84627720D03*
X121351040Y-76408280D03*
X136748520Y-69997320D03*
X135773160Y-76489560D03*
X111683800Y-80365600D03*
X120319800Y-69748400D03*
X155448000Y-56845200D03*
X130616960Y-84211160D03*
X153847800Y-57073800D03*
X145389600Y-123367800D03*
X148615400Y-123367800D03*
X145415000Y-127025400D03*
X172161200Y-69799200D03*
X115087400Y-61747400D03*
X99472404Y-63667031D03*
X84734400Y-64617600D03*
X84709000Y-54051200D03*
X132500000Y-123500000D03*
X117000000Y-118000000D03*
X120000000Y-125000000D03*
X120000000Y-124000000D03*
X117000000Y-125000000D03*
X117000000Y-123950000D03*
X112000000Y-126500000D03*
X110500000Y-120000000D03*
X127000000Y-105500000D03*
X125000000Y-113500000D03*
X128000000Y-111000000D03*
X121500000Y-109500000D03*
X132000000Y-110500000D03*
X137500000Y-108000000D03*
X149000000Y-128500000D03*
X113055400Y-53670200D03*
X104759760Y-81175860D03*
X116189760Y-88689180D03*
X101224080Y-57188100D03*
X164998400Y-60756800D03*
X172300900Y-82715100D03*
X172212000Y-95796100D03*
X152933400Y-95605600D03*
X162026600Y-97663000D03*
X99161600Y-88138000D03*
X99212400Y-74320400D03*
X137617200Y-58013600D03*
X105613200Y-70408800D03*
X101485700Y-66281300D03*
X106735880Y-51673760D03*
X128828800Y-63017400D03*
X109728000Y-61747400D03*
X127238760Y-85181440D03*
X123037600Y-68326000D03*
X132669280Y-78719680D03*
X131404360Y-73070720D03*
X137297160Y-76489560D03*
X113487200Y-81864200D03*
X117094000Y-68910200D03*
D22*
X109372400Y-80391000D03*
X109728000Y-82778600D03*
D21*
X108712000Y-76657200D03*
X90220800Y-74168000D03*
X107797600Y-87274400D03*
X106984800Y-86817200D03*
X147294600Y-91668600D03*
X163601400Y-93573600D03*
X170383200Y-67259200D03*
X110515400Y-63906400D03*
X170662600Y-80187800D03*
X111057820Y-64414400D03*
X170510200Y-93319600D03*
X111557820Y-65024000D03*
X102285800Y-71666100D03*
X99910900Y-71691500D03*
X99796600Y-67983100D03*
X105283000Y-68173600D03*
X99796600Y-68999100D03*
X105321100Y-69126100D03*
X128480777Y-71852220D03*
X126253240Y-73466960D03*
X131470400Y-81000600D03*
X129926080Y-77729080D03*
X106730800Y-72034400D03*
X106730800Y-72694800D03*
X106730800Y-73355200D03*
X107848400Y-80670400D03*
X109524800Y-76631800D03*
X142163800Y-70561200D03*
X111531400Y-76377800D03*
X142138400Y-71247000D03*
X112217200Y-76479400D03*
X117754400Y-72796400D03*
X130048000Y-68326000D03*
X117221000Y-72085200D03*
X132054600Y-67056000D03*
X114198400Y-71831200D03*
X130048000Y-69316600D03*
X97942400Y-60198000D03*
X113690400Y-59690000D03*
X97866200Y-62534800D03*
X109870240Y-60360560D03*
X116179600Y-61239400D03*
X95834200Y-58242200D03*
X109728000Y-62687200D03*
X135999240Y-118000000D03*
X145500000Y-118000000D03*
X147500000Y-102500000D03*
X147500000Y-101500000D03*
X147500000Y-100500000D03*
X147500000Y-99500000D03*
X146500000Y-98500000D03*
X145500000Y-98500000D03*
X144500000Y-98500000D03*
X143500000Y-98500000D03*
X142500000Y-98500000D03*
X141500000Y-98500000D03*
X140500000Y-98500000D03*
X139500000Y-98500000D03*
X139500000Y-99500000D03*
X139500000Y-100500000D03*
X129500000Y-117000000D03*
X128500000Y-117000000D03*
X127500000Y-117000000D03*
X125500000Y-119000000D03*
X126500000Y-118000000D03*
X126500000Y-119000000D03*
X127500000Y-119000000D03*
X127500000Y-118000000D03*
X128500000Y-118000000D03*
X128500000Y-119000000D03*
X129500000Y-119000000D03*
X129500000Y-118000000D03*
X97993200Y-56870600D03*
X115036600Y-62687200D03*
X127406400Y-67838320D03*
X108597700Y-67784980D03*
X127406400Y-66888360D03*
X107899200Y-67772280D03*
X113461800Y-76581000D03*
X114782600Y-77901800D03*
X141500000Y-114000000D03*
X142500000Y-114000000D03*
X117500000Y-122050000D03*
X117500000Y-121000000D03*
X116500000Y-121000000D03*
X116500000Y-122050000D03*
X124000000Y-107000000D03*
X131500000Y-106500000D03*
X129500000Y-107250000D03*
X129500000Y-106500000D03*
X130500000Y-106500000D03*
X142500000Y-121000000D03*
X141500000Y-121000000D03*
X140500000Y-121000000D03*
X140500000Y-120000000D03*
X140500000Y-119000000D03*
X140500000Y-116000000D03*
X139500000Y-116000000D03*
X139500000Y-115000000D03*
X140500000Y-115000000D03*
X140500000Y-114000000D03*
X139500000Y-114000000D03*
X141500000Y-115000000D03*
X142500000Y-115000000D03*
X110972600Y-69799200D03*
X102514400Y-65735200D03*
X113842800Y-70891400D03*
X113792000Y-68554600D03*
X113741200Y-75209400D03*
X106451400Y-75234800D03*
D23*
X100406200Y-81737200D02*
X100584000Y-81737200D01*
X104759760Y-82031840D02*
X104759760Y-81175860D01*
X103987600Y-82804000D02*
X104759760Y-82031840D01*
X101650800Y-82804000D02*
X103987600Y-82804000D01*
X100584000Y-81737200D02*
X101650800Y-82804000D01*
X100406200Y-81737200D02*
X100634800Y-81737200D01*
X100634800Y-81737200D02*
X101955600Y-80416400D01*
X104000300Y-80416400D02*
X104759760Y-81175860D01*
X101955600Y-80416400D02*
X104000300Y-80416400D01*
D24*
X145500000Y-127000000D02*
X136000000Y-127000000D01*
X136000000Y-127000000D02*
X132500000Y-123500000D01*
X146000000Y-123500000D02*
X146000000Y-126500000D01*
X146000000Y-126500000D02*
X145500000Y-127000000D01*
X149000000Y-128500000D02*
X147000000Y-128500000D01*
X147000000Y-128500000D02*
X145500000Y-127000000D01*
D25*
X117000000Y-123950000D02*
X117677922Y-123950000D01*
X117677922Y-123950000D02*
X128500000Y-113127922D01*
X128500000Y-113127922D02*
X128500000Y-110500000D01*
D24*
X113050000Y-120000000D02*
X115550000Y-122500000D01*
X117000000Y-118000000D02*
X115845999Y-119154001D01*
X115550000Y-122500000D02*
X117000000Y-123950000D01*
X115845999Y-119154001D02*
X115845999Y-122204001D01*
X115845999Y-122204001D02*
X115550000Y-122500000D01*
X112000000Y-126500000D02*
X114450000Y-126500000D01*
X114450000Y-126500000D02*
X117000000Y-123950000D01*
X110500000Y-120000000D02*
X113050000Y-120000000D01*
D26*
X127000000Y-105500000D02*
X127000000Y-110000000D01*
X127000000Y-110000000D02*
X128000000Y-111000000D01*
X128000000Y-111000000D02*
X123000000Y-111000000D01*
X123000000Y-111000000D02*
X121500000Y-109500000D01*
X125000000Y-113500000D02*
X125500000Y-113500000D01*
X125500000Y-113500000D02*
X128000000Y-111000000D01*
X132000000Y-110500000D02*
X128500000Y-110500000D01*
X128500000Y-110500000D02*
X128000000Y-111000000D01*
X137500000Y-108000000D02*
X134500000Y-108000000D01*
X134500000Y-108000000D02*
X132000000Y-110500000D01*
D23*
X170383200Y-67259200D02*
X158851600Y-67259200D01*
X158851600Y-67259200D02*
X155473400Y-63881000D01*
X155473400Y-63881000D02*
X110900010Y-63881000D01*
X110900010Y-63881000D02*
X110874610Y-63906400D01*
X110874610Y-63906400D02*
X110515400Y-63906400D01*
X168783000Y-80187800D02*
X168427400Y-80187800D01*
X168427400Y-80187800D02*
X161645600Y-80187800D01*
X170662600Y-80187800D02*
X170303390Y-80187800D01*
X170303390Y-80187800D02*
X168427400Y-80187800D01*
X161645600Y-80187800D02*
X145872200Y-64414400D01*
X145872200Y-64414400D02*
X111057820Y-64414400D01*
X170510200Y-93319600D02*
X168630600Y-93319600D01*
X168630600Y-93319600D02*
X167081200Y-91770200D01*
X167081200Y-91770200D02*
X167081200Y-87223600D01*
X111917030Y-65024000D02*
X111557820Y-65024000D01*
X167081200Y-87223600D02*
X144824411Y-64966811D01*
X144824411Y-64966811D02*
X111974219Y-64966811D01*
X111974219Y-64966811D02*
X111917030Y-65024000D01*
X105283000Y-68173600D02*
X105283000Y-63215127D01*
X142246100Y-55066180D02*
X142246100Y-53454300D01*
X140553440Y-56758840D02*
X142246100Y-55066180D01*
X111735247Y-56758840D02*
X140553440Y-56758840D01*
X105283000Y-63215127D02*
X111735247Y-56758840D01*
X105321100Y-69126100D02*
X105369360Y-69126100D01*
X144246100Y-55385200D02*
X144246100Y-53454300D01*
X142298420Y-57332880D02*
X144246100Y-55385200D01*
X111950500Y-57332880D02*
X142298420Y-57332880D01*
X105958640Y-63324740D02*
X111950500Y-57332880D01*
X105958640Y-68536820D02*
X105958640Y-63324740D01*
X105369360Y-69126100D02*
X105958640Y-68536820D01*
X144246100Y-54102500D02*
X144246100Y-53454300D01*
X141804590Y-70561200D02*
X142163800Y-70561200D01*
X111531400Y-75726490D02*
X116690301Y-70567589D01*
X141732000Y-70567589D02*
X141738389Y-70561200D01*
X141738389Y-70561200D02*
X141804590Y-70561200D01*
X116690301Y-70567589D02*
X141732000Y-70567589D01*
X111531400Y-76377800D02*
X111531400Y-75726490D01*
X116920678Y-71247000D02*
X141779190Y-71247000D01*
X112217200Y-75950478D02*
X116920678Y-71247000D01*
X141779190Y-71247000D02*
X142138400Y-71247000D01*
X112217200Y-76479400D02*
X112217200Y-75950478D01*
X127353060Y-67784980D02*
X127406400Y-67838320D01*
X108597700Y-67784980D02*
X127353060Y-67784980D01*
X155295100Y-53454300D02*
X155229560Y-53454300D01*
X107899200Y-67340480D02*
X108351320Y-66888360D01*
X108351320Y-66888360D02*
X127406400Y-66888360D01*
X107899200Y-67772280D02*
X107899200Y-67340480D01*
D26*
X140500000Y-119000000D02*
X140500000Y-116000000D01*
D23*
X113792000Y-68554600D02*
X113792000Y-70840600D01*
X113792000Y-70840600D02*
X113842800Y-70891400D01*
D27*
G36*
X118269523Y-51497062D02*
X118142745Y-51802379D01*
X118142456Y-52132971D01*
X118268702Y-52438509D01*
X118502262Y-52672477D01*
X118807579Y-52799255D01*
X119138171Y-52799544D01*
X119443709Y-52673298D01*
X119677677Y-52439738D01*
X119804455Y-52134421D01*
X119804744Y-51803829D01*
X119678498Y-51498291D01*
X119642270Y-51462000D01*
X146119098Y-51462000D01*
X146119098Y-51752593D01*
X145848723Y-51507202D01*
X145718560Y-51533829D01*
X145119455Y-51862867D01*
X144853878Y-52194081D01*
X144696518Y-52088937D01*
X144246100Y-51999343D01*
X143795682Y-52088937D01*
X143413835Y-52344078D01*
X143246100Y-52595112D01*
X143078365Y-52344078D01*
X142696518Y-52088937D01*
X142246100Y-51999343D01*
X141795682Y-52088937D01*
X141413835Y-52344078D01*
X141388608Y-52381833D01*
X141267801Y-52194093D01*
X141074983Y-52062346D01*
X140846100Y-52015996D01*
X139646100Y-52015996D01*
X139432277Y-52056230D01*
X139235893Y-52182599D01*
X139104146Y-52375417D01*
X139057796Y-52604300D01*
X139057796Y-54304300D01*
X139098030Y-54518123D01*
X139224399Y-54714507D01*
X139417217Y-54846254D01*
X139646100Y-54892604D01*
X140846100Y-54892604D01*
X141059923Y-54852370D01*
X141256307Y-54726001D01*
X141388054Y-54533183D01*
X141389180Y-54527623D01*
X141413835Y-54564522D01*
X141544100Y-54651562D01*
X141544100Y-54775402D01*
X140262662Y-56056840D01*
X136933918Y-56056840D01*
X137033730Y-55990148D01*
X137322061Y-55558629D01*
X137423310Y-55049618D01*
X137423310Y-53459182D01*
X137322061Y-52950171D01*
X137033730Y-52518652D01*
X136602211Y-52230321D01*
X136093200Y-52129072D01*
X135584189Y-52230321D01*
X135152670Y-52518652D01*
X134864339Y-52950171D01*
X134823200Y-53156990D01*
X134782061Y-52950171D01*
X134493730Y-52518652D01*
X134062211Y-52230321D01*
X133553200Y-52129072D01*
X133044189Y-52230321D01*
X132612670Y-52518652D01*
X132324339Y-52950171D01*
X132223090Y-53459182D01*
X132223090Y-55049618D01*
X132324339Y-55558629D01*
X132612670Y-55990148D01*
X132712482Y-56056840D01*
X131358532Y-56056840D01*
X131420330Y-56015548D01*
X131708661Y-55584029D01*
X131809910Y-55075018D01*
X131809910Y-53484582D01*
X131708661Y-52975571D01*
X131420330Y-52544052D01*
X130988811Y-52255721D01*
X130479800Y-52154472D01*
X129970789Y-52255721D01*
X129539270Y-52544052D01*
X129250939Y-52975571D01*
X129209800Y-53182390D01*
X129168661Y-52975571D01*
X128880330Y-52544052D01*
X128448811Y-52255721D01*
X127939800Y-52154472D01*
X127430789Y-52255721D01*
X126999270Y-52544052D01*
X126710939Y-52975571D01*
X126609690Y-53484582D01*
X126609690Y-55075018D01*
X126710939Y-55584029D01*
X126999270Y-56015548D01*
X127061068Y-56056840D01*
X125643532Y-56056840D01*
X125705330Y-56015548D01*
X125993661Y-55584029D01*
X126094910Y-55075018D01*
X126094910Y-53484582D01*
X125993661Y-52975571D01*
X125705330Y-52544052D01*
X125273811Y-52255721D01*
X124764800Y-52154472D01*
X124255789Y-52255721D01*
X123824270Y-52544052D01*
X123535939Y-52975571D01*
X123494800Y-53182390D01*
X123453661Y-52975571D01*
X123165330Y-52544052D01*
X122733811Y-52255721D01*
X122224800Y-52154472D01*
X121715789Y-52255721D01*
X121284270Y-52544052D01*
X120995939Y-52975571D01*
X120894690Y-53484582D01*
X120894690Y-55075018D01*
X120995939Y-55584029D01*
X121284270Y-56015548D01*
X121346068Y-56056840D01*
X111735247Y-56056840D01*
X111735137Y-56056862D01*
X111735027Y-56056840D01*
X111600497Y-56083644D01*
X111466603Y-56110277D01*
X111466510Y-56110339D01*
X111466400Y-56110361D01*
X111352688Y-56186392D01*
X111238858Y-56262451D01*
X111238796Y-56262544D01*
X111238702Y-56262607D01*
X104786456Y-62718893D01*
X104711046Y-62831829D01*
X104634437Y-62946483D01*
X104634415Y-62946594D01*
X104634353Y-62946687D01*
X104607780Y-63080494D01*
X104581000Y-63215127D01*
X104581000Y-67700189D01*
X104578923Y-67702262D01*
X104452145Y-68007579D01*
X104451856Y-68338171D01*
X104578102Y-68643709D01*
X104608831Y-68674491D01*
X104490245Y-68960079D01*
X104489956Y-69290671D01*
X104616202Y-69596209D01*
X104849762Y-69830177D01*
X105155079Y-69956955D01*
X105485671Y-69957244D01*
X105791209Y-69830998D01*
X106025177Y-69597438D01*
X106120596Y-69367642D01*
X106455029Y-69033209D01*
X106459887Y-69025938D01*
X106607203Y-68805464D01*
X106660640Y-68536820D01*
X106660640Y-67936851D01*
X107068056Y-67936851D01*
X107194302Y-68242389D01*
X107427862Y-68476357D01*
X107733179Y-68603135D01*
X108063771Y-68603424D01*
X108233197Y-68533418D01*
X108431679Y-68615835D01*
X108762271Y-68616124D01*
X109067809Y-68489878D01*
X109070712Y-68486980D01*
X112961059Y-68486980D01*
X112960856Y-68719171D01*
X113087102Y-69024709D01*
X113090000Y-69027612D01*
X113090000Y-70537401D01*
X113011945Y-70725379D01*
X113011656Y-71055971D01*
X113137902Y-71361509D01*
X113371462Y-71595477D01*
X113392807Y-71604340D01*
X113367545Y-71665179D01*
X113367256Y-71995771D01*
X113493502Y-72301309D01*
X113727062Y-72535277D01*
X113729021Y-72536091D01*
X111035011Y-75230101D01*
X110882837Y-75457846D01*
X110829400Y-75726490D01*
X110829400Y-75904389D01*
X110827323Y-75906462D01*
X110700545Y-76211779D01*
X110700256Y-76542371D01*
X110826502Y-76847909D01*
X111060062Y-77081877D01*
X111365379Y-77208655D01*
X111695971Y-77208944D01*
X111751719Y-77185909D01*
X112051179Y-77310255D01*
X112381771Y-77310544D01*
X112687309Y-77184298D01*
X112788761Y-77083023D01*
X112990462Y-77285077D01*
X113295779Y-77411855D01*
X113626371Y-77412144D01*
X113931909Y-77285898D01*
X114165877Y-77052338D01*
X114292655Y-76747021D01*
X114292807Y-76572851D01*
X120519896Y-76572851D01*
X120646142Y-76878389D01*
X120879702Y-77112357D01*
X121185019Y-77239135D01*
X121515611Y-77239424D01*
X121821149Y-77113178D01*
X122055117Y-76879618D01*
X122148746Y-76654131D01*
X134942016Y-76654131D01*
X135068262Y-76959669D01*
X135301822Y-77193637D01*
X135607139Y-77320415D01*
X135937731Y-77320704D01*
X136243269Y-77194458D01*
X136477237Y-76960898D01*
X136604015Y-76655581D01*
X136604304Y-76324989D01*
X136478058Y-76019451D01*
X136244498Y-75785483D01*
X135939181Y-75658705D01*
X135608589Y-75658416D01*
X135303051Y-75784662D01*
X135069083Y-76018222D01*
X134942305Y-76323539D01*
X134942016Y-76654131D01*
X122148746Y-76654131D01*
X122181895Y-76574301D01*
X122182184Y-76243709D01*
X122055938Y-75938171D01*
X121822378Y-75704203D01*
X121517061Y-75577425D01*
X121186469Y-75577136D01*
X120880931Y-75703382D01*
X120646963Y-75936942D01*
X120520185Y-76242259D01*
X120519896Y-76572851D01*
X114292807Y-76572851D01*
X114292944Y-76416429D01*
X114166698Y-76110891D01*
X114040784Y-75984757D01*
X114211309Y-75914298D01*
X114445277Y-75680738D01*
X114533939Y-75467214D01*
X149696301Y-75467214D01*
X149958667Y-76102189D01*
X150444056Y-76588426D01*
X151078571Y-76851900D01*
X151765614Y-76852499D01*
X152400589Y-76590133D01*
X152886826Y-76104744D01*
X153150300Y-75470229D01*
X153150899Y-74783186D01*
X152888533Y-74148211D01*
X152403144Y-73661974D01*
X151768629Y-73398500D01*
X151081586Y-73397901D01*
X150446611Y-73660267D01*
X149960374Y-74145656D01*
X149696900Y-74780171D01*
X149696301Y-75467214D01*
X114533939Y-75467214D01*
X114572055Y-75375421D01*
X114572344Y-75044829D01*
X114446098Y-74739291D01*
X114433642Y-74726814D01*
X115528925Y-73631531D01*
X125422096Y-73631531D01*
X125548342Y-73937069D01*
X125781902Y-74171037D01*
X126087219Y-74297815D01*
X126417811Y-74298104D01*
X126723349Y-74171858D01*
X126957317Y-73938298D01*
X127084095Y-73632981D01*
X127084384Y-73302389D01*
X126958138Y-72996851D01*
X126724578Y-72762883D01*
X126419261Y-72636105D01*
X126088669Y-72635816D01*
X125783131Y-72762062D01*
X125549163Y-72995622D01*
X125422385Y-73300939D01*
X125422096Y-73631531D01*
X115528925Y-73631531D01*
X116560586Y-72599870D01*
X116749662Y-72789277D01*
X116923343Y-72861395D01*
X116923256Y-72960971D01*
X117049502Y-73266509D01*
X117283062Y-73500477D01*
X117588379Y-73627255D01*
X117918971Y-73627544D01*
X118224509Y-73501298D01*
X118458477Y-73267738D01*
X118585255Y-72962421D01*
X118585544Y-72631829D01*
X118459298Y-72326291D01*
X118225738Y-72092323D01*
X118052057Y-72020205D01*
X118052119Y-71949000D01*
X127649692Y-71949000D01*
X127649633Y-72016791D01*
X127775879Y-72322329D01*
X128009439Y-72556297D01*
X128314756Y-72683075D01*
X128645348Y-72683364D01*
X128950886Y-72557118D01*
X129184854Y-72323558D01*
X129311632Y-72018241D01*
X129311693Y-71949000D01*
X141664989Y-71949000D01*
X141667062Y-71951077D01*
X141972379Y-72077855D01*
X142302971Y-72078144D01*
X142608509Y-71951898D01*
X142842477Y-71718338D01*
X142969255Y-71413021D01*
X142969544Y-71082429D01*
X142908503Y-70934699D01*
X142994655Y-70727221D01*
X142994944Y-70396629D01*
X142868698Y-70091091D01*
X142635138Y-69857123D01*
X142329821Y-69730345D01*
X141999229Y-69730056D01*
X141693691Y-69856302D01*
X141684388Y-69865589D01*
X137579635Y-69865589D01*
X137579664Y-69832749D01*
X137453418Y-69527211D01*
X137219858Y-69293243D01*
X136914541Y-69166465D01*
X136583949Y-69166176D01*
X136278411Y-69292422D01*
X136044443Y-69525982D01*
X135917665Y-69831299D01*
X135917635Y-69865589D01*
X130674290Y-69865589D01*
X130752077Y-69787938D01*
X130878855Y-69482621D01*
X130879144Y-69152029D01*
X130752898Y-68846491D01*
X130727912Y-68821461D01*
X130752077Y-68797338D01*
X130878855Y-68492021D01*
X130879144Y-68161429D01*
X130752898Y-67855891D01*
X130519338Y-67621923D01*
X130214021Y-67495145D01*
X129883429Y-67494856D01*
X129577891Y-67621102D01*
X129343923Y-67854662D01*
X129217145Y-68159979D01*
X129216856Y-68490571D01*
X129343102Y-68796109D01*
X129368088Y-68821139D01*
X129343923Y-68845262D01*
X129217145Y-69150579D01*
X129216856Y-69481171D01*
X129343102Y-69786709D01*
X129421844Y-69865589D01*
X121150698Y-69865589D01*
X121150944Y-69583829D01*
X121024698Y-69278291D01*
X120791138Y-69044323D01*
X120485821Y-68917545D01*
X120155229Y-68917256D01*
X119849691Y-69043502D01*
X119615723Y-69277062D01*
X119488945Y-69582379D01*
X119488697Y-69865589D01*
X116690301Y-69865589D01*
X116421657Y-69919026D01*
X116210291Y-70060256D01*
X116193912Y-70071200D01*
X114903509Y-71361603D01*
X114903298Y-71361091D01*
X114669738Y-71127123D01*
X114648393Y-71118260D01*
X114673655Y-71057421D01*
X114673944Y-70726829D01*
X114547698Y-70421291D01*
X114494000Y-70367499D01*
X114494000Y-69028011D01*
X114496077Y-69025938D01*
X114622855Y-68720621D01*
X114623059Y-68486980D01*
X126879742Y-68486980D01*
X126935062Y-68542397D01*
X127240379Y-68669175D01*
X127570971Y-68669464D01*
X127876509Y-68543218D01*
X128110477Y-68309658D01*
X128237255Y-68004341D01*
X128237544Y-67673749D01*
X128111298Y-67368211D01*
X128106632Y-67363537D01*
X128110477Y-67359698D01*
X128168247Y-67220571D01*
X131223456Y-67220571D01*
X131349702Y-67526109D01*
X131583262Y-67760077D01*
X131888579Y-67886855D01*
X132219171Y-67887144D01*
X132524709Y-67760898D01*
X132758677Y-67527338D01*
X132885455Y-67222021D01*
X132885744Y-66891429D01*
X132759498Y-66585891D01*
X132525938Y-66351923D01*
X132220621Y-66225145D01*
X131890029Y-66224856D01*
X131584491Y-66351102D01*
X131350523Y-66584662D01*
X131223745Y-66889979D01*
X131223456Y-67220571D01*
X128168247Y-67220571D01*
X128237255Y-67054381D01*
X128237544Y-66723789D01*
X128111298Y-66418251D01*
X127877738Y-66184283D01*
X127842309Y-66169572D01*
X128034277Y-65977938D01*
X128161055Y-65672621D01*
X128161058Y-65668811D01*
X144533633Y-65668811D01*
X166379200Y-87514378D01*
X166379200Y-91770200D01*
X166432637Y-92038844D01*
X166499365Y-92138709D01*
X166584811Y-92266589D01*
X168134211Y-93815989D01*
X168361956Y-93968163D01*
X168630600Y-94021600D01*
X170036789Y-94021600D01*
X170038862Y-94023677D01*
X170344179Y-94150455D01*
X170674771Y-94150744D01*
X170980309Y-94024498D01*
X171214277Y-93790938D01*
X171341055Y-93485621D01*
X171341344Y-93155029D01*
X171215098Y-92849491D01*
X170981538Y-92615523D01*
X170676221Y-92488745D01*
X170345629Y-92488456D01*
X170040091Y-92614702D01*
X170037188Y-92617600D01*
X168921378Y-92617600D01*
X167783200Y-91479422D01*
X167783200Y-89764203D01*
X170911752Y-89764203D01*
X171128543Y-90288875D01*
X171529614Y-90690647D01*
X172053907Y-90908352D01*
X172621603Y-90908848D01*
X173146275Y-90692057D01*
X173548047Y-90290986D01*
X173765752Y-89766693D01*
X173766248Y-89198997D01*
X173549457Y-88674325D01*
X173148386Y-88272553D01*
X172955448Y-88192438D01*
X177921597Y-88192438D01*
X178275115Y-89048018D01*
X178929139Y-89703185D01*
X179784100Y-90058196D01*
X180709838Y-90059003D01*
X181565418Y-89705485D01*
X182220585Y-89051461D01*
X182575596Y-88196500D01*
X182576403Y-87270762D01*
X182222885Y-86415182D01*
X181568861Y-85760015D01*
X180713900Y-85405004D01*
X179788162Y-85404197D01*
X178932582Y-85757715D01*
X178277415Y-86411739D01*
X177922404Y-87266700D01*
X177921597Y-88192438D01*
X172955448Y-88192438D01*
X172624093Y-88054848D01*
X172056397Y-88054352D01*
X171531725Y-88271143D01*
X171129953Y-88672214D01*
X170912248Y-89196507D01*
X170911752Y-89764203D01*
X167783200Y-89764203D01*
X167783200Y-87223600D01*
X167729763Y-86954956D01*
X167577589Y-86727211D01*
X167114581Y-86264203D01*
X170911752Y-86264203D01*
X171128543Y-86788875D01*
X171529614Y-87190647D01*
X172053907Y-87408352D01*
X172621603Y-87408848D01*
X173146275Y-87192057D01*
X173548047Y-86790986D01*
X173765752Y-86266693D01*
X173766248Y-85698997D01*
X173549457Y-85174325D01*
X173148386Y-84772553D01*
X172624093Y-84554848D01*
X172056397Y-84554352D01*
X171531725Y-84771143D01*
X171129953Y-85172214D01*
X170912248Y-85696507D01*
X170911752Y-86264203D01*
X167114581Y-86264203D01*
X161740178Y-80889800D01*
X170189189Y-80889800D01*
X170191262Y-80891877D01*
X170496579Y-81018655D01*
X170827171Y-81018944D01*
X171132709Y-80892698D01*
X171366677Y-80659138D01*
X171493455Y-80353821D01*
X171493744Y-80023229D01*
X171367498Y-79717691D01*
X171133938Y-79483723D01*
X170828621Y-79356945D01*
X170498029Y-79356656D01*
X170192491Y-79482902D01*
X170189588Y-79485800D01*
X161936378Y-79485800D01*
X159181981Y-76731403D01*
X170911752Y-76731403D01*
X171128543Y-77256075D01*
X171529614Y-77657847D01*
X172053907Y-77875552D01*
X172621603Y-77876048D01*
X173146275Y-77659257D01*
X173548047Y-77258186D01*
X173765752Y-76733893D01*
X173766248Y-76166197D01*
X173549457Y-75641525D01*
X173148386Y-75239753D01*
X172955448Y-75159638D01*
X177921597Y-75159638D01*
X178275115Y-76015218D01*
X178929139Y-76670385D01*
X179784100Y-77025396D01*
X180709838Y-77026203D01*
X181565418Y-76672685D01*
X182220585Y-76018661D01*
X182575596Y-75163700D01*
X182576403Y-74237962D01*
X182222885Y-73382382D01*
X181568861Y-72727215D01*
X180713900Y-72372204D01*
X179788162Y-72371397D01*
X178932582Y-72724915D01*
X178277415Y-73378939D01*
X177922404Y-74233900D01*
X177921597Y-75159638D01*
X172955448Y-75159638D01*
X172624093Y-75022048D01*
X172056397Y-75021552D01*
X171531725Y-75238343D01*
X171129953Y-75639414D01*
X170912248Y-76163707D01*
X170911752Y-76731403D01*
X159181981Y-76731403D01*
X155681981Y-73231403D01*
X170911752Y-73231403D01*
X171128543Y-73756075D01*
X171529614Y-74157847D01*
X172053907Y-74375552D01*
X172621603Y-74376048D01*
X173146275Y-74159257D01*
X173548047Y-73758186D01*
X173765752Y-73233893D01*
X173766248Y-72666197D01*
X173549457Y-72141525D01*
X173148386Y-71739753D01*
X172624093Y-71522048D01*
X172056397Y-71521552D01*
X171531725Y-71738343D01*
X171129953Y-72139414D01*
X170912248Y-72663707D01*
X170911752Y-73231403D01*
X155681981Y-73231403D01*
X147033578Y-64583000D01*
X155182622Y-64583000D01*
X158355211Y-67755589D01*
X158582956Y-67907763D01*
X158851600Y-67961200D01*
X169909789Y-67961200D01*
X169911862Y-67963277D01*
X170217179Y-68090055D01*
X170547771Y-68090344D01*
X170853309Y-67964098D01*
X171087277Y-67730538D01*
X171214055Y-67425221D01*
X171214344Y-67094629D01*
X171088098Y-66789091D01*
X170854538Y-66555123D01*
X170549221Y-66428345D01*
X170218629Y-66428056D01*
X169913091Y-66554302D01*
X169910188Y-66557200D01*
X159142378Y-66557200D01*
X156813566Y-64228388D01*
X175936380Y-64228388D01*
X176479798Y-65543561D01*
X177485146Y-66550665D01*
X178799369Y-67096378D01*
X180222388Y-67097620D01*
X181537561Y-66554202D01*
X182544665Y-65548854D01*
X183090378Y-64234631D01*
X183091620Y-62811612D01*
X182548202Y-61496439D01*
X181542854Y-60489335D01*
X180228631Y-59943622D01*
X178805612Y-59942380D01*
X177490439Y-60485798D01*
X176483335Y-61491146D01*
X175937622Y-62805369D01*
X175936380Y-64228388D01*
X156813566Y-64228388D01*
X156122749Y-63537571D01*
X165259456Y-63537571D01*
X165385702Y-63843109D01*
X165619262Y-64077077D01*
X165924579Y-64203855D01*
X166255171Y-64204144D01*
X166560709Y-64077898D01*
X166794677Y-63844338D01*
X166921455Y-63539021D01*
X166921744Y-63208429D01*
X166795498Y-62902891D01*
X166561938Y-62668923D01*
X166256621Y-62542145D01*
X165926029Y-62541856D01*
X165620491Y-62668102D01*
X165386523Y-62901662D01*
X165259745Y-63206979D01*
X165259456Y-63537571D01*
X156122749Y-63537571D01*
X155969789Y-63384611D01*
X155941419Y-63365655D01*
X155742044Y-63232437D01*
X155473400Y-63179000D01*
X115720179Y-63179000D01*
X115740677Y-63158538D01*
X115867455Y-62853221D01*
X115867744Y-62522629D01*
X115741498Y-62217091D01*
X115507938Y-61983123D01*
X115202621Y-61856345D01*
X114872029Y-61856056D01*
X114566491Y-61982302D01*
X114332523Y-62215862D01*
X114205745Y-62521179D01*
X114205456Y-62851771D01*
X114331702Y-63157309D01*
X114353355Y-63179000D01*
X110930570Y-63179000D01*
X110681421Y-63075545D01*
X110466616Y-63075357D01*
X110558855Y-62853221D01*
X110559144Y-62522629D01*
X110432898Y-62217091D01*
X110199338Y-61983123D01*
X109894021Y-61856345D01*
X109563429Y-61856056D01*
X109257891Y-61982302D01*
X109023923Y-62215862D01*
X108897145Y-62521179D01*
X108896856Y-62851771D01*
X109023102Y-63157309D01*
X109256662Y-63391277D01*
X109561979Y-63518055D01*
X109776784Y-63518243D01*
X109684545Y-63740379D01*
X109684256Y-64070971D01*
X109810502Y-64376509D01*
X110044062Y-64610477D01*
X110280210Y-64708534D01*
X110352922Y-64884509D01*
X110586482Y-65118477D01*
X110726686Y-65176695D01*
X110726676Y-65188571D01*
X110852922Y-65494109D01*
X111086482Y-65728077D01*
X111391799Y-65854855D01*
X111722391Y-65855144D01*
X112027929Y-65728898D01*
X112059151Y-65697730D01*
X112185674Y-65672563D01*
X112191289Y-65668811D01*
X113654003Y-65668811D01*
X113621545Y-65746979D01*
X113621256Y-66077571D01*
X113666207Y-66186360D01*
X108351320Y-66186360D01*
X108082676Y-66239797D01*
X107868194Y-66383109D01*
X107854931Y-66391971D01*
X107402811Y-66844091D01*
X107250637Y-67071836D01*
X107207528Y-67288559D01*
X107195123Y-67300942D01*
X107068345Y-67606259D01*
X107068056Y-67936851D01*
X106660640Y-67936851D01*
X106660640Y-63615518D01*
X108872187Y-61403971D01*
X115348456Y-61403971D01*
X115474702Y-61709509D01*
X115708262Y-61943477D01*
X116013579Y-62070255D01*
X116344171Y-62070544D01*
X116649709Y-61944298D01*
X116883677Y-61710738D01*
X117010455Y-61405421D01*
X117010744Y-61074829D01*
X116884498Y-60769291D01*
X116650938Y-60535323D01*
X116418414Y-60438771D01*
X142310556Y-60438771D01*
X142436802Y-60744309D01*
X142670362Y-60978277D01*
X142975679Y-61105055D01*
X143306271Y-61105344D01*
X143611809Y-60979098D01*
X143845777Y-60745538D01*
X143972555Y-60440221D01*
X143972844Y-60109629D01*
X143846598Y-59804091D01*
X143613038Y-59570123D01*
X143307721Y-59443345D01*
X142977129Y-59443056D01*
X142671591Y-59569302D01*
X142437623Y-59802862D01*
X142310845Y-60108179D01*
X142310556Y-60438771D01*
X116418414Y-60438771D01*
X116345621Y-60408545D01*
X116015029Y-60408256D01*
X115709491Y-60534502D01*
X115475523Y-60768062D01*
X115348745Y-61073379D01*
X115348456Y-61403971D01*
X108872187Y-61403971D01*
X109305293Y-60970865D01*
X109398902Y-61064637D01*
X109704219Y-61191415D01*
X110034811Y-61191704D01*
X110340349Y-61065458D01*
X110574317Y-60831898D01*
X110701095Y-60526581D01*
X110701384Y-60195989D01*
X110575138Y-59890451D01*
X110539321Y-59854571D01*
X112859256Y-59854571D01*
X112985502Y-60160109D01*
X113219062Y-60394077D01*
X113524379Y-60520855D01*
X113854971Y-60521144D01*
X114160509Y-60394898D01*
X114394477Y-60161338D01*
X114521255Y-59856021D01*
X114521544Y-59525429D01*
X114395298Y-59219891D01*
X114161738Y-58985923D01*
X113856421Y-58859145D01*
X113525829Y-58858856D01*
X113220291Y-58985102D01*
X112986323Y-59218662D01*
X112859545Y-59523979D01*
X112859256Y-59854571D01*
X110539321Y-59854571D01*
X110480505Y-59795653D01*
X112241278Y-58034880D01*
X142298420Y-58034880D01*
X142567064Y-57981443D01*
X142794809Y-57829269D01*
X143614307Y-57009771D01*
X154616856Y-57009771D01*
X154743102Y-57315309D01*
X154976662Y-57549277D01*
X155281979Y-57676055D01*
X155612571Y-57676344D01*
X155918109Y-57550098D01*
X156152077Y-57316538D01*
X156278855Y-57011221D01*
X156279144Y-56680629D01*
X156152898Y-56375091D01*
X155919338Y-56141123D01*
X155614021Y-56014345D01*
X155283429Y-56014056D01*
X154977891Y-56140302D01*
X154743923Y-56373862D01*
X154617145Y-56679179D01*
X154616856Y-57009771D01*
X143614307Y-57009771D01*
X144742489Y-55881589D01*
X144894663Y-55653844D01*
X144948100Y-55385200D01*
X144948100Y-54832028D01*
X145119455Y-55045733D01*
X145718560Y-55374771D01*
X145848723Y-55401398D01*
X146119100Y-55156005D01*
X146119100Y-53581300D01*
X146373100Y-53581300D01*
X146373100Y-55156005D01*
X146643477Y-55401398D01*
X146773640Y-55374771D01*
X147372745Y-55045733D01*
X147800328Y-54512474D01*
X147991294Y-53856178D01*
X147707817Y-53581300D01*
X146373100Y-53581300D01*
X146119100Y-53581300D01*
X146099100Y-53581300D01*
X146099100Y-53327300D01*
X146119100Y-53327300D01*
X146119100Y-53307300D01*
X146373100Y-53307300D01*
X146373100Y-53327300D01*
X147707817Y-53327300D01*
X147991294Y-53052422D01*
X147800328Y-52396126D01*
X147372745Y-51862867D01*
X146773640Y-51533829D01*
X146643477Y-51507202D01*
X146373102Y-51752593D01*
X146373102Y-51462000D01*
X157168098Y-51462000D01*
X157168098Y-51752593D01*
X156897723Y-51507202D01*
X156767560Y-51533829D01*
X156168455Y-51862867D01*
X155902878Y-52194081D01*
X155745518Y-52088937D01*
X155295100Y-51999343D01*
X154844682Y-52088937D01*
X154462835Y-52344078D01*
X154295100Y-52595112D01*
X154127365Y-52344078D01*
X153745518Y-52088937D01*
X153295100Y-51999343D01*
X152844682Y-52088937D01*
X152462835Y-52344078D01*
X152437608Y-52381833D01*
X152316801Y-52194093D01*
X152123983Y-52062346D01*
X151895100Y-52015996D01*
X150695100Y-52015996D01*
X150481277Y-52056230D01*
X150284893Y-52182599D01*
X150153146Y-52375417D01*
X150106796Y-52604300D01*
X150106796Y-54304300D01*
X150147030Y-54518123D01*
X150273399Y-54714507D01*
X150466217Y-54846254D01*
X150695100Y-54892604D01*
X151895100Y-54892604D01*
X152108923Y-54852370D01*
X152305307Y-54726001D01*
X152437054Y-54533183D01*
X152438180Y-54527623D01*
X152462835Y-54564522D01*
X152844682Y-54819663D01*
X153295100Y-54909257D01*
X153745518Y-54819663D01*
X154127365Y-54564522D01*
X154295100Y-54313488D01*
X154462835Y-54564522D01*
X154844682Y-54819663D01*
X155295100Y-54909257D01*
X155745518Y-54819663D01*
X155902878Y-54714519D01*
X156168455Y-55045733D01*
X156767560Y-55374771D01*
X156897723Y-55401398D01*
X157168100Y-55156005D01*
X157168100Y-53581300D01*
X157422100Y-53581300D01*
X157422100Y-55156005D01*
X157692477Y-55401398D01*
X157822640Y-55374771D01*
X158421745Y-55045733D01*
X158849328Y-54512474D01*
X159040294Y-53856178D01*
X158756817Y-53581300D01*
X157422100Y-53581300D01*
X157168100Y-53581300D01*
X157148100Y-53581300D01*
X157148100Y-53327300D01*
X157168100Y-53327300D01*
X157168100Y-53307300D01*
X157422100Y-53307300D01*
X157422100Y-53327300D01*
X158756817Y-53327300D01*
X159040294Y-53052422D01*
X158849328Y-52396126D01*
X158421745Y-51862867D01*
X157822640Y-51533829D01*
X157692477Y-51507202D01*
X157422102Y-51752593D01*
X157422102Y-51462000D01*
X168293298Y-51462000D01*
X168293298Y-51752593D01*
X168022923Y-51507202D01*
X167892760Y-51533829D01*
X167293655Y-51862867D01*
X167028078Y-52194081D01*
X166870718Y-52088937D01*
X166420300Y-51999343D01*
X165969882Y-52088937D01*
X165588035Y-52344078D01*
X165420300Y-52595112D01*
X165252565Y-52344078D01*
X164870718Y-52088937D01*
X164420300Y-51999343D01*
X163969882Y-52088937D01*
X163588035Y-52344078D01*
X163562808Y-52381833D01*
X163442001Y-52194093D01*
X163249183Y-52062346D01*
X163020300Y-52015996D01*
X161820300Y-52015996D01*
X161606477Y-52056230D01*
X161410093Y-52182599D01*
X161278346Y-52375417D01*
X161231996Y-52604300D01*
X161231996Y-54304300D01*
X161272230Y-54518123D01*
X161398599Y-54714507D01*
X161591417Y-54846254D01*
X161820300Y-54892604D01*
X163020300Y-54892604D01*
X163234123Y-54852370D01*
X163430507Y-54726001D01*
X163562254Y-54533183D01*
X163563380Y-54527623D01*
X163588035Y-54564522D01*
X163969882Y-54819663D01*
X164420300Y-54909257D01*
X164870718Y-54819663D01*
X165252565Y-54564522D01*
X165420300Y-54313488D01*
X165588035Y-54564522D01*
X165969882Y-54819663D01*
X166420300Y-54909257D01*
X166870718Y-54819663D01*
X167028078Y-54714519D01*
X167293655Y-55045733D01*
X167892760Y-55374771D01*
X168022923Y-55401398D01*
X168293300Y-55156005D01*
X168293300Y-53581300D01*
X168547300Y-53581300D01*
X168547300Y-55156005D01*
X168817677Y-55401398D01*
X168947840Y-55374771D01*
X169546945Y-55045733D01*
X169974528Y-54512474D01*
X170165494Y-53856178D01*
X169882017Y-53581300D01*
X168547300Y-53581300D01*
X168293300Y-53581300D01*
X168273300Y-53581300D01*
X168273300Y-53327300D01*
X168293300Y-53327300D01*
X168293300Y-53307300D01*
X168547300Y-53307300D01*
X168547300Y-53327300D01*
X169882017Y-53327300D01*
X170165494Y-53052422D01*
X169974528Y-52396126D01*
X169546945Y-51862867D01*
X168947840Y-51533829D01*
X168817677Y-51507202D01*
X168547302Y-51752593D01*
X168547302Y-51462000D01*
X179418498Y-51462000D01*
X179418498Y-51752593D01*
X179148123Y-51507202D01*
X179017960Y-51533829D01*
X178418855Y-51862867D01*
X178153278Y-52194081D01*
X177995918Y-52088937D01*
X177545500Y-51999343D01*
X177095082Y-52088937D01*
X176713235Y-52344078D01*
X176545500Y-52595112D01*
X176377765Y-52344078D01*
X175995918Y-52088937D01*
X175545500Y-51999343D01*
X175095082Y-52088937D01*
X174713235Y-52344078D01*
X174688008Y-52381833D01*
X174567201Y-52194093D01*
X174374383Y-52062346D01*
X174145500Y-52015996D01*
X172945500Y-52015996D01*
X172731677Y-52056230D01*
X172535293Y-52182599D01*
X172403546Y-52375417D01*
X172357196Y-52604300D01*
X172357196Y-54304300D01*
X172397430Y-54518123D01*
X172523799Y-54714507D01*
X172716617Y-54846254D01*
X172945500Y-54892604D01*
X174145500Y-54892604D01*
X174359323Y-54852370D01*
X174555707Y-54726001D01*
X174687454Y-54533183D01*
X174688580Y-54527623D01*
X174713235Y-54564522D01*
X175095082Y-54819663D01*
X175545500Y-54909257D01*
X175995918Y-54819663D01*
X176377765Y-54564522D01*
X176545500Y-54313488D01*
X176713235Y-54564522D01*
X177095082Y-54819663D01*
X177545500Y-54909257D01*
X177995918Y-54819663D01*
X178153278Y-54714519D01*
X178418855Y-55045733D01*
X179017960Y-55374771D01*
X179148123Y-55401398D01*
X179418500Y-55156005D01*
X179418500Y-53581300D01*
X179672500Y-53581300D01*
X179672500Y-55156005D01*
X179942877Y-55401398D01*
X180073040Y-55374771D01*
X180672145Y-55045733D01*
X181099728Y-54512474D01*
X181290694Y-53856178D01*
X181007217Y-53581300D01*
X179672500Y-53581300D01*
X179418500Y-53581300D01*
X179398500Y-53581300D01*
X179398500Y-53327300D01*
X179418500Y-53327300D01*
X179418500Y-53307300D01*
X179672500Y-53307300D01*
X179672500Y-53327300D01*
X181007217Y-53327300D01*
X181290694Y-53052422D01*
X181099728Y-52396126D01*
X180672145Y-51862867D01*
X180073040Y-51533829D01*
X179942877Y-51507202D01*
X179672502Y-51752593D01*
X179672502Y-51462000D01*
X183168000Y-51462000D01*
X183168000Y-130158000D01*
X84472000Y-130158000D01*
X84472000Y-126574388D01*
X86440380Y-126574388D01*
X86983798Y-127889561D01*
X87989146Y-128896665D01*
X89303369Y-129442378D01*
X90726388Y-129443620D01*
X92041561Y-128900202D01*
X93048665Y-127894854D01*
X93594378Y-126580631D01*
X93595620Y-125157612D01*
X93052202Y-123842439D01*
X92046854Y-122835335D01*
X90732631Y-122289622D01*
X89309612Y-122288380D01*
X87994439Y-122831798D01*
X86987335Y-123837146D01*
X86441622Y-125151369D01*
X86440380Y-126574388D01*
X84472000Y-126574388D01*
X84472000Y-118037438D01*
X85937597Y-118037438D01*
X86291115Y-118893018D01*
X86945139Y-119548185D01*
X87800100Y-119903196D01*
X88725838Y-119904003D01*
X89439309Y-119609203D01*
X94747752Y-119609203D01*
X94964543Y-120133875D01*
X95365614Y-120535647D01*
X95889907Y-120753352D01*
X96457603Y-120753848D01*
X96982275Y-120537057D01*
X97384047Y-120135986D01*
X97601752Y-119611693D01*
X97602248Y-119043997D01*
X97385457Y-118519325D01*
X96984386Y-118117553D01*
X96460093Y-117899848D01*
X95892397Y-117899352D01*
X95367725Y-118116143D01*
X94965953Y-118517214D01*
X94748248Y-119041507D01*
X94747752Y-119609203D01*
X89439309Y-119609203D01*
X89581418Y-119550485D01*
X90236585Y-118896461D01*
X90591596Y-118041500D01*
X90592374Y-117147950D01*
X95033255Y-117147950D01*
X95085674Y-117541994D01*
X95825047Y-117828284D01*
X96617697Y-117809835D01*
X97264326Y-117541994D01*
X97316745Y-117147950D01*
X96175000Y-116006205D01*
X95033255Y-117147950D01*
X90592374Y-117147950D01*
X90592403Y-117115762D01*
X90238885Y-116260182D01*
X89584861Y-115605015D01*
X89275717Y-115476647D01*
X94173316Y-115476647D01*
X94191765Y-116269297D01*
X94459606Y-116915926D01*
X94853650Y-116968345D01*
X95995395Y-115826600D01*
X96354605Y-115826600D01*
X97496350Y-116968345D01*
X97890394Y-116915926D01*
X98176684Y-116176553D01*
X98169661Y-115874800D01*
X106324400Y-115874800D01*
X106324400Y-128930400D01*
X106333085Y-128976559D01*
X106360365Y-129018953D01*
X106401990Y-129047394D01*
X106451400Y-129057400D01*
X130388918Y-129057400D01*
X130408965Y-129088553D01*
X130450590Y-129116994D01*
X130500000Y-129127000D01*
X151000000Y-129127000D01*
X151046159Y-129118315D01*
X151088553Y-129091035D01*
X151116994Y-129049410D01*
X151127000Y-129000000D01*
X151127000Y-128448403D01*
X170824952Y-128448403D01*
X171041743Y-128973075D01*
X171442814Y-129374847D01*
X171967107Y-129592552D01*
X172534803Y-129593048D01*
X173059475Y-129376257D01*
X173461247Y-128975186D01*
X173678952Y-128450893D01*
X173679448Y-127883197D01*
X173462657Y-127358525D01*
X173061586Y-126956753D01*
X172868648Y-126876638D01*
X177834797Y-126876638D01*
X178188315Y-127732218D01*
X178842339Y-128387385D01*
X179697300Y-128742396D01*
X180623038Y-128743203D01*
X181478618Y-128389685D01*
X182133785Y-127735661D01*
X182488796Y-126880700D01*
X182489603Y-125954962D01*
X182136085Y-125099382D01*
X181482061Y-124444215D01*
X180627100Y-124089204D01*
X179701362Y-124088397D01*
X178845782Y-124441915D01*
X178190615Y-125095939D01*
X177835604Y-125950900D01*
X177834797Y-126876638D01*
X172868648Y-126876638D01*
X172537293Y-126739048D01*
X171969597Y-126738552D01*
X171444925Y-126955343D01*
X171043153Y-127356414D01*
X170825448Y-127880707D01*
X170824952Y-128448403D01*
X151127000Y-128448403D01*
X151127000Y-125987150D01*
X171110455Y-125987150D01*
X171162874Y-126381194D01*
X171902247Y-126667484D01*
X172694897Y-126649035D01*
X173341526Y-126381194D01*
X173393945Y-125987150D01*
X172252200Y-124845405D01*
X171110455Y-125987150D01*
X151127000Y-125987150D01*
X151127000Y-124500000D01*
X151123622Y-124470903D01*
X151102562Y-124425100D01*
X151065341Y-124391098D01*
X150939923Y-124315847D01*
X170250516Y-124315847D01*
X170268965Y-125108497D01*
X170536806Y-125755126D01*
X170930850Y-125807545D01*
X172072595Y-124665800D01*
X172431805Y-124665800D01*
X173573550Y-125807545D01*
X173967594Y-125755126D01*
X174253884Y-125015753D01*
X174235435Y-124223103D01*
X173967594Y-123576474D01*
X173573550Y-123524055D01*
X172431805Y-124665800D01*
X172072595Y-124665800D01*
X170930850Y-123524055D01*
X170536806Y-123576474D01*
X170250516Y-124315847D01*
X150939923Y-124315847D01*
X149320929Y-123344450D01*
X171110455Y-123344450D01*
X172252200Y-124486195D01*
X173393945Y-123344450D01*
X173341526Y-122950406D01*
X172602153Y-122664116D01*
X171809503Y-122682565D01*
X171162874Y-122950406D01*
X171110455Y-123344450D01*
X149320929Y-123344450D01*
X148627000Y-122928093D01*
X148627000Y-118739414D01*
X161682101Y-118739414D01*
X161944467Y-119374389D01*
X162429856Y-119860626D01*
X163064371Y-120124100D01*
X163751414Y-120124699D01*
X164322810Y-119888603D01*
X170850352Y-119888603D01*
X171067143Y-120413275D01*
X171468214Y-120815047D01*
X171992507Y-121032752D01*
X172560203Y-121033248D01*
X173084875Y-120816457D01*
X173486647Y-120415386D01*
X173704352Y-119891093D01*
X173704848Y-119323397D01*
X173488057Y-118798725D01*
X173086986Y-118396953D01*
X172894048Y-118316838D01*
X177860197Y-118316838D01*
X178213715Y-119172418D01*
X178867739Y-119827585D01*
X179722700Y-120182596D01*
X180648438Y-120183403D01*
X181504018Y-119829885D01*
X182159185Y-119175861D01*
X182514196Y-118320900D01*
X182515003Y-117395162D01*
X182161485Y-116539582D01*
X181507461Y-115884415D01*
X180652500Y-115529404D01*
X179726762Y-115528597D01*
X178871182Y-115882115D01*
X178216015Y-116536139D01*
X177861004Y-117391100D01*
X177860197Y-118316838D01*
X172894048Y-118316838D01*
X172562693Y-118179248D01*
X171994997Y-118178752D01*
X171470325Y-118395543D01*
X171068553Y-118796614D01*
X170850848Y-119320907D01*
X170850352Y-119888603D01*
X164322810Y-119888603D01*
X164386389Y-119862333D01*
X164872626Y-119376944D01*
X165136100Y-118742429D01*
X165136699Y-118055386D01*
X164877201Y-117427350D01*
X171135855Y-117427350D01*
X171188274Y-117821394D01*
X171927647Y-118107684D01*
X172720297Y-118089235D01*
X173366926Y-117821394D01*
X173419345Y-117427350D01*
X172277600Y-116285605D01*
X171135855Y-117427350D01*
X164877201Y-117427350D01*
X164874333Y-117420411D01*
X164388944Y-116934174D01*
X163754429Y-116670700D01*
X163067386Y-116670101D01*
X162432411Y-116932467D01*
X161946174Y-117417856D01*
X161682700Y-118052371D01*
X161682101Y-118739414D01*
X148627000Y-118739414D01*
X148627000Y-115756047D01*
X170275916Y-115756047D01*
X170294365Y-116548697D01*
X170562206Y-117195326D01*
X170956250Y-117247745D01*
X172097995Y-116106000D01*
X172457205Y-116106000D01*
X173598950Y-117247745D01*
X173992994Y-117195326D01*
X174279284Y-116455953D01*
X174260835Y-115663303D01*
X173992994Y-115016674D01*
X173598950Y-114964255D01*
X172457205Y-116106000D01*
X172097995Y-116106000D01*
X170956250Y-114964255D01*
X170562206Y-115016674D01*
X170275916Y-115756047D01*
X148627000Y-115756047D01*
X148627000Y-114784650D01*
X171135855Y-114784650D01*
X172277600Y-115926395D01*
X173419345Y-114784650D01*
X173366926Y-114390606D01*
X172627553Y-114104316D01*
X171834903Y-114122765D01*
X171188274Y-114390606D01*
X171135855Y-114784650D01*
X148627000Y-114784650D01*
X148627000Y-111379603D01*
X170799552Y-111379603D01*
X171016343Y-111904275D01*
X171417414Y-112306047D01*
X171941707Y-112523752D01*
X172509403Y-112524248D01*
X173034075Y-112307457D01*
X173435847Y-111906386D01*
X173653552Y-111382093D01*
X173654048Y-110814397D01*
X173437257Y-110289725D01*
X173036186Y-109887953D01*
X172843248Y-109807838D01*
X177809397Y-109807838D01*
X178162915Y-110663418D01*
X178816939Y-111318585D01*
X179671900Y-111673596D01*
X180597638Y-111674403D01*
X181453218Y-111320885D01*
X182108385Y-110666861D01*
X182463396Y-109811900D01*
X182464203Y-108886162D01*
X182110685Y-108030582D01*
X181456661Y-107375415D01*
X180601700Y-107020404D01*
X179675962Y-107019597D01*
X178820382Y-107373115D01*
X178165215Y-108027139D01*
X177810204Y-108882100D01*
X177809397Y-109807838D01*
X172843248Y-109807838D01*
X172511893Y-109670248D01*
X171944197Y-109669752D01*
X171419525Y-109886543D01*
X171017753Y-110287614D01*
X170800048Y-110811907D01*
X170799552Y-111379603D01*
X148627000Y-111379603D01*
X148627000Y-108918350D01*
X171085055Y-108918350D01*
X171137474Y-109312394D01*
X171876847Y-109598684D01*
X172669497Y-109580235D01*
X173316126Y-109312394D01*
X173368545Y-108918350D01*
X172226800Y-107776605D01*
X171085055Y-108918350D01*
X148627000Y-108918350D01*
X148627000Y-106539414D01*
X149682101Y-106539414D01*
X149944467Y-107174389D01*
X150429856Y-107660626D01*
X151064371Y-107924100D01*
X151751414Y-107924699D01*
X152386389Y-107662333D01*
X152872626Y-107176944D01*
X153136100Y-106542429D01*
X153136102Y-106539414D01*
X161682101Y-106539414D01*
X161944467Y-107174389D01*
X162429856Y-107660626D01*
X163064371Y-107924100D01*
X163751414Y-107924699D01*
X164386389Y-107662333D01*
X164802400Y-107247047D01*
X170225116Y-107247047D01*
X170243565Y-108039697D01*
X170511406Y-108686326D01*
X170905450Y-108738745D01*
X172047195Y-107597000D01*
X172406405Y-107597000D01*
X173548150Y-108738745D01*
X173942194Y-108686326D01*
X174228484Y-107946953D01*
X174210035Y-107154303D01*
X173942194Y-106507674D01*
X173548150Y-106455255D01*
X172406405Y-107597000D01*
X172047195Y-107597000D01*
X170905450Y-106455255D01*
X170511406Y-106507674D01*
X170225116Y-107247047D01*
X164802400Y-107247047D01*
X164872626Y-107176944D01*
X165136100Y-106542429D01*
X165136332Y-106275650D01*
X171085055Y-106275650D01*
X172226800Y-107417395D01*
X173368545Y-106275650D01*
X173316126Y-105881606D01*
X172576753Y-105595316D01*
X171784103Y-105613765D01*
X171137474Y-105881606D01*
X171085055Y-106275650D01*
X165136332Y-106275650D01*
X165136699Y-105855386D01*
X164874333Y-105220411D01*
X164388944Y-104734174D01*
X163754429Y-104470700D01*
X163067386Y-104470101D01*
X162432411Y-104732467D01*
X161946174Y-105217856D01*
X161682700Y-105852371D01*
X161682101Y-106539414D01*
X153136102Y-106539414D01*
X153136699Y-105855386D01*
X152874333Y-105220411D01*
X152388944Y-104734174D01*
X151754429Y-104470700D01*
X151067386Y-104470101D01*
X150432411Y-104732467D01*
X149946174Y-105217856D01*
X149682700Y-105852371D01*
X149682101Y-106539414D01*
X148627000Y-106539414D01*
X148627000Y-103989414D01*
X155682101Y-103989414D01*
X155944467Y-104624389D01*
X156429856Y-105110626D01*
X157064371Y-105374100D01*
X157751414Y-105374699D01*
X158386389Y-105112333D01*
X158872626Y-104626944D01*
X159136100Y-103992429D01*
X159136699Y-103305386D01*
X158988536Y-102946803D01*
X170774152Y-102946803D01*
X170990943Y-103471475D01*
X171392014Y-103873247D01*
X171916307Y-104090952D01*
X172484003Y-104091448D01*
X173008675Y-103874657D01*
X173410447Y-103473586D01*
X173628152Y-102949293D01*
X173628648Y-102381597D01*
X173411857Y-101856925D01*
X173010786Y-101455153D01*
X172817848Y-101375038D01*
X177783997Y-101375038D01*
X178137515Y-102230618D01*
X178791539Y-102885785D01*
X179646500Y-103240796D01*
X180572238Y-103241603D01*
X181427818Y-102888085D01*
X182082985Y-102234061D01*
X182437996Y-101379100D01*
X182438803Y-100453362D01*
X182085285Y-99597782D01*
X181431261Y-98942615D01*
X180576300Y-98587604D01*
X179650562Y-98586797D01*
X178794982Y-98940315D01*
X178139815Y-99594339D01*
X177784804Y-100449300D01*
X177783997Y-101375038D01*
X172817848Y-101375038D01*
X172486493Y-101237448D01*
X171918797Y-101236952D01*
X171394125Y-101453743D01*
X170992353Y-101854814D01*
X170774648Y-102379107D01*
X170774152Y-102946803D01*
X158988536Y-102946803D01*
X158874333Y-102670411D01*
X158388944Y-102184174D01*
X157754429Y-101920700D01*
X157067386Y-101920101D01*
X156432411Y-102182467D01*
X155946174Y-102667856D01*
X155682700Y-103302371D01*
X155682101Y-103989414D01*
X148627000Y-103989414D01*
X148627000Y-99446803D01*
X170774152Y-99446803D01*
X170990943Y-99971475D01*
X171392014Y-100373247D01*
X171916307Y-100590952D01*
X172484003Y-100591448D01*
X173008675Y-100374657D01*
X173410447Y-99973586D01*
X173628152Y-99449293D01*
X173628648Y-98881597D01*
X173411857Y-98356925D01*
X173010786Y-97955153D01*
X172486493Y-97737448D01*
X171918797Y-97736952D01*
X171394125Y-97953743D01*
X170992353Y-98354814D01*
X170774648Y-98879107D01*
X170774152Y-99446803D01*
X148627000Y-99446803D01*
X148627000Y-99000000D01*
X148618315Y-98953841D01*
X148591035Y-98911447D01*
X148549410Y-98883006D01*
X148500000Y-98873000D01*
X148048281Y-98873000D01*
X147971338Y-98795923D01*
X147666021Y-98669145D01*
X147335429Y-98668856D01*
X147328487Y-98671725D01*
X147330855Y-98666021D01*
X147331144Y-98335429D01*
X147204898Y-98029891D01*
X146971338Y-97795923D01*
X146666021Y-97669145D01*
X146335429Y-97668856D01*
X146029891Y-97795102D01*
X146000153Y-97824788D01*
X145971338Y-97795923D01*
X145666021Y-97669145D01*
X145335429Y-97668856D01*
X145029891Y-97795102D01*
X145000153Y-97824788D01*
X144971338Y-97795923D01*
X144666021Y-97669145D01*
X144335429Y-97668856D01*
X144029891Y-97795102D01*
X144000153Y-97824788D01*
X143971338Y-97795923D01*
X143666021Y-97669145D01*
X143335429Y-97668856D01*
X143029891Y-97795102D01*
X143000153Y-97824788D01*
X142971338Y-97795923D01*
X142666021Y-97669145D01*
X142335429Y-97668856D01*
X142029891Y-97795102D01*
X142000153Y-97824788D01*
X141971338Y-97795923D01*
X141666021Y-97669145D01*
X141335429Y-97668856D01*
X141029891Y-97795102D01*
X141000153Y-97824788D01*
X140971338Y-97795923D01*
X140666021Y-97669145D01*
X140335429Y-97668856D01*
X140029891Y-97795102D01*
X140000153Y-97824788D01*
X139971338Y-97795923D01*
X139666021Y-97669145D01*
X139335429Y-97668856D01*
X139029891Y-97795102D01*
X138795923Y-98028662D01*
X138669145Y-98333979D01*
X138668856Y-98664571D01*
X138795102Y-98970109D01*
X138824788Y-98999847D01*
X138795923Y-99028662D01*
X138669145Y-99333979D01*
X138668856Y-99664571D01*
X138795102Y-99970109D01*
X138824788Y-99999847D01*
X138795923Y-100028662D01*
X138669145Y-100333979D01*
X138668856Y-100664571D01*
X138795102Y-100970109D01*
X139028662Y-101204077D01*
X139333979Y-101330855D01*
X139664571Y-101331144D01*
X139873000Y-101245023D01*
X139873000Y-101574600D01*
X118369985Y-101574600D01*
X118362272Y-101528321D01*
X118330446Y-101463195D01*
X118289623Y-101433616D01*
X118240509Y-101422248D01*
X118190841Y-101430885D01*
X118148447Y-101458165D01*
X118120006Y-101499790D01*
X118110000Y-101549200D01*
X118110000Y-115747800D01*
X106451400Y-115747800D01*
X106405241Y-115756485D01*
X106362847Y-115783765D01*
X106334406Y-115825390D01*
X106324400Y-115874800D01*
X98169661Y-115874800D01*
X98158235Y-115383903D01*
X97890394Y-114737274D01*
X97496350Y-114684855D01*
X96354605Y-115826600D01*
X95995395Y-115826600D01*
X94853650Y-114684855D01*
X94459606Y-114737274D01*
X94173316Y-115476647D01*
X89275717Y-115476647D01*
X88729900Y-115250004D01*
X87804162Y-115249197D01*
X86948582Y-115602715D01*
X86293415Y-116256739D01*
X85938404Y-117111700D01*
X85937597Y-118037438D01*
X84472000Y-118037438D01*
X84472000Y-114505250D01*
X95033255Y-114505250D01*
X96175000Y-115646995D01*
X97316745Y-114505250D01*
X97264326Y-114111206D01*
X96524953Y-113824916D01*
X95732303Y-113843365D01*
X95085674Y-114111206D01*
X95033255Y-114505250D01*
X84472000Y-114505250D01*
X84472000Y-93738171D01*
X162770256Y-93738171D01*
X162896502Y-94043709D01*
X163130062Y-94277677D01*
X163435379Y-94404455D01*
X163765971Y-94404744D01*
X164071509Y-94278498D01*
X164305477Y-94044938D01*
X164432255Y-93739621D01*
X164432544Y-93409029D01*
X164306298Y-93103491D01*
X164072738Y-92869523D01*
X163767421Y-92742745D01*
X163436829Y-92742456D01*
X163131291Y-92868702D01*
X162897323Y-93102262D01*
X162770545Y-93407579D01*
X162770256Y-93738171D01*
X84472000Y-93738171D01*
X84472000Y-91833171D01*
X146463456Y-91833171D01*
X146589702Y-92138709D01*
X146823262Y-92372677D01*
X147128579Y-92499455D01*
X147459171Y-92499744D01*
X147764709Y-92373498D01*
X147998677Y-92139938D01*
X148125455Y-91834621D01*
X148125744Y-91504029D01*
X147999498Y-91198491D01*
X147765938Y-90964523D01*
X147460621Y-90837745D01*
X147130029Y-90837456D01*
X146824491Y-90963702D01*
X146590523Y-91197262D01*
X146463745Y-91502579D01*
X146463456Y-91833171D01*
X84472000Y-91833171D01*
X84472000Y-89966271D01*
X116006316Y-89966271D01*
X116132562Y-90271809D01*
X116366122Y-90505777D01*
X116671439Y-90632555D01*
X117002031Y-90632844D01*
X117307569Y-90506598D01*
X117541537Y-90273038D01*
X117564717Y-90217214D01*
X155696301Y-90217214D01*
X155958667Y-90852189D01*
X156444056Y-91338426D01*
X157078571Y-91601900D01*
X157765614Y-91602499D01*
X158400589Y-91340133D01*
X158886826Y-90854744D01*
X159150300Y-90220229D01*
X159150899Y-89533186D01*
X158888533Y-88898211D01*
X158403144Y-88411974D01*
X157768629Y-88148500D01*
X157081586Y-88147901D01*
X156446611Y-88410267D01*
X155960374Y-88895656D01*
X155696900Y-89530171D01*
X155696301Y-90217214D01*
X117564717Y-90217214D01*
X117668315Y-89967721D01*
X117668604Y-89637129D01*
X117542358Y-89331591D01*
X117308798Y-89097623D01*
X117003481Y-88970845D01*
X116672889Y-88970556D01*
X116367351Y-89096802D01*
X116133383Y-89330362D01*
X116006605Y-89635679D01*
X116006316Y-89966271D01*
X84472000Y-89966271D01*
X84472000Y-85521388D01*
X86476380Y-85521388D01*
X87019798Y-86836561D01*
X88025146Y-87843665D01*
X89339369Y-88389378D01*
X90762388Y-88390620D01*
X92077561Y-87847202D01*
X92944503Y-86981771D01*
X106153656Y-86981771D01*
X106279902Y-87287309D01*
X106513462Y-87521277D01*
X106818779Y-87648055D01*
X107052933Y-87648260D01*
X107092702Y-87744509D01*
X107326262Y-87978477D01*
X107631579Y-88105255D01*
X107962171Y-88105544D01*
X108267709Y-87979298D01*
X108501677Y-87745738D01*
X108534282Y-87667214D01*
X149696301Y-87667214D01*
X149958667Y-88302189D01*
X150444056Y-88788426D01*
X151078571Y-89051900D01*
X151765614Y-89052499D01*
X152400589Y-88790133D01*
X152886826Y-88304744D01*
X153150300Y-87670229D01*
X153150302Y-87667214D01*
X161696301Y-87667214D01*
X161958667Y-88302189D01*
X162444056Y-88788426D01*
X163078571Y-89051900D01*
X163765614Y-89052499D01*
X164400589Y-88790133D01*
X164886826Y-88304744D01*
X165150300Y-87670229D01*
X165150899Y-86983186D01*
X164888533Y-86348211D01*
X164403144Y-85861974D01*
X163768629Y-85598500D01*
X163081586Y-85597901D01*
X162446611Y-85860267D01*
X161960374Y-86345656D01*
X161696900Y-86980171D01*
X161696301Y-87667214D01*
X153150302Y-87667214D01*
X153150899Y-86983186D01*
X152888533Y-86348211D01*
X152403144Y-85861974D01*
X151768629Y-85598500D01*
X151081586Y-85597901D01*
X150446611Y-85860267D01*
X149960374Y-86345656D01*
X149696900Y-86980171D01*
X149696301Y-87667214D01*
X108534282Y-87667214D01*
X108628455Y-87440421D01*
X108628744Y-87109829D01*
X108502498Y-86804291D01*
X108268938Y-86570323D01*
X107963621Y-86443545D01*
X107729467Y-86443340D01*
X107689698Y-86347091D01*
X107456138Y-86113123D01*
X107150821Y-85986345D01*
X106820229Y-85986056D01*
X106514691Y-86112302D01*
X106280723Y-86345862D01*
X106153945Y-86651179D01*
X106153656Y-86981771D01*
X92944503Y-86981771D01*
X93084665Y-86841854D01*
X93630378Y-85527631D01*
X93631620Y-84104612D01*
X93088202Y-82789439D01*
X92082854Y-81782335D01*
X90768631Y-81236622D01*
X89345612Y-81235380D01*
X88030439Y-81778798D01*
X87023335Y-82784146D01*
X86477622Y-84098369D01*
X86476380Y-85521388D01*
X84472000Y-85521388D01*
X84472000Y-79410489D01*
X98059013Y-79410489D01*
X98222631Y-79806475D01*
X98248091Y-79831979D01*
X98223696Y-79856332D01*
X98059387Y-80252032D01*
X98059013Y-80680489D01*
X98222631Y-81076475D01*
X98248091Y-81101979D01*
X98223696Y-81126332D01*
X98059387Y-81522032D01*
X98059013Y-81950489D01*
X98222631Y-82346475D01*
X98248091Y-82371979D01*
X98223696Y-82396332D01*
X98059387Y-82792032D01*
X98059013Y-83220489D01*
X98222631Y-83616475D01*
X98248091Y-83641979D01*
X98223696Y-83666332D01*
X98059387Y-84062032D01*
X98059013Y-84490489D01*
X98222631Y-84886475D01*
X98525332Y-85189704D01*
X98921032Y-85354013D01*
X99349489Y-85354387D01*
X99745475Y-85190769D01*
X99770979Y-85165309D01*
X99795332Y-85189704D01*
X100191032Y-85354013D01*
X100619489Y-85354387D01*
X101015475Y-85190769D01*
X101318704Y-84888068D01*
X101358474Y-84792291D01*
X127250896Y-84792291D01*
X127377142Y-85097829D01*
X127610702Y-85331797D01*
X127916019Y-85458575D01*
X128246611Y-85458864D01*
X128552149Y-85332618D01*
X128786117Y-85099058D01*
X128912895Y-84793741D01*
X128913184Y-84463149D01*
X128786938Y-84157611D01*
X128553378Y-83923643D01*
X128248061Y-83796865D01*
X127917469Y-83796576D01*
X127611931Y-83922822D01*
X127377963Y-84156382D01*
X127251185Y-84461699D01*
X127250896Y-84792291D01*
X101358474Y-84792291D01*
X101483013Y-84492368D01*
X101483387Y-84063911D01*
X101319769Y-83667925D01*
X101294309Y-83642421D01*
X101318704Y-83618068D01*
X101483013Y-83222368D01*
X101483248Y-82952281D01*
X108850849Y-82952281D01*
X108984082Y-83274731D01*
X109230571Y-83521651D01*
X109552789Y-83655447D01*
X109901681Y-83655751D01*
X110224131Y-83522518D01*
X110471051Y-83276029D01*
X110604847Y-82953811D01*
X110605151Y-82604919D01*
X110471918Y-82282469D01*
X110225429Y-82035549D01*
X109903211Y-81901753D01*
X109554319Y-81901449D01*
X109231869Y-82034682D01*
X108984949Y-82281171D01*
X108851153Y-82603389D01*
X108850849Y-82952281D01*
X101483248Y-82952281D01*
X101483387Y-82793911D01*
X101371339Y-82522734D01*
X101474371Y-82625766D01*
X101832204Y-82616272D01*
X102060062Y-82003649D01*
X102036135Y-81350461D01*
X101832204Y-80858128D01*
X101474371Y-80848634D01*
X101371085Y-80951920D01*
X101419646Y-80834971D01*
X107017256Y-80834971D01*
X107143502Y-81140509D01*
X107377062Y-81374477D01*
X107682379Y-81501255D01*
X108012971Y-81501544D01*
X108318509Y-81375298D01*
X108552477Y-81141738D01*
X108649469Y-80908155D01*
X108874971Y-81134051D01*
X109197189Y-81267847D01*
X109546081Y-81268151D01*
X109868531Y-81134918D01*
X110115451Y-80888429D01*
X110249247Y-80566211D01*
X110249278Y-80530171D01*
X110852656Y-80530171D01*
X110978902Y-80835709D01*
X111212462Y-81069677D01*
X111517779Y-81196455D01*
X111848371Y-81196744D01*
X111924783Y-81165171D01*
X130639256Y-81165171D01*
X130765502Y-81470709D01*
X130999062Y-81704677D01*
X131304379Y-81831455D01*
X131634971Y-81831744D01*
X131940509Y-81705498D01*
X132174477Y-81471938D01*
X132282872Y-81210891D01*
X132986216Y-81210891D01*
X133112462Y-81516429D01*
X133346022Y-81750397D01*
X133651339Y-81877175D01*
X133981931Y-81877464D01*
X134287469Y-81751218D01*
X134521437Y-81517658D01*
X134648215Y-81212341D01*
X134648504Y-80881749D01*
X134522258Y-80576211D01*
X134288698Y-80342243D01*
X133983381Y-80215465D01*
X133652789Y-80215176D01*
X133347251Y-80341422D01*
X133113283Y-80574982D01*
X132986505Y-80880299D01*
X132986216Y-81210891D01*
X132282872Y-81210891D01*
X132301255Y-81166621D01*
X132301544Y-80836029D01*
X132175298Y-80530491D01*
X131941738Y-80296523D01*
X131636421Y-80169745D01*
X131305829Y-80169456D01*
X131000291Y-80295702D01*
X130766323Y-80529262D01*
X130639545Y-80834579D01*
X130639256Y-81165171D01*
X111924783Y-81165171D01*
X112153909Y-81070498D01*
X112387877Y-80836938D01*
X112514655Y-80531621D01*
X112514944Y-80201029D01*
X112388698Y-79895491D01*
X112155138Y-79661523D01*
X111849821Y-79534745D01*
X111519229Y-79534456D01*
X111213691Y-79660702D01*
X110979723Y-79894262D01*
X110852945Y-80199579D01*
X110852656Y-80530171D01*
X110249278Y-80530171D01*
X110249551Y-80217319D01*
X110116318Y-79894869D01*
X109869829Y-79647949D01*
X109547611Y-79514153D01*
X109198719Y-79513849D01*
X108876269Y-79647082D01*
X108629349Y-79893571D01*
X108517061Y-80163991D01*
X108319738Y-79966323D01*
X108014421Y-79839545D01*
X107683829Y-79839256D01*
X107378291Y-79965502D01*
X107144323Y-80199062D01*
X107017545Y-80504379D01*
X107017256Y-80834971D01*
X101419646Y-80834971D01*
X101483013Y-80682368D01*
X101483387Y-80253911D01*
X101371339Y-79982734D01*
X101474371Y-80085766D01*
X101832204Y-80076272D01*
X102060062Y-79463649D01*
X102036135Y-78810461D01*
X101832204Y-78318128D01*
X101474371Y-78308634D01*
X100585805Y-79197200D01*
X100890920Y-79502315D01*
X100621368Y-79390387D01*
X100419606Y-79390211D01*
X100406200Y-79376805D01*
X100392818Y-79390187D01*
X100391296Y-79390186D01*
X100213188Y-79212078D01*
X100213189Y-79210606D01*
X100226595Y-79197200D01*
X100213213Y-79183818D01*
X100213387Y-78983911D01*
X100101339Y-78712734D01*
X100406200Y-79017595D01*
X101294766Y-78129029D01*
X101293104Y-78066371D01*
X113951456Y-78066371D01*
X114077702Y-78371909D01*
X114311262Y-78605877D01*
X114616579Y-78732655D01*
X114947171Y-78732944D01*
X115252709Y-78606698D01*
X115486677Y-78373138D01*
X115613455Y-78067821D01*
X115613607Y-77893651D01*
X129094936Y-77893651D01*
X129221182Y-78199189D01*
X129454742Y-78433157D01*
X129760059Y-78559935D01*
X130090651Y-78560224D01*
X130396189Y-78433978D01*
X130630157Y-78200418D01*
X130756935Y-77895101D01*
X130757224Y-77564509D01*
X130630978Y-77258971D01*
X130397418Y-77025003D01*
X130092101Y-76898225D01*
X129761509Y-76897936D01*
X129455971Y-77024182D01*
X129222003Y-77257742D01*
X129095225Y-77563059D01*
X129094936Y-77893651D01*
X115613607Y-77893651D01*
X115613744Y-77737229D01*
X115487498Y-77431691D01*
X115253938Y-77197723D01*
X114948621Y-77070945D01*
X114618029Y-77070656D01*
X114312491Y-77196902D01*
X114078523Y-77430462D01*
X113951745Y-77735779D01*
X113951456Y-78066371D01*
X101293104Y-78066371D01*
X101285272Y-77771196D01*
X100672649Y-77543338D01*
X100019461Y-77567265D01*
X99527128Y-77771196D01*
X99517634Y-78129029D01*
X99620920Y-78232315D01*
X99351368Y-78120387D01*
X98922911Y-78120013D01*
X98526925Y-78283631D01*
X98223696Y-78586332D01*
X98059387Y-78982032D01*
X98059013Y-79410489D01*
X84472000Y-79410489D01*
X84472000Y-77859924D01*
X85023740Y-78014700D01*
X85298740Y-78014700D01*
X85298740Y-76498700D01*
X85278740Y-76498700D01*
X85278740Y-76244700D01*
X85298740Y-76244700D01*
X85298740Y-74728700D01*
X85552740Y-74728700D01*
X85552740Y-76244700D01*
X85572740Y-76244700D01*
X85572740Y-76498700D01*
X85552740Y-76498700D01*
X85552740Y-78014700D01*
X85827740Y-78014700D01*
X86446822Y-77841033D01*
X86952319Y-77443673D01*
X87267275Y-76883115D01*
X87269839Y-76872562D01*
X87725450Y-77090502D01*
X87747974Y-77094982D01*
X87998740Y-76847883D01*
X87998740Y-75498700D01*
X88252740Y-75498700D01*
X88252740Y-76847883D01*
X88503506Y-77094982D01*
X88526030Y-77090502D01*
X89087821Y-76821771D01*
X107880856Y-76821771D01*
X108007102Y-77127309D01*
X108240662Y-77361277D01*
X108545979Y-77488055D01*
X108876571Y-77488344D01*
X109149279Y-77375663D01*
X109358779Y-77462655D01*
X109689371Y-77462944D01*
X109994909Y-77336698D01*
X110228877Y-77103138D01*
X110355655Y-76797821D01*
X110355944Y-76467229D01*
X110229698Y-76161691D01*
X109996138Y-75927723D01*
X109690821Y-75800945D01*
X109360229Y-75800656D01*
X109087521Y-75913337D01*
X108878021Y-75826345D01*
X108547429Y-75826056D01*
X108241891Y-75952302D01*
X108007923Y-76185862D01*
X107881145Y-76491179D01*
X107880856Y-76821771D01*
X89087821Y-76821771D01*
X89095914Y-76817900D01*
X89518098Y-76347963D01*
X89728308Y-75752235D01*
X89458891Y-75498700D01*
X88252740Y-75498700D01*
X87998740Y-75498700D01*
X87978740Y-75498700D01*
X87978740Y-75399371D01*
X105620256Y-75399371D01*
X105746502Y-75704909D01*
X105980062Y-75938877D01*
X106285379Y-76065655D01*
X106615971Y-76065944D01*
X106921509Y-75939698D01*
X107155477Y-75706138D01*
X107282255Y-75400821D01*
X107282544Y-75070229D01*
X107156298Y-74764691D01*
X106922738Y-74530723D01*
X106617421Y-74403945D01*
X106286829Y-74403656D01*
X105981291Y-74529902D01*
X105747323Y-74763462D01*
X105620545Y-75068779D01*
X105620256Y-75399371D01*
X87978740Y-75399371D01*
X87978740Y-75244700D01*
X87998740Y-75244700D01*
X87998740Y-73895517D01*
X88252740Y-73895517D01*
X88252740Y-75244700D01*
X89458891Y-75244700D01*
X89728308Y-74991165D01*
X89651746Y-74774190D01*
X89749462Y-74872077D01*
X90054779Y-74998855D01*
X90385371Y-74999144D01*
X90690909Y-74872898D01*
X90924877Y-74639338D01*
X91051655Y-74334021D01*
X91051944Y-74003429D01*
X90925698Y-73697891D01*
X90692138Y-73463923D01*
X90386821Y-73337145D01*
X90056229Y-73336856D01*
X89750691Y-73463102D01*
X89516723Y-73696662D01*
X89389945Y-74001979D01*
X89389726Y-74252545D01*
X89095914Y-73925500D01*
X88526030Y-73652898D01*
X88503506Y-73648418D01*
X88252740Y-73895517D01*
X87998740Y-73895517D01*
X87747974Y-73648418D01*
X87725450Y-73652898D01*
X87155566Y-73925500D01*
X86733382Y-74395437D01*
X86531122Y-74968634D01*
X86446822Y-74902367D01*
X85827740Y-74728700D01*
X85552740Y-74728700D01*
X85298740Y-74728700D01*
X85023740Y-74728700D01*
X84472000Y-74883476D01*
X84472000Y-70859924D01*
X85023740Y-71014700D01*
X85298740Y-71014700D01*
X85298740Y-69498700D01*
X85278740Y-69498700D01*
X85278740Y-69244700D01*
X85298740Y-69244700D01*
X85298740Y-67728700D01*
X85552740Y-67728700D01*
X85552740Y-69244700D01*
X85572740Y-69244700D01*
X85572740Y-69498700D01*
X85552740Y-69498700D01*
X85552740Y-71014700D01*
X85827740Y-71014700D01*
X86446822Y-70841033D01*
X86531122Y-70774766D01*
X86733382Y-71347963D01*
X87155566Y-71817900D01*
X87725450Y-72090502D01*
X87747974Y-72094982D01*
X87998740Y-71847883D01*
X87998740Y-70498700D01*
X88252740Y-70498700D01*
X88252740Y-71847883D01*
X88503506Y-72094982D01*
X88526030Y-72090502D01*
X89016116Y-71856071D01*
X99079756Y-71856071D01*
X99206002Y-72161609D01*
X99439562Y-72395577D01*
X99744879Y-72522355D01*
X100075471Y-72522644D01*
X100381009Y-72396398D01*
X100614977Y-72162838D01*
X100741755Y-71857521D01*
X100742044Y-71526929D01*
X100615798Y-71221391D01*
X100382238Y-70987423D01*
X100076921Y-70860645D01*
X99746329Y-70860356D01*
X99440791Y-70986602D01*
X99206823Y-71220162D01*
X99080045Y-71525479D01*
X99079756Y-71856071D01*
X89016116Y-71856071D01*
X89095914Y-71817900D01*
X89518098Y-71347963D01*
X89728308Y-70752235D01*
X89565231Y-70598771D01*
X100616456Y-70598771D01*
X100742702Y-70904309D01*
X100976262Y-71138277D01*
X101281579Y-71265055D01*
X101552437Y-71265292D01*
X101454945Y-71500079D01*
X101454656Y-71830671D01*
X101580902Y-72136209D01*
X101814462Y-72370177D01*
X101818402Y-72371813D01*
X101638629Y-72371656D01*
X101333091Y-72497902D01*
X101099123Y-72731462D01*
X100972345Y-73036779D01*
X100972056Y-73367371D01*
X101098302Y-73672909D01*
X101331862Y-73906877D01*
X101637179Y-74033655D01*
X101967771Y-74033944D01*
X102273309Y-73907698D01*
X102507277Y-73674138D01*
X102634055Y-73368821D01*
X102634344Y-73038229D01*
X102508098Y-72732691D01*
X102274538Y-72498723D01*
X102270598Y-72497087D01*
X102450371Y-72497244D01*
X102755909Y-72370998D01*
X102989877Y-72137438D01*
X103116655Y-71832121D01*
X103116944Y-71501529D01*
X103111260Y-71487771D01*
X104782056Y-71487771D01*
X104908302Y-71793309D01*
X105141862Y-72027277D01*
X105447179Y-72154055D01*
X105777771Y-72154344D01*
X105899739Y-72103948D01*
X105899656Y-72198971D01*
X105968105Y-72364630D01*
X105899945Y-72528779D01*
X105899656Y-72859371D01*
X105968105Y-73025030D01*
X105899945Y-73189179D01*
X105899656Y-73519771D01*
X106025902Y-73825309D01*
X106259462Y-74059277D01*
X106564779Y-74186055D01*
X106895371Y-74186344D01*
X107200909Y-74060098D01*
X107434877Y-73826538D01*
X107561655Y-73521221D01*
X107561944Y-73190629D01*
X107493495Y-73024970D01*
X107561655Y-72860821D01*
X107561944Y-72530229D01*
X107493495Y-72364570D01*
X107561655Y-72200421D01*
X107561944Y-71869829D01*
X107435698Y-71564291D01*
X107202138Y-71330323D01*
X106896821Y-71203545D01*
X106566229Y-71203256D01*
X106444261Y-71253652D01*
X106444344Y-71158629D01*
X106318098Y-70853091D01*
X106084538Y-70619123D01*
X105779221Y-70492345D01*
X105448629Y-70492056D01*
X105143091Y-70618302D01*
X104909123Y-70851862D01*
X104782345Y-71157179D01*
X104782056Y-71487771D01*
X103111260Y-71487771D01*
X102990698Y-71195991D01*
X102757138Y-70962023D01*
X102451821Y-70835245D01*
X102180963Y-70835008D01*
X102278455Y-70600221D01*
X102278744Y-70269629D01*
X102152498Y-69964091D01*
X102152179Y-69963771D01*
X110141456Y-69963771D01*
X110267702Y-70269309D01*
X110501262Y-70503277D01*
X110806579Y-70630055D01*
X111137171Y-70630344D01*
X111442709Y-70504098D01*
X111676677Y-70270538D01*
X111803455Y-69965221D01*
X111803744Y-69634629D01*
X111677498Y-69329091D01*
X111443938Y-69095123D01*
X111138621Y-68968345D01*
X110808029Y-68968056D01*
X110502491Y-69094302D01*
X110268523Y-69327862D01*
X110141745Y-69633179D01*
X110141456Y-69963771D01*
X102152179Y-69963771D01*
X101918938Y-69730123D01*
X101613621Y-69603345D01*
X101283029Y-69603056D01*
X100977491Y-69729302D01*
X100743523Y-69962862D01*
X100616745Y-70268179D01*
X100616456Y-70598771D01*
X89565231Y-70598771D01*
X89458891Y-70498700D01*
X88252740Y-70498700D01*
X87998740Y-70498700D01*
X87978740Y-70498700D01*
X87978740Y-70244700D01*
X87998740Y-70244700D01*
X87998740Y-68895517D01*
X88252740Y-68895517D01*
X88252740Y-70244700D01*
X89458891Y-70244700D01*
X89728308Y-69991165D01*
X89518098Y-69395437D01*
X89095914Y-68925500D01*
X88526030Y-68652898D01*
X88503506Y-68648418D01*
X88252740Y-68895517D01*
X87998740Y-68895517D01*
X87747974Y-68648418D01*
X87725450Y-68652898D01*
X87269839Y-68870838D01*
X87267275Y-68860285D01*
X86952319Y-68299727D01*
X86758883Y-68147671D01*
X98965456Y-68147671D01*
X99091702Y-68453209D01*
X99129388Y-68490961D01*
X99092523Y-68527762D01*
X98965745Y-68833079D01*
X98965456Y-69163671D01*
X99091702Y-69469209D01*
X99325262Y-69703177D01*
X99630579Y-69829955D01*
X99961171Y-69830244D01*
X100266709Y-69703998D01*
X100500677Y-69470438D01*
X100627455Y-69165121D01*
X100627744Y-68834529D01*
X100501498Y-68528991D01*
X100463812Y-68491239D01*
X100500677Y-68454438D01*
X100627455Y-68149121D01*
X100627744Y-67818529D01*
X100501498Y-67512991D01*
X100267938Y-67279023D01*
X99962621Y-67152245D01*
X99632029Y-67151956D01*
X99326491Y-67278202D01*
X99092523Y-67511762D01*
X98965745Y-67817079D01*
X98965456Y-68147671D01*
X86758883Y-68147671D01*
X86446822Y-67902367D01*
X85827740Y-67728700D01*
X85552740Y-67728700D01*
X85298740Y-67728700D01*
X85023740Y-67728700D01*
X84472000Y-67883476D01*
X84472000Y-67004671D01*
X91142256Y-67004671D01*
X91268502Y-67310209D01*
X91502062Y-67544177D01*
X91807379Y-67670955D01*
X92137971Y-67671244D01*
X92443509Y-67544998D01*
X92677477Y-67311438D01*
X92804255Y-67006121D01*
X92804544Y-66675529D01*
X92678298Y-66369991D01*
X92444738Y-66136023D01*
X92139421Y-66009245D01*
X91808829Y-66008956D01*
X91503291Y-66135202D01*
X91269323Y-66368762D01*
X91142545Y-66674079D01*
X91142256Y-67004671D01*
X84472000Y-67004671D01*
X84472000Y-65899771D01*
X101683256Y-65899771D01*
X101809502Y-66205309D01*
X102043062Y-66439277D01*
X102348379Y-66566055D01*
X102678971Y-66566344D01*
X102984509Y-66440098D01*
X103218477Y-66206538D01*
X103345255Y-65901221D01*
X103345544Y-65570629D01*
X103219298Y-65265091D01*
X102985738Y-65031123D01*
X102680421Y-64904345D01*
X102349829Y-64904056D01*
X102044291Y-65030302D01*
X101810323Y-65263862D01*
X101683545Y-65569179D01*
X101683256Y-65899771D01*
X84472000Y-65899771D01*
X84472000Y-62699371D01*
X97035056Y-62699371D01*
X97161302Y-63004909D01*
X97394862Y-63238877D01*
X97700179Y-63365655D01*
X98030771Y-63365944D01*
X98336309Y-63239698D01*
X98570277Y-63006138D01*
X98697055Y-62700821D01*
X98697344Y-62370229D01*
X98571098Y-62064691D01*
X98337538Y-61830723D01*
X98032221Y-61703945D01*
X97701629Y-61703656D01*
X97396091Y-61829902D01*
X97162123Y-62063462D01*
X97035345Y-62368779D01*
X97035056Y-62699371D01*
X84472000Y-62699371D01*
X84472000Y-60362571D01*
X97111256Y-60362571D01*
X97237502Y-60668109D01*
X97471062Y-60902077D01*
X97776379Y-61028855D01*
X98106971Y-61029144D01*
X98412509Y-60902898D01*
X98646477Y-60669338D01*
X98773255Y-60364021D01*
X98773544Y-60033429D01*
X98647298Y-59727891D01*
X98413738Y-59493923D01*
X98108421Y-59367145D01*
X97777829Y-59366856D01*
X97472291Y-59493102D01*
X97238323Y-59726662D01*
X97111545Y-60031979D01*
X97111256Y-60362571D01*
X84472000Y-60362571D01*
X84472000Y-58406771D01*
X95003056Y-58406771D01*
X95129302Y-58712309D01*
X95362862Y-58946277D01*
X95668179Y-59073055D01*
X95998771Y-59073344D01*
X96304309Y-58947098D01*
X96538277Y-58713538D01*
X96665055Y-58408221D01*
X96665344Y-58077629D01*
X96539098Y-57772091D01*
X96305538Y-57538123D01*
X96000221Y-57411345D01*
X95669629Y-57411056D01*
X95364091Y-57537302D01*
X95130123Y-57770862D01*
X95003345Y-58076179D01*
X95003056Y-58406771D01*
X84472000Y-58406771D01*
X84472000Y-57035171D01*
X97162056Y-57035171D01*
X97288302Y-57340709D01*
X97521862Y-57574677D01*
X97827179Y-57701455D01*
X98157771Y-57701744D01*
X98463309Y-57575498D01*
X98671258Y-57367911D01*
X101878836Y-57367911D01*
X102005082Y-57673449D01*
X102238642Y-57907417D01*
X102543959Y-58034195D01*
X102874551Y-58034484D01*
X103180089Y-57908238D01*
X103414057Y-57674678D01*
X103540835Y-57369361D01*
X103541124Y-57038769D01*
X103414878Y-56733231D01*
X103181318Y-56499263D01*
X102876001Y-56372485D01*
X102545409Y-56372196D01*
X102239871Y-56498442D01*
X102005903Y-56732002D01*
X101879125Y-57037319D01*
X101878836Y-57367911D01*
X98671258Y-57367911D01*
X98697277Y-57341938D01*
X98824055Y-57036621D01*
X98824344Y-56706029D01*
X98698098Y-56400491D01*
X98464538Y-56166523D01*
X98159221Y-56039745D01*
X97828629Y-56039456D01*
X97523091Y-56165702D01*
X97289123Y-56399262D01*
X97162345Y-56704579D01*
X97162056Y-57035171D01*
X84472000Y-57035171D01*
X84472000Y-51462000D01*
X118304646Y-51462000D01*
X118269523Y-51497062D01*
X118269523Y-51497062D01*
G37*
X118269523Y-51497062D02*
X118142745Y-51802379D01*
X118142456Y-52132971D01*
X118268702Y-52438509D01*
X118502262Y-52672477D01*
X118807579Y-52799255D01*
X119138171Y-52799544D01*
X119443709Y-52673298D01*
X119677677Y-52439738D01*
X119804455Y-52134421D01*
X119804744Y-51803829D01*
X119678498Y-51498291D01*
X119642270Y-51462000D01*
X146119098Y-51462000D01*
X146119098Y-51752593D01*
X145848723Y-51507202D01*
X145718560Y-51533829D01*
X145119455Y-51862867D01*
X144853878Y-52194081D01*
X144696518Y-52088937D01*
X144246100Y-51999343D01*
X143795682Y-52088937D01*
X143413835Y-52344078D01*
X143246100Y-52595112D01*
X143078365Y-52344078D01*
X142696518Y-52088937D01*
X142246100Y-51999343D01*
X141795682Y-52088937D01*
X141413835Y-52344078D01*
X141388608Y-52381833D01*
X141267801Y-52194093D01*
X141074983Y-52062346D01*
X140846100Y-52015996D01*
X139646100Y-52015996D01*
X139432277Y-52056230D01*
X139235893Y-52182599D01*
X139104146Y-52375417D01*
X139057796Y-52604300D01*
X139057796Y-54304300D01*
X139098030Y-54518123D01*
X139224399Y-54714507D01*
X139417217Y-54846254D01*
X139646100Y-54892604D01*
X140846100Y-54892604D01*
X141059923Y-54852370D01*
X141256307Y-54726001D01*
X141388054Y-54533183D01*
X141389180Y-54527623D01*
X141413835Y-54564522D01*
X141544100Y-54651562D01*
X141544100Y-54775402D01*
X140262662Y-56056840D01*
X136933918Y-56056840D01*
X137033730Y-55990148D01*
X137322061Y-55558629D01*
X137423310Y-55049618D01*
X137423310Y-53459182D01*
X137322061Y-52950171D01*
X137033730Y-52518652D01*
X136602211Y-52230321D01*
X136093200Y-52129072D01*
X135584189Y-52230321D01*
X135152670Y-52518652D01*
X134864339Y-52950171D01*
X134823200Y-53156990D01*
X134782061Y-52950171D01*
X134493730Y-52518652D01*
X134062211Y-52230321D01*
X133553200Y-52129072D01*
X133044189Y-52230321D01*
X132612670Y-52518652D01*
X132324339Y-52950171D01*
X132223090Y-53459182D01*
X132223090Y-55049618D01*
X132324339Y-55558629D01*
X132612670Y-55990148D01*
X132712482Y-56056840D01*
X131358532Y-56056840D01*
X131420330Y-56015548D01*
X131708661Y-55584029D01*
X131809910Y-55075018D01*
X131809910Y-53484582D01*
X131708661Y-52975571D01*
X131420330Y-52544052D01*
X130988811Y-52255721D01*
X130479800Y-52154472D01*
X129970789Y-52255721D01*
X129539270Y-52544052D01*
X129250939Y-52975571D01*
X129209800Y-53182390D01*
X129168661Y-52975571D01*
X128880330Y-52544052D01*
X128448811Y-52255721D01*
X127939800Y-52154472D01*
X127430789Y-52255721D01*
X126999270Y-52544052D01*
X126710939Y-52975571D01*
X126609690Y-53484582D01*
X126609690Y-55075018D01*
X126710939Y-55584029D01*
X126999270Y-56015548D01*
X127061068Y-56056840D01*
X125643532Y-56056840D01*
X125705330Y-56015548D01*
X125993661Y-55584029D01*
X126094910Y-55075018D01*
X126094910Y-53484582D01*
X125993661Y-52975571D01*
X125705330Y-52544052D01*
X125273811Y-52255721D01*
X124764800Y-52154472D01*
X124255789Y-52255721D01*
X123824270Y-52544052D01*
X123535939Y-52975571D01*
X123494800Y-53182390D01*
X123453661Y-52975571D01*
X123165330Y-52544052D01*
X122733811Y-52255721D01*
X122224800Y-52154472D01*
X121715789Y-52255721D01*
X121284270Y-52544052D01*
X120995939Y-52975571D01*
X120894690Y-53484582D01*
X120894690Y-55075018D01*
X120995939Y-55584029D01*
X121284270Y-56015548D01*
X121346068Y-56056840D01*
X111735247Y-56056840D01*
X111735137Y-56056862D01*
X111735027Y-56056840D01*
X111600497Y-56083644D01*
X111466603Y-56110277D01*
X111466510Y-56110339D01*
X111466400Y-56110361D01*
X111352688Y-56186392D01*
X111238858Y-56262451D01*
X111238796Y-56262544D01*
X111238702Y-56262607D01*
X104786456Y-62718893D01*
X104711046Y-62831829D01*
X104634437Y-62946483D01*
X104634415Y-62946594D01*
X104634353Y-62946687D01*
X104607780Y-63080494D01*
X104581000Y-63215127D01*
X104581000Y-67700189D01*
X104578923Y-67702262D01*
X104452145Y-68007579D01*
X104451856Y-68338171D01*
X104578102Y-68643709D01*
X104608831Y-68674491D01*
X104490245Y-68960079D01*
X104489956Y-69290671D01*
X104616202Y-69596209D01*
X104849762Y-69830177D01*
X105155079Y-69956955D01*
X105485671Y-69957244D01*
X105791209Y-69830998D01*
X106025177Y-69597438D01*
X106120596Y-69367642D01*
X106455029Y-69033209D01*
X106459887Y-69025938D01*
X106607203Y-68805464D01*
X106660640Y-68536820D01*
X106660640Y-67936851D01*
X107068056Y-67936851D01*
X107194302Y-68242389D01*
X107427862Y-68476357D01*
X107733179Y-68603135D01*
X108063771Y-68603424D01*
X108233197Y-68533418D01*
X108431679Y-68615835D01*
X108762271Y-68616124D01*
X109067809Y-68489878D01*
X109070712Y-68486980D01*
X112961059Y-68486980D01*
X112960856Y-68719171D01*
X113087102Y-69024709D01*
X113090000Y-69027612D01*
X113090000Y-70537401D01*
X113011945Y-70725379D01*
X113011656Y-71055971D01*
X113137902Y-71361509D01*
X113371462Y-71595477D01*
X113392807Y-71604340D01*
X113367545Y-71665179D01*
X113367256Y-71995771D01*
X113493502Y-72301309D01*
X113727062Y-72535277D01*
X113729021Y-72536091D01*
X111035011Y-75230101D01*
X110882837Y-75457846D01*
X110829400Y-75726490D01*
X110829400Y-75904389D01*
X110827323Y-75906462D01*
X110700545Y-76211779D01*
X110700256Y-76542371D01*
X110826502Y-76847909D01*
X111060062Y-77081877D01*
X111365379Y-77208655D01*
X111695971Y-77208944D01*
X111751719Y-77185909D01*
X112051179Y-77310255D01*
X112381771Y-77310544D01*
X112687309Y-77184298D01*
X112788761Y-77083023D01*
X112990462Y-77285077D01*
X113295779Y-77411855D01*
X113626371Y-77412144D01*
X113931909Y-77285898D01*
X114165877Y-77052338D01*
X114292655Y-76747021D01*
X114292807Y-76572851D01*
X120519896Y-76572851D01*
X120646142Y-76878389D01*
X120879702Y-77112357D01*
X121185019Y-77239135D01*
X121515611Y-77239424D01*
X121821149Y-77113178D01*
X122055117Y-76879618D01*
X122148746Y-76654131D01*
X134942016Y-76654131D01*
X135068262Y-76959669D01*
X135301822Y-77193637D01*
X135607139Y-77320415D01*
X135937731Y-77320704D01*
X136243269Y-77194458D01*
X136477237Y-76960898D01*
X136604015Y-76655581D01*
X136604304Y-76324989D01*
X136478058Y-76019451D01*
X136244498Y-75785483D01*
X135939181Y-75658705D01*
X135608589Y-75658416D01*
X135303051Y-75784662D01*
X135069083Y-76018222D01*
X134942305Y-76323539D01*
X134942016Y-76654131D01*
X122148746Y-76654131D01*
X122181895Y-76574301D01*
X122182184Y-76243709D01*
X122055938Y-75938171D01*
X121822378Y-75704203D01*
X121517061Y-75577425D01*
X121186469Y-75577136D01*
X120880931Y-75703382D01*
X120646963Y-75936942D01*
X120520185Y-76242259D01*
X120519896Y-76572851D01*
X114292807Y-76572851D01*
X114292944Y-76416429D01*
X114166698Y-76110891D01*
X114040784Y-75984757D01*
X114211309Y-75914298D01*
X114445277Y-75680738D01*
X114533939Y-75467214D01*
X149696301Y-75467214D01*
X149958667Y-76102189D01*
X150444056Y-76588426D01*
X151078571Y-76851900D01*
X151765614Y-76852499D01*
X152400589Y-76590133D01*
X152886826Y-76104744D01*
X153150300Y-75470229D01*
X153150899Y-74783186D01*
X152888533Y-74148211D01*
X152403144Y-73661974D01*
X151768629Y-73398500D01*
X151081586Y-73397901D01*
X150446611Y-73660267D01*
X149960374Y-74145656D01*
X149696900Y-74780171D01*
X149696301Y-75467214D01*
X114533939Y-75467214D01*
X114572055Y-75375421D01*
X114572344Y-75044829D01*
X114446098Y-74739291D01*
X114433642Y-74726814D01*
X115528925Y-73631531D01*
X125422096Y-73631531D01*
X125548342Y-73937069D01*
X125781902Y-74171037D01*
X126087219Y-74297815D01*
X126417811Y-74298104D01*
X126723349Y-74171858D01*
X126957317Y-73938298D01*
X127084095Y-73632981D01*
X127084384Y-73302389D01*
X126958138Y-72996851D01*
X126724578Y-72762883D01*
X126419261Y-72636105D01*
X126088669Y-72635816D01*
X125783131Y-72762062D01*
X125549163Y-72995622D01*
X125422385Y-73300939D01*
X125422096Y-73631531D01*
X115528925Y-73631531D01*
X116560586Y-72599870D01*
X116749662Y-72789277D01*
X116923343Y-72861395D01*
X116923256Y-72960971D01*
X117049502Y-73266509D01*
X117283062Y-73500477D01*
X117588379Y-73627255D01*
X117918971Y-73627544D01*
X118224509Y-73501298D01*
X118458477Y-73267738D01*
X118585255Y-72962421D01*
X118585544Y-72631829D01*
X118459298Y-72326291D01*
X118225738Y-72092323D01*
X118052057Y-72020205D01*
X118052119Y-71949000D01*
X127649692Y-71949000D01*
X127649633Y-72016791D01*
X127775879Y-72322329D01*
X128009439Y-72556297D01*
X128314756Y-72683075D01*
X128645348Y-72683364D01*
X128950886Y-72557118D01*
X129184854Y-72323558D01*
X129311632Y-72018241D01*
X129311693Y-71949000D01*
X141664989Y-71949000D01*
X141667062Y-71951077D01*
X141972379Y-72077855D01*
X142302971Y-72078144D01*
X142608509Y-71951898D01*
X142842477Y-71718338D01*
X142969255Y-71413021D01*
X142969544Y-71082429D01*
X142908503Y-70934699D01*
X142994655Y-70727221D01*
X142994944Y-70396629D01*
X142868698Y-70091091D01*
X142635138Y-69857123D01*
X142329821Y-69730345D01*
X141999229Y-69730056D01*
X141693691Y-69856302D01*
X141684388Y-69865589D01*
X137579635Y-69865589D01*
X137579664Y-69832749D01*
X137453418Y-69527211D01*
X137219858Y-69293243D01*
X136914541Y-69166465D01*
X136583949Y-69166176D01*
X136278411Y-69292422D01*
X136044443Y-69525982D01*
X135917665Y-69831299D01*
X135917635Y-69865589D01*
X130674290Y-69865589D01*
X130752077Y-69787938D01*
X130878855Y-69482621D01*
X130879144Y-69152029D01*
X130752898Y-68846491D01*
X130727912Y-68821461D01*
X130752077Y-68797338D01*
X130878855Y-68492021D01*
X130879144Y-68161429D01*
X130752898Y-67855891D01*
X130519338Y-67621923D01*
X130214021Y-67495145D01*
X129883429Y-67494856D01*
X129577891Y-67621102D01*
X129343923Y-67854662D01*
X129217145Y-68159979D01*
X129216856Y-68490571D01*
X129343102Y-68796109D01*
X129368088Y-68821139D01*
X129343923Y-68845262D01*
X129217145Y-69150579D01*
X129216856Y-69481171D01*
X129343102Y-69786709D01*
X129421844Y-69865589D01*
X121150698Y-69865589D01*
X121150944Y-69583829D01*
X121024698Y-69278291D01*
X120791138Y-69044323D01*
X120485821Y-68917545D01*
X120155229Y-68917256D01*
X119849691Y-69043502D01*
X119615723Y-69277062D01*
X119488945Y-69582379D01*
X119488697Y-69865589D01*
X116690301Y-69865589D01*
X116421657Y-69919026D01*
X116210291Y-70060256D01*
X116193912Y-70071200D01*
X114903509Y-71361603D01*
X114903298Y-71361091D01*
X114669738Y-71127123D01*
X114648393Y-71118260D01*
X114673655Y-71057421D01*
X114673944Y-70726829D01*
X114547698Y-70421291D01*
X114494000Y-70367499D01*
X114494000Y-69028011D01*
X114496077Y-69025938D01*
X114622855Y-68720621D01*
X114623059Y-68486980D01*
X126879742Y-68486980D01*
X126935062Y-68542397D01*
X127240379Y-68669175D01*
X127570971Y-68669464D01*
X127876509Y-68543218D01*
X128110477Y-68309658D01*
X128237255Y-68004341D01*
X128237544Y-67673749D01*
X128111298Y-67368211D01*
X128106632Y-67363537D01*
X128110477Y-67359698D01*
X128168247Y-67220571D01*
X131223456Y-67220571D01*
X131349702Y-67526109D01*
X131583262Y-67760077D01*
X131888579Y-67886855D01*
X132219171Y-67887144D01*
X132524709Y-67760898D01*
X132758677Y-67527338D01*
X132885455Y-67222021D01*
X132885744Y-66891429D01*
X132759498Y-66585891D01*
X132525938Y-66351923D01*
X132220621Y-66225145D01*
X131890029Y-66224856D01*
X131584491Y-66351102D01*
X131350523Y-66584662D01*
X131223745Y-66889979D01*
X131223456Y-67220571D01*
X128168247Y-67220571D01*
X128237255Y-67054381D01*
X128237544Y-66723789D01*
X128111298Y-66418251D01*
X127877738Y-66184283D01*
X127842309Y-66169572D01*
X128034277Y-65977938D01*
X128161055Y-65672621D01*
X128161058Y-65668811D01*
X144533633Y-65668811D01*
X166379200Y-87514378D01*
X166379200Y-91770200D01*
X166432637Y-92038844D01*
X166499365Y-92138709D01*
X166584811Y-92266589D01*
X168134211Y-93815989D01*
X168361956Y-93968163D01*
X168630600Y-94021600D01*
X170036789Y-94021600D01*
X170038862Y-94023677D01*
X170344179Y-94150455D01*
X170674771Y-94150744D01*
X170980309Y-94024498D01*
X171214277Y-93790938D01*
X171341055Y-93485621D01*
X171341344Y-93155029D01*
X171215098Y-92849491D01*
X170981538Y-92615523D01*
X170676221Y-92488745D01*
X170345629Y-92488456D01*
X170040091Y-92614702D01*
X170037188Y-92617600D01*
X168921378Y-92617600D01*
X167783200Y-91479422D01*
X167783200Y-89764203D01*
X170911752Y-89764203D01*
X171128543Y-90288875D01*
X171529614Y-90690647D01*
X172053907Y-90908352D01*
X172621603Y-90908848D01*
X173146275Y-90692057D01*
X173548047Y-90290986D01*
X173765752Y-89766693D01*
X173766248Y-89198997D01*
X173549457Y-88674325D01*
X173148386Y-88272553D01*
X172955448Y-88192438D01*
X177921597Y-88192438D01*
X178275115Y-89048018D01*
X178929139Y-89703185D01*
X179784100Y-90058196D01*
X180709838Y-90059003D01*
X181565418Y-89705485D01*
X182220585Y-89051461D01*
X182575596Y-88196500D01*
X182576403Y-87270762D01*
X182222885Y-86415182D01*
X181568861Y-85760015D01*
X180713900Y-85405004D01*
X179788162Y-85404197D01*
X178932582Y-85757715D01*
X178277415Y-86411739D01*
X177922404Y-87266700D01*
X177921597Y-88192438D01*
X172955448Y-88192438D01*
X172624093Y-88054848D01*
X172056397Y-88054352D01*
X171531725Y-88271143D01*
X171129953Y-88672214D01*
X170912248Y-89196507D01*
X170911752Y-89764203D01*
X167783200Y-89764203D01*
X167783200Y-87223600D01*
X167729763Y-86954956D01*
X167577589Y-86727211D01*
X167114581Y-86264203D01*
X170911752Y-86264203D01*
X171128543Y-86788875D01*
X171529614Y-87190647D01*
X172053907Y-87408352D01*
X172621603Y-87408848D01*
X173146275Y-87192057D01*
X173548047Y-86790986D01*
X173765752Y-86266693D01*
X173766248Y-85698997D01*
X173549457Y-85174325D01*
X173148386Y-84772553D01*
X172624093Y-84554848D01*
X172056397Y-84554352D01*
X171531725Y-84771143D01*
X171129953Y-85172214D01*
X170912248Y-85696507D01*
X170911752Y-86264203D01*
X167114581Y-86264203D01*
X161740178Y-80889800D01*
X170189189Y-80889800D01*
X170191262Y-80891877D01*
X170496579Y-81018655D01*
X170827171Y-81018944D01*
X171132709Y-80892698D01*
X171366677Y-80659138D01*
X171493455Y-80353821D01*
X171493744Y-80023229D01*
X171367498Y-79717691D01*
X171133938Y-79483723D01*
X170828621Y-79356945D01*
X170498029Y-79356656D01*
X170192491Y-79482902D01*
X170189588Y-79485800D01*
X161936378Y-79485800D01*
X159181981Y-76731403D01*
X170911752Y-76731403D01*
X171128543Y-77256075D01*
X171529614Y-77657847D01*
X172053907Y-77875552D01*
X172621603Y-77876048D01*
X173146275Y-77659257D01*
X173548047Y-77258186D01*
X173765752Y-76733893D01*
X173766248Y-76166197D01*
X173549457Y-75641525D01*
X173148386Y-75239753D01*
X172955448Y-75159638D01*
X177921597Y-75159638D01*
X178275115Y-76015218D01*
X178929139Y-76670385D01*
X179784100Y-77025396D01*
X180709838Y-77026203D01*
X181565418Y-76672685D01*
X182220585Y-76018661D01*
X182575596Y-75163700D01*
X182576403Y-74237962D01*
X182222885Y-73382382D01*
X181568861Y-72727215D01*
X180713900Y-72372204D01*
X179788162Y-72371397D01*
X178932582Y-72724915D01*
X178277415Y-73378939D01*
X177922404Y-74233900D01*
X177921597Y-75159638D01*
X172955448Y-75159638D01*
X172624093Y-75022048D01*
X172056397Y-75021552D01*
X171531725Y-75238343D01*
X171129953Y-75639414D01*
X170912248Y-76163707D01*
X170911752Y-76731403D01*
X159181981Y-76731403D01*
X155681981Y-73231403D01*
X170911752Y-73231403D01*
X171128543Y-73756075D01*
X171529614Y-74157847D01*
X172053907Y-74375552D01*
X172621603Y-74376048D01*
X173146275Y-74159257D01*
X173548047Y-73758186D01*
X173765752Y-73233893D01*
X173766248Y-72666197D01*
X173549457Y-72141525D01*
X173148386Y-71739753D01*
X172624093Y-71522048D01*
X172056397Y-71521552D01*
X171531725Y-71738343D01*
X171129953Y-72139414D01*
X170912248Y-72663707D01*
X170911752Y-73231403D01*
X155681981Y-73231403D01*
X147033578Y-64583000D01*
X155182622Y-64583000D01*
X158355211Y-67755589D01*
X158582956Y-67907763D01*
X158851600Y-67961200D01*
X169909789Y-67961200D01*
X169911862Y-67963277D01*
X170217179Y-68090055D01*
X170547771Y-68090344D01*
X170853309Y-67964098D01*
X171087277Y-67730538D01*
X171214055Y-67425221D01*
X171214344Y-67094629D01*
X171088098Y-66789091D01*
X170854538Y-66555123D01*
X170549221Y-66428345D01*
X170218629Y-66428056D01*
X169913091Y-66554302D01*
X169910188Y-66557200D01*
X159142378Y-66557200D01*
X156813566Y-64228388D01*
X175936380Y-64228388D01*
X176479798Y-65543561D01*
X177485146Y-66550665D01*
X178799369Y-67096378D01*
X180222388Y-67097620D01*
X181537561Y-66554202D01*
X182544665Y-65548854D01*
X183090378Y-64234631D01*
X183091620Y-62811612D01*
X182548202Y-61496439D01*
X181542854Y-60489335D01*
X180228631Y-59943622D01*
X178805612Y-59942380D01*
X177490439Y-60485798D01*
X176483335Y-61491146D01*
X175937622Y-62805369D01*
X175936380Y-64228388D01*
X156813566Y-64228388D01*
X156122749Y-63537571D01*
X165259456Y-63537571D01*
X165385702Y-63843109D01*
X165619262Y-64077077D01*
X165924579Y-64203855D01*
X166255171Y-64204144D01*
X166560709Y-64077898D01*
X166794677Y-63844338D01*
X166921455Y-63539021D01*
X166921744Y-63208429D01*
X166795498Y-62902891D01*
X166561938Y-62668923D01*
X166256621Y-62542145D01*
X165926029Y-62541856D01*
X165620491Y-62668102D01*
X165386523Y-62901662D01*
X165259745Y-63206979D01*
X165259456Y-63537571D01*
X156122749Y-63537571D01*
X155969789Y-63384611D01*
X155941419Y-63365655D01*
X155742044Y-63232437D01*
X155473400Y-63179000D01*
X115720179Y-63179000D01*
X115740677Y-63158538D01*
X115867455Y-62853221D01*
X115867744Y-62522629D01*
X115741498Y-62217091D01*
X115507938Y-61983123D01*
X115202621Y-61856345D01*
X114872029Y-61856056D01*
X114566491Y-61982302D01*
X114332523Y-62215862D01*
X114205745Y-62521179D01*
X114205456Y-62851771D01*
X114331702Y-63157309D01*
X114353355Y-63179000D01*
X110930570Y-63179000D01*
X110681421Y-63075545D01*
X110466616Y-63075357D01*
X110558855Y-62853221D01*
X110559144Y-62522629D01*
X110432898Y-62217091D01*
X110199338Y-61983123D01*
X109894021Y-61856345D01*
X109563429Y-61856056D01*
X109257891Y-61982302D01*
X109023923Y-62215862D01*
X108897145Y-62521179D01*
X108896856Y-62851771D01*
X109023102Y-63157309D01*
X109256662Y-63391277D01*
X109561979Y-63518055D01*
X109776784Y-63518243D01*
X109684545Y-63740379D01*
X109684256Y-64070971D01*
X109810502Y-64376509D01*
X110044062Y-64610477D01*
X110280210Y-64708534D01*
X110352922Y-64884509D01*
X110586482Y-65118477D01*
X110726686Y-65176695D01*
X110726676Y-65188571D01*
X110852922Y-65494109D01*
X111086482Y-65728077D01*
X111391799Y-65854855D01*
X111722391Y-65855144D01*
X112027929Y-65728898D01*
X112059151Y-65697730D01*
X112185674Y-65672563D01*
X112191289Y-65668811D01*
X113654003Y-65668811D01*
X113621545Y-65746979D01*
X113621256Y-66077571D01*
X113666207Y-66186360D01*
X108351320Y-66186360D01*
X108082676Y-66239797D01*
X107868194Y-66383109D01*
X107854931Y-66391971D01*
X107402811Y-66844091D01*
X107250637Y-67071836D01*
X107207528Y-67288559D01*
X107195123Y-67300942D01*
X107068345Y-67606259D01*
X107068056Y-67936851D01*
X106660640Y-67936851D01*
X106660640Y-63615518D01*
X108872187Y-61403971D01*
X115348456Y-61403971D01*
X115474702Y-61709509D01*
X115708262Y-61943477D01*
X116013579Y-62070255D01*
X116344171Y-62070544D01*
X116649709Y-61944298D01*
X116883677Y-61710738D01*
X117010455Y-61405421D01*
X117010744Y-61074829D01*
X116884498Y-60769291D01*
X116650938Y-60535323D01*
X116418414Y-60438771D01*
X142310556Y-60438771D01*
X142436802Y-60744309D01*
X142670362Y-60978277D01*
X142975679Y-61105055D01*
X143306271Y-61105344D01*
X143611809Y-60979098D01*
X143845777Y-60745538D01*
X143972555Y-60440221D01*
X143972844Y-60109629D01*
X143846598Y-59804091D01*
X143613038Y-59570123D01*
X143307721Y-59443345D01*
X142977129Y-59443056D01*
X142671591Y-59569302D01*
X142437623Y-59802862D01*
X142310845Y-60108179D01*
X142310556Y-60438771D01*
X116418414Y-60438771D01*
X116345621Y-60408545D01*
X116015029Y-60408256D01*
X115709491Y-60534502D01*
X115475523Y-60768062D01*
X115348745Y-61073379D01*
X115348456Y-61403971D01*
X108872187Y-61403971D01*
X109305293Y-60970865D01*
X109398902Y-61064637D01*
X109704219Y-61191415D01*
X110034811Y-61191704D01*
X110340349Y-61065458D01*
X110574317Y-60831898D01*
X110701095Y-60526581D01*
X110701384Y-60195989D01*
X110575138Y-59890451D01*
X110539321Y-59854571D01*
X112859256Y-59854571D01*
X112985502Y-60160109D01*
X113219062Y-60394077D01*
X113524379Y-60520855D01*
X113854971Y-60521144D01*
X114160509Y-60394898D01*
X114394477Y-60161338D01*
X114521255Y-59856021D01*
X114521544Y-59525429D01*
X114395298Y-59219891D01*
X114161738Y-58985923D01*
X113856421Y-58859145D01*
X113525829Y-58858856D01*
X113220291Y-58985102D01*
X112986323Y-59218662D01*
X112859545Y-59523979D01*
X112859256Y-59854571D01*
X110539321Y-59854571D01*
X110480505Y-59795653D01*
X112241278Y-58034880D01*
X142298420Y-58034880D01*
X142567064Y-57981443D01*
X142794809Y-57829269D01*
X143614307Y-57009771D01*
X154616856Y-57009771D01*
X154743102Y-57315309D01*
X154976662Y-57549277D01*
X155281979Y-57676055D01*
X155612571Y-57676344D01*
X155918109Y-57550098D01*
X156152077Y-57316538D01*
X156278855Y-57011221D01*
X156279144Y-56680629D01*
X156152898Y-56375091D01*
X155919338Y-56141123D01*
X155614021Y-56014345D01*
X155283429Y-56014056D01*
X154977891Y-56140302D01*
X154743923Y-56373862D01*
X154617145Y-56679179D01*
X154616856Y-57009771D01*
X143614307Y-57009771D01*
X144742489Y-55881589D01*
X144894663Y-55653844D01*
X144948100Y-55385200D01*
X144948100Y-54832028D01*
X145119455Y-55045733D01*
X145718560Y-55374771D01*
X145848723Y-55401398D01*
X146119100Y-55156005D01*
X146119100Y-53581300D01*
X146373100Y-53581300D01*
X146373100Y-55156005D01*
X146643477Y-55401398D01*
X146773640Y-55374771D01*
X147372745Y-55045733D01*
X147800328Y-54512474D01*
X147991294Y-53856178D01*
X147707817Y-53581300D01*
X146373100Y-53581300D01*
X146119100Y-53581300D01*
X146099100Y-53581300D01*
X146099100Y-53327300D01*
X146119100Y-53327300D01*
X146119100Y-53307300D01*
X146373100Y-53307300D01*
X146373100Y-53327300D01*
X147707817Y-53327300D01*
X147991294Y-53052422D01*
X147800328Y-52396126D01*
X147372745Y-51862867D01*
X146773640Y-51533829D01*
X146643477Y-51507202D01*
X146373102Y-51752593D01*
X146373102Y-51462000D01*
X157168098Y-51462000D01*
X157168098Y-51752593D01*
X156897723Y-51507202D01*
X156767560Y-51533829D01*
X156168455Y-51862867D01*
X155902878Y-52194081D01*
X155745518Y-52088937D01*
X155295100Y-51999343D01*
X154844682Y-52088937D01*
X154462835Y-52344078D01*
X154295100Y-52595112D01*
X154127365Y-52344078D01*
X153745518Y-52088937D01*
X153295100Y-51999343D01*
X152844682Y-52088937D01*
X152462835Y-52344078D01*
X152437608Y-52381833D01*
X152316801Y-52194093D01*
X152123983Y-52062346D01*
X151895100Y-52015996D01*
X150695100Y-52015996D01*
X150481277Y-52056230D01*
X150284893Y-52182599D01*
X150153146Y-52375417D01*
X150106796Y-52604300D01*
X150106796Y-54304300D01*
X150147030Y-54518123D01*
X150273399Y-54714507D01*
X150466217Y-54846254D01*
X150695100Y-54892604D01*
X151895100Y-54892604D01*
X152108923Y-54852370D01*
X152305307Y-54726001D01*
X152437054Y-54533183D01*
X152438180Y-54527623D01*
X152462835Y-54564522D01*
X152844682Y-54819663D01*
X153295100Y-54909257D01*
X153745518Y-54819663D01*
X154127365Y-54564522D01*
X154295100Y-54313488D01*
X154462835Y-54564522D01*
X154844682Y-54819663D01*
X155295100Y-54909257D01*
X155745518Y-54819663D01*
X155902878Y-54714519D01*
X156168455Y-55045733D01*
X156767560Y-55374771D01*
X156897723Y-55401398D01*
X157168100Y-55156005D01*
X157168100Y-53581300D01*
X157422100Y-53581300D01*
X157422100Y-55156005D01*
X157692477Y-55401398D01*
X157822640Y-55374771D01*
X158421745Y-55045733D01*
X158849328Y-54512474D01*
X159040294Y-53856178D01*
X158756817Y-53581300D01*
X157422100Y-53581300D01*
X157168100Y-53581300D01*
X157148100Y-53581300D01*
X157148100Y-53327300D01*
X157168100Y-53327300D01*
X157168100Y-53307300D01*
X157422100Y-53307300D01*
X157422100Y-53327300D01*
X158756817Y-53327300D01*
X159040294Y-53052422D01*
X158849328Y-52396126D01*
X158421745Y-51862867D01*
X157822640Y-51533829D01*
X157692477Y-51507202D01*
X157422102Y-51752593D01*
X157422102Y-51462000D01*
X168293298Y-51462000D01*
X168293298Y-51752593D01*
X168022923Y-51507202D01*
X167892760Y-51533829D01*
X167293655Y-51862867D01*
X167028078Y-52194081D01*
X166870718Y-52088937D01*
X166420300Y-51999343D01*
X165969882Y-52088937D01*
X165588035Y-52344078D01*
X165420300Y-52595112D01*
X165252565Y-52344078D01*
X164870718Y-52088937D01*
X164420300Y-51999343D01*
X163969882Y-52088937D01*
X163588035Y-52344078D01*
X163562808Y-52381833D01*
X163442001Y-52194093D01*
X163249183Y-52062346D01*
X163020300Y-52015996D01*
X161820300Y-52015996D01*
X161606477Y-52056230D01*
X161410093Y-52182599D01*
X161278346Y-52375417D01*
X161231996Y-52604300D01*
X161231996Y-54304300D01*
X161272230Y-54518123D01*
X161398599Y-54714507D01*
X161591417Y-54846254D01*
X161820300Y-54892604D01*
X163020300Y-54892604D01*
X163234123Y-54852370D01*
X163430507Y-54726001D01*
X163562254Y-54533183D01*
X163563380Y-54527623D01*
X163588035Y-54564522D01*
X163969882Y-54819663D01*
X164420300Y-54909257D01*
X164870718Y-54819663D01*
X165252565Y-54564522D01*
X165420300Y-54313488D01*
X165588035Y-54564522D01*
X165969882Y-54819663D01*
X166420300Y-54909257D01*
X166870718Y-54819663D01*
X167028078Y-54714519D01*
X167293655Y-55045733D01*
X167892760Y-55374771D01*
X168022923Y-55401398D01*
X168293300Y-55156005D01*
X168293300Y-53581300D01*
X168547300Y-53581300D01*
X168547300Y-55156005D01*
X168817677Y-55401398D01*
X168947840Y-55374771D01*
X169546945Y-55045733D01*
X169974528Y-54512474D01*
X170165494Y-53856178D01*
X169882017Y-53581300D01*
X168547300Y-53581300D01*
X168293300Y-53581300D01*
X168273300Y-53581300D01*
X168273300Y-53327300D01*
X168293300Y-53327300D01*
X168293300Y-53307300D01*
X168547300Y-53307300D01*
X168547300Y-53327300D01*
X169882017Y-53327300D01*
X170165494Y-53052422D01*
X169974528Y-52396126D01*
X169546945Y-51862867D01*
X168947840Y-51533829D01*
X168817677Y-51507202D01*
X168547302Y-51752593D01*
X168547302Y-51462000D01*
X179418498Y-51462000D01*
X179418498Y-51752593D01*
X179148123Y-51507202D01*
X179017960Y-51533829D01*
X178418855Y-51862867D01*
X178153278Y-52194081D01*
X177995918Y-52088937D01*
X177545500Y-51999343D01*
X177095082Y-52088937D01*
X176713235Y-52344078D01*
X176545500Y-52595112D01*
X176377765Y-52344078D01*
X175995918Y-52088937D01*
X175545500Y-51999343D01*
X175095082Y-52088937D01*
X174713235Y-52344078D01*
X174688008Y-52381833D01*
X174567201Y-52194093D01*
X174374383Y-52062346D01*
X174145500Y-52015996D01*
X172945500Y-52015996D01*
X172731677Y-52056230D01*
X172535293Y-52182599D01*
X172403546Y-52375417D01*
X172357196Y-52604300D01*
X172357196Y-54304300D01*
X172397430Y-54518123D01*
X172523799Y-54714507D01*
X172716617Y-54846254D01*
X172945500Y-54892604D01*
X174145500Y-54892604D01*
X174359323Y-54852370D01*
X174555707Y-54726001D01*
X174687454Y-54533183D01*
X174688580Y-54527623D01*
X174713235Y-54564522D01*
X175095082Y-54819663D01*
X175545500Y-54909257D01*
X175995918Y-54819663D01*
X176377765Y-54564522D01*
X176545500Y-54313488D01*
X176713235Y-54564522D01*
X177095082Y-54819663D01*
X177545500Y-54909257D01*
X177995918Y-54819663D01*
X178153278Y-54714519D01*
X178418855Y-55045733D01*
X179017960Y-55374771D01*
X179148123Y-55401398D01*
X179418500Y-55156005D01*
X179418500Y-53581300D01*
X179672500Y-53581300D01*
X179672500Y-55156005D01*
X179942877Y-55401398D01*
X180073040Y-55374771D01*
X180672145Y-55045733D01*
X181099728Y-54512474D01*
X181290694Y-53856178D01*
X181007217Y-53581300D01*
X179672500Y-53581300D01*
X179418500Y-53581300D01*
X179398500Y-53581300D01*
X179398500Y-53327300D01*
X179418500Y-53327300D01*
X179418500Y-53307300D01*
X179672500Y-53307300D01*
X179672500Y-53327300D01*
X181007217Y-53327300D01*
X181290694Y-53052422D01*
X181099728Y-52396126D01*
X180672145Y-51862867D01*
X180073040Y-51533829D01*
X179942877Y-51507202D01*
X179672502Y-51752593D01*
X179672502Y-51462000D01*
X183168000Y-51462000D01*
X183168000Y-130158000D01*
X84472000Y-130158000D01*
X84472000Y-126574388D01*
X86440380Y-126574388D01*
X86983798Y-127889561D01*
X87989146Y-128896665D01*
X89303369Y-129442378D01*
X90726388Y-129443620D01*
X92041561Y-128900202D01*
X93048665Y-127894854D01*
X93594378Y-126580631D01*
X93595620Y-125157612D01*
X93052202Y-123842439D01*
X92046854Y-122835335D01*
X90732631Y-122289622D01*
X89309612Y-122288380D01*
X87994439Y-122831798D01*
X86987335Y-123837146D01*
X86441622Y-125151369D01*
X86440380Y-126574388D01*
X84472000Y-126574388D01*
X84472000Y-118037438D01*
X85937597Y-118037438D01*
X86291115Y-118893018D01*
X86945139Y-119548185D01*
X87800100Y-119903196D01*
X88725838Y-119904003D01*
X89439309Y-119609203D01*
X94747752Y-119609203D01*
X94964543Y-120133875D01*
X95365614Y-120535647D01*
X95889907Y-120753352D01*
X96457603Y-120753848D01*
X96982275Y-120537057D01*
X97384047Y-120135986D01*
X97601752Y-119611693D01*
X97602248Y-119043997D01*
X97385457Y-118519325D01*
X96984386Y-118117553D01*
X96460093Y-117899848D01*
X95892397Y-117899352D01*
X95367725Y-118116143D01*
X94965953Y-118517214D01*
X94748248Y-119041507D01*
X94747752Y-119609203D01*
X89439309Y-119609203D01*
X89581418Y-119550485D01*
X90236585Y-118896461D01*
X90591596Y-118041500D01*
X90592374Y-117147950D01*
X95033255Y-117147950D01*
X95085674Y-117541994D01*
X95825047Y-117828284D01*
X96617697Y-117809835D01*
X97264326Y-117541994D01*
X97316745Y-117147950D01*
X96175000Y-116006205D01*
X95033255Y-117147950D01*
X90592374Y-117147950D01*
X90592403Y-117115762D01*
X90238885Y-116260182D01*
X89584861Y-115605015D01*
X89275717Y-115476647D01*
X94173316Y-115476647D01*
X94191765Y-116269297D01*
X94459606Y-116915926D01*
X94853650Y-116968345D01*
X95995395Y-115826600D01*
X96354605Y-115826600D01*
X97496350Y-116968345D01*
X97890394Y-116915926D01*
X98176684Y-116176553D01*
X98169661Y-115874800D01*
X106324400Y-115874800D01*
X106324400Y-128930400D01*
X106333085Y-128976559D01*
X106360365Y-129018953D01*
X106401990Y-129047394D01*
X106451400Y-129057400D01*
X130388918Y-129057400D01*
X130408965Y-129088553D01*
X130450590Y-129116994D01*
X130500000Y-129127000D01*
X151000000Y-129127000D01*
X151046159Y-129118315D01*
X151088553Y-129091035D01*
X151116994Y-129049410D01*
X151127000Y-129000000D01*
X151127000Y-128448403D01*
X170824952Y-128448403D01*
X171041743Y-128973075D01*
X171442814Y-129374847D01*
X171967107Y-129592552D01*
X172534803Y-129593048D01*
X173059475Y-129376257D01*
X173461247Y-128975186D01*
X173678952Y-128450893D01*
X173679448Y-127883197D01*
X173462657Y-127358525D01*
X173061586Y-126956753D01*
X172868648Y-126876638D01*
X177834797Y-126876638D01*
X178188315Y-127732218D01*
X178842339Y-128387385D01*
X179697300Y-128742396D01*
X180623038Y-128743203D01*
X181478618Y-128389685D01*
X182133785Y-127735661D01*
X182488796Y-126880700D01*
X182489603Y-125954962D01*
X182136085Y-125099382D01*
X181482061Y-124444215D01*
X180627100Y-124089204D01*
X179701362Y-124088397D01*
X178845782Y-124441915D01*
X178190615Y-125095939D01*
X177835604Y-125950900D01*
X177834797Y-126876638D01*
X172868648Y-126876638D01*
X172537293Y-126739048D01*
X171969597Y-126738552D01*
X171444925Y-126955343D01*
X171043153Y-127356414D01*
X170825448Y-127880707D01*
X170824952Y-128448403D01*
X151127000Y-128448403D01*
X151127000Y-125987150D01*
X171110455Y-125987150D01*
X171162874Y-126381194D01*
X171902247Y-126667484D01*
X172694897Y-126649035D01*
X173341526Y-126381194D01*
X173393945Y-125987150D01*
X172252200Y-124845405D01*
X171110455Y-125987150D01*
X151127000Y-125987150D01*
X151127000Y-124500000D01*
X151123622Y-124470903D01*
X151102562Y-124425100D01*
X151065341Y-124391098D01*
X150939923Y-124315847D01*
X170250516Y-124315847D01*
X170268965Y-125108497D01*
X170536806Y-125755126D01*
X170930850Y-125807545D01*
X172072595Y-124665800D01*
X172431805Y-124665800D01*
X173573550Y-125807545D01*
X173967594Y-125755126D01*
X174253884Y-125015753D01*
X174235435Y-124223103D01*
X173967594Y-123576474D01*
X173573550Y-123524055D01*
X172431805Y-124665800D01*
X172072595Y-124665800D01*
X170930850Y-123524055D01*
X170536806Y-123576474D01*
X170250516Y-124315847D01*
X150939923Y-124315847D01*
X149320929Y-123344450D01*
X171110455Y-123344450D01*
X172252200Y-124486195D01*
X173393945Y-123344450D01*
X173341526Y-122950406D01*
X172602153Y-122664116D01*
X171809503Y-122682565D01*
X171162874Y-122950406D01*
X171110455Y-123344450D01*
X149320929Y-123344450D01*
X148627000Y-122928093D01*
X148627000Y-118739414D01*
X161682101Y-118739414D01*
X161944467Y-119374389D01*
X162429856Y-119860626D01*
X163064371Y-120124100D01*
X163751414Y-120124699D01*
X164322810Y-119888603D01*
X170850352Y-119888603D01*
X171067143Y-120413275D01*
X171468214Y-120815047D01*
X171992507Y-121032752D01*
X172560203Y-121033248D01*
X173084875Y-120816457D01*
X173486647Y-120415386D01*
X173704352Y-119891093D01*
X173704848Y-119323397D01*
X173488057Y-118798725D01*
X173086986Y-118396953D01*
X172894048Y-118316838D01*
X177860197Y-118316838D01*
X178213715Y-119172418D01*
X178867739Y-119827585D01*
X179722700Y-120182596D01*
X180648438Y-120183403D01*
X181504018Y-119829885D01*
X182159185Y-119175861D01*
X182514196Y-118320900D01*
X182515003Y-117395162D01*
X182161485Y-116539582D01*
X181507461Y-115884415D01*
X180652500Y-115529404D01*
X179726762Y-115528597D01*
X178871182Y-115882115D01*
X178216015Y-116536139D01*
X177861004Y-117391100D01*
X177860197Y-118316838D01*
X172894048Y-118316838D01*
X172562693Y-118179248D01*
X171994997Y-118178752D01*
X171470325Y-118395543D01*
X171068553Y-118796614D01*
X170850848Y-119320907D01*
X170850352Y-119888603D01*
X164322810Y-119888603D01*
X164386389Y-119862333D01*
X164872626Y-119376944D01*
X165136100Y-118742429D01*
X165136699Y-118055386D01*
X164877201Y-117427350D01*
X171135855Y-117427350D01*
X171188274Y-117821394D01*
X171927647Y-118107684D01*
X172720297Y-118089235D01*
X173366926Y-117821394D01*
X173419345Y-117427350D01*
X172277600Y-116285605D01*
X171135855Y-117427350D01*
X164877201Y-117427350D01*
X164874333Y-117420411D01*
X164388944Y-116934174D01*
X163754429Y-116670700D01*
X163067386Y-116670101D01*
X162432411Y-116932467D01*
X161946174Y-117417856D01*
X161682700Y-118052371D01*
X161682101Y-118739414D01*
X148627000Y-118739414D01*
X148627000Y-115756047D01*
X170275916Y-115756047D01*
X170294365Y-116548697D01*
X170562206Y-117195326D01*
X170956250Y-117247745D01*
X172097995Y-116106000D01*
X172457205Y-116106000D01*
X173598950Y-117247745D01*
X173992994Y-117195326D01*
X174279284Y-116455953D01*
X174260835Y-115663303D01*
X173992994Y-115016674D01*
X173598950Y-114964255D01*
X172457205Y-116106000D01*
X172097995Y-116106000D01*
X170956250Y-114964255D01*
X170562206Y-115016674D01*
X170275916Y-115756047D01*
X148627000Y-115756047D01*
X148627000Y-114784650D01*
X171135855Y-114784650D01*
X172277600Y-115926395D01*
X173419345Y-114784650D01*
X173366926Y-114390606D01*
X172627553Y-114104316D01*
X171834903Y-114122765D01*
X171188274Y-114390606D01*
X171135855Y-114784650D01*
X148627000Y-114784650D01*
X148627000Y-111379603D01*
X170799552Y-111379603D01*
X171016343Y-111904275D01*
X171417414Y-112306047D01*
X171941707Y-112523752D01*
X172509403Y-112524248D01*
X173034075Y-112307457D01*
X173435847Y-111906386D01*
X173653552Y-111382093D01*
X173654048Y-110814397D01*
X173437257Y-110289725D01*
X173036186Y-109887953D01*
X172843248Y-109807838D01*
X177809397Y-109807838D01*
X178162915Y-110663418D01*
X178816939Y-111318585D01*
X179671900Y-111673596D01*
X180597638Y-111674403D01*
X181453218Y-111320885D01*
X182108385Y-110666861D01*
X182463396Y-109811900D01*
X182464203Y-108886162D01*
X182110685Y-108030582D01*
X181456661Y-107375415D01*
X180601700Y-107020404D01*
X179675962Y-107019597D01*
X178820382Y-107373115D01*
X178165215Y-108027139D01*
X177810204Y-108882100D01*
X177809397Y-109807838D01*
X172843248Y-109807838D01*
X172511893Y-109670248D01*
X171944197Y-109669752D01*
X171419525Y-109886543D01*
X171017753Y-110287614D01*
X170800048Y-110811907D01*
X170799552Y-111379603D01*
X148627000Y-111379603D01*
X148627000Y-108918350D01*
X171085055Y-108918350D01*
X171137474Y-109312394D01*
X171876847Y-109598684D01*
X172669497Y-109580235D01*
X173316126Y-109312394D01*
X173368545Y-108918350D01*
X172226800Y-107776605D01*
X171085055Y-108918350D01*
X148627000Y-108918350D01*
X148627000Y-106539414D01*
X149682101Y-106539414D01*
X149944467Y-107174389D01*
X150429856Y-107660626D01*
X151064371Y-107924100D01*
X151751414Y-107924699D01*
X152386389Y-107662333D01*
X152872626Y-107176944D01*
X153136100Y-106542429D01*
X153136102Y-106539414D01*
X161682101Y-106539414D01*
X161944467Y-107174389D01*
X162429856Y-107660626D01*
X163064371Y-107924100D01*
X163751414Y-107924699D01*
X164386389Y-107662333D01*
X164802400Y-107247047D01*
X170225116Y-107247047D01*
X170243565Y-108039697D01*
X170511406Y-108686326D01*
X170905450Y-108738745D01*
X172047195Y-107597000D01*
X172406405Y-107597000D01*
X173548150Y-108738745D01*
X173942194Y-108686326D01*
X174228484Y-107946953D01*
X174210035Y-107154303D01*
X173942194Y-106507674D01*
X173548150Y-106455255D01*
X172406405Y-107597000D01*
X172047195Y-107597000D01*
X170905450Y-106455255D01*
X170511406Y-106507674D01*
X170225116Y-107247047D01*
X164802400Y-107247047D01*
X164872626Y-107176944D01*
X165136100Y-106542429D01*
X165136332Y-106275650D01*
X171085055Y-106275650D01*
X172226800Y-107417395D01*
X173368545Y-106275650D01*
X173316126Y-105881606D01*
X172576753Y-105595316D01*
X171784103Y-105613765D01*
X171137474Y-105881606D01*
X171085055Y-106275650D01*
X165136332Y-106275650D01*
X165136699Y-105855386D01*
X164874333Y-105220411D01*
X164388944Y-104734174D01*
X163754429Y-104470700D01*
X163067386Y-104470101D01*
X162432411Y-104732467D01*
X161946174Y-105217856D01*
X161682700Y-105852371D01*
X161682101Y-106539414D01*
X153136102Y-106539414D01*
X153136699Y-105855386D01*
X152874333Y-105220411D01*
X152388944Y-104734174D01*
X151754429Y-104470700D01*
X151067386Y-104470101D01*
X150432411Y-104732467D01*
X149946174Y-105217856D01*
X149682700Y-105852371D01*
X149682101Y-106539414D01*
X148627000Y-106539414D01*
X148627000Y-103989414D01*
X155682101Y-103989414D01*
X155944467Y-104624389D01*
X156429856Y-105110626D01*
X157064371Y-105374100D01*
X157751414Y-105374699D01*
X158386389Y-105112333D01*
X158872626Y-104626944D01*
X159136100Y-103992429D01*
X159136699Y-103305386D01*
X158988536Y-102946803D01*
X170774152Y-102946803D01*
X170990943Y-103471475D01*
X171392014Y-103873247D01*
X171916307Y-104090952D01*
X172484003Y-104091448D01*
X173008675Y-103874657D01*
X173410447Y-103473586D01*
X173628152Y-102949293D01*
X173628648Y-102381597D01*
X173411857Y-101856925D01*
X173010786Y-101455153D01*
X172817848Y-101375038D01*
X177783997Y-101375038D01*
X178137515Y-102230618D01*
X178791539Y-102885785D01*
X179646500Y-103240796D01*
X180572238Y-103241603D01*
X181427818Y-102888085D01*
X182082985Y-102234061D01*
X182437996Y-101379100D01*
X182438803Y-100453362D01*
X182085285Y-99597782D01*
X181431261Y-98942615D01*
X180576300Y-98587604D01*
X179650562Y-98586797D01*
X178794982Y-98940315D01*
X178139815Y-99594339D01*
X177784804Y-100449300D01*
X177783997Y-101375038D01*
X172817848Y-101375038D01*
X172486493Y-101237448D01*
X171918797Y-101236952D01*
X171394125Y-101453743D01*
X170992353Y-101854814D01*
X170774648Y-102379107D01*
X170774152Y-102946803D01*
X158988536Y-102946803D01*
X158874333Y-102670411D01*
X158388944Y-102184174D01*
X157754429Y-101920700D01*
X157067386Y-101920101D01*
X156432411Y-102182467D01*
X155946174Y-102667856D01*
X155682700Y-103302371D01*
X155682101Y-103989414D01*
X148627000Y-103989414D01*
X148627000Y-99446803D01*
X170774152Y-99446803D01*
X170990943Y-99971475D01*
X171392014Y-100373247D01*
X171916307Y-100590952D01*
X172484003Y-100591448D01*
X173008675Y-100374657D01*
X173410447Y-99973586D01*
X173628152Y-99449293D01*
X173628648Y-98881597D01*
X173411857Y-98356925D01*
X173010786Y-97955153D01*
X172486493Y-97737448D01*
X171918797Y-97736952D01*
X171394125Y-97953743D01*
X170992353Y-98354814D01*
X170774648Y-98879107D01*
X170774152Y-99446803D01*
X148627000Y-99446803D01*
X148627000Y-99000000D01*
X148618315Y-98953841D01*
X148591035Y-98911447D01*
X148549410Y-98883006D01*
X148500000Y-98873000D01*
X148048281Y-98873000D01*
X147971338Y-98795923D01*
X147666021Y-98669145D01*
X147335429Y-98668856D01*
X147328487Y-98671725D01*
X147330855Y-98666021D01*
X147331144Y-98335429D01*
X147204898Y-98029891D01*
X146971338Y-97795923D01*
X146666021Y-97669145D01*
X146335429Y-97668856D01*
X146029891Y-97795102D01*
X146000153Y-97824788D01*
X145971338Y-97795923D01*
X145666021Y-97669145D01*
X145335429Y-97668856D01*
X145029891Y-97795102D01*
X145000153Y-97824788D01*
X144971338Y-97795923D01*
X144666021Y-97669145D01*
X144335429Y-97668856D01*
X144029891Y-97795102D01*
X144000153Y-97824788D01*
X143971338Y-97795923D01*
X143666021Y-97669145D01*
X143335429Y-97668856D01*
X143029891Y-97795102D01*
X143000153Y-97824788D01*
X142971338Y-97795923D01*
X142666021Y-97669145D01*
X142335429Y-97668856D01*
X142029891Y-97795102D01*
X142000153Y-97824788D01*
X141971338Y-97795923D01*
X141666021Y-97669145D01*
X141335429Y-97668856D01*
X141029891Y-97795102D01*
X141000153Y-97824788D01*
X140971338Y-97795923D01*
X140666021Y-97669145D01*
X140335429Y-97668856D01*
X140029891Y-97795102D01*
X140000153Y-97824788D01*
X139971338Y-97795923D01*
X139666021Y-97669145D01*
X139335429Y-97668856D01*
X139029891Y-97795102D01*
X138795923Y-98028662D01*
X138669145Y-98333979D01*
X138668856Y-98664571D01*
X138795102Y-98970109D01*
X138824788Y-98999847D01*
X138795923Y-99028662D01*
X138669145Y-99333979D01*
X138668856Y-99664571D01*
X138795102Y-99970109D01*
X138824788Y-99999847D01*
X138795923Y-100028662D01*
X138669145Y-100333979D01*
X138668856Y-100664571D01*
X138795102Y-100970109D01*
X139028662Y-101204077D01*
X139333979Y-101330855D01*
X139664571Y-101331144D01*
X139873000Y-101245023D01*
X139873000Y-101574600D01*
X118369985Y-101574600D01*
X118362272Y-101528321D01*
X118330446Y-101463195D01*
X118289623Y-101433616D01*
X118240509Y-101422248D01*
X118190841Y-101430885D01*
X118148447Y-101458165D01*
X118120006Y-101499790D01*
X118110000Y-101549200D01*
X118110000Y-115747800D01*
X106451400Y-115747800D01*
X106405241Y-115756485D01*
X106362847Y-115783765D01*
X106334406Y-115825390D01*
X106324400Y-115874800D01*
X98169661Y-115874800D01*
X98158235Y-115383903D01*
X97890394Y-114737274D01*
X97496350Y-114684855D01*
X96354605Y-115826600D01*
X95995395Y-115826600D01*
X94853650Y-114684855D01*
X94459606Y-114737274D01*
X94173316Y-115476647D01*
X89275717Y-115476647D01*
X88729900Y-115250004D01*
X87804162Y-115249197D01*
X86948582Y-115602715D01*
X86293415Y-116256739D01*
X85938404Y-117111700D01*
X85937597Y-118037438D01*
X84472000Y-118037438D01*
X84472000Y-114505250D01*
X95033255Y-114505250D01*
X96175000Y-115646995D01*
X97316745Y-114505250D01*
X97264326Y-114111206D01*
X96524953Y-113824916D01*
X95732303Y-113843365D01*
X95085674Y-114111206D01*
X95033255Y-114505250D01*
X84472000Y-114505250D01*
X84472000Y-93738171D01*
X162770256Y-93738171D01*
X162896502Y-94043709D01*
X163130062Y-94277677D01*
X163435379Y-94404455D01*
X163765971Y-94404744D01*
X164071509Y-94278498D01*
X164305477Y-94044938D01*
X164432255Y-93739621D01*
X164432544Y-93409029D01*
X164306298Y-93103491D01*
X164072738Y-92869523D01*
X163767421Y-92742745D01*
X163436829Y-92742456D01*
X163131291Y-92868702D01*
X162897323Y-93102262D01*
X162770545Y-93407579D01*
X162770256Y-93738171D01*
X84472000Y-93738171D01*
X84472000Y-91833171D01*
X146463456Y-91833171D01*
X146589702Y-92138709D01*
X146823262Y-92372677D01*
X147128579Y-92499455D01*
X147459171Y-92499744D01*
X147764709Y-92373498D01*
X147998677Y-92139938D01*
X148125455Y-91834621D01*
X148125744Y-91504029D01*
X147999498Y-91198491D01*
X147765938Y-90964523D01*
X147460621Y-90837745D01*
X147130029Y-90837456D01*
X146824491Y-90963702D01*
X146590523Y-91197262D01*
X146463745Y-91502579D01*
X146463456Y-91833171D01*
X84472000Y-91833171D01*
X84472000Y-89966271D01*
X116006316Y-89966271D01*
X116132562Y-90271809D01*
X116366122Y-90505777D01*
X116671439Y-90632555D01*
X117002031Y-90632844D01*
X117307569Y-90506598D01*
X117541537Y-90273038D01*
X117564717Y-90217214D01*
X155696301Y-90217214D01*
X155958667Y-90852189D01*
X156444056Y-91338426D01*
X157078571Y-91601900D01*
X157765614Y-91602499D01*
X158400589Y-91340133D01*
X158886826Y-90854744D01*
X159150300Y-90220229D01*
X159150899Y-89533186D01*
X158888533Y-88898211D01*
X158403144Y-88411974D01*
X157768629Y-88148500D01*
X157081586Y-88147901D01*
X156446611Y-88410267D01*
X155960374Y-88895656D01*
X155696900Y-89530171D01*
X155696301Y-90217214D01*
X117564717Y-90217214D01*
X117668315Y-89967721D01*
X117668604Y-89637129D01*
X117542358Y-89331591D01*
X117308798Y-89097623D01*
X117003481Y-88970845D01*
X116672889Y-88970556D01*
X116367351Y-89096802D01*
X116133383Y-89330362D01*
X116006605Y-89635679D01*
X116006316Y-89966271D01*
X84472000Y-89966271D01*
X84472000Y-85521388D01*
X86476380Y-85521388D01*
X87019798Y-86836561D01*
X88025146Y-87843665D01*
X89339369Y-88389378D01*
X90762388Y-88390620D01*
X92077561Y-87847202D01*
X92944503Y-86981771D01*
X106153656Y-86981771D01*
X106279902Y-87287309D01*
X106513462Y-87521277D01*
X106818779Y-87648055D01*
X107052933Y-87648260D01*
X107092702Y-87744509D01*
X107326262Y-87978477D01*
X107631579Y-88105255D01*
X107962171Y-88105544D01*
X108267709Y-87979298D01*
X108501677Y-87745738D01*
X108534282Y-87667214D01*
X149696301Y-87667214D01*
X149958667Y-88302189D01*
X150444056Y-88788426D01*
X151078571Y-89051900D01*
X151765614Y-89052499D01*
X152400589Y-88790133D01*
X152886826Y-88304744D01*
X153150300Y-87670229D01*
X153150302Y-87667214D01*
X161696301Y-87667214D01*
X161958667Y-88302189D01*
X162444056Y-88788426D01*
X163078571Y-89051900D01*
X163765614Y-89052499D01*
X164400589Y-88790133D01*
X164886826Y-88304744D01*
X165150300Y-87670229D01*
X165150899Y-86983186D01*
X164888533Y-86348211D01*
X164403144Y-85861974D01*
X163768629Y-85598500D01*
X163081586Y-85597901D01*
X162446611Y-85860267D01*
X161960374Y-86345656D01*
X161696900Y-86980171D01*
X161696301Y-87667214D01*
X153150302Y-87667214D01*
X153150899Y-86983186D01*
X152888533Y-86348211D01*
X152403144Y-85861974D01*
X151768629Y-85598500D01*
X151081586Y-85597901D01*
X150446611Y-85860267D01*
X149960374Y-86345656D01*
X149696900Y-86980171D01*
X149696301Y-87667214D01*
X108534282Y-87667214D01*
X108628455Y-87440421D01*
X108628744Y-87109829D01*
X108502498Y-86804291D01*
X108268938Y-86570323D01*
X107963621Y-86443545D01*
X107729467Y-86443340D01*
X107689698Y-86347091D01*
X107456138Y-86113123D01*
X107150821Y-85986345D01*
X106820229Y-85986056D01*
X106514691Y-86112302D01*
X106280723Y-86345862D01*
X106153945Y-86651179D01*
X106153656Y-86981771D01*
X92944503Y-86981771D01*
X93084665Y-86841854D01*
X93630378Y-85527631D01*
X93631620Y-84104612D01*
X93088202Y-82789439D01*
X92082854Y-81782335D01*
X90768631Y-81236622D01*
X89345612Y-81235380D01*
X88030439Y-81778798D01*
X87023335Y-82784146D01*
X86477622Y-84098369D01*
X86476380Y-85521388D01*
X84472000Y-85521388D01*
X84472000Y-79410489D01*
X98059013Y-79410489D01*
X98222631Y-79806475D01*
X98248091Y-79831979D01*
X98223696Y-79856332D01*
X98059387Y-80252032D01*
X98059013Y-80680489D01*
X98222631Y-81076475D01*
X98248091Y-81101979D01*
X98223696Y-81126332D01*
X98059387Y-81522032D01*
X98059013Y-81950489D01*
X98222631Y-82346475D01*
X98248091Y-82371979D01*
X98223696Y-82396332D01*
X98059387Y-82792032D01*
X98059013Y-83220489D01*
X98222631Y-83616475D01*
X98248091Y-83641979D01*
X98223696Y-83666332D01*
X98059387Y-84062032D01*
X98059013Y-84490489D01*
X98222631Y-84886475D01*
X98525332Y-85189704D01*
X98921032Y-85354013D01*
X99349489Y-85354387D01*
X99745475Y-85190769D01*
X99770979Y-85165309D01*
X99795332Y-85189704D01*
X100191032Y-85354013D01*
X100619489Y-85354387D01*
X101015475Y-85190769D01*
X101318704Y-84888068D01*
X101358474Y-84792291D01*
X127250896Y-84792291D01*
X127377142Y-85097829D01*
X127610702Y-85331797D01*
X127916019Y-85458575D01*
X128246611Y-85458864D01*
X128552149Y-85332618D01*
X128786117Y-85099058D01*
X128912895Y-84793741D01*
X128913184Y-84463149D01*
X128786938Y-84157611D01*
X128553378Y-83923643D01*
X128248061Y-83796865D01*
X127917469Y-83796576D01*
X127611931Y-83922822D01*
X127377963Y-84156382D01*
X127251185Y-84461699D01*
X127250896Y-84792291D01*
X101358474Y-84792291D01*
X101483013Y-84492368D01*
X101483387Y-84063911D01*
X101319769Y-83667925D01*
X101294309Y-83642421D01*
X101318704Y-83618068D01*
X101483013Y-83222368D01*
X101483248Y-82952281D01*
X108850849Y-82952281D01*
X108984082Y-83274731D01*
X109230571Y-83521651D01*
X109552789Y-83655447D01*
X109901681Y-83655751D01*
X110224131Y-83522518D01*
X110471051Y-83276029D01*
X110604847Y-82953811D01*
X110605151Y-82604919D01*
X110471918Y-82282469D01*
X110225429Y-82035549D01*
X109903211Y-81901753D01*
X109554319Y-81901449D01*
X109231869Y-82034682D01*
X108984949Y-82281171D01*
X108851153Y-82603389D01*
X108850849Y-82952281D01*
X101483248Y-82952281D01*
X101483387Y-82793911D01*
X101371339Y-82522734D01*
X101474371Y-82625766D01*
X101832204Y-82616272D01*
X102060062Y-82003649D01*
X102036135Y-81350461D01*
X101832204Y-80858128D01*
X101474371Y-80848634D01*
X101371085Y-80951920D01*
X101419646Y-80834971D01*
X107017256Y-80834971D01*
X107143502Y-81140509D01*
X107377062Y-81374477D01*
X107682379Y-81501255D01*
X108012971Y-81501544D01*
X108318509Y-81375298D01*
X108552477Y-81141738D01*
X108649469Y-80908155D01*
X108874971Y-81134051D01*
X109197189Y-81267847D01*
X109546081Y-81268151D01*
X109868531Y-81134918D01*
X110115451Y-80888429D01*
X110249247Y-80566211D01*
X110249278Y-80530171D01*
X110852656Y-80530171D01*
X110978902Y-80835709D01*
X111212462Y-81069677D01*
X111517779Y-81196455D01*
X111848371Y-81196744D01*
X111924783Y-81165171D01*
X130639256Y-81165171D01*
X130765502Y-81470709D01*
X130999062Y-81704677D01*
X131304379Y-81831455D01*
X131634971Y-81831744D01*
X131940509Y-81705498D01*
X132174477Y-81471938D01*
X132282872Y-81210891D01*
X132986216Y-81210891D01*
X133112462Y-81516429D01*
X133346022Y-81750397D01*
X133651339Y-81877175D01*
X133981931Y-81877464D01*
X134287469Y-81751218D01*
X134521437Y-81517658D01*
X134648215Y-81212341D01*
X134648504Y-80881749D01*
X134522258Y-80576211D01*
X134288698Y-80342243D01*
X133983381Y-80215465D01*
X133652789Y-80215176D01*
X133347251Y-80341422D01*
X133113283Y-80574982D01*
X132986505Y-80880299D01*
X132986216Y-81210891D01*
X132282872Y-81210891D01*
X132301255Y-81166621D01*
X132301544Y-80836029D01*
X132175298Y-80530491D01*
X131941738Y-80296523D01*
X131636421Y-80169745D01*
X131305829Y-80169456D01*
X131000291Y-80295702D01*
X130766323Y-80529262D01*
X130639545Y-80834579D01*
X130639256Y-81165171D01*
X111924783Y-81165171D01*
X112153909Y-81070498D01*
X112387877Y-80836938D01*
X112514655Y-80531621D01*
X112514944Y-80201029D01*
X112388698Y-79895491D01*
X112155138Y-79661523D01*
X111849821Y-79534745D01*
X111519229Y-79534456D01*
X111213691Y-79660702D01*
X110979723Y-79894262D01*
X110852945Y-80199579D01*
X110852656Y-80530171D01*
X110249278Y-80530171D01*
X110249551Y-80217319D01*
X110116318Y-79894869D01*
X109869829Y-79647949D01*
X109547611Y-79514153D01*
X109198719Y-79513849D01*
X108876269Y-79647082D01*
X108629349Y-79893571D01*
X108517061Y-80163991D01*
X108319738Y-79966323D01*
X108014421Y-79839545D01*
X107683829Y-79839256D01*
X107378291Y-79965502D01*
X107144323Y-80199062D01*
X107017545Y-80504379D01*
X107017256Y-80834971D01*
X101419646Y-80834971D01*
X101483013Y-80682368D01*
X101483387Y-80253911D01*
X101371339Y-79982734D01*
X101474371Y-80085766D01*
X101832204Y-80076272D01*
X102060062Y-79463649D01*
X102036135Y-78810461D01*
X101832204Y-78318128D01*
X101474371Y-78308634D01*
X100585805Y-79197200D01*
X100890920Y-79502315D01*
X100621368Y-79390387D01*
X100419606Y-79390211D01*
X100406200Y-79376805D01*
X100392818Y-79390187D01*
X100391296Y-79390186D01*
X100213188Y-79212078D01*
X100213189Y-79210606D01*
X100226595Y-79197200D01*
X100213213Y-79183818D01*
X100213387Y-78983911D01*
X100101339Y-78712734D01*
X100406200Y-79017595D01*
X101294766Y-78129029D01*
X101293104Y-78066371D01*
X113951456Y-78066371D01*
X114077702Y-78371909D01*
X114311262Y-78605877D01*
X114616579Y-78732655D01*
X114947171Y-78732944D01*
X115252709Y-78606698D01*
X115486677Y-78373138D01*
X115613455Y-78067821D01*
X115613607Y-77893651D01*
X129094936Y-77893651D01*
X129221182Y-78199189D01*
X129454742Y-78433157D01*
X129760059Y-78559935D01*
X130090651Y-78560224D01*
X130396189Y-78433978D01*
X130630157Y-78200418D01*
X130756935Y-77895101D01*
X130757224Y-77564509D01*
X130630978Y-77258971D01*
X130397418Y-77025003D01*
X130092101Y-76898225D01*
X129761509Y-76897936D01*
X129455971Y-77024182D01*
X129222003Y-77257742D01*
X129095225Y-77563059D01*
X129094936Y-77893651D01*
X115613607Y-77893651D01*
X115613744Y-77737229D01*
X115487498Y-77431691D01*
X115253938Y-77197723D01*
X114948621Y-77070945D01*
X114618029Y-77070656D01*
X114312491Y-77196902D01*
X114078523Y-77430462D01*
X113951745Y-77735779D01*
X113951456Y-78066371D01*
X101293104Y-78066371D01*
X101285272Y-77771196D01*
X100672649Y-77543338D01*
X100019461Y-77567265D01*
X99527128Y-77771196D01*
X99517634Y-78129029D01*
X99620920Y-78232315D01*
X99351368Y-78120387D01*
X98922911Y-78120013D01*
X98526925Y-78283631D01*
X98223696Y-78586332D01*
X98059387Y-78982032D01*
X98059013Y-79410489D01*
X84472000Y-79410489D01*
X84472000Y-77859924D01*
X85023740Y-78014700D01*
X85298740Y-78014700D01*
X85298740Y-76498700D01*
X85278740Y-76498700D01*
X85278740Y-76244700D01*
X85298740Y-76244700D01*
X85298740Y-74728700D01*
X85552740Y-74728700D01*
X85552740Y-76244700D01*
X85572740Y-76244700D01*
X85572740Y-76498700D01*
X85552740Y-76498700D01*
X85552740Y-78014700D01*
X85827740Y-78014700D01*
X86446822Y-77841033D01*
X86952319Y-77443673D01*
X87267275Y-76883115D01*
X87269839Y-76872562D01*
X87725450Y-77090502D01*
X87747974Y-77094982D01*
X87998740Y-76847883D01*
X87998740Y-75498700D01*
X88252740Y-75498700D01*
X88252740Y-76847883D01*
X88503506Y-77094982D01*
X88526030Y-77090502D01*
X89087821Y-76821771D01*
X107880856Y-76821771D01*
X108007102Y-77127309D01*
X108240662Y-77361277D01*
X108545979Y-77488055D01*
X108876571Y-77488344D01*
X109149279Y-77375663D01*
X109358779Y-77462655D01*
X109689371Y-77462944D01*
X109994909Y-77336698D01*
X110228877Y-77103138D01*
X110355655Y-76797821D01*
X110355944Y-76467229D01*
X110229698Y-76161691D01*
X109996138Y-75927723D01*
X109690821Y-75800945D01*
X109360229Y-75800656D01*
X109087521Y-75913337D01*
X108878021Y-75826345D01*
X108547429Y-75826056D01*
X108241891Y-75952302D01*
X108007923Y-76185862D01*
X107881145Y-76491179D01*
X107880856Y-76821771D01*
X89087821Y-76821771D01*
X89095914Y-76817900D01*
X89518098Y-76347963D01*
X89728308Y-75752235D01*
X89458891Y-75498700D01*
X88252740Y-75498700D01*
X87998740Y-75498700D01*
X87978740Y-75498700D01*
X87978740Y-75399371D01*
X105620256Y-75399371D01*
X105746502Y-75704909D01*
X105980062Y-75938877D01*
X106285379Y-76065655D01*
X106615971Y-76065944D01*
X106921509Y-75939698D01*
X107155477Y-75706138D01*
X107282255Y-75400821D01*
X107282544Y-75070229D01*
X107156298Y-74764691D01*
X106922738Y-74530723D01*
X106617421Y-74403945D01*
X106286829Y-74403656D01*
X105981291Y-74529902D01*
X105747323Y-74763462D01*
X105620545Y-75068779D01*
X105620256Y-75399371D01*
X87978740Y-75399371D01*
X87978740Y-75244700D01*
X87998740Y-75244700D01*
X87998740Y-73895517D01*
X88252740Y-73895517D01*
X88252740Y-75244700D01*
X89458891Y-75244700D01*
X89728308Y-74991165D01*
X89651746Y-74774190D01*
X89749462Y-74872077D01*
X90054779Y-74998855D01*
X90385371Y-74999144D01*
X90690909Y-74872898D01*
X90924877Y-74639338D01*
X91051655Y-74334021D01*
X91051944Y-74003429D01*
X90925698Y-73697891D01*
X90692138Y-73463923D01*
X90386821Y-73337145D01*
X90056229Y-73336856D01*
X89750691Y-73463102D01*
X89516723Y-73696662D01*
X89389945Y-74001979D01*
X89389726Y-74252545D01*
X89095914Y-73925500D01*
X88526030Y-73652898D01*
X88503506Y-73648418D01*
X88252740Y-73895517D01*
X87998740Y-73895517D01*
X87747974Y-73648418D01*
X87725450Y-73652898D01*
X87155566Y-73925500D01*
X86733382Y-74395437D01*
X86531122Y-74968634D01*
X86446822Y-74902367D01*
X85827740Y-74728700D01*
X85552740Y-74728700D01*
X85298740Y-74728700D01*
X85023740Y-74728700D01*
X84472000Y-74883476D01*
X84472000Y-70859924D01*
X85023740Y-71014700D01*
X85298740Y-71014700D01*
X85298740Y-69498700D01*
X85278740Y-69498700D01*
X85278740Y-69244700D01*
X85298740Y-69244700D01*
X85298740Y-67728700D01*
X85552740Y-67728700D01*
X85552740Y-69244700D01*
X85572740Y-69244700D01*
X85572740Y-69498700D01*
X85552740Y-69498700D01*
X85552740Y-71014700D01*
X85827740Y-71014700D01*
X86446822Y-70841033D01*
X86531122Y-70774766D01*
X86733382Y-71347963D01*
X87155566Y-71817900D01*
X87725450Y-72090502D01*
X87747974Y-72094982D01*
X87998740Y-71847883D01*
X87998740Y-70498700D01*
X88252740Y-70498700D01*
X88252740Y-71847883D01*
X88503506Y-72094982D01*
X88526030Y-72090502D01*
X89016116Y-71856071D01*
X99079756Y-71856071D01*
X99206002Y-72161609D01*
X99439562Y-72395577D01*
X99744879Y-72522355D01*
X100075471Y-72522644D01*
X100381009Y-72396398D01*
X100614977Y-72162838D01*
X100741755Y-71857521D01*
X100742044Y-71526929D01*
X100615798Y-71221391D01*
X100382238Y-70987423D01*
X100076921Y-70860645D01*
X99746329Y-70860356D01*
X99440791Y-70986602D01*
X99206823Y-71220162D01*
X99080045Y-71525479D01*
X99079756Y-71856071D01*
X89016116Y-71856071D01*
X89095914Y-71817900D01*
X89518098Y-71347963D01*
X89728308Y-70752235D01*
X89565231Y-70598771D01*
X100616456Y-70598771D01*
X100742702Y-70904309D01*
X100976262Y-71138277D01*
X101281579Y-71265055D01*
X101552437Y-71265292D01*
X101454945Y-71500079D01*
X101454656Y-71830671D01*
X101580902Y-72136209D01*
X101814462Y-72370177D01*
X101818402Y-72371813D01*
X101638629Y-72371656D01*
X101333091Y-72497902D01*
X101099123Y-72731462D01*
X100972345Y-73036779D01*
X100972056Y-73367371D01*
X101098302Y-73672909D01*
X101331862Y-73906877D01*
X101637179Y-74033655D01*
X101967771Y-74033944D01*
X102273309Y-73907698D01*
X102507277Y-73674138D01*
X102634055Y-73368821D01*
X102634344Y-73038229D01*
X102508098Y-72732691D01*
X102274538Y-72498723D01*
X102270598Y-72497087D01*
X102450371Y-72497244D01*
X102755909Y-72370998D01*
X102989877Y-72137438D01*
X103116655Y-71832121D01*
X103116944Y-71501529D01*
X103111260Y-71487771D01*
X104782056Y-71487771D01*
X104908302Y-71793309D01*
X105141862Y-72027277D01*
X105447179Y-72154055D01*
X105777771Y-72154344D01*
X105899739Y-72103948D01*
X105899656Y-72198971D01*
X105968105Y-72364630D01*
X105899945Y-72528779D01*
X105899656Y-72859371D01*
X105968105Y-73025030D01*
X105899945Y-73189179D01*
X105899656Y-73519771D01*
X106025902Y-73825309D01*
X106259462Y-74059277D01*
X106564779Y-74186055D01*
X106895371Y-74186344D01*
X107200909Y-74060098D01*
X107434877Y-73826538D01*
X107561655Y-73521221D01*
X107561944Y-73190629D01*
X107493495Y-73024970D01*
X107561655Y-72860821D01*
X107561944Y-72530229D01*
X107493495Y-72364570D01*
X107561655Y-72200421D01*
X107561944Y-71869829D01*
X107435698Y-71564291D01*
X107202138Y-71330323D01*
X106896821Y-71203545D01*
X106566229Y-71203256D01*
X106444261Y-71253652D01*
X106444344Y-71158629D01*
X106318098Y-70853091D01*
X106084538Y-70619123D01*
X105779221Y-70492345D01*
X105448629Y-70492056D01*
X105143091Y-70618302D01*
X104909123Y-70851862D01*
X104782345Y-71157179D01*
X104782056Y-71487771D01*
X103111260Y-71487771D01*
X102990698Y-71195991D01*
X102757138Y-70962023D01*
X102451821Y-70835245D01*
X102180963Y-70835008D01*
X102278455Y-70600221D01*
X102278744Y-70269629D01*
X102152498Y-69964091D01*
X102152179Y-69963771D01*
X110141456Y-69963771D01*
X110267702Y-70269309D01*
X110501262Y-70503277D01*
X110806579Y-70630055D01*
X111137171Y-70630344D01*
X111442709Y-70504098D01*
X111676677Y-70270538D01*
X111803455Y-69965221D01*
X111803744Y-69634629D01*
X111677498Y-69329091D01*
X111443938Y-69095123D01*
X111138621Y-68968345D01*
X110808029Y-68968056D01*
X110502491Y-69094302D01*
X110268523Y-69327862D01*
X110141745Y-69633179D01*
X110141456Y-69963771D01*
X102152179Y-69963771D01*
X101918938Y-69730123D01*
X101613621Y-69603345D01*
X101283029Y-69603056D01*
X100977491Y-69729302D01*
X100743523Y-69962862D01*
X100616745Y-70268179D01*
X100616456Y-70598771D01*
X89565231Y-70598771D01*
X89458891Y-70498700D01*
X88252740Y-70498700D01*
X87998740Y-70498700D01*
X87978740Y-70498700D01*
X87978740Y-70244700D01*
X87998740Y-70244700D01*
X87998740Y-68895517D01*
X88252740Y-68895517D01*
X88252740Y-70244700D01*
X89458891Y-70244700D01*
X89728308Y-69991165D01*
X89518098Y-69395437D01*
X89095914Y-68925500D01*
X88526030Y-68652898D01*
X88503506Y-68648418D01*
X88252740Y-68895517D01*
X87998740Y-68895517D01*
X87747974Y-68648418D01*
X87725450Y-68652898D01*
X87269839Y-68870838D01*
X87267275Y-68860285D01*
X86952319Y-68299727D01*
X86758883Y-68147671D01*
X98965456Y-68147671D01*
X99091702Y-68453209D01*
X99129388Y-68490961D01*
X99092523Y-68527762D01*
X98965745Y-68833079D01*
X98965456Y-69163671D01*
X99091702Y-69469209D01*
X99325262Y-69703177D01*
X99630579Y-69829955D01*
X99961171Y-69830244D01*
X100266709Y-69703998D01*
X100500677Y-69470438D01*
X100627455Y-69165121D01*
X100627744Y-68834529D01*
X100501498Y-68528991D01*
X100463812Y-68491239D01*
X100500677Y-68454438D01*
X100627455Y-68149121D01*
X100627744Y-67818529D01*
X100501498Y-67512991D01*
X100267938Y-67279023D01*
X99962621Y-67152245D01*
X99632029Y-67151956D01*
X99326491Y-67278202D01*
X99092523Y-67511762D01*
X98965745Y-67817079D01*
X98965456Y-68147671D01*
X86758883Y-68147671D01*
X86446822Y-67902367D01*
X85827740Y-67728700D01*
X85552740Y-67728700D01*
X85298740Y-67728700D01*
X85023740Y-67728700D01*
X84472000Y-67883476D01*
X84472000Y-67004671D01*
X91142256Y-67004671D01*
X91268502Y-67310209D01*
X91502062Y-67544177D01*
X91807379Y-67670955D01*
X92137971Y-67671244D01*
X92443509Y-67544998D01*
X92677477Y-67311438D01*
X92804255Y-67006121D01*
X92804544Y-66675529D01*
X92678298Y-66369991D01*
X92444738Y-66136023D01*
X92139421Y-66009245D01*
X91808829Y-66008956D01*
X91503291Y-66135202D01*
X91269323Y-66368762D01*
X91142545Y-66674079D01*
X91142256Y-67004671D01*
X84472000Y-67004671D01*
X84472000Y-65899771D01*
X101683256Y-65899771D01*
X101809502Y-66205309D01*
X102043062Y-66439277D01*
X102348379Y-66566055D01*
X102678971Y-66566344D01*
X102984509Y-66440098D01*
X103218477Y-66206538D01*
X103345255Y-65901221D01*
X103345544Y-65570629D01*
X103219298Y-65265091D01*
X102985738Y-65031123D01*
X102680421Y-64904345D01*
X102349829Y-64904056D01*
X102044291Y-65030302D01*
X101810323Y-65263862D01*
X101683545Y-65569179D01*
X101683256Y-65899771D01*
X84472000Y-65899771D01*
X84472000Y-62699371D01*
X97035056Y-62699371D01*
X97161302Y-63004909D01*
X97394862Y-63238877D01*
X97700179Y-63365655D01*
X98030771Y-63365944D01*
X98336309Y-63239698D01*
X98570277Y-63006138D01*
X98697055Y-62700821D01*
X98697344Y-62370229D01*
X98571098Y-62064691D01*
X98337538Y-61830723D01*
X98032221Y-61703945D01*
X97701629Y-61703656D01*
X97396091Y-61829902D01*
X97162123Y-62063462D01*
X97035345Y-62368779D01*
X97035056Y-62699371D01*
X84472000Y-62699371D01*
X84472000Y-60362571D01*
X97111256Y-60362571D01*
X97237502Y-60668109D01*
X97471062Y-60902077D01*
X97776379Y-61028855D01*
X98106971Y-61029144D01*
X98412509Y-60902898D01*
X98646477Y-60669338D01*
X98773255Y-60364021D01*
X98773544Y-60033429D01*
X98647298Y-59727891D01*
X98413738Y-59493923D01*
X98108421Y-59367145D01*
X97777829Y-59366856D01*
X97472291Y-59493102D01*
X97238323Y-59726662D01*
X97111545Y-60031979D01*
X97111256Y-60362571D01*
X84472000Y-60362571D01*
X84472000Y-58406771D01*
X95003056Y-58406771D01*
X95129302Y-58712309D01*
X95362862Y-58946277D01*
X95668179Y-59073055D01*
X95998771Y-59073344D01*
X96304309Y-58947098D01*
X96538277Y-58713538D01*
X96665055Y-58408221D01*
X96665344Y-58077629D01*
X96539098Y-57772091D01*
X96305538Y-57538123D01*
X96000221Y-57411345D01*
X95669629Y-57411056D01*
X95364091Y-57537302D01*
X95130123Y-57770862D01*
X95003345Y-58076179D01*
X95003056Y-58406771D01*
X84472000Y-58406771D01*
X84472000Y-57035171D01*
X97162056Y-57035171D01*
X97288302Y-57340709D01*
X97521862Y-57574677D01*
X97827179Y-57701455D01*
X98157771Y-57701744D01*
X98463309Y-57575498D01*
X98671258Y-57367911D01*
X101878836Y-57367911D01*
X102005082Y-57673449D01*
X102238642Y-57907417D01*
X102543959Y-58034195D01*
X102874551Y-58034484D01*
X103180089Y-57908238D01*
X103414057Y-57674678D01*
X103540835Y-57369361D01*
X103541124Y-57038769D01*
X103414878Y-56733231D01*
X103181318Y-56499263D01*
X102876001Y-56372485D01*
X102545409Y-56372196D01*
X102239871Y-56498442D01*
X102005903Y-56732002D01*
X101879125Y-57037319D01*
X101878836Y-57367911D01*
X98671258Y-57367911D01*
X98697277Y-57341938D01*
X98824055Y-57036621D01*
X98824344Y-56706029D01*
X98698098Y-56400491D01*
X98464538Y-56166523D01*
X98159221Y-56039745D01*
X97828629Y-56039456D01*
X97523091Y-56165702D01*
X97289123Y-56399262D01*
X97162345Y-56704579D01*
X97162056Y-57035171D01*
X84472000Y-57035171D01*
X84472000Y-51462000D01*
X118304646Y-51462000D01*
X118269523Y-51497062D01*
G36*
X130795102Y-102970109D02*
X130824788Y-102999847D01*
X130795923Y-103028662D01*
X130669145Y-103333979D01*
X130668856Y-103664571D01*
X130795102Y-103970109D01*
X131028662Y-104204077D01*
X131333979Y-104330855D01*
X131664571Y-104331144D01*
X131970109Y-104204898D01*
X131999847Y-104175212D01*
X132028662Y-104204077D01*
X132333979Y-104330855D01*
X132664571Y-104331144D01*
X132970109Y-104204898D01*
X133204077Y-103971338D01*
X133330855Y-103666021D01*
X133331144Y-103335429D01*
X133328275Y-103328487D01*
X133333979Y-103330855D01*
X133664571Y-103331144D01*
X133970109Y-103204898D01*
X133999847Y-103175212D01*
X134028662Y-103204077D01*
X134333979Y-103330855D01*
X134664571Y-103331144D01*
X134671513Y-103328275D01*
X134669145Y-103333979D01*
X134668856Y-103664571D01*
X134795102Y-103970109D01*
X135028662Y-104204077D01*
X135333979Y-104330855D01*
X135664571Y-104331144D01*
X135970109Y-104204898D01*
X135999847Y-104175212D01*
X136028662Y-104204077D01*
X136333979Y-104330855D01*
X136664571Y-104331144D01*
X136970109Y-104204898D01*
X137204077Y-103971338D01*
X137330855Y-103666021D01*
X137331144Y-103335429D01*
X137328275Y-103328487D01*
X137333979Y-103330855D01*
X137664571Y-103331144D01*
X137970109Y-103204898D01*
X138204077Y-102971338D01*
X138330532Y-102666800D01*
X138934614Y-102666800D01*
X138861844Y-105432059D01*
X138861800Y-105435400D01*
X138861800Y-108570880D01*
X130126021Y-114882859D01*
X130083406Y-114936390D01*
X130073400Y-114985800D01*
X130073400Y-116398163D01*
X129971338Y-116295923D01*
X129666021Y-116169145D01*
X129335429Y-116168856D01*
X129029891Y-116295102D01*
X129000153Y-116324788D01*
X128971338Y-116295923D01*
X128666021Y-116169145D01*
X128335429Y-116168856D01*
X128029891Y-116295102D01*
X128000153Y-116324788D01*
X127971338Y-116295923D01*
X127666021Y-116169145D01*
X127335429Y-116168856D01*
X127029891Y-116295102D01*
X126795923Y-116528662D01*
X126669145Y-116833979D01*
X126668856Y-117164571D01*
X126671725Y-117171513D01*
X126666021Y-117169145D01*
X126335429Y-117168856D01*
X126029891Y-117295102D01*
X125795923Y-117528662D01*
X125669145Y-117833979D01*
X125668856Y-118164571D01*
X125671725Y-118171513D01*
X125666021Y-118169145D01*
X125335429Y-118168856D01*
X125029891Y-118295102D01*
X124795923Y-118528662D01*
X124669145Y-118833979D01*
X124668856Y-119164571D01*
X124795102Y-119470109D01*
X125028662Y-119704077D01*
X125333979Y-119830855D01*
X125664571Y-119831144D01*
X125970109Y-119704898D01*
X125999847Y-119675212D01*
X126028662Y-119704077D01*
X126333979Y-119830855D01*
X126664571Y-119831144D01*
X126970109Y-119704898D01*
X126999847Y-119675212D01*
X127028662Y-119704077D01*
X127333979Y-119830855D01*
X127664571Y-119831144D01*
X127970109Y-119704898D01*
X127999847Y-119675212D01*
X128028662Y-119704077D01*
X128333979Y-119830855D01*
X128664571Y-119831144D01*
X128970109Y-119704898D01*
X128999847Y-119675212D01*
X129028662Y-119704077D01*
X129333979Y-119830855D01*
X129664571Y-119831144D01*
X129970109Y-119704898D01*
X130073400Y-119601787D01*
X130073400Y-128092200D01*
X107416600Y-128092200D01*
X107416600Y-121164571D01*
X115668856Y-121164571D01*
X115795102Y-121470109D01*
X115849788Y-121524891D01*
X115795923Y-121578662D01*
X115669145Y-121883979D01*
X115668856Y-122214571D01*
X115795102Y-122520109D01*
X116028662Y-122754077D01*
X116333979Y-122880855D01*
X116664571Y-122881144D01*
X116970109Y-122754898D01*
X116999847Y-122725212D01*
X117028662Y-122754077D01*
X117333979Y-122880855D01*
X117664571Y-122881144D01*
X117970109Y-122754898D01*
X118204077Y-122521338D01*
X118330855Y-122216021D01*
X118331144Y-121885429D01*
X118204898Y-121579891D01*
X118150212Y-121525109D01*
X118204077Y-121471338D01*
X118330855Y-121166021D01*
X118331144Y-120835429D01*
X118204898Y-120529891D01*
X117971338Y-120295923D01*
X117666021Y-120169145D01*
X117335429Y-120168856D01*
X117029891Y-120295102D01*
X117000153Y-120324788D01*
X116971338Y-120295923D01*
X116666021Y-120169145D01*
X116335429Y-120168856D01*
X116029891Y-120295102D01*
X115795923Y-120528662D01*
X115669145Y-120833979D01*
X115668856Y-121164571D01*
X107416600Y-121164571D01*
X107416600Y-116560600D01*
X119202200Y-116560600D01*
X119248359Y-116551915D01*
X119290753Y-116524635D01*
X119319194Y-116483010D01*
X119329200Y-116433600D01*
X119329200Y-107164571D01*
X123168856Y-107164571D01*
X123295102Y-107470109D01*
X123528662Y-107704077D01*
X123833979Y-107830855D01*
X124164571Y-107831144D01*
X124470109Y-107704898D01*
X124704077Y-107471338D01*
X124830855Y-107166021D01*
X124831144Y-106835429D01*
X124760547Y-106664571D01*
X128668856Y-106664571D01*
X128755862Y-106875141D01*
X128669145Y-107083979D01*
X128668856Y-107414571D01*
X128795102Y-107720109D01*
X129028662Y-107954077D01*
X129333979Y-108080855D01*
X129664571Y-108081144D01*
X129970109Y-107954898D01*
X130204077Y-107721338D01*
X130330855Y-107416021D01*
X130330931Y-107329589D01*
X130333979Y-107330855D01*
X130664571Y-107331144D01*
X130970109Y-107204898D01*
X130999847Y-107175212D01*
X131028662Y-107204077D01*
X131333979Y-107330855D01*
X131664571Y-107331144D01*
X131970109Y-107204898D01*
X132204077Y-106971338D01*
X132330855Y-106666021D01*
X132331144Y-106335429D01*
X132204898Y-106029891D01*
X131971338Y-105795923D01*
X131666021Y-105669145D01*
X131335429Y-105668856D01*
X131029891Y-105795102D01*
X131000153Y-105824788D01*
X130971338Y-105795923D01*
X130666021Y-105669145D01*
X130335429Y-105668856D01*
X130029891Y-105795102D01*
X130000153Y-105824788D01*
X129971338Y-105795923D01*
X129666021Y-105669145D01*
X129335429Y-105668856D01*
X129029891Y-105795102D01*
X128795923Y-106028662D01*
X128669145Y-106333979D01*
X128668856Y-106664571D01*
X124760547Y-106664571D01*
X124704898Y-106529891D01*
X124471338Y-106295923D01*
X124166021Y-106169145D01*
X123835429Y-106168856D01*
X123529891Y-106295102D01*
X123295923Y-106528662D01*
X123169145Y-106833979D01*
X123168856Y-107164571D01*
X119329200Y-107164571D01*
X119329200Y-102666800D01*
X130669777Y-102666800D01*
X130795102Y-102970109D01*
X130795102Y-102970109D01*
G37*
X130795102Y-102970109D02*
X130824788Y-102999847D01*
X130795923Y-103028662D01*
X130669145Y-103333979D01*
X130668856Y-103664571D01*
X130795102Y-103970109D01*
X131028662Y-104204077D01*
X131333979Y-104330855D01*
X131664571Y-104331144D01*
X131970109Y-104204898D01*
X131999847Y-104175212D01*
X132028662Y-104204077D01*
X132333979Y-104330855D01*
X132664571Y-104331144D01*
X132970109Y-104204898D01*
X133204077Y-103971338D01*
X133330855Y-103666021D01*
X133331144Y-103335429D01*
X133328275Y-103328487D01*
X133333979Y-103330855D01*
X133664571Y-103331144D01*
X133970109Y-103204898D01*
X133999847Y-103175212D01*
X134028662Y-103204077D01*
X134333979Y-103330855D01*
X134664571Y-103331144D01*
X134671513Y-103328275D01*
X134669145Y-103333979D01*
X134668856Y-103664571D01*
X134795102Y-103970109D01*
X135028662Y-104204077D01*
X135333979Y-104330855D01*
X135664571Y-104331144D01*
X135970109Y-104204898D01*
X135999847Y-104175212D01*
X136028662Y-104204077D01*
X136333979Y-104330855D01*
X136664571Y-104331144D01*
X136970109Y-104204898D01*
X137204077Y-103971338D01*
X137330855Y-103666021D01*
X137331144Y-103335429D01*
X137328275Y-103328487D01*
X137333979Y-103330855D01*
X137664571Y-103331144D01*
X137970109Y-103204898D01*
X138204077Y-102971338D01*
X138330532Y-102666800D01*
X138934614Y-102666800D01*
X138861844Y-105432059D01*
X138861800Y-105435400D01*
X138861800Y-108570880D01*
X130126021Y-114882859D01*
X130083406Y-114936390D01*
X130073400Y-114985800D01*
X130073400Y-116398163D01*
X129971338Y-116295923D01*
X129666021Y-116169145D01*
X129335429Y-116168856D01*
X129029891Y-116295102D01*
X129000153Y-116324788D01*
X128971338Y-116295923D01*
X128666021Y-116169145D01*
X128335429Y-116168856D01*
X128029891Y-116295102D01*
X128000153Y-116324788D01*
X127971338Y-116295923D01*
X127666021Y-116169145D01*
X127335429Y-116168856D01*
X127029891Y-116295102D01*
X126795923Y-116528662D01*
X126669145Y-116833979D01*
X126668856Y-117164571D01*
X126671725Y-117171513D01*
X126666021Y-117169145D01*
X126335429Y-117168856D01*
X126029891Y-117295102D01*
X125795923Y-117528662D01*
X125669145Y-117833979D01*
X125668856Y-118164571D01*
X125671725Y-118171513D01*
X125666021Y-118169145D01*
X125335429Y-118168856D01*
X125029891Y-118295102D01*
X124795923Y-118528662D01*
X124669145Y-118833979D01*
X124668856Y-119164571D01*
X124795102Y-119470109D01*
X125028662Y-119704077D01*
X125333979Y-119830855D01*
X125664571Y-119831144D01*
X125970109Y-119704898D01*
X125999847Y-119675212D01*
X126028662Y-119704077D01*
X126333979Y-119830855D01*
X126664571Y-119831144D01*
X126970109Y-119704898D01*
X126999847Y-119675212D01*
X127028662Y-119704077D01*
X127333979Y-119830855D01*
X127664571Y-119831144D01*
X127970109Y-119704898D01*
X127999847Y-119675212D01*
X128028662Y-119704077D01*
X128333979Y-119830855D01*
X128664571Y-119831144D01*
X128970109Y-119704898D01*
X128999847Y-119675212D01*
X129028662Y-119704077D01*
X129333979Y-119830855D01*
X129664571Y-119831144D01*
X129970109Y-119704898D01*
X130073400Y-119601787D01*
X130073400Y-128092200D01*
X107416600Y-128092200D01*
X107416600Y-121164571D01*
X115668856Y-121164571D01*
X115795102Y-121470109D01*
X115849788Y-121524891D01*
X115795923Y-121578662D01*
X115669145Y-121883979D01*
X115668856Y-122214571D01*
X115795102Y-122520109D01*
X116028662Y-122754077D01*
X116333979Y-122880855D01*
X116664571Y-122881144D01*
X116970109Y-122754898D01*
X116999847Y-122725212D01*
X117028662Y-122754077D01*
X117333979Y-122880855D01*
X117664571Y-122881144D01*
X117970109Y-122754898D01*
X118204077Y-122521338D01*
X118330855Y-122216021D01*
X118331144Y-121885429D01*
X118204898Y-121579891D01*
X118150212Y-121525109D01*
X118204077Y-121471338D01*
X118330855Y-121166021D01*
X118331144Y-120835429D01*
X118204898Y-120529891D01*
X117971338Y-120295923D01*
X117666021Y-120169145D01*
X117335429Y-120168856D01*
X117029891Y-120295102D01*
X117000153Y-120324788D01*
X116971338Y-120295923D01*
X116666021Y-120169145D01*
X116335429Y-120168856D01*
X116029891Y-120295102D01*
X115795923Y-120528662D01*
X115669145Y-120833979D01*
X115668856Y-121164571D01*
X107416600Y-121164571D01*
X107416600Y-116560600D01*
X119202200Y-116560600D01*
X119248359Y-116551915D01*
X119290753Y-116524635D01*
X119319194Y-116483010D01*
X119329200Y-116433600D01*
X119329200Y-107164571D01*
X123168856Y-107164571D01*
X123295102Y-107470109D01*
X123528662Y-107704077D01*
X123833979Y-107830855D01*
X124164571Y-107831144D01*
X124470109Y-107704898D01*
X124704077Y-107471338D01*
X124830855Y-107166021D01*
X124831144Y-106835429D01*
X124760547Y-106664571D01*
X128668856Y-106664571D01*
X128755862Y-106875141D01*
X128669145Y-107083979D01*
X128668856Y-107414571D01*
X128795102Y-107720109D01*
X129028662Y-107954077D01*
X129333979Y-108080855D01*
X129664571Y-108081144D01*
X129970109Y-107954898D01*
X130204077Y-107721338D01*
X130330855Y-107416021D01*
X130330931Y-107329589D01*
X130333979Y-107330855D01*
X130664571Y-107331144D01*
X130970109Y-107204898D01*
X130999847Y-107175212D01*
X131028662Y-107204077D01*
X131333979Y-107330855D01*
X131664571Y-107331144D01*
X131970109Y-107204898D01*
X132204077Y-106971338D01*
X132330855Y-106666021D01*
X132331144Y-106335429D01*
X132204898Y-106029891D01*
X131971338Y-105795923D01*
X131666021Y-105669145D01*
X131335429Y-105668856D01*
X131029891Y-105795102D01*
X131000153Y-105824788D01*
X130971338Y-105795923D01*
X130666021Y-105669145D01*
X130335429Y-105668856D01*
X130029891Y-105795102D01*
X130000153Y-105824788D01*
X129971338Y-105795923D01*
X129666021Y-105669145D01*
X129335429Y-105668856D01*
X129029891Y-105795102D01*
X128795923Y-106028662D01*
X128669145Y-106333979D01*
X128668856Y-106664571D01*
X124760547Y-106664571D01*
X124704898Y-106529891D01*
X124471338Y-106295923D01*
X124166021Y-106169145D01*
X123835429Y-106168856D01*
X123529891Y-106295102D01*
X123295923Y-106528662D01*
X123169145Y-106833979D01*
X123168856Y-107164571D01*
X119329200Y-107164571D01*
X119329200Y-102666800D01*
X130669777Y-102666800D01*
X130795102Y-102970109D01*
G36*
X100585805Y-81737200D02*
X100890920Y-82042315D01*
X100621368Y-81930387D01*
X100419606Y-81930211D01*
X100406200Y-81916805D01*
X100392818Y-81930187D01*
X100391296Y-81930186D01*
X100213188Y-81752078D01*
X100213189Y-81750606D01*
X100226595Y-81737200D01*
X100213213Y-81723818D01*
X100213214Y-81722296D01*
X100391322Y-81544188D01*
X100392794Y-81544189D01*
X100406200Y-81557595D01*
X100419582Y-81544213D01*
X100619489Y-81544387D01*
X100890666Y-81432339D01*
X100585805Y-81737200D01*
X100585805Y-81737200D01*
G37*
X100585805Y-81737200D02*
X100890920Y-82042315D01*
X100621368Y-81930387D01*
X100419606Y-81930211D01*
X100406200Y-81916805D01*
X100392818Y-81930187D01*
X100391296Y-81930186D01*
X100213188Y-81752078D01*
X100213189Y-81750606D01*
X100226595Y-81737200D01*
X100213213Y-81723818D01*
X100213214Y-81722296D01*
X100391322Y-81544188D01*
X100392794Y-81544189D01*
X100406200Y-81557595D01*
X100419582Y-81544213D01*
X100619489Y-81544387D01*
X100890666Y-81432339D01*
X100585805Y-81737200D01*
G36*
X147050103Y-99198820D02*
X146969092Y-99393914D01*
X146968908Y-99605159D01*
X147049578Y-99800394D01*
X147198820Y-99949897D01*
X147319536Y-100000023D01*
X147199606Y-100049578D01*
X147050103Y-100198820D01*
X146969092Y-100393914D01*
X146968908Y-100605159D01*
X147049578Y-100800394D01*
X147198820Y-100949897D01*
X147319536Y-101000023D01*
X147199606Y-101049578D01*
X147050103Y-101198820D01*
X146969092Y-101393914D01*
X146968908Y-101605159D01*
X147049578Y-101800394D01*
X147198820Y-101949897D01*
X147319536Y-102000023D01*
X147199606Y-102049578D01*
X147050103Y-102198820D01*
X146969092Y-102393914D01*
X146968908Y-102605159D01*
X147049578Y-102800394D01*
X147198820Y-102949897D01*
X147393914Y-103030908D01*
X147605159Y-103031092D01*
X147800394Y-102950422D01*
X147949897Y-102801180D01*
X148030908Y-102606086D01*
X148031092Y-102394841D01*
X147950422Y-102199606D01*
X147801180Y-102050103D01*
X147680464Y-101999977D01*
X147800394Y-101950422D01*
X147949897Y-101801180D01*
X148030908Y-101606086D01*
X148031092Y-101394841D01*
X147950422Y-101199606D01*
X147801180Y-101050103D01*
X147680464Y-100999977D01*
X147800394Y-100950422D01*
X147949897Y-100801180D01*
X148030908Y-100606086D01*
X148031092Y-100394841D01*
X147950422Y-100199606D01*
X147801180Y-100050103D01*
X147680464Y-99999977D01*
X147800394Y-99950422D01*
X147949897Y-99801180D01*
X148030908Y-99606086D01*
X148031092Y-99394841D01*
X147950422Y-99199606D01*
X147877943Y-99127000D01*
X148373000Y-99127000D01*
X148373000Y-123000000D01*
X148383006Y-123049410D01*
X148411447Y-123091035D01*
X148434659Y-123108902D01*
X150873000Y-124571907D01*
X150873000Y-128873000D01*
X131127000Y-128873000D01*
X131127000Y-118105159D01*
X135468148Y-118105159D01*
X135548818Y-118300394D01*
X135698060Y-118449897D01*
X135893154Y-118530908D01*
X136104399Y-118531092D01*
X136299634Y-118450422D01*
X136449137Y-118301180D01*
X136530148Y-118106086D01*
X136530332Y-117894841D01*
X136449662Y-117699606D01*
X136300420Y-117550103D01*
X136105326Y-117469092D01*
X135894081Y-117468908D01*
X135698846Y-117549578D01*
X135549343Y-117698820D01*
X135468332Y-117893914D01*
X135468148Y-118105159D01*
X131127000Y-118105159D01*
X131127000Y-115607119D01*
X133185670Y-114105159D01*
X138968908Y-114105159D01*
X139049578Y-114300394D01*
X139198820Y-114449897D01*
X139319536Y-114500023D01*
X139199606Y-114549578D01*
X139050103Y-114698820D01*
X138969092Y-114893914D01*
X138968908Y-115105159D01*
X139049578Y-115300394D01*
X139198820Y-115449897D01*
X139319536Y-115500023D01*
X139199606Y-115549578D01*
X139050103Y-115698820D01*
X138969092Y-115893914D01*
X138968908Y-116105159D01*
X139049578Y-116300394D01*
X139198820Y-116449897D01*
X139393914Y-116530908D01*
X139605159Y-116531092D01*
X139723000Y-116482401D01*
X139723000Y-119000000D01*
X139782146Y-119297345D01*
X139950578Y-119549422D01*
X140099849Y-119649161D01*
X140050103Y-119698820D01*
X139969092Y-119893914D01*
X139968908Y-120105159D01*
X140049578Y-120300394D01*
X140198820Y-120449897D01*
X140319536Y-120500023D01*
X140199606Y-120549578D01*
X140050103Y-120698820D01*
X139969092Y-120893914D01*
X139968908Y-121105159D01*
X140049578Y-121300394D01*
X140198820Y-121449897D01*
X140393914Y-121530908D01*
X140605159Y-121531092D01*
X140800394Y-121450422D01*
X140949897Y-121301180D01*
X141000023Y-121180464D01*
X141049578Y-121300394D01*
X141198820Y-121449897D01*
X141393914Y-121530908D01*
X141605159Y-121531092D01*
X141800394Y-121450422D01*
X141949897Y-121301180D01*
X142000023Y-121180464D01*
X142049578Y-121300394D01*
X142198820Y-121449897D01*
X142393914Y-121530908D01*
X142605159Y-121531092D01*
X142800394Y-121450422D01*
X142949897Y-121301180D01*
X143030908Y-121106086D01*
X143031092Y-120894841D01*
X142950422Y-120699606D01*
X142801180Y-120550103D01*
X142606086Y-120469092D01*
X142394841Y-120468908D01*
X142199606Y-120549578D01*
X142050103Y-120698820D01*
X141999977Y-120819536D01*
X141950422Y-120699606D01*
X141801180Y-120550103D01*
X141606086Y-120469092D01*
X141394841Y-120468908D01*
X141199606Y-120549578D01*
X141050103Y-120698820D01*
X140999977Y-120819536D01*
X140950422Y-120699606D01*
X140801180Y-120550103D01*
X140680464Y-120499977D01*
X140800394Y-120450422D01*
X140949897Y-120301180D01*
X141030908Y-120106086D01*
X141031092Y-119894841D01*
X140950422Y-119699606D01*
X140900100Y-119649196D01*
X141049422Y-119549422D01*
X141217854Y-119297345D01*
X141277000Y-119000000D01*
X141277000Y-118105159D01*
X144968908Y-118105159D01*
X145049578Y-118300394D01*
X145198820Y-118449897D01*
X145393914Y-118530908D01*
X145605159Y-118531092D01*
X145800394Y-118450422D01*
X145949897Y-118301180D01*
X146030908Y-118106086D01*
X146031092Y-117894841D01*
X145950422Y-117699606D01*
X145801180Y-117550103D01*
X145606086Y-117469092D01*
X145394841Y-117468908D01*
X145199606Y-117549578D01*
X145050103Y-117698820D01*
X144969092Y-117893914D01*
X144968908Y-118105159D01*
X141277000Y-118105159D01*
X141277000Y-116000000D01*
X141217854Y-115702655D01*
X141049422Y-115450578D01*
X140900151Y-115350839D01*
X140949897Y-115301180D01*
X141000023Y-115180464D01*
X141049578Y-115300394D01*
X141198820Y-115449897D01*
X141393914Y-115530908D01*
X141605159Y-115531092D01*
X141800394Y-115450422D01*
X141949897Y-115301180D01*
X142000023Y-115180464D01*
X142049578Y-115300394D01*
X142198820Y-115449897D01*
X142393914Y-115530908D01*
X142605159Y-115531092D01*
X142800394Y-115450422D01*
X142949897Y-115301180D01*
X143030908Y-115106086D01*
X143031092Y-114894841D01*
X142950422Y-114699606D01*
X142801180Y-114550103D01*
X142680464Y-114499977D01*
X142800394Y-114450422D01*
X142949897Y-114301180D01*
X143030908Y-114106086D01*
X143031092Y-113894841D01*
X142950422Y-113699606D01*
X142801180Y-113550103D01*
X142606086Y-113469092D01*
X142394841Y-113468908D01*
X142199606Y-113549578D01*
X142050103Y-113698820D01*
X141999977Y-113819536D01*
X141950422Y-113699606D01*
X141801180Y-113550103D01*
X141606086Y-113469092D01*
X141394841Y-113468908D01*
X141199606Y-113549578D01*
X141050103Y-113698820D01*
X140999977Y-113819536D01*
X140950422Y-113699606D01*
X140801180Y-113550103D01*
X140606086Y-113469092D01*
X140394841Y-113468908D01*
X140199606Y-113549578D01*
X140050103Y-113698820D01*
X139999977Y-113819536D01*
X139950422Y-113699606D01*
X139801180Y-113550103D01*
X139606086Y-113469092D01*
X139394841Y-113468908D01*
X139199606Y-113549578D01*
X139050103Y-113698820D01*
X138969092Y-113893914D01*
X138968908Y-114105159D01*
X133185670Y-114105159D01*
X136862072Y-111422939D01*
X140074357Y-109102956D01*
X140108555Y-109065916D01*
X140127000Y-109000000D01*
X140127000Y-99127000D01*
X147122049Y-99127000D01*
X147050103Y-99198820D01*
X147050103Y-99198820D01*
G37*
X147050103Y-99198820D02*
X146969092Y-99393914D01*
X146968908Y-99605159D01*
X147049578Y-99800394D01*
X147198820Y-99949897D01*
X147319536Y-100000023D01*
X147199606Y-100049578D01*
X147050103Y-100198820D01*
X146969092Y-100393914D01*
X146968908Y-100605159D01*
X147049578Y-100800394D01*
X147198820Y-100949897D01*
X147319536Y-101000023D01*
X147199606Y-101049578D01*
X147050103Y-101198820D01*
X146969092Y-101393914D01*
X146968908Y-101605159D01*
X147049578Y-101800394D01*
X147198820Y-101949897D01*
X147319536Y-102000023D01*
X147199606Y-102049578D01*
X147050103Y-102198820D01*
X146969092Y-102393914D01*
X146968908Y-102605159D01*
X147049578Y-102800394D01*
X147198820Y-102949897D01*
X147393914Y-103030908D01*
X147605159Y-103031092D01*
X147800394Y-102950422D01*
X147949897Y-102801180D01*
X148030908Y-102606086D01*
X148031092Y-102394841D01*
X147950422Y-102199606D01*
X147801180Y-102050103D01*
X147680464Y-101999977D01*
X147800394Y-101950422D01*
X147949897Y-101801180D01*
X148030908Y-101606086D01*
X148031092Y-101394841D01*
X147950422Y-101199606D01*
X147801180Y-101050103D01*
X147680464Y-100999977D01*
X147800394Y-100950422D01*
X147949897Y-100801180D01*
X148030908Y-100606086D01*
X148031092Y-100394841D01*
X147950422Y-100199606D01*
X147801180Y-100050103D01*
X147680464Y-99999977D01*
X147800394Y-99950422D01*
X147949897Y-99801180D01*
X148030908Y-99606086D01*
X148031092Y-99394841D01*
X147950422Y-99199606D01*
X147877943Y-99127000D01*
X148373000Y-99127000D01*
X148373000Y-123000000D01*
X148383006Y-123049410D01*
X148411447Y-123091035D01*
X148434659Y-123108902D01*
X150873000Y-124571907D01*
X150873000Y-128873000D01*
X131127000Y-128873000D01*
X131127000Y-118105159D01*
X135468148Y-118105159D01*
X135548818Y-118300394D01*
X135698060Y-118449897D01*
X135893154Y-118530908D01*
X136104399Y-118531092D01*
X136299634Y-118450422D01*
X136449137Y-118301180D01*
X136530148Y-118106086D01*
X136530332Y-117894841D01*
X136449662Y-117699606D01*
X136300420Y-117550103D01*
X136105326Y-117469092D01*
X135894081Y-117468908D01*
X135698846Y-117549578D01*
X135549343Y-117698820D01*
X135468332Y-117893914D01*
X135468148Y-118105159D01*
X131127000Y-118105159D01*
X131127000Y-115607119D01*
X133185670Y-114105159D01*
X138968908Y-114105159D01*
X139049578Y-114300394D01*
X139198820Y-114449897D01*
X139319536Y-114500023D01*
X139199606Y-114549578D01*
X139050103Y-114698820D01*
X138969092Y-114893914D01*
X138968908Y-115105159D01*
X139049578Y-115300394D01*
X139198820Y-115449897D01*
X139319536Y-115500023D01*
X139199606Y-115549578D01*
X139050103Y-115698820D01*
X138969092Y-115893914D01*
X138968908Y-116105159D01*
X139049578Y-116300394D01*
X139198820Y-116449897D01*
X139393914Y-116530908D01*
X139605159Y-116531092D01*
X139723000Y-116482401D01*
X139723000Y-119000000D01*
X139782146Y-119297345D01*
X139950578Y-119549422D01*
X140099849Y-119649161D01*
X140050103Y-119698820D01*
X139969092Y-119893914D01*
X139968908Y-120105159D01*
X140049578Y-120300394D01*
X140198820Y-120449897D01*
X140319536Y-120500023D01*
X140199606Y-120549578D01*
X140050103Y-120698820D01*
X139969092Y-120893914D01*
X139968908Y-121105159D01*
X140049578Y-121300394D01*
X140198820Y-121449897D01*
X140393914Y-121530908D01*
X140605159Y-121531092D01*
X140800394Y-121450422D01*
X140949897Y-121301180D01*
X141000023Y-121180464D01*
X141049578Y-121300394D01*
X141198820Y-121449897D01*
X141393914Y-121530908D01*
X141605159Y-121531092D01*
X141800394Y-121450422D01*
X141949897Y-121301180D01*
X142000023Y-121180464D01*
X142049578Y-121300394D01*
X142198820Y-121449897D01*
X142393914Y-121530908D01*
X142605159Y-121531092D01*
X142800394Y-121450422D01*
X142949897Y-121301180D01*
X143030908Y-121106086D01*
X143031092Y-120894841D01*
X142950422Y-120699606D01*
X142801180Y-120550103D01*
X142606086Y-120469092D01*
X142394841Y-120468908D01*
X142199606Y-120549578D01*
X142050103Y-120698820D01*
X141999977Y-120819536D01*
X141950422Y-120699606D01*
X141801180Y-120550103D01*
X141606086Y-120469092D01*
X141394841Y-120468908D01*
X141199606Y-120549578D01*
X141050103Y-120698820D01*
X140999977Y-120819536D01*
X140950422Y-120699606D01*
X140801180Y-120550103D01*
X140680464Y-120499977D01*
X140800394Y-120450422D01*
X140949897Y-120301180D01*
X141030908Y-120106086D01*
X141031092Y-119894841D01*
X140950422Y-119699606D01*
X140900100Y-119649196D01*
X141049422Y-119549422D01*
X141217854Y-119297345D01*
X141277000Y-119000000D01*
X141277000Y-118105159D01*
X144968908Y-118105159D01*
X145049578Y-118300394D01*
X145198820Y-118449897D01*
X145393914Y-118530908D01*
X145605159Y-118531092D01*
X145800394Y-118450422D01*
X145949897Y-118301180D01*
X146030908Y-118106086D01*
X146031092Y-117894841D01*
X145950422Y-117699606D01*
X145801180Y-117550103D01*
X145606086Y-117469092D01*
X145394841Y-117468908D01*
X145199606Y-117549578D01*
X145050103Y-117698820D01*
X144969092Y-117893914D01*
X144968908Y-118105159D01*
X141277000Y-118105159D01*
X141277000Y-116000000D01*
X141217854Y-115702655D01*
X141049422Y-115450578D01*
X140900151Y-115350839D01*
X140949897Y-115301180D01*
X141000023Y-115180464D01*
X141049578Y-115300394D01*
X141198820Y-115449897D01*
X141393914Y-115530908D01*
X141605159Y-115531092D01*
X141800394Y-115450422D01*
X141949897Y-115301180D01*
X142000023Y-115180464D01*
X142049578Y-115300394D01*
X142198820Y-115449897D01*
X142393914Y-115530908D01*
X142605159Y-115531092D01*
X142800394Y-115450422D01*
X142949897Y-115301180D01*
X143030908Y-115106086D01*
X143031092Y-114894841D01*
X142950422Y-114699606D01*
X142801180Y-114550103D01*
X142680464Y-114499977D01*
X142800394Y-114450422D01*
X142949897Y-114301180D01*
X143030908Y-114106086D01*
X143031092Y-113894841D01*
X142950422Y-113699606D01*
X142801180Y-113550103D01*
X142606086Y-113469092D01*
X142394841Y-113468908D01*
X142199606Y-113549578D01*
X142050103Y-113698820D01*
X141999977Y-113819536D01*
X141950422Y-113699606D01*
X141801180Y-113550103D01*
X141606086Y-113469092D01*
X141394841Y-113468908D01*
X141199606Y-113549578D01*
X141050103Y-113698820D01*
X140999977Y-113819536D01*
X140950422Y-113699606D01*
X140801180Y-113550103D01*
X140606086Y-113469092D01*
X140394841Y-113468908D01*
X140199606Y-113549578D01*
X140050103Y-113698820D01*
X139999977Y-113819536D01*
X139950422Y-113699606D01*
X139801180Y-113550103D01*
X139606086Y-113469092D01*
X139394841Y-113468908D01*
X139199606Y-113549578D01*
X139050103Y-113698820D01*
X138969092Y-113893914D01*
X138968908Y-114105159D01*
X133185670Y-114105159D01*
X136862072Y-111422939D01*
X140074357Y-109102956D01*
X140108555Y-109065916D01*
X140127000Y-109000000D01*
X140127000Y-99127000D01*
X147122049Y-99127000D01*
X147050103Y-99198820D01*
M02*
