G04 #@! TF.FileFunction,Copper,L3,Inr,Plane*
%FSLAX46Y46*%
G04 Gerber Fmt 4.6, Leading zero omitted, Abs format (unit mm)*
G04 Created by KiCad (PCBNEW 4.0.2-stable) date 4/8/2016 7:07:07 PM*
%MOMM*%
G01*
G04 APERTURE LIST*
%ADD10C,0.100000*%
%ADD11C,2.300000*%
%ADD12O,0.950000X1.250000*%
%ADD13O,1.550000X1.000000*%
%ADD14C,1.000000*%
%ADD15O,1.506220X3.014980*%
%ADD16R,1.200000X1.700000*%
%ADD17O,1.200000X1.700000*%
%ADD18C,1.700000*%
%ADD19C,3.500000*%
%ADD20C,6.000000*%
%ADD21C,0.508000*%
%ADD22C,0.600000*%
%ADD23C,0.250000*%
%ADD24C,1.000000*%
%ADD25C,2.000000*%
%ADD26C,1.250000*%
%ADD27C,0.254000*%
G04 APERTURE END LIST*
D10*
D11*
X157423600Y-89875200D03*
X151423600Y-87325200D03*
X163423600Y-87325200D03*
X151423600Y-75125200D03*
D12*
X88125740Y-70371700D03*
X88125740Y-75371700D03*
D13*
X85425740Y-69371700D03*
X85425740Y-76371700D03*
D14*
X99136200Y-84277200D03*
X100406200Y-84277200D03*
X99136200Y-83007200D03*
X100406200Y-83007200D03*
X99136200Y-81737200D03*
X100406200Y-81737200D03*
X99136200Y-80467200D03*
X100406200Y-80467200D03*
X99136200Y-79197200D03*
X100406200Y-79197200D03*
D15*
X122224800Y-54279800D03*
X124764800Y-54279800D03*
X127939800Y-54279800D03*
X130479800Y-54279800D03*
X133553200Y-54254400D03*
X136093200Y-54254400D03*
D11*
X157409400Y-103647400D03*
X163409400Y-106197400D03*
X151409400Y-106197400D03*
X163409400Y-118397400D03*
D16*
X140246100Y-53454300D03*
D17*
X142246100Y-53454300D03*
X144246100Y-53454300D03*
X146246100Y-53454300D03*
D16*
X151295100Y-53454300D03*
D17*
X153295100Y-53454300D03*
X155295100Y-53454300D03*
X157295100Y-53454300D03*
D16*
X162420300Y-53454300D03*
D17*
X164420300Y-53454300D03*
X166420300Y-53454300D03*
X168420300Y-53454300D03*
D16*
X173545500Y-53454300D03*
D17*
X175545500Y-53454300D03*
X177545500Y-53454300D03*
X179545500Y-53454300D03*
D18*
X96175000Y-115826600D03*
X96175000Y-119326600D03*
D19*
X88265000Y-117576600D03*
D18*
X172339000Y-76448800D03*
X172339000Y-72948800D03*
D19*
X180249000Y-74698800D03*
D18*
X172339000Y-89481600D03*
X172339000Y-85981600D03*
D19*
X180249000Y-87731600D03*
D18*
X172201400Y-102664200D03*
X172201400Y-99164200D03*
D19*
X180111400Y-100914200D03*
D18*
X172252200Y-128165800D03*
X172252200Y-124665800D03*
D19*
X180162200Y-126415800D03*
D18*
X172277600Y-119606000D03*
X172277600Y-116106000D03*
D19*
X180187600Y-117856000D03*
D18*
X172226800Y-111097000D03*
X172226800Y-107597000D03*
D19*
X180136800Y-109347000D03*
D20*
X90000000Y-126000000D03*
X90000000Y-85000000D03*
X179500000Y-63500000D03*
D21*
X114452400Y-65913000D03*
X132500000Y-103500000D03*
X131500000Y-103500000D03*
X131500000Y-102500000D03*
X132500000Y-102500000D03*
X133500000Y-102500000D03*
X134500000Y-102500000D03*
X135500000Y-102500000D03*
X135500000Y-103500000D03*
X136500000Y-103500000D03*
X136500000Y-102500000D03*
X137500000Y-102500000D03*
X143141700Y-60274200D03*
X116837460Y-89801700D03*
X102709980Y-57203340D03*
X166090600Y-63373000D03*
X101803200Y-73202800D03*
X105613200Y-71323200D03*
X118973600Y-51968400D03*
X91973400Y-66840100D03*
X101447600Y-70434200D03*
X127330200Y-65506600D03*
X128082040Y-84627720D03*
X133817360Y-81046320D03*
X121351040Y-76408280D03*
X136748520Y-69997320D03*
X135773160Y-76489560D03*
X111683800Y-80365600D03*
X120319800Y-69748400D03*
X155448000Y-56845200D03*
X153847800Y-57073800D03*
X145389600Y-123367800D03*
X148615400Y-123367800D03*
X145415000Y-127025400D03*
X172161200Y-69799200D03*
X115087400Y-61747400D03*
X99472404Y-63667031D03*
X84734400Y-64617600D03*
X84709000Y-54051200D03*
X132500000Y-123500000D03*
X117000000Y-118000000D03*
X120000000Y-125000000D03*
X120000000Y-124000000D03*
X117000000Y-125000000D03*
X117000000Y-123950000D03*
X112000000Y-126500000D03*
X110500000Y-120000000D03*
X127000000Y-105500000D03*
X125000000Y-113500000D03*
X128000000Y-111000000D03*
X121500000Y-109500000D03*
X132000000Y-110500000D03*
X137500000Y-108000000D03*
X149000000Y-128500000D03*
X113055400Y-53670200D03*
X104759760Y-81175860D03*
X116189760Y-88689180D03*
X101224080Y-57188100D03*
X164998400Y-60756800D03*
X172300900Y-82715100D03*
X172212000Y-95796100D03*
X152933400Y-95605600D03*
X162026600Y-97663000D03*
X99161600Y-88138000D03*
X99212400Y-74320400D03*
X137617200Y-58013600D03*
X105613200Y-70408800D03*
X101485700Y-66281300D03*
X106735880Y-51673760D03*
X128828800Y-63017400D03*
X109728000Y-61747400D03*
X127238760Y-85181440D03*
X123037600Y-68326000D03*
X132669280Y-78719680D03*
X131404360Y-73070720D03*
X137297160Y-76489560D03*
X130616960Y-84211160D03*
X113487200Y-81864200D03*
X117094000Y-68910200D03*
D22*
X109372400Y-80391000D03*
X109728000Y-82778600D03*
D21*
X108712000Y-76657200D03*
X90220800Y-74168000D03*
X107797600Y-87274400D03*
X106984800Y-86817200D03*
X147294600Y-91668600D03*
X163601400Y-93573600D03*
X170383200Y-67259200D03*
X110515400Y-63906400D03*
X170662600Y-80187800D03*
X111057820Y-64414400D03*
X170510200Y-93319600D03*
X111557820Y-65024000D03*
X102285800Y-71666100D03*
X99910900Y-71691500D03*
X99796600Y-67983100D03*
X105283000Y-68173600D03*
X99796600Y-68999100D03*
X105321100Y-69126100D03*
X128480777Y-71852220D03*
X126253240Y-73466960D03*
X131470400Y-81000600D03*
X129926080Y-77729080D03*
X106730800Y-72034400D03*
X106730800Y-72694800D03*
X106730800Y-73355200D03*
X107848400Y-80670400D03*
X109524800Y-76631800D03*
X142163800Y-70561200D03*
X111531400Y-76377800D03*
X142138400Y-71247000D03*
X112217200Y-76479400D03*
X117754400Y-72796400D03*
X130048000Y-68326000D03*
X117221000Y-72085200D03*
X132054600Y-67056000D03*
X114198400Y-71831200D03*
X130048000Y-69316600D03*
X97942400Y-60198000D03*
X113690400Y-59690000D03*
X97866200Y-62534800D03*
X109829600Y-60782200D03*
X116179600Y-61239400D03*
X95834200Y-58242200D03*
X109728000Y-62687200D03*
X135999240Y-118000000D03*
X145500000Y-118000000D03*
X147500000Y-102500000D03*
X147500000Y-101500000D03*
X147500000Y-100500000D03*
X147500000Y-99500000D03*
X146500000Y-98500000D03*
X145500000Y-98500000D03*
X144500000Y-98500000D03*
X143500000Y-98500000D03*
X142500000Y-98500000D03*
X141500000Y-98500000D03*
X140500000Y-98500000D03*
X139500000Y-98500000D03*
X139500000Y-99500000D03*
X139500000Y-100500000D03*
X129500000Y-117000000D03*
X128500000Y-117000000D03*
X127500000Y-117000000D03*
X125500000Y-119000000D03*
X126500000Y-118000000D03*
X126500000Y-119000000D03*
X127500000Y-119000000D03*
X127500000Y-118000000D03*
X128500000Y-118000000D03*
X128500000Y-119000000D03*
X129500000Y-119000000D03*
X129500000Y-118000000D03*
X97993200Y-56870600D03*
X115036600Y-62687200D03*
X127406400Y-67838320D03*
X108597700Y-67784980D03*
X127406400Y-66888360D03*
X107899200Y-67772280D03*
X113461800Y-76581000D03*
X114782600Y-77901800D03*
X141500000Y-114000000D03*
X142500000Y-114000000D03*
X117500000Y-122050000D03*
X117500000Y-121000000D03*
X116500000Y-121000000D03*
X116500000Y-122050000D03*
X124000000Y-107000000D03*
X131500000Y-106500000D03*
X129500000Y-107250000D03*
X129500000Y-106500000D03*
X130500000Y-106500000D03*
X142500000Y-121000000D03*
X141500000Y-121000000D03*
X140500000Y-121000000D03*
X140500000Y-120000000D03*
X140500000Y-119000000D03*
X140500000Y-116000000D03*
X139500000Y-116000000D03*
X139500000Y-115000000D03*
X140500000Y-115000000D03*
X140500000Y-114000000D03*
X139500000Y-114000000D03*
X141500000Y-115000000D03*
X142500000Y-115000000D03*
X110972600Y-69799200D03*
X102514400Y-65735200D03*
X113842800Y-70891400D03*
X113792000Y-68554600D03*
X113741200Y-75209400D03*
X106451400Y-75234800D03*
D23*
X162534600Y-78994000D02*
X162560000Y-78968600D01*
D24*
X135500000Y-103500000D02*
X135500000Y-102500000D01*
D23*
X102725220Y-57188100D02*
X102732840Y-57188100D01*
X102709980Y-57203340D02*
X102725220Y-57188100D01*
D25*
X172252200Y-128165800D02*
X166672200Y-128165800D01*
D23*
X163423600Y-121003145D02*
X163409400Y-120988945D01*
D25*
X166672200Y-128165800D02*
X163423600Y-124917200D01*
X163423600Y-124917200D02*
X163423600Y-121003145D01*
X163409400Y-120988945D02*
X163409400Y-119362600D01*
D24*
X147500000Y-99500000D02*
X147500000Y-100500000D01*
X147500000Y-100500000D02*
X147500000Y-101500000D01*
D23*
X157409400Y-104612600D02*
X157409400Y-104552000D01*
D24*
X157409400Y-104552000D02*
X153357400Y-100500000D01*
X153357400Y-100500000D02*
X147500000Y-100500000D01*
D26*
X129500000Y-118000000D02*
X129500000Y-117000000D01*
D24*
X172339000Y-85981600D02*
X171136919Y-85981600D01*
X163474400Y-110921800D02*
X136578200Y-110921800D01*
X171136919Y-85981600D02*
X167741600Y-89376919D01*
X136578200Y-110921800D02*
X129542400Y-117957600D01*
X167741600Y-89376919D02*
X167741600Y-106654600D01*
X167741600Y-106654600D02*
X163474400Y-110921800D01*
D23*
X129542400Y-117957600D02*
X129500000Y-118000000D01*
X157423600Y-90840400D02*
X157388400Y-90840400D01*
D26*
X142500000Y-114000000D02*
X142500000Y-115000000D01*
X169875200Y-108915200D02*
X169875200Y-101490400D01*
X169875200Y-101490400D02*
X172201400Y-99164200D01*
X163753800Y-115036600D02*
X169875200Y-108915200D01*
X142895810Y-115036600D02*
X163753800Y-115036600D01*
D24*
X142500000Y-115000000D02*
X142859210Y-115000000D01*
D23*
X142859210Y-115000000D02*
X142895810Y-115036600D01*
D27*
G36*
X105846726Y-51849817D02*
X105981783Y-52176680D01*
X106231644Y-52426978D01*
X106558271Y-52562606D01*
X106911937Y-52562914D01*
X107238800Y-52427857D01*
X107489098Y-52177996D01*
X107624726Y-51851369D01*
X107625015Y-51520000D01*
X139277028Y-51520000D01*
X138998642Y-51635311D01*
X138677111Y-51956843D01*
X138503100Y-52376943D01*
X138503100Y-53041550D01*
X138788850Y-53327300D01*
X140119100Y-53327300D01*
X140119100Y-53307300D01*
X140373100Y-53307300D01*
X140373100Y-53327300D01*
X140393100Y-53327300D01*
X140393100Y-53581300D01*
X140373100Y-53581300D01*
X140373100Y-55161550D01*
X140658850Y-55447300D01*
X141073457Y-55447300D01*
X141493558Y-55273289D01*
X141815089Y-54951757D01*
X141841531Y-54887919D01*
X142246100Y-54968393D01*
X142718714Y-54874384D01*
X143119377Y-54606670D01*
X143246100Y-54417015D01*
X143372823Y-54606670D01*
X143773486Y-54874384D01*
X144246100Y-54968393D01*
X144718714Y-54874384D01*
X145119377Y-54606670D01*
X145246100Y-54417015D01*
X145372823Y-54606670D01*
X145773486Y-54874384D01*
X146246100Y-54968393D01*
X146718714Y-54874384D01*
X147119377Y-54606670D01*
X147387091Y-54206007D01*
X147454513Y-53867050D01*
X149552100Y-53867050D01*
X149552100Y-54531657D01*
X149726111Y-54951757D01*
X150047642Y-55273289D01*
X150467743Y-55447300D01*
X150882350Y-55447300D01*
X151168100Y-55161550D01*
X151168100Y-53581300D01*
X149837850Y-53581300D01*
X149552100Y-53867050D01*
X147454513Y-53867050D01*
X147481100Y-53733393D01*
X147481100Y-53175207D01*
X147387091Y-52702593D01*
X147119377Y-52301930D01*
X146718714Y-52034216D01*
X146246100Y-51940207D01*
X145773486Y-52034216D01*
X145372823Y-52301930D01*
X145246100Y-52491585D01*
X145119377Y-52301930D01*
X144718714Y-52034216D01*
X144246100Y-51940207D01*
X143773486Y-52034216D01*
X143372823Y-52301930D01*
X143246100Y-52491585D01*
X143119377Y-52301930D01*
X142718714Y-52034216D01*
X142246100Y-51940207D01*
X141841531Y-52020681D01*
X141815089Y-51956843D01*
X141493558Y-51635311D01*
X141215172Y-51520000D01*
X150326028Y-51520000D01*
X150047642Y-51635311D01*
X149726111Y-51956843D01*
X149552100Y-52376943D01*
X149552100Y-53041550D01*
X149837850Y-53327300D01*
X151168100Y-53327300D01*
X151168100Y-53307300D01*
X151422100Y-53307300D01*
X151422100Y-53327300D01*
X151442100Y-53327300D01*
X151442100Y-53581300D01*
X151422100Y-53581300D01*
X151422100Y-55161550D01*
X151707850Y-55447300D01*
X152122457Y-55447300D01*
X152542558Y-55273289D01*
X152864089Y-54951757D01*
X152890531Y-54887919D01*
X153295100Y-54968393D01*
X153767714Y-54874384D01*
X154168377Y-54606670D01*
X154295100Y-54417015D01*
X154421823Y-54606670D01*
X154822486Y-54874384D01*
X155295100Y-54968393D01*
X155767714Y-54874384D01*
X156168377Y-54606670D01*
X156295100Y-54417015D01*
X156421823Y-54606670D01*
X156822486Y-54874384D01*
X157295100Y-54968393D01*
X157767714Y-54874384D01*
X158168377Y-54606670D01*
X158436091Y-54206007D01*
X158503513Y-53867050D01*
X160677300Y-53867050D01*
X160677300Y-54531657D01*
X160851311Y-54951757D01*
X161172842Y-55273289D01*
X161592943Y-55447300D01*
X162007550Y-55447300D01*
X162293300Y-55161550D01*
X162293300Y-53581300D01*
X160963050Y-53581300D01*
X160677300Y-53867050D01*
X158503513Y-53867050D01*
X158530100Y-53733393D01*
X158530100Y-53175207D01*
X158436091Y-52702593D01*
X158168377Y-52301930D01*
X157767714Y-52034216D01*
X157295100Y-51940207D01*
X156822486Y-52034216D01*
X156421823Y-52301930D01*
X156295100Y-52491585D01*
X156168377Y-52301930D01*
X155767714Y-52034216D01*
X155295100Y-51940207D01*
X154822486Y-52034216D01*
X154421823Y-52301930D01*
X154295100Y-52491585D01*
X154168377Y-52301930D01*
X153767714Y-52034216D01*
X153295100Y-51940207D01*
X152890531Y-52020681D01*
X152864089Y-51956843D01*
X152542558Y-51635311D01*
X152264172Y-51520000D01*
X161451228Y-51520000D01*
X161172842Y-51635311D01*
X160851311Y-51956843D01*
X160677300Y-52376943D01*
X160677300Y-53041550D01*
X160963050Y-53327300D01*
X162293300Y-53327300D01*
X162293300Y-53307300D01*
X162547300Y-53307300D01*
X162547300Y-53327300D01*
X162567300Y-53327300D01*
X162567300Y-53581300D01*
X162547300Y-53581300D01*
X162547300Y-55161550D01*
X162833050Y-55447300D01*
X163247657Y-55447300D01*
X163667758Y-55273289D01*
X163989289Y-54951757D01*
X164015731Y-54887919D01*
X164420300Y-54968393D01*
X164892914Y-54874384D01*
X165293577Y-54606670D01*
X165420300Y-54417015D01*
X165547023Y-54606670D01*
X165947686Y-54874384D01*
X166420300Y-54968393D01*
X166892914Y-54874384D01*
X167293577Y-54606670D01*
X167420300Y-54417015D01*
X167547023Y-54606670D01*
X167947686Y-54874384D01*
X168420300Y-54968393D01*
X168892914Y-54874384D01*
X169293577Y-54606670D01*
X169561291Y-54206007D01*
X169628713Y-53867050D01*
X171802500Y-53867050D01*
X171802500Y-54531657D01*
X171976511Y-54951757D01*
X172298042Y-55273289D01*
X172718143Y-55447300D01*
X173132750Y-55447300D01*
X173418500Y-55161550D01*
X173418500Y-53581300D01*
X172088250Y-53581300D01*
X171802500Y-53867050D01*
X169628713Y-53867050D01*
X169655300Y-53733393D01*
X169655300Y-53175207D01*
X169561291Y-52702593D01*
X169293577Y-52301930D01*
X168892914Y-52034216D01*
X168420300Y-51940207D01*
X167947686Y-52034216D01*
X167547023Y-52301930D01*
X167420300Y-52491585D01*
X167293577Y-52301930D01*
X166892914Y-52034216D01*
X166420300Y-51940207D01*
X165947686Y-52034216D01*
X165547023Y-52301930D01*
X165420300Y-52491585D01*
X165293577Y-52301930D01*
X164892914Y-52034216D01*
X164420300Y-51940207D01*
X164015731Y-52020681D01*
X163989289Y-51956843D01*
X163667758Y-51635311D01*
X163389372Y-51520000D01*
X172576428Y-51520000D01*
X172298042Y-51635311D01*
X171976511Y-51956843D01*
X171802500Y-52376943D01*
X171802500Y-53041550D01*
X172088250Y-53327300D01*
X173418500Y-53327300D01*
X173418500Y-53307300D01*
X173672500Y-53307300D01*
X173672500Y-53327300D01*
X173692500Y-53327300D01*
X173692500Y-53581300D01*
X173672500Y-53581300D01*
X173672500Y-55161550D01*
X173958250Y-55447300D01*
X174372857Y-55447300D01*
X174792958Y-55273289D01*
X175114489Y-54951757D01*
X175140931Y-54887919D01*
X175545500Y-54968393D01*
X176018114Y-54874384D01*
X176418777Y-54606670D01*
X176545500Y-54417015D01*
X176672223Y-54606670D01*
X177072886Y-54874384D01*
X177545500Y-54968393D01*
X178018114Y-54874384D01*
X178418777Y-54606670D01*
X178545500Y-54417015D01*
X178672223Y-54606670D01*
X179072886Y-54874384D01*
X179545500Y-54968393D01*
X180018114Y-54874384D01*
X180418777Y-54606670D01*
X180686491Y-54206007D01*
X180780500Y-53733393D01*
X180780500Y-53175207D01*
X180686491Y-52702593D01*
X180418777Y-52301930D01*
X180018114Y-52034216D01*
X179545500Y-51940207D01*
X179072886Y-52034216D01*
X178672223Y-52301930D01*
X178545500Y-52491585D01*
X178418777Y-52301930D01*
X178018114Y-52034216D01*
X177545500Y-51940207D01*
X177072886Y-52034216D01*
X176672223Y-52301930D01*
X176545500Y-52491585D01*
X176418777Y-52301930D01*
X176018114Y-52034216D01*
X175545500Y-51940207D01*
X175140931Y-52020681D01*
X175114489Y-51956843D01*
X174792958Y-51635311D01*
X174514572Y-51520000D01*
X183110000Y-51520000D01*
X183110000Y-62718097D01*
X182583400Y-61443628D01*
X181561751Y-60420194D01*
X180226218Y-59865632D01*
X178780126Y-59864370D01*
X177443628Y-60416600D01*
X176420194Y-61438249D01*
X175865632Y-62773782D01*
X175864370Y-64219874D01*
X176416600Y-65556372D01*
X177438249Y-66579806D01*
X178773782Y-67134368D01*
X180219874Y-67135630D01*
X181556372Y-66583400D01*
X182579806Y-65561751D01*
X183110000Y-64284903D01*
X183110000Y-130100000D01*
X84530000Y-130100000D01*
X84530000Y-126719874D01*
X86364370Y-126719874D01*
X86916600Y-128056372D01*
X87938249Y-129079806D01*
X89273782Y-129634368D01*
X90719874Y-129635630D01*
X92056372Y-129083400D01*
X93079806Y-128061751D01*
X93634368Y-126726218D01*
X93635630Y-125280126D01*
X93083400Y-123943628D01*
X92061751Y-122920194D01*
X90726218Y-122365632D01*
X89280126Y-122364370D01*
X87943628Y-122916600D01*
X86920194Y-123938249D01*
X86365632Y-125273782D01*
X86364370Y-126719874D01*
X84530000Y-126719874D01*
X84530000Y-118048925D01*
X85879587Y-118048925D01*
X86241916Y-118925829D01*
X86912242Y-119597326D01*
X87788513Y-119961185D01*
X88737325Y-119962013D01*
X89563392Y-119620689D01*
X94689743Y-119620689D01*
X94915344Y-120166686D01*
X95332717Y-120584788D01*
X95878319Y-120811342D01*
X96469089Y-120811857D01*
X97015086Y-120586256D01*
X97433188Y-120168883D01*
X97659742Y-119623281D01*
X97660257Y-119032511D01*
X97434656Y-118486514D01*
X97017283Y-118068412D01*
X96471681Y-117841858D01*
X95880911Y-117841343D01*
X95334914Y-118066944D01*
X94916812Y-118484317D01*
X94690258Y-119029919D01*
X94689743Y-119620689D01*
X89563392Y-119620689D01*
X89614229Y-119599684D01*
X90285726Y-118929358D01*
X90649585Y-118053087D01*
X90650413Y-117104275D01*
X90288084Y-116227371D01*
X90181589Y-116120689D01*
X94689743Y-116120689D01*
X94915344Y-116666686D01*
X95332717Y-117084788D01*
X95878319Y-117311342D01*
X96469089Y-117311857D01*
X97015086Y-117086256D01*
X97433188Y-116668883D01*
X97659742Y-116123281D01*
X97660257Y-115532511D01*
X97434656Y-114986514D01*
X97281809Y-114833400D01*
X106375200Y-114833400D01*
X106375200Y-128905000D01*
X106383885Y-128951159D01*
X106411165Y-128993553D01*
X106452790Y-129021994D01*
X106502200Y-129032000D01*
X130276600Y-129032000D01*
X130322759Y-129023315D01*
X130365153Y-128996035D01*
X130393594Y-128954410D01*
X130403600Y-128905000D01*
X130403600Y-128676057D01*
X148110846Y-128676057D01*
X148245903Y-129002920D01*
X148495764Y-129253218D01*
X148822391Y-129388846D01*
X149176057Y-129389154D01*
X149502920Y-129254097D01*
X149753218Y-129004236D01*
X149888846Y-128677609D01*
X149889154Y-128323943D01*
X149754097Y-127997080D01*
X149504236Y-127746782D01*
X149177609Y-127611154D01*
X148823943Y-127610846D01*
X148497080Y-127745903D01*
X148246782Y-127995764D01*
X148111154Y-128322391D01*
X148110846Y-128676057D01*
X130403600Y-128676057D01*
X130403600Y-127201457D01*
X144525846Y-127201457D01*
X144660903Y-127528320D01*
X144910764Y-127778618D01*
X145237391Y-127914246D01*
X145591057Y-127914554D01*
X145917920Y-127779497D01*
X146168218Y-127529636D01*
X146303846Y-127203009D01*
X146304154Y-126849343D01*
X146169097Y-126522480D01*
X145919236Y-126272182D01*
X145592609Y-126136554D01*
X145238943Y-126136246D01*
X144912080Y-126271303D01*
X144661782Y-126521164D01*
X144526154Y-126847791D01*
X144525846Y-127201457D01*
X130403600Y-127201457D01*
X130403600Y-123676057D01*
X131610846Y-123676057D01*
X131745903Y-124002920D01*
X131995764Y-124253218D01*
X132322391Y-124388846D01*
X132676057Y-124389154D01*
X133002920Y-124254097D01*
X133253218Y-124004236D01*
X133388846Y-123677609D01*
X133388962Y-123543857D01*
X144500446Y-123543857D01*
X144635503Y-123870720D01*
X144885364Y-124121018D01*
X145211991Y-124256646D01*
X145565657Y-124256954D01*
X145892520Y-124121897D01*
X146142818Y-123872036D01*
X146278446Y-123545409D01*
X146278447Y-123543857D01*
X147726246Y-123543857D01*
X147861303Y-123870720D01*
X148111164Y-124121018D01*
X148437791Y-124256646D01*
X148791457Y-124256954D01*
X149118320Y-124121897D01*
X149368618Y-123872036D01*
X149504246Y-123545409D01*
X149504554Y-123191743D01*
X149369497Y-122864880D01*
X149119636Y-122614582D01*
X148793009Y-122478954D01*
X148439343Y-122478646D01*
X148112480Y-122613703D01*
X147862182Y-122863564D01*
X147726554Y-123190191D01*
X147726246Y-123543857D01*
X146278447Y-123543857D01*
X146278754Y-123191743D01*
X146143697Y-122864880D01*
X145893836Y-122614582D01*
X145567209Y-122478954D01*
X145213543Y-122478646D01*
X144886680Y-122613703D01*
X144636382Y-122863564D01*
X144500754Y-123190191D01*
X144500446Y-123543857D01*
X133388962Y-123543857D01*
X133389154Y-123323943D01*
X133254097Y-122997080D01*
X133004236Y-122746782D01*
X132677609Y-122611154D01*
X132323943Y-122610846D01*
X131997080Y-122745903D01*
X131746782Y-122995764D01*
X131611154Y-123322391D01*
X131610846Y-123676057D01*
X130403600Y-123676057D01*
X130403600Y-119176057D01*
X139610846Y-119176057D01*
X139744859Y-119500394D01*
X139611154Y-119822391D01*
X139610846Y-120176057D01*
X139744859Y-120500394D01*
X139611154Y-120822391D01*
X139610846Y-121176057D01*
X139745903Y-121502920D01*
X139995764Y-121753218D01*
X140322391Y-121888846D01*
X140676057Y-121889154D01*
X141000394Y-121755141D01*
X141322391Y-121888846D01*
X141676057Y-121889154D01*
X142000394Y-121755141D01*
X142322391Y-121888846D01*
X142676057Y-121889154D01*
X143002920Y-121754097D01*
X143253218Y-121504236D01*
X143388846Y-121177609D01*
X143389154Y-120823943D01*
X143254097Y-120497080D01*
X143004236Y-120246782D01*
X142677609Y-120111154D01*
X142323943Y-120110846D01*
X141999606Y-120244859D01*
X141677609Y-120111154D01*
X141388904Y-120110903D01*
X141389154Y-119823943D01*
X141255141Y-119499606D01*
X141388846Y-119177609D01*
X141389154Y-118823943D01*
X141254097Y-118497080D01*
X141004236Y-118246782D01*
X140833913Y-118176057D01*
X144610846Y-118176057D01*
X144745903Y-118502920D01*
X144995764Y-118753218D01*
X145322391Y-118888846D01*
X145676057Y-118889154D01*
X146002920Y-118754097D01*
X146006121Y-118750901D01*
X161624091Y-118750901D01*
X161807689Y-119195243D01*
X161774400Y-119362600D01*
X161774400Y-120988945D01*
X161788600Y-121060333D01*
X161788600Y-124917195D01*
X161788599Y-124917200D01*
X161913057Y-125542888D01*
X162267480Y-126073320D01*
X165516078Y-129321917D01*
X165516080Y-129321920D01*
X165834051Y-129534381D01*
X166046512Y-129676343D01*
X166672200Y-129800800D01*
X172252200Y-129800800D01*
X172877887Y-129676343D01*
X173408320Y-129321920D01*
X173762743Y-128791487D01*
X173887200Y-128165800D01*
X173762743Y-127540113D01*
X173408320Y-127009680D01*
X173226400Y-126888125D01*
X177776787Y-126888125D01*
X178139116Y-127765029D01*
X178809442Y-128436526D01*
X179685713Y-128800385D01*
X180634525Y-128801213D01*
X181511429Y-128438884D01*
X182182926Y-127768558D01*
X182546785Y-126892287D01*
X182547613Y-125943475D01*
X182185284Y-125066571D01*
X181514958Y-124395074D01*
X180638687Y-124031215D01*
X179689875Y-124030387D01*
X178812971Y-124392716D01*
X178141474Y-125063042D01*
X177777615Y-125939313D01*
X177776787Y-126888125D01*
X173226400Y-126888125D01*
X172877887Y-126655257D01*
X172252200Y-126530800D01*
X167349439Y-126530800D01*
X165778529Y-124959889D01*
X170766943Y-124959889D01*
X170992544Y-125505886D01*
X171409917Y-125923988D01*
X171955519Y-126150542D01*
X172546289Y-126151057D01*
X173092286Y-125925456D01*
X173510388Y-125508083D01*
X173736942Y-124962481D01*
X173737457Y-124371711D01*
X173511856Y-123825714D01*
X173094483Y-123407612D01*
X172548881Y-123181058D01*
X171958111Y-123180543D01*
X171412114Y-123406144D01*
X170994012Y-123823517D01*
X170767458Y-124369119D01*
X170766943Y-124959889D01*
X165778529Y-124959889D01*
X165058600Y-124239960D01*
X165058600Y-121003145D01*
X165044400Y-120931757D01*
X165044400Y-119900089D01*
X170792343Y-119900089D01*
X171017944Y-120446086D01*
X171435317Y-120864188D01*
X171980919Y-121090742D01*
X172571689Y-121091257D01*
X173117686Y-120865656D01*
X173535788Y-120448283D01*
X173762342Y-119902681D01*
X173762857Y-119311911D01*
X173537256Y-118765914D01*
X173119883Y-118347812D01*
X173072954Y-118328325D01*
X177802187Y-118328325D01*
X178164516Y-119205229D01*
X178834842Y-119876726D01*
X179711113Y-120240585D01*
X180659925Y-120241413D01*
X181536829Y-119879084D01*
X182208326Y-119208758D01*
X182572185Y-118332487D01*
X182573013Y-117383675D01*
X182210684Y-116506771D01*
X181540358Y-115835274D01*
X180664087Y-115471415D01*
X179715275Y-115470587D01*
X178838371Y-115832916D01*
X178166874Y-116503242D01*
X177803015Y-117379513D01*
X177802187Y-118328325D01*
X173072954Y-118328325D01*
X172574281Y-118121258D01*
X171983511Y-118120743D01*
X171437514Y-118346344D01*
X171019412Y-118763717D01*
X170792858Y-119309319D01*
X170792343Y-119900089D01*
X165044400Y-119900089D01*
X165044400Y-119362600D01*
X165011035Y-119194861D01*
X165194089Y-118754016D01*
X165194709Y-118043899D01*
X164923532Y-117387600D01*
X164421841Y-116885033D01*
X163766016Y-116612711D01*
X163055899Y-116612091D01*
X162399600Y-116883268D01*
X161897033Y-117384959D01*
X161624711Y-118040784D01*
X161624091Y-118750901D01*
X146006121Y-118750901D01*
X146253218Y-118504236D01*
X146388846Y-118177609D01*
X146389154Y-117823943D01*
X146254097Y-117497080D01*
X146004236Y-117246782D01*
X145677609Y-117111154D01*
X145323943Y-117110846D01*
X144997080Y-117245903D01*
X144746782Y-117495764D01*
X144611154Y-117822391D01*
X144610846Y-118176057D01*
X140833913Y-118176057D01*
X140677609Y-118111154D01*
X140323943Y-118110846D01*
X139997080Y-118245903D01*
X139746782Y-118495764D01*
X139611154Y-118822391D01*
X139610846Y-119176057D01*
X130403600Y-119176057D01*
X130403600Y-118872030D01*
X130664088Y-118482181D01*
X130674302Y-118430830D01*
X130929075Y-118176057D01*
X135110086Y-118176057D01*
X135245143Y-118502920D01*
X135495004Y-118753218D01*
X135821631Y-118888846D01*
X136175297Y-118889154D01*
X136502160Y-118754097D01*
X136752458Y-118504236D01*
X136888086Y-118177609D01*
X136888394Y-117823943D01*
X136753337Y-117497080D01*
X136503476Y-117246782D01*
X136176849Y-117111154D01*
X135823183Y-117110846D01*
X135496320Y-117245903D01*
X135246022Y-117495764D01*
X135110394Y-117822391D01*
X135110086Y-118176057D01*
X130929075Y-118176057D01*
X137048332Y-112056800D01*
X163474400Y-112056800D01*
X163908746Y-111970403D01*
X164276966Y-111724366D01*
X168544166Y-107457166D01*
X168615200Y-107350856D01*
X168615200Y-108393291D01*
X163231890Y-113776600D01*
X143715563Y-113776600D01*
X143664088Y-113517819D01*
X143390955Y-113109045D01*
X142982181Y-112835912D01*
X142500000Y-112740000D01*
X142017819Y-112835912D01*
X141609045Y-113109045D01*
X141607677Y-113111093D01*
X141323943Y-113110846D01*
X140999606Y-113244859D01*
X140677609Y-113111154D01*
X140323943Y-113110846D01*
X139999606Y-113244859D01*
X139677609Y-113111154D01*
X139323943Y-113110846D01*
X138997080Y-113245903D01*
X138746782Y-113495764D01*
X138611154Y-113822391D01*
X138610846Y-114176057D01*
X138744859Y-114500394D01*
X138611154Y-114822391D01*
X138610846Y-115176057D01*
X138744859Y-115500394D01*
X138611154Y-115822391D01*
X138610846Y-116176057D01*
X138745903Y-116502920D01*
X138995764Y-116753218D01*
X139322391Y-116888846D01*
X139676057Y-116889154D01*
X140000394Y-116755141D01*
X140322391Y-116888846D01*
X140676057Y-116889154D01*
X141002920Y-116754097D01*
X141253218Y-116504236D01*
X141296463Y-116400089D01*
X170792343Y-116400089D01*
X171017944Y-116946086D01*
X171435317Y-117364188D01*
X171980919Y-117590742D01*
X172571689Y-117591257D01*
X173117686Y-117365656D01*
X173535788Y-116948283D01*
X173762342Y-116402681D01*
X173762857Y-115811911D01*
X173537256Y-115265914D01*
X173119883Y-114847812D01*
X172574281Y-114621258D01*
X171983511Y-114620743D01*
X171437514Y-114846344D01*
X171019412Y-115263717D01*
X170792858Y-115809319D01*
X170792343Y-116400089D01*
X141296463Y-116400089D01*
X141388846Y-116177609D01*
X141389097Y-115888904D01*
X141607802Y-115889095D01*
X141609045Y-115890955D01*
X142017819Y-116164088D01*
X142500000Y-116260000D01*
X142605905Y-116238934D01*
X142895810Y-116296600D01*
X163753795Y-116296600D01*
X163753800Y-116296601D01*
X164235981Y-116200688D01*
X164644755Y-115927555D01*
X169181220Y-111391089D01*
X170741543Y-111391089D01*
X170967144Y-111937086D01*
X171384517Y-112355188D01*
X171930119Y-112581742D01*
X172520889Y-112582257D01*
X173066886Y-112356656D01*
X173484988Y-111939283D01*
X173711542Y-111393681D01*
X173712057Y-110802911D01*
X173486456Y-110256914D01*
X173069083Y-109838812D01*
X173022154Y-109819325D01*
X177751387Y-109819325D01*
X178113716Y-110696229D01*
X178784042Y-111367726D01*
X179660313Y-111731585D01*
X180609125Y-111732413D01*
X181486029Y-111370084D01*
X182157526Y-110699758D01*
X182521385Y-109823487D01*
X182522213Y-108874675D01*
X182159884Y-107997771D01*
X181489558Y-107326274D01*
X180613287Y-106962415D01*
X179664475Y-106961587D01*
X178787571Y-107323916D01*
X178116074Y-107994242D01*
X177752215Y-108870513D01*
X177751387Y-109819325D01*
X173022154Y-109819325D01*
X172523481Y-109612258D01*
X171932711Y-109611743D01*
X171386714Y-109837344D01*
X170968612Y-110254717D01*
X170742058Y-110800319D01*
X170741543Y-111391089D01*
X169181220Y-111391089D01*
X170766152Y-109806157D01*
X170766155Y-109806155D01*
X171039288Y-109397381D01*
X171053896Y-109323943D01*
X171135201Y-108915200D01*
X171135200Y-108915195D01*
X171135200Y-108605436D01*
X171384517Y-108855188D01*
X171930119Y-109081742D01*
X172520889Y-109082257D01*
X173066886Y-108856656D01*
X173484988Y-108439283D01*
X173711542Y-107893681D01*
X173712057Y-107302911D01*
X173486456Y-106756914D01*
X173069083Y-106338812D01*
X172523481Y-106112258D01*
X171932711Y-106111743D01*
X171386714Y-106337344D01*
X171135200Y-106588419D01*
X171135200Y-103698080D01*
X171359117Y-103922388D01*
X171904719Y-104148942D01*
X172495489Y-104149457D01*
X173041486Y-103923856D01*
X173459588Y-103506483D01*
X173686142Y-102960881D01*
X173686657Y-102370111D01*
X173461056Y-101824114D01*
X173043683Y-101406012D01*
X172996754Y-101386525D01*
X177725987Y-101386525D01*
X178088316Y-102263429D01*
X178758642Y-102934926D01*
X179634913Y-103298785D01*
X180583725Y-103299613D01*
X181460629Y-102937284D01*
X182132126Y-102266958D01*
X182495985Y-101390687D01*
X182496813Y-100441875D01*
X182134484Y-99564971D01*
X181464158Y-98893474D01*
X180587887Y-98529615D01*
X179639075Y-98528787D01*
X178762171Y-98891116D01*
X178090674Y-99561442D01*
X177726815Y-100437713D01*
X177725987Y-101386525D01*
X172996754Y-101386525D01*
X172498081Y-101179458D01*
X171968513Y-101178996D01*
X172499857Y-100647652D01*
X173041486Y-100423856D01*
X173459588Y-100006483D01*
X173686142Y-99460881D01*
X173686657Y-98870111D01*
X173461056Y-98324114D01*
X173043683Y-97906012D01*
X172498081Y-97679458D01*
X171907311Y-97678943D01*
X171361314Y-97904544D01*
X170943212Y-98321917D01*
X170717003Y-98866687D01*
X168984245Y-100599445D01*
X168876600Y-100760548D01*
X168876600Y-95972157D01*
X171322846Y-95972157D01*
X171457903Y-96299020D01*
X171707764Y-96549318D01*
X172034391Y-96684946D01*
X172388057Y-96685254D01*
X172714920Y-96550197D01*
X172965218Y-96300336D01*
X173100846Y-95973709D01*
X173101154Y-95620043D01*
X172966097Y-95293180D01*
X172716236Y-95042882D01*
X172389609Y-94907254D01*
X172035943Y-94906946D01*
X171709080Y-95042003D01*
X171458782Y-95291864D01*
X171323154Y-95618491D01*
X171322846Y-95972157D01*
X168876600Y-95972157D01*
X168876600Y-93495657D01*
X169621046Y-93495657D01*
X169756103Y-93822520D01*
X170005964Y-94072818D01*
X170332591Y-94208446D01*
X170686257Y-94208754D01*
X171013120Y-94073697D01*
X171263418Y-93823836D01*
X171399046Y-93497209D01*
X171399354Y-93143543D01*
X171264297Y-92816680D01*
X171014436Y-92566382D01*
X170687809Y-92430754D01*
X170334143Y-92430446D01*
X170007280Y-92565503D01*
X169756982Y-92815364D01*
X169621354Y-93141991D01*
X169621046Y-93495657D01*
X168876600Y-93495657D01*
X168876600Y-89847051D01*
X168947962Y-89775689D01*
X170853743Y-89775689D01*
X171079344Y-90321686D01*
X171496717Y-90739788D01*
X172042319Y-90966342D01*
X172633089Y-90966857D01*
X173179086Y-90741256D01*
X173597188Y-90323883D01*
X173823742Y-89778281D01*
X173824257Y-89187511D01*
X173598656Y-88641514D01*
X173181283Y-88223412D01*
X173134354Y-88203925D01*
X177863587Y-88203925D01*
X178225916Y-89080829D01*
X178896242Y-89752326D01*
X179772513Y-90116185D01*
X180721325Y-90117013D01*
X181598229Y-89754684D01*
X182269726Y-89084358D01*
X182633585Y-88208087D01*
X182634413Y-87259275D01*
X182272084Y-86382371D01*
X181601758Y-85710874D01*
X180725487Y-85347015D01*
X179776675Y-85346187D01*
X178899771Y-85708516D01*
X178228274Y-86378842D01*
X177864415Y-87255113D01*
X177863587Y-88203925D01*
X173134354Y-88203925D01*
X172635681Y-87996858D01*
X172044911Y-87996343D01*
X171498914Y-88221944D01*
X171080812Y-88639317D01*
X170854258Y-89184919D01*
X170853743Y-89775689D01*
X168947962Y-89775689D01*
X171490296Y-87233355D01*
X171496717Y-87239788D01*
X172042319Y-87466342D01*
X172633089Y-87466857D01*
X173179086Y-87241256D01*
X173597188Y-86823883D01*
X173823742Y-86278281D01*
X173824257Y-85687511D01*
X173598656Y-85141514D01*
X173181283Y-84723412D01*
X172635681Y-84496858D01*
X172044911Y-84496343D01*
X171498914Y-84721944D01*
X171374040Y-84846600D01*
X171136919Y-84846600D01*
X170702573Y-84932997D01*
X170452627Y-85100006D01*
X170334353Y-85179034D01*
X166939034Y-88574353D01*
X166692997Y-88942573D01*
X166606600Y-89376919D01*
X166606600Y-106184468D01*
X163004268Y-109786800D01*
X139076884Y-109786800D01*
X139976888Y-109145636D01*
X140020194Y-109091610D01*
X140030200Y-109042200D01*
X140030200Y-107735526D01*
X150050879Y-107735526D01*
X150139977Y-108160676D01*
X150987919Y-108497017D01*
X151900028Y-108483263D01*
X152678823Y-108160676D01*
X152767921Y-107735526D01*
X151409400Y-106377005D01*
X150050879Y-107735526D01*
X140030200Y-107735526D01*
X140030200Y-105775919D01*
X149109783Y-105775919D01*
X149123537Y-106688028D01*
X149446124Y-107466823D01*
X149871274Y-107555921D01*
X151229795Y-106197400D01*
X151589005Y-106197400D01*
X152947526Y-107555921D01*
X153372676Y-107466823D01*
X153709017Y-106618881D01*
X153707992Y-106550901D01*
X161624091Y-106550901D01*
X161895268Y-107207200D01*
X162396959Y-107709767D01*
X163052784Y-107982089D01*
X163762901Y-107982709D01*
X164419200Y-107711532D01*
X164921767Y-107209841D01*
X165194089Y-106554016D01*
X165194709Y-105843899D01*
X164923532Y-105187600D01*
X164421841Y-104685033D01*
X163766016Y-104412711D01*
X163055899Y-104412091D01*
X162399600Y-104683268D01*
X161897033Y-105184959D01*
X161624711Y-105840784D01*
X161624091Y-106550901D01*
X153707992Y-106550901D01*
X153695263Y-105706772D01*
X153372676Y-104927977D01*
X152947526Y-104838879D01*
X151589005Y-106197400D01*
X151229795Y-106197400D01*
X149871274Y-104838879D01*
X149446124Y-104927977D01*
X149109783Y-105775919D01*
X140030200Y-105775919D01*
X140030200Y-104659274D01*
X150050879Y-104659274D01*
X151409400Y-106017795D01*
X152767921Y-104659274D01*
X152678823Y-104234124D01*
X151830881Y-103897783D01*
X150918772Y-103911537D01*
X150139977Y-104234124D01*
X150050879Y-104659274D01*
X140030200Y-104659274D01*
X140030200Y-103860600D01*
X140021515Y-103814441D01*
X139994235Y-103772047D01*
X139952610Y-103743606D01*
X139903200Y-103733600D01*
X118465600Y-103733600D01*
X118419441Y-103742285D01*
X118377047Y-103769565D01*
X118348606Y-103811190D01*
X118338600Y-103860600D01*
X118338600Y-114706400D01*
X106502200Y-114706400D01*
X106456041Y-114715085D01*
X106413647Y-114742365D01*
X106385206Y-114783990D01*
X106375200Y-114833400D01*
X97281809Y-114833400D01*
X97017283Y-114568412D01*
X96471681Y-114341858D01*
X95880911Y-114341343D01*
X95334914Y-114566944D01*
X94916812Y-114984317D01*
X94690258Y-115529919D01*
X94689743Y-116120689D01*
X90181589Y-116120689D01*
X89617758Y-115555874D01*
X88741487Y-115192015D01*
X87792675Y-115191187D01*
X86915771Y-115553516D01*
X86244274Y-116223842D01*
X85880415Y-117100113D01*
X85879587Y-118048925D01*
X84530000Y-118048925D01*
X84530000Y-98676057D01*
X138610846Y-98676057D01*
X138744859Y-99000394D01*
X138611154Y-99322391D01*
X138610846Y-99676057D01*
X138744859Y-100000394D01*
X138611154Y-100322391D01*
X138610846Y-100676057D01*
X138745903Y-101002920D01*
X138995764Y-101253218D01*
X139322391Y-101388846D01*
X139676057Y-101389154D01*
X140002920Y-101254097D01*
X140253218Y-101004236D01*
X140388846Y-100677609D01*
X140389154Y-100323943D01*
X140255141Y-99999606D01*
X140388846Y-99677609D01*
X140389097Y-99388904D01*
X140676057Y-99389154D01*
X141000394Y-99255141D01*
X141322391Y-99388846D01*
X141676057Y-99389154D01*
X142000394Y-99255141D01*
X142322391Y-99388846D01*
X142676057Y-99389154D01*
X143000394Y-99255141D01*
X143322391Y-99388846D01*
X143676057Y-99389154D01*
X144000394Y-99255141D01*
X144322391Y-99388846D01*
X144676057Y-99389154D01*
X145000394Y-99255141D01*
X145322391Y-99388846D01*
X145676057Y-99389154D01*
X146000394Y-99255141D01*
X146322391Y-99388846D01*
X146387099Y-99388902D01*
X146365000Y-99500000D01*
X146365000Y-101500000D01*
X146451397Y-101934346D01*
X146649299Y-102230527D01*
X146611154Y-102322391D01*
X146610846Y-102676057D01*
X146745903Y-103002920D01*
X146995764Y-103253218D01*
X147322391Y-103388846D01*
X147676057Y-103389154D01*
X148002920Y-103254097D01*
X148253218Y-103004236D01*
X148388846Y-102677609D01*
X148389154Y-102323943D01*
X148350611Y-102230662D01*
X148548603Y-101934346D01*
X148608147Y-101635000D01*
X152887268Y-101635000D01*
X155885269Y-104633001D01*
X155895268Y-104657200D01*
X156396959Y-105159767D01*
X156422740Y-105170472D01*
X156606834Y-105354566D01*
X156975054Y-105600603D01*
X157409400Y-105686999D01*
X157843745Y-105600603D01*
X158211966Y-105354566D01*
X158311103Y-105206197D01*
X158419200Y-105161532D01*
X158921767Y-104659841D01*
X159194089Y-104004016D01*
X159194709Y-103293899D01*
X158923532Y-102637600D01*
X158421841Y-102135033D01*
X157766016Y-101862711D01*
X157055899Y-101862091D01*
X156538435Y-102075903D01*
X154159966Y-99697434D01*
X153961721Y-99564971D01*
X153791746Y-99451397D01*
X153357400Y-99365000D01*
X148608147Y-99365000D01*
X148548603Y-99065654D01*
X148302566Y-98697434D01*
X147934346Y-98451397D01*
X147500000Y-98365000D01*
X147389099Y-98387060D01*
X147389154Y-98323943D01*
X147254097Y-97997080D01*
X147096350Y-97839057D01*
X161137446Y-97839057D01*
X161272503Y-98165920D01*
X161522364Y-98416218D01*
X161848991Y-98551846D01*
X162202657Y-98552154D01*
X162529520Y-98417097D01*
X162779818Y-98167236D01*
X162915446Y-97840609D01*
X162915754Y-97486943D01*
X162780697Y-97160080D01*
X162530836Y-96909782D01*
X162204209Y-96774154D01*
X161850543Y-96773846D01*
X161523680Y-96908903D01*
X161273382Y-97158764D01*
X161137754Y-97485391D01*
X161137446Y-97839057D01*
X147096350Y-97839057D01*
X147004236Y-97746782D01*
X146677609Y-97611154D01*
X146323943Y-97610846D01*
X145999606Y-97744859D01*
X145677609Y-97611154D01*
X145323943Y-97610846D01*
X144999606Y-97744859D01*
X144677609Y-97611154D01*
X144323943Y-97610846D01*
X143999606Y-97744859D01*
X143677609Y-97611154D01*
X143323943Y-97610846D01*
X142999606Y-97744859D01*
X142677609Y-97611154D01*
X142323943Y-97610846D01*
X141999606Y-97744859D01*
X141677609Y-97611154D01*
X141323943Y-97610846D01*
X140999606Y-97744859D01*
X140677609Y-97611154D01*
X140323943Y-97610846D01*
X139999606Y-97744859D01*
X139677609Y-97611154D01*
X139323943Y-97610846D01*
X138997080Y-97745903D01*
X138746782Y-97995764D01*
X138611154Y-98322391D01*
X138610846Y-98676057D01*
X84530000Y-98676057D01*
X84530000Y-95781657D01*
X152044246Y-95781657D01*
X152179303Y-96108520D01*
X152429164Y-96358818D01*
X152755791Y-96494446D01*
X153109457Y-96494754D01*
X153436320Y-96359697D01*
X153686618Y-96109836D01*
X153822246Y-95783209D01*
X153822554Y-95429543D01*
X153687497Y-95102680D01*
X153437636Y-94852382D01*
X153111009Y-94716754D01*
X152757343Y-94716446D01*
X152430480Y-94851503D01*
X152180182Y-95101364D01*
X152044554Y-95427991D01*
X152044246Y-95781657D01*
X84530000Y-95781657D01*
X84530000Y-93749657D01*
X162712246Y-93749657D01*
X162847303Y-94076520D01*
X163097164Y-94326818D01*
X163423791Y-94462446D01*
X163777457Y-94462754D01*
X164104320Y-94327697D01*
X164354618Y-94077836D01*
X164490246Y-93751209D01*
X164490554Y-93397543D01*
X164355497Y-93070680D01*
X164105636Y-92820382D01*
X163779009Y-92684754D01*
X163425343Y-92684446D01*
X163098480Y-92819503D01*
X162848182Y-93069364D01*
X162712554Y-93395991D01*
X162712246Y-93749657D01*
X84530000Y-93749657D01*
X84530000Y-91844657D01*
X146405446Y-91844657D01*
X146540503Y-92171520D01*
X146790364Y-92421818D01*
X147116991Y-92557446D01*
X147470657Y-92557754D01*
X147797520Y-92422697D01*
X148047818Y-92172836D01*
X148183446Y-91846209D01*
X148183754Y-91492543D01*
X148048697Y-91165680D01*
X147798836Y-90915382D01*
X147472209Y-90779754D01*
X147118543Y-90779446D01*
X146791680Y-90914503D01*
X146541382Y-91164364D01*
X146405754Y-91490991D01*
X146405446Y-91844657D01*
X84530000Y-91844657D01*
X84530000Y-90228701D01*
X155638291Y-90228701D01*
X155909468Y-90885000D01*
X156411159Y-91387567D01*
X157066984Y-91659889D01*
X157777101Y-91660509D01*
X158433400Y-91389332D01*
X158935967Y-90887641D01*
X159208289Y-90231816D01*
X159208909Y-89521699D01*
X158937732Y-88865400D01*
X158935662Y-88863326D01*
X162065079Y-88863326D01*
X162154177Y-89288476D01*
X163002119Y-89624817D01*
X163914228Y-89611063D01*
X164693023Y-89288476D01*
X164782121Y-88863326D01*
X163423600Y-87504805D01*
X162065079Y-88863326D01*
X158935662Y-88863326D01*
X158436041Y-88362833D01*
X157780216Y-88090511D01*
X157070099Y-88089891D01*
X156413800Y-88361068D01*
X155911233Y-88862759D01*
X155638911Y-89518584D01*
X155638291Y-90228701D01*
X84530000Y-90228701D01*
X84530000Y-85719874D01*
X86364370Y-85719874D01*
X86916600Y-87056372D01*
X87938249Y-88079806D01*
X89273782Y-88634368D01*
X90719874Y-88635630D01*
X91498139Y-88314057D01*
X98272446Y-88314057D01*
X98407503Y-88640920D01*
X98657364Y-88891218D01*
X98983991Y-89026846D01*
X99337657Y-89027154D01*
X99664520Y-88892097D01*
X99691426Y-88865237D01*
X115300606Y-88865237D01*
X115435663Y-89192100D01*
X115685524Y-89442398D01*
X116012151Y-89578026D01*
X116365817Y-89578334D01*
X116692680Y-89443277D01*
X116942978Y-89193416D01*
X117078606Y-88866789D01*
X117078914Y-88513123D01*
X116943857Y-88186260D01*
X116693996Y-87935962D01*
X116367369Y-87800334D01*
X116013703Y-87800026D01*
X115686840Y-87935083D01*
X115436542Y-88184944D01*
X115300914Y-88511571D01*
X115300606Y-88865237D01*
X99691426Y-88865237D01*
X99914818Y-88642236D01*
X100050446Y-88315609D01*
X100050754Y-87961943D01*
X99915697Y-87635080D01*
X99665836Y-87384782D01*
X99339209Y-87249154D01*
X98985543Y-87248846D01*
X98658680Y-87383903D01*
X98408382Y-87633764D01*
X98272754Y-87960391D01*
X98272446Y-88314057D01*
X91498139Y-88314057D01*
X92056372Y-88083400D01*
X93079806Y-87061751D01*
X93108247Y-86993257D01*
X106095646Y-86993257D01*
X106230703Y-87320120D01*
X106480564Y-87570418D01*
X106807191Y-87706046D01*
X107014128Y-87706226D01*
X107043503Y-87777320D01*
X107293364Y-88027618D01*
X107619991Y-88163246D01*
X107973657Y-88163554D01*
X108300520Y-88028497D01*
X108550818Y-87778636D01*
X108592314Y-87678701D01*
X149638291Y-87678701D01*
X149909468Y-88335000D01*
X150411159Y-88837567D01*
X151066984Y-89109889D01*
X151777101Y-89110509D01*
X152433400Y-88839332D01*
X152935967Y-88337641D01*
X153208289Y-87681816D01*
X153208909Y-86971699D01*
X153180821Y-86903719D01*
X161123983Y-86903719D01*
X161137737Y-87815828D01*
X161460324Y-88594623D01*
X161885474Y-88683721D01*
X163243995Y-87325200D01*
X163603205Y-87325200D01*
X164961726Y-88683721D01*
X165386876Y-88594623D01*
X165723217Y-87746681D01*
X165709463Y-86834572D01*
X165386876Y-86055777D01*
X164961726Y-85966679D01*
X163603205Y-87325200D01*
X163243995Y-87325200D01*
X161885474Y-85966679D01*
X161460324Y-86055777D01*
X161123983Y-86903719D01*
X153180821Y-86903719D01*
X152937732Y-86315400D01*
X152436041Y-85812833D01*
X152374007Y-85787074D01*
X162065079Y-85787074D01*
X163423600Y-87145595D01*
X164782121Y-85787074D01*
X164693023Y-85361924D01*
X163845081Y-85025583D01*
X162932972Y-85039337D01*
X162154177Y-85361924D01*
X162065079Y-85787074D01*
X152374007Y-85787074D01*
X151780216Y-85540511D01*
X151070099Y-85539891D01*
X150413800Y-85811068D01*
X149911233Y-86312759D01*
X149638911Y-86968584D01*
X149638291Y-87678701D01*
X108592314Y-87678701D01*
X108686446Y-87452009D01*
X108686754Y-87098343D01*
X108551697Y-86771480D01*
X108301836Y-86521182D01*
X107975209Y-86385554D01*
X107768272Y-86385374D01*
X107738897Y-86314280D01*
X107489036Y-86063982D01*
X107162409Y-85928354D01*
X106808743Y-85928046D01*
X106481880Y-86063103D01*
X106231582Y-86312964D01*
X106095954Y-86639591D01*
X106095646Y-86993257D01*
X93108247Y-86993257D01*
X93634368Y-85726218D01*
X93635630Y-84280126D01*
X93083400Y-82943628D01*
X92061751Y-81920194D01*
X90726218Y-81365632D01*
X89280126Y-81364370D01*
X87943628Y-81916600D01*
X86920194Y-82938249D01*
X86365632Y-84273782D01*
X86364370Y-85719874D01*
X84530000Y-85719874D01*
X84530000Y-79421975D01*
X98001003Y-79421975D01*
X98170710Y-79832695D01*
X98001397Y-80240444D01*
X98001003Y-80691975D01*
X98170710Y-81102695D01*
X98001397Y-81510444D01*
X98001003Y-81961975D01*
X98170710Y-82372695D01*
X98001397Y-82780444D01*
X98001003Y-83231975D01*
X98170710Y-83642695D01*
X98001397Y-84050444D01*
X98001003Y-84501975D01*
X98173433Y-84919286D01*
X98492435Y-85238845D01*
X98909444Y-85412003D01*
X99360975Y-85412397D01*
X99517694Y-85347642D01*
X99527128Y-85703204D01*
X100139751Y-85931062D01*
X100792939Y-85907135D01*
X101285272Y-85703204D01*
X101294444Y-85357497D01*
X126349606Y-85357497D01*
X126484663Y-85684360D01*
X126734524Y-85934658D01*
X127061151Y-86070286D01*
X127414817Y-86070594D01*
X127741680Y-85935537D01*
X127991978Y-85685676D01*
X128127606Y-85359049D01*
X128127914Y-85005383D01*
X127992857Y-84678520D01*
X127742996Y-84428222D01*
X127644246Y-84387217D01*
X129727806Y-84387217D01*
X129862863Y-84714080D01*
X130112724Y-84964378D01*
X130439351Y-85100006D01*
X130793017Y-85100314D01*
X131119880Y-84965257D01*
X131370178Y-84715396D01*
X131505806Y-84388769D01*
X131506114Y-84035103D01*
X131371057Y-83708240D01*
X131121196Y-83457942D01*
X130794569Y-83322314D01*
X130440903Y-83322006D01*
X130114040Y-83457063D01*
X129863742Y-83706924D01*
X129728114Y-84033551D01*
X129727806Y-84387217D01*
X127644246Y-84387217D01*
X127416369Y-84292594D01*
X127062703Y-84292286D01*
X126735840Y-84427343D01*
X126485542Y-84677204D01*
X126349914Y-85003831D01*
X126349606Y-85357497D01*
X101294444Y-85357497D01*
X101294766Y-85345371D01*
X100406200Y-84456805D01*
X100208482Y-84654523D01*
X100271003Y-84503956D01*
X100271265Y-84204245D01*
X100333373Y-84142137D01*
X100630975Y-84142397D01*
X100783722Y-84079283D01*
X100585805Y-84277200D01*
X101474371Y-85165766D01*
X101832204Y-85156272D01*
X102060062Y-84543649D01*
X102036135Y-83890461D01*
X101832204Y-83398128D01*
X101476749Y-83388697D01*
X101541003Y-83233956D01*
X101541238Y-82963767D01*
X108792838Y-82963767D01*
X108934883Y-83307543D01*
X109197673Y-83570792D01*
X109541201Y-83713438D01*
X109913167Y-83713762D01*
X110256943Y-83571717D01*
X110520192Y-83308927D01*
X110662838Y-82965399D01*
X110662902Y-82891157D01*
X171411746Y-82891157D01*
X171546803Y-83218020D01*
X171796664Y-83468318D01*
X172123291Y-83603946D01*
X172476957Y-83604254D01*
X172803820Y-83469197D01*
X173054118Y-83219336D01*
X173189746Y-82892709D01*
X173190054Y-82539043D01*
X173054997Y-82212180D01*
X172805136Y-81961882D01*
X172478509Y-81826254D01*
X172124843Y-81825946D01*
X171797980Y-81961003D01*
X171547682Y-82210864D01*
X171412054Y-82537491D01*
X171411746Y-82891157D01*
X110662902Y-82891157D01*
X110663162Y-82593433D01*
X110521117Y-82249657D01*
X110312083Y-82040257D01*
X112598046Y-82040257D01*
X112733103Y-82367120D01*
X112982964Y-82617418D01*
X113309591Y-82753046D01*
X113663257Y-82753354D01*
X113990120Y-82618297D01*
X114240418Y-82368436D01*
X114376046Y-82041809D01*
X114376354Y-81688143D01*
X114241297Y-81361280D01*
X114056997Y-81176657D01*
X130581246Y-81176657D01*
X130716303Y-81503520D01*
X130966164Y-81753818D01*
X131292791Y-81889446D01*
X131646457Y-81889754D01*
X131973320Y-81754697D01*
X132223618Y-81504836D01*
X132359246Y-81178209D01*
X132359554Y-80824543D01*
X132224497Y-80497680D01*
X132090908Y-80363857D01*
X169773446Y-80363857D01*
X169908503Y-80690720D01*
X170158364Y-80941018D01*
X170484991Y-81076646D01*
X170838657Y-81076954D01*
X171165520Y-80941897D01*
X171415818Y-80692036D01*
X171551446Y-80365409D01*
X171551754Y-80011743D01*
X171416697Y-79684880D01*
X171166836Y-79434582D01*
X170840209Y-79298954D01*
X170486543Y-79298646D01*
X170159680Y-79433703D01*
X169909382Y-79683564D01*
X169773754Y-80010191D01*
X169773446Y-80363857D01*
X132090908Y-80363857D01*
X131974636Y-80247382D01*
X131648009Y-80111754D01*
X131294343Y-80111446D01*
X130967480Y-80246503D01*
X130717182Y-80496364D01*
X130581554Y-80822991D01*
X130581246Y-81176657D01*
X114056997Y-81176657D01*
X113991436Y-81110982D01*
X113664809Y-80975354D01*
X113311143Y-80975046D01*
X112984280Y-81110103D01*
X112733982Y-81359964D01*
X112598354Y-81686591D01*
X112598046Y-82040257D01*
X110312083Y-82040257D01*
X110258327Y-81986408D01*
X109914799Y-81843762D01*
X109542833Y-81843438D01*
X109199057Y-81985483D01*
X108935808Y-82248273D01*
X108793162Y-82591801D01*
X108792838Y-82963767D01*
X101541238Y-82963767D01*
X101541397Y-82782425D01*
X101371690Y-82371705D01*
X101541003Y-81963956D01*
X101541397Y-81512425D01*
X101475077Y-81351917D01*
X103870606Y-81351917D01*
X104005663Y-81678780D01*
X104255524Y-81929078D01*
X104582151Y-82064706D01*
X104935817Y-82065014D01*
X105262680Y-81929957D01*
X105512978Y-81680096D01*
X105648606Y-81353469D01*
X105648914Y-80999803D01*
X105585553Y-80846457D01*
X106959246Y-80846457D01*
X107094303Y-81173320D01*
X107344164Y-81423618D01*
X107670791Y-81559246D01*
X108024457Y-81559554D01*
X108351320Y-81424497D01*
X108601618Y-81174636D01*
X108669747Y-81010565D01*
X108842073Y-81183192D01*
X109185601Y-81325838D01*
X109557567Y-81326162D01*
X109901343Y-81184117D01*
X110164592Y-80921327D01*
X110307238Y-80577799D01*
X110307562Y-80205833D01*
X110165517Y-79862057D01*
X109902727Y-79598808D01*
X109559199Y-79456162D01*
X109187233Y-79455838D01*
X108843457Y-79597883D01*
X108580208Y-79860673D01*
X108496783Y-80061581D01*
X108352636Y-79917182D01*
X108026009Y-79781554D01*
X107672343Y-79781246D01*
X107345480Y-79916303D01*
X107095182Y-80166164D01*
X106959554Y-80492791D01*
X106959246Y-80846457D01*
X105585553Y-80846457D01*
X105513857Y-80672940D01*
X105263996Y-80422642D01*
X104937369Y-80287014D01*
X104583703Y-80286706D01*
X104256840Y-80421763D01*
X104006542Y-80671624D01*
X103870914Y-80998251D01*
X103870606Y-81351917D01*
X101475077Y-81351917D01*
X101371690Y-81101705D01*
X101541003Y-80693956D01*
X101541397Y-80242425D01*
X101371690Y-79831705D01*
X101541003Y-79423956D01*
X101541397Y-78972425D01*
X101509711Y-78895737D01*
X131780126Y-78895737D01*
X131915183Y-79222600D01*
X132165044Y-79472898D01*
X132491671Y-79608526D01*
X132845337Y-79608834D01*
X133172200Y-79473777D01*
X133422498Y-79223916D01*
X133517967Y-78994000D01*
X161774600Y-78994000D01*
X161832452Y-79284839D01*
X161997199Y-79531401D01*
X162243761Y-79696148D01*
X162534600Y-79754000D01*
X162825439Y-79696148D01*
X163072001Y-79531401D01*
X163097401Y-79506001D01*
X163262148Y-79259439D01*
X163320000Y-78968600D01*
X163262148Y-78677761D01*
X163097401Y-78431199D01*
X162850839Y-78266452D01*
X162560000Y-78208600D01*
X162269161Y-78266452D01*
X162022599Y-78431199D01*
X161997199Y-78456599D01*
X161832452Y-78703161D01*
X161774600Y-78994000D01*
X133517967Y-78994000D01*
X133558126Y-78897289D01*
X133558434Y-78543623D01*
X133423377Y-78216760D01*
X133173516Y-77966462D01*
X132846889Y-77830834D01*
X132493223Y-77830526D01*
X132166360Y-77965583D01*
X131916062Y-78215444D01*
X131780434Y-78542071D01*
X131780126Y-78895737D01*
X101509711Y-78895737D01*
X101368967Y-78555114D01*
X101049965Y-78235555D01*
X100670188Y-78077857D01*
X113893446Y-78077857D01*
X114028503Y-78404720D01*
X114278364Y-78655018D01*
X114604991Y-78790646D01*
X114958657Y-78790954D01*
X115285520Y-78655897D01*
X115535818Y-78406036D01*
X115671446Y-78079409D01*
X115671597Y-77905137D01*
X129036926Y-77905137D01*
X129171983Y-78232000D01*
X129421844Y-78482298D01*
X129748471Y-78617926D01*
X130102137Y-78618234D01*
X130429000Y-78483177D01*
X130679298Y-78233316D01*
X130814926Y-77906689D01*
X130815234Y-77553023D01*
X130680177Y-77226160D01*
X130430316Y-76975862D01*
X130103689Y-76840234D01*
X129750023Y-76839926D01*
X129423160Y-76974983D01*
X129172862Y-77224844D01*
X129037234Y-77551471D01*
X129036926Y-77905137D01*
X115671597Y-77905137D01*
X115671754Y-77725743D01*
X115536697Y-77398880D01*
X115286836Y-77148582D01*
X114960209Y-77012954D01*
X114606543Y-77012646D01*
X114279680Y-77147703D01*
X114029382Y-77397564D01*
X113893754Y-77724191D01*
X113893446Y-78077857D01*
X100670188Y-78077857D01*
X100632956Y-78062397D01*
X100181425Y-78062003D01*
X99770705Y-78231710D01*
X99362956Y-78062397D01*
X98911425Y-78062003D01*
X98494114Y-78234433D01*
X98174555Y-78553435D01*
X98001397Y-78970444D01*
X98001003Y-79421975D01*
X84530000Y-79421975D01*
X84530000Y-77314216D01*
X84688770Y-77420303D01*
X85123116Y-77506700D01*
X85728364Y-77506700D01*
X86162710Y-77420303D01*
X86530930Y-77174266D01*
X86758785Y-76833257D01*
X107822846Y-76833257D01*
X107957903Y-77160120D01*
X108207764Y-77410418D01*
X108534391Y-77546046D01*
X108888057Y-77546354D01*
X109149223Y-77438442D01*
X109347191Y-77520646D01*
X109700857Y-77520954D01*
X110027720Y-77385897D01*
X110278018Y-77136036D01*
X110413646Y-76809409D01*
X110413868Y-76553857D01*
X110642246Y-76553857D01*
X110777303Y-76880720D01*
X111027164Y-77131018D01*
X111353791Y-77266646D01*
X111707457Y-77266954D01*
X111751664Y-77248688D01*
X112039591Y-77368246D01*
X112393257Y-77368554D01*
X112720120Y-77233497D01*
X112788689Y-77165048D01*
X112957564Y-77334218D01*
X113284191Y-77469846D01*
X113637857Y-77470154D01*
X113964720Y-77335097D01*
X114215018Y-77085236D01*
X114350646Y-76758609D01*
X114350726Y-76665617D01*
X136408006Y-76665617D01*
X136543063Y-76992480D01*
X136792924Y-77242778D01*
X137119551Y-77378406D01*
X137473217Y-77378714D01*
X137800080Y-77243657D01*
X138050378Y-76993796D01*
X138186006Y-76667169D01*
X138186314Y-76313503D01*
X138051257Y-75986640D01*
X137801396Y-75736342D01*
X137474769Y-75600714D01*
X137121103Y-75600406D01*
X136794240Y-75735463D01*
X136543942Y-75985324D01*
X136408314Y-76311951D01*
X136408006Y-76665617D01*
X114350726Y-76665617D01*
X114350954Y-76404943D01*
X114215897Y-76078080D01*
X114143158Y-76005214D01*
X114244120Y-75963497D01*
X114494418Y-75713636D01*
X114591971Y-75478701D01*
X149638291Y-75478701D01*
X149909468Y-76135000D01*
X150411159Y-76637567D01*
X151066984Y-76909889D01*
X151777101Y-76910509D01*
X152182772Y-76742889D01*
X170853743Y-76742889D01*
X171079344Y-77288886D01*
X171496717Y-77706988D01*
X172042319Y-77933542D01*
X172633089Y-77934057D01*
X173179086Y-77708456D01*
X173597188Y-77291083D01*
X173823742Y-76745481D01*
X173824257Y-76154711D01*
X173598656Y-75608714D01*
X173181283Y-75190612D01*
X173134354Y-75171125D01*
X177863587Y-75171125D01*
X178225916Y-76048029D01*
X178896242Y-76719526D01*
X179772513Y-77083385D01*
X180721325Y-77084213D01*
X181598229Y-76721884D01*
X182269726Y-76051558D01*
X182633585Y-75175287D01*
X182634413Y-74226475D01*
X182272084Y-73349571D01*
X181601758Y-72678074D01*
X180725487Y-72314215D01*
X179776675Y-72313387D01*
X178899771Y-72675716D01*
X178228274Y-73346042D01*
X177864415Y-74222313D01*
X177863587Y-75171125D01*
X173134354Y-75171125D01*
X172635681Y-74964058D01*
X172044911Y-74963543D01*
X171498914Y-75189144D01*
X171080812Y-75606517D01*
X170854258Y-76152119D01*
X170853743Y-76742889D01*
X152182772Y-76742889D01*
X152433400Y-76639332D01*
X152935967Y-76137641D01*
X153208289Y-75481816D01*
X153208909Y-74771699D01*
X153001674Y-74270150D01*
X171197255Y-74270150D01*
X171249674Y-74664194D01*
X171989047Y-74950484D01*
X172781697Y-74932035D01*
X173428326Y-74664194D01*
X173480745Y-74270150D01*
X172339000Y-73128405D01*
X171197255Y-74270150D01*
X153001674Y-74270150D01*
X152937732Y-74115400D01*
X152436041Y-73612833D01*
X151780216Y-73340511D01*
X151070099Y-73339891D01*
X150413800Y-73611068D01*
X149911233Y-74112759D01*
X149638911Y-74768584D01*
X149638291Y-75478701D01*
X114591971Y-75478701D01*
X114630046Y-75387009D01*
X114630354Y-75033343D01*
X114495297Y-74706480D01*
X114245436Y-74456182D01*
X113918809Y-74320554D01*
X113565143Y-74320246D01*
X113238280Y-74455303D01*
X112987982Y-74705164D01*
X112852354Y-75031791D01*
X112852046Y-75385457D01*
X112987103Y-75712320D01*
X113059842Y-75785186D01*
X112958880Y-75826903D01*
X112890311Y-75895352D01*
X112721436Y-75726182D01*
X112394809Y-75590554D01*
X112041143Y-75590246D01*
X111996936Y-75608512D01*
X111709009Y-75488954D01*
X111355343Y-75488646D01*
X111028480Y-75623703D01*
X110778182Y-75873564D01*
X110642554Y-76200191D01*
X110642246Y-76553857D01*
X110413868Y-76553857D01*
X110413954Y-76455743D01*
X110278897Y-76128880D01*
X110029036Y-75878582D01*
X109702409Y-75742954D01*
X109348743Y-75742646D01*
X109087577Y-75850558D01*
X108889609Y-75768354D01*
X108535943Y-75768046D01*
X108209080Y-75903103D01*
X107958782Y-76152964D01*
X107823154Y-76479591D01*
X107822846Y-76833257D01*
X86758785Y-76833257D01*
X86776967Y-76806046D01*
X86863364Y-76371700D01*
X86776967Y-75937354D01*
X86530930Y-75569134D01*
X86162710Y-75323097D01*
X85728364Y-75236700D01*
X85123116Y-75236700D01*
X84688770Y-75323097D01*
X84530000Y-75429184D01*
X84530000Y-75197015D01*
X87015740Y-75197015D01*
X87015740Y-75546385D01*
X87100234Y-75971164D01*
X87340851Y-76331274D01*
X87700961Y-76571891D01*
X88125740Y-76656385D01*
X88550519Y-76571891D01*
X88910629Y-76331274D01*
X89151246Y-75971164D01*
X89235740Y-75546385D01*
X89235740Y-75410857D01*
X105562246Y-75410857D01*
X105697303Y-75737720D01*
X105947164Y-75988018D01*
X106273791Y-76123646D01*
X106627457Y-76123954D01*
X106954320Y-75988897D01*
X107204618Y-75739036D01*
X107340246Y-75412409D01*
X107340554Y-75058743D01*
X107205497Y-74731880D01*
X106955636Y-74481582D01*
X106629009Y-74345954D01*
X106275343Y-74345646D01*
X105948480Y-74480703D01*
X105698182Y-74730564D01*
X105562554Y-75057191D01*
X105562246Y-75410857D01*
X89235740Y-75410857D01*
X89235740Y-75197015D01*
X89151246Y-74772236D01*
X88910629Y-74412126D01*
X88808757Y-74344057D01*
X89331646Y-74344057D01*
X89466703Y-74670920D01*
X89716564Y-74921218D01*
X90043191Y-75056846D01*
X90396857Y-75057154D01*
X90723720Y-74922097D01*
X90974018Y-74672236D01*
X91047008Y-74496457D01*
X98323246Y-74496457D01*
X98458303Y-74823320D01*
X98708164Y-75073618D01*
X99034791Y-75209246D01*
X99388457Y-75209554D01*
X99715320Y-75074497D01*
X99965618Y-74824636D01*
X100101246Y-74498009D01*
X100101554Y-74144343D01*
X99966497Y-73817480D01*
X99716636Y-73567182D01*
X99390009Y-73431554D01*
X99036343Y-73431246D01*
X98709480Y-73566303D01*
X98459182Y-73816164D01*
X98323554Y-74142791D01*
X98323246Y-74496457D01*
X91047008Y-74496457D01*
X91109646Y-74345609D01*
X91109954Y-73991943D01*
X90974897Y-73665080D01*
X90725036Y-73414782D01*
X90398409Y-73279154D01*
X90044743Y-73278846D01*
X89717880Y-73413903D01*
X89467582Y-73663764D01*
X89331954Y-73990391D01*
X89331646Y-74344057D01*
X88808757Y-74344057D01*
X88550519Y-74171509D01*
X88125740Y-74087015D01*
X87700961Y-74171509D01*
X87340851Y-74412126D01*
X87100234Y-74772236D01*
X87015740Y-75197015D01*
X84530000Y-75197015D01*
X84530000Y-71867557D01*
X99021746Y-71867557D01*
X99156803Y-72194420D01*
X99406664Y-72444718D01*
X99733291Y-72580346D01*
X100086957Y-72580654D01*
X100413820Y-72445597D01*
X100664118Y-72195736D01*
X100799746Y-71869109D01*
X100799769Y-71842157D01*
X101396646Y-71842157D01*
X101531703Y-72169020D01*
X101781564Y-72419318D01*
X102108191Y-72554946D01*
X102461857Y-72555254D01*
X102788720Y-72420197D01*
X102998826Y-72210457D01*
X105841646Y-72210457D01*
X105905326Y-72364575D01*
X105841954Y-72517191D01*
X105841646Y-72870857D01*
X105905326Y-73024975D01*
X105841954Y-73177591D01*
X105841646Y-73531257D01*
X105976703Y-73858120D01*
X106226564Y-74108418D01*
X106553191Y-74244046D01*
X106906857Y-74244354D01*
X107233720Y-74109297D01*
X107484018Y-73859436D01*
X107619646Y-73532809D01*
X107619954Y-73179143D01*
X107556274Y-73025025D01*
X107619646Y-72872409D01*
X107619954Y-72518743D01*
X107556274Y-72364625D01*
X107619646Y-72212009D01*
X107619954Y-71858343D01*
X107484897Y-71531480D01*
X107235036Y-71281182D01*
X106908409Y-71145554D01*
X106554743Y-71145246D01*
X106227880Y-71280303D01*
X105977582Y-71530164D01*
X105841954Y-71856791D01*
X105841646Y-72210457D01*
X102998826Y-72210457D01*
X103039018Y-72170336D01*
X103174646Y-71843709D01*
X103174954Y-71490043D01*
X103039897Y-71163180D01*
X102790036Y-70912882D01*
X102463409Y-70777254D01*
X102109743Y-70776946D01*
X101782880Y-70912003D01*
X101532582Y-71161864D01*
X101396954Y-71488491D01*
X101396646Y-71842157D01*
X100799769Y-71842157D01*
X100800054Y-71515443D01*
X100664997Y-71188580D01*
X100415136Y-70938282D01*
X100088509Y-70802654D01*
X99734843Y-70802346D01*
X99407980Y-70937403D01*
X99157682Y-71187264D01*
X99022054Y-71513891D01*
X99021746Y-71867557D01*
X84530000Y-71867557D01*
X84530000Y-70314216D01*
X84688770Y-70420303D01*
X85123116Y-70506700D01*
X85728364Y-70506700D01*
X86162710Y-70420303D01*
X86496883Y-70197015D01*
X87015740Y-70197015D01*
X87015740Y-70546385D01*
X87100234Y-70971164D01*
X87340851Y-71331274D01*
X87700961Y-71571891D01*
X88125740Y-71656385D01*
X88550519Y-71571891D01*
X88910629Y-71331274D01*
X89151246Y-70971164D01*
X89235740Y-70546385D01*
X89235740Y-70197015D01*
X89151246Y-69772236D01*
X88910629Y-69412126D01*
X88550519Y-69171509D01*
X88125740Y-69087015D01*
X87700961Y-69171509D01*
X87340851Y-69412126D01*
X87100234Y-69772236D01*
X87015740Y-70197015D01*
X86496883Y-70197015D01*
X86530930Y-70174266D01*
X86776967Y-69806046D01*
X86863364Y-69371700D01*
X86776967Y-68937354D01*
X86530930Y-68569134D01*
X86162710Y-68323097D01*
X85728364Y-68236700D01*
X85123116Y-68236700D01*
X84688770Y-68323097D01*
X84530000Y-68429184D01*
X84530000Y-68159157D01*
X98907446Y-68159157D01*
X99042503Y-68486020D01*
X99047364Y-68490889D01*
X99043382Y-68494864D01*
X98907754Y-68821491D01*
X98907446Y-69175157D01*
X99042503Y-69502020D01*
X99292364Y-69752318D01*
X99618991Y-69887946D01*
X99972657Y-69888254D01*
X100299520Y-69753197D01*
X100549818Y-69503336D01*
X100685446Y-69176709D01*
X100685754Y-68823043D01*
X100550697Y-68496180D01*
X100545836Y-68491311D01*
X100549818Y-68487336D01*
X100606987Y-68349657D01*
X104393846Y-68349657D01*
X104528903Y-68676520D01*
X104540403Y-68688040D01*
X104432254Y-68948491D01*
X104431946Y-69302157D01*
X104567003Y-69629020D01*
X104816864Y-69879318D01*
X104865176Y-69899379D01*
X104859982Y-69904564D01*
X104724354Y-70231191D01*
X104724046Y-70584857D01*
X104859103Y-70911720D01*
X105108964Y-71162018D01*
X105435591Y-71297646D01*
X105789257Y-71297954D01*
X106116120Y-71162897D01*
X106211726Y-71067457D01*
X112953646Y-71067457D01*
X113088703Y-71394320D01*
X113320708Y-71626730D01*
X113309554Y-71653591D01*
X113309246Y-72007257D01*
X113444303Y-72334120D01*
X113694164Y-72584418D01*
X114020791Y-72720046D01*
X114374457Y-72720354D01*
X114701320Y-72585297D01*
X114951618Y-72335436D01*
X114982419Y-72261257D01*
X116331846Y-72261257D01*
X116466903Y-72588120D01*
X116716764Y-72838418D01*
X116865309Y-72900100D01*
X116865246Y-72972457D01*
X117000303Y-73299320D01*
X117250164Y-73549618D01*
X117576791Y-73685246D01*
X117930457Y-73685554D01*
X118033404Y-73643017D01*
X125364086Y-73643017D01*
X125499143Y-73969880D01*
X125749004Y-74220178D01*
X126075631Y-74355806D01*
X126429297Y-74356114D01*
X126756160Y-74221057D01*
X127006458Y-73971196D01*
X127142086Y-73644569D01*
X127142394Y-73290903D01*
X127124162Y-73246777D01*
X130515206Y-73246777D01*
X130650263Y-73573640D01*
X130900124Y-73823938D01*
X131226751Y-73959566D01*
X131580417Y-73959874D01*
X131907280Y-73824817D01*
X132157578Y-73574956D01*
X132293206Y-73248329D01*
X132293514Y-72894663D01*
X132171286Y-72598847D01*
X170337316Y-72598847D01*
X170355765Y-73391497D01*
X170623606Y-74038126D01*
X171017650Y-74090545D01*
X172159395Y-72948800D01*
X172518605Y-72948800D01*
X173660350Y-74090545D01*
X174054394Y-74038126D01*
X174340684Y-73298753D01*
X174322235Y-72506103D01*
X174054394Y-71859474D01*
X173660350Y-71807055D01*
X172518605Y-72948800D01*
X172159395Y-72948800D01*
X171017650Y-71807055D01*
X170623606Y-71859474D01*
X170337316Y-72598847D01*
X132171286Y-72598847D01*
X132158457Y-72567800D01*
X131908596Y-72317502D01*
X131581969Y-72181874D01*
X131228303Y-72181566D01*
X130901440Y-72316623D01*
X130651142Y-72566484D01*
X130515514Y-72893111D01*
X130515206Y-73246777D01*
X127124162Y-73246777D01*
X127007337Y-72964040D01*
X126757476Y-72713742D01*
X126430849Y-72578114D01*
X126077183Y-72577806D01*
X125750320Y-72712863D01*
X125500022Y-72962724D01*
X125364394Y-73289351D01*
X125364086Y-73643017D01*
X118033404Y-73643017D01*
X118257320Y-73550497D01*
X118507618Y-73300636D01*
X118643246Y-72974009D01*
X118643554Y-72620343D01*
X118508497Y-72293480D01*
X118258636Y-72043182D01*
X118222742Y-72028277D01*
X127591623Y-72028277D01*
X127726680Y-72355140D01*
X127976541Y-72605438D01*
X128303168Y-72741066D01*
X128656834Y-72741374D01*
X128983697Y-72606317D01*
X129233995Y-72356456D01*
X129369623Y-72029829D01*
X129369931Y-71676163D01*
X129265350Y-71423057D01*
X141249246Y-71423057D01*
X141384303Y-71749920D01*
X141634164Y-72000218D01*
X141960791Y-72135846D01*
X142314457Y-72136154D01*
X142641320Y-72001097D01*
X142891618Y-71751236D01*
X142943018Y-71627450D01*
X171197255Y-71627450D01*
X172339000Y-72769195D01*
X173480745Y-71627450D01*
X173428326Y-71233406D01*
X172688953Y-70947116D01*
X171896303Y-70965565D01*
X171249674Y-71233406D01*
X171197255Y-71627450D01*
X142943018Y-71627450D01*
X143027246Y-71424609D01*
X143027554Y-71070943D01*
X142971282Y-70934754D01*
X143052646Y-70738809D01*
X143052954Y-70385143D01*
X142917897Y-70058280D01*
X142835019Y-69975257D01*
X171272046Y-69975257D01*
X171407103Y-70302120D01*
X171656964Y-70552418D01*
X171983591Y-70688046D01*
X172337257Y-70688354D01*
X172664120Y-70553297D01*
X172914418Y-70303436D01*
X173050046Y-69976809D01*
X173050354Y-69623143D01*
X172915297Y-69296280D01*
X172665436Y-69045982D01*
X172338809Y-68910354D01*
X171985143Y-68910046D01*
X171658280Y-69045103D01*
X171407982Y-69294964D01*
X171272354Y-69621591D01*
X171272046Y-69975257D01*
X142835019Y-69975257D01*
X142668036Y-69807982D01*
X142341409Y-69672354D01*
X141987743Y-69672046D01*
X141660880Y-69807103D01*
X141410582Y-70056964D01*
X141274954Y-70383591D01*
X141274646Y-70737257D01*
X141330918Y-70873446D01*
X141249554Y-71069391D01*
X141249246Y-71423057D01*
X129265350Y-71423057D01*
X129234874Y-71349300D01*
X128985013Y-71099002D01*
X128658386Y-70963374D01*
X128304720Y-70963066D01*
X127977857Y-71098123D01*
X127727559Y-71347984D01*
X127591931Y-71674611D01*
X127591623Y-72028277D01*
X118222742Y-72028277D01*
X118110091Y-71981500D01*
X118110154Y-71909143D01*
X117975097Y-71582280D01*
X117725236Y-71331982D01*
X117398609Y-71196354D01*
X117044943Y-71196046D01*
X116718080Y-71331103D01*
X116467782Y-71580964D01*
X116332154Y-71907591D01*
X116331846Y-72261257D01*
X114982419Y-72261257D01*
X115087246Y-72008809D01*
X115087554Y-71655143D01*
X114952497Y-71328280D01*
X114720492Y-71095870D01*
X114731646Y-71069009D01*
X114731954Y-70715343D01*
X114596897Y-70388480D01*
X114347036Y-70138182D01*
X114020409Y-70002554D01*
X113666743Y-70002246D01*
X113339880Y-70137303D01*
X113089582Y-70387164D01*
X112953954Y-70713791D01*
X112953646Y-71067457D01*
X106211726Y-71067457D01*
X106366418Y-70913036D01*
X106502046Y-70586409D01*
X106502354Y-70232743D01*
X106395963Y-69975257D01*
X110083446Y-69975257D01*
X110218503Y-70302120D01*
X110468364Y-70552418D01*
X110794991Y-70688046D01*
X111148657Y-70688354D01*
X111475520Y-70553297D01*
X111725818Y-70303436D01*
X111861446Y-69976809D01*
X111861754Y-69623143D01*
X111726697Y-69296280D01*
X111476836Y-69045982D01*
X111150209Y-68910354D01*
X110796543Y-68910046D01*
X110469680Y-69045103D01*
X110219382Y-69294964D01*
X110083754Y-69621591D01*
X110083446Y-69975257D01*
X106395963Y-69975257D01*
X106367297Y-69905880D01*
X106117436Y-69655582D01*
X106069124Y-69635521D01*
X106074318Y-69630336D01*
X106209946Y-69303709D01*
X106210254Y-68950043D01*
X106119606Y-68730657D01*
X112902846Y-68730657D01*
X113037903Y-69057520D01*
X113287764Y-69307818D01*
X113614391Y-69443446D01*
X113968057Y-69443754D01*
X114294920Y-69308697D01*
X114517749Y-69086257D01*
X116204846Y-69086257D01*
X116339903Y-69413120D01*
X116589764Y-69663418D01*
X116916391Y-69799046D01*
X117270057Y-69799354D01*
X117596920Y-69664297D01*
X117847218Y-69414436D01*
X117982846Y-69087809D01*
X117983154Y-68734143D01*
X117887259Y-68502057D01*
X122148446Y-68502057D01*
X122283503Y-68828920D01*
X122533364Y-69079218D01*
X122859991Y-69214846D01*
X123213657Y-69215154D01*
X123540520Y-69080097D01*
X123790818Y-68830236D01*
X123926446Y-68503609D01*
X123926754Y-68149943D01*
X123791697Y-67823080D01*
X123541836Y-67572782D01*
X123215209Y-67437154D01*
X122861543Y-67436846D01*
X122534680Y-67571903D01*
X122284382Y-67821764D01*
X122148754Y-68148391D01*
X122148446Y-68502057D01*
X117887259Y-68502057D01*
X117848097Y-68407280D01*
X117598236Y-68156982D01*
X117271609Y-68021354D01*
X116917943Y-68021046D01*
X116591080Y-68156103D01*
X116340782Y-68405964D01*
X116205154Y-68732591D01*
X116204846Y-69086257D01*
X114517749Y-69086257D01*
X114545218Y-69058836D01*
X114680846Y-68732209D01*
X114681154Y-68378543D01*
X114546097Y-68051680D01*
X114296236Y-67801382D01*
X113969609Y-67665754D01*
X113615943Y-67665446D01*
X113289080Y-67800503D01*
X113038782Y-68050364D01*
X112903154Y-68376991D01*
X112902846Y-68730657D01*
X106119606Y-68730657D01*
X106075197Y-68623180D01*
X106063697Y-68611660D01*
X106171846Y-68351209D01*
X106172154Y-67997543D01*
X106151823Y-67948337D01*
X107010046Y-67948337D01*
X107145103Y-68275200D01*
X107394964Y-68525498D01*
X107721591Y-68661126D01*
X108075257Y-68661434D01*
X108233142Y-68596197D01*
X108420091Y-68673826D01*
X108773757Y-68674134D01*
X109100620Y-68539077D01*
X109350918Y-68289216D01*
X109486546Y-67962589D01*
X109486854Y-67608923D01*
X109351797Y-67282060D01*
X109134534Y-67064417D01*
X126517246Y-67064417D01*
X126640896Y-67363672D01*
X126517554Y-67660711D01*
X126517246Y-68014377D01*
X126652303Y-68341240D01*
X126902164Y-68591538D01*
X127228791Y-68727166D01*
X127582457Y-68727474D01*
X127909320Y-68592417D01*
X127999838Y-68502057D01*
X129158846Y-68502057D01*
X129290913Y-68821683D01*
X129159154Y-69138991D01*
X129158846Y-69492657D01*
X129293903Y-69819520D01*
X129543764Y-70069818D01*
X129870391Y-70205446D01*
X130224057Y-70205754D01*
X130550920Y-70070697D01*
X130801218Y-69820836D01*
X130936846Y-69494209D01*
X130937154Y-69140543D01*
X130805087Y-68820917D01*
X130936846Y-68503609D01*
X130937154Y-68149943D01*
X130802097Y-67823080D01*
X130552236Y-67572782D01*
X130225609Y-67437154D01*
X129871943Y-67436846D01*
X129545080Y-67571903D01*
X129294782Y-67821764D01*
X129159154Y-68148391D01*
X129158846Y-68502057D01*
X127999838Y-68502057D01*
X128159618Y-68342556D01*
X128295246Y-68015929D01*
X128295554Y-67662263D01*
X128171904Y-67363008D01*
X128226279Y-67232057D01*
X131165446Y-67232057D01*
X131300503Y-67558920D01*
X131550364Y-67809218D01*
X131876991Y-67944846D01*
X132230657Y-67945154D01*
X132557520Y-67810097D01*
X132807818Y-67560236D01*
X132859714Y-67435257D01*
X169494046Y-67435257D01*
X169629103Y-67762120D01*
X169878964Y-68012418D01*
X170205591Y-68148046D01*
X170559257Y-68148354D01*
X170886120Y-68013297D01*
X171136418Y-67763436D01*
X171272046Y-67436809D01*
X171272354Y-67083143D01*
X171137297Y-66756280D01*
X170887436Y-66505982D01*
X170560809Y-66370354D01*
X170207143Y-66370046D01*
X169880280Y-66505103D01*
X169629982Y-66754964D01*
X169494354Y-67081591D01*
X169494046Y-67435257D01*
X132859714Y-67435257D01*
X132943446Y-67233609D01*
X132943754Y-66879943D01*
X132808697Y-66553080D01*
X132558836Y-66302782D01*
X132232209Y-66167154D01*
X131878543Y-66166846D01*
X131551680Y-66301903D01*
X131301382Y-66551764D01*
X131165754Y-66878391D01*
X131165446Y-67232057D01*
X128226279Y-67232057D01*
X128295246Y-67065969D01*
X128295554Y-66712303D01*
X128160497Y-66385440D01*
X127910636Y-66135142D01*
X127584009Y-65999514D01*
X127230343Y-65999206D01*
X126903480Y-66134263D01*
X126653182Y-66384124D01*
X126517554Y-66710751D01*
X126517246Y-67064417D01*
X109134534Y-67064417D01*
X109101936Y-67031762D01*
X108775309Y-66896134D01*
X108421643Y-66895826D01*
X108263758Y-66961063D01*
X108076809Y-66883434D01*
X107723143Y-66883126D01*
X107396280Y-67018183D01*
X107145982Y-67268044D01*
X107010354Y-67594671D01*
X107010046Y-67948337D01*
X106151823Y-67948337D01*
X106037097Y-67670680D01*
X105787236Y-67420382D01*
X105460609Y-67284754D01*
X105106943Y-67284446D01*
X104780080Y-67419503D01*
X104529782Y-67669364D01*
X104394154Y-67995991D01*
X104393846Y-68349657D01*
X100606987Y-68349657D01*
X100685446Y-68160709D01*
X100685754Y-67807043D01*
X100550697Y-67480180D01*
X100300836Y-67229882D01*
X99974209Y-67094254D01*
X99620543Y-67093946D01*
X99293680Y-67229003D01*
X99043382Y-67478864D01*
X98907754Y-67805491D01*
X98907446Y-68159157D01*
X84530000Y-68159157D01*
X84530000Y-66457357D01*
X100596546Y-66457357D01*
X100731603Y-66784220D01*
X100981464Y-67034518D01*
X101308091Y-67170146D01*
X101661757Y-67170454D01*
X101988620Y-67035397D01*
X102238918Y-66785536D01*
X102310507Y-66613132D01*
X102336791Y-66624046D01*
X102690457Y-66624354D01*
X103017320Y-66489297D01*
X103267618Y-66239436D01*
X103403246Y-65912809D01*
X103403554Y-65559143D01*
X103268497Y-65232280D01*
X103018636Y-64981982D01*
X102692009Y-64846354D01*
X102338343Y-64846046D01*
X102011480Y-64981103D01*
X101761182Y-65230964D01*
X101689593Y-65403368D01*
X101663309Y-65392454D01*
X101309643Y-65392146D01*
X100982780Y-65527203D01*
X100732482Y-65777064D01*
X100596854Y-66103691D01*
X100596546Y-66457357D01*
X84530000Y-66457357D01*
X84530000Y-65495321D01*
X84556791Y-65506446D01*
X84910457Y-65506754D01*
X85237320Y-65371697D01*
X85487618Y-65121836D01*
X85623246Y-64795209D01*
X85623554Y-64441543D01*
X85488497Y-64114680D01*
X85238636Y-63864382D01*
X85187355Y-63843088D01*
X98583250Y-63843088D01*
X98718307Y-64169951D01*
X98968168Y-64420249D01*
X99294795Y-64555877D01*
X99648461Y-64556185D01*
X99975324Y-64421128D01*
X100225622Y-64171267D01*
X100361250Y-63844640D01*
X100361558Y-63490974D01*
X100226501Y-63164111D01*
X99976640Y-62913813D01*
X99650013Y-62778185D01*
X99296347Y-62777877D01*
X98969484Y-62912934D01*
X98719186Y-63162795D01*
X98583558Y-63489422D01*
X98583250Y-63843088D01*
X85187355Y-63843088D01*
X84912009Y-63728754D01*
X84558343Y-63728446D01*
X84530000Y-63740157D01*
X84530000Y-62710857D01*
X96977046Y-62710857D01*
X97112103Y-63037720D01*
X97361964Y-63288018D01*
X97688591Y-63423646D01*
X98042257Y-63423954D01*
X98369120Y-63288897D01*
X98619418Y-63039036D01*
X98755046Y-62712409D01*
X98755354Y-62358743D01*
X98620297Y-62031880D01*
X98512064Y-61923457D01*
X108838846Y-61923457D01*
X108960392Y-62217620D01*
X108839154Y-62509591D01*
X108838846Y-62863257D01*
X108973903Y-63190120D01*
X109223764Y-63440418D01*
X109550391Y-63576046D01*
X109689929Y-63576168D01*
X109626554Y-63728791D01*
X109626246Y-64082457D01*
X109761303Y-64409320D01*
X110011164Y-64659618D01*
X110235781Y-64752888D01*
X110303723Y-64917320D01*
X110553584Y-65167618D01*
X110676321Y-65218583D01*
X110803723Y-65526920D01*
X111053584Y-65777218D01*
X111380211Y-65912846D01*
X111733877Y-65913154D01*
X112060740Y-65778097D01*
X112311038Y-65528236D01*
X112446666Y-65201609D01*
X112446974Y-64847943D01*
X112311917Y-64521080D01*
X112062056Y-64270782D01*
X111939319Y-64219817D01*
X111811917Y-63911480D01*
X111562056Y-63661182D01*
X111337439Y-63567912D01*
X111269497Y-63403480D01*
X111019636Y-63153182D01*
X110693009Y-63017554D01*
X110553471Y-63017432D01*
X110616846Y-62864809D01*
X110616847Y-62863257D01*
X114147446Y-62863257D01*
X114282503Y-63190120D01*
X114532364Y-63440418D01*
X114858991Y-63576046D01*
X115212657Y-63576354D01*
X115539520Y-63441297D01*
X115787793Y-63193457D01*
X127939646Y-63193457D01*
X128074703Y-63520320D01*
X128324564Y-63770618D01*
X128651191Y-63906246D01*
X129004857Y-63906554D01*
X129331720Y-63771497D01*
X129582018Y-63521636D01*
X129717646Y-63195009D01*
X129717954Y-62841343D01*
X129582897Y-62514480D01*
X129333036Y-62264182D01*
X129006409Y-62128554D01*
X128652743Y-62128246D01*
X128325880Y-62263303D01*
X128075582Y-62513164D01*
X127939954Y-62839791D01*
X127939646Y-63193457D01*
X115787793Y-63193457D01*
X115789818Y-63191436D01*
X115925446Y-62864809D01*
X115925754Y-62511143D01*
X115824979Y-62267248D01*
X115840618Y-62251636D01*
X115908052Y-62089239D01*
X116001991Y-62128246D01*
X116355657Y-62128554D01*
X116682520Y-61993497D01*
X116932818Y-61743636D01*
X117068446Y-61417009D01*
X117068754Y-61063343D01*
X117014839Y-60932857D01*
X164109246Y-60932857D01*
X164244303Y-61259720D01*
X164494164Y-61510018D01*
X164820791Y-61645646D01*
X165174457Y-61645954D01*
X165501320Y-61510897D01*
X165751618Y-61261036D01*
X165887246Y-60934409D01*
X165887554Y-60580743D01*
X165752497Y-60253880D01*
X165502636Y-60003582D01*
X165176009Y-59867954D01*
X164822343Y-59867646D01*
X164495480Y-60002703D01*
X164245182Y-60252564D01*
X164109554Y-60579191D01*
X164109246Y-60932857D01*
X117014839Y-60932857D01*
X116933697Y-60736480D01*
X116683836Y-60486182D01*
X116357209Y-60350554D01*
X116003543Y-60350246D01*
X115676680Y-60485303D01*
X115426382Y-60735164D01*
X115358948Y-60897561D01*
X115265009Y-60858554D01*
X114911343Y-60858246D01*
X114584480Y-60993303D01*
X114334182Y-61243164D01*
X114198554Y-61569791D01*
X114198246Y-61923457D01*
X114299021Y-62167352D01*
X114283382Y-62182964D01*
X114147754Y-62509591D01*
X114147446Y-62863257D01*
X110616847Y-62863257D01*
X110617154Y-62511143D01*
X110495608Y-62216980D01*
X110616846Y-61925009D01*
X110617154Y-61571343D01*
X110523783Y-61345368D01*
X110582818Y-61286436D01*
X110718446Y-60959809D01*
X110718754Y-60606143D01*
X110583697Y-60279280D01*
X110333836Y-60028982D01*
X110007209Y-59893354D01*
X109653543Y-59893046D01*
X109326680Y-60028103D01*
X109076382Y-60277964D01*
X108940754Y-60604591D01*
X108940446Y-60958257D01*
X109033817Y-61184232D01*
X108974782Y-61243164D01*
X108839154Y-61569791D01*
X108838846Y-61923457D01*
X98512064Y-61923457D01*
X98370436Y-61781582D01*
X98043809Y-61645954D01*
X97690143Y-61645646D01*
X97363280Y-61780703D01*
X97112982Y-62030564D01*
X96977354Y-62357191D01*
X96977046Y-62710857D01*
X84530000Y-62710857D01*
X84530000Y-60374057D01*
X97053246Y-60374057D01*
X97188303Y-60700920D01*
X97438164Y-60951218D01*
X97764791Y-61086846D01*
X98118457Y-61087154D01*
X98445320Y-60952097D01*
X98695618Y-60702236D01*
X98831246Y-60375609D01*
X98831554Y-60021943D01*
X98767144Y-59866057D01*
X112801246Y-59866057D01*
X112936303Y-60192920D01*
X113186164Y-60443218D01*
X113512791Y-60578846D01*
X113866457Y-60579154D01*
X114193320Y-60444097D01*
X114443618Y-60194236D01*
X114579246Y-59867609D01*
X114579554Y-59513943D01*
X114444497Y-59187080D01*
X114194636Y-58936782D01*
X113868009Y-58801154D01*
X113514343Y-58800846D01*
X113187480Y-58935903D01*
X112937182Y-59185764D01*
X112801554Y-59512391D01*
X112801246Y-59866057D01*
X98767144Y-59866057D01*
X98696497Y-59695080D01*
X98446636Y-59444782D01*
X98120009Y-59309154D01*
X97766343Y-59308846D01*
X97439480Y-59443903D01*
X97189182Y-59693764D01*
X97053554Y-60020391D01*
X97053246Y-60374057D01*
X84530000Y-60374057D01*
X84530000Y-58418257D01*
X94945046Y-58418257D01*
X95080103Y-58745120D01*
X95329964Y-58995418D01*
X95656591Y-59131046D01*
X96010257Y-59131354D01*
X96337120Y-58996297D01*
X96587418Y-58746436D01*
X96723046Y-58419809D01*
X96723246Y-58189657D01*
X136728046Y-58189657D01*
X136863103Y-58516520D01*
X137112964Y-58766818D01*
X137439591Y-58902446D01*
X137793257Y-58902754D01*
X138120120Y-58767697D01*
X138370418Y-58517836D01*
X138506046Y-58191209D01*
X138506354Y-57837543D01*
X138371297Y-57510680D01*
X138121436Y-57260382D01*
X138096090Y-57249857D01*
X152958646Y-57249857D01*
X153093703Y-57576720D01*
X153343564Y-57827018D01*
X153670191Y-57962646D01*
X154023857Y-57962954D01*
X154350720Y-57827897D01*
X154601018Y-57578036D01*
X154736646Y-57251409D01*
X154736954Y-56897743D01*
X154601897Y-56570880D01*
X154352036Y-56320582D01*
X154025409Y-56184954D01*
X153671743Y-56184646D01*
X153344880Y-56319703D01*
X153094582Y-56569564D01*
X152958954Y-56896191D01*
X152958646Y-57249857D01*
X138096090Y-57249857D01*
X137794809Y-57124754D01*
X137441143Y-57124446D01*
X137114280Y-57259503D01*
X136863982Y-57509364D01*
X136728354Y-57835991D01*
X136728046Y-58189657D01*
X96723246Y-58189657D01*
X96723354Y-58066143D01*
X96588297Y-57739280D01*
X96338436Y-57488982D01*
X96011809Y-57353354D01*
X95658143Y-57353046D01*
X95331280Y-57488103D01*
X95080982Y-57737964D01*
X94945354Y-58064591D01*
X94945046Y-58418257D01*
X84530000Y-58418257D01*
X84530000Y-57046657D01*
X97104046Y-57046657D01*
X97239103Y-57373520D01*
X97488964Y-57623818D01*
X97815591Y-57759446D01*
X98169257Y-57759754D01*
X98496120Y-57624697D01*
X98746418Y-57374836D01*
X98750852Y-57364157D01*
X100334926Y-57364157D01*
X100469983Y-57691020D01*
X100719844Y-57941318D01*
X101046471Y-58076946D01*
X101400137Y-58077254D01*
X101727000Y-57942197D01*
X101977298Y-57692336D01*
X102112926Y-57365709D01*
X102113234Y-57012043D01*
X101978177Y-56685180D01*
X101728316Y-56434882D01*
X101401689Y-56299254D01*
X101048023Y-56298946D01*
X100721160Y-56434003D01*
X100470862Y-56683864D01*
X100335234Y-57010491D01*
X100334926Y-57364157D01*
X98750852Y-57364157D01*
X98882046Y-57048209D01*
X98882354Y-56694543D01*
X98747297Y-56367680D01*
X98497436Y-56117382D01*
X98170809Y-55981754D01*
X97817143Y-55981446D01*
X97490280Y-56116503D01*
X97239982Y-56366364D01*
X97104354Y-56692991D01*
X97104046Y-57046657D01*
X84530000Y-57046657D01*
X84530000Y-54939468D01*
X84531391Y-54940046D01*
X84885057Y-54940354D01*
X85211920Y-54805297D01*
X85462218Y-54555436D01*
X85597846Y-54228809D01*
X85598154Y-53875143D01*
X85586219Y-53846257D01*
X112166246Y-53846257D01*
X112301303Y-54173120D01*
X112551164Y-54423418D01*
X112877791Y-54559046D01*
X113231457Y-54559354D01*
X113558320Y-54424297D01*
X113808618Y-54174436D01*
X113944246Y-53847809D01*
X113944554Y-53494143D01*
X113940135Y-53483446D01*
X120836690Y-53483446D01*
X120836690Y-55076154D01*
X120942354Y-55607361D01*
X121243258Y-56057696D01*
X121693593Y-56358600D01*
X122224800Y-56464264D01*
X122756007Y-56358600D01*
X123206342Y-56057696D01*
X123494800Y-55625988D01*
X123783258Y-56057696D01*
X124233593Y-56358600D01*
X124764800Y-56464264D01*
X125296007Y-56358600D01*
X125746342Y-56057696D01*
X126047246Y-55607361D01*
X126152910Y-55076154D01*
X126152910Y-53483446D01*
X126551690Y-53483446D01*
X126551690Y-55076154D01*
X126657354Y-55607361D01*
X126958258Y-56057696D01*
X127408593Y-56358600D01*
X127939800Y-56464264D01*
X128471007Y-56358600D01*
X128921342Y-56057696D01*
X129209800Y-55625988D01*
X129498258Y-56057696D01*
X129948593Y-56358600D01*
X130479800Y-56464264D01*
X131011007Y-56358600D01*
X131461342Y-56057696D01*
X131762246Y-55607361D01*
X131867910Y-55076154D01*
X131867910Y-53483446D01*
X131862858Y-53458046D01*
X132165090Y-53458046D01*
X132165090Y-55050754D01*
X132270754Y-55581961D01*
X132571658Y-56032296D01*
X133021993Y-56333200D01*
X133553200Y-56438864D01*
X134084407Y-56333200D01*
X134534742Y-56032296D01*
X134823200Y-55600588D01*
X135111658Y-56032296D01*
X135561993Y-56333200D01*
X136093200Y-56438864D01*
X136624407Y-56333200D01*
X137074742Y-56032296D01*
X137375646Y-55581961D01*
X137481310Y-55050754D01*
X137481310Y-53867050D01*
X138503100Y-53867050D01*
X138503100Y-54531657D01*
X138677111Y-54951757D01*
X138998642Y-55273289D01*
X139418743Y-55447300D01*
X139833350Y-55447300D01*
X140119100Y-55161550D01*
X140119100Y-53581300D01*
X138788850Y-53581300D01*
X138503100Y-53867050D01*
X137481310Y-53867050D01*
X137481310Y-53458046D01*
X137375646Y-52926839D01*
X137074742Y-52476504D01*
X136624407Y-52175600D01*
X136093200Y-52069936D01*
X135561993Y-52175600D01*
X135111658Y-52476504D01*
X134823200Y-52908212D01*
X134534742Y-52476504D01*
X134084407Y-52175600D01*
X133553200Y-52069936D01*
X133021993Y-52175600D01*
X132571658Y-52476504D01*
X132270754Y-52926839D01*
X132165090Y-53458046D01*
X131862858Y-53458046D01*
X131762246Y-52952239D01*
X131461342Y-52501904D01*
X131011007Y-52201000D01*
X130479800Y-52095336D01*
X129948593Y-52201000D01*
X129498258Y-52501904D01*
X129209800Y-52933612D01*
X128921342Y-52501904D01*
X128471007Y-52201000D01*
X127939800Y-52095336D01*
X127408593Y-52201000D01*
X126958258Y-52501904D01*
X126657354Y-52952239D01*
X126551690Y-53483446D01*
X126152910Y-53483446D01*
X126047246Y-52952239D01*
X125746342Y-52501904D01*
X125296007Y-52201000D01*
X124764800Y-52095336D01*
X124233593Y-52201000D01*
X123783258Y-52501904D01*
X123494800Y-52933612D01*
X123206342Y-52501904D01*
X122756007Y-52201000D01*
X122224800Y-52095336D01*
X121693593Y-52201000D01*
X121243258Y-52501904D01*
X120942354Y-52952239D01*
X120836690Y-53483446D01*
X113940135Y-53483446D01*
X113809497Y-53167280D01*
X113559636Y-52916982D01*
X113233009Y-52781354D01*
X112879343Y-52781046D01*
X112552480Y-52916103D01*
X112302182Y-53165964D01*
X112166554Y-53492591D01*
X112166246Y-53846257D01*
X85586219Y-53846257D01*
X85463097Y-53548280D01*
X85213236Y-53297982D01*
X84886609Y-53162354D01*
X84532943Y-53162046D01*
X84530000Y-53163262D01*
X84530000Y-51520000D01*
X105847013Y-51520000D01*
X105846726Y-51849817D01*
X105846726Y-51849817D01*
G37*
X105846726Y-51849817D02*
X105981783Y-52176680D01*
X106231644Y-52426978D01*
X106558271Y-52562606D01*
X106911937Y-52562914D01*
X107238800Y-52427857D01*
X107489098Y-52177996D01*
X107624726Y-51851369D01*
X107625015Y-51520000D01*
X139277028Y-51520000D01*
X138998642Y-51635311D01*
X138677111Y-51956843D01*
X138503100Y-52376943D01*
X138503100Y-53041550D01*
X138788850Y-53327300D01*
X140119100Y-53327300D01*
X140119100Y-53307300D01*
X140373100Y-53307300D01*
X140373100Y-53327300D01*
X140393100Y-53327300D01*
X140393100Y-53581300D01*
X140373100Y-53581300D01*
X140373100Y-55161550D01*
X140658850Y-55447300D01*
X141073457Y-55447300D01*
X141493558Y-55273289D01*
X141815089Y-54951757D01*
X141841531Y-54887919D01*
X142246100Y-54968393D01*
X142718714Y-54874384D01*
X143119377Y-54606670D01*
X143246100Y-54417015D01*
X143372823Y-54606670D01*
X143773486Y-54874384D01*
X144246100Y-54968393D01*
X144718714Y-54874384D01*
X145119377Y-54606670D01*
X145246100Y-54417015D01*
X145372823Y-54606670D01*
X145773486Y-54874384D01*
X146246100Y-54968393D01*
X146718714Y-54874384D01*
X147119377Y-54606670D01*
X147387091Y-54206007D01*
X147454513Y-53867050D01*
X149552100Y-53867050D01*
X149552100Y-54531657D01*
X149726111Y-54951757D01*
X150047642Y-55273289D01*
X150467743Y-55447300D01*
X150882350Y-55447300D01*
X151168100Y-55161550D01*
X151168100Y-53581300D01*
X149837850Y-53581300D01*
X149552100Y-53867050D01*
X147454513Y-53867050D01*
X147481100Y-53733393D01*
X147481100Y-53175207D01*
X147387091Y-52702593D01*
X147119377Y-52301930D01*
X146718714Y-52034216D01*
X146246100Y-51940207D01*
X145773486Y-52034216D01*
X145372823Y-52301930D01*
X145246100Y-52491585D01*
X145119377Y-52301930D01*
X144718714Y-52034216D01*
X144246100Y-51940207D01*
X143773486Y-52034216D01*
X143372823Y-52301930D01*
X143246100Y-52491585D01*
X143119377Y-52301930D01*
X142718714Y-52034216D01*
X142246100Y-51940207D01*
X141841531Y-52020681D01*
X141815089Y-51956843D01*
X141493558Y-51635311D01*
X141215172Y-51520000D01*
X150326028Y-51520000D01*
X150047642Y-51635311D01*
X149726111Y-51956843D01*
X149552100Y-52376943D01*
X149552100Y-53041550D01*
X149837850Y-53327300D01*
X151168100Y-53327300D01*
X151168100Y-53307300D01*
X151422100Y-53307300D01*
X151422100Y-53327300D01*
X151442100Y-53327300D01*
X151442100Y-53581300D01*
X151422100Y-53581300D01*
X151422100Y-55161550D01*
X151707850Y-55447300D01*
X152122457Y-55447300D01*
X152542558Y-55273289D01*
X152864089Y-54951757D01*
X152890531Y-54887919D01*
X153295100Y-54968393D01*
X153767714Y-54874384D01*
X154168377Y-54606670D01*
X154295100Y-54417015D01*
X154421823Y-54606670D01*
X154822486Y-54874384D01*
X155295100Y-54968393D01*
X155767714Y-54874384D01*
X156168377Y-54606670D01*
X156295100Y-54417015D01*
X156421823Y-54606670D01*
X156822486Y-54874384D01*
X157295100Y-54968393D01*
X157767714Y-54874384D01*
X158168377Y-54606670D01*
X158436091Y-54206007D01*
X158503513Y-53867050D01*
X160677300Y-53867050D01*
X160677300Y-54531657D01*
X160851311Y-54951757D01*
X161172842Y-55273289D01*
X161592943Y-55447300D01*
X162007550Y-55447300D01*
X162293300Y-55161550D01*
X162293300Y-53581300D01*
X160963050Y-53581300D01*
X160677300Y-53867050D01*
X158503513Y-53867050D01*
X158530100Y-53733393D01*
X158530100Y-53175207D01*
X158436091Y-52702593D01*
X158168377Y-52301930D01*
X157767714Y-52034216D01*
X157295100Y-51940207D01*
X156822486Y-52034216D01*
X156421823Y-52301930D01*
X156295100Y-52491585D01*
X156168377Y-52301930D01*
X155767714Y-52034216D01*
X155295100Y-51940207D01*
X154822486Y-52034216D01*
X154421823Y-52301930D01*
X154295100Y-52491585D01*
X154168377Y-52301930D01*
X153767714Y-52034216D01*
X153295100Y-51940207D01*
X152890531Y-52020681D01*
X152864089Y-51956843D01*
X152542558Y-51635311D01*
X152264172Y-51520000D01*
X161451228Y-51520000D01*
X161172842Y-51635311D01*
X160851311Y-51956843D01*
X160677300Y-52376943D01*
X160677300Y-53041550D01*
X160963050Y-53327300D01*
X162293300Y-53327300D01*
X162293300Y-53307300D01*
X162547300Y-53307300D01*
X162547300Y-53327300D01*
X162567300Y-53327300D01*
X162567300Y-53581300D01*
X162547300Y-53581300D01*
X162547300Y-55161550D01*
X162833050Y-55447300D01*
X163247657Y-55447300D01*
X163667758Y-55273289D01*
X163989289Y-54951757D01*
X164015731Y-54887919D01*
X164420300Y-54968393D01*
X164892914Y-54874384D01*
X165293577Y-54606670D01*
X165420300Y-54417015D01*
X165547023Y-54606670D01*
X165947686Y-54874384D01*
X166420300Y-54968393D01*
X166892914Y-54874384D01*
X167293577Y-54606670D01*
X167420300Y-54417015D01*
X167547023Y-54606670D01*
X167947686Y-54874384D01*
X168420300Y-54968393D01*
X168892914Y-54874384D01*
X169293577Y-54606670D01*
X169561291Y-54206007D01*
X169628713Y-53867050D01*
X171802500Y-53867050D01*
X171802500Y-54531657D01*
X171976511Y-54951757D01*
X172298042Y-55273289D01*
X172718143Y-55447300D01*
X173132750Y-55447300D01*
X173418500Y-55161550D01*
X173418500Y-53581300D01*
X172088250Y-53581300D01*
X171802500Y-53867050D01*
X169628713Y-53867050D01*
X169655300Y-53733393D01*
X169655300Y-53175207D01*
X169561291Y-52702593D01*
X169293577Y-52301930D01*
X168892914Y-52034216D01*
X168420300Y-51940207D01*
X167947686Y-52034216D01*
X167547023Y-52301930D01*
X167420300Y-52491585D01*
X167293577Y-52301930D01*
X166892914Y-52034216D01*
X166420300Y-51940207D01*
X165947686Y-52034216D01*
X165547023Y-52301930D01*
X165420300Y-52491585D01*
X165293577Y-52301930D01*
X164892914Y-52034216D01*
X164420300Y-51940207D01*
X164015731Y-52020681D01*
X163989289Y-51956843D01*
X163667758Y-51635311D01*
X163389372Y-51520000D01*
X172576428Y-51520000D01*
X172298042Y-51635311D01*
X171976511Y-51956843D01*
X171802500Y-52376943D01*
X171802500Y-53041550D01*
X172088250Y-53327300D01*
X173418500Y-53327300D01*
X173418500Y-53307300D01*
X173672500Y-53307300D01*
X173672500Y-53327300D01*
X173692500Y-53327300D01*
X173692500Y-53581300D01*
X173672500Y-53581300D01*
X173672500Y-55161550D01*
X173958250Y-55447300D01*
X174372857Y-55447300D01*
X174792958Y-55273289D01*
X175114489Y-54951757D01*
X175140931Y-54887919D01*
X175545500Y-54968393D01*
X176018114Y-54874384D01*
X176418777Y-54606670D01*
X176545500Y-54417015D01*
X176672223Y-54606670D01*
X177072886Y-54874384D01*
X177545500Y-54968393D01*
X178018114Y-54874384D01*
X178418777Y-54606670D01*
X178545500Y-54417015D01*
X178672223Y-54606670D01*
X179072886Y-54874384D01*
X179545500Y-54968393D01*
X180018114Y-54874384D01*
X180418777Y-54606670D01*
X180686491Y-54206007D01*
X180780500Y-53733393D01*
X180780500Y-53175207D01*
X180686491Y-52702593D01*
X180418777Y-52301930D01*
X180018114Y-52034216D01*
X179545500Y-51940207D01*
X179072886Y-52034216D01*
X178672223Y-52301930D01*
X178545500Y-52491585D01*
X178418777Y-52301930D01*
X178018114Y-52034216D01*
X177545500Y-51940207D01*
X177072886Y-52034216D01*
X176672223Y-52301930D01*
X176545500Y-52491585D01*
X176418777Y-52301930D01*
X176018114Y-52034216D01*
X175545500Y-51940207D01*
X175140931Y-52020681D01*
X175114489Y-51956843D01*
X174792958Y-51635311D01*
X174514572Y-51520000D01*
X183110000Y-51520000D01*
X183110000Y-62718097D01*
X182583400Y-61443628D01*
X181561751Y-60420194D01*
X180226218Y-59865632D01*
X178780126Y-59864370D01*
X177443628Y-60416600D01*
X176420194Y-61438249D01*
X175865632Y-62773782D01*
X175864370Y-64219874D01*
X176416600Y-65556372D01*
X177438249Y-66579806D01*
X178773782Y-67134368D01*
X180219874Y-67135630D01*
X181556372Y-66583400D01*
X182579806Y-65561751D01*
X183110000Y-64284903D01*
X183110000Y-130100000D01*
X84530000Y-130100000D01*
X84530000Y-126719874D01*
X86364370Y-126719874D01*
X86916600Y-128056372D01*
X87938249Y-129079806D01*
X89273782Y-129634368D01*
X90719874Y-129635630D01*
X92056372Y-129083400D01*
X93079806Y-128061751D01*
X93634368Y-126726218D01*
X93635630Y-125280126D01*
X93083400Y-123943628D01*
X92061751Y-122920194D01*
X90726218Y-122365632D01*
X89280126Y-122364370D01*
X87943628Y-122916600D01*
X86920194Y-123938249D01*
X86365632Y-125273782D01*
X86364370Y-126719874D01*
X84530000Y-126719874D01*
X84530000Y-118048925D01*
X85879587Y-118048925D01*
X86241916Y-118925829D01*
X86912242Y-119597326D01*
X87788513Y-119961185D01*
X88737325Y-119962013D01*
X89563392Y-119620689D01*
X94689743Y-119620689D01*
X94915344Y-120166686D01*
X95332717Y-120584788D01*
X95878319Y-120811342D01*
X96469089Y-120811857D01*
X97015086Y-120586256D01*
X97433188Y-120168883D01*
X97659742Y-119623281D01*
X97660257Y-119032511D01*
X97434656Y-118486514D01*
X97017283Y-118068412D01*
X96471681Y-117841858D01*
X95880911Y-117841343D01*
X95334914Y-118066944D01*
X94916812Y-118484317D01*
X94690258Y-119029919D01*
X94689743Y-119620689D01*
X89563392Y-119620689D01*
X89614229Y-119599684D01*
X90285726Y-118929358D01*
X90649585Y-118053087D01*
X90650413Y-117104275D01*
X90288084Y-116227371D01*
X90181589Y-116120689D01*
X94689743Y-116120689D01*
X94915344Y-116666686D01*
X95332717Y-117084788D01*
X95878319Y-117311342D01*
X96469089Y-117311857D01*
X97015086Y-117086256D01*
X97433188Y-116668883D01*
X97659742Y-116123281D01*
X97660257Y-115532511D01*
X97434656Y-114986514D01*
X97281809Y-114833400D01*
X106375200Y-114833400D01*
X106375200Y-128905000D01*
X106383885Y-128951159D01*
X106411165Y-128993553D01*
X106452790Y-129021994D01*
X106502200Y-129032000D01*
X130276600Y-129032000D01*
X130322759Y-129023315D01*
X130365153Y-128996035D01*
X130393594Y-128954410D01*
X130403600Y-128905000D01*
X130403600Y-128676057D01*
X148110846Y-128676057D01*
X148245903Y-129002920D01*
X148495764Y-129253218D01*
X148822391Y-129388846D01*
X149176057Y-129389154D01*
X149502920Y-129254097D01*
X149753218Y-129004236D01*
X149888846Y-128677609D01*
X149889154Y-128323943D01*
X149754097Y-127997080D01*
X149504236Y-127746782D01*
X149177609Y-127611154D01*
X148823943Y-127610846D01*
X148497080Y-127745903D01*
X148246782Y-127995764D01*
X148111154Y-128322391D01*
X148110846Y-128676057D01*
X130403600Y-128676057D01*
X130403600Y-127201457D01*
X144525846Y-127201457D01*
X144660903Y-127528320D01*
X144910764Y-127778618D01*
X145237391Y-127914246D01*
X145591057Y-127914554D01*
X145917920Y-127779497D01*
X146168218Y-127529636D01*
X146303846Y-127203009D01*
X146304154Y-126849343D01*
X146169097Y-126522480D01*
X145919236Y-126272182D01*
X145592609Y-126136554D01*
X145238943Y-126136246D01*
X144912080Y-126271303D01*
X144661782Y-126521164D01*
X144526154Y-126847791D01*
X144525846Y-127201457D01*
X130403600Y-127201457D01*
X130403600Y-123676057D01*
X131610846Y-123676057D01*
X131745903Y-124002920D01*
X131995764Y-124253218D01*
X132322391Y-124388846D01*
X132676057Y-124389154D01*
X133002920Y-124254097D01*
X133253218Y-124004236D01*
X133388846Y-123677609D01*
X133388962Y-123543857D01*
X144500446Y-123543857D01*
X144635503Y-123870720D01*
X144885364Y-124121018D01*
X145211991Y-124256646D01*
X145565657Y-124256954D01*
X145892520Y-124121897D01*
X146142818Y-123872036D01*
X146278446Y-123545409D01*
X146278447Y-123543857D01*
X147726246Y-123543857D01*
X147861303Y-123870720D01*
X148111164Y-124121018D01*
X148437791Y-124256646D01*
X148791457Y-124256954D01*
X149118320Y-124121897D01*
X149368618Y-123872036D01*
X149504246Y-123545409D01*
X149504554Y-123191743D01*
X149369497Y-122864880D01*
X149119636Y-122614582D01*
X148793009Y-122478954D01*
X148439343Y-122478646D01*
X148112480Y-122613703D01*
X147862182Y-122863564D01*
X147726554Y-123190191D01*
X147726246Y-123543857D01*
X146278447Y-123543857D01*
X146278754Y-123191743D01*
X146143697Y-122864880D01*
X145893836Y-122614582D01*
X145567209Y-122478954D01*
X145213543Y-122478646D01*
X144886680Y-122613703D01*
X144636382Y-122863564D01*
X144500754Y-123190191D01*
X144500446Y-123543857D01*
X133388962Y-123543857D01*
X133389154Y-123323943D01*
X133254097Y-122997080D01*
X133004236Y-122746782D01*
X132677609Y-122611154D01*
X132323943Y-122610846D01*
X131997080Y-122745903D01*
X131746782Y-122995764D01*
X131611154Y-123322391D01*
X131610846Y-123676057D01*
X130403600Y-123676057D01*
X130403600Y-119176057D01*
X139610846Y-119176057D01*
X139744859Y-119500394D01*
X139611154Y-119822391D01*
X139610846Y-120176057D01*
X139744859Y-120500394D01*
X139611154Y-120822391D01*
X139610846Y-121176057D01*
X139745903Y-121502920D01*
X139995764Y-121753218D01*
X140322391Y-121888846D01*
X140676057Y-121889154D01*
X141000394Y-121755141D01*
X141322391Y-121888846D01*
X141676057Y-121889154D01*
X142000394Y-121755141D01*
X142322391Y-121888846D01*
X142676057Y-121889154D01*
X143002920Y-121754097D01*
X143253218Y-121504236D01*
X143388846Y-121177609D01*
X143389154Y-120823943D01*
X143254097Y-120497080D01*
X143004236Y-120246782D01*
X142677609Y-120111154D01*
X142323943Y-120110846D01*
X141999606Y-120244859D01*
X141677609Y-120111154D01*
X141388904Y-120110903D01*
X141389154Y-119823943D01*
X141255141Y-119499606D01*
X141388846Y-119177609D01*
X141389154Y-118823943D01*
X141254097Y-118497080D01*
X141004236Y-118246782D01*
X140833913Y-118176057D01*
X144610846Y-118176057D01*
X144745903Y-118502920D01*
X144995764Y-118753218D01*
X145322391Y-118888846D01*
X145676057Y-118889154D01*
X146002920Y-118754097D01*
X146006121Y-118750901D01*
X161624091Y-118750901D01*
X161807689Y-119195243D01*
X161774400Y-119362600D01*
X161774400Y-120988945D01*
X161788600Y-121060333D01*
X161788600Y-124917195D01*
X161788599Y-124917200D01*
X161913057Y-125542888D01*
X162267480Y-126073320D01*
X165516078Y-129321917D01*
X165516080Y-129321920D01*
X165834051Y-129534381D01*
X166046512Y-129676343D01*
X166672200Y-129800800D01*
X172252200Y-129800800D01*
X172877887Y-129676343D01*
X173408320Y-129321920D01*
X173762743Y-128791487D01*
X173887200Y-128165800D01*
X173762743Y-127540113D01*
X173408320Y-127009680D01*
X173226400Y-126888125D01*
X177776787Y-126888125D01*
X178139116Y-127765029D01*
X178809442Y-128436526D01*
X179685713Y-128800385D01*
X180634525Y-128801213D01*
X181511429Y-128438884D01*
X182182926Y-127768558D01*
X182546785Y-126892287D01*
X182547613Y-125943475D01*
X182185284Y-125066571D01*
X181514958Y-124395074D01*
X180638687Y-124031215D01*
X179689875Y-124030387D01*
X178812971Y-124392716D01*
X178141474Y-125063042D01*
X177777615Y-125939313D01*
X177776787Y-126888125D01*
X173226400Y-126888125D01*
X172877887Y-126655257D01*
X172252200Y-126530800D01*
X167349439Y-126530800D01*
X165778529Y-124959889D01*
X170766943Y-124959889D01*
X170992544Y-125505886D01*
X171409917Y-125923988D01*
X171955519Y-126150542D01*
X172546289Y-126151057D01*
X173092286Y-125925456D01*
X173510388Y-125508083D01*
X173736942Y-124962481D01*
X173737457Y-124371711D01*
X173511856Y-123825714D01*
X173094483Y-123407612D01*
X172548881Y-123181058D01*
X171958111Y-123180543D01*
X171412114Y-123406144D01*
X170994012Y-123823517D01*
X170767458Y-124369119D01*
X170766943Y-124959889D01*
X165778529Y-124959889D01*
X165058600Y-124239960D01*
X165058600Y-121003145D01*
X165044400Y-120931757D01*
X165044400Y-119900089D01*
X170792343Y-119900089D01*
X171017944Y-120446086D01*
X171435317Y-120864188D01*
X171980919Y-121090742D01*
X172571689Y-121091257D01*
X173117686Y-120865656D01*
X173535788Y-120448283D01*
X173762342Y-119902681D01*
X173762857Y-119311911D01*
X173537256Y-118765914D01*
X173119883Y-118347812D01*
X173072954Y-118328325D01*
X177802187Y-118328325D01*
X178164516Y-119205229D01*
X178834842Y-119876726D01*
X179711113Y-120240585D01*
X180659925Y-120241413D01*
X181536829Y-119879084D01*
X182208326Y-119208758D01*
X182572185Y-118332487D01*
X182573013Y-117383675D01*
X182210684Y-116506771D01*
X181540358Y-115835274D01*
X180664087Y-115471415D01*
X179715275Y-115470587D01*
X178838371Y-115832916D01*
X178166874Y-116503242D01*
X177803015Y-117379513D01*
X177802187Y-118328325D01*
X173072954Y-118328325D01*
X172574281Y-118121258D01*
X171983511Y-118120743D01*
X171437514Y-118346344D01*
X171019412Y-118763717D01*
X170792858Y-119309319D01*
X170792343Y-119900089D01*
X165044400Y-119900089D01*
X165044400Y-119362600D01*
X165011035Y-119194861D01*
X165194089Y-118754016D01*
X165194709Y-118043899D01*
X164923532Y-117387600D01*
X164421841Y-116885033D01*
X163766016Y-116612711D01*
X163055899Y-116612091D01*
X162399600Y-116883268D01*
X161897033Y-117384959D01*
X161624711Y-118040784D01*
X161624091Y-118750901D01*
X146006121Y-118750901D01*
X146253218Y-118504236D01*
X146388846Y-118177609D01*
X146389154Y-117823943D01*
X146254097Y-117497080D01*
X146004236Y-117246782D01*
X145677609Y-117111154D01*
X145323943Y-117110846D01*
X144997080Y-117245903D01*
X144746782Y-117495764D01*
X144611154Y-117822391D01*
X144610846Y-118176057D01*
X140833913Y-118176057D01*
X140677609Y-118111154D01*
X140323943Y-118110846D01*
X139997080Y-118245903D01*
X139746782Y-118495764D01*
X139611154Y-118822391D01*
X139610846Y-119176057D01*
X130403600Y-119176057D01*
X130403600Y-118872030D01*
X130664088Y-118482181D01*
X130674302Y-118430830D01*
X130929075Y-118176057D01*
X135110086Y-118176057D01*
X135245143Y-118502920D01*
X135495004Y-118753218D01*
X135821631Y-118888846D01*
X136175297Y-118889154D01*
X136502160Y-118754097D01*
X136752458Y-118504236D01*
X136888086Y-118177609D01*
X136888394Y-117823943D01*
X136753337Y-117497080D01*
X136503476Y-117246782D01*
X136176849Y-117111154D01*
X135823183Y-117110846D01*
X135496320Y-117245903D01*
X135246022Y-117495764D01*
X135110394Y-117822391D01*
X135110086Y-118176057D01*
X130929075Y-118176057D01*
X137048332Y-112056800D01*
X163474400Y-112056800D01*
X163908746Y-111970403D01*
X164276966Y-111724366D01*
X168544166Y-107457166D01*
X168615200Y-107350856D01*
X168615200Y-108393291D01*
X163231890Y-113776600D01*
X143715563Y-113776600D01*
X143664088Y-113517819D01*
X143390955Y-113109045D01*
X142982181Y-112835912D01*
X142500000Y-112740000D01*
X142017819Y-112835912D01*
X141609045Y-113109045D01*
X141607677Y-113111093D01*
X141323943Y-113110846D01*
X140999606Y-113244859D01*
X140677609Y-113111154D01*
X140323943Y-113110846D01*
X139999606Y-113244859D01*
X139677609Y-113111154D01*
X139323943Y-113110846D01*
X138997080Y-113245903D01*
X138746782Y-113495764D01*
X138611154Y-113822391D01*
X138610846Y-114176057D01*
X138744859Y-114500394D01*
X138611154Y-114822391D01*
X138610846Y-115176057D01*
X138744859Y-115500394D01*
X138611154Y-115822391D01*
X138610846Y-116176057D01*
X138745903Y-116502920D01*
X138995764Y-116753218D01*
X139322391Y-116888846D01*
X139676057Y-116889154D01*
X140000394Y-116755141D01*
X140322391Y-116888846D01*
X140676057Y-116889154D01*
X141002920Y-116754097D01*
X141253218Y-116504236D01*
X141296463Y-116400089D01*
X170792343Y-116400089D01*
X171017944Y-116946086D01*
X171435317Y-117364188D01*
X171980919Y-117590742D01*
X172571689Y-117591257D01*
X173117686Y-117365656D01*
X173535788Y-116948283D01*
X173762342Y-116402681D01*
X173762857Y-115811911D01*
X173537256Y-115265914D01*
X173119883Y-114847812D01*
X172574281Y-114621258D01*
X171983511Y-114620743D01*
X171437514Y-114846344D01*
X171019412Y-115263717D01*
X170792858Y-115809319D01*
X170792343Y-116400089D01*
X141296463Y-116400089D01*
X141388846Y-116177609D01*
X141389097Y-115888904D01*
X141607802Y-115889095D01*
X141609045Y-115890955D01*
X142017819Y-116164088D01*
X142500000Y-116260000D01*
X142605905Y-116238934D01*
X142895810Y-116296600D01*
X163753795Y-116296600D01*
X163753800Y-116296601D01*
X164235981Y-116200688D01*
X164644755Y-115927555D01*
X169181220Y-111391089D01*
X170741543Y-111391089D01*
X170967144Y-111937086D01*
X171384517Y-112355188D01*
X171930119Y-112581742D01*
X172520889Y-112582257D01*
X173066886Y-112356656D01*
X173484988Y-111939283D01*
X173711542Y-111393681D01*
X173712057Y-110802911D01*
X173486456Y-110256914D01*
X173069083Y-109838812D01*
X173022154Y-109819325D01*
X177751387Y-109819325D01*
X178113716Y-110696229D01*
X178784042Y-111367726D01*
X179660313Y-111731585D01*
X180609125Y-111732413D01*
X181486029Y-111370084D01*
X182157526Y-110699758D01*
X182521385Y-109823487D01*
X182522213Y-108874675D01*
X182159884Y-107997771D01*
X181489558Y-107326274D01*
X180613287Y-106962415D01*
X179664475Y-106961587D01*
X178787571Y-107323916D01*
X178116074Y-107994242D01*
X177752215Y-108870513D01*
X177751387Y-109819325D01*
X173022154Y-109819325D01*
X172523481Y-109612258D01*
X171932711Y-109611743D01*
X171386714Y-109837344D01*
X170968612Y-110254717D01*
X170742058Y-110800319D01*
X170741543Y-111391089D01*
X169181220Y-111391089D01*
X170766152Y-109806157D01*
X170766155Y-109806155D01*
X171039288Y-109397381D01*
X171053896Y-109323943D01*
X171135201Y-108915200D01*
X171135200Y-108915195D01*
X171135200Y-108605436D01*
X171384517Y-108855188D01*
X171930119Y-109081742D01*
X172520889Y-109082257D01*
X173066886Y-108856656D01*
X173484988Y-108439283D01*
X173711542Y-107893681D01*
X173712057Y-107302911D01*
X173486456Y-106756914D01*
X173069083Y-106338812D01*
X172523481Y-106112258D01*
X171932711Y-106111743D01*
X171386714Y-106337344D01*
X171135200Y-106588419D01*
X171135200Y-103698080D01*
X171359117Y-103922388D01*
X171904719Y-104148942D01*
X172495489Y-104149457D01*
X173041486Y-103923856D01*
X173459588Y-103506483D01*
X173686142Y-102960881D01*
X173686657Y-102370111D01*
X173461056Y-101824114D01*
X173043683Y-101406012D01*
X172996754Y-101386525D01*
X177725987Y-101386525D01*
X178088316Y-102263429D01*
X178758642Y-102934926D01*
X179634913Y-103298785D01*
X180583725Y-103299613D01*
X181460629Y-102937284D01*
X182132126Y-102266958D01*
X182495985Y-101390687D01*
X182496813Y-100441875D01*
X182134484Y-99564971D01*
X181464158Y-98893474D01*
X180587887Y-98529615D01*
X179639075Y-98528787D01*
X178762171Y-98891116D01*
X178090674Y-99561442D01*
X177726815Y-100437713D01*
X177725987Y-101386525D01*
X172996754Y-101386525D01*
X172498081Y-101179458D01*
X171968513Y-101178996D01*
X172499857Y-100647652D01*
X173041486Y-100423856D01*
X173459588Y-100006483D01*
X173686142Y-99460881D01*
X173686657Y-98870111D01*
X173461056Y-98324114D01*
X173043683Y-97906012D01*
X172498081Y-97679458D01*
X171907311Y-97678943D01*
X171361314Y-97904544D01*
X170943212Y-98321917D01*
X170717003Y-98866687D01*
X168984245Y-100599445D01*
X168876600Y-100760548D01*
X168876600Y-95972157D01*
X171322846Y-95972157D01*
X171457903Y-96299020D01*
X171707764Y-96549318D01*
X172034391Y-96684946D01*
X172388057Y-96685254D01*
X172714920Y-96550197D01*
X172965218Y-96300336D01*
X173100846Y-95973709D01*
X173101154Y-95620043D01*
X172966097Y-95293180D01*
X172716236Y-95042882D01*
X172389609Y-94907254D01*
X172035943Y-94906946D01*
X171709080Y-95042003D01*
X171458782Y-95291864D01*
X171323154Y-95618491D01*
X171322846Y-95972157D01*
X168876600Y-95972157D01*
X168876600Y-93495657D01*
X169621046Y-93495657D01*
X169756103Y-93822520D01*
X170005964Y-94072818D01*
X170332591Y-94208446D01*
X170686257Y-94208754D01*
X171013120Y-94073697D01*
X171263418Y-93823836D01*
X171399046Y-93497209D01*
X171399354Y-93143543D01*
X171264297Y-92816680D01*
X171014436Y-92566382D01*
X170687809Y-92430754D01*
X170334143Y-92430446D01*
X170007280Y-92565503D01*
X169756982Y-92815364D01*
X169621354Y-93141991D01*
X169621046Y-93495657D01*
X168876600Y-93495657D01*
X168876600Y-89847051D01*
X168947962Y-89775689D01*
X170853743Y-89775689D01*
X171079344Y-90321686D01*
X171496717Y-90739788D01*
X172042319Y-90966342D01*
X172633089Y-90966857D01*
X173179086Y-90741256D01*
X173597188Y-90323883D01*
X173823742Y-89778281D01*
X173824257Y-89187511D01*
X173598656Y-88641514D01*
X173181283Y-88223412D01*
X173134354Y-88203925D01*
X177863587Y-88203925D01*
X178225916Y-89080829D01*
X178896242Y-89752326D01*
X179772513Y-90116185D01*
X180721325Y-90117013D01*
X181598229Y-89754684D01*
X182269726Y-89084358D01*
X182633585Y-88208087D01*
X182634413Y-87259275D01*
X182272084Y-86382371D01*
X181601758Y-85710874D01*
X180725487Y-85347015D01*
X179776675Y-85346187D01*
X178899771Y-85708516D01*
X178228274Y-86378842D01*
X177864415Y-87255113D01*
X177863587Y-88203925D01*
X173134354Y-88203925D01*
X172635681Y-87996858D01*
X172044911Y-87996343D01*
X171498914Y-88221944D01*
X171080812Y-88639317D01*
X170854258Y-89184919D01*
X170853743Y-89775689D01*
X168947962Y-89775689D01*
X171490296Y-87233355D01*
X171496717Y-87239788D01*
X172042319Y-87466342D01*
X172633089Y-87466857D01*
X173179086Y-87241256D01*
X173597188Y-86823883D01*
X173823742Y-86278281D01*
X173824257Y-85687511D01*
X173598656Y-85141514D01*
X173181283Y-84723412D01*
X172635681Y-84496858D01*
X172044911Y-84496343D01*
X171498914Y-84721944D01*
X171374040Y-84846600D01*
X171136919Y-84846600D01*
X170702573Y-84932997D01*
X170452627Y-85100006D01*
X170334353Y-85179034D01*
X166939034Y-88574353D01*
X166692997Y-88942573D01*
X166606600Y-89376919D01*
X166606600Y-106184468D01*
X163004268Y-109786800D01*
X139076884Y-109786800D01*
X139976888Y-109145636D01*
X140020194Y-109091610D01*
X140030200Y-109042200D01*
X140030200Y-107735526D01*
X150050879Y-107735526D01*
X150139977Y-108160676D01*
X150987919Y-108497017D01*
X151900028Y-108483263D01*
X152678823Y-108160676D01*
X152767921Y-107735526D01*
X151409400Y-106377005D01*
X150050879Y-107735526D01*
X140030200Y-107735526D01*
X140030200Y-105775919D01*
X149109783Y-105775919D01*
X149123537Y-106688028D01*
X149446124Y-107466823D01*
X149871274Y-107555921D01*
X151229795Y-106197400D01*
X151589005Y-106197400D01*
X152947526Y-107555921D01*
X153372676Y-107466823D01*
X153709017Y-106618881D01*
X153707992Y-106550901D01*
X161624091Y-106550901D01*
X161895268Y-107207200D01*
X162396959Y-107709767D01*
X163052784Y-107982089D01*
X163762901Y-107982709D01*
X164419200Y-107711532D01*
X164921767Y-107209841D01*
X165194089Y-106554016D01*
X165194709Y-105843899D01*
X164923532Y-105187600D01*
X164421841Y-104685033D01*
X163766016Y-104412711D01*
X163055899Y-104412091D01*
X162399600Y-104683268D01*
X161897033Y-105184959D01*
X161624711Y-105840784D01*
X161624091Y-106550901D01*
X153707992Y-106550901D01*
X153695263Y-105706772D01*
X153372676Y-104927977D01*
X152947526Y-104838879D01*
X151589005Y-106197400D01*
X151229795Y-106197400D01*
X149871274Y-104838879D01*
X149446124Y-104927977D01*
X149109783Y-105775919D01*
X140030200Y-105775919D01*
X140030200Y-104659274D01*
X150050879Y-104659274D01*
X151409400Y-106017795D01*
X152767921Y-104659274D01*
X152678823Y-104234124D01*
X151830881Y-103897783D01*
X150918772Y-103911537D01*
X150139977Y-104234124D01*
X150050879Y-104659274D01*
X140030200Y-104659274D01*
X140030200Y-103860600D01*
X140021515Y-103814441D01*
X139994235Y-103772047D01*
X139952610Y-103743606D01*
X139903200Y-103733600D01*
X118465600Y-103733600D01*
X118419441Y-103742285D01*
X118377047Y-103769565D01*
X118348606Y-103811190D01*
X118338600Y-103860600D01*
X118338600Y-114706400D01*
X106502200Y-114706400D01*
X106456041Y-114715085D01*
X106413647Y-114742365D01*
X106385206Y-114783990D01*
X106375200Y-114833400D01*
X97281809Y-114833400D01*
X97017283Y-114568412D01*
X96471681Y-114341858D01*
X95880911Y-114341343D01*
X95334914Y-114566944D01*
X94916812Y-114984317D01*
X94690258Y-115529919D01*
X94689743Y-116120689D01*
X90181589Y-116120689D01*
X89617758Y-115555874D01*
X88741487Y-115192015D01*
X87792675Y-115191187D01*
X86915771Y-115553516D01*
X86244274Y-116223842D01*
X85880415Y-117100113D01*
X85879587Y-118048925D01*
X84530000Y-118048925D01*
X84530000Y-98676057D01*
X138610846Y-98676057D01*
X138744859Y-99000394D01*
X138611154Y-99322391D01*
X138610846Y-99676057D01*
X138744859Y-100000394D01*
X138611154Y-100322391D01*
X138610846Y-100676057D01*
X138745903Y-101002920D01*
X138995764Y-101253218D01*
X139322391Y-101388846D01*
X139676057Y-101389154D01*
X140002920Y-101254097D01*
X140253218Y-101004236D01*
X140388846Y-100677609D01*
X140389154Y-100323943D01*
X140255141Y-99999606D01*
X140388846Y-99677609D01*
X140389097Y-99388904D01*
X140676057Y-99389154D01*
X141000394Y-99255141D01*
X141322391Y-99388846D01*
X141676057Y-99389154D01*
X142000394Y-99255141D01*
X142322391Y-99388846D01*
X142676057Y-99389154D01*
X143000394Y-99255141D01*
X143322391Y-99388846D01*
X143676057Y-99389154D01*
X144000394Y-99255141D01*
X144322391Y-99388846D01*
X144676057Y-99389154D01*
X145000394Y-99255141D01*
X145322391Y-99388846D01*
X145676057Y-99389154D01*
X146000394Y-99255141D01*
X146322391Y-99388846D01*
X146387099Y-99388902D01*
X146365000Y-99500000D01*
X146365000Y-101500000D01*
X146451397Y-101934346D01*
X146649299Y-102230527D01*
X146611154Y-102322391D01*
X146610846Y-102676057D01*
X146745903Y-103002920D01*
X146995764Y-103253218D01*
X147322391Y-103388846D01*
X147676057Y-103389154D01*
X148002920Y-103254097D01*
X148253218Y-103004236D01*
X148388846Y-102677609D01*
X148389154Y-102323943D01*
X148350611Y-102230662D01*
X148548603Y-101934346D01*
X148608147Y-101635000D01*
X152887268Y-101635000D01*
X155885269Y-104633001D01*
X155895268Y-104657200D01*
X156396959Y-105159767D01*
X156422740Y-105170472D01*
X156606834Y-105354566D01*
X156975054Y-105600603D01*
X157409400Y-105686999D01*
X157843745Y-105600603D01*
X158211966Y-105354566D01*
X158311103Y-105206197D01*
X158419200Y-105161532D01*
X158921767Y-104659841D01*
X159194089Y-104004016D01*
X159194709Y-103293899D01*
X158923532Y-102637600D01*
X158421841Y-102135033D01*
X157766016Y-101862711D01*
X157055899Y-101862091D01*
X156538435Y-102075903D01*
X154159966Y-99697434D01*
X153961721Y-99564971D01*
X153791746Y-99451397D01*
X153357400Y-99365000D01*
X148608147Y-99365000D01*
X148548603Y-99065654D01*
X148302566Y-98697434D01*
X147934346Y-98451397D01*
X147500000Y-98365000D01*
X147389099Y-98387060D01*
X147389154Y-98323943D01*
X147254097Y-97997080D01*
X147096350Y-97839057D01*
X161137446Y-97839057D01*
X161272503Y-98165920D01*
X161522364Y-98416218D01*
X161848991Y-98551846D01*
X162202657Y-98552154D01*
X162529520Y-98417097D01*
X162779818Y-98167236D01*
X162915446Y-97840609D01*
X162915754Y-97486943D01*
X162780697Y-97160080D01*
X162530836Y-96909782D01*
X162204209Y-96774154D01*
X161850543Y-96773846D01*
X161523680Y-96908903D01*
X161273382Y-97158764D01*
X161137754Y-97485391D01*
X161137446Y-97839057D01*
X147096350Y-97839057D01*
X147004236Y-97746782D01*
X146677609Y-97611154D01*
X146323943Y-97610846D01*
X145999606Y-97744859D01*
X145677609Y-97611154D01*
X145323943Y-97610846D01*
X144999606Y-97744859D01*
X144677609Y-97611154D01*
X144323943Y-97610846D01*
X143999606Y-97744859D01*
X143677609Y-97611154D01*
X143323943Y-97610846D01*
X142999606Y-97744859D01*
X142677609Y-97611154D01*
X142323943Y-97610846D01*
X141999606Y-97744859D01*
X141677609Y-97611154D01*
X141323943Y-97610846D01*
X140999606Y-97744859D01*
X140677609Y-97611154D01*
X140323943Y-97610846D01*
X139999606Y-97744859D01*
X139677609Y-97611154D01*
X139323943Y-97610846D01*
X138997080Y-97745903D01*
X138746782Y-97995764D01*
X138611154Y-98322391D01*
X138610846Y-98676057D01*
X84530000Y-98676057D01*
X84530000Y-95781657D01*
X152044246Y-95781657D01*
X152179303Y-96108520D01*
X152429164Y-96358818D01*
X152755791Y-96494446D01*
X153109457Y-96494754D01*
X153436320Y-96359697D01*
X153686618Y-96109836D01*
X153822246Y-95783209D01*
X153822554Y-95429543D01*
X153687497Y-95102680D01*
X153437636Y-94852382D01*
X153111009Y-94716754D01*
X152757343Y-94716446D01*
X152430480Y-94851503D01*
X152180182Y-95101364D01*
X152044554Y-95427991D01*
X152044246Y-95781657D01*
X84530000Y-95781657D01*
X84530000Y-93749657D01*
X162712246Y-93749657D01*
X162847303Y-94076520D01*
X163097164Y-94326818D01*
X163423791Y-94462446D01*
X163777457Y-94462754D01*
X164104320Y-94327697D01*
X164354618Y-94077836D01*
X164490246Y-93751209D01*
X164490554Y-93397543D01*
X164355497Y-93070680D01*
X164105636Y-92820382D01*
X163779009Y-92684754D01*
X163425343Y-92684446D01*
X163098480Y-92819503D01*
X162848182Y-93069364D01*
X162712554Y-93395991D01*
X162712246Y-93749657D01*
X84530000Y-93749657D01*
X84530000Y-91844657D01*
X146405446Y-91844657D01*
X146540503Y-92171520D01*
X146790364Y-92421818D01*
X147116991Y-92557446D01*
X147470657Y-92557754D01*
X147797520Y-92422697D01*
X148047818Y-92172836D01*
X148183446Y-91846209D01*
X148183754Y-91492543D01*
X148048697Y-91165680D01*
X147798836Y-90915382D01*
X147472209Y-90779754D01*
X147118543Y-90779446D01*
X146791680Y-90914503D01*
X146541382Y-91164364D01*
X146405754Y-91490991D01*
X146405446Y-91844657D01*
X84530000Y-91844657D01*
X84530000Y-90228701D01*
X155638291Y-90228701D01*
X155909468Y-90885000D01*
X156411159Y-91387567D01*
X157066984Y-91659889D01*
X157777101Y-91660509D01*
X158433400Y-91389332D01*
X158935967Y-90887641D01*
X159208289Y-90231816D01*
X159208909Y-89521699D01*
X158937732Y-88865400D01*
X158935662Y-88863326D01*
X162065079Y-88863326D01*
X162154177Y-89288476D01*
X163002119Y-89624817D01*
X163914228Y-89611063D01*
X164693023Y-89288476D01*
X164782121Y-88863326D01*
X163423600Y-87504805D01*
X162065079Y-88863326D01*
X158935662Y-88863326D01*
X158436041Y-88362833D01*
X157780216Y-88090511D01*
X157070099Y-88089891D01*
X156413800Y-88361068D01*
X155911233Y-88862759D01*
X155638911Y-89518584D01*
X155638291Y-90228701D01*
X84530000Y-90228701D01*
X84530000Y-85719874D01*
X86364370Y-85719874D01*
X86916600Y-87056372D01*
X87938249Y-88079806D01*
X89273782Y-88634368D01*
X90719874Y-88635630D01*
X91498139Y-88314057D01*
X98272446Y-88314057D01*
X98407503Y-88640920D01*
X98657364Y-88891218D01*
X98983991Y-89026846D01*
X99337657Y-89027154D01*
X99664520Y-88892097D01*
X99691426Y-88865237D01*
X115300606Y-88865237D01*
X115435663Y-89192100D01*
X115685524Y-89442398D01*
X116012151Y-89578026D01*
X116365817Y-89578334D01*
X116692680Y-89443277D01*
X116942978Y-89193416D01*
X117078606Y-88866789D01*
X117078914Y-88513123D01*
X116943857Y-88186260D01*
X116693996Y-87935962D01*
X116367369Y-87800334D01*
X116013703Y-87800026D01*
X115686840Y-87935083D01*
X115436542Y-88184944D01*
X115300914Y-88511571D01*
X115300606Y-88865237D01*
X99691426Y-88865237D01*
X99914818Y-88642236D01*
X100050446Y-88315609D01*
X100050754Y-87961943D01*
X99915697Y-87635080D01*
X99665836Y-87384782D01*
X99339209Y-87249154D01*
X98985543Y-87248846D01*
X98658680Y-87383903D01*
X98408382Y-87633764D01*
X98272754Y-87960391D01*
X98272446Y-88314057D01*
X91498139Y-88314057D01*
X92056372Y-88083400D01*
X93079806Y-87061751D01*
X93108247Y-86993257D01*
X106095646Y-86993257D01*
X106230703Y-87320120D01*
X106480564Y-87570418D01*
X106807191Y-87706046D01*
X107014128Y-87706226D01*
X107043503Y-87777320D01*
X107293364Y-88027618D01*
X107619991Y-88163246D01*
X107973657Y-88163554D01*
X108300520Y-88028497D01*
X108550818Y-87778636D01*
X108592314Y-87678701D01*
X149638291Y-87678701D01*
X149909468Y-88335000D01*
X150411159Y-88837567D01*
X151066984Y-89109889D01*
X151777101Y-89110509D01*
X152433400Y-88839332D01*
X152935967Y-88337641D01*
X153208289Y-87681816D01*
X153208909Y-86971699D01*
X153180821Y-86903719D01*
X161123983Y-86903719D01*
X161137737Y-87815828D01*
X161460324Y-88594623D01*
X161885474Y-88683721D01*
X163243995Y-87325200D01*
X163603205Y-87325200D01*
X164961726Y-88683721D01*
X165386876Y-88594623D01*
X165723217Y-87746681D01*
X165709463Y-86834572D01*
X165386876Y-86055777D01*
X164961726Y-85966679D01*
X163603205Y-87325200D01*
X163243995Y-87325200D01*
X161885474Y-85966679D01*
X161460324Y-86055777D01*
X161123983Y-86903719D01*
X153180821Y-86903719D01*
X152937732Y-86315400D01*
X152436041Y-85812833D01*
X152374007Y-85787074D01*
X162065079Y-85787074D01*
X163423600Y-87145595D01*
X164782121Y-85787074D01*
X164693023Y-85361924D01*
X163845081Y-85025583D01*
X162932972Y-85039337D01*
X162154177Y-85361924D01*
X162065079Y-85787074D01*
X152374007Y-85787074D01*
X151780216Y-85540511D01*
X151070099Y-85539891D01*
X150413800Y-85811068D01*
X149911233Y-86312759D01*
X149638911Y-86968584D01*
X149638291Y-87678701D01*
X108592314Y-87678701D01*
X108686446Y-87452009D01*
X108686754Y-87098343D01*
X108551697Y-86771480D01*
X108301836Y-86521182D01*
X107975209Y-86385554D01*
X107768272Y-86385374D01*
X107738897Y-86314280D01*
X107489036Y-86063982D01*
X107162409Y-85928354D01*
X106808743Y-85928046D01*
X106481880Y-86063103D01*
X106231582Y-86312964D01*
X106095954Y-86639591D01*
X106095646Y-86993257D01*
X93108247Y-86993257D01*
X93634368Y-85726218D01*
X93635630Y-84280126D01*
X93083400Y-82943628D01*
X92061751Y-81920194D01*
X90726218Y-81365632D01*
X89280126Y-81364370D01*
X87943628Y-81916600D01*
X86920194Y-82938249D01*
X86365632Y-84273782D01*
X86364370Y-85719874D01*
X84530000Y-85719874D01*
X84530000Y-79421975D01*
X98001003Y-79421975D01*
X98170710Y-79832695D01*
X98001397Y-80240444D01*
X98001003Y-80691975D01*
X98170710Y-81102695D01*
X98001397Y-81510444D01*
X98001003Y-81961975D01*
X98170710Y-82372695D01*
X98001397Y-82780444D01*
X98001003Y-83231975D01*
X98170710Y-83642695D01*
X98001397Y-84050444D01*
X98001003Y-84501975D01*
X98173433Y-84919286D01*
X98492435Y-85238845D01*
X98909444Y-85412003D01*
X99360975Y-85412397D01*
X99517694Y-85347642D01*
X99527128Y-85703204D01*
X100139751Y-85931062D01*
X100792939Y-85907135D01*
X101285272Y-85703204D01*
X101294444Y-85357497D01*
X126349606Y-85357497D01*
X126484663Y-85684360D01*
X126734524Y-85934658D01*
X127061151Y-86070286D01*
X127414817Y-86070594D01*
X127741680Y-85935537D01*
X127991978Y-85685676D01*
X128127606Y-85359049D01*
X128127914Y-85005383D01*
X127992857Y-84678520D01*
X127742996Y-84428222D01*
X127644246Y-84387217D01*
X129727806Y-84387217D01*
X129862863Y-84714080D01*
X130112724Y-84964378D01*
X130439351Y-85100006D01*
X130793017Y-85100314D01*
X131119880Y-84965257D01*
X131370178Y-84715396D01*
X131505806Y-84388769D01*
X131506114Y-84035103D01*
X131371057Y-83708240D01*
X131121196Y-83457942D01*
X130794569Y-83322314D01*
X130440903Y-83322006D01*
X130114040Y-83457063D01*
X129863742Y-83706924D01*
X129728114Y-84033551D01*
X129727806Y-84387217D01*
X127644246Y-84387217D01*
X127416369Y-84292594D01*
X127062703Y-84292286D01*
X126735840Y-84427343D01*
X126485542Y-84677204D01*
X126349914Y-85003831D01*
X126349606Y-85357497D01*
X101294444Y-85357497D01*
X101294766Y-85345371D01*
X100406200Y-84456805D01*
X100208482Y-84654523D01*
X100271003Y-84503956D01*
X100271265Y-84204245D01*
X100333373Y-84142137D01*
X100630975Y-84142397D01*
X100783722Y-84079283D01*
X100585805Y-84277200D01*
X101474371Y-85165766D01*
X101832204Y-85156272D01*
X102060062Y-84543649D01*
X102036135Y-83890461D01*
X101832204Y-83398128D01*
X101476749Y-83388697D01*
X101541003Y-83233956D01*
X101541238Y-82963767D01*
X108792838Y-82963767D01*
X108934883Y-83307543D01*
X109197673Y-83570792D01*
X109541201Y-83713438D01*
X109913167Y-83713762D01*
X110256943Y-83571717D01*
X110520192Y-83308927D01*
X110662838Y-82965399D01*
X110662902Y-82891157D01*
X171411746Y-82891157D01*
X171546803Y-83218020D01*
X171796664Y-83468318D01*
X172123291Y-83603946D01*
X172476957Y-83604254D01*
X172803820Y-83469197D01*
X173054118Y-83219336D01*
X173189746Y-82892709D01*
X173190054Y-82539043D01*
X173054997Y-82212180D01*
X172805136Y-81961882D01*
X172478509Y-81826254D01*
X172124843Y-81825946D01*
X171797980Y-81961003D01*
X171547682Y-82210864D01*
X171412054Y-82537491D01*
X171411746Y-82891157D01*
X110662902Y-82891157D01*
X110663162Y-82593433D01*
X110521117Y-82249657D01*
X110312083Y-82040257D01*
X112598046Y-82040257D01*
X112733103Y-82367120D01*
X112982964Y-82617418D01*
X113309591Y-82753046D01*
X113663257Y-82753354D01*
X113990120Y-82618297D01*
X114240418Y-82368436D01*
X114376046Y-82041809D01*
X114376354Y-81688143D01*
X114241297Y-81361280D01*
X114056997Y-81176657D01*
X130581246Y-81176657D01*
X130716303Y-81503520D01*
X130966164Y-81753818D01*
X131292791Y-81889446D01*
X131646457Y-81889754D01*
X131973320Y-81754697D01*
X132223618Y-81504836D01*
X132359246Y-81178209D01*
X132359554Y-80824543D01*
X132224497Y-80497680D01*
X132090908Y-80363857D01*
X169773446Y-80363857D01*
X169908503Y-80690720D01*
X170158364Y-80941018D01*
X170484991Y-81076646D01*
X170838657Y-81076954D01*
X171165520Y-80941897D01*
X171415818Y-80692036D01*
X171551446Y-80365409D01*
X171551754Y-80011743D01*
X171416697Y-79684880D01*
X171166836Y-79434582D01*
X170840209Y-79298954D01*
X170486543Y-79298646D01*
X170159680Y-79433703D01*
X169909382Y-79683564D01*
X169773754Y-80010191D01*
X169773446Y-80363857D01*
X132090908Y-80363857D01*
X131974636Y-80247382D01*
X131648009Y-80111754D01*
X131294343Y-80111446D01*
X130967480Y-80246503D01*
X130717182Y-80496364D01*
X130581554Y-80822991D01*
X130581246Y-81176657D01*
X114056997Y-81176657D01*
X113991436Y-81110982D01*
X113664809Y-80975354D01*
X113311143Y-80975046D01*
X112984280Y-81110103D01*
X112733982Y-81359964D01*
X112598354Y-81686591D01*
X112598046Y-82040257D01*
X110312083Y-82040257D01*
X110258327Y-81986408D01*
X109914799Y-81843762D01*
X109542833Y-81843438D01*
X109199057Y-81985483D01*
X108935808Y-82248273D01*
X108793162Y-82591801D01*
X108792838Y-82963767D01*
X101541238Y-82963767D01*
X101541397Y-82782425D01*
X101371690Y-82371705D01*
X101541003Y-81963956D01*
X101541397Y-81512425D01*
X101475077Y-81351917D01*
X103870606Y-81351917D01*
X104005663Y-81678780D01*
X104255524Y-81929078D01*
X104582151Y-82064706D01*
X104935817Y-82065014D01*
X105262680Y-81929957D01*
X105512978Y-81680096D01*
X105648606Y-81353469D01*
X105648914Y-80999803D01*
X105585553Y-80846457D01*
X106959246Y-80846457D01*
X107094303Y-81173320D01*
X107344164Y-81423618D01*
X107670791Y-81559246D01*
X108024457Y-81559554D01*
X108351320Y-81424497D01*
X108601618Y-81174636D01*
X108669747Y-81010565D01*
X108842073Y-81183192D01*
X109185601Y-81325838D01*
X109557567Y-81326162D01*
X109901343Y-81184117D01*
X110164592Y-80921327D01*
X110307238Y-80577799D01*
X110307562Y-80205833D01*
X110165517Y-79862057D01*
X109902727Y-79598808D01*
X109559199Y-79456162D01*
X109187233Y-79455838D01*
X108843457Y-79597883D01*
X108580208Y-79860673D01*
X108496783Y-80061581D01*
X108352636Y-79917182D01*
X108026009Y-79781554D01*
X107672343Y-79781246D01*
X107345480Y-79916303D01*
X107095182Y-80166164D01*
X106959554Y-80492791D01*
X106959246Y-80846457D01*
X105585553Y-80846457D01*
X105513857Y-80672940D01*
X105263996Y-80422642D01*
X104937369Y-80287014D01*
X104583703Y-80286706D01*
X104256840Y-80421763D01*
X104006542Y-80671624D01*
X103870914Y-80998251D01*
X103870606Y-81351917D01*
X101475077Y-81351917D01*
X101371690Y-81101705D01*
X101541003Y-80693956D01*
X101541397Y-80242425D01*
X101371690Y-79831705D01*
X101541003Y-79423956D01*
X101541397Y-78972425D01*
X101509711Y-78895737D01*
X131780126Y-78895737D01*
X131915183Y-79222600D01*
X132165044Y-79472898D01*
X132491671Y-79608526D01*
X132845337Y-79608834D01*
X133172200Y-79473777D01*
X133422498Y-79223916D01*
X133517967Y-78994000D01*
X161774600Y-78994000D01*
X161832452Y-79284839D01*
X161997199Y-79531401D01*
X162243761Y-79696148D01*
X162534600Y-79754000D01*
X162825439Y-79696148D01*
X163072001Y-79531401D01*
X163097401Y-79506001D01*
X163262148Y-79259439D01*
X163320000Y-78968600D01*
X163262148Y-78677761D01*
X163097401Y-78431199D01*
X162850839Y-78266452D01*
X162560000Y-78208600D01*
X162269161Y-78266452D01*
X162022599Y-78431199D01*
X161997199Y-78456599D01*
X161832452Y-78703161D01*
X161774600Y-78994000D01*
X133517967Y-78994000D01*
X133558126Y-78897289D01*
X133558434Y-78543623D01*
X133423377Y-78216760D01*
X133173516Y-77966462D01*
X132846889Y-77830834D01*
X132493223Y-77830526D01*
X132166360Y-77965583D01*
X131916062Y-78215444D01*
X131780434Y-78542071D01*
X131780126Y-78895737D01*
X101509711Y-78895737D01*
X101368967Y-78555114D01*
X101049965Y-78235555D01*
X100670188Y-78077857D01*
X113893446Y-78077857D01*
X114028503Y-78404720D01*
X114278364Y-78655018D01*
X114604991Y-78790646D01*
X114958657Y-78790954D01*
X115285520Y-78655897D01*
X115535818Y-78406036D01*
X115671446Y-78079409D01*
X115671597Y-77905137D01*
X129036926Y-77905137D01*
X129171983Y-78232000D01*
X129421844Y-78482298D01*
X129748471Y-78617926D01*
X130102137Y-78618234D01*
X130429000Y-78483177D01*
X130679298Y-78233316D01*
X130814926Y-77906689D01*
X130815234Y-77553023D01*
X130680177Y-77226160D01*
X130430316Y-76975862D01*
X130103689Y-76840234D01*
X129750023Y-76839926D01*
X129423160Y-76974983D01*
X129172862Y-77224844D01*
X129037234Y-77551471D01*
X129036926Y-77905137D01*
X115671597Y-77905137D01*
X115671754Y-77725743D01*
X115536697Y-77398880D01*
X115286836Y-77148582D01*
X114960209Y-77012954D01*
X114606543Y-77012646D01*
X114279680Y-77147703D01*
X114029382Y-77397564D01*
X113893754Y-77724191D01*
X113893446Y-78077857D01*
X100670188Y-78077857D01*
X100632956Y-78062397D01*
X100181425Y-78062003D01*
X99770705Y-78231710D01*
X99362956Y-78062397D01*
X98911425Y-78062003D01*
X98494114Y-78234433D01*
X98174555Y-78553435D01*
X98001397Y-78970444D01*
X98001003Y-79421975D01*
X84530000Y-79421975D01*
X84530000Y-77314216D01*
X84688770Y-77420303D01*
X85123116Y-77506700D01*
X85728364Y-77506700D01*
X86162710Y-77420303D01*
X86530930Y-77174266D01*
X86758785Y-76833257D01*
X107822846Y-76833257D01*
X107957903Y-77160120D01*
X108207764Y-77410418D01*
X108534391Y-77546046D01*
X108888057Y-77546354D01*
X109149223Y-77438442D01*
X109347191Y-77520646D01*
X109700857Y-77520954D01*
X110027720Y-77385897D01*
X110278018Y-77136036D01*
X110413646Y-76809409D01*
X110413868Y-76553857D01*
X110642246Y-76553857D01*
X110777303Y-76880720D01*
X111027164Y-77131018D01*
X111353791Y-77266646D01*
X111707457Y-77266954D01*
X111751664Y-77248688D01*
X112039591Y-77368246D01*
X112393257Y-77368554D01*
X112720120Y-77233497D01*
X112788689Y-77165048D01*
X112957564Y-77334218D01*
X113284191Y-77469846D01*
X113637857Y-77470154D01*
X113964720Y-77335097D01*
X114215018Y-77085236D01*
X114350646Y-76758609D01*
X114350726Y-76665617D01*
X136408006Y-76665617D01*
X136543063Y-76992480D01*
X136792924Y-77242778D01*
X137119551Y-77378406D01*
X137473217Y-77378714D01*
X137800080Y-77243657D01*
X138050378Y-76993796D01*
X138186006Y-76667169D01*
X138186314Y-76313503D01*
X138051257Y-75986640D01*
X137801396Y-75736342D01*
X137474769Y-75600714D01*
X137121103Y-75600406D01*
X136794240Y-75735463D01*
X136543942Y-75985324D01*
X136408314Y-76311951D01*
X136408006Y-76665617D01*
X114350726Y-76665617D01*
X114350954Y-76404943D01*
X114215897Y-76078080D01*
X114143158Y-76005214D01*
X114244120Y-75963497D01*
X114494418Y-75713636D01*
X114591971Y-75478701D01*
X149638291Y-75478701D01*
X149909468Y-76135000D01*
X150411159Y-76637567D01*
X151066984Y-76909889D01*
X151777101Y-76910509D01*
X152182772Y-76742889D01*
X170853743Y-76742889D01*
X171079344Y-77288886D01*
X171496717Y-77706988D01*
X172042319Y-77933542D01*
X172633089Y-77934057D01*
X173179086Y-77708456D01*
X173597188Y-77291083D01*
X173823742Y-76745481D01*
X173824257Y-76154711D01*
X173598656Y-75608714D01*
X173181283Y-75190612D01*
X173134354Y-75171125D01*
X177863587Y-75171125D01*
X178225916Y-76048029D01*
X178896242Y-76719526D01*
X179772513Y-77083385D01*
X180721325Y-77084213D01*
X181598229Y-76721884D01*
X182269726Y-76051558D01*
X182633585Y-75175287D01*
X182634413Y-74226475D01*
X182272084Y-73349571D01*
X181601758Y-72678074D01*
X180725487Y-72314215D01*
X179776675Y-72313387D01*
X178899771Y-72675716D01*
X178228274Y-73346042D01*
X177864415Y-74222313D01*
X177863587Y-75171125D01*
X173134354Y-75171125D01*
X172635681Y-74964058D01*
X172044911Y-74963543D01*
X171498914Y-75189144D01*
X171080812Y-75606517D01*
X170854258Y-76152119D01*
X170853743Y-76742889D01*
X152182772Y-76742889D01*
X152433400Y-76639332D01*
X152935967Y-76137641D01*
X153208289Y-75481816D01*
X153208909Y-74771699D01*
X153001674Y-74270150D01*
X171197255Y-74270150D01*
X171249674Y-74664194D01*
X171989047Y-74950484D01*
X172781697Y-74932035D01*
X173428326Y-74664194D01*
X173480745Y-74270150D01*
X172339000Y-73128405D01*
X171197255Y-74270150D01*
X153001674Y-74270150D01*
X152937732Y-74115400D01*
X152436041Y-73612833D01*
X151780216Y-73340511D01*
X151070099Y-73339891D01*
X150413800Y-73611068D01*
X149911233Y-74112759D01*
X149638911Y-74768584D01*
X149638291Y-75478701D01*
X114591971Y-75478701D01*
X114630046Y-75387009D01*
X114630354Y-75033343D01*
X114495297Y-74706480D01*
X114245436Y-74456182D01*
X113918809Y-74320554D01*
X113565143Y-74320246D01*
X113238280Y-74455303D01*
X112987982Y-74705164D01*
X112852354Y-75031791D01*
X112852046Y-75385457D01*
X112987103Y-75712320D01*
X113059842Y-75785186D01*
X112958880Y-75826903D01*
X112890311Y-75895352D01*
X112721436Y-75726182D01*
X112394809Y-75590554D01*
X112041143Y-75590246D01*
X111996936Y-75608512D01*
X111709009Y-75488954D01*
X111355343Y-75488646D01*
X111028480Y-75623703D01*
X110778182Y-75873564D01*
X110642554Y-76200191D01*
X110642246Y-76553857D01*
X110413868Y-76553857D01*
X110413954Y-76455743D01*
X110278897Y-76128880D01*
X110029036Y-75878582D01*
X109702409Y-75742954D01*
X109348743Y-75742646D01*
X109087577Y-75850558D01*
X108889609Y-75768354D01*
X108535943Y-75768046D01*
X108209080Y-75903103D01*
X107958782Y-76152964D01*
X107823154Y-76479591D01*
X107822846Y-76833257D01*
X86758785Y-76833257D01*
X86776967Y-76806046D01*
X86863364Y-76371700D01*
X86776967Y-75937354D01*
X86530930Y-75569134D01*
X86162710Y-75323097D01*
X85728364Y-75236700D01*
X85123116Y-75236700D01*
X84688770Y-75323097D01*
X84530000Y-75429184D01*
X84530000Y-75197015D01*
X87015740Y-75197015D01*
X87015740Y-75546385D01*
X87100234Y-75971164D01*
X87340851Y-76331274D01*
X87700961Y-76571891D01*
X88125740Y-76656385D01*
X88550519Y-76571891D01*
X88910629Y-76331274D01*
X89151246Y-75971164D01*
X89235740Y-75546385D01*
X89235740Y-75410857D01*
X105562246Y-75410857D01*
X105697303Y-75737720D01*
X105947164Y-75988018D01*
X106273791Y-76123646D01*
X106627457Y-76123954D01*
X106954320Y-75988897D01*
X107204618Y-75739036D01*
X107340246Y-75412409D01*
X107340554Y-75058743D01*
X107205497Y-74731880D01*
X106955636Y-74481582D01*
X106629009Y-74345954D01*
X106275343Y-74345646D01*
X105948480Y-74480703D01*
X105698182Y-74730564D01*
X105562554Y-75057191D01*
X105562246Y-75410857D01*
X89235740Y-75410857D01*
X89235740Y-75197015D01*
X89151246Y-74772236D01*
X88910629Y-74412126D01*
X88808757Y-74344057D01*
X89331646Y-74344057D01*
X89466703Y-74670920D01*
X89716564Y-74921218D01*
X90043191Y-75056846D01*
X90396857Y-75057154D01*
X90723720Y-74922097D01*
X90974018Y-74672236D01*
X91047008Y-74496457D01*
X98323246Y-74496457D01*
X98458303Y-74823320D01*
X98708164Y-75073618D01*
X99034791Y-75209246D01*
X99388457Y-75209554D01*
X99715320Y-75074497D01*
X99965618Y-74824636D01*
X100101246Y-74498009D01*
X100101554Y-74144343D01*
X99966497Y-73817480D01*
X99716636Y-73567182D01*
X99390009Y-73431554D01*
X99036343Y-73431246D01*
X98709480Y-73566303D01*
X98459182Y-73816164D01*
X98323554Y-74142791D01*
X98323246Y-74496457D01*
X91047008Y-74496457D01*
X91109646Y-74345609D01*
X91109954Y-73991943D01*
X90974897Y-73665080D01*
X90725036Y-73414782D01*
X90398409Y-73279154D01*
X90044743Y-73278846D01*
X89717880Y-73413903D01*
X89467582Y-73663764D01*
X89331954Y-73990391D01*
X89331646Y-74344057D01*
X88808757Y-74344057D01*
X88550519Y-74171509D01*
X88125740Y-74087015D01*
X87700961Y-74171509D01*
X87340851Y-74412126D01*
X87100234Y-74772236D01*
X87015740Y-75197015D01*
X84530000Y-75197015D01*
X84530000Y-71867557D01*
X99021746Y-71867557D01*
X99156803Y-72194420D01*
X99406664Y-72444718D01*
X99733291Y-72580346D01*
X100086957Y-72580654D01*
X100413820Y-72445597D01*
X100664118Y-72195736D01*
X100799746Y-71869109D01*
X100799769Y-71842157D01*
X101396646Y-71842157D01*
X101531703Y-72169020D01*
X101781564Y-72419318D01*
X102108191Y-72554946D01*
X102461857Y-72555254D01*
X102788720Y-72420197D01*
X102998826Y-72210457D01*
X105841646Y-72210457D01*
X105905326Y-72364575D01*
X105841954Y-72517191D01*
X105841646Y-72870857D01*
X105905326Y-73024975D01*
X105841954Y-73177591D01*
X105841646Y-73531257D01*
X105976703Y-73858120D01*
X106226564Y-74108418D01*
X106553191Y-74244046D01*
X106906857Y-74244354D01*
X107233720Y-74109297D01*
X107484018Y-73859436D01*
X107619646Y-73532809D01*
X107619954Y-73179143D01*
X107556274Y-73025025D01*
X107619646Y-72872409D01*
X107619954Y-72518743D01*
X107556274Y-72364625D01*
X107619646Y-72212009D01*
X107619954Y-71858343D01*
X107484897Y-71531480D01*
X107235036Y-71281182D01*
X106908409Y-71145554D01*
X106554743Y-71145246D01*
X106227880Y-71280303D01*
X105977582Y-71530164D01*
X105841954Y-71856791D01*
X105841646Y-72210457D01*
X102998826Y-72210457D01*
X103039018Y-72170336D01*
X103174646Y-71843709D01*
X103174954Y-71490043D01*
X103039897Y-71163180D01*
X102790036Y-70912882D01*
X102463409Y-70777254D01*
X102109743Y-70776946D01*
X101782880Y-70912003D01*
X101532582Y-71161864D01*
X101396954Y-71488491D01*
X101396646Y-71842157D01*
X100799769Y-71842157D01*
X100800054Y-71515443D01*
X100664997Y-71188580D01*
X100415136Y-70938282D01*
X100088509Y-70802654D01*
X99734843Y-70802346D01*
X99407980Y-70937403D01*
X99157682Y-71187264D01*
X99022054Y-71513891D01*
X99021746Y-71867557D01*
X84530000Y-71867557D01*
X84530000Y-70314216D01*
X84688770Y-70420303D01*
X85123116Y-70506700D01*
X85728364Y-70506700D01*
X86162710Y-70420303D01*
X86496883Y-70197015D01*
X87015740Y-70197015D01*
X87015740Y-70546385D01*
X87100234Y-70971164D01*
X87340851Y-71331274D01*
X87700961Y-71571891D01*
X88125740Y-71656385D01*
X88550519Y-71571891D01*
X88910629Y-71331274D01*
X89151246Y-70971164D01*
X89235740Y-70546385D01*
X89235740Y-70197015D01*
X89151246Y-69772236D01*
X88910629Y-69412126D01*
X88550519Y-69171509D01*
X88125740Y-69087015D01*
X87700961Y-69171509D01*
X87340851Y-69412126D01*
X87100234Y-69772236D01*
X87015740Y-70197015D01*
X86496883Y-70197015D01*
X86530930Y-70174266D01*
X86776967Y-69806046D01*
X86863364Y-69371700D01*
X86776967Y-68937354D01*
X86530930Y-68569134D01*
X86162710Y-68323097D01*
X85728364Y-68236700D01*
X85123116Y-68236700D01*
X84688770Y-68323097D01*
X84530000Y-68429184D01*
X84530000Y-68159157D01*
X98907446Y-68159157D01*
X99042503Y-68486020D01*
X99047364Y-68490889D01*
X99043382Y-68494864D01*
X98907754Y-68821491D01*
X98907446Y-69175157D01*
X99042503Y-69502020D01*
X99292364Y-69752318D01*
X99618991Y-69887946D01*
X99972657Y-69888254D01*
X100299520Y-69753197D01*
X100549818Y-69503336D01*
X100685446Y-69176709D01*
X100685754Y-68823043D01*
X100550697Y-68496180D01*
X100545836Y-68491311D01*
X100549818Y-68487336D01*
X100606987Y-68349657D01*
X104393846Y-68349657D01*
X104528903Y-68676520D01*
X104540403Y-68688040D01*
X104432254Y-68948491D01*
X104431946Y-69302157D01*
X104567003Y-69629020D01*
X104816864Y-69879318D01*
X104865176Y-69899379D01*
X104859982Y-69904564D01*
X104724354Y-70231191D01*
X104724046Y-70584857D01*
X104859103Y-70911720D01*
X105108964Y-71162018D01*
X105435591Y-71297646D01*
X105789257Y-71297954D01*
X106116120Y-71162897D01*
X106211726Y-71067457D01*
X112953646Y-71067457D01*
X113088703Y-71394320D01*
X113320708Y-71626730D01*
X113309554Y-71653591D01*
X113309246Y-72007257D01*
X113444303Y-72334120D01*
X113694164Y-72584418D01*
X114020791Y-72720046D01*
X114374457Y-72720354D01*
X114701320Y-72585297D01*
X114951618Y-72335436D01*
X114982419Y-72261257D01*
X116331846Y-72261257D01*
X116466903Y-72588120D01*
X116716764Y-72838418D01*
X116865309Y-72900100D01*
X116865246Y-72972457D01*
X117000303Y-73299320D01*
X117250164Y-73549618D01*
X117576791Y-73685246D01*
X117930457Y-73685554D01*
X118033404Y-73643017D01*
X125364086Y-73643017D01*
X125499143Y-73969880D01*
X125749004Y-74220178D01*
X126075631Y-74355806D01*
X126429297Y-74356114D01*
X126756160Y-74221057D01*
X127006458Y-73971196D01*
X127142086Y-73644569D01*
X127142394Y-73290903D01*
X127124162Y-73246777D01*
X130515206Y-73246777D01*
X130650263Y-73573640D01*
X130900124Y-73823938D01*
X131226751Y-73959566D01*
X131580417Y-73959874D01*
X131907280Y-73824817D01*
X132157578Y-73574956D01*
X132293206Y-73248329D01*
X132293514Y-72894663D01*
X132171286Y-72598847D01*
X170337316Y-72598847D01*
X170355765Y-73391497D01*
X170623606Y-74038126D01*
X171017650Y-74090545D01*
X172159395Y-72948800D01*
X172518605Y-72948800D01*
X173660350Y-74090545D01*
X174054394Y-74038126D01*
X174340684Y-73298753D01*
X174322235Y-72506103D01*
X174054394Y-71859474D01*
X173660350Y-71807055D01*
X172518605Y-72948800D01*
X172159395Y-72948800D01*
X171017650Y-71807055D01*
X170623606Y-71859474D01*
X170337316Y-72598847D01*
X132171286Y-72598847D01*
X132158457Y-72567800D01*
X131908596Y-72317502D01*
X131581969Y-72181874D01*
X131228303Y-72181566D01*
X130901440Y-72316623D01*
X130651142Y-72566484D01*
X130515514Y-72893111D01*
X130515206Y-73246777D01*
X127124162Y-73246777D01*
X127007337Y-72964040D01*
X126757476Y-72713742D01*
X126430849Y-72578114D01*
X126077183Y-72577806D01*
X125750320Y-72712863D01*
X125500022Y-72962724D01*
X125364394Y-73289351D01*
X125364086Y-73643017D01*
X118033404Y-73643017D01*
X118257320Y-73550497D01*
X118507618Y-73300636D01*
X118643246Y-72974009D01*
X118643554Y-72620343D01*
X118508497Y-72293480D01*
X118258636Y-72043182D01*
X118222742Y-72028277D01*
X127591623Y-72028277D01*
X127726680Y-72355140D01*
X127976541Y-72605438D01*
X128303168Y-72741066D01*
X128656834Y-72741374D01*
X128983697Y-72606317D01*
X129233995Y-72356456D01*
X129369623Y-72029829D01*
X129369931Y-71676163D01*
X129265350Y-71423057D01*
X141249246Y-71423057D01*
X141384303Y-71749920D01*
X141634164Y-72000218D01*
X141960791Y-72135846D01*
X142314457Y-72136154D01*
X142641320Y-72001097D01*
X142891618Y-71751236D01*
X142943018Y-71627450D01*
X171197255Y-71627450D01*
X172339000Y-72769195D01*
X173480745Y-71627450D01*
X173428326Y-71233406D01*
X172688953Y-70947116D01*
X171896303Y-70965565D01*
X171249674Y-71233406D01*
X171197255Y-71627450D01*
X142943018Y-71627450D01*
X143027246Y-71424609D01*
X143027554Y-71070943D01*
X142971282Y-70934754D01*
X143052646Y-70738809D01*
X143052954Y-70385143D01*
X142917897Y-70058280D01*
X142835019Y-69975257D01*
X171272046Y-69975257D01*
X171407103Y-70302120D01*
X171656964Y-70552418D01*
X171983591Y-70688046D01*
X172337257Y-70688354D01*
X172664120Y-70553297D01*
X172914418Y-70303436D01*
X173050046Y-69976809D01*
X173050354Y-69623143D01*
X172915297Y-69296280D01*
X172665436Y-69045982D01*
X172338809Y-68910354D01*
X171985143Y-68910046D01*
X171658280Y-69045103D01*
X171407982Y-69294964D01*
X171272354Y-69621591D01*
X171272046Y-69975257D01*
X142835019Y-69975257D01*
X142668036Y-69807982D01*
X142341409Y-69672354D01*
X141987743Y-69672046D01*
X141660880Y-69807103D01*
X141410582Y-70056964D01*
X141274954Y-70383591D01*
X141274646Y-70737257D01*
X141330918Y-70873446D01*
X141249554Y-71069391D01*
X141249246Y-71423057D01*
X129265350Y-71423057D01*
X129234874Y-71349300D01*
X128985013Y-71099002D01*
X128658386Y-70963374D01*
X128304720Y-70963066D01*
X127977857Y-71098123D01*
X127727559Y-71347984D01*
X127591931Y-71674611D01*
X127591623Y-72028277D01*
X118222742Y-72028277D01*
X118110091Y-71981500D01*
X118110154Y-71909143D01*
X117975097Y-71582280D01*
X117725236Y-71331982D01*
X117398609Y-71196354D01*
X117044943Y-71196046D01*
X116718080Y-71331103D01*
X116467782Y-71580964D01*
X116332154Y-71907591D01*
X116331846Y-72261257D01*
X114982419Y-72261257D01*
X115087246Y-72008809D01*
X115087554Y-71655143D01*
X114952497Y-71328280D01*
X114720492Y-71095870D01*
X114731646Y-71069009D01*
X114731954Y-70715343D01*
X114596897Y-70388480D01*
X114347036Y-70138182D01*
X114020409Y-70002554D01*
X113666743Y-70002246D01*
X113339880Y-70137303D01*
X113089582Y-70387164D01*
X112953954Y-70713791D01*
X112953646Y-71067457D01*
X106211726Y-71067457D01*
X106366418Y-70913036D01*
X106502046Y-70586409D01*
X106502354Y-70232743D01*
X106395963Y-69975257D01*
X110083446Y-69975257D01*
X110218503Y-70302120D01*
X110468364Y-70552418D01*
X110794991Y-70688046D01*
X111148657Y-70688354D01*
X111475520Y-70553297D01*
X111725818Y-70303436D01*
X111861446Y-69976809D01*
X111861754Y-69623143D01*
X111726697Y-69296280D01*
X111476836Y-69045982D01*
X111150209Y-68910354D01*
X110796543Y-68910046D01*
X110469680Y-69045103D01*
X110219382Y-69294964D01*
X110083754Y-69621591D01*
X110083446Y-69975257D01*
X106395963Y-69975257D01*
X106367297Y-69905880D01*
X106117436Y-69655582D01*
X106069124Y-69635521D01*
X106074318Y-69630336D01*
X106209946Y-69303709D01*
X106210254Y-68950043D01*
X106119606Y-68730657D01*
X112902846Y-68730657D01*
X113037903Y-69057520D01*
X113287764Y-69307818D01*
X113614391Y-69443446D01*
X113968057Y-69443754D01*
X114294920Y-69308697D01*
X114517749Y-69086257D01*
X116204846Y-69086257D01*
X116339903Y-69413120D01*
X116589764Y-69663418D01*
X116916391Y-69799046D01*
X117270057Y-69799354D01*
X117596920Y-69664297D01*
X117847218Y-69414436D01*
X117982846Y-69087809D01*
X117983154Y-68734143D01*
X117887259Y-68502057D01*
X122148446Y-68502057D01*
X122283503Y-68828920D01*
X122533364Y-69079218D01*
X122859991Y-69214846D01*
X123213657Y-69215154D01*
X123540520Y-69080097D01*
X123790818Y-68830236D01*
X123926446Y-68503609D01*
X123926754Y-68149943D01*
X123791697Y-67823080D01*
X123541836Y-67572782D01*
X123215209Y-67437154D01*
X122861543Y-67436846D01*
X122534680Y-67571903D01*
X122284382Y-67821764D01*
X122148754Y-68148391D01*
X122148446Y-68502057D01*
X117887259Y-68502057D01*
X117848097Y-68407280D01*
X117598236Y-68156982D01*
X117271609Y-68021354D01*
X116917943Y-68021046D01*
X116591080Y-68156103D01*
X116340782Y-68405964D01*
X116205154Y-68732591D01*
X116204846Y-69086257D01*
X114517749Y-69086257D01*
X114545218Y-69058836D01*
X114680846Y-68732209D01*
X114681154Y-68378543D01*
X114546097Y-68051680D01*
X114296236Y-67801382D01*
X113969609Y-67665754D01*
X113615943Y-67665446D01*
X113289080Y-67800503D01*
X113038782Y-68050364D01*
X112903154Y-68376991D01*
X112902846Y-68730657D01*
X106119606Y-68730657D01*
X106075197Y-68623180D01*
X106063697Y-68611660D01*
X106171846Y-68351209D01*
X106172154Y-67997543D01*
X106151823Y-67948337D01*
X107010046Y-67948337D01*
X107145103Y-68275200D01*
X107394964Y-68525498D01*
X107721591Y-68661126D01*
X108075257Y-68661434D01*
X108233142Y-68596197D01*
X108420091Y-68673826D01*
X108773757Y-68674134D01*
X109100620Y-68539077D01*
X109350918Y-68289216D01*
X109486546Y-67962589D01*
X109486854Y-67608923D01*
X109351797Y-67282060D01*
X109134534Y-67064417D01*
X126517246Y-67064417D01*
X126640896Y-67363672D01*
X126517554Y-67660711D01*
X126517246Y-68014377D01*
X126652303Y-68341240D01*
X126902164Y-68591538D01*
X127228791Y-68727166D01*
X127582457Y-68727474D01*
X127909320Y-68592417D01*
X127999838Y-68502057D01*
X129158846Y-68502057D01*
X129290913Y-68821683D01*
X129159154Y-69138991D01*
X129158846Y-69492657D01*
X129293903Y-69819520D01*
X129543764Y-70069818D01*
X129870391Y-70205446D01*
X130224057Y-70205754D01*
X130550920Y-70070697D01*
X130801218Y-69820836D01*
X130936846Y-69494209D01*
X130937154Y-69140543D01*
X130805087Y-68820917D01*
X130936846Y-68503609D01*
X130937154Y-68149943D01*
X130802097Y-67823080D01*
X130552236Y-67572782D01*
X130225609Y-67437154D01*
X129871943Y-67436846D01*
X129545080Y-67571903D01*
X129294782Y-67821764D01*
X129159154Y-68148391D01*
X129158846Y-68502057D01*
X127999838Y-68502057D01*
X128159618Y-68342556D01*
X128295246Y-68015929D01*
X128295554Y-67662263D01*
X128171904Y-67363008D01*
X128226279Y-67232057D01*
X131165446Y-67232057D01*
X131300503Y-67558920D01*
X131550364Y-67809218D01*
X131876991Y-67944846D01*
X132230657Y-67945154D01*
X132557520Y-67810097D01*
X132807818Y-67560236D01*
X132859714Y-67435257D01*
X169494046Y-67435257D01*
X169629103Y-67762120D01*
X169878964Y-68012418D01*
X170205591Y-68148046D01*
X170559257Y-68148354D01*
X170886120Y-68013297D01*
X171136418Y-67763436D01*
X171272046Y-67436809D01*
X171272354Y-67083143D01*
X171137297Y-66756280D01*
X170887436Y-66505982D01*
X170560809Y-66370354D01*
X170207143Y-66370046D01*
X169880280Y-66505103D01*
X169629982Y-66754964D01*
X169494354Y-67081591D01*
X169494046Y-67435257D01*
X132859714Y-67435257D01*
X132943446Y-67233609D01*
X132943754Y-66879943D01*
X132808697Y-66553080D01*
X132558836Y-66302782D01*
X132232209Y-66167154D01*
X131878543Y-66166846D01*
X131551680Y-66301903D01*
X131301382Y-66551764D01*
X131165754Y-66878391D01*
X131165446Y-67232057D01*
X128226279Y-67232057D01*
X128295246Y-67065969D01*
X128295554Y-66712303D01*
X128160497Y-66385440D01*
X127910636Y-66135142D01*
X127584009Y-65999514D01*
X127230343Y-65999206D01*
X126903480Y-66134263D01*
X126653182Y-66384124D01*
X126517554Y-66710751D01*
X126517246Y-67064417D01*
X109134534Y-67064417D01*
X109101936Y-67031762D01*
X108775309Y-66896134D01*
X108421643Y-66895826D01*
X108263758Y-66961063D01*
X108076809Y-66883434D01*
X107723143Y-66883126D01*
X107396280Y-67018183D01*
X107145982Y-67268044D01*
X107010354Y-67594671D01*
X107010046Y-67948337D01*
X106151823Y-67948337D01*
X106037097Y-67670680D01*
X105787236Y-67420382D01*
X105460609Y-67284754D01*
X105106943Y-67284446D01*
X104780080Y-67419503D01*
X104529782Y-67669364D01*
X104394154Y-67995991D01*
X104393846Y-68349657D01*
X100606987Y-68349657D01*
X100685446Y-68160709D01*
X100685754Y-67807043D01*
X100550697Y-67480180D01*
X100300836Y-67229882D01*
X99974209Y-67094254D01*
X99620543Y-67093946D01*
X99293680Y-67229003D01*
X99043382Y-67478864D01*
X98907754Y-67805491D01*
X98907446Y-68159157D01*
X84530000Y-68159157D01*
X84530000Y-66457357D01*
X100596546Y-66457357D01*
X100731603Y-66784220D01*
X100981464Y-67034518D01*
X101308091Y-67170146D01*
X101661757Y-67170454D01*
X101988620Y-67035397D01*
X102238918Y-66785536D01*
X102310507Y-66613132D01*
X102336791Y-66624046D01*
X102690457Y-66624354D01*
X103017320Y-66489297D01*
X103267618Y-66239436D01*
X103403246Y-65912809D01*
X103403554Y-65559143D01*
X103268497Y-65232280D01*
X103018636Y-64981982D01*
X102692009Y-64846354D01*
X102338343Y-64846046D01*
X102011480Y-64981103D01*
X101761182Y-65230964D01*
X101689593Y-65403368D01*
X101663309Y-65392454D01*
X101309643Y-65392146D01*
X100982780Y-65527203D01*
X100732482Y-65777064D01*
X100596854Y-66103691D01*
X100596546Y-66457357D01*
X84530000Y-66457357D01*
X84530000Y-65495321D01*
X84556791Y-65506446D01*
X84910457Y-65506754D01*
X85237320Y-65371697D01*
X85487618Y-65121836D01*
X85623246Y-64795209D01*
X85623554Y-64441543D01*
X85488497Y-64114680D01*
X85238636Y-63864382D01*
X85187355Y-63843088D01*
X98583250Y-63843088D01*
X98718307Y-64169951D01*
X98968168Y-64420249D01*
X99294795Y-64555877D01*
X99648461Y-64556185D01*
X99975324Y-64421128D01*
X100225622Y-64171267D01*
X100361250Y-63844640D01*
X100361558Y-63490974D01*
X100226501Y-63164111D01*
X99976640Y-62913813D01*
X99650013Y-62778185D01*
X99296347Y-62777877D01*
X98969484Y-62912934D01*
X98719186Y-63162795D01*
X98583558Y-63489422D01*
X98583250Y-63843088D01*
X85187355Y-63843088D01*
X84912009Y-63728754D01*
X84558343Y-63728446D01*
X84530000Y-63740157D01*
X84530000Y-62710857D01*
X96977046Y-62710857D01*
X97112103Y-63037720D01*
X97361964Y-63288018D01*
X97688591Y-63423646D01*
X98042257Y-63423954D01*
X98369120Y-63288897D01*
X98619418Y-63039036D01*
X98755046Y-62712409D01*
X98755354Y-62358743D01*
X98620297Y-62031880D01*
X98512064Y-61923457D01*
X108838846Y-61923457D01*
X108960392Y-62217620D01*
X108839154Y-62509591D01*
X108838846Y-62863257D01*
X108973903Y-63190120D01*
X109223764Y-63440418D01*
X109550391Y-63576046D01*
X109689929Y-63576168D01*
X109626554Y-63728791D01*
X109626246Y-64082457D01*
X109761303Y-64409320D01*
X110011164Y-64659618D01*
X110235781Y-64752888D01*
X110303723Y-64917320D01*
X110553584Y-65167618D01*
X110676321Y-65218583D01*
X110803723Y-65526920D01*
X111053584Y-65777218D01*
X111380211Y-65912846D01*
X111733877Y-65913154D01*
X112060740Y-65778097D01*
X112311038Y-65528236D01*
X112446666Y-65201609D01*
X112446974Y-64847943D01*
X112311917Y-64521080D01*
X112062056Y-64270782D01*
X111939319Y-64219817D01*
X111811917Y-63911480D01*
X111562056Y-63661182D01*
X111337439Y-63567912D01*
X111269497Y-63403480D01*
X111019636Y-63153182D01*
X110693009Y-63017554D01*
X110553471Y-63017432D01*
X110616846Y-62864809D01*
X110616847Y-62863257D01*
X114147446Y-62863257D01*
X114282503Y-63190120D01*
X114532364Y-63440418D01*
X114858991Y-63576046D01*
X115212657Y-63576354D01*
X115539520Y-63441297D01*
X115787793Y-63193457D01*
X127939646Y-63193457D01*
X128074703Y-63520320D01*
X128324564Y-63770618D01*
X128651191Y-63906246D01*
X129004857Y-63906554D01*
X129331720Y-63771497D01*
X129582018Y-63521636D01*
X129717646Y-63195009D01*
X129717954Y-62841343D01*
X129582897Y-62514480D01*
X129333036Y-62264182D01*
X129006409Y-62128554D01*
X128652743Y-62128246D01*
X128325880Y-62263303D01*
X128075582Y-62513164D01*
X127939954Y-62839791D01*
X127939646Y-63193457D01*
X115787793Y-63193457D01*
X115789818Y-63191436D01*
X115925446Y-62864809D01*
X115925754Y-62511143D01*
X115824979Y-62267248D01*
X115840618Y-62251636D01*
X115908052Y-62089239D01*
X116001991Y-62128246D01*
X116355657Y-62128554D01*
X116682520Y-61993497D01*
X116932818Y-61743636D01*
X117068446Y-61417009D01*
X117068754Y-61063343D01*
X117014839Y-60932857D01*
X164109246Y-60932857D01*
X164244303Y-61259720D01*
X164494164Y-61510018D01*
X164820791Y-61645646D01*
X165174457Y-61645954D01*
X165501320Y-61510897D01*
X165751618Y-61261036D01*
X165887246Y-60934409D01*
X165887554Y-60580743D01*
X165752497Y-60253880D01*
X165502636Y-60003582D01*
X165176009Y-59867954D01*
X164822343Y-59867646D01*
X164495480Y-60002703D01*
X164245182Y-60252564D01*
X164109554Y-60579191D01*
X164109246Y-60932857D01*
X117014839Y-60932857D01*
X116933697Y-60736480D01*
X116683836Y-60486182D01*
X116357209Y-60350554D01*
X116003543Y-60350246D01*
X115676680Y-60485303D01*
X115426382Y-60735164D01*
X115358948Y-60897561D01*
X115265009Y-60858554D01*
X114911343Y-60858246D01*
X114584480Y-60993303D01*
X114334182Y-61243164D01*
X114198554Y-61569791D01*
X114198246Y-61923457D01*
X114299021Y-62167352D01*
X114283382Y-62182964D01*
X114147754Y-62509591D01*
X114147446Y-62863257D01*
X110616847Y-62863257D01*
X110617154Y-62511143D01*
X110495608Y-62216980D01*
X110616846Y-61925009D01*
X110617154Y-61571343D01*
X110523783Y-61345368D01*
X110582818Y-61286436D01*
X110718446Y-60959809D01*
X110718754Y-60606143D01*
X110583697Y-60279280D01*
X110333836Y-60028982D01*
X110007209Y-59893354D01*
X109653543Y-59893046D01*
X109326680Y-60028103D01*
X109076382Y-60277964D01*
X108940754Y-60604591D01*
X108940446Y-60958257D01*
X109033817Y-61184232D01*
X108974782Y-61243164D01*
X108839154Y-61569791D01*
X108838846Y-61923457D01*
X98512064Y-61923457D01*
X98370436Y-61781582D01*
X98043809Y-61645954D01*
X97690143Y-61645646D01*
X97363280Y-61780703D01*
X97112982Y-62030564D01*
X96977354Y-62357191D01*
X96977046Y-62710857D01*
X84530000Y-62710857D01*
X84530000Y-60374057D01*
X97053246Y-60374057D01*
X97188303Y-60700920D01*
X97438164Y-60951218D01*
X97764791Y-61086846D01*
X98118457Y-61087154D01*
X98445320Y-60952097D01*
X98695618Y-60702236D01*
X98831246Y-60375609D01*
X98831554Y-60021943D01*
X98767144Y-59866057D01*
X112801246Y-59866057D01*
X112936303Y-60192920D01*
X113186164Y-60443218D01*
X113512791Y-60578846D01*
X113866457Y-60579154D01*
X114193320Y-60444097D01*
X114443618Y-60194236D01*
X114579246Y-59867609D01*
X114579554Y-59513943D01*
X114444497Y-59187080D01*
X114194636Y-58936782D01*
X113868009Y-58801154D01*
X113514343Y-58800846D01*
X113187480Y-58935903D01*
X112937182Y-59185764D01*
X112801554Y-59512391D01*
X112801246Y-59866057D01*
X98767144Y-59866057D01*
X98696497Y-59695080D01*
X98446636Y-59444782D01*
X98120009Y-59309154D01*
X97766343Y-59308846D01*
X97439480Y-59443903D01*
X97189182Y-59693764D01*
X97053554Y-60020391D01*
X97053246Y-60374057D01*
X84530000Y-60374057D01*
X84530000Y-58418257D01*
X94945046Y-58418257D01*
X95080103Y-58745120D01*
X95329964Y-58995418D01*
X95656591Y-59131046D01*
X96010257Y-59131354D01*
X96337120Y-58996297D01*
X96587418Y-58746436D01*
X96723046Y-58419809D01*
X96723246Y-58189657D01*
X136728046Y-58189657D01*
X136863103Y-58516520D01*
X137112964Y-58766818D01*
X137439591Y-58902446D01*
X137793257Y-58902754D01*
X138120120Y-58767697D01*
X138370418Y-58517836D01*
X138506046Y-58191209D01*
X138506354Y-57837543D01*
X138371297Y-57510680D01*
X138121436Y-57260382D01*
X138096090Y-57249857D01*
X152958646Y-57249857D01*
X153093703Y-57576720D01*
X153343564Y-57827018D01*
X153670191Y-57962646D01*
X154023857Y-57962954D01*
X154350720Y-57827897D01*
X154601018Y-57578036D01*
X154736646Y-57251409D01*
X154736954Y-56897743D01*
X154601897Y-56570880D01*
X154352036Y-56320582D01*
X154025409Y-56184954D01*
X153671743Y-56184646D01*
X153344880Y-56319703D01*
X153094582Y-56569564D01*
X152958954Y-56896191D01*
X152958646Y-57249857D01*
X138096090Y-57249857D01*
X137794809Y-57124754D01*
X137441143Y-57124446D01*
X137114280Y-57259503D01*
X136863982Y-57509364D01*
X136728354Y-57835991D01*
X136728046Y-58189657D01*
X96723246Y-58189657D01*
X96723354Y-58066143D01*
X96588297Y-57739280D01*
X96338436Y-57488982D01*
X96011809Y-57353354D01*
X95658143Y-57353046D01*
X95331280Y-57488103D01*
X95080982Y-57737964D01*
X94945354Y-58064591D01*
X94945046Y-58418257D01*
X84530000Y-58418257D01*
X84530000Y-57046657D01*
X97104046Y-57046657D01*
X97239103Y-57373520D01*
X97488964Y-57623818D01*
X97815591Y-57759446D01*
X98169257Y-57759754D01*
X98496120Y-57624697D01*
X98746418Y-57374836D01*
X98750852Y-57364157D01*
X100334926Y-57364157D01*
X100469983Y-57691020D01*
X100719844Y-57941318D01*
X101046471Y-58076946D01*
X101400137Y-58077254D01*
X101727000Y-57942197D01*
X101977298Y-57692336D01*
X102112926Y-57365709D01*
X102113234Y-57012043D01*
X101978177Y-56685180D01*
X101728316Y-56434882D01*
X101401689Y-56299254D01*
X101048023Y-56298946D01*
X100721160Y-56434003D01*
X100470862Y-56683864D01*
X100335234Y-57010491D01*
X100334926Y-57364157D01*
X98750852Y-57364157D01*
X98882046Y-57048209D01*
X98882354Y-56694543D01*
X98747297Y-56367680D01*
X98497436Y-56117382D01*
X98170809Y-55981754D01*
X97817143Y-55981446D01*
X97490280Y-56116503D01*
X97239982Y-56366364D01*
X97104354Y-56692991D01*
X97104046Y-57046657D01*
X84530000Y-57046657D01*
X84530000Y-54939468D01*
X84531391Y-54940046D01*
X84885057Y-54940354D01*
X85211920Y-54805297D01*
X85462218Y-54555436D01*
X85597846Y-54228809D01*
X85598154Y-53875143D01*
X85586219Y-53846257D01*
X112166246Y-53846257D01*
X112301303Y-54173120D01*
X112551164Y-54423418D01*
X112877791Y-54559046D01*
X113231457Y-54559354D01*
X113558320Y-54424297D01*
X113808618Y-54174436D01*
X113944246Y-53847809D01*
X113944554Y-53494143D01*
X113940135Y-53483446D01*
X120836690Y-53483446D01*
X120836690Y-55076154D01*
X120942354Y-55607361D01*
X121243258Y-56057696D01*
X121693593Y-56358600D01*
X122224800Y-56464264D01*
X122756007Y-56358600D01*
X123206342Y-56057696D01*
X123494800Y-55625988D01*
X123783258Y-56057696D01*
X124233593Y-56358600D01*
X124764800Y-56464264D01*
X125296007Y-56358600D01*
X125746342Y-56057696D01*
X126047246Y-55607361D01*
X126152910Y-55076154D01*
X126152910Y-53483446D01*
X126551690Y-53483446D01*
X126551690Y-55076154D01*
X126657354Y-55607361D01*
X126958258Y-56057696D01*
X127408593Y-56358600D01*
X127939800Y-56464264D01*
X128471007Y-56358600D01*
X128921342Y-56057696D01*
X129209800Y-55625988D01*
X129498258Y-56057696D01*
X129948593Y-56358600D01*
X130479800Y-56464264D01*
X131011007Y-56358600D01*
X131461342Y-56057696D01*
X131762246Y-55607361D01*
X131867910Y-55076154D01*
X131867910Y-53483446D01*
X131862858Y-53458046D01*
X132165090Y-53458046D01*
X132165090Y-55050754D01*
X132270754Y-55581961D01*
X132571658Y-56032296D01*
X133021993Y-56333200D01*
X133553200Y-56438864D01*
X134084407Y-56333200D01*
X134534742Y-56032296D01*
X134823200Y-55600588D01*
X135111658Y-56032296D01*
X135561993Y-56333200D01*
X136093200Y-56438864D01*
X136624407Y-56333200D01*
X137074742Y-56032296D01*
X137375646Y-55581961D01*
X137481310Y-55050754D01*
X137481310Y-53867050D01*
X138503100Y-53867050D01*
X138503100Y-54531657D01*
X138677111Y-54951757D01*
X138998642Y-55273289D01*
X139418743Y-55447300D01*
X139833350Y-55447300D01*
X140119100Y-55161550D01*
X140119100Y-53581300D01*
X138788850Y-53581300D01*
X138503100Y-53867050D01*
X137481310Y-53867050D01*
X137481310Y-53458046D01*
X137375646Y-52926839D01*
X137074742Y-52476504D01*
X136624407Y-52175600D01*
X136093200Y-52069936D01*
X135561993Y-52175600D01*
X135111658Y-52476504D01*
X134823200Y-52908212D01*
X134534742Y-52476504D01*
X134084407Y-52175600D01*
X133553200Y-52069936D01*
X133021993Y-52175600D01*
X132571658Y-52476504D01*
X132270754Y-52926839D01*
X132165090Y-53458046D01*
X131862858Y-53458046D01*
X131762246Y-52952239D01*
X131461342Y-52501904D01*
X131011007Y-52201000D01*
X130479800Y-52095336D01*
X129948593Y-52201000D01*
X129498258Y-52501904D01*
X129209800Y-52933612D01*
X128921342Y-52501904D01*
X128471007Y-52201000D01*
X127939800Y-52095336D01*
X127408593Y-52201000D01*
X126958258Y-52501904D01*
X126657354Y-52952239D01*
X126551690Y-53483446D01*
X126152910Y-53483446D01*
X126047246Y-52952239D01*
X125746342Y-52501904D01*
X125296007Y-52201000D01*
X124764800Y-52095336D01*
X124233593Y-52201000D01*
X123783258Y-52501904D01*
X123494800Y-52933612D01*
X123206342Y-52501904D01*
X122756007Y-52201000D01*
X122224800Y-52095336D01*
X121693593Y-52201000D01*
X121243258Y-52501904D01*
X120942354Y-52952239D01*
X120836690Y-53483446D01*
X113940135Y-53483446D01*
X113809497Y-53167280D01*
X113559636Y-52916982D01*
X113233009Y-52781354D01*
X112879343Y-52781046D01*
X112552480Y-52916103D01*
X112302182Y-53165964D01*
X112166554Y-53492591D01*
X112166246Y-53846257D01*
X85586219Y-53846257D01*
X85463097Y-53548280D01*
X85213236Y-53297982D01*
X84886609Y-53162354D01*
X84532943Y-53162046D01*
X84530000Y-53163262D01*
X84530000Y-51520000D01*
X105847013Y-51520000D01*
X105846726Y-51849817D01*
M02*
