M48
;DRILL file {KiCad 4.0.2-stable} date 4/8/2016 7:02:06 PM
;FORMAT={-:-/ absolute / inch / decimal}
FMAT,2
INCH,TZ
T1C0.015
T2C0.016
T3C0.020
T4C0.022
T5C0.026
T6C0.028
T7C0.039
T8C0.043
T9C0.053
T10C0.118
T11C0.122
%
G90
G05
M72
T1
X3.335Y-2.128
X3.336Y-2.544
X3.552Y-2.92
X3.621Y-2.6315
X3.773Y-2.293
X3.853Y-2.462
X3.856Y-2.37
X3.858Y-2.239
X3.904Y-3.47
X3.906Y-2.926
X3.9162Y-2.5066
X3.929Y-2.6765
X3.929Y-2.7165
X3.9335Y-2.8225
X3.9852Y-2.2515
X3.994Y-2.773
X3.9955Y-2.6095
X4.008Y-2.882
X4.027Y-2.8215
X4.036Y-2.588
X4.0437Y-2.2521
X4.1244Y-3.1959
X4.145Y-2.684
X4.1465Y-2.7215
X4.158Y-2.772
X4.158Y-2.808
X4.191Y-2.962
X4.202Y-2.836
X4.202Y-2.862
X4.202Y-2.888
X4.2022Y-2.0344
X4.212Y-3.418
X4.244Y-3.436
X4.246Y-3.176
X4.248Y-2.6682
X4.2755Y-2.6687
X4.28Y-3.018
X4.312Y-3.017
X4.32Y-2.431
X4.32Y-2.468
X4.324Y-2.393
X4.3504Y-4.7244
X4.351Y-2.516
X4.369Y-2.748
X4.3724Y-2.536
X4.391Y-3.007
X4.392Y-2.56
X4.397Y-3.164
X4.4094Y-4.9803
X4.418Y-3.011
X4.451Y-2.113
X4.467Y-3.015
X4.468Y-3.223
X4.476Y-2.35
X4.478Y-2.961
X4.48Y-2.699
X4.482Y-2.791
X4.496Y-2.828
X4.506Y-2.595
X4.519Y-3.067
X4.529Y-2.468
X4.531Y-2.431
X4.574Y-2.411
X4.5744Y-3.4917
X4.5866Y-4.7638
X4.5866Y-4.8051
X4.5999Y-3.5355
X4.6063Y-4.6457
X4.6063Y-4.8799
X4.6063Y-4.9213
X4.61Y-2.713
X4.615Y-2.838
X4.626Y-4.7638
X4.626Y-4.8051
X4.636Y-2.866
X4.684Y-2.046
X4.7244Y-4.8819
X4.7244Y-4.9213
X4.737Y-2.746
X4.7776Y-3.0082
X4.7835Y-4.311
X4.844Y-2.69
X4.8819Y-4.2126
X4.9213Y-4.4685
X4.9409Y-4.685
X4.9706Y-2.8924
X4.9803Y-4.6457
X4.9803Y-4.685
X5.Y-4.1535
X5.0094Y-3.3536
X5.013Y-2.579
X5.016Y-2.6334
X5.016Y-2.6708
X5.0197Y-4.6063
X5.0197Y-4.6457
X5.0197Y-4.685
X5.0394Y-4.3701
X5.0426Y-3.3318
X5.0583Y-2.8288
X5.0591Y-4.6063
X5.0591Y-4.6457
X5.0591Y-4.685
X5.072Y-2.481
X5.0984Y-4.1929
X5.0984Y-4.2224
X5.0984Y-4.6063
X5.0984Y-4.6457
X5.0984Y-4.685
X5.1152Y-3.0602
X5.12Y-2.69
X5.12Y-2.729
X5.1378Y-4.1929
X5.1424Y-3.3154
X5.1734Y-2.8768
X5.176Y-3.189
X5.1772Y-4.0354
X5.1772Y-4.0748
X5.1772Y-4.1929
X5.1969Y-4.3504
X5.199Y-2.64
X5.2165Y-4.0354
X5.2165Y-4.0748
X5.2165Y-4.8622
X5.2232Y-3.0992
X5.2559Y-4.0354
X5.2684Y-3.1908
X5.2953Y-4.0354
X5.3346Y-4.0354
X5.3346Y-4.0748
X5.3454Y-3.0114
X5.3543Y-4.6457
X5.374Y-4.0354
X5.374Y-4.0748
X5.3838Y-2.7558
X5.4054Y-3.0114
X5.4134Y-4.0354
X5.4134Y-4.252
X5.418Y-2.284
X5.4921Y-3.878
X5.4921Y-3.9173
X5.4921Y-3.9567
X5.4921Y-4.4882
X5.4921Y-4.5276
X5.4921Y-4.5669
X5.5315Y-3.878
X5.5315Y-4.4882
X5.5315Y-4.5276
X5.5315Y-4.5669
X5.5315Y-4.685
X5.5315Y-4.7244
X5.5315Y-4.7638
X5.5709Y-3.878
X5.5709Y-4.4882
X5.5709Y-4.5276
X5.5709Y-4.7638
X5.596Y-2.805
X5.597Y-2.778
X5.6102Y-3.878
X5.6102Y-4.4882
X5.6102Y-4.5276
X5.6102Y-4.7638
X5.6355Y-2.373
X5.6496Y-3.878
X5.689Y-3.878
X5.724Y-4.857
X5.725Y-5.001
X5.7283Y-3.878
X5.7283Y-4.6457
X5.7677Y-3.878
X5.799Y-3.609
X5.8071Y-3.9173
X5.8071Y-3.9567
X5.8071Y-3.9961
X5.8071Y-4.0354
X5.851Y-4.857
X5.8661Y-5.0591
X6.021Y-3.764
X6.057Y-2.247
X6.12Y-2.238
X6.379Y-3.845
X6.441Y-3.684
X6.496Y-2.392
X6.539Y-2.495
X6.708Y-2.648
X6.713Y-3.674
X6.719Y-3.157
X6.778Y-2.748
X6.78Y-3.7715
X6.7835Y-3.2565
T2
X4.306Y-3.165
X4.32Y-3.259
T5
X3.903Y-3.118
X3.903Y-3.168
X3.903Y-3.218
X3.903Y-3.268
X3.903Y-3.318
X3.953Y-3.118
X3.953Y-3.168
X3.953Y-3.218
X3.953Y-3.268
X3.953Y-3.318
T6
X5.5215Y-2.1045
X5.6002Y-2.1045
X5.679Y-2.1045
X5.7577Y-2.1045
X5.9565Y-2.1045
X6.0352Y-2.1045
X6.114Y-2.1045
X6.1927Y-2.1045
X6.3945Y-2.1045
X6.4732Y-2.1045
X6.552Y-2.1045
X6.6307Y-2.1045
X6.8325Y-2.1045
X6.9112Y-2.1045
X6.99Y-2.1045
X7.0687Y-2.1045
T7
X4.812Y-2.137
X4.912Y-2.137
X5.037Y-2.137
X5.137Y-2.137
X5.258Y-2.136
X5.358Y-2.136
T8
X3.7864Y-4.5601
X3.7864Y-4.6979
X6.7796Y-3.9041
X6.7796Y-4.0419
X6.7806Y-4.2361
X6.7806Y-4.3739
X6.7816Y-4.9081
X6.7816Y-5.0459
X6.7826Y-4.5711
X6.7826Y-4.7089
X6.785Y-2.872
X6.785Y-3.0098
X6.785Y-3.3851
X6.785Y-3.5229
T9
X5.961Y-4.181
X5.9616Y-2.9577
X5.9616Y-3.438
X6.1972Y-4.0806
X6.1978Y-3.5384
X6.4334Y-4.181
X6.4334Y-4.6613
X6.434Y-3.438
T10
X3.5433Y-3.3465
X3.5433Y-4.9606
X7.0669Y-2.5
T11
X3.475Y-4.629
X7.091Y-3.973
X7.092Y-4.305
X7.093Y-4.977
X7.094Y-4.64
X7.0964Y-2.9409
X7.0964Y-3.454
T3
X3.3504Y-2.7312G85X3.376Y-2.7312
G05
X3.3504Y-3.0068G85X3.376Y-3.0068
G05
T4
X3.4695Y-2.7646G85X3.4695Y-2.7764
G05
X3.4695Y-2.9615G85X3.4695Y-2.9733
G05
T0
M30
