G04 #@! TF.FileFunction,Soldermask,Bot*
%FSLAX46Y46*%
G04 Gerber Fmt 4.6, Leading zero omitted, Abs format (unit mm)*
G04 Created by KiCad (PCBNEW 4.0.2-stable) date 4/8/2016 7:07:07 PM*
%MOMM*%
G01*
G04 APERTURE LIST*
%ADD10C,0.100000*%
%ADD11C,2.700000*%
%ADD12O,1.350000X1.650000*%
%ADD13O,1.950000X1.400000*%
%ADD14C,1.400000*%
%ADD15O,1.906220X3.414980*%
%ADD16R,1.600000X2.100000*%
%ADD17O,1.600000X2.100000*%
%ADD18C,2.100000*%
%ADD19C,3.900000*%
%ADD20C,6.400000*%
G04 APERTURE END LIST*
D10*
D11*
X157423600Y-89875200D03*
X151423600Y-87325200D03*
X163423600Y-87325200D03*
X151423600Y-75125200D03*
D12*
X88125740Y-70371700D03*
X88125740Y-75371700D03*
D13*
X85425740Y-69371700D03*
X85425740Y-76371700D03*
D14*
X99136200Y-84277200D03*
X100406200Y-84277200D03*
X99136200Y-83007200D03*
X100406200Y-83007200D03*
X99136200Y-81737200D03*
X100406200Y-81737200D03*
X99136200Y-80467200D03*
X100406200Y-80467200D03*
X99136200Y-79197200D03*
X100406200Y-79197200D03*
D15*
X122224800Y-54279800D03*
X124764800Y-54279800D03*
X127939800Y-54279800D03*
X130479800Y-54279800D03*
X133553200Y-54254400D03*
X136093200Y-54254400D03*
D11*
X157409400Y-103647400D03*
X163409400Y-106197400D03*
X151409400Y-106197400D03*
X163409400Y-118397400D03*
D16*
X140246100Y-53454300D03*
D17*
X142246100Y-53454300D03*
X144246100Y-53454300D03*
X146246100Y-53454300D03*
D16*
X151295100Y-53454300D03*
D17*
X153295100Y-53454300D03*
X155295100Y-53454300D03*
X157295100Y-53454300D03*
D16*
X162420300Y-53454300D03*
D17*
X164420300Y-53454300D03*
X166420300Y-53454300D03*
X168420300Y-53454300D03*
D16*
X173545500Y-53454300D03*
D17*
X175545500Y-53454300D03*
X177545500Y-53454300D03*
X179545500Y-53454300D03*
D18*
X96175000Y-115826600D03*
X96175000Y-119326600D03*
D19*
X88265000Y-117576600D03*
D18*
X172339000Y-76448800D03*
X172339000Y-72948800D03*
D19*
X180249000Y-74698800D03*
D18*
X172339000Y-89481600D03*
X172339000Y-85981600D03*
D19*
X180249000Y-87731600D03*
D18*
X172201400Y-102664200D03*
X172201400Y-99164200D03*
D19*
X180111400Y-100914200D03*
D18*
X172252200Y-128165800D03*
X172252200Y-124665800D03*
D19*
X180162200Y-126415800D03*
D18*
X172277600Y-119606000D03*
X172277600Y-116106000D03*
D19*
X180187600Y-117856000D03*
D18*
X172226800Y-111097000D03*
X172226800Y-107597000D03*
D19*
X180136800Y-109347000D03*
D20*
X90000000Y-126000000D03*
X90000000Y-85000000D03*
X179500000Y-63500000D03*
M02*
