G04 #@! TF.FileFunction,Other,Fab,Top*
%FSLAX46Y46*%
G04 Gerber Fmt 4.6, Leading zero omitted, Abs format (unit mm)*
G04 Created by KiCad (PCBNEW 4.0.5) date 03/03/17 18:09:40*
%MOMM*%
%LPD*%
G01*
G04 APERTURE LIST*
%ADD10C,0.100000*%
%ADD11C,0.150000*%
%ADD12C,0.125000*%
%ADD13C,0.127000*%
%ADD14C,0.031750*%
G04 APERTURE END LIST*
D10*
X158675000Y-135000000D02*
X157875000Y-135000000D01*
X158675000Y-133400000D02*
X158675000Y-135000000D01*
X157875000Y-133400000D02*
X158675000Y-133400000D01*
X157875000Y-135000000D02*
X157875000Y-133400000D01*
X138950000Y-127400000D02*
X138950000Y-126600000D01*
X140550000Y-127400000D02*
X138950000Y-127400000D01*
X140550000Y-126600000D02*
X140550000Y-127400000D01*
X138950000Y-126600000D02*
X140550000Y-126600000D01*
D11*
X118875873Y-79267200D02*
X124875873Y-79267200D01*
X124875873Y-79267200D02*
X124875873Y-85867200D01*
X124875873Y-85867200D02*
X118875873Y-85867200D01*
X118875873Y-85867200D02*
X118875873Y-79267200D01*
X118875873Y-100743429D02*
X124875873Y-100743429D01*
X124875873Y-100743429D02*
X124875873Y-107343429D01*
X124875873Y-107343429D02*
X118875873Y-107343429D01*
X118875873Y-107343429D02*
X118875873Y-100743429D01*
D12*
X159221190Y-135619047D02*
X159221190Y-135857142D01*
X159459286Y-135880952D01*
X159435476Y-135857142D01*
X159411667Y-135809523D01*
X159411667Y-135690476D01*
X159435476Y-135642857D01*
X159459286Y-135619047D01*
X159506905Y-135595238D01*
X159625952Y-135595238D01*
X159673571Y-135619047D01*
X159697381Y-135642857D01*
X159721190Y-135690476D01*
X159721190Y-135809523D01*
X159697381Y-135857142D01*
X159673571Y-135880952D01*
X159721190Y-135119048D02*
X159721190Y-135404762D01*
X159721190Y-135261905D02*
X159221190Y-135261905D01*
X159292619Y-135309524D01*
X159340238Y-135357143D01*
X159364048Y-135404762D01*
X159721190Y-134904762D02*
X159221190Y-134904762D01*
X159721190Y-134619048D02*
X159435476Y-134833334D01*
X159221190Y-134619048D02*
X159506905Y-134904762D01*
X138680953Y-125526190D02*
X138442858Y-125526190D01*
X138419048Y-125764286D01*
X138442858Y-125740476D01*
X138490477Y-125716667D01*
X138609524Y-125716667D01*
X138657143Y-125740476D01*
X138680953Y-125764286D01*
X138704762Y-125811905D01*
X138704762Y-125930952D01*
X138680953Y-125978571D01*
X138657143Y-126002381D01*
X138609524Y-126026190D01*
X138490477Y-126026190D01*
X138442858Y-126002381D01*
X138419048Y-125978571D01*
X139180952Y-126026190D02*
X138895238Y-126026190D01*
X139038095Y-126026190D02*
X139038095Y-125526190D01*
X138990476Y-125597619D01*
X138942857Y-125645238D01*
X138895238Y-125669048D01*
X139395238Y-126026190D02*
X139395238Y-125526190D01*
X139680952Y-126026190D02*
X139466666Y-125740476D01*
X139680952Y-125526190D02*
X139395238Y-125811905D01*
X154195390Y-107142538D02*
X154195390Y-107428252D01*
X154195390Y-107285395D02*
X153695390Y-107285395D01*
X153766819Y-107333014D01*
X153814438Y-107380633D01*
X153838248Y-107428252D01*
X153695390Y-106833014D02*
X153695390Y-106785395D01*
X153719200Y-106737776D01*
X153743010Y-106713967D01*
X153790629Y-106690157D01*
X153885867Y-106666348D01*
X154004914Y-106666348D01*
X154100152Y-106690157D01*
X154147771Y-106713967D01*
X154171581Y-106737776D01*
X154195390Y-106785395D01*
X154195390Y-106833014D01*
X154171581Y-106880633D01*
X154147771Y-106904443D01*
X154100152Y-106928252D01*
X154004914Y-106952062D01*
X153885867Y-106952062D01*
X153790629Y-106928252D01*
X153743010Y-106904443D01*
X153719200Y-106880633D01*
X153695390Y-106833014D01*
X154195390Y-106452062D02*
X153695390Y-106452062D01*
X154195390Y-106166348D02*
X153909676Y-106380634D01*
X153695390Y-106166348D02*
X153981105Y-106452062D01*
X125778571Y-78071904D02*
X125802381Y-78095714D01*
X125826190Y-78167142D01*
X125826190Y-78214761D01*
X125802381Y-78286190D01*
X125754762Y-78333809D01*
X125707143Y-78357618D01*
X125611905Y-78381428D01*
X125540476Y-78381428D01*
X125445238Y-78357618D01*
X125397619Y-78333809D01*
X125350000Y-78286190D01*
X125326190Y-78214761D01*
X125326190Y-78167142D01*
X125350000Y-78095714D01*
X125373810Y-78071904D01*
X125326190Y-77762380D02*
X125326190Y-77667142D01*
X125350000Y-77619523D01*
X125397619Y-77571904D01*
X125492857Y-77548095D01*
X125659524Y-77548095D01*
X125754762Y-77571904D01*
X125802381Y-77619523D01*
X125826190Y-77667142D01*
X125826190Y-77762380D01*
X125802381Y-77809999D01*
X125754762Y-77857618D01*
X125659524Y-77881428D01*
X125492857Y-77881428D01*
X125397619Y-77857618D01*
X125350000Y-77809999D01*
X125326190Y-77762380D01*
X125826190Y-77333808D02*
X125326190Y-77333808D01*
X125826190Y-77048094D01*
X125326190Y-77048094D01*
X125826190Y-76809998D02*
X125326190Y-76809998D01*
X125826190Y-76524284D01*
X125326190Y-76524284D01*
X125873810Y-76405236D02*
X125873810Y-76024284D01*
X125326190Y-75809998D02*
X125326190Y-75762379D01*
X125350000Y-75714760D01*
X125373810Y-75690951D01*
X125421429Y-75667141D01*
X125516667Y-75643332D01*
X125635714Y-75643332D01*
X125730952Y-75667141D01*
X125778571Y-75690951D01*
X125802381Y-75714760D01*
X125826190Y-75762379D01*
X125826190Y-75809998D01*
X125802381Y-75857617D01*
X125778571Y-75881427D01*
X125730952Y-75905236D01*
X125635714Y-75929046D01*
X125516667Y-75929046D01*
X125421429Y-75905236D01*
X125373810Y-75881427D01*
X125350000Y-75857617D01*
X125326190Y-75809998D01*
X125826190Y-75167142D02*
X125826190Y-75452856D01*
X125826190Y-75309999D02*
X125326190Y-75309999D01*
X125397619Y-75357618D01*
X125445238Y-75405237D01*
X125469048Y-75452856D01*
X125326190Y-75000475D02*
X125826190Y-74667142D01*
X125326190Y-74667142D02*
X125826190Y-75000475D01*
X125326190Y-74381428D02*
X125326190Y-74333809D01*
X125350000Y-74286190D01*
X125373810Y-74262381D01*
X125421429Y-74238571D01*
X125516667Y-74214762D01*
X125635714Y-74214762D01*
X125730952Y-74238571D01*
X125778571Y-74262381D01*
X125802381Y-74286190D01*
X125826190Y-74333809D01*
X125826190Y-74381428D01*
X125802381Y-74429047D01*
X125778571Y-74452857D01*
X125730952Y-74476666D01*
X125635714Y-74500476D01*
X125516667Y-74500476D01*
X125421429Y-74476666D01*
X125373810Y-74452857D01*
X125350000Y-74429047D01*
X125326190Y-74381428D01*
X125373810Y-74024286D02*
X125350000Y-74000476D01*
X125326190Y-73952857D01*
X125326190Y-73833810D01*
X125350000Y-73786191D01*
X125373810Y-73762381D01*
X125421429Y-73738572D01*
X125469048Y-73738572D01*
X125540476Y-73762381D01*
X125826190Y-74048095D01*
X125826190Y-73738572D01*
X182799720Y-138160890D02*
X182799720Y-137660890D01*
X182966386Y-138018033D01*
X183133053Y-137660890D01*
X183133053Y-138160890D01*
X183442577Y-138160890D02*
X183394958Y-138137081D01*
X183371149Y-138113271D01*
X183347339Y-138065652D01*
X183347339Y-137922795D01*
X183371149Y-137875176D01*
X183394958Y-137851367D01*
X183442577Y-137827557D01*
X183514006Y-137827557D01*
X183561625Y-137851367D01*
X183585434Y-137875176D01*
X183609244Y-137922795D01*
X183609244Y-138065652D01*
X183585434Y-138113271D01*
X183561625Y-138137081D01*
X183514006Y-138160890D01*
X183442577Y-138160890D01*
X184037815Y-137827557D02*
X184037815Y-138160890D01*
X183823530Y-137827557D02*
X183823530Y-138089462D01*
X183847339Y-138137081D01*
X183894958Y-138160890D01*
X183966387Y-138160890D01*
X184014006Y-138137081D01*
X184037815Y-138113271D01*
X184275911Y-137827557D02*
X184275911Y-138160890D01*
X184275911Y-137875176D02*
X184299720Y-137851367D01*
X184347339Y-137827557D01*
X184418768Y-137827557D01*
X184466387Y-137851367D01*
X184490196Y-137898986D01*
X184490196Y-138160890D01*
X184656863Y-137827557D02*
X184847339Y-137827557D01*
X184728292Y-137660890D02*
X184728292Y-138089462D01*
X184752101Y-138137081D01*
X184799720Y-138160890D01*
X184847339Y-138160890D01*
X185014006Y-138160890D02*
X185014006Y-137827557D01*
X185014006Y-137660890D02*
X184990196Y-137684700D01*
X185014006Y-137708510D01*
X185037815Y-137684700D01*
X185014006Y-137660890D01*
X185014006Y-137708510D01*
X185252101Y-137827557D02*
X185252101Y-138160890D01*
X185252101Y-137875176D02*
X185275910Y-137851367D01*
X185323529Y-137827557D01*
X185394958Y-137827557D01*
X185442577Y-137851367D01*
X185466386Y-137898986D01*
X185466386Y-138160890D01*
X185918767Y-137827557D02*
X185918767Y-138232319D01*
X185894958Y-138279938D01*
X185871148Y-138303748D01*
X185823529Y-138327557D01*
X185752101Y-138327557D01*
X185704482Y-138303748D01*
X185918767Y-138137081D02*
X185871148Y-138160890D01*
X185775910Y-138160890D01*
X185728291Y-138137081D01*
X185704482Y-138113271D01*
X185680672Y-138065652D01*
X185680672Y-137922795D01*
X185704482Y-137875176D01*
X185728291Y-137851367D01*
X185775910Y-137827557D01*
X185871148Y-137827557D01*
X185918767Y-137851367D01*
X186156863Y-138160890D02*
X186156863Y-137660890D01*
X186156863Y-137898986D02*
X186442577Y-137898986D01*
X186442577Y-138160890D02*
X186442577Y-137660890D01*
X186752101Y-138160890D02*
X186704482Y-138137081D01*
X186680673Y-138113271D01*
X186656863Y-138065652D01*
X186656863Y-137922795D01*
X186680673Y-137875176D01*
X186704482Y-137851367D01*
X186752101Y-137827557D01*
X186823530Y-137827557D01*
X186871149Y-137851367D01*
X186894958Y-137875176D01*
X186918768Y-137922795D01*
X186918768Y-138065652D01*
X186894958Y-138113271D01*
X186871149Y-138137081D01*
X186823530Y-138160890D01*
X186752101Y-138160890D01*
X187204482Y-138160890D02*
X187156863Y-138137081D01*
X187133054Y-138089462D01*
X187133054Y-137660890D01*
X187585435Y-138137081D02*
X187537816Y-138160890D01*
X187442578Y-138160890D01*
X187394959Y-138137081D01*
X187371149Y-138089462D01*
X187371149Y-137898986D01*
X187394959Y-137851367D01*
X187442578Y-137827557D01*
X187537816Y-137827557D01*
X187585435Y-137851367D01*
X187609244Y-137898986D01*
X187609244Y-137946605D01*
X187371149Y-137994224D01*
X187704482Y-138208510D02*
X188085434Y-138208510D01*
X188156863Y-137660890D02*
X188466386Y-137660890D01*
X188299720Y-137851367D01*
X188371148Y-137851367D01*
X188418767Y-137875176D01*
X188442577Y-137898986D01*
X188466386Y-137946605D01*
X188466386Y-138065652D01*
X188442577Y-138113271D01*
X188418767Y-138137081D01*
X188371148Y-138160890D01*
X188228291Y-138160890D01*
X188180672Y-138137081D01*
X188156863Y-138113271D01*
X188680672Y-138113271D02*
X188704481Y-138137081D01*
X188680672Y-138160890D01*
X188656862Y-138137081D01*
X188680672Y-138113271D01*
X188680672Y-138160890D01*
X188894957Y-137708510D02*
X188918767Y-137684700D01*
X188966386Y-137660890D01*
X189085433Y-137660890D01*
X189133052Y-137684700D01*
X189156862Y-137708510D01*
X189180671Y-137756129D01*
X189180671Y-137803748D01*
X189156862Y-137875176D01*
X188871148Y-138160890D01*
X189180671Y-138160890D01*
X189394957Y-138160890D02*
X189394957Y-137827557D01*
X189394957Y-137875176D02*
X189418766Y-137851367D01*
X189466385Y-137827557D01*
X189537814Y-137827557D01*
X189585433Y-137851367D01*
X189609242Y-137898986D01*
X189609242Y-138160890D01*
X189609242Y-137898986D02*
X189633052Y-137851367D01*
X189680671Y-137827557D01*
X189752099Y-137827557D01*
X189799719Y-137851367D01*
X189823528Y-137898986D01*
X189823528Y-138160890D01*
X190061624Y-138160890D02*
X190061624Y-137827557D01*
X190061624Y-137875176D02*
X190085433Y-137851367D01*
X190133052Y-137827557D01*
X190204481Y-137827557D01*
X190252100Y-137851367D01*
X190275909Y-137898986D01*
X190275909Y-138160890D01*
X190275909Y-137898986D02*
X190299719Y-137851367D01*
X190347338Y-137827557D01*
X190418766Y-137827557D01*
X190466386Y-137851367D01*
X190490195Y-137898986D01*
X190490195Y-138160890D01*
X190609243Y-138208510D02*
X190990195Y-138208510D01*
X191109243Y-138160890D02*
X191109243Y-137660890D01*
X191275909Y-138018033D01*
X191442576Y-137660890D01*
X191442576Y-138160890D01*
X191633053Y-137660890D02*
X191942576Y-137660890D01*
X191775910Y-137851367D01*
X191847338Y-137851367D01*
X191894957Y-137875176D01*
X191918767Y-137898986D01*
X191942576Y-137946605D01*
X191942576Y-138065652D01*
X191918767Y-138113271D01*
X191894957Y-138137081D01*
X191847338Y-138160890D01*
X191704481Y-138160890D01*
X191656862Y-138137081D01*
X191633053Y-138113271D01*
X192037814Y-138208510D02*
X192418766Y-138208510D01*
X192537814Y-138160890D02*
X192537814Y-137660890D01*
X192728290Y-137660890D01*
X192775909Y-137684700D01*
X192799718Y-137708510D01*
X192823528Y-137756129D01*
X192823528Y-137827557D01*
X192799718Y-137875176D01*
X192775909Y-137898986D01*
X192728290Y-137922795D01*
X192537814Y-137922795D01*
X193252099Y-138160890D02*
X193252099Y-137898986D01*
X193228290Y-137851367D01*
X193180671Y-137827557D01*
X193085433Y-137827557D01*
X193037814Y-137851367D01*
X193252099Y-138137081D02*
X193204480Y-138160890D01*
X193085433Y-138160890D01*
X193037814Y-138137081D01*
X193014004Y-138089462D01*
X193014004Y-138041843D01*
X193037814Y-137994224D01*
X193085433Y-137970414D01*
X193204480Y-137970414D01*
X193252099Y-137946605D01*
X193704480Y-138160890D02*
X193704480Y-137660890D01*
X193704480Y-138137081D02*
X193656861Y-138160890D01*
X193561623Y-138160890D01*
X193514004Y-138137081D01*
X193490195Y-138113271D01*
X193466385Y-138065652D01*
X193466385Y-137922795D01*
X193490195Y-137875176D01*
X193514004Y-137851367D01*
X193561623Y-137827557D01*
X193656861Y-137827557D01*
X193704480Y-137851367D01*
X181802620Y-55136190D02*
X181802620Y-54636190D01*
X181969286Y-54993333D01*
X182135953Y-54636190D01*
X182135953Y-55136190D01*
X182445477Y-55136190D02*
X182397858Y-55112381D01*
X182374049Y-55088571D01*
X182350239Y-55040952D01*
X182350239Y-54898095D01*
X182374049Y-54850476D01*
X182397858Y-54826667D01*
X182445477Y-54802857D01*
X182516906Y-54802857D01*
X182564525Y-54826667D01*
X182588334Y-54850476D01*
X182612144Y-54898095D01*
X182612144Y-55040952D01*
X182588334Y-55088571D01*
X182564525Y-55112381D01*
X182516906Y-55136190D01*
X182445477Y-55136190D01*
X183040715Y-54802857D02*
X183040715Y-55136190D01*
X182826430Y-54802857D02*
X182826430Y-55064762D01*
X182850239Y-55112381D01*
X182897858Y-55136190D01*
X182969287Y-55136190D01*
X183016906Y-55112381D01*
X183040715Y-55088571D01*
X183278811Y-54802857D02*
X183278811Y-55136190D01*
X183278811Y-54850476D02*
X183302620Y-54826667D01*
X183350239Y-54802857D01*
X183421668Y-54802857D01*
X183469287Y-54826667D01*
X183493096Y-54874286D01*
X183493096Y-55136190D01*
X183659763Y-54802857D02*
X183850239Y-54802857D01*
X183731192Y-54636190D02*
X183731192Y-55064762D01*
X183755001Y-55112381D01*
X183802620Y-55136190D01*
X183850239Y-55136190D01*
X184016906Y-55136190D02*
X184016906Y-54802857D01*
X184016906Y-54636190D02*
X183993096Y-54660000D01*
X184016906Y-54683810D01*
X184040715Y-54660000D01*
X184016906Y-54636190D01*
X184016906Y-54683810D01*
X184255001Y-54802857D02*
X184255001Y-55136190D01*
X184255001Y-54850476D02*
X184278810Y-54826667D01*
X184326429Y-54802857D01*
X184397858Y-54802857D01*
X184445477Y-54826667D01*
X184469286Y-54874286D01*
X184469286Y-55136190D01*
X184921667Y-54802857D02*
X184921667Y-55207619D01*
X184897858Y-55255238D01*
X184874048Y-55279048D01*
X184826429Y-55302857D01*
X184755001Y-55302857D01*
X184707382Y-55279048D01*
X184921667Y-55112381D02*
X184874048Y-55136190D01*
X184778810Y-55136190D01*
X184731191Y-55112381D01*
X184707382Y-55088571D01*
X184683572Y-55040952D01*
X184683572Y-54898095D01*
X184707382Y-54850476D01*
X184731191Y-54826667D01*
X184778810Y-54802857D01*
X184874048Y-54802857D01*
X184921667Y-54826667D01*
X185159763Y-55136190D02*
X185159763Y-54636190D01*
X185159763Y-54874286D02*
X185445477Y-54874286D01*
X185445477Y-55136190D02*
X185445477Y-54636190D01*
X185755001Y-55136190D02*
X185707382Y-55112381D01*
X185683573Y-55088571D01*
X185659763Y-55040952D01*
X185659763Y-54898095D01*
X185683573Y-54850476D01*
X185707382Y-54826667D01*
X185755001Y-54802857D01*
X185826430Y-54802857D01*
X185874049Y-54826667D01*
X185897858Y-54850476D01*
X185921668Y-54898095D01*
X185921668Y-55040952D01*
X185897858Y-55088571D01*
X185874049Y-55112381D01*
X185826430Y-55136190D01*
X185755001Y-55136190D01*
X186207382Y-55136190D02*
X186159763Y-55112381D01*
X186135954Y-55064762D01*
X186135954Y-54636190D01*
X186588335Y-55112381D02*
X186540716Y-55136190D01*
X186445478Y-55136190D01*
X186397859Y-55112381D01*
X186374049Y-55064762D01*
X186374049Y-54874286D01*
X186397859Y-54826667D01*
X186445478Y-54802857D01*
X186540716Y-54802857D01*
X186588335Y-54826667D01*
X186612144Y-54874286D01*
X186612144Y-54921905D01*
X186374049Y-54969524D01*
X186707382Y-55183810D02*
X187088334Y-55183810D01*
X187159763Y-54636190D02*
X187469286Y-54636190D01*
X187302620Y-54826667D01*
X187374048Y-54826667D01*
X187421667Y-54850476D01*
X187445477Y-54874286D01*
X187469286Y-54921905D01*
X187469286Y-55040952D01*
X187445477Y-55088571D01*
X187421667Y-55112381D01*
X187374048Y-55136190D01*
X187231191Y-55136190D01*
X187183572Y-55112381D01*
X187159763Y-55088571D01*
X187683572Y-55088571D02*
X187707381Y-55112381D01*
X187683572Y-55136190D01*
X187659762Y-55112381D01*
X187683572Y-55088571D01*
X187683572Y-55136190D01*
X187897857Y-54683810D02*
X187921667Y-54660000D01*
X187969286Y-54636190D01*
X188088333Y-54636190D01*
X188135952Y-54660000D01*
X188159762Y-54683810D01*
X188183571Y-54731429D01*
X188183571Y-54779048D01*
X188159762Y-54850476D01*
X187874048Y-55136190D01*
X188183571Y-55136190D01*
X188397857Y-55136190D02*
X188397857Y-54802857D01*
X188397857Y-54850476D02*
X188421666Y-54826667D01*
X188469285Y-54802857D01*
X188540714Y-54802857D01*
X188588333Y-54826667D01*
X188612142Y-54874286D01*
X188612142Y-55136190D01*
X188612142Y-54874286D02*
X188635952Y-54826667D01*
X188683571Y-54802857D01*
X188754999Y-54802857D01*
X188802619Y-54826667D01*
X188826428Y-54874286D01*
X188826428Y-55136190D01*
X189064524Y-55136190D02*
X189064524Y-54802857D01*
X189064524Y-54850476D02*
X189088333Y-54826667D01*
X189135952Y-54802857D01*
X189207381Y-54802857D01*
X189255000Y-54826667D01*
X189278809Y-54874286D01*
X189278809Y-55136190D01*
X189278809Y-54874286D02*
X189302619Y-54826667D01*
X189350238Y-54802857D01*
X189421666Y-54802857D01*
X189469286Y-54826667D01*
X189493095Y-54874286D01*
X189493095Y-55136190D01*
X189612143Y-55183810D02*
X189993095Y-55183810D01*
X190112143Y-55136190D02*
X190112143Y-54636190D01*
X190278809Y-54993333D01*
X190445476Y-54636190D01*
X190445476Y-55136190D01*
X190635953Y-54636190D02*
X190945476Y-54636190D01*
X190778810Y-54826667D01*
X190850238Y-54826667D01*
X190897857Y-54850476D01*
X190921667Y-54874286D01*
X190945476Y-54921905D01*
X190945476Y-55040952D01*
X190921667Y-55088571D01*
X190897857Y-55112381D01*
X190850238Y-55136190D01*
X190707381Y-55136190D01*
X190659762Y-55112381D01*
X190635953Y-55088571D01*
X191040714Y-55183810D02*
X191421666Y-55183810D01*
X191540714Y-55136190D02*
X191540714Y-54636190D01*
X191731190Y-54636190D01*
X191778809Y-54660000D01*
X191802618Y-54683810D01*
X191826428Y-54731429D01*
X191826428Y-54802857D01*
X191802618Y-54850476D01*
X191778809Y-54874286D01*
X191731190Y-54898095D01*
X191540714Y-54898095D01*
X192254999Y-55136190D02*
X192254999Y-54874286D01*
X192231190Y-54826667D01*
X192183571Y-54802857D01*
X192088333Y-54802857D01*
X192040714Y-54826667D01*
X192254999Y-55112381D02*
X192207380Y-55136190D01*
X192088333Y-55136190D01*
X192040714Y-55112381D01*
X192016904Y-55064762D01*
X192016904Y-55017143D01*
X192040714Y-54969524D01*
X192088333Y-54945714D01*
X192207380Y-54945714D01*
X192254999Y-54921905D01*
X192707380Y-55136190D02*
X192707380Y-54636190D01*
X192707380Y-55112381D02*
X192659761Y-55136190D01*
X192564523Y-55136190D01*
X192516904Y-55112381D01*
X192493095Y-55088571D01*
X192469285Y-55040952D01*
X192469285Y-54898095D01*
X192493095Y-54850476D01*
X192516904Y-54826667D01*
X192564523Y-54802857D01*
X192659761Y-54802857D01*
X192707380Y-54826667D01*
X114448320Y-55140990D02*
X114448320Y-54640990D01*
X114614986Y-54998133D01*
X114781653Y-54640990D01*
X114781653Y-55140990D01*
X115091177Y-55140990D02*
X115043558Y-55117181D01*
X115019749Y-55093371D01*
X114995939Y-55045752D01*
X114995939Y-54902895D01*
X115019749Y-54855276D01*
X115043558Y-54831467D01*
X115091177Y-54807657D01*
X115162606Y-54807657D01*
X115210225Y-54831467D01*
X115234034Y-54855276D01*
X115257844Y-54902895D01*
X115257844Y-55045752D01*
X115234034Y-55093371D01*
X115210225Y-55117181D01*
X115162606Y-55140990D01*
X115091177Y-55140990D01*
X115686415Y-54807657D02*
X115686415Y-55140990D01*
X115472130Y-54807657D02*
X115472130Y-55069562D01*
X115495939Y-55117181D01*
X115543558Y-55140990D01*
X115614987Y-55140990D01*
X115662606Y-55117181D01*
X115686415Y-55093371D01*
X115924511Y-54807657D02*
X115924511Y-55140990D01*
X115924511Y-54855276D02*
X115948320Y-54831467D01*
X115995939Y-54807657D01*
X116067368Y-54807657D01*
X116114987Y-54831467D01*
X116138796Y-54879086D01*
X116138796Y-55140990D01*
X116305463Y-54807657D02*
X116495939Y-54807657D01*
X116376892Y-54640990D02*
X116376892Y-55069562D01*
X116400701Y-55117181D01*
X116448320Y-55140990D01*
X116495939Y-55140990D01*
X116662606Y-55140990D02*
X116662606Y-54807657D01*
X116662606Y-54640990D02*
X116638796Y-54664800D01*
X116662606Y-54688610D01*
X116686415Y-54664800D01*
X116662606Y-54640990D01*
X116662606Y-54688610D01*
X116900701Y-54807657D02*
X116900701Y-55140990D01*
X116900701Y-54855276D02*
X116924510Y-54831467D01*
X116972129Y-54807657D01*
X117043558Y-54807657D01*
X117091177Y-54831467D01*
X117114986Y-54879086D01*
X117114986Y-55140990D01*
X117567367Y-54807657D02*
X117567367Y-55212419D01*
X117543558Y-55260038D01*
X117519748Y-55283848D01*
X117472129Y-55307657D01*
X117400701Y-55307657D01*
X117353082Y-55283848D01*
X117567367Y-55117181D02*
X117519748Y-55140990D01*
X117424510Y-55140990D01*
X117376891Y-55117181D01*
X117353082Y-55093371D01*
X117329272Y-55045752D01*
X117329272Y-54902895D01*
X117353082Y-54855276D01*
X117376891Y-54831467D01*
X117424510Y-54807657D01*
X117519748Y-54807657D01*
X117567367Y-54831467D01*
X117805463Y-55140990D02*
X117805463Y-54640990D01*
X117805463Y-54879086D02*
X118091177Y-54879086D01*
X118091177Y-55140990D02*
X118091177Y-54640990D01*
X118400701Y-55140990D02*
X118353082Y-55117181D01*
X118329273Y-55093371D01*
X118305463Y-55045752D01*
X118305463Y-54902895D01*
X118329273Y-54855276D01*
X118353082Y-54831467D01*
X118400701Y-54807657D01*
X118472130Y-54807657D01*
X118519749Y-54831467D01*
X118543558Y-54855276D01*
X118567368Y-54902895D01*
X118567368Y-55045752D01*
X118543558Y-55093371D01*
X118519749Y-55117181D01*
X118472130Y-55140990D01*
X118400701Y-55140990D01*
X118853082Y-55140990D02*
X118805463Y-55117181D01*
X118781654Y-55069562D01*
X118781654Y-54640990D01*
X119234035Y-55117181D02*
X119186416Y-55140990D01*
X119091178Y-55140990D01*
X119043559Y-55117181D01*
X119019749Y-55069562D01*
X119019749Y-54879086D01*
X119043559Y-54831467D01*
X119091178Y-54807657D01*
X119186416Y-54807657D01*
X119234035Y-54831467D01*
X119257844Y-54879086D01*
X119257844Y-54926705D01*
X119019749Y-54974324D01*
X119353082Y-55188610D02*
X119734034Y-55188610D01*
X119805463Y-54640990D02*
X120114986Y-54640990D01*
X119948320Y-54831467D01*
X120019748Y-54831467D01*
X120067367Y-54855276D01*
X120091177Y-54879086D01*
X120114986Y-54926705D01*
X120114986Y-55045752D01*
X120091177Y-55093371D01*
X120067367Y-55117181D01*
X120019748Y-55140990D01*
X119876891Y-55140990D01*
X119829272Y-55117181D01*
X119805463Y-55093371D01*
X120329272Y-55093371D02*
X120353081Y-55117181D01*
X120329272Y-55140990D01*
X120305462Y-55117181D01*
X120329272Y-55093371D01*
X120329272Y-55140990D01*
X120543557Y-54688610D02*
X120567367Y-54664800D01*
X120614986Y-54640990D01*
X120734033Y-54640990D01*
X120781652Y-54664800D01*
X120805462Y-54688610D01*
X120829271Y-54736229D01*
X120829271Y-54783848D01*
X120805462Y-54855276D01*
X120519748Y-55140990D01*
X120829271Y-55140990D01*
X121043557Y-55140990D02*
X121043557Y-54807657D01*
X121043557Y-54855276D02*
X121067366Y-54831467D01*
X121114985Y-54807657D01*
X121186414Y-54807657D01*
X121234033Y-54831467D01*
X121257842Y-54879086D01*
X121257842Y-55140990D01*
X121257842Y-54879086D02*
X121281652Y-54831467D01*
X121329271Y-54807657D01*
X121400699Y-54807657D01*
X121448319Y-54831467D01*
X121472128Y-54879086D01*
X121472128Y-55140990D01*
X121710224Y-55140990D02*
X121710224Y-54807657D01*
X121710224Y-54855276D02*
X121734033Y-54831467D01*
X121781652Y-54807657D01*
X121853081Y-54807657D01*
X121900700Y-54831467D01*
X121924509Y-54879086D01*
X121924509Y-55140990D01*
X121924509Y-54879086D02*
X121948319Y-54831467D01*
X121995938Y-54807657D01*
X122067366Y-54807657D01*
X122114986Y-54831467D01*
X122138795Y-54879086D01*
X122138795Y-55140990D01*
X122257843Y-55188610D02*
X122638795Y-55188610D01*
X122757843Y-55140990D02*
X122757843Y-54640990D01*
X122924509Y-54998133D01*
X123091176Y-54640990D01*
X123091176Y-55140990D01*
X123281653Y-54640990D02*
X123591176Y-54640990D01*
X123424510Y-54831467D01*
X123495938Y-54831467D01*
X123543557Y-54855276D01*
X123567367Y-54879086D01*
X123591176Y-54926705D01*
X123591176Y-55045752D01*
X123567367Y-55093371D01*
X123543557Y-55117181D01*
X123495938Y-55140990D01*
X123353081Y-55140990D01*
X123305462Y-55117181D01*
X123281653Y-55093371D01*
X123686414Y-55188610D02*
X124067366Y-55188610D01*
X124186414Y-55140990D02*
X124186414Y-54640990D01*
X124376890Y-54640990D01*
X124424509Y-54664800D01*
X124448318Y-54688610D01*
X124472128Y-54736229D01*
X124472128Y-54807657D01*
X124448318Y-54855276D01*
X124424509Y-54879086D01*
X124376890Y-54902895D01*
X124186414Y-54902895D01*
X124900699Y-55140990D02*
X124900699Y-54879086D01*
X124876890Y-54831467D01*
X124829271Y-54807657D01*
X124734033Y-54807657D01*
X124686414Y-54831467D01*
X124900699Y-55117181D02*
X124853080Y-55140990D01*
X124734033Y-55140990D01*
X124686414Y-55117181D01*
X124662604Y-55069562D01*
X124662604Y-55021943D01*
X124686414Y-54974324D01*
X124734033Y-54950514D01*
X124853080Y-54950514D01*
X124900699Y-54926705D01*
X125353080Y-55140990D02*
X125353080Y-54640990D01*
X125353080Y-55117181D02*
X125305461Y-55140990D01*
X125210223Y-55140990D01*
X125162604Y-55117181D01*
X125138795Y-55093371D01*
X125114985Y-55045752D01*
X125114985Y-54902895D01*
X125138795Y-54855276D01*
X125162604Y-54831467D01*
X125210223Y-54807657D01*
X125305461Y-54807657D01*
X125353080Y-54831467D01*
X115175620Y-138220190D02*
X115175620Y-137720190D01*
X115342286Y-138077333D01*
X115508953Y-137720190D01*
X115508953Y-138220190D01*
X115818477Y-138220190D02*
X115770858Y-138196381D01*
X115747049Y-138172571D01*
X115723239Y-138124952D01*
X115723239Y-137982095D01*
X115747049Y-137934476D01*
X115770858Y-137910667D01*
X115818477Y-137886857D01*
X115889906Y-137886857D01*
X115937525Y-137910667D01*
X115961334Y-137934476D01*
X115985144Y-137982095D01*
X115985144Y-138124952D01*
X115961334Y-138172571D01*
X115937525Y-138196381D01*
X115889906Y-138220190D01*
X115818477Y-138220190D01*
X116413715Y-137886857D02*
X116413715Y-138220190D01*
X116199430Y-137886857D02*
X116199430Y-138148762D01*
X116223239Y-138196381D01*
X116270858Y-138220190D01*
X116342287Y-138220190D01*
X116389906Y-138196381D01*
X116413715Y-138172571D01*
X116651811Y-137886857D02*
X116651811Y-138220190D01*
X116651811Y-137934476D02*
X116675620Y-137910667D01*
X116723239Y-137886857D01*
X116794668Y-137886857D01*
X116842287Y-137910667D01*
X116866096Y-137958286D01*
X116866096Y-138220190D01*
X117032763Y-137886857D02*
X117223239Y-137886857D01*
X117104192Y-137720190D02*
X117104192Y-138148762D01*
X117128001Y-138196381D01*
X117175620Y-138220190D01*
X117223239Y-138220190D01*
X117389906Y-138220190D02*
X117389906Y-137886857D01*
X117389906Y-137720190D02*
X117366096Y-137744000D01*
X117389906Y-137767810D01*
X117413715Y-137744000D01*
X117389906Y-137720190D01*
X117389906Y-137767810D01*
X117628001Y-137886857D02*
X117628001Y-138220190D01*
X117628001Y-137934476D02*
X117651810Y-137910667D01*
X117699429Y-137886857D01*
X117770858Y-137886857D01*
X117818477Y-137910667D01*
X117842286Y-137958286D01*
X117842286Y-138220190D01*
X118294667Y-137886857D02*
X118294667Y-138291619D01*
X118270858Y-138339238D01*
X118247048Y-138363048D01*
X118199429Y-138386857D01*
X118128001Y-138386857D01*
X118080382Y-138363048D01*
X118294667Y-138196381D02*
X118247048Y-138220190D01*
X118151810Y-138220190D01*
X118104191Y-138196381D01*
X118080382Y-138172571D01*
X118056572Y-138124952D01*
X118056572Y-137982095D01*
X118080382Y-137934476D01*
X118104191Y-137910667D01*
X118151810Y-137886857D01*
X118247048Y-137886857D01*
X118294667Y-137910667D01*
X118532763Y-138220190D02*
X118532763Y-137720190D01*
X118532763Y-137958286D02*
X118818477Y-137958286D01*
X118818477Y-138220190D02*
X118818477Y-137720190D01*
X119128001Y-138220190D02*
X119080382Y-138196381D01*
X119056573Y-138172571D01*
X119032763Y-138124952D01*
X119032763Y-137982095D01*
X119056573Y-137934476D01*
X119080382Y-137910667D01*
X119128001Y-137886857D01*
X119199430Y-137886857D01*
X119247049Y-137910667D01*
X119270858Y-137934476D01*
X119294668Y-137982095D01*
X119294668Y-138124952D01*
X119270858Y-138172571D01*
X119247049Y-138196381D01*
X119199430Y-138220190D01*
X119128001Y-138220190D01*
X119580382Y-138220190D02*
X119532763Y-138196381D01*
X119508954Y-138148762D01*
X119508954Y-137720190D01*
X119961335Y-138196381D02*
X119913716Y-138220190D01*
X119818478Y-138220190D01*
X119770859Y-138196381D01*
X119747049Y-138148762D01*
X119747049Y-137958286D01*
X119770859Y-137910667D01*
X119818478Y-137886857D01*
X119913716Y-137886857D01*
X119961335Y-137910667D01*
X119985144Y-137958286D01*
X119985144Y-138005905D01*
X119747049Y-138053524D01*
X120080382Y-138267810D02*
X120461334Y-138267810D01*
X120532763Y-137720190D02*
X120842286Y-137720190D01*
X120675620Y-137910667D01*
X120747048Y-137910667D01*
X120794667Y-137934476D01*
X120818477Y-137958286D01*
X120842286Y-138005905D01*
X120842286Y-138124952D01*
X120818477Y-138172571D01*
X120794667Y-138196381D01*
X120747048Y-138220190D01*
X120604191Y-138220190D01*
X120556572Y-138196381D01*
X120532763Y-138172571D01*
X121056572Y-138172571D02*
X121080381Y-138196381D01*
X121056572Y-138220190D01*
X121032762Y-138196381D01*
X121056572Y-138172571D01*
X121056572Y-138220190D01*
X121270857Y-137767810D02*
X121294667Y-137744000D01*
X121342286Y-137720190D01*
X121461333Y-137720190D01*
X121508952Y-137744000D01*
X121532762Y-137767810D01*
X121556571Y-137815429D01*
X121556571Y-137863048D01*
X121532762Y-137934476D01*
X121247048Y-138220190D01*
X121556571Y-138220190D01*
X121770857Y-138220190D02*
X121770857Y-137886857D01*
X121770857Y-137934476D02*
X121794666Y-137910667D01*
X121842285Y-137886857D01*
X121913714Y-137886857D01*
X121961333Y-137910667D01*
X121985142Y-137958286D01*
X121985142Y-138220190D01*
X121985142Y-137958286D02*
X122008952Y-137910667D01*
X122056571Y-137886857D01*
X122127999Y-137886857D01*
X122175619Y-137910667D01*
X122199428Y-137958286D01*
X122199428Y-138220190D01*
X122437524Y-138220190D02*
X122437524Y-137886857D01*
X122437524Y-137934476D02*
X122461333Y-137910667D01*
X122508952Y-137886857D01*
X122580381Y-137886857D01*
X122628000Y-137910667D01*
X122651809Y-137958286D01*
X122651809Y-138220190D01*
X122651809Y-137958286D02*
X122675619Y-137910667D01*
X122723238Y-137886857D01*
X122794666Y-137886857D01*
X122842286Y-137910667D01*
X122866095Y-137958286D01*
X122866095Y-138220190D01*
X122985143Y-138267810D02*
X123366095Y-138267810D01*
X123485143Y-138220190D02*
X123485143Y-137720190D01*
X123651809Y-138077333D01*
X123818476Y-137720190D01*
X123818476Y-138220190D01*
X124008953Y-137720190D02*
X124318476Y-137720190D01*
X124151810Y-137910667D01*
X124223238Y-137910667D01*
X124270857Y-137934476D01*
X124294667Y-137958286D01*
X124318476Y-138005905D01*
X124318476Y-138124952D01*
X124294667Y-138172571D01*
X124270857Y-138196381D01*
X124223238Y-138220190D01*
X124080381Y-138220190D01*
X124032762Y-138196381D01*
X124008953Y-138172571D01*
X124413714Y-138267810D02*
X124794666Y-138267810D01*
X124913714Y-138220190D02*
X124913714Y-137720190D01*
X125104190Y-137720190D01*
X125151809Y-137744000D01*
X125175618Y-137767810D01*
X125199428Y-137815429D01*
X125199428Y-137886857D01*
X125175618Y-137934476D01*
X125151809Y-137958286D01*
X125104190Y-137982095D01*
X124913714Y-137982095D01*
X125627999Y-138220190D02*
X125627999Y-137958286D01*
X125604190Y-137910667D01*
X125556571Y-137886857D01*
X125461333Y-137886857D01*
X125413714Y-137910667D01*
X125627999Y-138196381D02*
X125580380Y-138220190D01*
X125461333Y-138220190D01*
X125413714Y-138196381D01*
X125389904Y-138148762D01*
X125389904Y-138101143D01*
X125413714Y-138053524D01*
X125461333Y-138029714D01*
X125580380Y-138029714D01*
X125627999Y-138005905D01*
X126080380Y-138220190D02*
X126080380Y-137720190D01*
X126080380Y-138196381D02*
X126032761Y-138220190D01*
X125937523Y-138220190D01*
X125889904Y-138196381D01*
X125866095Y-138172571D01*
X125842285Y-138124952D01*
X125842285Y-137982095D01*
X125866095Y-137934476D01*
X125889904Y-137910667D01*
X125937523Y-137886857D01*
X126032761Y-137886857D01*
X126080380Y-137910667D01*
D13*
X127518389Y-99256210D02*
X127518389Y-98748210D01*
X127687723Y-99111067D01*
X127857056Y-98748210D01*
X127857056Y-99256210D01*
X128098960Y-99256210D02*
X128098960Y-98748210D01*
X128389246Y-99256210D02*
X128171532Y-98965924D01*
X128389246Y-98748210D02*
X128098960Y-99038495D01*
X128848865Y-99256210D02*
X128606960Y-99256210D01*
X128606960Y-98748210D01*
X129114960Y-98748210D02*
X129163341Y-98748210D01*
X129211722Y-98772400D01*
X129235913Y-98796590D01*
X129260103Y-98844971D01*
X129284294Y-98941733D01*
X129284294Y-99062686D01*
X129260103Y-99159448D01*
X129235913Y-99207829D01*
X129211722Y-99232019D01*
X129163341Y-99256210D01*
X129114960Y-99256210D01*
X129066579Y-99232019D01*
X129042389Y-99207829D01*
X129018198Y-99159448D01*
X128994008Y-99062686D01*
X128994008Y-98941733D01*
X129018198Y-98844971D01*
X129042389Y-98796590D01*
X129066579Y-98772400D01*
X129114960Y-98748210D01*
X129477818Y-98796590D02*
X129502008Y-98772400D01*
X129550389Y-98748210D01*
X129671342Y-98748210D01*
X129719723Y-98772400D01*
X129743913Y-98796590D01*
X129768104Y-98844971D01*
X129768104Y-98893352D01*
X129743913Y-98965924D01*
X129453627Y-99256210D01*
X129768104Y-99256210D01*
X129937437Y-98748210D02*
X130276104Y-98748210D01*
X129937437Y-99256210D01*
X130276104Y-99256210D01*
X130421247Y-98748210D02*
X130735724Y-98748210D01*
X130566390Y-98941733D01*
X130638962Y-98941733D01*
X130687343Y-98965924D01*
X130711533Y-98990114D01*
X130735724Y-99038495D01*
X130735724Y-99159448D01*
X130711533Y-99207829D01*
X130687343Y-99232019D01*
X130638962Y-99256210D01*
X130493819Y-99256210D01*
X130445438Y-99232019D01*
X130421247Y-99207829D01*
X130929248Y-98796590D02*
X130953438Y-98772400D01*
X131001819Y-98748210D01*
X131122772Y-98748210D01*
X131171153Y-98772400D01*
X131195343Y-98796590D01*
X131219534Y-98844971D01*
X131219534Y-98893352D01*
X131195343Y-98965924D01*
X130905057Y-99256210D01*
X131219534Y-99256210D01*
X131364677Y-98748210D02*
X131534010Y-99256210D01*
X131703344Y-98748210D01*
X132042011Y-98990114D02*
X131872677Y-98990114D01*
X131872677Y-99256210D02*
X131872677Y-98748210D01*
X132114582Y-98748210D01*
X132574202Y-98772400D02*
X132525821Y-98748210D01*
X132453249Y-98748210D01*
X132380678Y-98772400D01*
X132332297Y-98820781D01*
X132308106Y-98869162D01*
X132283916Y-98965924D01*
X132283916Y-99038495D01*
X132308106Y-99135257D01*
X132332297Y-99183638D01*
X132380678Y-99232019D01*
X132453249Y-99256210D01*
X132501630Y-99256210D01*
X132574202Y-99232019D01*
X132598392Y-99207829D01*
X132598392Y-99038495D01*
X132501630Y-99038495D01*
X133033821Y-98917543D02*
X133033821Y-99256210D01*
X132912868Y-98724019D02*
X132791916Y-99086876D01*
X133106392Y-99086876D01*
X119472376Y-117888214D02*
X119544947Y-117912405D01*
X119569138Y-117936595D01*
X119593328Y-117984976D01*
X119593328Y-118057548D01*
X119569138Y-118105929D01*
X119544947Y-118130119D01*
X119496566Y-118154310D01*
X119303042Y-118154310D01*
X119303042Y-117646310D01*
X119472376Y-117646310D01*
X119520757Y-117670500D01*
X119544947Y-117694690D01*
X119569138Y-117743071D01*
X119569138Y-117791452D01*
X119544947Y-117839833D01*
X119520757Y-117864024D01*
X119472376Y-117888214D01*
X119303042Y-117888214D01*
X119811042Y-118154310D02*
X119811042Y-117646310D01*
X119980376Y-118009167D01*
X120149709Y-117646310D01*
X120149709Y-118154310D01*
X120391613Y-117888214D02*
X120560947Y-117888214D01*
X120633518Y-118154310D02*
X120391613Y-118154310D01*
X120391613Y-117646310D01*
X120633518Y-117646310D01*
X120827042Y-117694690D02*
X120851232Y-117670500D01*
X120899613Y-117646310D01*
X121020566Y-117646310D01*
X121068947Y-117670500D01*
X121093137Y-117694690D01*
X121117328Y-117743071D01*
X121117328Y-117791452D01*
X121093137Y-117864024D01*
X120802851Y-118154310D01*
X121117328Y-118154310D01*
X121407614Y-117864024D02*
X121359233Y-117839833D01*
X121335042Y-117815643D01*
X121310852Y-117767262D01*
X121310852Y-117743071D01*
X121335042Y-117694690D01*
X121359233Y-117670500D01*
X121407614Y-117646310D01*
X121504376Y-117646310D01*
X121552757Y-117670500D01*
X121576947Y-117694690D01*
X121601138Y-117743071D01*
X121601138Y-117767262D01*
X121576947Y-117815643D01*
X121552757Y-117839833D01*
X121504376Y-117864024D01*
X121407614Y-117864024D01*
X121359233Y-117888214D01*
X121335042Y-117912405D01*
X121310852Y-117960786D01*
X121310852Y-118057548D01*
X121335042Y-118105929D01*
X121359233Y-118130119D01*
X121407614Y-118154310D01*
X121504376Y-118154310D01*
X121552757Y-118130119D01*
X121576947Y-118105929D01*
X121601138Y-118057548D01*
X121601138Y-117960786D01*
X121576947Y-117912405D01*
X121552757Y-117888214D01*
X121504376Y-117864024D01*
X121915614Y-117646310D02*
X121963995Y-117646310D01*
X122012376Y-117670500D01*
X122036567Y-117694690D01*
X122060757Y-117743071D01*
X122084948Y-117839833D01*
X122084948Y-117960786D01*
X122060757Y-118057548D01*
X122036567Y-118105929D01*
X122012376Y-118130119D01*
X121963995Y-118154310D01*
X121915614Y-118154310D01*
X121867233Y-118130119D01*
X121843043Y-118105929D01*
X121818852Y-118057548D01*
X121794662Y-117960786D01*
X121794662Y-117839833D01*
X121818852Y-117743071D01*
X121843043Y-117694690D01*
X121867233Y-117670500D01*
X121915614Y-117646310D01*
D14*
X132632257Y-104491029D02*
X132608067Y-104515219D01*
X132535495Y-104539410D01*
X132487114Y-104539410D01*
X132414543Y-104515219D01*
X132366162Y-104466838D01*
X132341971Y-104418457D01*
X132317781Y-104321695D01*
X132317781Y-104249124D01*
X132341971Y-104152362D01*
X132366162Y-104103981D01*
X132414543Y-104055600D01*
X132487114Y-104031410D01*
X132535495Y-104031410D01*
X132608067Y-104055600D01*
X132632257Y-104079790D01*
X132849971Y-104539410D02*
X132849971Y-104200743D01*
X132849971Y-104297505D02*
X132874162Y-104249124D01*
X132898352Y-104224933D01*
X132946733Y-104200743D01*
X132995114Y-104200743D01*
X133116066Y-104200743D02*
X133237019Y-104539410D01*
X133357971Y-104200743D02*
X133237019Y-104539410D01*
X133188638Y-104660362D01*
X133164447Y-104684552D01*
X133116066Y-104708743D01*
X133527305Y-104515219D02*
X133575686Y-104539410D01*
X133672448Y-104539410D01*
X133720829Y-104515219D01*
X133745019Y-104466838D01*
X133745019Y-104442648D01*
X133720829Y-104394267D01*
X133672448Y-104370076D01*
X133599876Y-104370076D01*
X133551495Y-104345886D01*
X133527305Y-104297505D01*
X133527305Y-104273314D01*
X133551495Y-104224933D01*
X133599876Y-104200743D01*
X133672448Y-104200743D01*
X133720829Y-104224933D01*
X133890162Y-104200743D02*
X134083686Y-104200743D01*
X133962733Y-104031410D02*
X133962733Y-104466838D01*
X133986924Y-104515219D01*
X134035305Y-104539410D01*
X134083686Y-104539410D01*
X134470734Y-104539410D02*
X134470734Y-104273314D01*
X134446543Y-104224933D01*
X134398162Y-104200743D01*
X134301400Y-104200743D01*
X134253019Y-104224933D01*
X134470734Y-104515219D02*
X134422353Y-104539410D01*
X134301400Y-104539410D01*
X134253019Y-104515219D01*
X134228829Y-104466838D01*
X134228829Y-104418457D01*
X134253019Y-104370076D01*
X134301400Y-104345886D01*
X134422353Y-104345886D01*
X134470734Y-104321695D01*
X134785210Y-104539410D02*
X134736829Y-104515219D01*
X134712638Y-104466838D01*
X134712638Y-104031410D01*
D12*
X161564184Y-68852356D02*
X161849898Y-68852356D01*
X161707041Y-69352356D02*
X161707041Y-68852356D01*
X162016565Y-69352356D02*
X162016565Y-68852356D01*
X162207041Y-68852356D01*
X162254660Y-68876166D01*
X162278469Y-68899976D01*
X162302279Y-68947595D01*
X162302279Y-69019023D01*
X162278469Y-69066642D01*
X162254660Y-69090452D01*
X162207041Y-69114261D01*
X162016565Y-69114261D01*
X162492755Y-69328547D02*
X162564184Y-69352356D01*
X162683231Y-69352356D01*
X162730850Y-69328547D01*
X162754660Y-69304737D01*
X162778469Y-69257118D01*
X162778469Y-69209499D01*
X162754660Y-69161880D01*
X162730850Y-69138071D01*
X162683231Y-69114261D01*
X162587993Y-69090452D01*
X162540374Y-69066642D01*
X162516565Y-69042833D01*
X162492755Y-68995214D01*
X162492755Y-68947595D01*
X162516565Y-68899976D01*
X162540374Y-68876166D01*
X162587993Y-68852356D01*
X162707041Y-68852356D01*
X162778469Y-68876166D01*
X163230850Y-68852356D02*
X162992755Y-68852356D01*
X162968945Y-69090452D01*
X162992755Y-69066642D01*
X163040374Y-69042833D01*
X163159421Y-69042833D01*
X163207040Y-69066642D01*
X163230850Y-69090452D01*
X163254659Y-69138071D01*
X163254659Y-69257118D01*
X163230850Y-69304737D01*
X163207040Y-69328547D01*
X163159421Y-69352356D01*
X163040374Y-69352356D01*
X162992755Y-69328547D01*
X162968945Y-69304737D01*
X163683230Y-68852356D02*
X163587992Y-68852356D01*
X163540373Y-68876166D01*
X163516564Y-68899976D01*
X163468945Y-68971404D01*
X163445135Y-69066642D01*
X163445135Y-69257118D01*
X163468945Y-69304737D01*
X163492754Y-69328547D01*
X163540373Y-69352356D01*
X163635611Y-69352356D01*
X163683230Y-69328547D01*
X163707040Y-69304737D01*
X163730849Y-69257118D01*
X163730849Y-69138071D01*
X163707040Y-69090452D01*
X163683230Y-69066642D01*
X163635611Y-69042833D01*
X163540373Y-69042833D01*
X163492754Y-69066642D01*
X163468945Y-69090452D01*
X163445135Y-69138071D01*
X163897516Y-68852356D02*
X164207039Y-68852356D01*
X164040373Y-69042833D01*
X164111801Y-69042833D01*
X164159420Y-69066642D01*
X164183230Y-69090452D01*
X164207039Y-69138071D01*
X164207039Y-69257118D01*
X164183230Y-69304737D01*
X164159420Y-69328547D01*
X164111801Y-69352356D01*
X163968944Y-69352356D01*
X163921325Y-69328547D01*
X163897516Y-69304737D01*
X164397515Y-68899976D02*
X164421325Y-68876166D01*
X164468944Y-68852356D01*
X164587991Y-68852356D01*
X164635610Y-68876166D01*
X164659420Y-68899976D01*
X164683229Y-68947595D01*
X164683229Y-68995214D01*
X164659420Y-69066642D01*
X164373706Y-69352356D01*
X164683229Y-69352356D01*
X164992753Y-68852356D02*
X165040372Y-68852356D01*
X165087991Y-68876166D01*
X165111800Y-68899976D01*
X165135610Y-68947595D01*
X165159419Y-69042833D01*
X165159419Y-69161880D01*
X165135610Y-69257118D01*
X165111800Y-69304737D01*
X165087991Y-69328547D01*
X165040372Y-69352356D01*
X164992753Y-69352356D01*
X164945134Y-69328547D01*
X164921324Y-69304737D01*
X164897515Y-69257118D01*
X164873705Y-69161880D01*
X164873705Y-69042833D01*
X164897515Y-68947595D01*
X164921324Y-68899976D01*
X164945134Y-68876166D01*
X164992753Y-68852356D01*
X165468943Y-68852356D02*
X165516562Y-68852356D01*
X165564181Y-68876166D01*
X165587990Y-68899976D01*
X165611800Y-68947595D01*
X165635609Y-69042833D01*
X165635609Y-69161880D01*
X165611800Y-69257118D01*
X165587990Y-69304737D01*
X165564181Y-69328547D01*
X165516562Y-69352356D01*
X165468943Y-69352356D01*
X165421324Y-69328547D01*
X165397514Y-69304737D01*
X165373705Y-69257118D01*
X165349895Y-69161880D01*
X165349895Y-69042833D01*
X165373705Y-68947595D01*
X165397514Y-68899976D01*
X165421324Y-68876166D01*
X165468943Y-68852356D01*
X167702544Y-77417772D02*
X167702544Y-77132058D01*
X168202544Y-77274915D02*
X167702544Y-77274915D01*
X168202544Y-76965391D02*
X167702544Y-76965391D01*
X167702544Y-76774915D01*
X167726354Y-76727296D01*
X167750164Y-76703487D01*
X167797783Y-76679677D01*
X167869211Y-76679677D01*
X167916830Y-76703487D01*
X167940640Y-76727296D01*
X167964449Y-76774915D01*
X167964449Y-76965391D01*
X168178735Y-76489201D02*
X168202544Y-76417772D01*
X168202544Y-76298725D01*
X168178735Y-76251106D01*
X168154925Y-76227296D01*
X168107306Y-76203487D01*
X168059687Y-76203487D01*
X168012068Y-76227296D01*
X167988259Y-76251106D01*
X167964449Y-76298725D01*
X167940640Y-76393963D01*
X167916830Y-76441582D01*
X167893021Y-76465391D01*
X167845402Y-76489201D01*
X167797783Y-76489201D01*
X167750164Y-76465391D01*
X167726354Y-76441582D01*
X167702544Y-76393963D01*
X167702544Y-76274915D01*
X167726354Y-76203487D01*
X167702544Y-75751106D02*
X167702544Y-75989201D01*
X167940640Y-76013011D01*
X167916830Y-75989201D01*
X167893021Y-75941582D01*
X167893021Y-75822535D01*
X167916830Y-75774916D01*
X167940640Y-75751106D01*
X167988259Y-75727297D01*
X168107306Y-75727297D01*
X168154925Y-75751106D01*
X168178735Y-75774916D01*
X168202544Y-75822535D01*
X168202544Y-75941582D01*
X168178735Y-75989201D01*
X168154925Y-76013011D01*
X167702544Y-75298726D02*
X167702544Y-75393964D01*
X167726354Y-75441583D01*
X167750164Y-75465392D01*
X167821592Y-75513011D01*
X167916830Y-75536821D01*
X168107306Y-75536821D01*
X168154925Y-75513011D01*
X168178735Y-75489202D01*
X168202544Y-75441583D01*
X168202544Y-75346345D01*
X168178735Y-75298726D01*
X168154925Y-75274916D01*
X168107306Y-75251107D01*
X167988259Y-75251107D01*
X167940640Y-75274916D01*
X167916830Y-75298726D01*
X167893021Y-75346345D01*
X167893021Y-75441583D01*
X167916830Y-75489202D01*
X167940640Y-75513011D01*
X167988259Y-75536821D01*
X167702544Y-75084440D02*
X167702544Y-74774917D01*
X167893021Y-74941583D01*
X167893021Y-74870155D01*
X167916830Y-74822536D01*
X167940640Y-74798726D01*
X167988259Y-74774917D01*
X168107306Y-74774917D01*
X168154925Y-74798726D01*
X168178735Y-74822536D01*
X168202544Y-74870155D01*
X168202544Y-75013012D01*
X168178735Y-75060631D01*
X168154925Y-75084440D01*
X167750164Y-74584441D02*
X167726354Y-74560631D01*
X167702544Y-74513012D01*
X167702544Y-74393965D01*
X167726354Y-74346346D01*
X167750164Y-74322536D01*
X167797783Y-74298727D01*
X167845402Y-74298727D01*
X167916830Y-74322536D01*
X168202544Y-74608250D01*
X168202544Y-74298727D01*
X167702544Y-73989203D02*
X167702544Y-73941584D01*
X167726354Y-73893965D01*
X167750164Y-73870156D01*
X167797783Y-73846346D01*
X167893021Y-73822537D01*
X168012068Y-73822537D01*
X168107306Y-73846346D01*
X168154925Y-73870156D01*
X168178735Y-73893965D01*
X168202544Y-73941584D01*
X168202544Y-73989203D01*
X168178735Y-74036822D01*
X168154925Y-74060632D01*
X168107306Y-74084441D01*
X168012068Y-74108251D01*
X167893021Y-74108251D01*
X167797783Y-74084441D01*
X167750164Y-74060632D01*
X167726354Y-74036822D01*
X167702544Y-73989203D01*
X167702544Y-73513013D02*
X167702544Y-73465394D01*
X167726354Y-73417775D01*
X167750164Y-73393966D01*
X167797783Y-73370156D01*
X167893021Y-73346347D01*
X168012068Y-73346347D01*
X168107306Y-73370156D01*
X168154925Y-73393966D01*
X168178735Y-73417775D01*
X168202544Y-73465394D01*
X168202544Y-73513013D01*
X168178735Y-73560632D01*
X168154925Y-73584442D01*
X168107306Y-73608251D01*
X168012068Y-73632061D01*
X167893021Y-73632061D01*
X167797783Y-73608251D01*
X167750164Y-73584442D01*
X167726354Y-73560632D01*
X167702544Y-73513013D01*
D13*
X164387699Y-117796019D02*
X164460270Y-117820210D01*
X164581223Y-117820210D01*
X164629604Y-117796019D01*
X164653794Y-117771829D01*
X164677985Y-117723448D01*
X164677985Y-117675067D01*
X164653794Y-117626686D01*
X164629604Y-117602495D01*
X164581223Y-117578305D01*
X164484461Y-117554114D01*
X164436080Y-117529924D01*
X164411889Y-117505733D01*
X164387699Y-117457352D01*
X164387699Y-117408971D01*
X164411889Y-117360590D01*
X164436080Y-117336400D01*
X164484461Y-117312210D01*
X164605413Y-117312210D01*
X164677985Y-117336400D01*
X164823128Y-117312210D02*
X165113414Y-117312210D01*
X164968271Y-117820210D02*
X164968271Y-117312210D01*
X165548843Y-117820210D02*
X165258557Y-117820210D01*
X165403700Y-117820210D02*
X165403700Y-117312210D01*
X165355319Y-117384781D01*
X165306938Y-117433162D01*
X165258557Y-117457352D01*
X165984272Y-117481543D02*
X165984272Y-117820210D01*
X165863319Y-117288019D02*
X165742367Y-117650876D01*
X166056843Y-117650876D01*
X166322939Y-117529924D02*
X166274558Y-117505733D01*
X166250367Y-117481543D01*
X166226177Y-117433162D01*
X166226177Y-117408971D01*
X166250367Y-117360590D01*
X166274558Y-117336400D01*
X166322939Y-117312210D01*
X166419701Y-117312210D01*
X166468082Y-117336400D01*
X166492272Y-117360590D01*
X166516463Y-117408971D01*
X166516463Y-117433162D01*
X166492272Y-117481543D01*
X166468082Y-117505733D01*
X166419701Y-117529924D01*
X166322939Y-117529924D01*
X166274558Y-117554114D01*
X166250367Y-117578305D01*
X166226177Y-117626686D01*
X166226177Y-117723448D01*
X166250367Y-117771829D01*
X166274558Y-117796019D01*
X166322939Y-117820210D01*
X166419701Y-117820210D01*
X166468082Y-117796019D01*
X166492272Y-117771829D01*
X166516463Y-117723448D01*
X166516463Y-117626686D01*
X166492272Y-117578305D01*
X166468082Y-117554114D01*
X166419701Y-117529924D01*
X166830939Y-117312210D02*
X166879320Y-117312210D01*
X166927701Y-117336400D01*
X166951892Y-117360590D01*
X166976082Y-117408971D01*
X167000273Y-117505733D01*
X167000273Y-117626686D01*
X166976082Y-117723448D01*
X166951892Y-117771829D01*
X166927701Y-117796019D01*
X166879320Y-117820210D01*
X166830939Y-117820210D01*
X166782558Y-117796019D01*
X166758368Y-117771829D01*
X166734177Y-117723448D01*
X166709987Y-117626686D01*
X166709987Y-117505733D01*
X166734177Y-117408971D01*
X166758368Y-117360590D01*
X166782558Y-117336400D01*
X166830939Y-117312210D01*
X167193797Y-117675067D02*
X167435702Y-117675067D01*
X167145416Y-117820210D02*
X167314749Y-117312210D01*
X167484083Y-117820210D01*
X167822750Y-117554114D02*
X167895321Y-117578305D01*
X167919512Y-117602495D01*
X167943702Y-117650876D01*
X167943702Y-117723448D01*
X167919512Y-117771829D01*
X167895321Y-117796019D01*
X167846940Y-117820210D01*
X167653416Y-117820210D01*
X167653416Y-117312210D01*
X167822750Y-117312210D01*
X167871131Y-117336400D01*
X167895321Y-117360590D01*
X167919512Y-117408971D01*
X167919512Y-117457352D01*
X167895321Y-117505733D01*
X167871131Y-117529924D01*
X167822750Y-117554114D01*
X167653416Y-117554114D01*
X168161416Y-117820210D02*
X168161416Y-117312210D01*
X168282369Y-117312210D01*
X168354940Y-117336400D01*
X168403321Y-117384781D01*
X168427512Y-117433162D01*
X168451702Y-117529924D01*
X168451702Y-117602495D01*
X168427512Y-117699257D01*
X168403321Y-117747638D01*
X168354940Y-117796019D01*
X168282369Y-117820210D01*
X168161416Y-117820210D01*
X168959702Y-117820210D02*
X168790369Y-117578305D01*
X168669416Y-117820210D02*
X168669416Y-117312210D01*
X168862940Y-117312210D01*
X168911321Y-117336400D01*
X168935512Y-117360590D01*
X168959702Y-117408971D01*
X168959702Y-117481543D01*
X168935512Y-117529924D01*
X168911321Y-117554114D01*
X168862940Y-117578305D01*
X168669416Y-117578305D01*
D12*
X178751113Y-62092351D02*
X178751113Y-62330446D01*
X178251113Y-62330446D01*
X178751113Y-61925684D02*
X178251113Y-61925684D01*
X178608256Y-61759018D01*
X178251113Y-61592351D01*
X178751113Y-61592351D01*
X178417780Y-61139970D02*
X178751113Y-61139970D01*
X178227304Y-61259017D02*
X178584447Y-61378065D01*
X178584447Y-61068541D01*
X178251113Y-60782827D02*
X178251113Y-60735208D01*
X178274923Y-60687589D01*
X178298733Y-60663780D01*
X178346352Y-60639970D01*
X178441590Y-60616161D01*
X178560637Y-60616161D01*
X178655875Y-60639970D01*
X178703494Y-60663780D01*
X178727304Y-60687589D01*
X178751113Y-60735208D01*
X178751113Y-60782827D01*
X178727304Y-60830446D01*
X178703494Y-60854256D01*
X178655875Y-60878065D01*
X178560637Y-60901875D01*
X178441590Y-60901875D01*
X178346352Y-60878065D01*
X178298733Y-60854256D01*
X178274923Y-60830446D01*
X178251113Y-60782827D01*
X178251113Y-60449494D02*
X178251113Y-60139971D01*
X178441590Y-60306637D01*
X178441590Y-60235209D01*
X178465399Y-60187590D01*
X178489209Y-60163780D01*
X178536828Y-60139971D01*
X178655875Y-60139971D01*
X178703494Y-60163780D01*
X178727304Y-60187590D01*
X178751113Y-60235209D01*
X178751113Y-60378066D01*
X178727304Y-60425685D01*
X178703494Y-60449494D01*
X178251113Y-59830447D02*
X178251113Y-59782828D01*
X178274923Y-59735209D01*
X178298733Y-59711400D01*
X178346352Y-59687590D01*
X178441590Y-59663781D01*
X178560637Y-59663781D01*
X178655875Y-59687590D01*
X178703494Y-59711400D01*
X178727304Y-59735209D01*
X178751113Y-59782828D01*
X178751113Y-59830447D01*
X178727304Y-59878066D01*
X178703494Y-59901876D01*
X178655875Y-59925685D01*
X178560637Y-59949495D01*
X178441590Y-59949495D01*
X178346352Y-59925685D01*
X178298733Y-59901876D01*
X178274923Y-59878066D01*
X178251113Y-59830447D01*
X130870278Y-113511790D02*
X130870278Y-113011790D01*
X131036944Y-113368933D01*
X131203611Y-113011790D01*
X131203611Y-113511790D01*
X131727421Y-113464171D02*
X131703611Y-113487981D01*
X131632183Y-113511790D01*
X131584564Y-113511790D01*
X131513135Y-113487981D01*
X131465516Y-113440362D01*
X131441707Y-113392743D01*
X131417897Y-113297505D01*
X131417897Y-113226076D01*
X131441707Y-113130838D01*
X131465516Y-113083219D01*
X131513135Y-113035600D01*
X131584564Y-113011790D01*
X131632183Y-113011790D01*
X131703611Y-113035600D01*
X131727421Y-113059410D01*
X131941707Y-113511790D02*
X131941707Y-113011790D01*
X132132183Y-113011790D01*
X132179802Y-113035600D01*
X132203611Y-113059410D01*
X132227421Y-113107029D01*
X132227421Y-113178457D01*
X132203611Y-113226076D01*
X132179802Y-113249886D01*
X132132183Y-113273695D01*
X131941707Y-113273695D01*
X132465516Y-113511790D02*
X132560754Y-113511790D01*
X132608373Y-113487981D01*
X132632183Y-113464171D01*
X132679802Y-113392743D01*
X132703611Y-113297505D01*
X132703611Y-113107029D01*
X132679802Y-113059410D01*
X132655992Y-113035600D01*
X132608373Y-113011790D01*
X132513135Y-113011790D01*
X132465516Y-113035600D01*
X132441707Y-113059410D01*
X132417897Y-113107029D01*
X132417897Y-113226076D01*
X132441707Y-113273695D01*
X132465516Y-113297505D01*
X132513135Y-113321314D01*
X132608373Y-113321314D01*
X132655992Y-113297505D01*
X132679802Y-113273695D01*
X132703611Y-113226076D01*
X132989325Y-113226076D02*
X132941706Y-113202267D01*
X132917897Y-113178457D01*
X132894087Y-113130838D01*
X132894087Y-113107029D01*
X132917897Y-113059410D01*
X132941706Y-113035600D01*
X132989325Y-113011790D01*
X133084563Y-113011790D01*
X133132182Y-113035600D01*
X133155992Y-113059410D01*
X133179801Y-113107029D01*
X133179801Y-113130838D01*
X133155992Y-113178457D01*
X133132182Y-113202267D01*
X133084563Y-113226076D01*
X132989325Y-113226076D01*
X132941706Y-113249886D01*
X132917897Y-113273695D01*
X132894087Y-113321314D01*
X132894087Y-113416552D01*
X132917897Y-113464171D01*
X132941706Y-113487981D01*
X132989325Y-113511790D01*
X133084563Y-113511790D01*
X133132182Y-113487981D01*
X133155992Y-113464171D01*
X133179801Y-113416552D01*
X133179801Y-113321314D01*
X133155992Y-113273695D01*
X133132182Y-113249886D01*
X133084563Y-113226076D01*
X133489325Y-113011790D02*
X133536944Y-113011790D01*
X133584563Y-113035600D01*
X133608372Y-113059410D01*
X133632182Y-113107029D01*
X133655991Y-113202267D01*
X133655991Y-113321314D01*
X133632182Y-113416552D01*
X133608372Y-113464171D01*
X133584563Y-113487981D01*
X133536944Y-113511790D01*
X133489325Y-113511790D01*
X133441706Y-113487981D01*
X133417896Y-113464171D01*
X133394087Y-113416552D01*
X133370277Y-113321314D01*
X133370277Y-113202267D01*
X133394087Y-113107029D01*
X133417896Y-113059410D01*
X133441706Y-113035600D01*
X133489325Y-113011790D01*
X133941705Y-113226076D02*
X133894086Y-113202267D01*
X133870277Y-113178457D01*
X133846467Y-113130838D01*
X133846467Y-113107029D01*
X133870277Y-113059410D01*
X133894086Y-113035600D01*
X133941705Y-113011790D01*
X134036943Y-113011790D01*
X134084562Y-113035600D01*
X134108372Y-113059410D01*
X134132181Y-113107029D01*
X134132181Y-113130838D01*
X134108372Y-113178457D01*
X134084562Y-113202267D01*
X134036943Y-113226076D01*
X133941705Y-113226076D01*
X133894086Y-113249886D01*
X133870277Y-113273695D01*
X133846467Y-113321314D01*
X133846467Y-113416552D01*
X133870277Y-113464171D01*
X133894086Y-113487981D01*
X133941705Y-113511790D01*
X134036943Y-113511790D01*
X134084562Y-113487981D01*
X134108372Y-113464171D01*
X134132181Y-113416552D01*
X134132181Y-113321314D01*
X134108372Y-113273695D01*
X134084562Y-113249886D01*
X134036943Y-113226076D01*
X134275038Y-113011790D02*
X134560752Y-113011790D01*
X134417895Y-113511790D02*
X134417895Y-113011790D01*
X139828769Y-110694270D02*
X139828769Y-110194270D01*
X140114483Y-110694270D01*
X140114483Y-110194270D01*
X140352579Y-110194270D02*
X140352579Y-110599032D01*
X140376388Y-110646651D01*
X140400198Y-110670461D01*
X140447817Y-110694270D01*
X140543055Y-110694270D01*
X140590674Y-110670461D01*
X140614483Y-110646651D01*
X140638293Y-110599032D01*
X140638293Y-110194270D01*
X140876389Y-110694270D02*
X140876389Y-110194270D01*
X141066865Y-110194270D01*
X141114484Y-110218080D01*
X141138293Y-110241890D01*
X141162103Y-110289509D01*
X141162103Y-110360937D01*
X141138293Y-110408556D01*
X141114484Y-110432366D01*
X141066865Y-110456175D01*
X140876389Y-110456175D01*
X141352579Y-110241890D02*
X141376389Y-110218080D01*
X141424008Y-110194270D01*
X141543055Y-110194270D01*
X141590674Y-110218080D01*
X141614484Y-110241890D01*
X141638293Y-110289509D01*
X141638293Y-110337128D01*
X141614484Y-110408556D01*
X141328770Y-110694270D01*
X141638293Y-110694270D01*
X141828769Y-110241890D02*
X141852579Y-110218080D01*
X141900198Y-110194270D01*
X142019245Y-110194270D01*
X142066864Y-110218080D01*
X142090674Y-110241890D01*
X142114483Y-110289509D01*
X142114483Y-110337128D01*
X142090674Y-110408556D01*
X141804960Y-110694270D01*
X142114483Y-110694270D01*
X142424007Y-110194270D02*
X142471626Y-110194270D01*
X142519245Y-110218080D01*
X142543054Y-110241890D01*
X142566864Y-110289509D01*
X142590673Y-110384747D01*
X142590673Y-110503794D01*
X142566864Y-110599032D01*
X142543054Y-110646651D01*
X142519245Y-110670461D01*
X142471626Y-110694270D01*
X142424007Y-110694270D01*
X142376388Y-110670461D01*
X142352578Y-110646651D01*
X142328769Y-110599032D01*
X142304959Y-110503794D01*
X142304959Y-110384747D01*
X142328769Y-110289509D01*
X142352578Y-110241890D01*
X142376388Y-110218080D01*
X142424007Y-110194270D01*
X143066863Y-110694270D02*
X142781149Y-110694270D01*
X142924006Y-110694270D02*
X142924006Y-110194270D01*
X142876387Y-110265699D01*
X142828768Y-110313318D01*
X142781149Y-110337128D01*
X143281149Y-110694270D02*
X143281149Y-110194270D01*
X143447815Y-110551413D01*
X143614482Y-110194270D01*
X143614482Y-110694270D01*
X144138292Y-110694270D02*
X143971625Y-110456175D01*
X143852578Y-110694270D02*
X143852578Y-110194270D01*
X144043054Y-110194270D01*
X144090673Y-110218080D01*
X144114482Y-110241890D01*
X144138292Y-110289509D01*
X144138292Y-110360937D01*
X144114482Y-110408556D01*
X144090673Y-110432366D01*
X144043054Y-110456175D01*
X143852578Y-110456175D01*
X144566863Y-110194270D02*
X144471625Y-110194270D01*
X144424006Y-110218080D01*
X144400197Y-110241890D01*
X144352578Y-110313318D01*
X144328768Y-110408556D01*
X144328768Y-110599032D01*
X144352578Y-110646651D01*
X144376387Y-110670461D01*
X144424006Y-110694270D01*
X144519244Y-110694270D01*
X144566863Y-110670461D01*
X144590673Y-110646651D01*
X144614482Y-110599032D01*
X144614482Y-110479985D01*
X144590673Y-110432366D01*
X144566863Y-110408556D01*
X144519244Y-110384747D01*
X144424006Y-110384747D01*
X144376387Y-110408556D01*
X144352578Y-110432366D01*
X144328768Y-110479985D01*
X150664049Y-91358382D02*
X150164049Y-91358382D01*
X150664049Y-91072668D01*
X150164049Y-91072668D01*
X150164049Y-90834572D02*
X150568811Y-90834572D01*
X150616430Y-90810763D01*
X150640240Y-90786953D01*
X150664049Y-90739334D01*
X150664049Y-90644096D01*
X150640240Y-90596477D01*
X150616430Y-90572668D01*
X150568811Y-90548858D01*
X150164049Y-90548858D01*
X150664049Y-90310762D02*
X150164049Y-90310762D01*
X150164049Y-90120286D01*
X150187859Y-90072667D01*
X150211669Y-90048858D01*
X150259288Y-90025048D01*
X150330716Y-90025048D01*
X150378335Y-90048858D01*
X150402145Y-90072667D01*
X150425954Y-90120286D01*
X150425954Y-90310762D01*
X150211669Y-89834572D02*
X150187859Y-89810762D01*
X150164049Y-89763143D01*
X150164049Y-89644096D01*
X150187859Y-89596477D01*
X150211669Y-89572667D01*
X150259288Y-89548858D01*
X150306907Y-89548858D01*
X150378335Y-89572667D01*
X150664049Y-89858381D01*
X150664049Y-89548858D01*
X150211669Y-89358382D02*
X150187859Y-89334572D01*
X150164049Y-89286953D01*
X150164049Y-89167906D01*
X150187859Y-89120287D01*
X150211669Y-89096477D01*
X150259288Y-89072668D01*
X150306907Y-89072668D01*
X150378335Y-89096477D01*
X150664049Y-89382191D01*
X150664049Y-89072668D01*
X150164049Y-88763144D02*
X150164049Y-88715525D01*
X150187859Y-88667906D01*
X150211669Y-88644097D01*
X150259288Y-88620287D01*
X150354526Y-88596478D01*
X150473573Y-88596478D01*
X150568811Y-88620287D01*
X150616430Y-88644097D01*
X150640240Y-88667906D01*
X150664049Y-88715525D01*
X150664049Y-88763144D01*
X150640240Y-88810763D01*
X150616430Y-88834573D01*
X150568811Y-88858382D01*
X150473573Y-88882192D01*
X150354526Y-88882192D01*
X150259288Y-88858382D01*
X150211669Y-88834573D01*
X150187859Y-88810763D01*
X150164049Y-88763144D01*
X150664049Y-88120288D02*
X150664049Y-88406002D01*
X150664049Y-88263145D02*
X150164049Y-88263145D01*
X150235478Y-88310764D01*
X150283097Y-88358383D01*
X150306907Y-88406002D01*
X150664049Y-87906002D02*
X150164049Y-87906002D01*
X150521192Y-87739336D01*
X150164049Y-87572669D01*
X150664049Y-87572669D01*
X150664049Y-87048859D02*
X150425954Y-87215526D01*
X150664049Y-87334573D02*
X150164049Y-87334573D01*
X150164049Y-87144097D01*
X150187859Y-87096478D01*
X150211669Y-87072669D01*
X150259288Y-87048859D01*
X150330716Y-87048859D01*
X150378335Y-87072669D01*
X150402145Y-87096478D01*
X150425954Y-87144097D01*
X150425954Y-87334573D01*
X150164049Y-86620288D02*
X150164049Y-86715526D01*
X150187859Y-86763145D01*
X150211669Y-86786954D01*
X150283097Y-86834573D01*
X150378335Y-86858383D01*
X150568811Y-86858383D01*
X150616430Y-86834573D01*
X150640240Y-86810764D01*
X150664049Y-86763145D01*
X150664049Y-86667907D01*
X150640240Y-86620288D01*
X150616430Y-86596478D01*
X150568811Y-86572669D01*
X150449764Y-86572669D01*
X150402145Y-86596478D01*
X150378335Y-86620288D01*
X150354526Y-86667907D01*
X150354526Y-86763145D01*
X150378335Y-86810764D01*
X150402145Y-86834573D01*
X150449764Y-86858383D01*
X137766990Y-101123903D02*
X137266990Y-101123903D01*
X137624133Y-100957237D01*
X137266990Y-100790570D01*
X137766990Y-100790570D01*
X137766990Y-100552474D02*
X137266990Y-100552474D01*
X137766990Y-100266760D02*
X137481276Y-100481046D01*
X137266990Y-100266760D02*
X137552705Y-100552474D01*
X137314610Y-100076284D02*
X137290800Y-100052474D01*
X137266990Y-100004855D01*
X137266990Y-99885808D01*
X137290800Y-99838189D01*
X137314610Y-99814379D01*
X137362229Y-99790570D01*
X137409848Y-99790570D01*
X137481276Y-99814379D01*
X137766990Y-100100093D01*
X137766990Y-99790570D01*
X137266990Y-99481046D02*
X137266990Y-99433427D01*
X137290800Y-99385808D01*
X137314610Y-99361999D01*
X137362229Y-99338189D01*
X137457467Y-99314380D01*
X137576514Y-99314380D01*
X137671752Y-99338189D01*
X137719371Y-99361999D01*
X137743181Y-99385808D01*
X137766990Y-99433427D01*
X137766990Y-99481046D01*
X137743181Y-99528665D01*
X137719371Y-99552475D01*
X137671752Y-99576284D01*
X137576514Y-99600094D01*
X137457467Y-99600094D01*
X137362229Y-99576284D01*
X137314610Y-99552475D01*
X137290800Y-99528665D01*
X137266990Y-99481046D01*
X137766990Y-99100094D02*
X137266990Y-99100094D01*
X137266990Y-98981047D01*
X137290800Y-98909618D01*
X137338419Y-98861999D01*
X137386038Y-98838190D01*
X137481276Y-98814380D01*
X137552705Y-98814380D01*
X137647943Y-98838190D01*
X137695562Y-98861999D01*
X137743181Y-98909618D01*
X137766990Y-98981047D01*
X137766990Y-99100094D01*
X137266990Y-98647713D02*
X137766990Y-98314380D01*
X137266990Y-98314380D02*
X137766990Y-98647713D01*
X137314610Y-98147714D02*
X137290800Y-98123904D01*
X137266990Y-98076285D01*
X137266990Y-97957238D01*
X137290800Y-97909619D01*
X137314610Y-97885809D01*
X137362229Y-97862000D01*
X137409848Y-97862000D01*
X137481276Y-97885809D01*
X137766990Y-98171523D01*
X137766990Y-97862000D01*
X137266990Y-97409619D02*
X137266990Y-97647714D01*
X137505086Y-97671524D01*
X137481276Y-97647714D01*
X137457467Y-97600095D01*
X137457467Y-97481048D01*
X137481276Y-97433429D01*
X137505086Y-97409619D01*
X137552705Y-97385810D01*
X137671752Y-97385810D01*
X137719371Y-97409619D01*
X137743181Y-97433429D01*
X137766990Y-97481048D01*
X137766990Y-97600095D01*
X137743181Y-97647714D01*
X137719371Y-97671524D01*
X137266990Y-96957239D02*
X137266990Y-97052477D01*
X137290800Y-97100096D01*
X137314610Y-97123905D01*
X137386038Y-97171524D01*
X137481276Y-97195334D01*
X137671752Y-97195334D01*
X137719371Y-97171524D01*
X137743181Y-97147715D01*
X137766990Y-97100096D01*
X137766990Y-97004858D01*
X137743181Y-96957239D01*
X137719371Y-96933429D01*
X137671752Y-96909620D01*
X137552705Y-96909620D01*
X137505086Y-96933429D01*
X137481276Y-96957239D01*
X137457467Y-97004858D01*
X137457467Y-97100096D01*
X137481276Y-97147715D01*
X137505086Y-97171524D01*
X137552705Y-97195334D01*
X137266990Y-96766763D02*
X137766990Y-96600096D01*
X137266990Y-96433430D01*
X137766990Y-96028668D02*
X137766990Y-96266763D01*
X137266990Y-96266763D01*
X137766990Y-95862001D02*
X137266990Y-95862001D01*
X137505086Y-95862001D02*
X137505086Y-95576287D01*
X137766990Y-95576287D02*
X137266990Y-95576287D01*
X137266990Y-95385810D02*
X137266990Y-95052477D01*
X137766990Y-95266763D01*
X121167190Y-96682951D02*
X120667190Y-96682951D01*
X121167190Y-96397237D01*
X120667190Y-96397237D01*
X120667190Y-96159141D02*
X121071952Y-96159141D01*
X121119571Y-96135332D01*
X121143381Y-96111522D01*
X121167190Y-96063903D01*
X121167190Y-95968665D01*
X121143381Y-95921046D01*
X121119571Y-95897237D01*
X121071952Y-95873427D01*
X120667190Y-95873427D01*
X121167190Y-95635331D02*
X120667190Y-95635331D01*
X120667190Y-95444855D01*
X120691000Y-95397236D01*
X120714810Y-95373427D01*
X120762429Y-95349617D01*
X120833857Y-95349617D01*
X120881476Y-95373427D01*
X120905286Y-95397236D01*
X120929095Y-95444855D01*
X120929095Y-95635331D01*
X120714810Y-95159141D02*
X120691000Y-95135331D01*
X120667190Y-95087712D01*
X120667190Y-94968665D01*
X120691000Y-94921046D01*
X120714810Y-94897236D01*
X120762429Y-94873427D01*
X120810048Y-94873427D01*
X120881476Y-94897236D01*
X121167190Y-95182950D01*
X121167190Y-94873427D01*
X120714810Y-94682951D02*
X120691000Y-94659141D01*
X120667190Y-94611522D01*
X120667190Y-94492475D01*
X120691000Y-94444856D01*
X120714810Y-94421046D01*
X120762429Y-94397237D01*
X120810048Y-94397237D01*
X120881476Y-94421046D01*
X121167190Y-94706760D01*
X121167190Y-94397237D01*
X120667190Y-94087713D02*
X120667190Y-94040094D01*
X120691000Y-93992475D01*
X120714810Y-93968666D01*
X120762429Y-93944856D01*
X120857667Y-93921047D01*
X120976714Y-93921047D01*
X121071952Y-93944856D01*
X121119571Y-93968666D01*
X121143381Y-93992475D01*
X121167190Y-94040094D01*
X121167190Y-94087713D01*
X121143381Y-94135332D01*
X121119571Y-94159142D01*
X121071952Y-94182951D01*
X120976714Y-94206761D01*
X120857667Y-94206761D01*
X120762429Y-94182951D01*
X120714810Y-94159142D01*
X120691000Y-94135332D01*
X120667190Y-94087713D01*
X121167190Y-93444857D02*
X121167190Y-93730571D01*
X121167190Y-93587714D02*
X120667190Y-93587714D01*
X120738619Y-93635333D01*
X120786238Y-93682952D01*
X120810048Y-93730571D01*
X121167190Y-93230571D02*
X120667190Y-93230571D01*
X121024333Y-93063905D01*
X120667190Y-92897238D01*
X121167190Y-92897238D01*
X121167190Y-92373428D02*
X120929095Y-92540095D01*
X121167190Y-92659142D02*
X120667190Y-92659142D01*
X120667190Y-92468666D01*
X120691000Y-92421047D01*
X120714810Y-92397238D01*
X120762429Y-92373428D01*
X120833857Y-92373428D01*
X120881476Y-92397238D01*
X120905286Y-92421047D01*
X120929095Y-92468666D01*
X120929095Y-92659142D01*
X120667190Y-91944857D02*
X120667190Y-92040095D01*
X120691000Y-92087714D01*
X120714810Y-92111523D01*
X120786238Y-92159142D01*
X120881476Y-92182952D01*
X121071952Y-92182952D01*
X121119571Y-92159142D01*
X121143381Y-92135333D01*
X121167190Y-92087714D01*
X121167190Y-91992476D01*
X121143381Y-91944857D01*
X121119571Y-91921047D01*
X121071952Y-91897238D01*
X120952905Y-91897238D01*
X120905286Y-91921047D01*
X120881476Y-91944857D01*
X120857667Y-91992476D01*
X120857667Y-92087714D01*
X120881476Y-92135333D01*
X120905286Y-92159142D01*
X120952905Y-92182952D01*
X184771190Y-68542190D02*
X184771190Y-68256476D01*
X185271190Y-68399333D02*
X184771190Y-68399333D01*
X185271190Y-68089809D02*
X184771190Y-68089809D01*
X185009286Y-68089809D02*
X185009286Y-67804095D01*
X185271190Y-67804095D02*
X184771190Y-67804095D01*
X185009286Y-67565999D02*
X185009286Y-67399333D01*
X185271190Y-67327904D02*
X185271190Y-67565999D01*
X184771190Y-67565999D01*
X184771190Y-67327904D01*
X185271190Y-66827904D02*
X185033095Y-66994571D01*
X185271190Y-67113618D02*
X184771190Y-67113618D01*
X184771190Y-66923142D01*
X184795000Y-66875523D01*
X184818810Y-66851714D01*
X184866429Y-66827904D01*
X184937857Y-66827904D01*
X184985476Y-66851714D01*
X185009286Y-66875523D01*
X185033095Y-66923142D01*
X185033095Y-67113618D01*
X185271190Y-66613618D02*
X184771190Y-66613618D01*
X185128333Y-66446952D01*
X184771190Y-66280285D01*
X185271190Y-66280285D01*
X185271190Y-66042189D02*
X184771190Y-66042189D01*
X185247381Y-65827904D02*
X185271190Y-65756475D01*
X185271190Y-65637428D01*
X185247381Y-65589809D01*
X185223571Y-65565999D01*
X185175952Y-65542190D01*
X185128333Y-65542190D01*
X185080714Y-65565999D01*
X185056905Y-65589809D01*
X185033095Y-65637428D01*
X185009286Y-65732666D01*
X184985476Y-65780285D01*
X184961667Y-65804094D01*
X184914048Y-65827904D01*
X184866429Y-65827904D01*
X184818810Y-65804094D01*
X184795000Y-65780285D01*
X184771190Y-65732666D01*
X184771190Y-65613618D01*
X184795000Y-65542190D01*
X184771190Y-65399333D02*
X184771190Y-65113619D01*
X185271190Y-65256476D02*
X184771190Y-65256476D01*
X184771190Y-64851714D02*
X184771190Y-64756476D01*
X184795000Y-64708857D01*
X184842619Y-64661238D01*
X184937857Y-64637429D01*
X185104524Y-64637429D01*
X185199762Y-64661238D01*
X185247381Y-64708857D01*
X185271190Y-64756476D01*
X185271190Y-64851714D01*
X185247381Y-64899333D01*
X185199762Y-64946952D01*
X185104524Y-64970762D01*
X184937857Y-64970762D01*
X184842619Y-64946952D01*
X184795000Y-64899333D01*
X184771190Y-64851714D01*
X185271190Y-64137428D02*
X185033095Y-64304095D01*
X185271190Y-64423142D02*
X184771190Y-64423142D01*
X184771190Y-64232666D01*
X184795000Y-64185047D01*
X184818810Y-64161238D01*
X184866429Y-64137428D01*
X184937857Y-64137428D01*
X184985476Y-64161238D01*
X185009286Y-64185047D01*
X185033095Y-64232666D01*
X185033095Y-64423142D01*
X184771190Y-73711190D02*
X184771190Y-73425476D01*
X185271190Y-73568333D02*
X184771190Y-73568333D01*
X185271190Y-73258809D02*
X184771190Y-73258809D01*
X185009286Y-73258809D02*
X185009286Y-72973095D01*
X185271190Y-72973095D02*
X184771190Y-72973095D01*
X185009286Y-72734999D02*
X185009286Y-72568333D01*
X185271190Y-72496904D02*
X185271190Y-72734999D01*
X184771190Y-72734999D01*
X184771190Y-72496904D01*
X185271190Y-71996904D02*
X185033095Y-72163571D01*
X185271190Y-72282618D02*
X184771190Y-72282618D01*
X184771190Y-72092142D01*
X184795000Y-72044523D01*
X184818810Y-72020714D01*
X184866429Y-71996904D01*
X184937857Y-71996904D01*
X184985476Y-72020714D01*
X185009286Y-72044523D01*
X185033095Y-72092142D01*
X185033095Y-72282618D01*
X185271190Y-71782618D02*
X184771190Y-71782618D01*
X185128333Y-71615952D01*
X184771190Y-71449285D01*
X185271190Y-71449285D01*
X185271190Y-71211189D02*
X184771190Y-71211189D01*
X185247381Y-70996904D02*
X185271190Y-70925475D01*
X185271190Y-70806428D01*
X185247381Y-70758809D01*
X185223571Y-70734999D01*
X185175952Y-70711190D01*
X185128333Y-70711190D01*
X185080714Y-70734999D01*
X185056905Y-70758809D01*
X185033095Y-70806428D01*
X185009286Y-70901666D01*
X184985476Y-70949285D01*
X184961667Y-70973094D01*
X184914048Y-70996904D01*
X184866429Y-70996904D01*
X184818810Y-70973094D01*
X184795000Y-70949285D01*
X184771190Y-70901666D01*
X184771190Y-70782618D01*
X184795000Y-70711190D01*
X184771190Y-70568333D02*
X184771190Y-70282619D01*
X185271190Y-70425476D02*
X184771190Y-70425476D01*
X184771190Y-70020714D02*
X184771190Y-69925476D01*
X184795000Y-69877857D01*
X184842619Y-69830238D01*
X184937857Y-69806429D01*
X185104524Y-69806429D01*
X185199762Y-69830238D01*
X185247381Y-69877857D01*
X185271190Y-69925476D01*
X185271190Y-70020714D01*
X185247381Y-70068333D01*
X185199762Y-70115952D01*
X185104524Y-70139762D01*
X184937857Y-70139762D01*
X184842619Y-70115952D01*
X184795000Y-70068333D01*
X184771190Y-70020714D01*
X185271190Y-69306428D02*
X185033095Y-69473095D01*
X185271190Y-69592142D02*
X184771190Y-69592142D01*
X184771190Y-69401666D01*
X184795000Y-69354047D01*
X184818810Y-69330238D01*
X184866429Y-69306428D01*
X184937857Y-69306428D01*
X184985476Y-69330238D01*
X185009286Y-69354047D01*
X185033095Y-69401666D01*
X185033095Y-69592142D01*
X184765590Y-78859990D02*
X184765590Y-78574276D01*
X185265590Y-78717133D02*
X184765590Y-78717133D01*
X185265590Y-78407609D02*
X184765590Y-78407609D01*
X185003686Y-78407609D02*
X185003686Y-78121895D01*
X185265590Y-78121895D02*
X184765590Y-78121895D01*
X185003686Y-77883799D02*
X185003686Y-77717133D01*
X185265590Y-77645704D02*
X185265590Y-77883799D01*
X184765590Y-77883799D01*
X184765590Y-77645704D01*
X185265590Y-77145704D02*
X185027495Y-77312371D01*
X185265590Y-77431418D02*
X184765590Y-77431418D01*
X184765590Y-77240942D01*
X184789400Y-77193323D01*
X184813210Y-77169514D01*
X184860829Y-77145704D01*
X184932257Y-77145704D01*
X184979876Y-77169514D01*
X185003686Y-77193323D01*
X185027495Y-77240942D01*
X185027495Y-77431418D01*
X185265590Y-76931418D02*
X184765590Y-76931418D01*
X185122733Y-76764752D01*
X184765590Y-76598085D01*
X185265590Y-76598085D01*
X185265590Y-76359989D02*
X184765590Y-76359989D01*
X185241781Y-76145704D02*
X185265590Y-76074275D01*
X185265590Y-75955228D01*
X185241781Y-75907609D01*
X185217971Y-75883799D01*
X185170352Y-75859990D01*
X185122733Y-75859990D01*
X185075114Y-75883799D01*
X185051305Y-75907609D01*
X185027495Y-75955228D01*
X185003686Y-76050466D01*
X184979876Y-76098085D01*
X184956067Y-76121894D01*
X184908448Y-76145704D01*
X184860829Y-76145704D01*
X184813210Y-76121894D01*
X184789400Y-76098085D01*
X184765590Y-76050466D01*
X184765590Y-75931418D01*
X184789400Y-75859990D01*
X184765590Y-75717133D02*
X184765590Y-75431419D01*
X185265590Y-75574276D02*
X184765590Y-75574276D01*
X184765590Y-75169514D02*
X184765590Y-75074276D01*
X184789400Y-75026657D01*
X184837019Y-74979038D01*
X184932257Y-74955229D01*
X185098924Y-74955229D01*
X185194162Y-74979038D01*
X185241781Y-75026657D01*
X185265590Y-75074276D01*
X185265590Y-75169514D01*
X185241781Y-75217133D01*
X185194162Y-75264752D01*
X185098924Y-75288562D01*
X184932257Y-75288562D01*
X184837019Y-75264752D01*
X184789400Y-75217133D01*
X184765590Y-75169514D01*
X185265590Y-74455228D02*
X185027495Y-74621895D01*
X185265590Y-74740942D02*
X184765590Y-74740942D01*
X184765590Y-74550466D01*
X184789400Y-74502847D01*
X184813210Y-74479038D01*
X184860829Y-74455228D01*
X184932257Y-74455228D01*
X184979876Y-74479038D01*
X185003686Y-74502847D01*
X185027495Y-74550466D01*
X185027495Y-74740942D01*
X120244921Y-87269581D02*
X120316350Y-87293390D01*
X120435397Y-87293390D01*
X120483016Y-87269581D01*
X120506826Y-87245771D01*
X120530635Y-87198152D01*
X120530635Y-87150533D01*
X120506826Y-87102914D01*
X120483016Y-87079105D01*
X120435397Y-87055295D01*
X120340159Y-87031486D01*
X120292540Y-87007676D01*
X120268731Y-86983867D01*
X120244921Y-86936248D01*
X120244921Y-86888629D01*
X120268731Y-86841010D01*
X120292540Y-86817200D01*
X120340159Y-86793390D01*
X120459207Y-86793390D01*
X120530635Y-86817200D01*
X120697302Y-86793390D02*
X120816349Y-87293390D01*
X120911587Y-86936248D01*
X121006825Y-87293390D01*
X121125873Y-86793390D01*
X121197302Y-87341010D02*
X121578254Y-87341010D01*
X121697302Y-87293390D02*
X121697302Y-86793390D01*
X121887778Y-86793390D01*
X121935397Y-86817200D01*
X121959206Y-86841010D01*
X121983016Y-86888629D01*
X121983016Y-86960057D01*
X121959206Y-87007676D01*
X121935397Y-87031486D01*
X121887778Y-87055295D01*
X121697302Y-87055295D01*
X122197302Y-86793390D02*
X122197302Y-87198152D01*
X122221111Y-87245771D01*
X122244921Y-87269581D01*
X122292540Y-87293390D01*
X122387778Y-87293390D01*
X122435397Y-87269581D01*
X122459206Y-87245771D01*
X122483016Y-87198152D01*
X122483016Y-86793390D01*
X122697302Y-87269581D02*
X122768731Y-87293390D01*
X122887778Y-87293390D01*
X122935397Y-87269581D01*
X122959207Y-87245771D01*
X122983016Y-87198152D01*
X122983016Y-87150533D01*
X122959207Y-87102914D01*
X122935397Y-87079105D01*
X122887778Y-87055295D01*
X122792540Y-87031486D01*
X122744921Y-87007676D01*
X122721112Y-86983867D01*
X122697302Y-86936248D01*
X122697302Y-86888629D01*
X122721112Y-86841010D01*
X122744921Y-86817200D01*
X122792540Y-86793390D01*
X122911588Y-86793390D01*
X122983016Y-86817200D01*
X123197302Y-87293390D02*
X123197302Y-86793390D01*
X123197302Y-87031486D02*
X123483016Y-87031486D01*
X123483016Y-87293390D02*
X123483016Y-86793390D01*
D13*
X120218826Y-108749048D02*
X120291397Y-108773239D01*
X120412350Y-108773239D01*
X120460731Y-108749048D01*
X120484921Y-108724858D01*
X120509112Y-108676477D01*
X120509112Y-108628096D01*
X120484921Y-108579715D01*
X120460731Y-108555524D01*
X120412350Y-108531334D01*
X120315588Y-108507143D01*
X120267207Y-108482953D01*
X120243016Y-108458762D01*
X120218826Y-108410381D01*
X120218826Y-108362000D01*
X120243016Y-108313619D01*
X120267207Y-108289429D01*
X120315588Y-108265239D01*
X120436540Y-108265239D01*
X120509112Y-108289429D01*
X120678445Y-108265239D02*
X120799398Y-108773239D01*
X120896160Y-108410381D01*
X120992922Y-108773239D01*
X121113874Y-108265239D01*
X121186445Y-108821619D02*
X121573493Y-108821619D01*
X121694445Y-108773239D02*
X121694445Y-108265239D01*
X121887969Y-108265239D01*
X121936350Y-108289429D01*
X121960541Y-108313619D01*
X121984731Y-108362000D01*
X121984731Y-108434572D01*
X121960541Y-108482953D01*
X121936350Y-108507143D01*
X121887969Y-108531334D01*
X121694445Y-108531334D01*
X122202445Y-108265239D02*
X122202445Y-108676477D01*
X122226636Y-108724858D01*
X122250826Y-108749048D01*
X122299207Y-108773239D01*
X122395969Y-108773239D01*
X122444350Y-108749048D01*
X122468541Y-108724858D01*
X122492731Y-108676477D01*
X122492731Y-108265239D01*
X122710445Y-108749048D02*
X122783016Y-108773239D01*
X122903969Y-108773239D01*
X122952350Y-108749048D01*
X122976540Y-108724858D01*
X123000731Y-108676477D01*
X123000731Y-108628096D01*
X122976540Y-108579715D01*
X122952350Y-108555524D01*
X122903969Y-108531334D01*
X122807207Y-108507143D01*
X122758826Y-108482953D01*
X122734635Y-108458762D01*
X122710445Y-108410381D01*
X122710445Y-108362000D01*
X122734635Y-108313619D01*
X122758826Y-108289429D01*
X122807207Y-108265239D01*
X122928159Y-108265239D01*
X123000731Y-108289429D01*
X123218445Y-108773239D02*
X123218445Y-108265239D01*
X123218445Y-108507143D02*
X123508731Y-108507143D01*
X123508731Y-108773239D02*
X123508731Y-108265239D01*
D12*
X137992790Y-78059114D02*
X137992790Y-78344828D01*
X137992790Y-78201971D02*
X137492790Y-78201971D01*
X137564219Y-78249590D01*
X137611838Y-78297209D01*
X137635648Y-78344828D01*
X137492790Y-77749590D02*
X137492790Y-77701971D01*
X137516600Y-77654352D01*
X137540410Y-77630543D01*
X137588029Y-77606733D01*
X137683267Y-77582924D01*
X137802314Y-77582924D01*
X137897552Y-77606733D01*
X137945171Y-77630543D01*
X137968981Y-77654352D01*
X137992790Y-77701971D01*
X137992790Y-77749590D01*
X137968981Y-77797209D01*
X137945171Y-77821019D01*
X137897552Y-77844828D01*
X137802314Y-77868638D01*
X137683267Y-77868638D01*
X137588029Y-77844828D01*
X137540410Y-77821019D01*
X137516600Y-77797209D01*
X137492790Y-77749590D01*
X137492790Y-77273400D02*
X137492790Y-77225781D01*
X137516600Y-77178162D01*
X137540410Y-77154353D01*
X137588029Y-77130543D01*
X137683267Y-77106734D01*
X137802314Y-77106734D01*
X137897552Y-77130543D01*
X137945171Y-77154353D01*
X137968981Y-77178162D01*
X137992790Y-77225781D01*
X137992790Y-77273400D01*
X137968981Y-77321019D01*
X137945171Y-77344829D01*
X137897552Y-77368638D01*
X137802314Y-77392448D01*
X137683267Y-77392448D01*
X137588029Y-77368638D01*
X137540410Y-77344829D01*
X137516600Y-77321019D01*
X137492790Y-77273400D01*
X137992790Y-76892448D02*
X137492790Y-76892448D01*
X137802314Y-76844829D02*
X137992790Y-76701972D01*
X137659457Y-76701972D02*
X137849933Y-76892448D01*
X155628439Y-74853990D02*
X155342725Y-74853990D01*
X155485582Y-74853990D02*
X155485582Y-74353990D01*
X155437963Y-74425419D01*
X155390344Y-74473038D01*
X155342725Y-74496848D01*
X155937963Y-74353990D02*
X155985582Y-74353990D01*
X156033201Y-74377800D01*
X156057010Y-74401610D01*
X156080820Y-74449229D01*
X156104629Y-74544467D01*
X156104629Y-74663514D01*
X156080820Y-74758752D01*
X156057010Y-74806371D01*
X156033201Y-74830181D01*
X155985582Y-74853990D01*
X155937963Y-74853990D01*
X155890344Y-74830181D01*
X155866534Y-74806371D01*
X155842725Y-74758752D01*
X155818915Y-74663514D01*
X155818915Y-74544467D01*
X155842725Y-74449229D01*
X155866534Y-74401610D01*
X155890344Y-74377800D01*
X155937963Y-74353990D01*
X156318915Y-74806371D02*
X156342724Y-74830181D01*
X156318915Y-74853990D01*
X156295105Y-74830181D01*
X156318915Y-74806371D01*
X156318915Y-74853990D01*
X156533200Y-74401610D02*
X156557010Y-74377800D01*
X156604629Y-74353990D01*
X156723676Y-74353990D01*
X156771295Y-74377800D01*
X156795105Y-74401610D01*
X156818914Y-74449229D01*
X156818914Y-74496848D01*
X156795105Y-74568276D01*
X156509391Y-74853990D01*
X156818914Y-74853990D01*
X157033200Y-74853990D02*
X157033200Y-74353990D01*
X157080819Y-74663514D02*
X157223676Y-74853990D01*
X157223676Y-74520657D02*
X157033200Y-74711133D01*
X146434362Y-71272590D02*
X146148648Y-71272590D01*
X146291505Y-71272590D02*
X146291505Y-70772590D01*
X146243886Y-70844019D01*
X146196267Y-70891638D01*
X146148648Y-70915448D01*
X146743886Y-70772590D02*
X146791505Y-70772590D01*
X146839124Y-70796400D01*
X146862933Y-70820210D01*
X146886743Y-70867829D01*
X146910552Y-70963067D01*
X146910552Y-71082114D01*
X146886743Y-71177352D01*
X146862933Y-71224971D01*
X146839124Y-71248781D01*
X146791505Y-71272590D01*
X146743886Y-71272590D01*
X146696267Y-71248781D01*
X146672457Y-71224971D01*
X146648648Y-71177352D01*
X146624838Y-71082114D01*
X146624838Y-70963067D01*
X146648648Y-70867829D01*
X146672457Y-70820210D01*
X146696267Y-70796400D01*
X146743886Y-70772590D01*
X145135010Y-82096075D02*
X145111200Y-82072265D01*
X145087390Y-82024646D01*
X145087390Y-81905599D01*
X145111200Y-81857980D01*
X145135010Y-81834170D01*
X145182629Y-81810361D01*
X145230248Y-81810361D01*
X145301676Y-81834170D01*
X145587390Y-82119884D01*
X145587390Y-81810361D01*
X145087390Y-81643694D02*
X145087390Y-81310361D01*
X145587390Y-81524647D01*
X145539771Y-81119885D02*
X145563581Y-81096076D01*
X145587390Y-81119885D01*
X145563581Y-81143695D01*
X145539771Y-81119885D01*
X145587390Y-81119885D01*
X145254057Y-80667505D02*
X145587390Y-80667505D01*
X145063581Y-80786552D02*
X145420724Y-80905600D01*
X145420724Y-80596076D01*
X145587390Y-80405600D02*
X145087390Y-80405600D01*
X145396914Y-80357981D02*
X145587390Y-80215124D01*
X145254057Y-80215124D02*
X145444533Y-80405600D01*
X153952762Y-74853990D02*
X153667048Y-74853990D01*
X153809905Y-74853990D02*
X153809905Y-74353990D01*
X153762286Y-74425419D01*
X153714667Y-74473038D01*
X153667048Y-74496848D01*
X154262286Y-74353990D02*
X154309905Y-74353990D01*
X154357524Y-74377800D01*
X154381333Y-74401610D01*
X154405143Y-74449229D01*
X154428952Y-74544467D01*
X154428952Y-74663514D01*
X154405143Y-74758752D01*
X154381333Y-74806371D01*
X154357524Y-74830181D01*
X154309905Y-74853990D01*
X154262286Y-74853990D01*
X154214667Y-74830181D01*
X154190857Y-74806371D01*
X154167048Y-74758752D01*
X154143238Y-74663514D01*
X154143238Y-74544467D01*
X154167048Y-74449229D01*
X154190857Y-74401610D01*
X154214667Y-74377800D01*
X154262286Y-74353990D01*
X166445136Y-64352356D02*
X166207041Y-64352356D01*
X166183231Y-64590452D01*
X166207041Y-64566642D01*
X166254660Y-64542833D01*
X166373707Y-64542833D01*
X166421326Y-64566642D01*
X166445136Y-64590452D01*
X166468945Y-64638071D01*
X166468945Y-64757118D01*
X166445136Y-64804737D01*
X166421326Y-64828547D01*
X166373707Y-64852356D01*
X166254660Y-64852356D01*
X166207041Y-64828547D01*
X166183231Y-64804737D01*
X166897516Y-64352356D02*
X166802278Y-64352356D01*
X166754659Y-64376166D01*
X166730850Y-64399976D01*
X166683231Y-64471404D01*
X166659421Y-64566642D01*
X166659421Y-64757118D01*
X166683231Y-64804737D01*
X166707040Y-64828547D01*
X166754659Y-64852356D01*
X166849897Y-64852356D01*
X166897516Y-64828547D01*
X166921326Y-64804737D01*
X166945135Y-64757118D01*
X166945135Y-64638071D01*
X166921326Y-64590452D01*
X166897516Y-64566642D01*
X166849897Y-64542833D01*
X166754659Y-64542833D01*
X166707040Y-64566642D01*
X166683231Y-64590452D01*
X166659421Y-64638071D01*
X167159421Y-64804737D02*
X167183230Y-64828547D01*
X167159421Y-64852356D01*
X167135611Y-64828547D01*
X167159421Y-64804737D01*
X167159421Y-64852356D01*
X167373706Y-64399976D02*
X167397516Y-64376166D01*
X167445135Y-64352356D01*
X167564182Y-64352356D01*
X167611801Y-64376166D01*
X167635611Y-64399976D01*
X167659420Y-64447595D01*
X167659420Y-64495214D01*
X167635611Y-64566642D01*
X167349897Y-64852356D01*
X167659420Y-64852356D01*
X167873706Y-64852356D02*
X167873706Y-64352356D01*
X167921325Y-64661880D02*
X168064182Y-64852356D01*
X168064182Y-64519023D02*
X167873706Y-64709499D01*
X150294390Y-68454684D02*
X150294390Y-68145161D01*
X150484867Y-68311827D01*
X150484867Y-68240399D01*
X150508676Y-68192780D01*
X150532486Y-68168970D01*
X150580105Y-68145161D01*
X150699152Y-68145161D01*
X150746771Y-68168970D01*
X150770581Y-68192780D01*
X150794390Y-68240399D01*
X150794390Y-68383256D01*
X150770581Y-68430875D01*
X150746771Y-68454684D01*
X150294390Y-67978494D02*
X150294390Y-67668971D01*
X150484867Y-67835637D01*
X150484867Y-67764209D01*
X150508676Y-67716590D01*
X150532486Y-67692780D01*
X150580105Y-67668971D01*
X150699152Y-67668971D01*
X150746771Y-67692780D01*
X150770581Y-67716590D01*
X150794390Y-67764209D01*
X150794390Y-67907066D01*
X150770581Y-67954685D01*
X150746771Y-67978494D01*
X150746771Y-67454685D02*
X150770581Y-67430876D01*
X150794390Y-67454685D01*
X150770581Y-67478495D01*
X150746771Y-67454685D01*
X150794390Y-67454685D01*
X150342010Y-67240400D02*
X150318200Y-67216590D01*
X150294390Y-67168971D01*
X150294390Y-67049924D01*
X150318200Y-67002305D01*
X150342010Y-66978495D01*
X150389629Y-66954686D01*
X150437248Y-66954686D01*
X150508676Y-66978495D01*
X150794390Y-67264209D01*
X150794390Y-66954686D01*
X150794390Y-66740400D02*
X150294390Y-66740400D01*
X150603914Y-66692781D02*
X150794390Y-66549924D01*
X150461057Y-66549924D02*
X150651533Y-66740400D01*
X167876087Y-64352356D02*
X167590373Y-64352356D01*
X167733230Y-64352356D02*
X167733230Y-63852356D01*
X167685611Y-63923785D01*
X167637992Y-63971404D01*
X167590373Y-63995214D01*
X168185611Y-63852356D02*
X168233230Y-63852356D01*
X168280849Y-63876166D01*
X168304658Y-63899976D01*
X168328468Y-63947595D01*
X168352277Y-64042833D01*
X168352277Y-64161880D01*
X168328468Y-64257118D01*
X168304658Y-64304737D01*
X168280849Y-64328547D01*
X168233230Y-64352356D01*
X168185611Y-64352356D01*
X168137992Y-64328547D01*
X168114182Y-64304737D01*
X168090373Y-64257118D01*
X168066563Y-64161880D01*
X168066563Y-64042833D01*
X168090373Y-63947595D01*
X168114182Y-63899976D01*
X168137992Y-63876166D01*
X168185611Y-63852356D01*
X168566563Y-64352356D02*
X168566563Y-63852356D01*
X168614182Y-64161880D02*
X168757039Y-64352356D01*
X168757039Y-64019023D02*
X168566563Y-64209499D01*
X166478468Y-70052356D02*
X166192754Y-70052356D01*
X166335611Y-70052356D02*
X166335611Y-69552356D01*
X166287992Y-69623785D01*
X166240373Y-69671404D01*
X166192754Y-69695214D01*
X166787992Y-69552356D02*
X166835611Y-69552356D01*
X166883230Y-69576166D01*
X166907039Y-69599976D01*
X166930849Y-69647595D01*
X166954658Y-69742833D01*
X166954658Y-69861880D01*
X166930849Y-69957118D01*
X166907039Y-70004737D01*
X166883230Y-70028547D01*
X166835611Y-70052356D01*
X166787992Y-70052356D01*
X166740373Y-70028547D01*
X166716563Y-70004737D01*
X166692754Y-69957118D01*
X166668944Y-69861880D01*
X166668944Y-69742833D01*
X166692754Y-69647595D01*
X166716563Y-69599976D01*
X166740373Y-69576166D01*
X166787992Y-69552356D01*
X167168944Y-70052356D02*
X167168944Y-69552356D01*
X167454658Y-70052356D02*
X167240372Y-69766642D01*
X167454658Y-69552356D02*
X167168944Y-69838071D01*
X167602544Y-78803488D02*
X167602544Y-79089202D01*
X167602544Y-78946345D02*
X167102544Y-78946345D01*
X167173973Y-78993964D01*
X167221592Y-79041583D01*
X167245402Y-79089202D01*
X167102544Y-78493964D02*
X167102544Y-78446345D01*
X167126354Y-78398726D01*
X167150164Y-78374917D01*
X167197783Y-78351107D01*
X167293021Y-78327298D01*
X167412068Y-78327298D01*
X167507306Y-78351107D01*
X167554925Y-78374917D01*
X167578735Y-78398726D01*
X167602544Y-78446345D01*
X167602544Y-78493964D01*
X167578735Y-78541583D01*
X167554925Y-78565393D01*
X167507306Y-78589202D01*
X167412068Y-78613012D01*
X167293021Y-78613012D01*
X167197783Y-78589202D01*
X167150164Y-78565393D01*
X167126354Y-78541583D01*
X167102544Y-78493964D01*
X167602544Y-78113012D02*
X167102544Y-78113012D01*
X167602544Y-77827298D02*
X167316830Y-78041584D01*
X167102544Y-77827298D02*
X167388259Y-78113012D01*
X170302544Y-80755869D02*
X170302544Y-81041583D01*
X170302544Y-80898726D02*
X169802544Y-80898726D01*
X169873973Y-80946345D01*
X169921592Y-80993964D01*
X169945402Y-81041583D01*
X169802544Y-80446345D02*
X169802544Y-80398726D01*
X169826354Y-80351107D01*
X169850164Y-80327298D01*
X169897783Y-80303488D01*
X169993021Y-80279679D01*
X170112068Y-80279679D01*
X170207306Y-80303488D01*
X170254925Y-80327298D01*
X170278735Y-80351107D01*
X170302544Y-80398726D01*
X170302544Y-80446345D01*
X170278735Y-80493964D01*
X170254925Y-80517774D01*
X170207306Y-80541583D01*
X170112068Y-80565393D01*
X169993021Y-80565393D01*
X169897783Y-80541583D01*
X169850164Y-80517774D01*
X169826354Y-80493964D01*
X169802544Y-80446345D01*
X170302544Y-80065393D02*
X169802544Y-80065393D01*
X170112068Y-80017774D02*
X170302544Y-79874917D01*
X169969211Y-79874917D02*
X170159687Y-80065393D01*
X174002544Y-81022534D02*
X174002544Y-80713011D01*
X174193021Y-80879677D01*
X174193021Y-80808249D01*
X174216830Y-80760630D01*
X174240640Y-80736820D01*
X174288259Y-80713011D01*
X174407306Y-80713011D01*
X174454925Y-80736820D01*
X174478735Y-80760630D01*
X174502544Y-80808249D01*
X174502544Y-80951106D01*
X174478735Y-80998725D01*
X174454925Y-81022534D01*
X174002544Y-80546344D02*
X174002544Y-80236821D01*
X174193021Y-80403487D01*
X174193021Y-80332059D01*
X174216830Y-80284440D01*
X174240640Y-80260630D01*
X174288259Y-80236821D01*
X174407306Y-80236821D01*
X174454925Y-80260630D01*
X174478735Y-80284440D01*
X174502544Y-80332059D01*
X174502544Y-80474916D01*
X174478735Y-80522535D01*
X174454925Y-80546344D01*
X174454925Y-80022535D02*
X174478735Y-79998726D01*
X174502544Y-80022535D01*
X174478735Y-80046345D01*
X174454925Y-80022535D01*
X174502544Y-80022535D01*
X174050164Y-79808250D02*
X174026354Y-79784440D01*
X174002544Y-79736821D01*
X174002544Y-79617774D01*
X174026354Y-79570155D01*
X174050164Y-79546345D01*
X174097783Y-79522536D01*
X174145402Y-79522536D01*
X174216830Y-79546345D01*
X174502544Y-79832059D01*
X174502544Y-79522536D01*
X174502544Y-79308250D02*
X174002544Y-79308250D01*
X174312068Y-79260631D02*
X174502544Y-79117774D01*
X174169211Y-79117774D02*
X174359687Y-79308250D01*
D13*
X138201810Y-133100762D02*
X138201810Y-133391048D01*
X138201810Y-133245905D02*
X137693810Y-133245905D01*
X137766381Y-133294286D01*
X137814762Y-133342667D01*
X137838952Y-133391048D01*
X137693810Y-132786286D02*
X137693810Y-132737905D01*
X137718000Y-132689524D01*
X137742190Y-132665333D01*
X137790571Y-132641143D01*
X137887333Y-132616952D01*
X138008286Y-132616952D01*
X138105048Y-132641143D01*
X138153429Y-132665333D01*
X138177619Y-132689524D01*
X138201810Y-132737905D01*
X138201810Y-132786286D01*
X138177619Y-132834667D01*
X138153429Y-132858857D01*
X138105048Y-132883048D01*
X138008286Y-132907238D01*
X137887333Y-132907238D01*
X137790571Y-132883048D01*
X137742190Y-132858857D01*
X137718000Y-132834667D01*
X137693810Y-132786286D01*
X138201810Y-132399238D02*
X137693810Y-132399238D01*
X138201810Y-132108952D02*
X137911524Y-132326666D01*
X137693810Y-132108952D02*
X137984095Y-132399238D01*
X175370619Y-107142610D02*
X175080333Y-107142610D01*
X175225476Y-107142610D02*
X175225476Y-106634610D01*
X175177095Y-106707181D01*
X175128714Y-106755562D01*
X175080333Y-106779752D01*
X175685095Y-106634610D02*
X175733476Y-106634610D01*
X175781857Y-106658800D01*
X175806048Y-106682990D01*
X175830238Y-106731371D01*
X175854429Y-106828133D01*
X175854429Y-106949086D01*
X175830238Y-107045848D01*
X175806048Y-107094229D01*
X175781857Y-107118419D01*
X175733476Y-107142610D01*
X175685095Y-107142610D01*
X175636714Y-107118419D01*
X175612524Y-107094229D01*
X175588333Y-107045848D01*
X175564143Y-106949086D01*
X175564143Y-106828133D01*
X175588333Y-106731371D01*
X175612524Y-106682990D01*
X175636714Y-106658800D01*
X175685095Y-106634610D01*
X176072143Y-107142610D02*
X176072143Y-106634610D01*
X176120524Y-106949086D02*
X176265667Y-107142610D01*
X176265667Y-106803943D02*
X176072143Y-106997467D01*
X175370219Y-97951210D02*
X175079933Y-97951210D01*
X175225076Y-97951210D02*
X175225076Y-97443210D01*
X175176695Y-97515781D01*
X175128314Y-97564162D01*
X175079933Y-97588352D01*
X175684695Y-97443210D02*
X175733076Y-97443210D01*
X175781457Y-97467400D01*
X175805648Y-97491590D01*
X175829838Y-97539971D01*
X175854029Y-97636733D01*
X175854029Y-97757686D01*
X175829838Y-97854448D01*
X175805648Y-97902829D01*
X175781457Y-97927019D01*
X175733076Y-97951210D01*
X175684695Y-97951210D01*
X175636314Y-97927019D01*
X175612124Y-97902829D01*
X175587933Y-97854448D01*
X175563743Y-97757686D01*
X175563743Y-97636733D01*
X175587933Y-97539971D01*
X175612124Y-97491590D01*
X175636314Y-97467400D01*
X175684695Y-97443210D01*
X176071743Y-97951210D02*
X176071743Y-97443210D01*
X176120124Y-97757686D02*
X176265267Y-97951210D01*
X176265267Y-97612543D02*
X176071743Y-97806067D01*
X175345219Y-88958410D02*
X175054933Y-88958410D01*
X175200076Y-88958410D02*
X175200076Y-88450410D01*
X175151695Y-88522981D01*
X175103314Y-88571362D01*
X175054933Y-88595552D01*
X175659695Y-88450410D02*
X175708076Y-88450410D01*
X175756457Y-88474600D01*
X175780648Y-88498790D01*
X175804838Y-88547171D01*
X175829029Y-88643933D01*
X175829029Y-88764886D01*
X175804838Y-88861648D01*
X175780648Y-88910029D01*
X175756457Y-88934219D01*
X175708076Y-88958410D01*
X175659695Y-88958410D01*
X175611314Y-88934219D01*
X175587124Y-88910029D01*
X175562933Y-88861648D01*
X175538743Y-88764886D01*
X175538743Y-88643933D01*
X175562933Y-88547171D01*
X175587124Y-88498790D01*
X175611314Y-88474600D01*
X175659695Y-88450410D01*
X176046743Y-88958410D02*
X176046743Y-88450410D01*
X176095124Y-88764886D02*
X176240267Y-88958410D01*
X176240267Y-88619743D02*
X176046743Y-88813267D01*
X168706910Y-129714667D02*
X168706910Y-130004953D01*
X168706910Y-129859810D02*
X168198910Y-129859810D01*
X168271481Y-129908191D01*
X168319862Y-129956572D01*
X168344052Y-130004953D01*
X168247290Y-129521143D02*
X168223100Y-129496953D01*
X168198910Y-129448572D01*
X168198910Y-129327619D01*
X168223100Y-129279238D01*
X168247290Y-129255048D01*
X168295671Y-129230857D01*
X168344052Y-129230857D01*
X168416624Y-129255048D01*
X168706910Y-129545334D01*
X168706910Y-129230857D01*
X168198910Y-128916381D02*
X168198910Y-128868000D01*
X168223100Y-128819619D01*
X168247290Y-128795428D01*
X168295671Y-128771238D01*
X168392433Y-128747047D01*
X168513386Y-128747047D01*
X168610148Y-128771238D01*
X168658529Y-128795428D01*
X168682719Y-128819619D01*
X168706910Y-128868000D01*
X168706910Y-128916381D01*
X168682719Y-128964762D01*
X168658529Y-128988952D01*
X168610148Y-129013143D01*
X168513386Y-129037333D01*
X168392433Y-129037333D01*
X168295671Y-129013143D01*
X168247290Y-128988952D01*
X168223100Y-128964762D01*
X168198910Y-128916381D01*
X163499910Y-127201881D02*
X163499910Y-127492167D01*
X163499910Y-127347024D02*
X162991910Y-127347024D01*
X163064481Y-127395405D01*
X163112862Y-127443786D01*
X163137052Y-127492167D01*
X162991910Y-126887405D02*
X162991910Y-126839024D01*
X163016100Y-126790643D01*
X163040290Y-126766452D01*
X163088671Y-126742262D01*
X163185433Y-126718071D01*
X163306386Y-126718071D01*
X163403148Y-126742262D01*
X163451529Y-126766452D01*
X163475719Y-126790643D01*
X163499910Y-126839024D01*
X163499910Y-126887405D01*
X163475719Y-126935786D01*
X163451529Y-126959976D01*
X163403148Y-126984167D01*
X163306386Y-127008357D01*
X163185433Y-127008357D01*
X163088671Y-126984167D01*
X163040290Y-126959976D01*
X163016100Y-126935786D01*
X162991910Y-126887405D01*
X163499910Y-126500357D02*
X162991910Y-126500357D01*
X163306386Y-126451976D02*
X163499910Y-126306833D01*
X163161243Y-126306833D02*
X163354767Y-126500357D01*
X170345210Y-127252681D02*
X170345210Y-127542967D01*
X170345210Y-127397824D02*
X169837210Y-127397824D01*
X169909781Y-127446205D01*
X169958162Y-127494586D01*
X169982352Y-127542967D01*
X169837210Y-126938205D02*
X169837210Y-126889824D01*
X169861400Y-126841443D01*
X169885590Y-126817252D01*
X169933971Y-126793062D01*
X170030733Y-126768871D01*
X170151686Y-126768871D01*
X170248448Y-126793062D01*
X170296829Y-126817252D01*
X170321019Y-126841443D01*
X170345210Y-126889824D01*
X170345210Y-126938205D01*
X170321019Y-126986586D01*
X170296829Y-127010776D01*
X170248448Y-127034967D01*
X170151686Y-127059157D01*
X170030733Y-127059157D01*
X169933971Y-127034967D01*
X169885590Y-127010776D01*
X169861400Y-126986586D01*
X169837210Y-126938205D01*
X170345210Y-126551157D02*
X169837210Y-126551157D01*
X170151686Y-126502776D02*
X170345210Y-126357633D01*
X170006543Y-126357633D02*
X170200067Y-126551157D01*
D12*
X180205876Y-65307829D02*
X180229686Y-65284019D01*
X180277305Y-65260209D01*
X180396352Y-65260209D01*
X180443971Y-65284019D01*
X180467781Y-65307829D01*
X180491590Y-65355448D01*
X180491590Y-65403067D01*
X180467781Y-65474495D01*
X180182067Y-65760209D01*
X180491590Y-65760209D01*
X180920161Y-65426876D02*
X180920161Y-65760209D01*
X180801114Y-65236400D02*
X180682066Y-65593543D01*
X180991590Y-65593543D01*
X181277304Y-65260209D02*
X181324923Y-65260209D01*
X181372542Y-65284019D01*
X181396351Y-65307829D01*
X181420161Y-65355448D01*
X181443970Y-65450686D01*
X181443970Y-65569733D01*
X181420161Y-65664971D01*
X181396351Y-65712590D01*
X181372542Y-65736400D01*
X181324923Y-65760209D01*
X181277304Y-65760209D01*
X181229685Y-65736400D01*
X181205875Y-65712590D01*
X181182066Y-65664971D01*
X181158256Y-65569733D01*
X181158256Y-65450686D01*
X181182066Y-65355448D01*
X181205875Y-65307829D01*
X181229685Y-65284019D01*
X181277304Y-65260209D01*
X183232381Y-68772190D02*
X182946667Y-68772190D01*
X183089524Y-68772190D02*
X183089524Y-68272190D01*
X183041905Y-68343619D01*
X182994286Y-68391238D01*
X182946667Y-68415048D01*
X183422857Y-68319810D02*
X183446667Y-68296000D01*
X183494286Y-68272190D01*
X183613333Y-68272190D01*
X183660952Y-68296000D01*
X183684762Y-68319810D01*
X183708571Y-68367429D01*
X183708571Y-68415048D01*
X183684762Y-68486476D01*
X183399048Y-68772190D01*
X183708571Y-68772190D01*
X183922857Y-68772190D02*
X183922857Y-68272190D01*
X183970476Y-68581714D02*
X184113333Y-68772190D01*
X184113333Y-68438857D02*
X183922857Y-68629333D01*
X183132381Y-73936190D02*
X182846667Y-73936190D01*
X182989524Y-73936190D02*
X182989524Y-73436190D01*
X182941905Y-73507619D01*
X182894286Y-73555238D01*
X182846667Y-73579048D01*
X183322857Y-73483810D02*
X183346667Y-73460000D01*
X183394286Y-73436190D01*
X183513333Y-73436190D01*
X183560952Y-73460000D01*
X183584762Y-73483810D01*
X183608571Y-73531429D01*
X183608571Y-73579048D01*
X183584762Y-73650476D01*
X183299048Y-73936190D01*
X183608571Y-73936190D01*
X183822857Y-73936190D02*
X183822857Y-73436190D01*
X183870476Y-73745714D02*
X184013333Y-73936190D01*
X184013333Y-73602857D02*
X183822857Y-73793333D01*
X183207381Y-79150190D02*
X182921667Y-79150190D01*
X183064524Y-79150190D02*
X183064524Y-78650190D01*
X183016905Y-78721619D01*
X182969286Y-78769238D01*
X182921667Y-78793048D01*
X183397857Y-78697810D02*
X183421667Y-78674000D01*
X183469286Y-78650190D01*
X183588333Y-78650190D01*
X183635952Y-78674000D01*
X183659762Y-78697810D01*
X183683571Y-78745429D01*
X183683571Y-78793048D01*
X183659762Y-78864476D01*
X183374048Y-79150190D01*
X183683571Y-79150190D01*
X183897857Y-79150190D02*
X183897857Y-78650190D01*
X183945476Y-78959714D02*
X184088333Y-79150190D01*
X184088333Y-78816857D02*
X183897857Y-79007333D01*
D13*
X140184010Y-109596981D02*
X140184010Y-109887267D01*
X140184010Y-109742124D02*
X139676010Y-109742124D01*
X139748581Y-109790505D01*
X139796962Y-109838886D01*
X139821152Y-109887267D01*
X139676010Y-109282505D02*
X139676010Y-109234124D01*
X139700200Y-109185743D01*
X139724390Y-109161552D01*
X139772771Y-109137362D01*
X139869533Y-109113171D01*
X139990486Y-109113171D01*
X140087248Y-109137362D01*
X140135629Y-109161552D01*
X140159819Y-109185743D01*
X140184010Y-109234124D01*
X140184010Y-109282505D01*
X140159819Y-109330886D01*
X140135629Y-109355076D01*
X140087248Y-109379267D01*
X139990486Y-109403457D01*
X139869533Y-109403457D01*
X139772771Y-109379267D01*
X139724390Y-109355076D01*
X139700200Y-109330886D01*
X139676010Y-109282505D01*
X140184010Y-108895457D02*
X139676010Y-108895457D01*
X139990486Y-108847076D02*
X140184010Y-108701933D01*
X139845343Y-108701933D02*
X140038867Y-108895457D01*
D12*
X153733821Y-93811021D02*
X153448107Y-93811021D01*
X153590964Y-93811021D02*
X153590964Y-93311021D01*
X153543345Y-93382450D01*
X153495726Y-93430069D01*
X153448107Y-93453879D01*
X154043345Y-93311021D02*
X154090964Y-93311021D01*
X154138583Y-93334831D01*
X154162392Y-93358641D01*
X154186202Y-93406260D01*
X154210011Y-93501498D01*
X154210011Y-93620545D01*
X154186202Y-93715783D01*
X154162392Y-93763402D01*
X154138583Y-93787212D01*
X154090964Y-93811021D01*
X154043345Y-93811021D01*
X153995726Y-93787212D01*
X153971916Y-93763402D01*
X153948107Y-93715783D01*
X153924297Y-93620545D01*
X153924297Y-93501498D01*
X153948107Y-93406260D01*
X153971916Y-93358641D01*
X153995726Y-93334831D01*
X154043345Y-93311021D01*
X154424297Y-93811021D02*
X154424297Y-93311021D01*
X154710011Y-93811021D02*
X154495725Y-93525307D01*
X154710011Y-93311021D02*
X154424297Y-93596736D01*
X159156190Y-97617143D02*
X159156190Y-97902857D01*
X159156190Y-97760000D02*
X158656190Y-97760000D01*
X158727619Y-97807619D01*
X158775238Y-97855238D01*
X158799048Y-97902857D01*
X159156190Y-97402857D02*
X158656190Y-97402857D01*
X159156190Y-97117143D02*
X158870476Y-97331429D01*
X158656190Y-97117143D02*
X158941905Y-97402857D01*
X159156190Y-95767143D02*
X159156190Y-96052857D01*
X159156190Y-95910000D02*
X158656190Y-95910000D01*
X158727619Y-95957619D01*
X158775238Y-96005238D01*
X158799048Y-96052857D01*
X159156190Y-95552857D02*
X158656190Y-95552857D01*
X159156190Y-95267143D02*
X158870476Y-95481429D01*
X158656190Y-95267143D02*
X158941905Y-95552857D01*
X159156190Y-93817143D02*
X159156190Y-94102857D01*
X159156190Y-93960000D02*
X158656190Y-93960000D01*
X158727619Y-94007619D01*
X158775238Y-94055238D01*
X158799048Y-94102857D01*
X159156190Y-93602857D02*
X158656190Y-93602857D01*
X159156190Y-93317143D02*
X158870476Y-93531429D01*
X158656190Y-93317143D02*
X158941905Y-93602857D01*
D13*
X138549943Y-112405495D02*
X138888610Y-112405495D01*
X138356419Y-112526448D02*
X138719276Y-112647400D01*
X138719276Y-112332924D01*
X138840229Y-112139400D02*
X138864419Y-112115209D01*
X138888610Y-112139400D01*
X138864419Y-112163590D01*
X138840229Y-112139400D01*
X138888610Y-112139400D01*
X138380610Y-111945876D02*
X138380610Y-111607209D01*
X138888610Y-111824923D01*
X138888610Y-111413685D02*
X138380610Y-111413685D01*
X138888610Y-111123399D02*
X138598324Y-111341113D01*
X138380610Y-111123399D02*
X138670895Y-111413685D01*
X146005543Y-112456295D02*
X146344210Y-112456295D01*
X145812019Y-112577248D02*
X146174876Y-112698200D01*
X146174876Y-112383724D01*
X146295829Y-112190200D02*
X146320019Y-112166009D01*
X146344210Y-112190200D01*
X146320019Y-112214390D01*
X146295829Y-112190200D01*
X146344210Y-112190200D01*
X145836210Y-111996676D02*
X145836210Y-111658009D01*
X146344210Y-111875723D01*
X146344210Y-111464485D02*
X145836210Y-111464485D01*
X146344210Y-111174199D02*
X146053924Y-111391913D01*
X145836210Y-111174199D02*
X146126495Y-111464485D01*
D12*
X157072857Y-88171904D02*
X157406190Y-88171904D01*
X156882381Y-88290951D02*
X157239524Y-88409999D01*
X157239524Y-88100475D01*
X157358571Y-87909999D02*
X157382381Y-87886190D01*
X157406190Y-87909999D01*
X157382381Y-87933809D01*
X157358571Y-87909999D01*
X157406190Y-87909999D01*
X156906190Y-87719523D02*
X156906190Y-87386190D01*
X157406190Y-87600476D01*
X157406190Y-87195714D02*
X156906190Y-87195714D01*
X157406190Y-86910000D02*
X157120476Y-87124286D01*
X156906190Y-86910000D02*
X157191905Y-87195714D01*
X156994116Y-90906704D02*
X157327449Y-90906704D01*
X156803640Y-91025751D02*
X157160783Y-91144799D01*
X157160783Y-90835275D01*
X157279830Y-90644799D02*
X157303640Y-90620990D01*
X157327449Y-90644799D01*
X157303640Y-90668609D01*
X157279830Y-90644799D01*
X157327449Y-90644799D01*
X156827449Y-90454323D02*
X156827449Y-90120990D01*
X157327449Y-90335276D01*
X157327449Y-89930514D02*
X156827449Y-89930514D01*
X157327449Y-89644800D02*
X157041735Y-89859086D01*
X156827449Y-89644800D02*
X157113164Y-89930514D01*
X127191039Y-91335790D02*
X127500562Y-91335790D01*
X127333896Y-91526267D01*
X127405324Y-91526267D01*
X127452943Y-91550076D01*
X127476753Y-91573886D01*
X127500562Y-91621505D01*
X127500562Y-91740552D01*
X127476753Y-91788171D01*
X127452943Y-91811981D01*
X127405324Y-91835790D01*
X127262467Y-91835790D01*
X127214848Y-91811981D01*
X127191039Y-91788171D01*
X127667229Y-91335790D02*
X127976752Y-91335790D01*
X127810086Y-91526267D01*
X127881514Y-91526267D01*
X127929133Y-91550076D01*
X127952943Y-91573886D01*
X127976752Y-91621505D01*
X127976752Y-91740552D01*
X127952943Y-91788171D01*
X127929133Y-91811981D01*
X127881514Y-91835790D01*
X127738657Y-91835790D01*
X127691038Y-91811981D01*
X127667229Y-91788171D01*
X127279239Y-93850390D02*
X127588762Y-93850390D01*
X127422096Y-94040867D01*
X127493524Y-94040867D01*
X127541143Y-94064676D01*
X127564953Y-94088486D01*
X127588762Y-94136105D01*
X127588762Y-94255152D01*
X127564953Y-94302771D01*
X127541143Y-94326581D01*
X127493524Y-94350390D01*
X127350667Y-94350390D01*
X127303048Y-94326581D01*
X127279239Y-94302771D01*
X127755429Y-93850390D02*
X128064952Y-93850390D01*
X127898286Y-94040867D01*
X127969714Y-94040867D01*
X128017333Y-94064676D01*
X128041143Y-94088486D01*
X128064952Y-94136105D01*
X128064952Y-94255152D01*
X128041143Y-94302771D01*
X128017333Y-94326581D01*
X127969714Y-94350390D01*
X127826857Y-94350390D01*
X127779238Y-94326581D01*
X127755429Y-94302771D01*
X120862390Y-91091238D02*
X120862390Y-91376952D01*
X120862390Y-91234095D02*
X120362390Y-91234095D01*
X120433819Y-91281714D01*
X120481438Y-91329333D01*
X120505248Y-91376952D01*
X120362390Y-90781714D02*
X120362390Y-90734095D01*
X120386200Y-90686476D01*
X120410010Y-90662667D01*
X120457629Y-90638857D01*
X120552867Y-90615048D01*
X120671914Y-90615048D01*
X120767152Y-90638857D01*
X120814771Y-90662667D01*
X120838581Y-90686476D01*
X120862390Y-90734095D01*
X120862390Y-90781714D01*
X120838581Y-90829333D01*
X120814771Y-90853143D01*
X120767152Y-90876952D01*
X120671914Y-90900762D01*
X120552867Y-90900762D01*
X120457629Y-90876952D01*
X120410010Y-90853143D01*
X120386200Y-90829333D01*
X120362390Y-90781714D01*
X120862390Y-90400762D02*
X120362390Y-90400762D01*
X120862390Y-90115048D02*
X120576676Y-90329334D01*
X120362390Y-90115048D02*
X120648105Y-90400762D01*
X120799590Y-88973543D02*
X120799590Y-89259257D01*
X120799590Y-89116400D02*
X120299590Y-89116400D01*
X120371019Y-89164019D01*
X120418638Y-89211638D01*
X120442448Y-89259257D01*
X120799590Y-88759257D02*
X120299590Y-88759257D01*
X120799590Y-88473543D02*
X120513876Y-88687829D01*
X120299590Y-88473543D02*
X120585305Y-88759257D01*
X146625610Y-78998771D02*
X146601800Y-79046390D01*
X146554181Y-79094009D01*
X146482752Y-79165438D01*
X146458943Y-79213057D01*
X146458943Y-79260676D01*
X146577990Y-79236866D02*
X146554181Y-79284485D01*
X146506562Y-79332104D01*
X146411324Y-79355914D01*
X146244657Y-79355914D01*
X146149419Y-79332104D01*
X146101800Y-79284485D01*
X146077990Y-79236866D01*
X146077990Y-79141628D01*
X146101800Y-79094009D01*
X146149419Y-79046390D01*
X146244657Y-79022581D01*
X146411324Y-79022581D01*
X146506562Y-79046390D01*
X146554181Y-79094009D01*
X146577990Y-79141628D01*
X146577990Y-79236866D01*
X146625610Y-78927342D02*
X146625610Y-78546390D01*
X146577990Y-78427342D02*
X146077990Y-78427342D01*
X146077990Y-78236866D01*
X146101800Y-78189247D01*
X146125610Y-78165438D01*
X146173229Y-78141628D01*
X146244657Y-78141628D01*
X146292276Y-78165438D01*
X146316086Y-78189247D01*
X146339895Y-78236866D01*
X146339895Y-78427342D01*
X146577990Y-77927342D02*
X146077990Y-77927342D01*
X146577990Y-77641628D01*
X146077990Y-77641628D01*
X146577990Y-77403532D02*
X146077990Y-77403532D01*
X146077990Y-77213056D01*
X146101800Y-77165437D01*
X146125610Y-77141628D01*
X146173229Y-77117818D01*
X146244657Y-77117818D01*
X146292276Y-77141628D01*
X146316086Y-77165437D01*
X146339895Y-77213056D01*
X146339895Y-77403532D01*
X146625610Y-77022580D02*
X146625610Y-76641628D01*
X146316086Y-76355914D02*
X146339895Y-76284485D01*
X146363705Y-76260676D01*
X146411324Y-76236866D01*
X146482752Y-76236866D01*
X146530371Y-76260676D01*
X146554181Y-76284485D01*
X146577990Y-76332104D01*
X146577990Y-76522580D01*
X146077990Y-76522580D01*
X146077990Y-76355914D01*
X146101800Y-76308295D01*
X146125610Y-76284485D01*
X146173229Y-76260676D01*
X146220848Y-76260676D01*
X146268467Y-76284485D01*
X146292276Y-76308295D01*
X146316086Y-76355914D01*
X146316086Y-76522580D01*
X146316086Y-76022580D02*
X146316086Y-75855914D01*
X146577990Y-75784485D02*
X146577990Y-76022580D01*
X146077990Y-76022580D01*
X146077990Y-75784485D01*
X146530371Y-75284485D02*
X146554181Y-75308295D01*
X146577990Y-75379723D01*
X146577990Y-75427342D01*
X146554181Y-75498771D01*
X146506562Y-75546390D01*
X146458943Y-75570199D01*
X146363705Y-75594009D01*
X146292276Y-75594009D01*
X146197038Y-75570199D01*
X146149419Y-75546390D01*
X146101800Y-75498771D01*
X146077990Y-75427342D01*
X146077990Y-75379723D01*
X146101800Y-75308295D01*
X146125610Y-75284485D01*
X148459181Y-79644170D02*
X148482990Y-79572741D01*
X148482990Y-79453694D01*
X148459181Y-79406075D01*
X148435371Y-79382265D01*
X148387752Y-79358456D01*
X148340133Y-79358456D01*
X148292514Y-79382265D01*
X148268705Y-79406075D01*
X148244895Y-79453694D01*
X148221086Y-79548932D01*
X148197276Y-79596551D01*
X148173467Y-79620360D01*
X148125848Y-79644170D01*
X148078229Y-79644170D01*
X148030610Y-79620360D01*
X148006800Y-79596551D01*
X147982990Y-79548932D01*
X147982990Y-79429884D01*
X148006800Y-79358456D01*
X148482990Y-79144170D02*
X148149657Y-79144170D01*
X147982990Y-79144170D02*
X148006800Y-79167980D01*
X148030610Y-79144170D01*
X148006800Y-79120361D01*
X147982990Y-79144170D01*
X148030610Y-79144170D01*
X147982990Y-78953694D02*
X147982990Y-78644171D01*
X148173467Y-78810837D01*
X148173467Y-78739409D01*
X148197276Y-78691790D01*
X148221086Y-78667980D01*
X148268705Y-78644171D01*
X148387752Y-78644171D01*
X148435371Y-78667980D01*
X148459181Y-78691790D01*
X148482990Y-78739409D01*
X148482990Y-78882266D01*
X148459181Y-78929885D01*
X148435371Y-78953694D01*
X148149657Y-78215600D02*
X148482990Y-78215600D01*
X147959181Y-78334647D02*
X148316324Y-78453695D01*
X148316324Y-78144171D01*
X147982990Y-77858457D02*
X147982990Y-77810838D01*
X148006800Y-77763219D01*
X148030610Y-77739410D01*
X148078229Y-77715600D01*
X148173467Y-77691791D01*
X148292514Y-77691791D01*
X148387752Y-77715600D01*
X148435371Y-77739410D01*
X148459181Y-77763219D01*
X148482990Y-77810838D01*
X148482990Y-77858457D01*
X148459181Y-77906076D01*
X148435371Y-77929886D01*
X148387752Y-77953695D01*
X148292514Y-77977505D01*
X148173467Y-77977505D01*
X148078229Y-77953695D01*
X148030610Y-77929886D01*
X148006800Y-77906076D01*
X147982990Y-77858457D01*
X147982990Y-77525124D02*
X147982990Y-77191791D01*
X148482990Y-77406077D01*
X148482990Y-77001315D02*
X147982990Y-77001315D01*
X147982990Y-76882268D01*
X148006800Y-76810839D01*
X148054419Y-76763220D01*
X148102038Y-76739411D01*
X148197276Y-76715601D01*
X148268705Y-76715601D01*
X148363943Y-76739411D01*
X148411562Y-76763220D01*
X148459181Y-76810839D01*
X148482990Y-76882268D01*
X148482990Y-77001315D01*
X147982990Y-76572744D02*
X148482990Y-76406077D01*
X147982990Y-76239411D01*
D13*
X176541085Y-107998419D02*
X176613656Y-108022610D01*
X176734609Y-108022610D01*
X176782990Y-107998419D01*
X176807180Y-107974229D01*
X176831371Y-107925848D01*
X176831371Y-107877467D01*
X176807180Y-107829086D01*
X176782990Y-107804895D01*
X176734609Y-107780705D01*
X176637847Y-107756514D01*
X176589466Y-107732324D01*
X176565275Y-107708133D01*
X176541085Y-107659752D01*
X176541085Y-107611371D01*
X176565275Y-107562990D01*
X176589466Y-107538800D01*
X176637847Y-107514610D01*
X176758799Y-107514610D01*
X176831371Y-107538800D01*
X177049085Y-108022610D02*
X177049085Y-107683943D01*
X177049085Y-107514610D02*
X177024895Y-107538800D01*
X177049085Y-107562990D01*
X177073276Y-107538800D01*
X177049085Y-107514610D01*
X177049085Y-107562990D01*
X177532895Y-107514610D02*
X177290990Y-107514610D01*
X177266800Y-107756514D01*
X177290990Y-107732324D01*
X177339371Y-107708133D01*
X177460324Y-107708133D01*
X177508705Y-107732324D01*
X177532895Y-107756514D01*
X177557086Y-107804895D01*
X177557086Y-107925848D01*
X177532895Y-107974229D01*
X177508705Y-107998419D01*
X177460324Y-108022610D01*
X177339371Y-108022610D01*
X177290990Y-107998419D01*
X177266800Y-107974229D01*
X177992515Y-107683943D02*
X177992515Y-108022610D01*
X177871562Y-107490419D02*
X177750610Y-107853276D01*
X178065086Y-107853276D01*
X178476325Y-107514610D02*
X178379563Y-107514610D01*
X178331182Y-107538800D01*
X178306991Y-107562990D01*
X178258610Y-107635562D01*
X178234420Y-107732324D01*
X178234420Y-107925848D01*
X178258610Y-107974229D01*
X178282801Y-107998419D01*
X178331182Y-108022610D01*
X178427944Y-108022610D01*
X178476325Y-107998419D01*
X178500515Y-107974229D01*
X178524706Y-107925848D01*
X178524706Y-107804895D01*
X178500515Y-107756514D01*
X178476325Y-107732324D01*
X178427944Y-107708133D01*
X178331182Y-107708133D01*
X178282801Y-107732324D01*
X178258610Y-107756514D01*
X178234420Y-107804895D01*
X178814992Y-107732324D02*
X178766611Y-107708133D01*
X178742420Y-107683943D01*
X178718230Y-107635562D01*
X178718230Y-107611371D01*
X178742420Y-107562990D01*
X178766611Y-107538800D01*
X178814992Y-107514610D01*
X178911754Y-107514610D01*
X178960135Y-107538800D01*
X178984325Y-107562990D01*
X179008516Y-107611371D01*
X179008516Y-107635562D01*
X178984325Y-107683943D01*
X178960135Y-107708133D01*
X178911754Y-107732324D01*
X178814992Y-107732324D01*
X178766611Y-107756514D01*
X178742420Y-107780705D01*
X178718230Y-107829086D01*
X178718230Y-107925848D01*
X178742420Y-107974229D01*
X178766611Y-107998419D01*
X178814992Y-108022610D01*
X178911754Y-108022610D01*
X178960135Y-107998419D01*
X178984325Y-107974229D01*
X179008516Y-107925848D01*
X179008516Y-107829086D01*
X178984325Y-107780705D01*
X178960135Y-107756514D01*
X178911754Y-107732324D01*
X179226230Y-108022610D02*
X179226230Y-107514610D01*
X179347183Y-107514610D01*
X179419754Y-107538800D01*
X179468135Y-107587181D01*
X179492326Y-107635562D01*
X179516516Y-107732324D01*
X179516516Y-107804895D01*
X179492326Y-107901657D01*
X179468135Y-107950038D01*
X179419754Y-107998419D01*
X179347183Y-108022610D01*
X179226230Y-108022610D01*
X180024516Y-107974229D02*
X180000326Y-107998419D01*
X179927754Y-108022610D01*
X179879373Y-108022610D01*
X179806802Y-107998419D01*
X179758421Y-107950038D01*
X179734230Y-107901657D01*
X179710040Y-107804895D01*
X179710040Y-107732324D01*
X179734230Y-107635562D01*
X179758421Y-107587181D01*
X179806802Y-107538800D01*
X179879373Y-107514610D01*
X179927754Y-107514610D01*
X180000326Y-107538800D01*
X180024516Y-107562990D01*
X176488685Y-98676019D02*
X176561256Y-98700210D01*
X176682209Y-98700210D01*
X176730590Y-98676019D01*
X176754780Y-98651829D01*
X176778971Y-98603448D01*
X176778971Y-98555067D01*
X176754780Y-98506686D01*
X176730590Y-98482495D01*
X176682209Y-98458305D01*
X176585447Y-98434114D01*
X176537066Y-98409924D01*
X176512875Y-98385733D01*
X176488685Y-98337352D01*
X176488685Y-98288971D01*
X176512875Y-98240590D01*
X176537066Y-98216400D01*
X176585447Y-98192210D01*
X176706399Y-98192210D01*
X176778971Y-98216400D01*
X176996685Y-98700210D02*
X176996685Y-98361543D01*
X176996685Y-98192210D02*
X176972495Y-98216400D01*
X176996685Y-98240590D01*
X177020876Y-98216400D01*
X176996685Y-98192210D01*
X176996685Y-98240590D01*
X177480495Y-98192210D02*
X177238590Y-98192210D01*
X177214400Y-98434114D01*
X177238590Y-98409924D01*
X177286971Y-98385733D01*
X177407924Y-98385733D01*
X177456305Y-98409924D01*
X177480495Y-98434114D01*
X177504686Y-98482495D01*
X177504686Y-98603448D01*
X177480495Y-98651829D01*
X177456305Y-98676019D01*
X177407924Y-98700210D01*
X177286971Y-98700210D01*
X177238590Y-98676019D01*
X177214400Y-98651829D01*
X177940115Y-98361543D02*
X177940115Y-98700210D01*
X177819162Y-98168019D02*
X177698210Y-98530876D01*
X178012686Y-98530876D01*
X178423925Y-98192210D02*
X178327163Y-98192210D01*
X178278782Y-98216400D01*
X178254591Y-98240590D01*
X178206210Y-98313162D01*
X178182020Y-98409924D01*
X178182020Y-98603448D01*
X178206210Y-98651829D01*
X178230401Y-98676019D01*
X178278782Y-98700210D01*
X178375544Y-98700210D01*
X178423925Y-98676019D01*
X178448115Y-98651829D01*
X178472306Y-98603448D01*
X178472306Y-98482495D01*
X178448115Y-98434114D01*
X178423925Y-98409924D01*
X178375544Y-98385733D01*
X178278782Y-98385733D01*
X178230401Y-98409924D01*
X178206210Y-98434114D01*
X178182020Y-98482495D01*
X178762592Y-98409924D02*
X178714211Y-98385733D01*
X178690020Y-98361543D01*
X178665830Y-98313162D01*
X178665830Y-98288971D01*
X178690020Y-98240590D01*
X178714211Y-98216400D01*
X178762592Y-98192210D01*
X178859354Y-98192210D01*
X178907735Y-98216400D01*
X178931925Y-98240590D01*
X178956116Y-98288971D01*
X178956116Y-98313162D01*
X178931925Y-98361543D01*
X178907735Y-98385733D01*
X178859354Y-98409924D01*
X178762592Y-98409924D01*
X178714211Y-98434114D01*
X178690020Y-98458305D01*
X178665830Y-98506686D01*
X178665830Y-98603448D01*
X178690020Y-98651829D01*
X178714211Y-98676019D01*
X178762592Y-98700210D01*
X178859354Y-98700210D01*
X178907735Y-98676019D01*
X178931925Y-98651829D01*
X178956116Y-98603448D01*
X178956116Y-98506686D01*
X178931925Y-98458305D01*
X178907735Y-98434114D01*
X178859354Y-98409924D01*
X179173830Y-98700210D02*
X179173830Y-98192210D01*
X179294783Y-98192210D01*
X179367354Y-98216400D01*
X179415735Y-98264781D01*
X179439926Y-98313162D01*
X179464116Y-98409924D01*
X179464116Y-98482495D01*
X179439926Y-98579257D01*
X179415735Y-98627638D01*
X179367354Y-98676019D01*
X179294783Y-98700210D01*
X179173830Y-98700210D01*
X179972116Y-98651829D02*
X179947926Y-98676019D01*
X179875354Y-98700210D01*
X179826973Y-98700210D01*
X179754402Y-98676019D01*
X179706021Y-98627638D01*
X179681830Y-98579257D01*
X179657640Y-98482495D01*
X179657640Y-98409924D01*
X179681830Y-98313162D01*
X179706021Y-98264781D01*
X179754402Y-98216400D01*
X179826973Y-98192210D01*
X179875354Y-98192210D01*
X179947926Y-98216400D01*
X179972116Y-98240590D01*
X176438685Y-89627019D02*
X176511256Y-89651210D01*
X176632209Y-89651210D01*
X176680590Y-89627019D01*
X176704780Y-89602829D01*
X176728971Y-89554448D01*
X176728971Y-89506067D01*
X176704780Y-89457686D01*
X176680590Y-89433495D01*
X176632209Y-89409305D01*
X176535447Y-89385114D01*
X176487066Y-89360924D01*
X176462875Y-89336733D01*
X176438685Y-89288352D01*
X176438685Y-89239971D01*
X176462875Y-89191590D01*
X176487066Y-89167400D01*
X176535447Y-89143210D01*
X176656399Y-89143210D01*
X176728971Y-89167400D01*
X176946685Y-89651210D02*
X176946685Y-89312543D01*
X176946685Y-89143210D02*
X176922495Y-89167400D01*
X176946685Y-89191590D01*
X176970876Y-89167400D01*
X176946685Y-89143210D01*
X176946685Y-89191590D01*
X177430495Y-89143210D02*
X177188590Y-89143210D01*
X177164400Y-89385114D01*
X177188590Y-89360924D01*
X177236971Y-89336733D01*
X177357924Y-89336733D01*
X177406305Y-89360924D01*
X177430495Y-89385114D01*
X177454686Y-89433495D01*
X177454686Y-89554448D01*
X177430495Y-89602829D01*
X177406305Y-89627019D01*
X177357924Y-89651210D01*
X177236971Y-89651210D01*
X177188590Y-89627019D01*
X177164400Y-89602829D01*
X177890115Y-89312543D02*
X177890115Y-89651210D01*
X177769162Y-89119019D02*
X177648210Y-89481876D01*
X177962686Y-89481876D01*
X178373925Y-89143210D02*
X178277163Y-89143210D01*
X178228782Y-89167400D01*
X178204591Y-89191590D01*
X178156210Y-89264162D01*
X178132020Y-89360924D01*
X178132020Y-89554448D01*
X178156210Y-89602829D01*
X178180401Y-89627019D01*
X178228782Y-89651210D01*
X178325544Y-89651210D01*
X178373925Y-89627019D01*
X178398115Y-89602829D01*
X178422306Y-89554448D01*
X178422306Y-89433495D01*
X178398115Y-89385114D01*
X178373925Y-89360924D01*
X178325544Y-89336733D01*
X178228782Y-89336733D01*
X178180401Y-89360924D01*
X178156210Y-89385114D01*
X178132020Y-89433495D01*
X178712592Y-89360924D02*
X178664211Y-89336733D01*
X178640020Y-89312543D01*
X178615830Y-89264162D01*
X178615830Y-89239971D01*
X178640020Y-89191590D01*
X178664211Y-89167400D01*
X178712592Y-89143210D01*
X178809354Y-89143210D01*
X178857735Y-89167400D01*
X178881925Y-89191590D01*
X178906116Y-89239971D01*
X178906116Y-89264162D01*
X178881925Y-89312543D01*
X178857735Y-89336733D01*
X178809354Y-89360924D01*
X178712592Y-89360924D01*
X178664211Y-89385114D01*
X178640020Y-89409305D01*
X178615830Y-89457686D01*
X178615830Y-89554448D01*
X178640020Y-89602829D01*
X178664211Y-89627019D01*
X178712592Y-89651210D01*
X178809354Y-89651210D01*
X178857735Y-89627019D01*
X178881925Y-89602829D01*
X178906116Y-89554448D01*
X178906116Y-89457686D01*
X178881925Y-89409305D01*
X178857735Y-89385114D01*
X178809354Y-89360924D01*
X179123830Y-89651210D02*
X179123830Y-89143210D01*
X179244783Y-89143210D01*
X179317354Y-89167400D01*
X179365735Y-89215781D01*
X179389926Y-89264162D01*
X179414116Y-89360924D01*
X179414116Y-89433495D01*
X179389926Y-89530257D01*
X179365735Y-89578638D01*
X179317354Y-89627019D01*
X179244783Y-89651210D01*
X179123830Y-89651210D01*
X179922116Y-89602829D02*
X179897926Y-89627019D01*
X179825354Y-89651210D01*
X179776973Y-89651210D01*
X179704402Y-89627019D01*
X179656021Y-89578638D01*
X179631830Y-89530257D01*
X179607640Y-89433495D01*
X179607640Y-89360924D01*
X179631830Y-89264162D01*
X179656021Y-89215781D01*
X179704402Y-89167400D01*
X179776973Y-89143210D01*
X179825354Y-89143210D01*
X179897926Y-89167400D01*
X179922116Y-89191590D01*
X142353939Y-134941327D02*
X142378130Y-134868756D01*
X142402320Y-134844565D01*
X142450701Y-134820375D01*
X142523273Y-134820375D01*
X142571654Y-134844565D01*
X142595844Y-134868756D01*
X142620035Y-134917137D01*
X142620035Y-135110661D01*
X142112035Y-135110661D01*
X142112035Y-134941327D01*
X142136225Y-134892946D01*
X142160415Y-134868756D01*
X142208796Y-134844565D01*
X142257177Y-134844565D01*
X142305558Y-134868756D01*
X142329749Y-134892946D01*
X142353939Y-134941327D01*
X142353939Y-135110661D01*
X142595844Y-134626851D02*
X142620035Y-134554280D01*
X142620035Y-134433327D01*
X142595844Y-134384946D01*
X142571654Y-134360756D01*
X142523273Y-134336565D01*
X142474892Y-134336565D01*
X142426511Y-134360756D01*
X142402320Y-134384946D01*
X142378130Y-134433327D01*
X142353939Y-134530089D01*
X142329749Y-134578470D01*
X142305558Y-134602661D01*
X142257177Y-134626851D01*
X142208796Y-134626851D01*
X142160415Y-134602661D01*
X142136225Y-134578470D01*
X142112035Y-134530089D01*
X142112035Y-134409137D01*
X142136225Y-134336565D01*
X142595844Y-134143041D02*
X142620035Y-134070470D01*
X142620035Y-133949517D01*
X142595844Y-133901136D01*
X142571654Y-133876946D01*
X142523273Y-133852755D01*
X142474892Y-133852755D01*
X142426511Y-133876946D01*
X142402320Y-133901136D01*
X142378130Y-133949517D01*
X142353939Y-134046279D01*
X142329749Y-134094660D01*
X142305558Y-134118851D01*
X142257177Y-134143041D01*
X142208796Y-134143041D01*
X142160415Y-134118851D01*
X142136225Y-134094660D01*
X142112035Y-134046279D01*
X142112035Y-133925327D01*
X142136225Y-133852755D01*
X142160415Y-133659231D02*
X142136225Y-133635041D01*
X142112035Y-133586660D01*
X142112035Y-133465707D01*
X142136225Y-133417326D01*
X142160415Y-133393136D01*
X142208796Y-133368945D01*
X142257177Y-133368945D01*
X142329749Y-133393136D01*
X142620035Y-133683422D01*
X142620035Y-133368945D01*
X142620035Y-132885135D02*
X142620035Y-133175421D01*
X142620035Y-133030278D02*
X142112035Y-133030278D01*
X142184606Y-133078659D01*
X142232987Y-133127040D01*
X142257177Y-133175421D01*
X142112035Y-132425516D02*
X142112035Y-132667421D01*
X142353939Y-132691611D01*
X142329749Y-132667421D01*
X142305558Y-132619040D01*
X142305558Y-132498087D01*
X142329749Y-132449706D01*
X142353939Y-132425516D01*
X142402320Y-132401325D01*
X142523273Y-132401325D01*
X142571654Y-132425516D01*
X142595844Y-132449706D01*
X142620035Y-132498087D01*
X142620035Y-132619040D01*
X142595844Y-132667421D01*
X142571654Y-132691611D01*
X142620035Y-132183611D02*
X142112035Y-132183611D01*
X142112035Y-131990087D01*
X142136225Y-131941706D01*
X142160415Y-131917515D01*
X142208796Y-131893325D01*
X142281368Y-131893325D01*
X142329749Y-131917515D01*
X142353939Y-131941706D01*
X142378130Y-131990087D01*
X142378130Y-132183611D01*
X142620035Y-131675611D02*
X142112035Y-131675611D01*
X142353939Y-131675611D02*
X142353939Y-131385325D01*
X142620035Y-131385325D02*
X142112035Y-131385325D01*
X142112035Y-130925706D02*
X142112035Y-131022468D01*
X142136225Y-131070849D01*
X142160415Y-131095040D01*
X142232987Y-131143421D01*
X142329749Y-131167611D01*
X142523273Y-131167611D01*
X142571654Y-131143421D01*
X142595844Y-131119230D01*
X142620035Y-131070849D01*
X142620035Y-130974087D01*
X142595844Y-130925706D01*
X142571654Y-130901516D01*
X142523273Y-130877325D01*
X142402320Y-130877325D01*
X142353939Y-130901516D01*
X142329749Y-130925706D01*
X142305558Y-130974087D01*
X142305558Y-131070849D01*
X142329749Y-131119230D01*
X142353939Y-131143421D01*
X142402320Y-131167611D01*
X142112035Y-130707992D02*
X142112035Y-130393515D01*
X142305558Y-130562849D01*
X142305558Y-130490277D01*
X142329749Y-130441896D01*
X142353939Y-130417706D01*
X142402320Y-130393515D01*
X142523273Y-130393515D01*
X142571654Y-130417706D01*
X142595844Y-130441896D01*
X142620035Y-130490277D01*
X142620035Y-130635420D01*
X142595844Y-130683801D01*
X142571654Y-130707992D01*
X142160415Y-130199991D02*
X142136225Y-130175801D01*
X142112035Y-130127420D01*
X142112035Y-130006467D01*
X142136225Y-129958086D01*
X142160415Y-129933896D01*
X142208796Y-129909705D01*
X142257177Y-129909705D01*
X142329749Y-129933896D01*
X142620035Y-130224182D01*
X142620035Y-129909705D01*
X142112035Y-129740372D02*
X142112035Y-129401705D01*
X142620035Y-129619419D01*
D12*
X113214096Y-73652571D02*
X113190286Y-73676381D01*
X113118858Y-73700190D01*
X113071239Y-73700190D01*
X112999810Y-73676381D01*
X112952191Y-73628762D01*
X112928382Y-73581143D01*
X112904572Y-73485905D01*
X112904572Y-73414476D01*
X112928382Y-73319238D01*
X112952191Y-73271619D01*
X112999810Y-73224000D01*
X113071239Y-73200190D01*
X113118858Y-73200190D01*
X113190286Y-73224000D01*
X113214096Y-73247810D01*
X113523620Y-73200190D02*
X113618858Y-73200190D01*
X113666477Y-73224000D01*
X113714096Y-73271619D01*
X113737905Y-73366857D01*
X113737905Y-73533524D01*
X113714096Y-73628762D01*
X113666477Y-73676381D01*
X113618858Y-73700190D01*
X113523620Y-73700190D01*
X113476001Y-73676381D01*
X113428382Y-73628762D01*
X113404572Y-73533524D01*
X113404572Y-73366857D01*
X113428382Y-73271619D01*
X113476001Y-73224000D01*
X113523620Y-73200190D01*
X113952192Y-73700190D02*
X113952192Y-73200190D01*
X114237906Y-73700190D01*
X114237906Y-73200190D01*
X114476002Y-73700190D02*
X114476002Y-73200190D01*
X114761716Y-73700190D01*
X114761716Y-73200190D01*
X114880764Y-73747810D02*
X115261716Y-73747810D01*
X115476002Y-73200190D02*
X115523621Y-73200190D01*
X115571240Y-73224000D01*
X115595049Y-73247810D01*
X115618859Y-73295429D01*
X115642668Y-73390667D01*
X115642668Y-73509714D01*
X115618859Y-73604952D01*
X115595049Y-73652571D01*
X115571240Y-73676381D01*
X115523621Y-73700190D01*
X115476002Y-73700190D01*
X115428383Y-73676381D01*
X115404573Y-73652571D01*
X115380764Y-73604952D01*
X115356954Y-73509714D01*
X115356954Y-73390667D01*
X115380764Y-73295429D01*
X115404573Y-73247810D01*
X115428383Y-73224000D01*
X115476002Y-73200190D01*
X116118858Y-73700190D02*
X115833144Y-73700190D01*
X115976001Y-73700190D02*
X115976001Y-73200190D01*
X115928382Y-73271619D01*
X115880763Y-73319238D01*
X115833144Y-73343048D01*
X116285525Y-73200190D02*
X116618858Y-73700190D01*
X116618858Y-73200190D02*
X116285525Y-73700190D01*
X116904572Y-73200190D02*
X116952191Y-73200190D01*
X116999810Y-73224000D01*
X117023619Y-73247810D01*
X117047429Y-73295429D01*
X117071238Y-73390667D01*
X117071238Y-73509714D01*
X117047429Y-73604952D01*
X117023619Y-73652571D01*
X116999810Y-73676381D01*
X116952191Y-73700190D01*
X116904572Y-73700190D01*
X116856953Y-73676381D01*
X116833143Y-73652571D01*
X116809334Y-73604952D01*
X116785524Y-73509714D01*
X116785524Y-73390667D01*
X116809334Y-73295429D01*
X116833143Y-73247810D01*
X116856953Y-73224000D01*
X116904572Y-73200190D01*
X117261714Y-73247810D02*
X117285524Y-73224000D01*
X117333143Y-73200190D01*
X117452190Y-73200190D01*
X117499809Y-73224000D01*
X117523619Y-73247810D01*
X117547428Y-73295429D01*
X117547428Y-73343048D01*
X117523619Y-73414476D01*
X117237905Y-73700190D01*
X117547428Y-73700190D01*
D13*
X189630904Y-98681429D02*
X189606714Y-98705619D01*
X189534142Y-98729810D01*
X189485761Y-98729810D01*
X189413190Y-98705619D01*
X189364809Y-98657238D01*
X189340618Y-98608857D01*
X189316428Y-98512095D01*
X189316428Y-98439524D01*
X189340618Y-98342762D01*
X189364809Y-98294381D01*
X189413190Y-98246000D01*
X189485761Y-98221810D01*
X189534142Y-98221810D01*
X189606714Y-98246000D01*
X189630904Y-98270190D01*
X189945380Y-98221810D02*
X190042142Y-98221810D01*
X190090523Y-98246000D01*
X190138904Y-98294381D01*
X190163095Y-98391143D01*
X190163095Y-98560476D01*
X190138904Y-98657238D01*
X190090523Y-98705619D01*
X190042142Y-98729810D01*
X189945380Y-98729810D01*
X189896999Y-98705619D01*
X189848618Y-98657238D01*
X189824428Y-98560476D01*
X189824428Y-98391143D01*
X189848618Y-98294381D01*
X189896999Y-98246000D01*
X189945380Y-98221810D01*
X190380808Y-98729810D02*
X190380808Y-98221810D01*
X190671094Y-98729810D01*
X190671094Y-98221810D01*
X190912998Y-98729810D02*
X190912998Y-98221810D01*
X191203284Y-98729810D01*
X191203284Y-98221810D01*
X191324236Y-98778190D02*
X191711284Y-98778190D01*
X191928998Y-98221810D02*
X191977379Y-98221810D01*
X192025760Y-98246000D01*
X192049951Y-98270190D01*
X192074141Y-98318571D01*
X192098332Y-98415333D01*
X192098332Y-98536286D01*
X192074141Y-98633048D01*
X192049951Y-98681429D01*
X192025760Y-98705619D01*
X191977379Y-98729810D01*
X191928998Y-98729810D01*
X191880617Y-98705619D01*
X191856427Y-98681429D01*
X191832236Y-98633048D01*
X191808046Y-98536286D01*
X191808046Y-98415333D01*
X191832236Y-98318571D01*
X191856427Y-98270190D01*
X191880617Y-98246000D01*
X191928998Y-98221810D01*
X192582142Y-98729810D02*
X192291856Y-98729810D01*
X192436999Y-98729810D02*
X192436999Y-98221810D01*
X192388618Y-98294381D01*
X192340237Y-98342762D01*
X192291856Y-98366952D01*
X192751475Y-98221810D02*
X193090142Y-98729810D01*
X193090142Y-98221810D02*
X192751475Y-98729810D01*
X193380428Y-98221810D02*
X193428809Y-98221810D01*
X193477190Y-98246000D01*
X193501381Y-98270190D01*
X193525571Y-98318571D01*
X193549762Y-98415333D01*
X193549762Y-98536286D01*
X193525571Y-98633048D01*
X193501381Y-98681429D01*
X193477190Y-98705619D01*
X193428809Y-98729810D01*
X193380428Y-98729810D01*
X193332047Y-98705619D01*
X193307857Y-98681429D01*
X193283666Y-98633048D01*
X193259476Y-98536286D01*
X193259476Y-98415333D01*
X193283666Y-98318571D01*
X193307857Y-98270190D01*
X193332047Y-98246000D01*
X193380428Y-98221810D01*
X193743286Y-98270190D02*
X193767476Y-98246000D01*
X193815857Y-98221810D01*
X193936810Y-98221810D01*
X193985191Y-98246000D01*
X194009381Y-98270190D01*
X194033572Y-98318571D01*
X194033572Y-98366952D01*
X194009381Y-98439524D01*
X193719095Y-98729810D01*
X194033572Y-98729810D01*
X189605904Y-89556429D02*
X189581714Y-89580619D01*
X189509142Y-89604810D01*
X189460761Y-89604810D01*
X189388190Y-89580619D01*
X189339809Y-89532238D01*
X189315618Y-89483857D01*
X189291428Y-89387095D01*
X189291428Y-89314524D01*
X189315618Y-89217762D01*
X189339809Y-89169381D01*
X189388190Y-89121000D01*
X189460761Y-89096810D01*
X189509142Y-89096810D01*
X189581714Y-89121000D01*
X189605904Y-89145190D01*
X189920380Y-89096810D02*
X190017142Y-89096810D01*
X190065523Y-89121000D01*
X190113904Y-89169381D01*
X190138095Y-89266143D01*
X190138095Y-89435476D01*
X190113904Y-89532238D01*
X190065523Y-89580619D01*
X190017142Y-89604810D01*
X189920380Y-89604810D01*
X189871999Y-89580619D01*
X189823618Y-89532238D01*
X189799428Y-89435476D01*
X189799428Y-89266143D01*
X189823618Y-89169381D01*
X189871999Y-89121000D01*
X189920380Y-89096810D01*
X190355808Y-89604810D02*
X190355808Y-89096810D01*
X190646094Y-89604810D01*
X190646094Y-89096810D01*
X190887998Y-89604810D02*
X190887998Y-89096810D01*
X191178284Y-89604810D01*
X191178284Y-89096810D01*
X191299236Y-89653190D02*
X191686284Y-89653190D01*
X191903998Y-89096810D02*
X191952379Y-89096810D01*
X192000760Y-89121000D01*
X192024951Y-89145190D01*
X192049141Y-89193571D01*
X192073332Y-89290333D01*
X192073332Y-89411286D01*
X192049141Y-89508048D01*
X192024951Y-89556429D01*
X192000760Y-89580619D01*
X191952379Y-89604810D01*
X191903998Y-89604810D01*
X191855617Y-89580619D01*
X191831427Y-89556429D01*
X191807236Y-89508048D01*
X191783046Y-89411286D01*
X191783046Y-89290333D01*
X191807236Y-89193571D01*
X191831427Y-89145190D01*
X191855617Y-89121000D01*
X191903998Y-89096810D01*
X192557142Y-89604810D02*
X192266856Y-89604810D01*
X192411999Y-89604810D02*
X192411999Y-89096810D01*
X192363618Y-89169381D01*
X192315237Y-89217762D01*
X192266856Y-89241952D01*
X192726475Y-89096810D02*
X193065142Y-89604810D01*
X193065142Y-89096810D02*
X192726475Y-89604810D01*
X193355428Y-89096810D02*
X193403809Y-89096810D01*
X193452190Y-89121000D01*
X193476381Y-89145190D01*
X193500571Y-89193571D01*
X193524762Y-89290333D01*
X193524762Y-89411286D01*
X193500571Y-89508048D01*
X193476381Y-89556429D01*
X193452190Y-89580619D01*
X193403809Y-89604810D01*
X193355428Y-89604810D01*
X193307047Y-89580619D01*
X193282857Y-89556429D01*
X193258666Y-89508048D01*
X193234476Y-89411286D01*
X193234476Y-89290333D01*
X193258666Y-89193571D01*
X193282857Y-89145190D01*
X193307047Y-89121000D01*
X193355428Y-89096810D01*
X193718286Y-89145190D02*
X193742476Y-89121000D01*
X193790857Y-89096810D01*
X193911810Y-89096810D01*
X193960191Y-89121000D01*
X193984381Y-89145190D01*
X194008572Y-89193571D01*
X194008572Y-89241952D01*
X193984381Y-89314524D01*
X193694095Y-89604810D01*
X194008572Y-89604810D01*
X189555904Y-80331429D02*
X189531714Y-80355619D01*
X189459142Y-80379810D01*
X189410761Y-80379810D01*
X189338190Y-80355619D01*
X189289809Y-80307238D01*
X189265618Y-80258857D01*
X189241428Y-80162095D01*
X189241428Y-80089524D01*
X189265618Y-79992762D01*
X189289809Y-79944381D01*
X189338190Y-79896000D01*
X189410761Y-79871810D01*
X189459142Y-79871810D01*
X189531714Y-79896000D01*
X189555904Y-79920190D01*
X189870380Y-79871810D02*
X189967142Y-79871810D01*
X190015523Y-79896000D01*
X190063904Y-79944381D01*
X190088095Y-80041143D01*
X190088095Y-80210476D01*
X190063904Y-80307238D01*
X190015523Y-80355619D01*
X189967142Y-80379810D01*
X189870380Y-80379810D01*
X189821999Y-80355619D01*
X189773618Y-80307238D01*
X189749428Y-80210476D01*
X189749428Y-80041143D01*
X189773618Y-79944381D01*
X189821999Y-79896000D01*
X189870380Y-79871810D01*
X190305808Y-80379810D02*
X190305808Y-79871810D01*
X190596094Y-80379810D01*
X190596094Y-79871810D01*
X190837998Y-80379810D02*
X190837998Y-79871810D01*
X191128284Y-80379810D01*
X191128284Y-79871810D01*
X191249236Y-80428190D02*
X191636284Y-80428190D01*
X191853998Y-79871810D02*
X191902379Y-79871810D01*
X191950760Y-79896000D01*
X191974951Y-79920190D01*
X191999141Y-79968571D01*
X192023332Y-80065333D01*
X192023332Y-80186286D01*
X191999141Y-80283048D01*
X191974951Y-80331429D01*
X191950760Y-80355619D01*
X191902379Y-80379810D01*
X191853998Y-80379810D01*
X191805617Y-80355619D01*
X191781427Y-80331429D01*
X191757236Y-80283048D01*
X191733046Y-80186286D01*
X191733046Y-80065333D01*
X191757236Y-79968571D01*
X191781427Y-79920190D01*
X191805617Y-79896000D01*
X191853998Y-79871810D01*
X192507142Y-80379810D02*
X192216856Y-80379810D01*
X192361999Y-80379810D02*
X192361999Y-79871810D01*
X192313618Y-79944381D01*
X192265237Y-79992762D01*
X192216856Y-80016952D01*
X192676475Y-79871810D02*
X193015142Y-80379810D01*
X193015142Y-79871810D02*
X192676475Y-80379810D01*
X193305428Y-79871810D02*
X193353809Y-79871810D01*
X193402190Y-79896000D01*
X193426381Y-79920190D01*
X193450571Y-79968571D01*
X193474762Y-80065333D01*
X193474762Y-80186286D01*
X193450571Y-80283048D01*
X193426381Y-80331429D01*
X193402190Y-80355619D01*
X193353809Y-80379810D01*
X193305428Y-80379810D01*
X193257047Y-80355619D01*
X193232857Y-80331429D01*
X193208666Y-80283048D01*
X193184476Y-80186286D01*
X193184476Y-80065333D01*
X193208666Y-79968571D01*
X193232857Y-79920190D01*
X193257047Y-79896000D01*
X193305428Y-79871810D01*
X193668286Y-79920190D02*
X193692476Y-79896000D01*
X193740857Y-79871810D01*
X193861810Y-79871810D01*
X193910191Y-79896000D01*
X193934381Y-79920190D01*
X193958572Y-79968571D01*
X193958572Y-80016952D01*
X193934381Y-80089524D01*
X193644095Y-80379810D01*
X193958572Y-80379810D01*
X184661529Y-135698796D02*
X184685719Y-135722986D01*
X184709910Y-135795558D01*
X184709910Y-135843939D01*
X184685719Y-135916510D01*
X184637338Y-135964891D01*
X184588957Y-135989082D01*
X184492195Y-136013272D01*
X184419624Y-136013272D01*
X184322862Y-135989082D01*
X184274481Y-135964891D01*
X184226100Y-135916510D01*
X184201910Y-135843939D01*
X184201910Y-135795558D01*
X184226100Y-135722986D01*
X184250290Y-135698796D01*
X184201910Y-135384320D02*
X184201910Y-135287558D01*
X184226100Y-135239177D01*
X184274481Y-135190796D01*
X184371243Y-135166605D01*
X184540576Y-135166605D01*
X184637338Y-135190796D01*
X184685719Y-135239177D01*
X184709910Y-135287558D01*
X184709910Y-135384320D01*
X184685719Y-135432701D01*
X184637338Y-135481082D01*
X184540576Y-135505272D01*
X184371243Y-135505272D01*
X184274481Y-135481082D01*
X184226100Y-135432701D01*
X184201910Y-135384320D01*
X184709910Y-134948892D02*
X184201910Y-134948892D01*
X184709910Y-134658606D01*
X184201910Y-134658606D01*
X184709910Y-134416702D02*
X184201910Y-134416702D01*
X184709910Y-134126416D01*
X184201910Y-134126416D01*
X184758290Y-134005464D02*
X184758290Y-133618416D01*
X184201910Y-133400702D02*
X184201910Y-133352321D01*
X184226100Y-133303940D01*
X184250290Y-133279749D01*
X184298671Y-133255559D01*
X184395433Y-133231368D01*
X184516386Y-133231368D01*
X184613148Y-133255559D01*
X184661529Y-133279749D01*
X184685719Y-133303940D01*
X184709910Y-133352321D01*
X184709910Y-133400702D01*
X184685719Y-133449083D01*
X184661529Y-133473273D01*
X184613148Y-133497464D01*
X184516386Y-133521654D01*
X184395433Y-133521654D01*
X184298671Y-133497464D01*
X184250290Y-133473273D01*
X184226100Y-133449083D01*
X184201910Y-133400702D01*
X184709910Y-132747558D02*
X184709910Y-133037844D01*
X184709910Y-132892701D02*
X184201910Y-132892701D01*
X184274481Y-132941082D01*
X184322862Y-132989463D01*
X184347052Y-133037844D01*
X184201910Y-132578225D02*
X184709910Y-132239558D01*
X184201910Y-132239558D02*
X184709910Y-132578225D01*
X184201910Y-131949272D02*
X184201910Y-131900891D01*
X184226100Y-131852510D01*
X184250290Y-131828319D01*
X184298671Y-131804129D01*
X184395433Y-131779938D01*
X184516386Y-131779938D01*
X184613148Y-131804129D01*
X184661529Y-131828319D01*
X184685719Y-131852510D01*
X184709910Y-131900891D01*
X184709910Y-131949272D01*
X184685719Y-131997653D01*
X184661529Y-132021843D01*
X184613148Y-132046034D01*
X184516386Y-132070224D01*
X184395433Y-132070224D01*
X184298671Y-132046034D01*
X184250290Y-132021843D01*
X184226100Y-131997653D01*
X184201910Y-131949272D01*
X184371243Y-131344509D02*
X184709910Y-131344509D01*
X184177719Y-131465462D02*
X184540576Y-131586414D01*
X184540576Y-131271938D01*
X172811429Y-135636496D02*
X172835619Y-135660686D01*
X172859810Y-135733258D01*
X172859810Y-135781639D01*
X172835619Y-135854210D01*
X172787238Y-135902591D01*
X172738857Y-135926782D01*
X172642095Y-135950972D01*
X172569524Y-135950972D01*
X172472762Y-135926782D01*
X172424381Y-135902591D01*
X172376000Y-135854210D01*
X172351810Y-135781639D01*
X172351810Y-135733258D01*
X172376000Y-135660686D01*
X172400190Y-135636496D01*
X172351810Y-135322020D02*
X172351810Y-135225258D01*
X172376000Y-135176877D01*
X172424381Y-135128496D01*
X172521143Y-135104305D01*
X172690476Y-135104305D01*
X172787238Y-135128496D01*
X172835619Y-135176877D01*
X172859810Y-135225258D01*
X172859810Y-135322020D01*
X172835619Y-135370401D01*
X172787238Y-135418782D01*
X172690476Y-135442972D01*
X172521143Y-135442972D01*
X172424381Y-135418782D01*
X172376000Y-135370401D01*
X172351810Y-135322020D01*
X172859810Y-134886592D02*
X172351810Y-134886592D01*
X172859810Y-134596306D01*
X172351810Y-134596306D01*
X172859810Y-134354402D02*
X172351810Y-134354402D01*
X172859810Y-134064116D01*
X172351810Y-134064116D01*
X172908190Y-133943164D02*
X172908190Y-133556116D01*
X172351810Y-133338402D02*
X172351810Y-133290021D01*
X172376000Y-133241640D01*
X172400190Y-133217449D01*
X172448571Y-133193259D01*
X172545333Y-133169068D01*
X172666286Y-133169068D01*
X172763048Y-133193259D01*
X172811429Y-133217449D01*
X172835619Y-133241640D01*
X172859810Y-133290021D01*
X172859810Y-133338402D01*
X172835619Y-133386783D01*
X172811429Y-133410973D01*
X172763048Y-133435164D01*
X172666286Y-133459354D01*
X172545333Y-133459354D01*
X172448571Y-133435164D01*
X172400190Y-133410973D01*
X172376000Y-133386783D01*
X172351810Y-133338402D01*
X172859810Y-132685258D02*
X172859810Y-132975544D01*
X172859810Y-132830401D02*
X172351810Y-132830401D01*
X172424381Y-132878782D01*
X172472762Y-132927163D01*
X172496952Y-132975544D01*
X172351810Y-132515925D02*
X172859810Y-132177258D01*
X172351810Y-132177258D02*
X172859810Y-132515925D01*
X172351810Y-131886972D02*
X172351810Y-131838591D01*
X172376000Y-131790210D01*
X172400190Y-131766019D01*
X172448571Y-131741829D01*
X172545333Y-131717638D01*
X172666286Y-131717638D01*
X172763048Y-131741829D01*
X172811429Y-131766019D01*
X172835619Y-131790210D01*
X172859810Y-131838591D01*
X172859810Y-131886972D01*
X172835619Y-131935353D01*
X172811429Y-131959543D01*
X172763048Y-131983734D01*
X172666286Y-132007924D01*
X172545333Y-132007924D01*
X172448571Y-131983734D01*
X172400190Y-131959543D01*
X172376000Y-131935353D01*
X172351810Y-131886972D01*
X172521143Y-131282209D02*
X172859810Y-131282209D01*
X172327619Y-131403162D02*
X172690476Y-131524114D01*
X172690476Y-131209638D01*
D12*
X187845371Y-128902104D02*
X187869181Y-128925914D01*
X187892990Y-128997342D01*
X187892990Y-129044961D01*
X187869181Y-129116390D01*
X187821562Y-129164009D01*
X187773943Y-129187818D01*
X187678705Y-129211628D01*
X187607276Y-129211628D01*
X187512038Y-129187818D01*
X187464419Y-129164009D01*
X187416800Y-129116390D01*
X187392990Y-129044961D01*
X187392990Y-128997342D01*
X187416800Y-128925914D01*
X187440610Y-128902104D01*
X187392990Y-128592580D02*
X187392990Y-128497342D01*
X187416800Y-128449723D01*
X187464419Y-128402104D01*
X187559657Y-128378295D01*
X187726324Y-128378295D01*
X187821562Y-128402104D01*
X187869181Y-128449723D01*
X187892990Y-128497342D01*
X187892990Y-128592580D01*
X187869181Y-128640199D01*
X187821562Y-128687818D01*
X187726324Y-128711628D01*
X187559657Y-128711628D01*
X187464419Y-128687818D01*
X187416800Y-128640199D01*
X187392990Y-128592580D01*
X187892990Y-128164008D02*
X187392990Y-128164008D01*
X187892990Y-127878294D01*
X187392990Y-127878294D01*
X187892990Y-127640198D02*
X187392990Y-127640198D01*
X187892990Y-127354484D01*
X187392990Y-127354484D01*
X187940610Y-127235436D02*
X187940610Y-126854484D01*
X187392990Y-126640198D02*
X187392990Y-126592579D01*
X187416800Y-126544960D01*
X187440610Y-126521151D01*
X187488229Y-126497341D01*
X187583467Y-126473532D01*
X187702514Y-126473532D01*
X187797752Y-126497341D01*
X187845371Y-126521151D01*
X187869181Y-126544960D01*
X187892990Y-126592579D01*
X187892990Y-126640198D01*
X187869181Y-126687817D01*
X187845371Y-126711627D01*
X187797752Y-126735436D01*
X187702514Y-126759246D01*
X187583467Y-126759246D01*
X187488229Y-126735436D01*
X187440610Y-126711627D01*
X187416800Y-126687817D01*
X187392990Y-126640198D01*
X187892990Y-125997342D02*
X187892990Y-126283056D01*
X187892990Y-126140199D02*
X187392990Y-126140199D01*
X187464419Y-126187818D01*
X187512038Y-126235437D01*
X187535848Y-126283056D01*
X187392990Y-125830675D02*
X187892990Y-125497342D01*
X187392990Y-125497342D02*
X187892990Y-125830675D01*
X187392990Y-125211628D02*
X187392990Y-125164009D01*
X187416800Y-125116390D01*
X187440610Y-125092581D01*
X187488229Y-125068771D01*
X187583467Y-125044962D01*
X187702514Y-125044962D01*
X187797752Y-125068771D01*
X187845371Y-125092581D01*
X187869181Y-125116390D01*
X187892990Y-125164009D01*
X187892990Y-125211628D01*
X187869181Y-125259247D01*
X187845371Y-125283057D01*
X187797752Y-125306866D01*
X187702514Y-125330676D01*
X187583467Y-125330676D01*
X187488229Y-125306866D01*
X187440610Y-125283057D01*
X187416800Y-125259247D01*
X187392990Y-125211628D01*
X187559657Y-124616391D02*
X187892990Y-124616391D01*
X187369181Y-124735438D02*
X187726324Y-124854486D01*
X187726324Y-124544962D01*
X187845371Y-118234104D02*
X187869181Y-118257914D01*
X187892990Y-118329342D01*
X187892990Y-118376961D01*
X187869181Y-118448390D01*
X187821562Y-118496009D01*
X187773943Y-118519818D01*
X187678705Y-118543628D01*
X187607276Y-118543628D01*
X187512038Y-118519818D01*
X187464419Y-118496009D01*
X187416800Y-118448390D01*
X187392990Y-118376961D01*
X187392990Y-118329342D01*
X187416800Y-118257914D01*
X187440610Y-118234104D01*
X187392990Y-117924580D02*
X187392990Y-117829342D01*
X187416800Y-117781723D01*
X187464419Y-117734104D01*
X187559657Y-117710295D01*
X187726324Y-117710295D01*
X187821562Y-117734104D01*
X187869181Y-117781723D01*
X187892990Y-117829342D01*
X187892990Y-117924580D01*
X187869181Y-117972199D01*
X187821562Y-118019818D01*
X187726324Y-118043628D01*
X187559657Y-118043628D01*
X187464419Y-118019818D01*
X187416800Y-117972199D01*
X187392990Y-117924580D01*
X187892990Y-117496008D02*
X187392990Y-117496008D01*
X187892990Y-117210294D01*
X187392990Y-117210294D01*
X187892990Y-116972198D02*
X187392990Y-116972198D01*
X187892990Y-116686484D01*
X187392990Y-116686484D01*
X187940610Y-116567436D02*
X187940610Y-116186484D01*
X187392990Y-115972198D02*
X187392990Y-115924579D01*
X187416800Y-115876960D01*
X187440610Y-115853151D01*
X187488229Y-115829341D01*
X187583467Y-115805532D01*
X187702514Y-115805532D01*
X187797752Y-115829341D01*
X187845371Y-115853151D01*
X187869181Y-115876960D01*
X187892990Y-115924579D01*
X187892990Y-115972198D01*
X187869181Y-116019817D01*
X187845371Y-116043627D01*
X187797752Y-116067436D01*
X187702514Y-116091246D01*
X187583467Y-116091246D01*
X187488229Y-116067436D01*
X187440610Y-116043627D01*
X187416800Y-116019817D01*
X187392990Y-115972198D01*
X187892990Y-115329342D02*
X187892990Y-115615056D01*
X187892990Y-115472199D02*
X187392990Y-115472199D01*
X187464419Y-115519818D01*
X187512038Y-115567437D01*
X187535848Y-115615056D01*
X187392990Y-115162675D02*
X187892990Y-114829342D01*
X187392990Y-114829342D02*
X187892990Y-115162675D01*
X187392990Y-114543628D02*
X187392990Y-114496009D01*
X187416800Y-114448390D01*
X187440610Y-114424581D01*
X187488229Y-114400771D01*
X187583467Y-114376962D01*
X187702514Y-114376962D01*
X187797752Y-114400771D01*
X187845371Y-114424581D01*
X187869181Y-114448390D01*
X187892990Y-114496009D01*
X187892990Y-114543628D01*
X187869181Y-114591247D01*
X187845371Y-114615057D01*
X187797752Y-114638866D01*
X187702514Y-114662676D01*
X187583467Y-114662676D01*
X187488229Y-114638866D01*
X187440610Y-114615057D01*
X187416800Y-114591247D01*
X187392990Y-114543628D01*
X187559657Y-113948391D02*
X187892990Y-113948391D01*
X187369181Y-114067438D02*
X187726324Y-114186486D01*
X187726324Y-113876962D01*
X111295190Y-95546409D02*
X111699952Y-95546409D01*
X111747571Y-95522600D01*
X111771381Y-95498790D01*
X111795190Y-95451171D01*
X111795190Y-95355933D01*
X111771381Y-95308314D01*
X111747571Y-95284505D01*
X111699952Y-95260695D01*
X111295190Y-95260695D01*
X111771381Y-95046409D02*
X111795190Y-94974980D01*
X111795190Y-94855933D01*
X111771381Y-94808314D01*
X111747571Y-94784504D01*
X111699952Y-94760695D01*
X111652333Y-94760695D01*
X111604714Y-94784504D01*
X111580905Y-94808314D01*
X111557095Y-94855933D01*
X111533286Y-94951171D01*
X111509476Y-94998790D01*
X111485667Y-95022599D01*
X111438048Y-95046409D01*
X111390429Y-95046409D01*
X111342810Y-95022599D01*
X111319000Y-94998790D01*
X111295190Y-94951171D01*
X111295190Y-94832123D01*
X111319000Y-94760695D01*
X111533286Y-94379743D02*
X111557095Y-94308314D01*
X111580905Y-94284505D01*
X111628524Y-94260695D01*
X111699952Y-94260695D01*
X111747571Y-94284505D01*
X111771381Y-94308314D01*
X111795190Y-94355933D01*
X111795190Y-94546409D01*
X111295190Y-94546409D01*
X111295190Y-94379743D01*
X111319000Y-94332124D01*
X111342810Y-94308314D01*
X111390429Y-94284505D01*
X111438048Y-94284505D01*
X111485667Y-94308314D01*
X111509476Y-94332124D01*
X111533286Y-94379743D01*
X111533286Y-94546409D01*
X111842810Y-94165457D02*
X111842810Y-93784505D01*
X111295190Y-93570219D02*
X111295190Y-93474981D01*
X111319000Y-93427362D01*
X111366619Y-93379743D01*
X111461857Y-93355934D01*
X111628524Y-93355934D01*
X111723762Y-93379743D01*
X111771381Y-93427362D01*
X111795190Y-93474981D01*
X111795190Y-93570219D01*
X111771381Y-93617838D01*
X111723762Y-93665457D01*
X111628524Y-93689267D01*
X111461857Y-93689267D01*
X111366619Y-93665457D01*
X111319000Y-93617838D01*
X111295190Y-93570219D01*
X111295190Y-93213076D02*
X111295190Y-92927362D01*
X111795190Y-93070219D02*
X111295190Y-93070219D01*
X111319000Y-92498791D02*
X111295190Y-92546410D01*
X111295190Y-92617838D01*
X111319000Y-92689267D01*
X111366619Y-92736886D01*
X111414238Y-92760695D01*
X111509476Y-92784505D01*
X111580905Y-92784505D01*
X111676143Y-92760695D01*
X111723762Y-92736886D01*
X111771381Y-92689267D01*
X111795190Y-92617838D01*
X111795190Y-92570219D01*
X111771381Y-92498791D01*
X111747571Y-92474981D01*
X111580905Y-92474981D01*
X111580905Y-92570219D01*
X161149896Y-65402355D02*
X161149896Y-65092832D01*
X161340373Y-65259498D01*
X161340373Y-65188070D01*
X161364182Y-65140451D01*
X161387992Y-65116641D01*
X161435611Y-65092832D01*
X161554658Y-65092832D01*
X161602277Y-65116641D01*
X161626087Y-65140451D01*
X161649896Y-65188070D01*
X161649896Y-65330927D01*
X161626087Y-65378546D01*
X161602277Y-65402355D01*
X161602277Y-64878546D02*
X161626087Y-64854737D01*
X161649896Y-64878546D01*
X161626087Y-64902356D01*
X161602277Y-64878546D01*
X161649896Y-64878546D01*
X161149896Y-64688070D02*
X161149896Y-64378547D01*
X161340373Y-64545213D01*
X161340373Y-64473785D01*
X161364182Y-64426166D01*
X161387992Y-64402356D01*
X161435611Y-64378547D01*
X161554658Y-64378547D01*
X161602277Y-64402356D01*
X161626087Y-64426166D01*
X161649896Y-64473785D01*
X161649896Y-64616642D01*
X161626087Y-64664261D01*
X161602277Y-64688070D01*
X161316563Y-63949976D02*
X161649896Y-63949976D01*
X161316563Y-64164261D02*
X161578468Y-64164261D01*
X161626087Y-64140452D01*
X161649896Y-64092833D01*
X161649896Y-64021404D01*
X161626087Y-63973785D01*
X161602277Y-63949976D01*
X161649896Y-63711880D02*
X161149896Y-63711880D01*
X161649896Y-63497595D02*
X161387992Y-63497595D01*
X161340373Y-63521404D01*
X161316563Y-63569023D01*
X161316563Y-63640452D01*
X161340373Y-63688071D01*
X161364182Y-63711880D01*
X171323974Y-70032060D02*
X171347784Y-70008250D01*
X171395403Y-69984440D01*
X171514450Y-69984440D01*
X171562069Y-70008250D01*
X171585879Y-70032060D01*
X171609688Y-70079679D01*
X171609688Y-70127298D01*
X171585879Y-70198726D01*
X171300165Y-70484440D01*
X171609688Y-70484440D01*
X171823974Y-70436821D02*
X171847783Y-70460631D01*
X171823974Y-70484440D01*
X171800164Y-70460631D01*
X171823974Y-70436821D01*
X171823974Y-70484440D01*
X172038259Y-70032060D02*
X172062069Y-70008250D01*
X172109688Y-69984440D01*
X172228735Y-69984440D01*
X172276354Y-70008250D01*
X172300164Y-70032060D01*
X172323973Y-70079679D01*
X172323973Y-70127298D01*
X172300164Y-70198726D01*
X172014450Y-70484440D01*
X172323973Y-70484440D01*
X172752544Y-70151107D02*
X172752544Y-70484440D01*
X172538259Y-70151107D02*
X172538259Y-70413012D01*
X172562068Y-70460631D01*
X172609687Y-70484440D01*
X172681116Y-70484440D01*
X172728735Y-70460631D01*
X172752544Y-70436821D01*
X172990640Y-70484440D02*
X172990640Y-69984440D01*
X173204925Y-70484440D02*
X173204925Y-70222536D01*
X173181116Y-70174917D01*
X173133497Y-70151107D01*
X173062068Y-70151107D01*
X173014449Y-70174917D01*
X172990640Y-70198726D01*
X129385086Y-74020762D02*
X129385086Y-74187428D01*
X129646990Y-74187428D02*
X129146990Y-74187428D01*
X129146990Y-73949333D01*
X129146990Y-73758857D02*
X129551752Y-73758857D01*
X129599371Y-73735048D01*
X129623181Y-73711238D01*
X129646990Y-73663619D01*
X129646990Y-73568381D01*
X129623181Y-73520762D01*
X129599371Y-73496953D01*
X129551752Y-73473143D01*
X129146990Y-73473143D01*
X129623181Y-73258857D02*
X129646990Y-73187428D01*
X129646990Y-73068381D01*
X129623181Y-73020762D01*
X129599371Y-72996952D01*
X129551752Y-72973143D01*
X129504133Y-72973143D01*
X129456514Y-72996952D01*
X129432705Y-73020762D01*
X129408895Y-73068381D01*
X129385086Y-73163619D01*
X129361276Y-73211238D01*
X129337467Y-73235047D01*
X129289848Y-73258857D01*
X129242229Y-73258857D01*
X129194610Y-73235047D01*
X129170800Y-73211238D01*
X129146990Y-73163619D01*
X129146990Y-73044571D01*
X129170800Y-72973143D01*
X129385086Y-72758857D02*
X129385086Y-72592191D01*
X129646990Y-72520762D02*
X129646990Y-72758857D01*
X129146990Y-72758857D01*
X129146990Y-72520762D01*
X162706190Y-98281428D02*
X162706190Y-98519523D01*
X162206190Y-98519523D01*
X162444286Y-98114761D02*
X162444286Y-97948095D01*
X162706190Y-97876666D02*
X162706190Y-98114761D01*
X162206190Y-98114761D01*
X162206190Y-97876666D01*
X162706190Y-97662380D02*
X162206190Y-97662380D01*
X162206190Y-97543333D01*
X162230000Y-97471904D01*
X162277619Y-97424285D01*
X162325238Y-97400476D01*
X162420476Y-97376666D01*
X162491905Y-97376666D01*
X162587143Y-97400476D01*
X162634762Y-97424285D01*
X162682381Y-97471904D01*
X162706190Y-97543333D01*
X162706190Y-97662380D01*
X162706190Y-96481428D02*
X162706190Y-96719523D01*
X162206190Y-96719523D01*
X162444286Y-96314761D02*
X162444286Y-96148095D01*
X162706190Y-96076666D02*
X162706190Y-96314761D01*
X162206190Y-96314761D01*
X162206190Y-96076666D01*
X162706190Y-95862380D02*
X162206190Y-95862380D01*
X162206190Y-95743333D01*
X162230000Y-95671904D01*
X162277619Y-95624285D01*
X162325238Y-95600476D01*
X162420476Y-95576666D01*
X162491905Y-95576666D01*
X162587143Y-95600476D01*
X162634762Y-95624285D01*
X162682381Y-95671904D01*
X162706190Y-95743333D01*
X162706190Y-95862380D01*
X162756190Y-94731428D02*
X162756190Y-94969523D01*
X162256190Y-94969523D01*
X162494286Y-94564761D02*
X162494286Y-94398095D01*
X162756190Y-94326666D02*
X162756190Y-94564761D01*
X162256190Y-94564761D01*
X162256190Y-94326666D01*
X162756190Y-94112380D02*
X162256190Y-94112380D01*
X162256190Y-93993333D01*
X162280000Y-93921904D01*
X162327619Y-93874285D01*
X162375238Y-93850476D01*
X162470476Y-93826666D01*
X162541905Y-93826666D01*
X162637143Y-93850476D01*
X162684762Y-93874285D01*
X162732381Y-93921904D01*
X162756190Y-93993333D01*
X162756190Y-94112380D01*
X125408572Y-87986190D02*
X125170477Y-87986190D01*
X125170477Y-87486190D01*
X125575239Y-87724286D02*
X125741905Y-87724286D01*
X125813334Y-87986190D02*
X125575239Y-87986190D01*
X125575239Y-87486190D01*
X125813334Y-87486190D01*
X126027620Y-87986190D02*
X126027620Y-87486190D01*
X126146667Y-87486190D01*
X126218096Y-87510000D01*
X126265715Y-87557619D01*
X126289524Y-87605238D01*
X126313334Y-87700476D01*
X126313334Y-87771905D01*
X126289524Y-87867143D01*
X126265715Y-87914762D01*
X126218096Y-87962381D01*
X126146667Y-87986190D01*
X126027620Y-87986190D01*
X145106573Y-67741990D02*
X144820859Y-67741990D01*
X144963716Y-67741990D02*
X144963716Y-67241990D01*
X144916097Y-67313419D01*
X144868478Y-67361038D01*
X144820859Y-67384848D01*
X145535144Y-67408657D02*
X145535144Y-67741990D01*
X145320859Y-67408657D02*
X145320859Y-67670562D01*
X145344668Y-67718181D01*
X145392287Y-67741990D01*
X145463716Y-67741990D01*
X145511335Y-67718181D01*
X145535144Y-67694371D01*
X145701811Y-67408657D02*
X145892287Y-67408657D01*
X145773240Y-67741990D02*
X145773240Y-67313419D01*
X145797049Y-67265800D01*
X145844668Y-67241990D01*
X145892287Y-67241990D01*
X146701810Y-67741990D02*
X146416096Y-67741990D01*
X146558953Y-67741990D02*
X146558953Y-67241990D01*
X146511334Y-67313419D01*
X146463715Y-67361038D01*
X146416096Y-67384848D01*
X147011334Y-67241990D02*
X147058953Y-67241990D01*
X147106572Y-67265800D01*
X147130381Y-67289610D01*
X147154191Y-67337229D01*
X147178000Y-67432467D01*
X147178000Y-67551514D01*
X147154191Y-67646752D01*
X147130381Y-67694371D01*
X147106572Y-67718181D01*
X147058953Y-67741990D01*
X147011334Y-67741990D01*
X146963715Y-67718181D01*
X146939905Y-67694371D01*
X146916096Y-67646752D01*
X146892286Y-67551514D01*
X146892286Y-67432467D01*
X146916096Y-67337229D01*
X146939905Y-67289610D01*
X146963715Y-67265800D01*
X147011334Y-67241990D01*
X147487524Y-67241990D02*
X147535143Y-67241990D01*
X147582762Y-67265800D01*
X147606571Y-67289610D01*
X147630381Y-67337229D01*
X147654190Y-67432467D01*
X147654190Y-67551514D01*
X147630381Y-67646752D01*
X147606571Y-67694371D01*
X147582762Y-67718181D01*
X147535143Y-67741990D01*
X147487524Y-67741990D01*
X147439905Y-67718181D01*
X147416095Y-67694371D01*
X147392286Y-67646752D01*
X147368476Y-67551514D01*
X147368476Y-67432467D01*
X147392286Y-67337229D01*
X147416095Y-67289610D01*
X147439905Y-67265800D01*
X147487524Y-67241990D01*
X147820857Y-67408657D02*
X147939904Y-67741990D01*
X148058952Y-67408657D01*
X164811802Y-63019023D02*
X164811802Y-63352356D01*
X164692755Y-62828547D02*
X164573707Y-63185690D01*
X164883231Y-63185690D01*
X165026088Y-62852356D02*
X165359421Y-62852356D01*
X165145135Y-63352356D01*
X165764182Y-63019023D02*
X165764182Y-63352356D01*
X165549897Y-63019023D02*
X165549897Y-63280928D01*
X165573706Y-63328547D01*
X165621325Y-63352356D01*
X165692754Y-63352356D01*
X165740373Y-63328547D01*
X165764182Y-63304737D01*
X165930849Y-63019023D02*
X166121325Y-63019023D01*
X166002278Y-63352356D02*
X166002278Y-62923785D01*
X166026087Y-62876166D01*
X166073706Y-62852356D01*
X166121325Y-62852356D01*
X162349896Y-64928546D02*
X162349896Y-65214260D01*
X162349896Y-65071403D02*
X161849896Y-65071403D01*
X161921325Y-65119022D01*
X161968944Y-65166641D01*
X161992754Y-65214260D01*
X161849896Y-64619022D02*
X161849896Y-64571403D01*
X161873706Y-64523784D01*
X161897516Y-64499975D01*
X161945135Y-64476165D01*
X162040373Y-64452356D01*
X162159420Y-64452356D01*
X162254658Y-64476165D01*
X162302277Y-64499975D01*
X162326087Y-64523784D01*
X162349896Y-64571403D01*
X162349896Y-64619022D01*
X162326087Y-64666641D01*
X162302277Y-64690451D01*
X162254658Y-64714260D01*
X162159420Y-64738070D01*
X162040373Y-64738070D01*
X161945135Y-64714260D01*
X161897516Y-64690451D01*
X161873706Y-64666641D01*
X161849896Y-64619022D01*
X161849896Y-64142832D02*
X161849896Y-64095213D01*
X161873706Y-64047594D01*
X161897516Y-64023785D01*
X161945135Y-63999975D01*
X162040373Y-63976166D01*
X162159420Y-63976166D01*
X162254658Y-63999975D01*
X162302277Y-64023785D01*
X162326087Y-64047594D01*
X162349896Y-64095213D01*
X162349896Y-64142832D01*
X162326087Y-64190451D01*
X162302277Y-64214261D01*
X162254658Y-64238070D01*
X162159420Y-64261880D01*
X162040373Y-64261880D01*
X161945135Y-64238070D01*
X161897516Y-64214261D01*
X161873706Y-64190451D01*
X161849896Y-64142832D01*
X162016563Y-63761880D02*
X162349896Y-63761880D01*
X162064182Y-63761880D02*
X162040373Y-63738071D01*
X162016563Y-63690452D01*
X162016563Y-63619023D01*
X162040373Y-63571404D01*
X162087992Y-63547595D01*
X162349896Y-63547595D01*
X162016563Y-63380928D02*
X162016563Y-63190452D01*
X162349896Y-63309499D02*
X161921325Y-63309499D01*
X161873706Y-63285690D01*
X161849896Y-63238071D01*
X161849896Y-63190452D01*
X157376171Y-79555979D02*
X157399981Y-79532170D01*
X157423790Y-79555979D01*
X157399981Y-79579789D01*
X157376171Y-79555979D01*
X157423790Y-79555979D01*
X157423790Y-79055980D02*
X157423790Y-79341694D01*
X157423790Y-79198837D02*
X156923790Y-79198837D01*
X156995219Y-79246456D01*
X157042838Y-79294075D01*
X157066648Y-79341694D01*
X157090457Y-78627409D02*
X157423790Y-78627409D01*
X157090457Y-78841694D02*
X157352362Y-78841694D01*
X157399981Y-78817885D01*
X157423790Y-78770266D01*
X157423790Y-78698837D01*
X157399981Y-78651218D01*
X157376171Y-78627409D01*
X157090457Y-78460742D02*
X157090457Y-78270266D01*
X157423790Y-78389313D02*
X156995219Y-78389313D01*
X156947600Y-78365504D01*
X156923790Y-78317885D01*
X156923790Y-78270266D01*
X157423790Y-77460743D02*
X157423790Y-77746457D01*
X157423790Y-77603600D02*
X156923790Y-77603600D01*
X156995219Y-77651219D01*
X157042838Y-77698838D01*
X157066648Y-77746457D01*
X156923790Y-77151219D02*
X156923790Y-77103600D01*
X156947600Y-77055981D01*
X156971410Y-77032172D01*
X157019029Y-77008362D01*
X157114267Y-76984553D01*
X157233314Y-76984553D01*
X157328552Y-77008362D01*
X157376171Y-77032172D01*
X157399981Y-77055981D01*
X157423790Y-77103600D01*
X157423790Y-77151219D01*
X157399981Y-77198838D01*
X157376171Y-77222648D01*
X157328552Y-77246457D01*
X157233314Y-77270267D01*
X157114267Y-77270267D01*
X157019029Y-77246457D01*
X156971410Y-77222648D01*
X156947600Y-77198838D01*
X156923790Y-77151219D01*
X156923790Y-76675029D02*
X156923790Y-76627410D01*
X156947600Y-76579791D01*
X156971410Y-76555982D01*
X157019029Y-76532172D01*
X157114267Y-76508363D01*
X157233314Y-76508363D01*
X157328552Y-76532172D01*
X157376171Y-76555982D01*
X157399981Y-76579791D01*
X157423790Y-76627410D01*
X157423790Y-76675029D01*
X157399981Y-76722648D01*
X157376171Y-76746458D01*
X157328552Y-76770267D01*
X157233314Y-76794077D01*
X157114267Y-76794077D01*
X157019029Y-76770267D01*
X156971410Y-76746458D01*
X156947600Y-76722648D01*
X156923790Y-76675029D01*
X157090457Y-76341696D02*
X157423790Y-76222649D01*
X157090457Y-76103601D01*
X150719973Y-69215190D02*
X150434259Y-69215190D01*
X150577116Y-69215190D02*
X150577116Y-68715190D01*
X150529497Y-68786619D01*
X150481878Y-68834238D01*
X150434259Y-68858048D01*
X151148544Y-68881857D02*
X151148544Y-69215190D01*
X150934259Y-68881857D02*
X150934259Y-69143762D01*
X150958068Y-69191381D01*
X151005687Y-69215190D01*
X151077116Y-69215190D01*
X151124735Y-69191381D01*
X151148544Y-69167571D01*
X151315211Y-68881857D02*
X151505687Y-68881857D01*
X151386640Y-69215190D02*
X151386640Y-68786619D01*
X151410449Y-68739000D01*
X151458068Y-68715190D01*
X151505687Y-68715190D01*
X152315210Y-69215190D02*
X152029496Y-69215190D01*
X152172353Y-69215190D02*
X152172353Y-68715190D01*
X152124734Y-68786619D01*
X152077115Y-68834238D01*
X152029496Y-68858048D01*
X152624734Y-68715190D02*
X152672353Y-68715190D01*
X152719972Y-68739000D01*
X152743781Y-68762810D01*
X152767591Y-68810429D01*
X152791400Y-68905667D01*
X152791400Y-69024714D01*
X152767591Y-69119952D01*
X152743781Y-69167571D01*
X152719972Y-69191381D01*
X152672353Y-69215190D01*
X152624734Y-69215190D01*
X152577115Y-69191381D01*
X152553305Y-69167571D01*
X152529496Y-69119952D01*
X152505686Y-69024714D01*
X152505686Y-68905667D01*
X152529496Y-68810429D01*
X152553305Y-68762810D01*
X152577115Y-68739000D01*
X152624734Y-68715190D01*
X153100924Y-68715190D02*
X153148543Y-68715190D01*
X153196162Y-68739000D01*
X153219971Y-68762810D01*
X153243781Y-68810429D01*
X153267590Y-68905667D01*
X153267590Y-69024714D01*
X153243781Y-69119952D01*
X153219971Y-69167571D01*
X153196162Y-69191381D01*
X153148543Y-69215190D01*
X153100924Y-69215190D01*
X153053305Y-69191381D01*
X153029495Y-69167571D01*
X153005686Y-69119952D01*
X152981876Y-69024714D01*
X152981876Y-68905667D01*
X153005686Y-68810429D01*
X153029495Y-68762810D01*
X153053305Y-68739000D01*
X153100924Y-68715190D01*
X153434257Y-68881857D02*
X153553304Y-69215190D01*
X153672352Y-68881857D01*
X161873707Y-72199976D02*
X161897517Y-72176166D01*
X161945136Y-72152356D01*
X162064183Y-72152356D01*
X162111802Y-72176166D01*
X162135612Y-72199976D01*
X162159421Y-72247595D01*
X162159421Y-72295214D01*
X162135612Y-72366642D01*
X161849898Y-72652356D01*
X162159421Y-72652356D01*
X162349897Y-72199976D02*
X162373707Y-72176166D01*
X162421326Y-72152356D01*
X162540373Y-72152356D01*
X162587992Y-72176166D01*
X162611802Y-72199976D01*
X162635611Y-72247595D01*
X162635611Y-72295214D01*
X162611802Y-72366642D01*
X162326088Y-72652356D01*
X162635611Y-72652356D01*
X163064182Y-72319023D02*
X163064182Y-72652356D01*
X162849897Y-72319023D02*
X162849897Y-72580928D01*
X162873706Y-72628547D01*
X162921325Y-72652356D01*
X162992754Y-72652356D01*
X163040373Y-72628547D01*
X163064182Y-72604737D01*
X163230849Y-72319023D02*
X163421325Y-72319023D01*
X163302278Y-72652356D02*
X163302278Y-72223785D01*
X163326087Y-72176166D01*
X163373706Y-72152356D01*
X163421325Y-72152356D01*
X164250164Y-75208249D02*
X164226354Y-75184439D01*
X164202544Y-75136820D01*
X164202544Y-75017773D01*
X164226354Y-74970154D01*
X164250164Y-74946344D01*
X164297783Y-74922535D01*
X164345402Y-74922535D01*
X164416830Y-74946344D01*
X164702544Y-75232058D01*
X164702544Y-74922535D01*
X164250164Y-74732059D02*
X164226354Y-74708249D01*
X164202544Y-74660630D01*
X164202544Y-74541583D01*
X164226354Y-74493964D01*
X164250164Y-74470154D01*
X164297783Y-74446345D01*
X164345402Y-74446345D01*
X164416830Y-74470154D01*
X164702544Y-74755868D01*
X164702544Y-74446345D01*
X164369211Y-74017774D02*
X164702544Y-74017774D01*
X164369211Y-74232059D02*
X164631116Y-74232059D01*
X164678735Y-74208250D01*
X164702544Y-74160631D01*
X164702544Y-74089202D01*
X164678735Y-74041583D01*
X164654925Y-74017774D01*
X164369211Y-73851107D02*
X164369211Y-73660631D01*
X164702544Y-73779678D02*
X164273973Y-73779678D01*
X164226354Y-73755869D01*
X164202544Y-73708250D01*
X164202544Y-73660631D01*
X171673974Y-77434440D02*
X171388260Y-77434440D01*
X171531117Y-77434440D02*
X171531117Y-76934440D01*
X171483498Y-77005869D01*
X171435879Y-77053488D01*
X171388260Y-77077298D01*
X171983498Y-76934440D02*
X172031117Y-76934440D01*
X172078736Y-76958250D01*
X172102545Y-76982060D01*
X172126355Y-77029679D01*
X172150164Y-77124917D01*
X172150164Y-77243964D01*
X172126355Y-77339202D01*
X172102545Y-77386821D01*
X172078736Y-77410631D01*
X172031117Y-77434440D01*
X171983498Y-77434440D01*
X171935879Y-77410631D01*
X171912069Y-77386821D01*
X171888260Y-77339202D01*
X171864450Y-77243964D01*
X171864450Y-77124917D01*
X171888260Y-77029679D01*
X171912069Y-76982060D01*
X171935879Y-76958250D01*
X171983498Y-76934440D01*
X172459688Y-76934440D02*
X172507307Y-76934440D01*
X172554926Y-76958250D01*
X172578735Y-76982060D01*
X172602545Y-77029679D01*
X172626354Y-77124917D01*
X172626354Y-77243964D01*
X172602545Y-77339202D01*
X172578735Y-77386821D01*
X172554926Y-77410631D01*
X172507307Y-77434440D01*
X172459688Y-77434440D01*
X172412069Y-77410631D01*
X172388259Y-77386821D01*
X172364450Y-77339202D01*
X172340640Y-77243964D01*
X172340640Y-77124917D01*
X172364450Y-77029679D01*
X172388259Y-76982060D01*
X172412069Y-76958250D01*
X172459688Y-76934440D01*
X172840640Y-77101107D02*
X172840640Y-77434440D01*
X172840640Y-77148726D02*
X172864449Y-77124917D01*
X172912068Y-77101107D01*
X172983497Y-77101107D01*
X173031116Y-77124917D01*
X173054925Y-77172536D01*
X173054925Y-77434440D01*
X173221592Y-77101107D02*
X173412068Y-77101107D01*
X173293021Y-77434440D02*
X173293021Y-77005869D01*
X173316830Y-76958250D01*
X173364449Y-76934440D01*
X173412068Y-76934440D01*
X176169211Y-74870154D02*
X176502544Y-74870154D01*
X175978735Y-74989201D02*
X176335878Y-75108249D01*
X176335878Y-74798725D01*
X176002544Y-74655868D02*
X176002544Y-74322535D01*
X176502544Y-74536821D01*
X176169211Y-73917774D02*
X176502544Y-73917774D01*
X176169211Y-74132059D02*
X176431116Y-74132059D01*
X176478735Y-74108250D01*
X176502544Y-74060631D01*
X176502544Y-73989202D01*
X176478735Y-73941583D01*
X176454925Y-73917774D01*
X176169211Y-73751107D02*
X176169211Y-73560631D01*
X176502544Y-73679678D02*
X176073973Y-73679678D01*
X176026354Y-73655869D01*
X176002544Y-73608250D01*
X176002544Y-73560631D01*
X127911781Y-117728190D02*
X127626067Y-117728190D01*
X127768924Y-117728190D02*
X127768924Y-117228190D01*
X127721305Y-117299619D01*
X127673686Y-117347238D01*
X127626067Y-117371048D01*
X128340352Y-117394857D02*
X128340352Y-117728190D01*
X128126067Y-117394857D02*
X128126067Y-117656762D01*
X128149876Y-117704381D01*
X128197495Y-117728190D01*
X128268924Y-117728190D01*
X128316543Y-117704381D01*
X128340352Y-117680571D01*
X128745114Y-117466286D02*
X128578448Y-117466286D01*
X128578448Y-117728190D02*
X128578448Y-117228190D01*
X128816543Y-117228190D01*
D13*
X138049410Y-137544286D02*
X138049410Y-137834572D01*
X138049410Y-137689429D02*
X137541410Y-137689429D01*
X137613981Y-137737810D01*
X137662362Y-137786191D01*
X137686552Y-137834572D01*
X137541410Y-137229810D02*
X137541410Y-137181429D01*
X137565600Y-137133048D01*
X137589790Y-137108857D01*
X137638171Y-137084667D01*
X137734933Y-137060476D01*
X137855886Y-137060476D01*
X137952648Y-137084667D01*
X138001029Y-137108857D01*
X138025219Y-137133048D01*
X138049410Y-137181429D01*
X138049410Y-137229810D01*
X138025219Y-137278191D01*
X138001029Y-137302381D01*
X137952648Y-137326572D01*
X137855886Y-137350762D01*
X137734933Y-137350762D01*
X137638171Y-137326572D01*
X137589790Y-137302381D01*
X137565600Y-137278191D01*
X137541410Y-137229810D01*
X137710743Y-136625047D02*
X138049410Y-136625047D01*
X137710743Y-136842762D02*
X137976838Y-136842762D01*
X138025219Y-136818571D01*
X138049410Y-136770190D01*
X138049410Y-136697619D01*
X138025219Y-136649238D01*
X138001029Y-136625047D01*
X137783314Y-136213809D02*
X137783314Y-136383143D01*
X138049410Y-136383143D02*
X137541410Y-136383143D01*
X137541410Y-136141238D01*
X138051829Y-135414029D02*
X138076019Y-135389838D01*
X138100210Y-135414029D01*
X138076019Y-135438219D01*
X138051829Y-135414029D01*
X138100210Y-135414029D01*
X138100210Y-134906028D02*
X138100210Y-135196314D01*
X138100210Y-135051171D02*
X137592210Y-135051171D01*
X137664781Y-135099552D01*
X137713162Y-135147933D01*
X137737352Y-135196314D01*
X137761543Y-134470599D02*
X138100210Y-134470599D01*
X137761543Y-134688314D02*
X138027638Y-134688314D01*
X138076019Y-134664123D01*
X138100210Y-134615742D01*
X138100210Y-134543171D01*
X138076019Y-134494790D01*
X138051829Y-134470599D01*
X137834114Y-134059361D02*
X137834114Y-134228695D01*
X138100210Y-134228695D02*
X137592210Y-134228695D01*
X137592210Y-133986790D01*
X170498819Y-125973610D02*
X170208533Y-125973610D01*
X170353676Y-125973610D02*
X170353676Y-125465610D01*
X170305295Y-125538181D01*
X170256914Y-125586562D01*
X170208533Y-125610752D01*
X170934248Y-125634943D02*
X170934248Y-125973610D01*
X170716533Y-125634943D02*
X170716533Y-125901038D01*
X170740724Y-125949419D01*
X170789105Y-125973610D01*
X170861676Y-125973610D01*
X170910057Y-125949419D01*
X170934248Y-125925229D01*
X171345486Y-125707514D02*
X171176152Y-125707514D01*
X171176152Y-125973610D02*
X171176152Y-125465610D01*
X171418057Y-125465610D01*
D12*
X130877491Y-123744290D02*
X130591777Y-123744290D01*
X130734634Y-123744290D02*
X130734634Y-123244290D01*
X130687015Y-123315719D01*
X130639396Y-123363338D01*
X130591777Y-123387148D01*
X131187015Y-123244290D02*
X131234634Y-123244290D01*
X131282253Y-123268100D01*
X131306062Y-123291910D01*
X131329872Y-123339529D01*
X131353681Y-123434767D01*
X131353681Y-123553814D01*
X131329872Y-123649052D01*
X131306062Y-123696671D01*
X131282253Y-123720481D01*
X131234634Y-123744290D01*
X131187015Y-123744290D01*
X131139396Y-123720481D01*
X131115586Y-123696671D01*
X131091777Y-123649052D01*
X131067967Y-123553814D01*
X131067967Y-123434767D01*
X131091777Y-123339529D01*
X131115586Y-123291910D01*
X131139396Y-123268100D01*
X131187015Y-123244290D01*
X131663205Y-123244290D02*
X131710824Y-123244290D01*
X131758443Y-123268100D01*
X131782252Y-123291910D01*
X131806062Y-123339529D01*
X131829871Y-123434767D01*
X131829871Y-123553814D01*
X131806062Y-123649052D01*
X131782252Y-123696671D01*
X131758443Y-123720481D01*
X131710824Y-123744290D01*
X131663205Y-123744290D01*
X131615586Y-123720481D01*
X131591776Y-123696671D01*
X131567967Y-123649052D01*
X131544157Y-123553814D01*
X131544157Y-123434767D01*
X131567967Y-123339529D01*
X131591776Y-123291910D01*
X131615586Y-123268100D01*
X131663205Y-123244290D01*
X132044157Y-123410957D02*
X132044157Y-123744290D01*
X132044157Y-123458576D02*
X132067966Y-123434767D01*
X132115585Y-123410957D01*
X132187014Y-123410957D01*
X132234633Y-123434767D01*
X132258442Y-123482386D01*
X132258442Y-123744290D01*
X132663204Y-123482386D02*
X132496538Y-123482386D01*
X132496538Y-123744290D02*
X132496538Y-123244290D01*
X132734633Y-123244290D01*
X184634857Y-62325380D02*
X184968190Y-62325380D01*
X184444381Y-62444427D02*
X184801524Y-62563475D01*
X184801524Y-62253951D01*
X184920571Y-62063475D02*
X184944381Y-62039666D01*
X184968190Y-62063475D01*
X184944381Y-62087285D01*
X184920571Y-62063475D01*
X184968190Y-62063475D01*
X184468190Y-61872999D02*
X184468190Y-61539666D01*
X184968190Y-61753952D01*
X184634857Y-61134905D02*
X184968190Y-61134905D01*
X184634857Y-61349190D02*
X184896762Y-61349190D01*
X184944381Y-61325381D01*
X184968190Y-61277762D01*
X184968190Y-61206333D01*
X184944381Y-61158714D01*
X184920571Y-61134905D01*
X184706286Y-60730143D02*
X184706286Y-60896809D01*
X184968190Y-60896809D02*
X184468190Y-60896809D01*
X184468190Y-60658714D01*
X133519091Y-127515490D02*
X133233377Y-127515490D01*
X133376234Y-127515490D02*
X133376234Y-127015490D01*
X133328615Y-127086919D01*
X133280996Y-127134538D01*
X133233377Y-127158348D01*
X133828615Y-127015490D02*
X133876234Y-127015490D01*
X133923853Y-127039300D01*
X133947662Y-127063110D01*
X133971472Y-127110729D01*
X133995281Y-127205967D01*
X133995281Y-127325014D01*
X133971472Y-127420252D01*
X133947662Y-127467871D01*
X133923853Y-127491681D01*
X133876234Y-127515490D01*
X133828615Y-127515490D01*
X133780996Y-127491681D01*
X133757186Y-127467871D01*
X133733377Y-127420252D01*
X133709567Y-127325014D01*
X133709567Y-127205967D01*
X133733377Y-127110729D01*
X133757186Y-127063110D01*
X133780996Y-127039300D01*
X133828615Y-127015490D01*
X134304805Y-127015490D02*
X134352424Y-127015490D01*
X134400043Y-127039300D01*
X134423852Y-127063110D01*
X134447662Y-127110729D01*
X134471471Y-127205967D01*
X134471471Y-127325014D01*
X134447662Y-127420252D01*
X134423852Y-127467871D01*
X134400043Y-127491681D01*
X134352424Y-127515490D01*
X134304805Y-127515490D01*
X134257186Y-127491681D01*
X134233376Y-127467871D01*
X134209567Y-127420252D01*
X134185757Y-127325014D01*
X134185757Y-127205967D01*
X134209567Y-127110729D01*
X134233376Y-127063110D01*
X134257186Y-127039300D01*
X134304805Y-127015490D01*
X134685757Y-127182157D02*
X134685757Y-127515490D01*
X134685757Y-127229776D02*
X134709566Y-127205967D01*
X134757185Y-127182157D01*
X134828614Y-127182157D01*
X134876233Y-127205967D01*
X134900042Y-127253586D01*
X134900042Y-127515490D01*
X135304804Y-127253586D02*
X135138138Y-127253586D01*
X135138138Y-127515490D02*
X135138138Y-127015490D01*
X135376233Y-127015490D01*
X126619786Y-123654690D02*
X126334072Y-123654690D01*
X126476929Y-123654690D02*
X126476929Y-123154690D01*
X126429310Y-123226119D01*
X126381691Y-123273738D01*
X126334072Y-123297548D01*
X126929310Y-123154690D02*
X126976929Y-123154690D01*
X127024548Y-123178500D01*
X127048357Y-123202310D01*
X127072167Y-123249929D01*
X127095976Y-123345167D01*
X127095976Y-123464214D01*
X127072167Y-123559452D01*
X127048357Y-123607071D01*
X127024548Y-123630881D01*
X126976929Y-123654690D01*
X126929310Y-123654690D01*
X126881691Y-123630881D01*
X126857881Y-123607071D01*
X126834072Y-123559452D01*
X126810262Y-123464214D01*
X126810262Y-123345167D01*
X126834072Y-123249929D01*
X126857881Y-123202310D01*
X126881691Y-123178500D01*
X126929310Y-123154690D01*
X127310262Y-123321357D02*
X127310262Y-123654690D01*
X127310262Y-123368976D02*
X127334071Y-123345167D01*
X127381690Y-123321357D01*
X127453119Y-123321357D01*
X127500738Y-123345167D01*
X127524547Y-123392786D01*
X127524547Y-123654690D01*
X127929309Y-123392786D02*
X127762643Y-123392786D01*
X127762643Y-123654690D02*
X127762643Y-123154690D01*
X128000738Y-123154690D01*
X136084491Y-123693490D02*
X135798777Y-123693490D01*
X135941634Y-123693490D02*
X135941634Y-123193490D01*
X135894015Y-123264919D01*
X135846396Y-123312538D01*
X135798777Y-123336348D01*
X136394015Y-123193490D02*
X136441634Y-123193490D01*
X136489253Y-123217300D01*
X136513062Y-123241110D01*
X136536872Y-123288729D01*
X136560681Y-123383967D01*
X136560681Y-123503014D01*
X136536872Y-123598252D01*
X136513062Y-123645871D01*
X136489253Y-123669681D01*
X136441634Y-123693490D01*
X136394015Y-123693490D01*
X136346396Y-123669681D01*
X136322586Y-123645871D01*
X136298777Y-123598252D01*
X136274967Y-123503014D01*
X136274967Y-123383967D01*
X136298777Y-123288729D01*
X136322586Y-123241110D01*
X136346396Y-123217300D01*
X136394015Y-123193490D01*
X136870205Y-123193490D02*
X136917824Y-123193490D01*
X136965443Y-123217300D01*
X136989252Y-123241110D01*
X137013062Y-123288729D01*
X137036871Y-123383967D01*
X137036871Y-123503014D01*
X137013062Y-123598252D01*
X136989252Y-123645871D01*
X136965443Y-123669681D01*
X136917824Y-123693490D01*
X136870205Y-123693490D01*
X136822586Y-123669681D01*
X136798776Y-123645871D01*
X136774967Y-123598252D01*
X136751157Y-123503014D01*
X136751157Y-123383967D01*
X136774967Y-123288729D01*
X136798776Y-123241110D01*
X136822586Y-123217300D01*
X136870205Y-123193490D01*
X137251157Y-123360157D02*
X137251157Y-123693490D01*
X137251157Y-123407776D02*
X137274966Y-123383967D01*
X137322585Y-123360157D01*
X137394014Y-123360157D01*
X137441633Y-123383967D01*
X137465442Y-123431586D01*
X137465442Y-123693490D01*
X137870204Y-123431586D02*
X137703538Y-123431586D01*
X137703538Y-123693490D02*
X137703538Y-123193490D01*
X137941633Y-123193490D01*
D13*
X123077518Y-116997241D02*
X123077518Y-117287527D01*
X123077518Y-117142384D02*
X122569518Y-117142384D01*
X122642089Y-117190765D01*
X122690470Y-117239146D01*
X122714660Y-117287527D01*
X122569518Y-116682765D02*
X122569518Y-116634384D01*
X122593708Y-116586003D01*
X122617898Y-116561812D01*
X122666279Y-116537622D01*
X122763041Y-116513431D01*
X122883994Y-116513431D01*
X122980756Y-116537622D01*
X123029137Y-116561812D01*
X123053327Y-116586003D01*
X123077518Y-116634384D01*
X123077518Y-116682765D01*
X123053327Y-116731146D01*
X123029137Y-116755336D01*
X122980756Y-116779527D01*
X122883994Y-116803717D01*
X122763041Y-116803717D01*
X122666279Y-116779527D01*
X122617898Y-116755336D01*
X122593708Y-116731146D01*
X122569518Y-116682765D01*
X122569518Y-116198955D02*
X122569518Y-116150574D01*
X122593708Y-116102193D01*
X122617898Y-116078002D01*
X122666279Y-116053812D01*
X122763041Y-116029621D01*
X122883994Y-116029621D01*
X122980756Y-116053812D01*
X123029137Y-116078002D01*
X123053327Y-116102193D01*
X123077518Y-116150574D01*
X123077518Y-116198955D01*
X123053327Y-116247336D01*
X123029137Y-116271526D01*
X122980756Y-116295717D01*
X122883994Y-116319907D01*
X122763041Y-116319907D01*
X122666279Y-116295717D01*
X122617898Y-116271526D01*
X122593708Y-116247336D01*
X122569518Y-116198955D01*
X122738851Y-115811907D02*
X123077518Y-115811907D01*
X122787232Y-115811907D02*
X122763041Y-115787716D01*
X122738851Y-115739335D01*
X122738851Y-115666764D01*
X122763041Y-115618383D01*
X122811422Y-115594192D01*
X123077518Y-115594192D01*
X122811422Y-115182954D02*
X122811422Y-115352288D01*
X123077518Y-115352288D02*
X122569518Y-115352288D01*
X122569518Y-115110383D01*
X123039418Y-114317541D02*
X123039418Y-114607827D01*
X123039418Y-114462684D02*
X122531418Y-114462684D01*
X122603989Y-114511065D01*
X122652370Y-114559446D01*
X122676560Y-114607827D01*
X122531418Y-114003065D02*
X122531418Y-113954684D01*
X122555608Y-113906303D01*
X122579798Y-113882112D01*
X122628179Y-113857922D01*
X122724941Y-113833731D01*
X122845894Y-113833731D01*
X122942656Y-113857922D01*
X122991037Y-113882112D01*
X123015227Y-113906303D01*
X123039418Y-113954684D01*
X123039418Y-114003065D01*
X123015227Y-114051446D01*
X122991037Y-114075636D01*
X122942656Y-114099827D01*
X122845894Y-114124017D01*
X122724941Y-114124017D01*
X122628179Y-114099827D01*
X122579798Y-114075636D01*
X122555608Y-114051446D01*
X122531418Y-114003065D01*
X122531418Y-113519255D02*
X122531418Y-113470874D01*
X122555608Y-113422493D01*
X122579798Y-113398302D01*
X122628179Y-113374112D01*
X122724941Y-113349921D01*
X122845894Y-113349921D01*
X122942656Y-113374112D01*
X122991037Y-113398302D01*
X123015227Y-113422493D01*
X123039418Y-113470874D01*
X123039418Y-113519255D01*
X123015227Y-113567636D01*
X122991037Y-113591826D01*
X122942656Y-113616017D01*
X122845894Y-113640207D01*
X122724941Y-113640207D01*
X122628179Y-113616017D01*
X122579798Y-113591826D01*
X122555608Y-113567636D01*
X122531418Y-113519255D01*
X122700751Y-113132207D02*
X123039418Y-113132207D01*
X122749132Y-113132207D02*
X122724941Y-113108016D01*
X122700751Y-113059635D01*
X122700751Y-112987064D01*
X122724941Y-112938683D01*
X122773322Y-112914492D01*
X123039418Y-112914492D01*
X122773322Y-112503254D02*
X122773322Y-112672588D01*
X123039418Y-112672588D02*
X122531418Y-112672588D01*
X122531418Y-112430683D01*
D12*
X135351430Y-95688571D02*
X135375239Y-95712381D01*
X135351430Y-95736190D01*
X135327620Y-95712381D01*
X135351430Y-95688571D01*
X135351430Y-95736190D01*
X135851429Y-95736190D02*
X135565715Y-95736190D01*
X135708572Y-95736190D02*
X135708572Y-95236190D01*
X135660953Y-95307619D01*
X135613334Y-95355238D01*
X135565715Y-95379048D01*
X136280000Y-95402857D02*
X136280000Y-95736190D01*
X136065715Y-95402857D02*
X136065715Y-95664762D01*
X136089524Y-95712381D01*
X136137143Y-95736190D01*
X136208572Y-95736190D01*
X136256191Y-95712381D01*
X136280000Y-95688571D01*
X136684762Y-95474286D02*
X136518096Y-95474286D01*
X136518096Y-95736190D02*
X136518096Y-95236190D01*
X136756191Y-95236190D01*
X143003810Y-89050475D02*
X142980000Y-89026665D01*
X142956190Y-88979046D01*
X142956190Y-88859999D01*
X142980000Y-88812380D01*
X143003810Y-88788570D01*
X143051429Y-88764761D01*
X143099048Y-88764761D01*
X143170476Y-88788570D01*
X143456190Y-89074284D01*
X143456190Y-88764761D01*
X143408571Y-88550475D02*
X143432381Y-88526666D01*
X143456190Y-88550475D01*
X143432381Y-88574285D01*
X143408571Y-88550475D01*
X143456190Y-88550475D01*
X143003810Y-88336190D02*
X142980000Y-88312380D01*
X142956190Y-88264761D01*
X142956190Y-88145714D01*
X142980000Y-88098095D01*
X143003810Y-88074285D01*
X143051429Y-88050476D01*
X143099048Y-88050476D01*
X143170476Y-88074285D01*
X143456190Y-88359999D01*
X143456190Y-88050476D01*
X143122857Y-87621905D02*
X143456190Y-87621905D01*
X143122857Y-87836190D02*
X143384762Y-87836190D01*
X143432381Y-87812381D01*
X143456190Y-87764762D01*
X143456190Y-87693333D01*
X143432381Y-87645714D01*
X143408571Y-87621905D01*
X143194286Y-87217143D02*
X143194286Y-87383809D01*
X143456190Y-87383809D02*
X142956190Y-87383809D01*
X142956190Y-87145714D01*
X134130781Y-99938390D02*
X133845067Y-99938390D01*
X133987924Y-99938390D02*
X133987924Y-99438390D01*
X133940305Y-99509819D01*
X133892686Y-99557438D01*
X133845067Y-99581248D01*
X134559352Y-99605057D02*
X134559352Y-99938390D01*
X134345067Y-99605057D02*
X134345067Y-99866962D01*
X134368876Y-99914581D01*
X134416495Y-99938390D01*
X134487924Y-99938390D01*
X134535543Y-99914581D01*
X134559352Y-99890771D01*
X134964114Y-99676486D02*
X134797448Y-99676486D01*
X134797448Y-99938390D02*
X134797448Y-99438390D01*
X135035543Y-99438390D01*
X148956190Y-88607619D02*
X148956190Y-88893333D01*
X148956190Y-88750476D02*
X148456190Y-88750476D01*
X148527619Y-88798095D01*
X148575238Y-88845714D01*
X148599048Y-88893333D01*
X148622857Y-88179048D02*
X148956190Y-88179048D01*
X148622857Y-88393333D02*
X148884762Y-88393333D01*
X148932381Y-88369524D01*
X148956190Y-88321905D01*
X148956190Y-88250476D01*
X148932381Y-88202857D01*
X148908571Y-88179048D01*
X148694286Y-87774286D02*
X148694286Y-87940952D01*
X148956190Y-87940952D02*
X148456190Y-87940952D01*
X148456190Y-87702857D01*
X147520790Y-108133319D02*
X147520790Y-108419033D01*
X147520790Y-108276176D02*
X147020790Y-108276176D01*
X147092219Y-108323795D01*
X147139838Y-108371414D01*
X147163648Y-108419033D01*
X147187457Y-107704748D02*
X147520790Y-107704748D01*
X147187457Y-107919033D02*
X147449362Y-107919033D01*
X147496981Y-107895224D01*
X147520790Y-107847605D01*
X147520790Y-107776176D01*
X147496981Y-107728557D01*
X147473171Y-107704748D01*
X147258886Y-107299986D02*
X147258886Y-107466652D01*
X147520790Y-107466652D02*
X147020790Y-107466652D01*
X147020790Y-107228557D01*
D13*
X134049819Y-103777410D02*
X133759533Y-103777410D01*
X133904676Y-103777410D02*
X133904676Y-103269410D01*
X133856295Y-103341981D01*
X133807914Y-103390362D01*
X133759533Y-103414552D01*
X134485248Y-103438743D02*
X134485248Y-103777410D01*
X134267533Y-103438743D02*
X134267533Y-103704838D01*
X134291724Y-103753219D01*
X134340105Y-103777410D01*
X134412676Y-103777410D01*
X134461057Y-103753219D01*
X134485248Y-103729029D01*
X134896486Y-103511314D02*
X134727152Y-103511314D01*
X134727152Y-103777410D02*
X134727152Y-103269410D01*
X134969057Y-103269410D01*
D12*
X128981986Y-123769690D02*
X128696272Y-123769690D01*
X128839129Y-123769690D02*
X128839129Y-123269690D01*
X128791510Y-123341119D01*
X128743891Y-123388738D01*
X128696272Y-123412548D01*
X129291510Y-123269690D02*
X129339129Y-123269690D01*
X129386748Y-123293500D01*
X129410557Y-123317310D01*
X129434367Y-123364929D01*
X129458176Y-123460167D01*
X129458176Y-123579214D01*
X129434367Y-123674452D01*
X129410557Y-123722071D01*
X129386748Y-123745881D01*
X129339129Y-123769690D01*
X129291510Y-123769690D01*
X129243891Y-123745881D01*
X129220081Y-123722071D01*
X129196272Y-123674452D01*
X129172462Y-123579214D01*
X129172462Y-123460167D01*
X129196272Y-123364929D01*
X129220081Y-123317310D01*
X129243891Y-123293500D01*
X129291510Y-123269690D01*
X129886747Y-123436357D02*
X129886747Y-123769690D01*
X129672462Y-123436357D02*
X129672462Y-123698262D01*
X129696271Y-123745881D01*
X129743890Y-123769690D01*
X129815319Y-123769690D01*
X129862938Y-123745881D01*
X129886747Y-123722071D01*
X130291509Y-123507786D02*
X130124843Y-123507786D01*
X130124843Y-123769690D02*
X130124843Y-123269690D01*
X130362938Y-123269690D01*
X154166590Y-105998818D02*
X153666590Y-105998818D01*
X154023733Y-105832152D01*
X153666590Y-105665485D01*
X154166590Y-105665485D01*
X154166590Y-105427389D02*
X153666590Y-105427389D01*
X154023733Y-105260723D01*
X153666590Y-105094056D01*
X154166590Y-105094056D01*
X154214210Y-104522627D02*
X154190400Y-104570246D01*
X154142781Y-104617865D01*
X154071352Y-104689294D01*
X154047543Y-104736913D01*
X154047543Y-104784532D01*
X154166590Y-104760722D02*
X154142781Y-104808341D01*
X154095162Y-104855960D01*
X153999924Y-104879770D01*
X153833257Y-104879770D01*
X153738019Y-104855960D01*
X153690400Y-104808341D01*
X153666590Y-104760722D01*
X153666590Y-104665484D01*
X153690400Y-104617865D01*
X153738019Y-104570246D01*
X153833257Y-104546437D01*
X153999924Y-104546437D01*
X154095162Y-104570246D01*
X154142781Y-104617865D01*
X154166590Y-104665484D01*
X154166590Y-104760722D01*
X154023733Y-104355960D02*
X154023733Y-104117865D01*
X154166590Y-104403579D02*
X153666590Y-104236912D01*
X154166590Y-104070246D01*
X153666590Y-103689294D02*
X153666590Y-103784532D01*
X153690400Y-103832151D01*
X153714210Y-103855960D01*
X153785638Y-103903579D01*
X153880876Y-103927389D01*
X154071352Y-103927389D01*
X154118971Y-103903579D01*
X154142781Y-103879770D01*
X154166590Y-103832151D01*
X154166590Y-103736913D01*
X154142781Y-103689294D01*
X154118971Y-103665484D01*
X154071352Y-103641675D01*
X153952305Y-103641675D01*
X153904686Y-103665484D01*
X153880876Y-103689294D01*
X153857067Y-103736913D01*
X153857067Y-103832151D01*
X153880876Y-103879770D01*
X153904686Y-103903579D01*
X153952305Y-103927389D01*
X153666590Y-103498818D02*
X154166590Y-103332151D01*
X153666590Y-103165485D01*
X153714210Y-103022628D02*
X153690400Y-102998818D01*
X153666590Y-102951199D01*
X153666590Y-102832152D01*
X153690400Y-102784533D01*
X153714210Y-102760723D01*
X153761829Y-102736914D01*
X153809448Y-102736914D01*
X153880876Y-102760723D01*
X154166590Y-103046437D01*
X154166590Y-102736914D01*
X153666590Y-102594057D02*
X153666590Y-102308343D01*
X154166590Y-102451200D02*
X153666590Y-102451200D01*
X154166590Y-101879772D02*
X154166590Y-102165486D01*
X154166590Y-102022629D02*
X153666590Y-102022629D01*
X153738019Y-102070248D01*
X153785638Y-102117867D01*
X153809448Y-102165486D01*
X153690400Y-101403582D02*
X153666590Y-101451201D01*
X153666590Y-101522629D01*
X153690400Y-101594058D01*
X153738019Y-101641677D01*
X153785638Y-101665486D01*
X153880876Y-101689296D01*
X153952305Y-101689296D01*
X154047543Y-101665486D01*
X154095162Y-101641677D01*
X154142781Y-101594058D01*
X154166590Y-101522629D01*
X154166590Y-101475010D01*
X154142781Y-101403582D01*
X154118971Y-101379772D01*
X153952305Y-101379772D01*
X153952305Y-101475010D01*
D13*
X142672723Y-121525419D02*
X142745294Y-121549610D01*
X142866247Y-121549610D01*
X142914628Y-121525419D01*
X142938818Y-121501229D01*
X142963009Y-121452848D01*
X142963009Y-121404467D01*
X142938818Y-121356086D01*
X142914628Y-121331895D01*
X142866247Y-121307705D01*
X142769485Y-121283514D01*
X142721104Y-121259324D01*
X142696913Y-121235133D01*
X142672723Y-121186752D01*
X142672723Y-121138371D01*
X142696913Y-121089990D01*
X142721104Y-121065800D01*
X142769485Y-121041610D01*
X142890437Y-121041610D01*
X142963009Y-121065800D01*
X143471009Y-121501229D02*
X143446819Y-121525419D01*
X143374247Y-121549610D01*
X143325866Y-121549610D01*
X143253295Y-121525419D01*
X143204914Y-121477038D01*
X143180723Y-121428657D01*
X143156533Y-121331895D01*
X143156533Y-121259324D01*
X143180723Y-121162562D01*
X143204914Y-121114181D01*
X143253295Y-121065800D01*
X143325866Y-121041610D01*
X143374247Y-121041610D01*
X143446819Y-121065800D01*
X143471009Y-121089990D01*
X143688723Y-121549610D02*
X143688723Y-121041610D01*
X143688723Y-121283514D02*
X143979009Y-121283514D01*
X143979009Y-121549610D02*
X143979009Y-121041610D01*
X144196723Y-121404467D02*
X144438628Y-121404467D01*
X144148342Y-121549610D02*
X144317675Y-121041610D01*
X144487009Y-121549610D01*
X144874057Y-121210943D02*
X144874057Y-121549610D01*
X144753104Y-121017419D02*
X144632152Y-121380276D01*
X144946628Y-121380276D01*
X145309486Y-121283514D02*
X145382057Y-121307705D01*
X145406248Y-121331895D01*
X145430438Y-121380276D01*
X145430438Y-121452848D01*
X145406248Y-121501229D01*
X145382057Y-121525419D01*
X145333676Y-121549610D01*
X145140152Y-121549610D01*
X145140152Y-121041610D01*
X145309486Y-121041610D01*
X145357867Y-121065800D01*
X145382057Y-121089990D01*
X145406248Y-121138371D01*
X145406248Y-121186752D01*
X145382057Y-121235133D01*
X145357867Y-121259324D01*
X145309486Y-121283514D01*
X145140152Y-121283514D01*
X145744914Y-121041610D02*
X145793295Y-121041610D01*
X145841676Y-121065800D01*
X145865867Y-121089990D01*
X145890057Y-121138371D01*
X145914248Y-121235133D01*
X145914248Y-121356086D01*
X145890057Y-121452848D01*
X145865867Y-121501229D01*
X145841676Y-121525419D01*
X145793295Y-121549610D01*
X145744914Y-121549610D01*
X145696533Y-121525419D01*
X145672343Y-121501229D01*
X145648152Y-121452848D01*
X145623962Y-121356086D01*
X145623962Y-121235133D01*
X145648152Y-121138371D01*
X145672343Y-121089990D01*
X145696533Y-121065800D01*
X145744914Y-121041610D01*
X146349677Y-121210943D02*
X146349677Y-121549610D01*
X146228724Y-121017419D02*
X146107772Y-121380276D01*
X146422248Y-121380276D01*
X146881868Y-121549610D02*
X146591582Y-121549610D01*
X146736725Y-121549610D02*
X146736725Y-121041610D01*
X146688344Y-121114181D01*
X146639963Y-121162562D01*
X146591582Y-121186752D01*
X147123773Y-121549610D02*
X147220535Y-121549610D01*
X147268916Y-121525419D01*
X147293106Y-121501229D01*
X147341487Y-121428657D01*
X147365678Y-121331895D01*
X147365678Y-121138371D01*
X147341487Y-121089990D01*
X147317297Y-121065800D01*
X147268916Y-121041610D01*
X147172154Y-121041610D01*
X147123773Y-121065800D01*
X147099582Y-121089990D01*
X147075392Y-121138371D01*
X147075392Y-121259324D01*
X147099582Y-121307705D01*
X147123773Y-121331895D01*
X147172154Y-121356086D01*
X147268916Y-121356086D01*
X147317297Y-121331895D01*
X147341487Y-121307705D01*
X147365678Y-121259324D01*
D12*
X147551190Y-73904552D02*
X147551190Y-73571219D01*
X148051190Y-73904552D01*
X148051190Y-73571219D01*
X147789286Y-73380743D02*
X147789286Y-73214077D01*
X148051190Y-73142648D02*
X148051190Y-73380743D01*
X147551190Y-73380743D01*
X147551190Y-73142648D01*
X148051190Y-72928362D02*
X147551190Y-72928362D01*
X148051190Y-72642648D01*
X147551190Y-72642648D01*
X147789286Y-72404552D02*
X147789286Y-72237886D01*
X148051190Y-72166457D02*
X148051190Y-72404552D01*
X147551190Y-72404552D01*
X147551190Y-72166457D01*
X148051190Y-71666457D02*
X147813095Y-71833124D01*
X148051190Y-71952171D02*
X147551190Y-71952171D01*
X147551190Y-71761695D01*
X147575000Y-71714076D01*
X147598810Y-71690267D01*
X147646429Y-71666457D01*
X147717857Y-71666457D01*
X147765476Y-71690267D01*
X147789286Y-71714076D01*
X147813095Y-71761695D01*
X147813095Y-71952171D01*
X139169190Y-81778552D02*
X139169190Y-81445219D01*
X139669190Y-81778552D01*
X139669190Y-81445219D01*
X139407286Y-81254743D02*
X139407286Y-81088077D01*
X139669190Y-81016648D02*
X139669190Y-81254743D01*
X139169190Y-81254743D01*
X139169190Y-81016648D01*
X139669190Y-80802362D02*
X139169190Y-80802362D01*
X139669190Y-80516648D01*
X139169190Y-80516648D01*
X139407286Y-80278552D02*
X139407286Y-80111886D01*
X139669190Y-80040457D02*
X139669190Y-80278552D01*
X139169190Y-80278552D01*
X139169190Y-80040457D01*
X139669190Y-79540457D02*
X139431095Y-79707124D01*
X139669190Y-79826171D02*
X139169190Y-79826171D01*
X139169190Y-79635695D01*
X139193000Y-79588076D01*
X139216810Y-79564267D01*
X139264429Y-79540457D01*
X139335857Y-79540457D01*
X139383476Y-79564267D01*
X139407286Y-79588076D01*
X139431095Y-79635695D01*
X139431095Y-79826171D01*
X161411590Y-77344883D02*
X160911590Y-77344883D01*
X160911590Y-77225836D01*
X160935400Y-77154407D01*
X160983019Y-77106788D01*
X161030638Y-77082979D01*
X161125876Y-77059169D01*
X161197305Y-77059169D01*
X161292543Y-77082979D01*
X161340162Y-77106788D01*
X161387781Y-77154407D01*
X161411590Y-77225836D01*
X161411590Y-77344883D01*
X161459210Y-76963931D02*
X161459210Y-76582979D01*
X161387781Y-76487741D02*
X161411590Y-76416312D01*
X161411590Y-76297265D01*
X161387781Y-76249646D01*
X161363971Y-76225836D01*
X161316352Y-76202027D01*
X161268733Y-76202027D01*
X161221114Y-76225836D01*
X161197305Y-76249646D01*
X161173495Y-76297265D01*
X161149686Y-76392503D01*
X161125876Y-76440122D01*
X161102067Y-76463931D01*
X161054448Y-76487741D01*
X161006829Y-76487741D01*
X160959210Y-76463931D01*
X160935400Y-76440122D01*
X160911590Y-76392503D01*
X160911590Y-76273455D01*
X160935400Y-76202027D01*
X161387781Y-75773456D02*
X161411590Y-75821075D01*
X161411590Y-75916313D01*
X161387781Y-75963932D01*
X161363971Y-75987741D01*
X161316352Y-76011551D01*
X161173495Y-76011551D01*
X161125876Y-75987741D01*
X161102067Y-75963932D01*
X161078257Y-75916313D01*
X161078257Y-75821075D01*
X161102067Y-75773456D01*
X161411590Y-75559170D02*
X160911590Y-75559170D01*
X161411590Y-75344885D02*
X161149686Y-75344885D01*
X161102067Y-75368694D01*
X161078257Y-75416313D01*
X161078257Y-75487742D01*
X161102067Y-75535361D01*
X161125876Y-75559170D01*
X161411590Y-75035361D02*
X161387781Y-75082980D01*
X161363971Y-75106789D01*
X161316352Y-75130599D01*
X161173495Y-75130599D01*
X161125876Y-75106789D01*
X161102067Y-75082980D01*
X161078257Y-75035361D01*
X161078257Y-74963932D01*
X161102067Y-74916313D01*
X161125876Y-74892504D01*
X161173495Y-74868694D01*
X161316352Y-74868694D01*
X161363971Y-74892504D01*
X161387781Y-74916313D01*
X161411590Y-74963932D01*
X161411590Y-75035361D01*
X161078257Y-74725837D02*
X161078257Y-74535361D01*
X160911590Y-74654408D02*
X161340162Y-74654408D01*
X161387781Y-74630599D01*
X161411590Y-74582980D01*
X161411590Y-74535361D01*
X161078257Y-74440123D02*
X161078257Y-74249647D01*
X160911590Y-74368694D02*
X161340162Y-74368694D01*
X161387781Y-74344885D01*
X161411590Y-74297266D01*
X161411590Y-74249647D01*
X161411590Y-74082980D02*
X160911590Y-74082980D01*
X161221114Y-74035361D02*
X161411590Y-73892504D01*
X161078257Y-73892504D02*
X161268733Y-74082980D01*
X161078257Y-73725837D02*
X161411590Y-73606790D01*
X161078257Y-73487742D02*
X161411590Y-73606790D01*
X161530638Y-73654409D01*
X161554448Y-73678218D01*
X161578257Y-73725837D01*
X161459210Y-73416314D02*
X161459210Y-73035362D01*
X161411590Y-72963933D02*
X161078257Y-72702029D01*
X161078257Y-72963933D02*
X161411590Y-72702029D01*
X160959210Y-72535362D02*
X160935400Y-72511552D01*
X160911590Y-72463933D01*
X160911590Y-72344886D01*
X160935400Y-72297267D01*
X160959210Y-72273457D01*
X161006829Y-72249648D01*
X161054448Y-72249648D01*
X161125876Y-72273457D01*
X161411590Y-72559171D01*
X161411590Y-72249648D01*
X161459210Y-72154410D02*
X161459210Y-71773458D01*
X161387781Y-71678220D02*
X161411590Y-71606791D01*
X161411590Y-71487744D01*
X161387781Y-71440125D01*
X161363971Y-71416315D01*
X161316352Y-71392506D01*
X161268733Y-71392506D01*
X161221114Y-71416315D01*
X161197305Y-71440125D01*
X161173495Y-71487744D01*
X161149686Y-71582982D01*
X161125876Y-71630601D01*
X161102067Y-71654410D01*
X161054448Y-71678220D01*
X161006829Y-71678220D01*
X160959210Y-71654410D01*
X160935400Y-71630601D01*
X160911590Y-71582982D01*
X160911590Y-71463934D01*
X160935400Y-71392506D01*
X161387781Y-70987744D02*
X161411590Y-71035363D01*
X161411590Y-71130601D01*
X161387781Y-71178220D01*
X161340162Y-71202030D01*
X161149686Y-71202030D01*
X161102067Y-71178220D01*
X161078257Y-71130601D01*
X161078257Y-71035363D01*
X161102067Y-70987744D01*
X161149686Y-70963935D01*
X161197305Y-70963935D01*
X161244924Y-71202030D01*
X161411590Y-70749649D02*
X161078257Y-70749649D01*
X161173495Y-70749649D02*
X161125876Y-70725840D01*
X161102067Y-70702030D01*
X161078257Y-70654411D01*
X161078257Y-70606792D01*
X161411590Y-70440125D02*
X161078257Y-70440125D01*
X160911590Y-70440125D02*
X160935400Y-70463935D01*
X160959210Y-70440125D01*
X160935400Y-70416316D01*
X160911590Y-70440125D01*
X160959210Y-70440125D01*
X161411590Y-69987745D02*
X161149686Y-69987745D01*
X161102067Y-70011554D01*
X161078257Y-70059173D01*
X161078257Y-70154411D01*
X161102067Y-70202030D01*
X161387781Y-69987745D02*
X161411590Y-70035364D01*
X161411590Y-70154411D01*
X161387781Y-70202030D01*
X161340162Y-70225840D01*
X161292543Y-70225840D01*
X161244924Y-70202030D01*
X161221114Y-70154411D01*
X161221114Y-70035364D01*
X161197305Y-69987745D01*
X161411590Y-69678221D02*
X161387781Y-69725840D01*
X161340162Y-69749649D01*
X160911590Y-69749649D01*
X161459210Y-69606792D02*
X161459210Y-69225840D01*
X161268733Y-69130602D02*
X161268733Y-68892507D01*
X161411590Y-69178221D02*
X160911590Y-69011554D01*
X161411590Y-68844888D01*
X161411590Y-68678221D02*
X160911590Y-68678221D01*
X161411590Y-68392507D02*
X161125876Y-68606793D01*
X160911590Y-68392507D02*
X161197305Y-68678221D01*
X161363971Y-67892507D02*
X161387781Y-67916317D01*
X161411590Y-67987745D01*
X161411590Y-68035364D01*
X161387781Y-68106793D01*
X161340162Y-68154412D01*
X161292543Y-68178221D01*
X161197305Y-68202031D01*
X161125876Y-68202031D01*
X161030638Y-68178221D01*
X160983019Y-68154412D01*
X160935400Y-68106793D01*
X160911590Y-68035364D01*
X160911590Y-67987745D01*
X160935400Y-67916317D01*
X160959210Y-67892507D01*
X141299705Y-71196390D02*
X141299705Y-70696390D01*
X141418752Y-70696390D01*
X141490181Y-70720200D01*
X141537800Y-70767819D01*
X141561609Y-70815438D01*
X141585419Y-70910676D01*
X141585419Y-70982105D01*
X141561609Y-71077343D01*
X141537800Y-71124962D01*
X141490181Y-71172581D01*
X141418752Y-71196390D01*
X141299705Y-71196390D01*
X141799705Y-71196390D02*
X141799705Y-70696390D01*
X142133038Y-70696390D02*
X142228276Y-70696390D01*
X142275895Y-70720200D01*
X142323514Y-70767819D01*
X142347323Y-70863057D01*
X142347323Y-71029724D01*
X142323514Y-71124962D01*
X142275895Y-71172581D01*
X142228276Y-71196390D01*
X142133038Y-71196390D01*
X142085419Y-71172581D01*
X142037800Y-71124962D01*
X142013990Y-71029724D01*
X142013990Y-70863057D01*
X142037800Y-70767819D01*
X142085419Y-70720200D01*
X142133038Y-70696390D01*
X142561610Y-71196390D02*
X142561610Y-70696390D01*
X142680657Y-70696390D01*
X142752086Y-70720200D01*
X142799705Y-70767819D01*
X142823514Y-70815438D01*
X142847324Y-70910676D01*
X142847324Y-70982105D01*
X142823514Y-71077343D01*
X142799705Y-71124962D01*
X142752086Y-71172581D01*
X142680657Y-71196390D01*
X142561610Y-71196390D01*
X143061610Y-70934486D02*
X143228276Y-70934486D01*
X143299705Y-71196390D02*
X143061610Y-71196390D01*
X143061610Y-70696390D01*
X143299705Y-70696390D01*
M02*
