G04 #@! TF.FileFunction,Copper,L2,Inr,Plane*
%FSLAX46Y46*%
G04 Gerber Fmt 4.6, Leading zero omitted, Abs format (unit mm)*
G04 Created by KiCad (PCBNEW 4.0.2-stable) date 4/8/2016 7:07:07 PM*
%MOMM*%
G01*
G04 APERTURE LIST*
%ADD10C,0.100000*%
%ADD11C,2.300000*%
%ADD12O,0.950000X1.250000*%
%ADD13O,1.550000X1.000000*%
%ADD14C,1.000000*%
%ADD15O,1.506220X3.014980*%
%ADD16R,1.200000X1.700000*%
%ADD17O,1.200000X1.700000*%
%ADD18C,1.700000*%
%ADD19C,3.500000*%
%ADD20C,6.000000*%
%ADD21C,0.508000*%
%ADD22C,0.600000*%
%ADD23C,0.250000*%
%ADD24C,0.500000*%
%ADD25C,2.000000*%
%ADD26C,1.000000*%
%ADD27C,0.254000*%
G04 APERTURE END LIST*
D10*
D11*
X157423600Y-89875200D03*
X151423600Y-87325200D03*
X163423600Y-87325200D03*
X151423600Y-75125200D03*
D12*
X88125740Y-70371700D03*
X88125740Y-75371700D03*
D13*
X85425740Y-69371700D03*
X85425740Y-76371700D03*
D14*
X99136200Y-84277200D03*
X100406200Y-84277200D03*
X99136200Y-83007200D03*
X100406200Y-83007200D03*
X99136200Y-81737200D03*
X100406200Y-81737200D03*
X99136200Y-80467200D03*
X100406200Y-80467200D03*
X99136200Y-79197200D03*
X100406200Y-79197200D03*
D15*
X122224800Y-54279800D03*
X124764800Y-54279800D03*
X127939800Y-54279800D03*
X130479800Y-54279800D03*
X133553200Y-54254400D03*
X136093200Y-54254400D03*
D11*
X157409400Y-103647400D03*
X163409400Y-106197400D03*
X151409400Y-106197400D03*
X163409400Y-118397400D03*
D16*
X140246100Y-53454300D03*
D17*
X142246100Y-53454300D03*
X144246100Y-53454300D03*
X146246100Y-53454300D03*
D16*
X151295100Y-53454300D03*
D17*
X153295100Y-53454300D03*
X155295100Y-53454300D03*
X157295100Y-53454300D03*
D16*
X162420300Y-53454300D03*
D17*
X164420300Y-53454300D03*
X166420300Y-53454300D03*
X168420300Y-53454300D03*
D16*
X173545500Y-53454300D03*
D17*
X175545500Y-53454300D03*
X177545500Y-53454300D03*
X179545500Y-53454300D03*
D18*
X96175000Y-115826600D03*
X96175000Y-119326600D03*
D19*
X88265000Y-117576600D03*
D18*
X172339000Y-76448800D03*
X172339000Y-72948800D03*
D19*
X180249000Y-74698800D03*
D18*
X172339000Y-89481600D03*
X172339000Y-85981600D03*
D19*
X180249000Y-87731600D03*
D18*
X172201400Y-102664200D03*
X172201400Y-99164200D03*
D19*
X180111400Y-100914200D03*
D18*
X172252200Y-128165800D03*
X172252200Y-124665800D03*
D19*
X180162200Y-126415800D03*
D18*
X172277600Y-119606000D03*
X172277600Y-116106000D03*
D19*
X180187600Y-117856000D03*
D18*
X172226800Y-111097000D03*
X172226800Y-107597000D03*
D19*
X180136800Y-109347000D03*
D20*
X90000000Y-126000000D03*
X90000000Y-85000000D03*
X179500000Y-63500000D03*
D21*
X114452400Y-65913000D03*
X132500000Y-103500000D03*
X131500000Y-103500000D03*
X131500000Y-102500000D03*
X132500000Y-102500000D03*
X133500000Y-102500000D03*
X134500000Y-102500000D03*
X135500000Y-102500000D03*
X135500000Y-103500000D03*
X136500000Y-103500000D03*
X136500000Y-102500000D03*
X137500000Y-102500000D03*
X143141700Y-60274200D03*
X116837460Y-89801700D03*
X102709980Y-57203340D03*
X166090600Y-63373000D03*
X101803200Y-73202800D03*
X105613200Y-71323200D03*
X118973600Y-51968400D03*
X91973400Y-66840100D03*
X101447600Y-70434200D03*
X127330200Y-65506600D03*
X128082040Y-84627720D03*
X133817360Y-81046320D03*
X121351040Y-76408280D03*
X136748520Y-69997320D03*
X135773160Y-76489560D03*
X111683800Y-80365600D03*
X120319800Y-69748400D03*
X155448000Y-56845200D03*
X153847800Y-57073800D03*
X145389600Y-123367800D03*
X148615400Y-123367800D03*
X145415000Y-127025400D03*
X172161200Y-69799200D03*
X115087400Y-61747400D03*
X99472404Y-63667031D03*
X84734400Y-64617600D03*
X84709000Y-54051200D03*
X132500000Y-123500000D03*
X117000000Y-118000000D03*
X120000000Y-125000000D03*
X120000000Y-124000000D03*
X117000000Y-125000000D03*
X117000000Y-123950000D03*
X112000000Y-126500000D03*
X110500000Y-120000000D03*
X127000000Y-105500000D03*
X125000000Y-113500000D03*
X128000000Y-111000000D03*
X121500000Y-109500000D03*
X132000000Y-110500000D03*
X137500000Y-108000000D03*
X149000000Y-128500000D03*
X113055400Y-53670200D03*
X104759760Y-81175860D03*
X116189760Y-88689180D03*
X101224080Y-57188100D03*
X164998400Y-60756800D03*
X172300900Y-82715100D03*
X172212000Y-95796100D03*
X152933400Y-95605600D03*
X162026600Y-97663000D03*
X99161600Y-88138000D03*
X99212400Y-74320400D03*
X137617200Y-58013600D03*
X105613200Y-70408800D03*
X101485700Y-66281300D03*
X106735880Y-51673760D03*
X128828800Y-63017400D03*
X109728000Y-61747400D03*
X127238760Y-85181440D03*
X123037600Y-68326000D03*
X132669280Y-78719680D03*
X131404360Y-73070720D03*
X137297160Y-76489560D03*
X130616960Y-84211160D03*
X113487200Y-81864200D03*
X117094000Y-68910200D03*
D22*
X109372400Y-80391000D03*
X109728000Y-82778600D03*
D21*
X108712000Y-76657200D03*
X90220800Y-74168000D03*
X107797600Y-87274400D03*
X106984800Y-86817200D03*
X147294600Y-91668600D03*
X163601400Y-93573600D03*
X170383200Y-67259200D03*
X110515400Y-63906400D03*
X170662600Y-80187800D03*
X111057820Y-64414400D03*
X170510200Y-93319600D03*
X111557820Y-65024000D03*
X102285800Y-71666100D03*
X99910900Y-71691500D03*
X99796600Y-67983100D03*
X105283000Y-68173600D03*
X99796600Y-68999100D03*
X105321100Y-69126100D03*
X128480777Y-71852220D03*
X126253240Y-73466960D03*
X131470400Y-81000600D03*
X129926080Y-77729080D03*
X106730800Y-72034400D03*
X106730800Y-72694800D03*
X106730800Y-73355200D03*
X107848400Y-80670400D03*
X109524800Y-76631800D03*
X142163800Y-70561200D03*
X111531400Y-76377800D03*
X142138400Y-71247000D03*
X112217200Y-76479400D03*
X117754400Y-72796400D03*
X130048000Y-68326000D03*
X117221000Y-72085200D03*
X132054600Y-67056000D03*
X114198400Y-71831200D03*
X130048000Y-69316600D03*
X97942400Y-60198000D03*
X113690400Y-59690000D03*
X97866200Y-62534800D03*
X109829600Y-60782200D03*
X116179600Y-61239400D03*
X95834200Y-58242200D03*
X109728000Y-62687200D03*
X135999240Y-118000000D03*
X145500000Y-118000000D03*
X147500000Y-102500000D03*
X147500000Y-101500000D03*
X147500000Y-100500000D03*
X147500000Y-99500000D03*
X146500000Y-98500000D03*
X145500000Y-98500000D03*
X144500000Y-98500000D03*
X143500000Y-98500000D03*
X142500000Y-98500000D03*
X141500000Y-98500000D03*
X140500000Y-98500000D03*
X139500000Y-98500000D03*
X139500000Y-99500000D03*
X139500000Y-100500000D03*
X129500000Y-117000000D03*
X128500000Y-117000000D03*
X127500000Y-117000000D03*
X125500000Y-119000000D03*
X126500000Y-118000000D03*
X126500000Y-119000000D03*
X127500000Y-119000000D03*
X127500000Y-118000000D03*
X128500000Y-118000000D03*
X128500000Y-119000000D03*
X129500000Y-119000000D03*
X129500000Y-118000000D03*
X97993200Y-56870600D03*
X115036600Y-62687200D03*
X127406400Y-67838320D03*
X108597700Y-67784980D03*
X127406400Y-66888360D03*
X107899200Y-67772280D03*
X113461800Y-76581000D03*
X114782600Y-77901800D03*
X141500000Y-114000000D03*
X142500000Y-114000000D03*
X117500000Y-122050000D03*
X117500000Y-121000000D03*
X116500000Y-121000000D03*
X116500000Y-122050000D03*
X124000000Y-107000000D03*
X131500000Y-106500000D03*
X129500000Y-107250000D03*
X129500000Y-106500000D03*
X130500000Y-106500000D03*
X142500000Y-121000000D03*
X141500000Y-121000000D03*
X140500000Y-121000000D03*
X140500000Y-120000000D03*
X140500000Y-119000000D03*
X140500000Y-116000000D03*
X139500000Y-116000000D03*
X139500000Y-115000000D03*
X140500000Y-115000000D03*
X140500000Y-114000000D03*
X139500000Y-114000000D03*
X141500000Y-115000000D03*
X142500000Y-115000000D03*
X110972600Y-69799200D03*
X102514400Y-65735200D03*
X113842800Y-70891400D03*
X113792000Y-68554600D03*
X113741200Y-75209400D03*
X106451400Y-75234800D03*
D23*
X179603400Y-79737200D02*
X180703400Y-79737200D01*
X180703400Y-79737200D02*
X181789000Y-80822800D01*
X100406200Y-81737200D02*
X100584000Y-81737200D01*
X104759760Y-82031840D02*
X104759760Y-81175860D01*
X103987600Y-82804000D02*
X104759760Y-82031840D01*
X101650800Y-82804000D02*
X103987600Y-82804000D01*
X100584000Y-81737200D02*
X101650800Y-82804000D01*
X100406200Y-81737200D02*
X100634800Y-81737200D01*
X100634800Y-81737200D02*
X101955600Y-80416400D01*
X104000300Y-80416400D02*
X104759760Y-81175860D01*
X101955600Y-80416400D02*
X104000300Y-80416400D01*
D24*
X145500000Y-127000000D02*
X136000000Y-127000000D01*
X136000000Y-127000000D02*
X132500000Y-123500000D01*
X146000000Y-123500000D02*
X146000000Y-126500000D01*
X146000000Y-126500000D02*
X145500000Y-127000000D01*
X149000000Y-128500000D02*
X147000000Y-128500000D01*
X147000000Y-128500000D02*
X145500000Y-127000000D01*
D25*
X117000000Y-123950000D02*
X117677922Y-123950000D01*
X117677922Y-123950000D02*
X128500000Y-113127922D01*
X128500000Y-113127922D02*
X128500000Y-110500000D01*
D24*
X113050000Y-120000000D02*
X115550000Y-122500000D01*
X117000000Y-118000000D02*
X115845999Y-119154001D01*
X115550000Y-122500000D02*
X117000000Y-123950000D01*
X115845999Y-119154001D02*
X115845999Y-122204001D01*
X115845999Y-122204001D02*
X115550000Y-122500000D01*
X112000000Y-126500000D02*
X114450000Y-126500000D01*
X114450000Y-126500000D02*
X117000000Y-123950000D01*
X110500000Y-120000000D02*
X113050000Y-120000000D01*
D26*
X127000000Y-105500000D02*
X127000000Y-110000000D01*
X127000000Y-110000000D02*
X128000000Y-111000000D01*
X128000000Y-111000000D02*
X123000000Y-111000000D01*
X123000000Y-111000000D02*
X121500000Y-109500000D01*
X125000000Y-113500000D02*
X125500000Y-113500000D01*
X125500000Y-113500000D02*
X128000000Y-111000000D01*
X132000000Y-110500000D02*
X128500000Y-110500000D01*
X128500000Y-110500000D02*
X128000000Y-111000000D01*
X137500000Y-108000000D02*
X134500000Y-108000000D01*
X134500000Y-108000000D02*
X132000000Y-110500000D01*
D23*
X170383200Y-67259200D02*
X158851600Y-67259200D01*
X158851600Y-67259200D02*
X155473400Y-63881000D01*
X155473400Y-63881000D02*
X110900010Y-63881000D01*
X110900010Y-63881000D02*
X110874610Y-63906400D01*
X110874610Y-63906400D02*
X110515400Y-63906400D01*
X168783000Y-80187800D02*
X168427400Y-80187800D01*
X168427400Y-80187800D02*
X161645600Y-80187800D01*
X170662600Y-80187800D02*
X170303390Y-80187800D01*
X170303390Y-80187800D02*
X168427400Y-80187800D01*
X161645600Y-80187800D02*
X145872200Y-64414400D01*
X145872200Y-64414400D02*
X111057820Y-64414400D01*
X170510200Y-93319600D02*
X168630600Y-93319600D01*
X168630600Y-93319600D02*
X167081200Y-91770200D01*
X167081200Y-91770200D02*
X167081200Y-87223600D01*
X111917030Y-65024000D02*
X111557820Y-65024000D01*
X167081200Y-87223600D02*
X144824411Y-64966811D01*
X144824411Y-64966811D02*
X111974219Y-64966811D01*
X111974219Y-64966811D02*
X111917030Y-65024000D01*
X105283000Y-68173600D02*
X105283000Y-63611511D01*
X142246100Y-55066180D02*
X142246100Y-53454300D01*
X140553440Y-56758840D02*
X142246100Y-55066180D01*
X112131383Y-56758840D02*
X140553440Y-56758840D01*
X105283000Y-63611511D02*
X112131383Y-56758840D01*
X105321100Y-69126100D02*
X105369360Y-69126100D01*
X144246100Y-55385200D02*
X144246100Y-53454300D01*
X142298420Y-57332880D02*
X144246100Y-55385200D01*
X112361980Y-57332880D02*
X142298420Y-57332880D01*
X105958640Y-63736220D02*
X112361980Y-57332880D01*
X105958640Y-68536820D02*
X105958640Y-63736220D01*
X105369360Y-69126100D02*
X105958640Y-68536820D01*
X144246100Y-54102500D02*
X144246100Y-53454300D01*
X141804590Y-70561200D02*
X142163800Y-70561200D01*
X111531400Y-76018590D02*
X116982401Y-70567589D01*
X141732000Y-70567589D02*
X141738389Y-70561200D01*
X141738389Y-70561200D02*
X141804590Y-70561200D01*
X116982401Y-70567589D02*
X141732000Y-70567589D01*
X111531400Y-76377800D02*
X111531400Y-76018590D01*
X116920678Y-71247000D02*
X141779190Y-71247000D01*
X112217200Y-75950478D02*
X116920678Y-71247000D01*
X141779190Y-71247000D02*
X142138400Y-71247000D01*
X112217200Y-76479400D02*
X112217200Y-75950478D01*
X127353060Y-67784980D02*
X127406400Y-67838320D01*
X108597700Y-67784980D02*
X127353060Y-67784980D01*
X155295100Y-53454300D02*
X155229560Y-53454300D01*
X107899200Y-67340480D02*
X108351320Y-66888360D01*
X108351320Y-66888360D02*
X127406400Y-66888360D01*
X107899200Y-67772280D02*
X107899200Y-67340480D01*
D26*
X140500000Y-119000000D02*
X140500000Y-116000000D01*
D23*
X113792000Y-68554600D02*
X113792000Y-70840600D01*
X113792000Y-70840600D02*
X113842800Y-70891400D01*
D27*
G36*
X118084754Y-51790791D02*
X118084446Y-52144457D01*
X118219503Y-52471320D01*
X118469364Y-52721618D01*
X118795991Y-52857246D01*
X119149657Y-52857554D01*
X119476520Y-52722497D01*
X119726818Y-52472636D01*
X119862446Y-52146009D01*
X119862754Y-51792343D01*
X119750224Y-51520000D01*
X145786161Y-51520000D01*
X145718560Y-51533829D01*
X145119455Y-51862867D01*
X144890191Y-52148793D01*
X144718714Y-52034216D01*
X144246100Y-51940207D01*
X143773486Y-52034216D01*
X143372823Y-52301930D01*
X143246100Y-52491585D01*
X143119377Y-52301930D01*
X142718714Y-52034216D01*
X142246100Y-51940207D01*
X141773486Y-52034216D01*
X141396104Y-52286374D01*
X141310190Y-52152859D01*
X141097990Y-52007869D01*
X140846100Y-51956860D01*
X139646100Y-51956860D01*
X139410783Y-52001138D01*
X139194659Y-52140210D01*
X139049669Y-52352410D01*
X138998660Y-52604300D01*
X138998660Y-54304300D01*
X139042938Y-54539617D01*
X139182010Y-54755741D01*
X139394210Y-54900731D01*
X139646100Y-54951740D01*
X140846100Y-54951740D01*
X141081417Y-54907462D01*
X141297541Y-54768390D01*
X141397001Y-54622825D01*
X141486100Y-54682359D01*
X141486100Y-54751378D01*
X140238638Y-55998840D01*
X137097097Y-55998840D01*
X137375646Y-55581961D01*
X137481310Y-55050754D01*
X137481310Y-53458046D01*
X137375646Y-52926839D01*
X137074742Y-52476504D01*
X136624407Y-52175600D01*
X136093200Y-52069936D01*
X135561993Y-52175600D01*
X135111658Y-52476504D01*
X134823200Y-52908212D01*
X134534742Y-52476504D01*
X134084407Y-52175600D01*
X133553200Y-52069936D01*
X133021993Y-52175600D01*
X132571658Y-52476504D01*
X132270754Y-52926839D01*
X132165090Y-53458046D01*
X132165090Y-55050754D01*
X132270754Y-55581961D01*
X132549303Y-55998840D01*
X131500668Y-55998840D01*
X131762246Y-55607361D01*
X131867910Y-55076154D01*
X131867910Y-53483446D01*
X131762246Y-52952239D01*
X131461342Y-52501904D01*
X131011007Y-52201000D01*
X130479800Y-52095336D01*
X129948593Y-52201000D01*
X129498258Y-52501904D01*
X129209800Y-52933612D01*
X128921342Y-52501904D01*
X128471007Y-52201000D01*
X127939800Y-52095336D01*
X127408593Y-52201000D01*
X126958258Y-52501904D01*
X126657354Y-52952239D01*
X126551690Y-53483446D01*
X126551690Y-55076154D01*
X126657354Y-55607361D01*
X126918932Y-55998840D01*
X125785668Y-55998840D01*
X126047246Y-55607361D01*
X126152910Y-55076154D01*
X126152910Y-53483446D01*
X126047246Y-52952239D01*
X125746342Y-52501904D01*
X125296007Y-52201000D01*
X124764800Y-52095336D01*
X124233593Y-52201000D01*
X123783258Y-52501904D01*
X123494800Y-52933612D01*
X123206342Y-52501904D01*
X122756007Y-52201000D01*
X122224800Y-52095336D01*
X121693593Y-52201000D01*
X121243258Y-52501904D01*
X120942354Y-52952239D01*
X120836690Y-53483446D01*
X120836690Y-55076154D01*
X120942354Y-55607361D01*
X121203932Y-55998840D01*
X112131383Y-55998840D01*
X112131264Y-55998864D01*
X112131145Y-55998840D01*
X111985577Y-56027843D01*
X111840544Y-56056692D01*
X111840443Y-56056759D01*
X111840324Y-56056783D01*
X111716790Y-56139381D01*
X111593982Y-56221439D01*
X111593915Y-56221540D01*
X111593814Y-56221607D01*
X104745431Y-63074278D01*
X104662788Y-63198046D01*
X104580852Y-63320672D01*
X104580829Y-63320790D01*
X104580761Y-63320891D01*
X104551851Y-63466468D01*
X104523000Y-63611511D01*
X104523000Y-67685697D01*
X104394154Y-67995991D01*
X104393846Y-68349657D01*
X104528903Y-68676520D01*
X104540403Y-68688040D01*
X104432254Y-68948491D01*
X104431946Y-69302157D01*
X104567003Y-69629020D01*
X104816864Y-69879318D01*
X105143491Y-70014946D01*
X105497157Y-70015254D01*
X105593957Y-69975257D01*
X110083446Y-69975257D01*
X110218503Y-70302120D01*
X110468364Y-70552418D01*
X110794991Y-70688046D01*
X111148657Y-70688354D01*
X111475520Y-70553297D01*
X111725818Y-70303436D01*
X111861446Y-69976809D01*
X111861754Y-69623143D01*
X111726697Y-69296280D01*
X111476836Y-69045982D01*
X111150209Y-68910354D01*
X110796543Y-68910046D01*
X110469680Y-69045103D01*
X110219382Y-69294964D01*
X110083754Y-69621591D01*
X110083446Y-69975257D01*
X105593957Y-69975257D01*
X105824020Y-69880197D01*
X106074318Y-69630336D01*
X106169749Y-69400513D01*
X106496041Y-69074221D01*
X106660788Y-68827659D01*
X106718640Y-68536820D01*
X106718640Y-67948337D01*
X107010046Y-67948337D01*
X107145103Y-68275200D01*
X107394964Y-68525498D01*
X107721591Y-68661126D01*
X108075257Y-68661434D01*
X108233142Y-68596197D01*
X108420091Y-68673826D01*
X108773757Y-68674134D01*
X109086334Y-68544980D01*
X112903008Y-68544980D01*
X112902846Y-68730657D01*
X113032000Y-69043234D01*
X113032000Y-70525836D01*
X112953954Y-70713791D01*
X112953646Y-71067457D01*
X113088703Y-71394320D01*
X113320708Y-71626730D01*
X113309554Y-71653591D01*
X113309246Y-72007257D01*
X113444303Y-72334120D01*
X113694164Y-72584418D01*
X113833085Y-72642103D01*
X110993999Y-75481189D01*
X110829252Y-75727751D01*
X110805715Y-75846079D01*
X110778182Y-75873564D01*
X110642554Y-76200191D01*
X110642246Y-76553857D01*
X110777303Y-76880720D01*
X111027164Y-77131018D01*
X111353791Y-77266646D01*
X111707457Y-77266954D01*
X111751664Y-77248688D01*
X112039591Y-77368246D01*
X112393257Y-77368554D01*
X112720120Y-77233497D01*
X112788689Y-77165048D01*
X112957564Y-77334218D01*
X113284191Y-77469846D01*
X113637857Y-77470154D01*
X113964720Y-77335097D01*
X114215018Y-77085236D01*
X114350646Y-76758609D01*
X114350797Y-76584337D01*
X120461886Y-76584337D01*
X120596943Y-76911200D01*
X120846804Y-77161498D01*
X121173431Y-77297126D01*
X121527097Y-77297434D01*
X121853960Y-77162377D01*
X122104258Y-76912516D01*
X122206779Y-76665617D01*
X134884006Y-76665617D01*
X135019063Y-76992480D01*
X135268924Y-77242778D01*
X135595551Y-77378406D01*
X135949217Y-77378714D01*
X136276080Y-77243657D01*
X136526378Y-76993796D01*
X136662006Y-76667169D01*
X136662314Y-76313503D01*
X136527257Y-75986640D01*
X136277396Y-75736342D01*
X135950769Y-75600714D01*
X135597103Y-75600406D01*
X135270240Y-75735463D01*
X135019942Y-75985324D01*
X134884314Y-76311951D01*
X134884006Y-76665617D01*
X122206779Y-76665617D01*
X122239886Y-76585889D01*
X122240194Y-76232223D01*
X122105137Y-75905360D01*
X121855276Y-75655062D01*
X121528649Y-75519434D01*
X121174983Y-75519126D01*
X120848120Y-75654183D01*
X120597822Y-75904044D01*
X120462194Y-76230671D01*
X120461886Y-76584337D01*
X114350797Y-76584337D01*
X114350954Y-76404943D01*
X114215897Y-76078080D01*
X114143158Y-76005214D01*
X114244120Y-75963497D01*
X114494418Y-75713636D01*
X114630046Y-75387009D01*
X114630354Y-75033343D01*
X114507198Y-74735282D01*
X116560550Y-72681930D01*
X116716764Y-72838418D01*
X116865309Y-72900100D01*
X116865246Y-72972457D01*
X117000303Y-73299320D01*
X117250164Y-73549618D01*
X117576791Y-73685246D01*
X117930457Y-73685554D01*
X118033404Y-73643017D01*
X125364086Y-73643017D01*
X125499143Y-73969880D01*
X125749004Y-74220178D01*
X126075631Y-74355806D01*
X126429297Y-74356114D01*
X126756160Y-74221057D01*
X127006458Y-73971196D01*
X127142086Y-73644569D01*
X127142394Y-73290903D01*
X127007337Y-72964040D01*
X126757476Y-72713742D01*
X126430849Y-72578114D01*
X126077183Y-72577806D01*
X125750320Y-72712863D01*
X125500022Y-72962724D01*
X125364394Y-73289351D01*
X125364086Y-73643017D01*
X118033404Y-73643017D01*
X118257320Y-73550497D01*
X118507618Y-73300636D01*
X118643246Y-72974009D01*
X118643554Y-72620343D01*
X118508497Y-72293480D01*
X118258636Y-72043182D01*
X118171500Y-72007000D01*
X127591642Y-72007000D01*
X127591623Y-72028277D01*
X127726680Y-72355140D01*
X127976541Y-72605438D01*
X128303168Y-72741066D01*
X128656834Y-72741374D01*
X128983697Y-72606317D01*
X129233995Y-72356456D01*
X129369623Y-72029829D01*
X129369643Y-72007000D01*
X141650497Y-72007000D01*
X141960791Y-72135846D01*
X142314457Y-72136154D01*
X142641320Y-72001097D01*
X142891618Y-71751236D01*
X143027246Y-71424609D01*
X143027554Y-71070943D01*
X142971282Y-70934754D01*
X143052646Y-70738809D01*
X143052954Y-70385143D01*
X142917897Y-70058280D01*
X142668036Y-69807982D01*
X142341409Y-69672354D01*
X141987743Y-69672046D01*
X141660880Y-69807103D01*
X141660393Y-69807589D01*
X137632024Y-69807589D01*
X137502617Y-69494400D01*
X137252756Y-69244102D01*
X136926129Y-69108474D01*
X136572463Y-69108166D01*
X136245600Y-69243223D01*
X135995302Y-69493084D01*
X135864708Y-69807589D01*
X130806719Y-69807589D01*
X130936846Y-69494209D01*
X130937154Y-69140543D01*
X130805087Y-68820917D01*
X130936846Y-68503609D01*
X130937154Y-68149943D01*
X130802097Y-67823080D01*
X130552236Y-67572782D01*
X130225609Y-67437154D01*
X129871943Y-67436846D01*
X129545080Y-67571903D01*
X129294782Y-67821764D01*
X129159154Y-68148391D01*
X129158846Y-68502057D01*
X129290913Y-68821683D01*
X129159154Y-69138991D01*
X129158846Y-69492657D01*
X129288973Y-69807589D01*
X121208749Y-69807589D01*
X121208954Y-69572343D01*
X121073897Y-69245480D01*
X120824036Y-68995182D01*
X120497409Y-68859554D01*
X120143743Y-68859246D01*
X119816880Y-68994303D01*
X119566582Y-69244164D01*
X119430954Y-69570791D01*
X119430748Y-69807589D01*
X116982401Y-69807589D01*
X116691562Y-69865441D01*
X116445000Y-70030188D01*
X115009339Y-71465849D01*
X114952497Y-71328280D01*
X114720492Y-71095870D01*
X114731646Y-71069009D01*
X114731954Y-70715343D01*
X114596897Y-70388480D01*
X114552000Y-70343504D01*
X114552000Y-69042503D01*
X114680846Y-68732209D01*
X114681009Y-68544980D01*
X126855687Y-68544980D01*
X126902164Y-68591538D01*
X127228791Y-68727166D01*
X127582457Y-68727474D01*
X127909320Y-68592417D01*
X128159618Y-68342556D01*
X128295246Y-68015929D01*
X128295554Y-67662263D01*
X128171904Y-67363008D01*
X128226279Y-67232057D01*
X131165446Y-67232057D01*
X131300503Y-67558920D01*
X131550364Y-67809218D01*
X131876991Y-67944846D01*
X132230657Y-67945154D01*
X132557520Y-67810097D01*
X132807818Y-67560236D01*
X132943446Y-67233609D01*
X132943754Y-66879943D01*
X132808697Y-66553080D01*
X132558836Y-66302782D01*
X132232209Y-66167154D01*
X131878543Y-66166846D01*
X131551680Y-66301903D01*
X131301382Y-66551764D01*
X131165754Y-66878391D01*
X131165446Y-67232057D01*
X128226279Y-67232057D01*
X128295246Y-67065969D01*
X128295554Y-66712303D01*
X128160497Y-66385440D01*
X127934723Y-66159271D01*
X128083418Y-66010836D01*
X128201356Y-65726811D01*
X144509609Y-65726811D01*
X152366936Y-73584138D01*
X151780216Y-73340511D01*
X151070099Y-73339891D01*
X150413800Y-73611068D01*
X149911233Y-74112759D01*
X149638911Y-74768584D01*
X149638291Y-75478701D01*
X149909468Y-76135000D01*
X150411159Y-76637567D01*
X151066984Y-76909889D01*
X151777101Y-76910509D01*
X152433400Y-76639332D01*
X152935967Y-76137641D01*
X153208289Y-75481816D01*
X153208909Y-74771699D01*
X152965569Y-74182771D01*
X166321200Y-87538402D01*
X166321200Y-91770200D01*
X166379052Y-92061039D01*
X166543799Y-92307601D01*
X168093198Y-93857001D01*
X168257945Y-93967080D01*
X168339761Y-94021748D01*
X168630600Y-94079600D01*
X170022297Y-94079600D01*
X170332591Y-94208446D01*
X170686257Y-94208754D01*
X171013120Y-94073697D01*
X171263418Y-93823836D01*
X171399046Y-93497209D01*
X171399354Y-93143543D01*
X171264297Y-92816680D01*
X171014436Y-92566382D01*
X170687809Y-92430754D01*
X170334143Y-92430446D01*
X170021566Y-92559600D01*
X168945403Y-92559600D01*
X167841200Y-91455398D01*
X167841200Y-89775689D01*
X170853743Y-89775689D01*
X171079344Y-90321686D01*
X171496717Y-90739788D01*
X172042319Y-90966342D01*
X172633089Y-90966857D01*
X173179086Y-90741256D01*
X173597188Y-90323883D01*
X173823742Y-89778281D01*
X173824257Y-89187511D01*
X173598656Y-88641514D01*
X173181283Y-88223412D01*
X173134354Y-88203925D01*
X177863587Y-88203925D01*
X178225916Y-89080829D01*
X178896242Y-89752326D01*
X179772513Y-90116185D01*
X180721325Y-90117013D01*
X181598229Y-89754684D01*
X182269726Y-89084358D01*
X182633585Y-88208087D01*
X182634413Y-87259275D01*
X182272084Y-86382371D01*
X181601758Y-85710874D01*
X180725487Y-85347015D01*
X179776675Y-85346187D01*
X178899771Y-85708516D01*
X178228274Y-86378842D01*
X177864415Y-87255113D01*
X177863587Y-88203925D01*
X173134354Y-88203925D01*
X172635681Y-87996858D01*
X172044911Y-87996343D01*
X171498914Y-88221944D01*
X171080812Y-88639317D01*
X170854258Y-89184919D01*
X170853743Y-89775689D01*
X167841200Y-89775689D01*
X167841200Y-87223600D01*
X167783348Y-86932761D01*
X167618601Y-86686199D01*
X167208091Y-86275689D01*
X170853743Y-86275689D01*
X171079344Y-86821686D01*
X171496717Y-87239788D01*
X172042319Y-87466342D01*
X172633089Y-87466857D01*
X173179086Y-87241256D01*
X173597188Y-86823883D01*
X173823742Y-86278281D01*
X173824257Y-85687511D01*
X173598656Y-85141514D01*
X173181283Y-84723412D01*
X172635681Y-84496858D01*
X172044911Y-84496343D01*
X171498914Y-84721944D01*
X171080812Y-85139317D01*
X170854258Y-85684919D01*
X170853743Y-86275689D01*
X167208091Y-86275689D01*
X161880202Y-80947800D01*
X170174697Y-80947800D01*
X170484991Y-81076646D01*
X170838657Y-81076954D01*
X171165520Y-80941897D01*
X171415818Y-80692036D01*
X171551446Y-80365409D01*
X171551754Y-80011743D01*
X171438316Y-79737200D01*
X178843400Y-79737200D01*
X178901252Y-80028039D01*
X179065999Y-80274601D01*
X179312561Y-80439348D01*
X179603400Y-80497200D01*
X180388598Y-80497200D01*
X181251599Y-81360201D01*
X181498160Y-81524948D01*
X181789000Y-81582800D01*
X182079839Y-81524948D01*
X182326401Y-81360201D01*
X182491148Y-81113639D01*
X182549000Y-80822800D01*
X182491148Y-80531960D01*
X182326401Y-80285399D01*
X181240801Y-79199799D01*
X180994239Y-79035052D01*
X180703400Y-78977200D01*
X179603400Y-78977200D01*
X179312561Y-79035052D01*
X179065999Y-79199799D01*
X178901252Y-79446361D01*
X178843400Y-79737200D01*
X171438316Y-79737200D01*
X171416697Y-79684880D01*
X171166836Y-79434582D01*
X170840209Y-79298954D01*
X170486543Y-79298646D01*
X170173966Y-79427800D01*
X161960402Y-79427800D01*
X159275491Y-76742889D01*
X170853743Y-76742889D01*
X171079344Y-77288886D01*
X171496717Y-77706988D01*
X172042319Y-77933542D01*
X172633089Y-77934057D01*
X173179086Y-77708456D01*
X173597188Y-77291083D01*
X173823742Y-76745481D01*
X173824257Y-76154711D01*
X173598656Y-75608714D01*
X173181283Y-75190612D01*
X173134354Y-75171125D01*
X177863587Y-75171125D01*
X178225916Y-76048029D01*
X178896242Y-76719526D01*
X179772513Y-77083385D01*
X180721325Y-77084213D01*
X181598229Y-76721884D01*
X182269726Y-76051558D01*
X182633585Y-75175287D01*
X182634413Y-74226475D01*
X182272084Y-73349571D01*
X181601758Y-72678074D01*
X180725487Y-72314215D01*
X179776675Y-72313387D01*
X178899771Y-72675716D01*
X178228274Y-73346042D01*
X177864415Y-74222313D01*
X177863587Y-75171125D01*
X173134354Y-75171125D01*
X172635681Y-74964058D01*
X172044911Y-74963543D01*
X171498914Y-75189144D01*
X171080812Y-75606517D01*
X170854258Y-76152119D01*
X170853743Y-76742889D01*
X159275491Y-76742889D01*
X155775491Y-73242889D01*
X170853743Y-73242889D01*
X171079344Y-73788886D01*
X171496717Y-74206988D01*
X172042319Y-74433542D01*
X172633089Y-74434057D01*
X173179086Y-74208456D01*
X173597188Y-73791083D01*
X173823742Y-73245481D01*
X173824257Y-72654711D01*
X173598656Y-72108714D01*
X173181283Y-71690612D01*
X172635681Y-71464058D01*
X172044911Y-71463543D01*
X171498914Y-71689144D01*
X171080812Y-72106517D01*
X170854258Y-72652119D01*
X170853743Y-73242889D01*
X155775491Y-73242889D01*
X147173602Y-64641000D01*
X155158598Y-64641000D01*
X158314199Y-67796601D01*
X158560760Y-67961348D01*
X158851600Y-68019200D01*
X169895297Y-68019200D01*
X170205591Y-68148046D01*
X170559257Y-68148354D01*
X170886120Y-68013297D01*
X171136418Y-67763436D01*
X171272046Y-67436809D01*
X171272354Y-67083143D01*
X171137297Y-66756280D01*
X170887436Y-66505982D01*
X170560809Y-66370354D01*
X170207143Y-66370046D01*
X169894566Y-66499200D01*
X159166402Y-66499200D01*
X156216259Y-63549057D01*
X165201446Y-63549057D01*
X165336503Y-63875920D01*
X165586364Y-64126218D01*
X165912991Y-64261846D01*
X166266657Y-64262154D01*
X166593520Y-64127097D01*
X166843818Y-63877236D01*
X166979446Y-63550609D01*
X166979754Y-63196943D01*
X166844697Y-62870080D01*
X166594836Y-62619782D01*
X166268209Y-62484154D01*
X165914543Y-62483846D01*
X165587680Y-62618903D01*
X165337382Y-62868764D01*
X165201754Y-63195391D01*
X165201446Y-63549057D01*
X156216259Y-63549057D01*
X156010801Y-63343599D01*
X155764239Y-63178852D01*
X155473400Y-63121000D01*
X115819066Y-63121000D01*
X115925446Y-62864809D01*
X115925754Y-62511143D01*
X115790697Y-62184280D01*
X115540836Y-61933982D01*
X115214209Y-61798354D01*
X114860543Y-61798046D01*
X114533680Y-61933103D01*
X114283382Y-62182964D01*
X114147754Y-62509591D01*
X114147446Y-62863257D01*
X114253943Y-63121000D01*
X110942133Y-63121000D01*
X110693009Y-63017554D01*
X110553471Y-63017432D01*
X110616846Y-62864809D01*
X110617154Y-62511143D01*
X110482097Y-62184280D01*
X110232236Y-61933982D01*
X109905609Y-61798354D01*
X109551943Y-61798046D01*
X109225080Y-61933103D01*
X108974782Y-62182964D01*
X108839154Y-62509591D01*
X108838846Y-62863257D01*
X108973903Y-63190120D01*
X109223764Y-63440418D01*
X109550391Y-63576046D01*
X109689929Y-63576168D01*
X109626554Y-63728791D01*
X109626246Y-64082457D01*
X109761303Y-64409320D01*
X110011164Y-64659618D01*
X110235781Y-64752888D01*
X110303723Y-64917320D01*
X110553584Y-65167618D01*
X110676321Y-65218583D01*
X110803723Y-65526920D01*
X111053584Y-65777218D01*
X111380211Y-65912846D01*
X111733877Y-65913154D01*
X112060740Y-65778097D01*
X112089117Y-65749769D01*
X112204536Y-65726811D01*
X113567117Y-65726811D01*
X113563554Y-65735391D01*
X113563246Y-66089057D01*
X113579486Y-66128360D01*
X108351320Y-66128360D01*
X108060480Y-66186212D01*
X107813919Y-66350959D01*
X107361799Y-66803079D01*
X107197052Y-67049641D01*
X107155498Y-67258544D01*
X107145982Y-67268044D01*
X107010354Y-67594671D01*
X107010046Y-67948337D01*
X106718640Y-67948337D01*
X106718640Y-64051022D01*
X109279844Y-61489818D01*
X109325364Y-61535418D01*
X109651991Y-61671046D01*
X110005657Y-61671354D01*
X110332520Y-61536297D01*
X110453571Y-61415457D01*
X115290446Y-61415457D01*
X115425503Y-61742320D01*
X115675364Y-61992618D01*
X116001991Y-62128246D01*
X116355657Y-62128554D01*
X116682520Y-61993497D01*
X116932818Y-61743636D01*
X117068446Y-61417009D01*
X117068754Y-61063343D01*
X116933697Y-60736480D01*
X116683836Y-60486182D01*
X116597320Y-60450257D01*
X142252546Y-60450257D01*
X142387603Y-60777120D01*
X142637464Y-61027418D01*
X142964091Y-61163046D01*
X143317757Y-61163354D01*
X143644620Y-61028297D01*
X143894918Y-60778436D01*
X144030546Y-60451809D01*
X144030854Y-60098143D01*
X143895797Y-59771280D01*
X143645936Y-59520982D01*
X143319309Y-59385354D01*
X142965643Y-59385046D01*
X142638780Y-59520103D01*
X142388482Y-59769964D01*
X142252854Y-60096591D01*
X142252546Y-60450257D01*
X116597320Y-60450257D01*
X116357209Y-60350554D01*
X116003543Y-60350246D01*
X115676680Y-60485303D01*
X115426382Y-60735164D01*
X115290754Y-61061791D01*
X115290446Y-61415457D01*
X110453571Y-61415457D01*
X110582818Y-61286436D01*
X110718446Y-60959809D01*
X110718754Y-60606143D01*
X110583697Y-60279280D01*
X110537080Y-60232582D01*
X110903605Y-59866057D01*
X112801246Y-59866057D01*
X112936303Y-60192920D01*
X113186164Y-60443218D01*
X113512791Y-60578846D01*
X113866457Y-60579154D01*
X114193320Y-60444097D01*
X114443618Y-60194236D01*
X114579246Y-59867609D01*
X114579554Y-59513943D01*
X114444497Y-59187080D01*
X114194636Y-58936782D01*
X113868009Y-58801154D01*
X113514343Y-58800846D01*
X113187480Y-58935903D01*
X112937182Y-59185764D01*
X112801554Y-59512391D01*
X112801246Y-59866057D01*
X110903605Y-59866057D01*
X112676782Y-58092880D01*
X142298420Y-58092880D01*
X142589259Y-58035028D01*
X142835821Y-57870281D01*
X143684845Y-57021257D01*
X154558846Y-57021257D01*
X154693903Y-57348120D01*
X154943764Y-57598418D01*
X155270391Y-57734046D01*
X155624057Y-57734354D01*
X155950920Y-57599297D01*
X156201218Y-57349436D01*
X156336846Y-57022809D01*
X156337154Y-56669143D01*
X156202097Y-56342280D01*
X155952236Y-56091982D01*
X155625609Y-55956354D01*
X155271943Y-55956046D01*
X154945080Y-56091103D01*
X154694782Y-56340964D01*
X154559154Y-56667591D01*
X154558846Y-57021257D01*
X143684845Y-57021257D01*
X144783501Y-55922601D01*
X144948248Y-55676040D01*
X144966961Y-55581961D01*
X145006100Y-55385200D01*
X145006100Y-54904363D01*
X145119455Y-55045733D01*
X145718560Y-55374771D01*
X145848723Y-55401398D01*
X146119100Y-55156005D01*
X146119100Y-53581300D01*
X146373100Y-53581300D01*
X146373100Y-55156005D01*
X146643477Y-55401398D01*
X146773640Y-55374771D01*
X147372745Y-55045733D01*
X147800328Y-54512474D01*
X147991294Y-53856178D01*
X147707817Y-53581300D01*
X146373100Y-53581300D01*
X146119100Y-53581300D01*
X146099100Y-53581300D01*
X146099100Y-53327300D01*
X146119100Y-53327300D01*
X146119100Y-53307300D01*
X146373100Y-53307300D01*
X146373100Y-53327300D01*
X147707817Y-53327300D01*
X147991294Y-53052422D01*
X147800328Y-52396126D01*
X147372745Y-51862867D01*
X146773640Y-51533829D01*
X146706039Y-51520000D01*
X156835161Y-51520000D01*
X156767560Y-51533829D01*
X156168455Y-51862867D01*
X155939191Y-52148793D01*
X155767714Y-52034216D01*
X155295100Y-51940207D01*
X154822486Y-52034216D01*
X154421823Y-52301930D01*
X154295100Y-52491585D01*
X154168377Y-52301930D01*
X153767714Y-52034216D01*
X153295100Y-51940207D01*
X152822486Y-52034216D01*
X152445104Y-52286374D01*
X152359190Y-52152859D01*
X152146990Y-52007869D01*
X151895100Y-51956860D01*
X150695100Y-51956860D01*
X150459783Y-52001138D01*
X150243659Y-52140210D01*
X150098669Y-52352410D01*
X150047660Y-52604300D01*
X150047660Y-54304300D01*
X150091938Y-54539617D01*
X150231010Y-54755741D01*
X150443210Y-54900731D01*
X150695100Y-54951740D01*
X151895100Y-54951740D01*
X152130417Y-54907462D01*
X152346541Y-54768390D01*
X152446001Y-54622825D01*
X152822486Y-54874384D01*
X153295100Y-54968393D01*
X153767714Y-54874384D01*
X154168377Y-54606670D01*
X154295100Y-54417015D01*
X154421823Y-54606670D01*
X154822486Y-54874384D01*
X155295100Y-54968393D01*
X155767714Y-54874384D01*
X155939191Y-54759807D01*
X156168455Y-55045733D01*
X156767560Y-55374771D01*
X156897723Y-55401398D01*
X157168100Y-55156005D01*
X157168100Y-53581300D01*
X157422100Y-53581300D01*
X157422100Y-55156005D01*
X157692477Y-55401398D01*
X157822640Y-55374771D01*
X158421745Y-55045733D01*
X158849328Y-54512474D01*
X159040294Y-53856178D01*
X158756817Y-53581300D01*
X157422100Y-53581300D01*
X157168100Y-53581300D01*
X157148100Y-53581300D01*
X157148100Y-53327300D01*
X157168100Y-53327300D01*
X157168100Y-53307300D01*
X157422100Y-53307300D01*
X157422100Y-53327300D01*
X158756817Y-53327300D01*
X159040294Y-53052422D01*
X158849328Y-52396126D01*
X158421745Y-51862867D01*
X157822640Y-51533829D01*
X157755039Y-51520000D01*
X167960361Y-51520000D01*
X167892760Y-51533829D01*
X167293655Y-51862867D01*
X167064391Y-52148793D01*
X166892914Y-52034216D01*
X166420300Y-51940207D01*
X165947686Y-52034216D01*
X165547023Y-52301930D01*
X165420300Y-52491585D01*
X165293577Y-52301930D01*
X164892914Y-52034216D01*
X164420300Y-51940207D01*
X163947686Y-52034216D01*
X163570304Y-52286374D01*
X163484390Y-52152859D01*
X163272190Y-52007869D01*
X163020300Y-51956860D01*
X161820300Y-51956860D01*
X161584983Y-52001138D01*
X161368859Y-52140210D01*
X161223869Y-52352410D01*
X161172860Y-52604300D01*
X161172860Y-54304300D01*
X161217138Y-54539617D01*
X161356210Y-54755741D01*
X161568410Y-54900731D01*
X161820300Y-54951740D01*
X163020300Y-54951740D01*
X163255617Y-54907462D01*
X163471741Y-54768390D01*
X163571201Y-54622825D01*
X163947686Y-54874384D01*
X164420300Y-54968393D01*
X164892914Y-54874384D01*
X165293577Y-54606670D01*
X165420300Y-54417015D01*
X165547023Y-54606670D01*
X165947686Y-54874384D01*
X166420300Y-54968393D01*
X166892914Y-54874384D01*
X167064391Y-54759807D01*
X167293655Y-55045733D01*
X167892760Y-55374771D01*
X168022923Y-55401398D01*
X168293300Y-55156005D01*
X168293300Y-53581300D01*
X168547300Y-53581300D01*
X168547300Y-55156005D01*
X168817677Y-55401398D01*
X168947840Y-55374771D01*
X169546945Y-55045733D01*
X169974528Y-54512474D01*
X170165494Y-53856178D01*
X169882017Y-53581300D01*
X168547300Y-53581300D01*
X168293300Y-53581300D01*
X168273300Y-53581300D01*
X168273300Y-53327300D01*
X168293300Y-53327300D01*
X168293300Y-53307300D01*
X168547300Y-53307300D01*
X168547300Y-53327300D01*
X169882017Y-53327300D01*
X170165494Y-53052422D01*
X169974528Y-52396126D01*
X169546945Y-51862867D01*
X168947840Y-51533829D01*
X168880239Y-51520000D01*
X179085561Y-51520000D01*
X179017960Y-51533829D01*
X178418855Y-51862867D01*
X178189591Y-52148793D01*
X178018114Y-52034216D01*
X177545500Y-51940207D01*
X177072886Y-52034216D01*
X176672223Y-52301930D01*
X176545500Y-52491585D01*
X176418777Y-52301930D01*
X176018114Y-52034216D01*
X175545500Y-51940207D01*
X175072886Y-52034216D01*
X174695504Y-52286374D01*
X174609590Y-52152859D01*
X174397390Y-52007869D01*
X174145500Y-51956860D01*
X172945500Y-51956860D01*
X172710183Y-52001138D01*
X172494059Y-52140210D01*
X172349069Y-52352410D01*
X172298060Y-52604300D01*
X172298060Y-54304300D01*
X172342338Y-54539617D01*
X172481410Y-54755741D01*
X172693610Y-54900731D01*
X172945500Y-54951740D01*
X174145500Y-54951740D01*
X174380817Y-54907462D01*
X174596941Y-54768390D01*
X174696401Y-54622825D01*
X175072886Y-54874384D01*
X175545500Y-54968393D01*
X176018114Y-54874384D01*
X176418777Y-54606670D01*
X176545500Y-54417015D01*
X176672223Y-54606670D01*
X177072886Y-54874384D01*
X177545500Y-54968393D01*
X178018114Y-54874384D01*
X178189591Y-54759807D01*
X178418855Y-55045733D01*
X179017960Y-55374771D01*
X179148123Y-55401398D01*
X179418500Y-55156005D01*
X179418500Y-53581300D01*
X179672500Y-53581300D01*
X179672500Y-55156005D01*
X179942877Y-55401398D01*
X180073040Y-55374771D01*
X180672145Y-55045733D01*
X181099728Y-54512474D01*
X181290694Y-53856178D01*
X181007217Y-53581300D01*
X179672500Y-53581300D01*
X179418500Y-53581300D01*
X179398500Y-53581300D01*
X179398500Y-53327300D01*
X179418500Y-53327300D01*
X179418500Y-53307300D01*
X179672500Y-53307300D01*
X179672500Y-53327300D01*
X181007217Y-53327300D01*
X181290694Y-53052422D01*
X181099728Y-52396126D01*
X180672145Y-51862867D01*
X180073040Y-51533829D01*
X180005439Y-51520000D01*
X183110000Y-51520000D01*
X183110000Y-62718097D01*
X182583400Y-61443628D01*
X181561751Y-60420194D01*
X180226218Y-59865632D01*
X178780126Y-59864370D01*
X177443628Y-60416600D01*
X176420194Y-61438249D01*
X175865632Y-62773782D01*
X175864370Y-64219874D01*
X176416600Y-65556372D01*
X177438249Y-66579806D01*
X178773782Y-67134368D01*
X180219874Y-67135630D01*
X181556372Y-66583400D01*
X182579806Y-65561751D01*
X183110000Y-64284903D01*
X183110000Y-130100000D01*
X84530000Y-130100000D01*
X84530000Y-126719874D01*
X86364370Y-126719874D01*
X86916600Y-128056372D01*
X87938249Y-129079806D01*
X89273782Y-129634368D01*
X90719874Y-129635630D01*
X92056372Y-129083400D01*
X93079806Y-128061751D01*
X93634368Y-126726218D01*
X93635630Y-125280126D01*
X93083400Y-123943628D01*
X92061751Y-122920194D01*
X90726218Y-122365632D01*
X89280126Y-122364370D01*
X87943628Y-122916600D01*
X86920194Y-123938249D01*
X86365632Y-125273782D01*
X86364370Y-126719874D01*
X84530000Y-126719874D01*
X84530000Y-118048925D01*
X85879587Y-118048925D01*
X86241916Y-118925829D01*
X86912242Y-119597326D01*
X87788513Y-119961185D01*
X88737325Y-119962013D01*
X89563392Y-119620689D01*
X94689743Y-119620689D01*
X94915344Y-120166686D01*
X95332717Y-120584788D01*
X95878319Y-120811342D01*
X96469089Y-120811857D01*
X97015086Y-120586256D01*
X97433188Y-120168883D01*
X97659742Y-119623281D01*
X97660257Y-119032511D01*
X97434656Y-118486514D01*
X97017283Y-118068412D01*
X96471681Y-117841858D01*
X95880911Y-117841343D01*
X95334914Y-118066944D01*
X94916812Y-118484317D01*
X94690258Y-119029919D01*
X94689743Y-119620689D01*
X89563392Y-119620689D01*
X89614229Y-119599684D01*
X90285726Y-118929358D01*
X90649585Y-118053087D01*
X90650374Y-117147950D01*
X95033255Y-117147950D01*
X95085674Y-117541994D01*
X95825047Y-117828284D01*
X96617697Y-117809835D01*
X97264326Y-117541994D01*
X97316745Y-117147950D01*
X96175000Y-116006205D01*
X95033255Y-117147950D01*
X90650374Y-117147950D01*
X90650413Y-117104275D01*
X90288084Y-116227371D01*
X89617758Y-115555874D01*
X89426958Y-115476647D01*
X94173316Y-115476647D01*
X94191765Y-116269297D01*
X94459606Y-116915926D01*
X94853650Y-116968345D01*
X95995395Y-115826600D01*
X96354605Y-115826600D01*
X97496350Y-116968345D01*
X97890394Y-116915926D01*
X98176684Y-116176553D01*
X98169661Y-115874800D01*
X106324400Y-115874800D01*
X106324400Y-128930400D01*
X106333085Y-128976559D01*
X106360365Y-129018953D01*
X106401990Y-129047394D01*
X106451400Y-129057400D01*
X130388918Y-129057400D01*
X130408965Y-129088553D01*
X130450590Y-129116994D01*
X130500000Y-129127000D01*
X151000000Y-129127000D01*
X151046159Y-129118315D01*
X151088553Y-129091035D01*
X151116994Y-129049410D01*
X151127000Y-129000000D01*
X151127000Y-128459889D01*
X170766943Y-128459889D01*
X170992544Y-129005886D01*
X171409917Y-129423988D01*
X171955519Y-129650542D01*
X172546289Y-129651057D01*
X173092286Y-129425456D01*
X173510388Y-129008083D01*
X173736942Y-128462481D01*
X173737457Y-127871711D01*
X173511856Y-127325714D01*
X173094483Y-126907612D01*
X173047554Y-126888125D01*
X177776787Y-126888125D01*
X178139116Y-127765029D01*
X178809442Y-128436526D01*
X179685713Y-128800385D01*
X180634525Y-128801213D01*
X181511429Y-128438884D01*
X182182926Y-127768558D01*
X182546785Y-126892287D01*
X182547613Y-125943475D01*
X182185284Y-125066571D01*
X181514958Y-124395074D01*
X180638687Y-124031215D01*
X179689875Y-124030387D01*
X178812971Y-124392716D01*
X178141474Y-125063042D01*
X177777615Y-125939313D01*
X177776787Y-126888125D01*
X173047554Y-126888125D01*
X172548881Y-126681058D01*
X171958111Y-126680543D01*
X171412114Y-126906144D01*
X170994012Y-127323517D01*
X170767458Y-127869119D01*
X170766943Y-128459889D01*
X151127000Y-128459889D01*
X151127000Y-125987150D01*
X171110455Y-125987150D01*
X171162874Y-126381194D01*
X171902247Y-126667484D01*
X172694897Y-126649035D01*
X173341526Y-126381194D01*
X173393945Y-125987150D01*
X172252200Y-124845405D01*
X171110455Y-125987150D01*
X151127000Y-125987150D01*
X151127000Y-124500000D01*
X151123622Y-124470903D01*
X151102562Y-124425100D01*
X151065341Y-124391098D01*
X150939923Y-124315847D01*
X170250516Y-124315847D01*
X170268965Y-125108497D01*
X170536806Y-125755126D01*
X170930850Y-125807545D01*
X172072595Y-124665800D01*
X172431805Y-124665800D01*
X173573550Y-125807545D01*
X173967594Y-125755126D01*
X174253884Y-125015753D01*
X174235435Y-124223103D01*
X173967594Y-123576474D01*
X173573550Y-123524055D01*
X172431805Y-124665800D01*
X172072595Y-124665800D01*
X170930850Y-123524055D01*
X170536806Y-123576474D01*
X170250516Y-124315847D01*
X150939923Y-124315847D01*
X149320929Y-123344450D01*
X171110455Y-123344450D01*
X172252200Y-124486195D01*
X173393945Y-123344450D01*
X173341526Y-122950406D01*
X172602153Y-122664116D01*
X171809503Y-122682565D01*
X171162874Y-122950406D01*
X171110455Y-123344450D01*
X149320929Y-123344450D01*
X148627000Y-122928093D01*
X148627000Y-118750901D01*
X161624091Y-118750901D01*
X161895268Y-119407200D01*
X162396959Y-119909767D01*
X163052784Y-120182089D01*
X163762901Y-120182709D01*
X164419200Y-119911532D01*
X164430662Y-119900089D01*
X170792343Y-119900089D01*
X171017944Y-120446086D01*
X171435317Y-120864188D01*
X171980919Y-121090742D01*
X172571689Y-121091257D01*
X173117686Y-120865656D01*
X173535788Y-120448283D01*
X173762342Y-119902681D01*
X173762857Y-119311911D01*
X173537256Y-118765914D01*
X173119883Y-118347812D01*
X173072954Y-118328325D01*
X177802187Y-118328325D01*
X178164516Y-119205229D01*
X178834842Y-119876726D01*
X179711113Y-120240585D01*
X180659925Y-120241413D01*
X181536829Y-119879084D01*
X182208326Y-119208758D01*
X182572185Y-118332487D01*
X182573013Y-117383675D01*
X182210684Y-116506771D01*
X181540358Y-115835274D01*
X180664087Y-115471415D01*
X179715275Y-115470587D01*
X178838371Y-115832916D01*
X178166874Y-116503242D01*
X177803015Y-117379513D01*
X177802187Y-118328325D01*
X173072954Y-118328325D01*
X172574281Y-118121258D01*
X171983511Y-118120743D01*
X171437514Y-118346344D01*
X171019412Y-118763717D01*
X170792858Y-119309319D01*
X170792343Y-119900089D01*
X164430662Y-119900089D01*
X164921767Y-119409841D01*
X165194089Y-118754016D01*
X165194709Y-118043899D01*
X164939957Y-117427350D01*
X171135855Y-117427350D01*
X171188274Y-117821394D01*
X171927647Y-118107684D01*
X172720297Y-118089235D01*
X173366926Y-117821394D01*
X173419345Y-117427350D01*
X172277600Y-116285605D01*
X171135855Y-117427350D01*
X164939957Y-117427350D01*
X164923532Y-117387600D01*
X164421841Y-116885033D01*
X163766016Y-116612711D01*
X163055899Y-116612091D01*
X162399600Y-116883268D01*
X161897033Y-117384959D01*
X161624711Y-118040784D01*
X161624091Y-118750901D01*
X148627000Y-118750901D01*
X148627000Y-115756047D01*
X170275916Y-115756047D01*
X170294365Y-116548697D01*
X170562206Y-117195326D01*
X170956250Y-117247745D01*
X172097995Y-116106000D01*
X172457205Y-116106000D01*
X173598950Y-117247745D01*
X173992994Y-117195326D01*
X174279284Y-116455953D01*
X174260835Y-115663303D01*
X173992994Y-115016674D01*
X173598950Y-114964255D01*
X172457205Y-116106000D01*
X172097995Y-116106000D01*
X170956250Y-114964255D01*
X170562206Y-115016674D01*
X170275916Y-115756047D01*
X148627000Y-115756047D01*
X148627000Y-114784650D01*
X171135855Y-114784650D01*
X172277600Y-115926395D01*
X173419345Y-114784650D01*
X173366926Y-114390606D01*
X172627553Y-114104316D01*
X171834903Y-114122765D01*
X171188274Y-114390606D01*
X171135855Y-114784650D01*
X148627000Y-114784650D01*
X148627000Y-111391089D01*
X170741543Y-111391089D01*
X170967144Y-111937086D01*
X171384517Y-112355188D01*
X171930119Y-112581742D01*
X172520889Y-112582257D01*
X173066886Y-112356656D01*
X173484988Y-111939283D01*
X173711542Y-111393681D01*
X173712057Y-110802911D01*
X173486456Y-110256914D01*
X173069083Y-109838812D01*
X173022154Y-109819325D01*
X177751387Y-109819325D01*
X178113716Y-110696229D01*
X178784042Y-111367726D01*
X179660313Y-111731585D01*
X180609125Y-111732413D01*
X181486029Y-111370084D01*
X182157526Y-110699758D01*
X182521385Y-109823487D01*
X182522213Y-108874675D01*
X182159884Y-107997771D01*
X181489558Y-107326274D01*
X180613287Y-106962415D01*
X179664475Y-106961587D01*
X178787571Y-107323916D01*
X178116074Y-107994242D01*
X177752215Y-108870513D01*
X177751387Y-109819325D01*
X173022154Y-109819325D01*
X172523481Y-109612258D01*
X171932711Y-109611743D01*
X171386714Y-109837344D01*
X170968612Y-110254717D01*
X170742058Y-110800319D01*
X170741543Y-111391089D01*
X148627000Y-111391089D01*
X148627000Y-108918350D01*
X171085055Y-108918350D01*
X171137474Y-109312394D01*
X171876847Y-109598684D01*
X172669497Y-109580235D01*
X173316126Y-109312394D01*
X173368545Y-108918350D01*
X172226800Y-107776605D01*
X171085055Y-108918350D01*
X148627000Y-108918350D01*
X148627000Y-106550901D01*
X149624091Y-106550901D01*
X149895268Y-107207200D01*
X150396959Y-107709767D01*
X151052784Y-107982089D01*
X151762901Y-107982709D01*
X152419200Y-107711532D01*
X152921767Y-107209841D01*
X153194089Y-106554016D01*
X153194091Y-106550901D01*
X161624091Y-106550901D01*
X161895268Y-107207200D01*
X162396959Y-107709767D01*
X163052784Y-107982089D01*
X163762901Y-107982709D01*
X164419200Y-107711532D01*
X164884496Y-107247047D01*
X170225116Y-107247047D01*
X170243565Y-108039697D01*
X170511406Y-108686326D01*
X170905450Y-108738745D01*
X172047195Y-107597000D01*
X172406405Y-107597000D01*
X173548150Y-108738745D01*
X173942194Y-108686326D01*
X174228484Y-107946953D01*
X174210035Y-107154303D01*
X173942194Y-106507674D01*
X173548150Y-106455255D01*
X172406405Y-107597000D01*
X172047195Y-107597000D01*
X170905450Y-106455255D01*
X170511406Y-106507674D01*
X170225116Y-107247047D01*
X164884496Y-107247047D01*
X164921767Y-107209841D01*
X165194089Y-106554016D01*
X165194332Y-106275650D01*
X171085055Y-106275650D01*
X172226800Y-107417395D01*
X173368545Y-106275650D01*
X173316126Y-105881606D01*
X172576753Y-105595316D01*
X171784103Y-105613765D01*
X171137474Y-105881606D01*
X171085055Y-106275650D01*
X165194332Y-106275650D01*
X165194709Y-105843899D01*
X164923532Y-105187600D01*
X164421841Y-104685033D01*
X163766016Y-104412711D01*
X163055899Y-104412091D01*
X162399600Y-104683268D01*
X161897033Y-105184959D01*
X161624711Y-105840784D01*
X161624091Y-106550901D01*
X153194091Y-106550901D01*
X153194709Y-105843899D01*
X152923532Y-105187600D01*
X152421841Y-104685033D01*
X151766016Y-104412711D01*
X151055899Y-104412091D01*
X150399600Y-104683268D01*
X149897033Y-105184959D01*
X149624711Y-105840784D01*
X149624091Y-106550901D01*
X148627000Y-106550901D01*
X148627000Y-104000901D01*
X155624091Y-104000901D01*
X155895268Y-104657200D01*
X156396959Y-105159767D01*
X157052784Y-105432089D01*
X157762901Y-105432709D01*
X158419200Y-105161532D01*
X158921767Y-104659841D01*
X159194089Y-104004016D01*
X159194709Y-103293899D01*
X159056038Y-102958289D01*
X170716143Y-102958289D01*
X170941744Y-103504286D01*
X171359117Y-103922388D01*
X171904719Y-104148942D01*
X172495489Y-104149457D01*
X173041486Y-103923856D01*
X173459588Y-103506483D01*
X173686142Y-102960881D01*
X173686657Y-102370111D01*
X173461056Y-101824114D01*
X173043683Y-101406012D01*
X172996754Y-101386525D01*
X177725987Y-101386525D01*
X178088316Y-102263429D01*
X178758642Y-102934926D01*
X179634913Y-103298785D01*
X180583725Y-103299613D01*
X181460629Y-102937284D01*
X182132126Y-102266958D01*
X182495985Y-101390687D01*
X182496813Y-100441875D01*
X182134484Y-99564971D01*
X181464158Y-98893474D01*
X180587887Y-98529615D01*
X179639075Y-98528787D01*
X178762171Y-98891116D01*
X178090674Y-99561442D01*
X177726815Y-100437713D01*
X177725987Y-101386525D01*
X172996754Y-101386525D01*
X172498081Y-101179458D01*
X171907311Y-101178943D01*
X171361314Y-101404544D01*
X170943212Y-101821917D01*
X170716658Y-102367519D01*
X170716143Y-102958289D01*
X159056038Y-102958289D01*
X158923532Y-102637600D01*
X158421841Y-102135033D01*
X157766016Y-101862711D01*
X157055899Y-101862091D01*
X156399600Y-102133268D01*
X155897033Y-102634959D01*
X155624711Y-103290784D01*
X155624091Y-104000901D01*
X148627000Y-104000901D01*
X148627000Y-99458289D01*
X170716143Y-99458289D01*
X170941744Y-100004286D01*
X171359117Y-100422388D01*
X171904719Y-100648942D01*
X172495489Y-100649457D01*
X173041486Y-100423856D01*
X173459588Y-100006483D01*
X173686142Y-99460881D01*
X173686657Y-98870111D01*
X173461056Y-98324114D01*
X173043683Y-97906012D01*
X172498081Y-97679458D01*
X171907311Y-97678943D01*
X171361314Y-97904544D01*
X170943212Y-98321917D01*
X170716658Y-98867519D01*
X170716143Y-99458289D01*
X148627000Y-99458289D01*
X148627000Y-99000000D01*
X148618315Y-98953841D01*
X148591035Y-98911447D01*
X148549410Y-98883006D01*
X148500000Y-98873000D01*
X148130234Y-98873000D01*
X148004236Y-98746782D01*
X147677609Y-98611154D01*
X147388904Y-98610903D01*
X147389154Y-98323943D01*
X147254097Y-97997080D01*
X147004236Y-97746782D01*
X146677609Y-97611154D01*
X146323943Y-97610846D01*
X145999606Y-97744859D01*
X145677609Y-97611154D01*
X145323943Y-97610846D01*
X144999606Y-97744859D01*
X144677609Y-97611154D01*
X144323943Y-97610846D01*
X143999606Y-97744859D01*
X143677609Y-97611154D01*
X143323943Y-97610846D01*
X142999606Y-97744859D01*
X142677609Y-97611154D01*
X142323943Y-97610846D01*
X141999606Y-97744859D01*
X141677609Y-97611154D01*
X141323943Y-97610846D01*
X140999606Y-97744859D01*
X140677609Y-97611154D01*
X140323943Y-97610846D01*
X139999606Y-97744859D01*
X139677609Y-97611154D01*
X139323943Y-97610846D01*
X138997080Y-97745903D01*
X138746782Y-97995764D01*
X138611154Y-98322391D01*
X138610846Y-98676057D01*
X138744859Y-99000394D01*
X138611154Y-99322391D01*
X138610846Y-99676057D01*
X138744859Y-100000394D01*
X138611154Y-100322391D01*
X138610846Y-100676057D01*
X138745903Y-101002920D01*
X138995764Y-101253218D01*
X139322391Y-101388846D01*
X139676057Y-101389154D01*
X139873000Y-101307779D01*
X139873000Y-101574600D01*
X118369985Y-101574600D01*
X118362272Y-101528321D01*
X118330446Y-101463195D01*
X118289623Y-101433616D01*
X118240509Y-101422248D01*
X118190841Y-101430885D01*
X118148447Y-101458165D01*
X118120006Y-101499790D01*
X118110000Y-101549200D01*
X118110000Y-115747800D01*
X106451400Y-115747800D01*
X106405241Y-115756485D01*
X106362847Y-115783765D01*
X106334406Y-115825390D01*
X106324400Y-115874800D01*
X98169661Y-115874800D01*
X98158235Y-115383903D01*
X97890394Y-114737274D01*
X97496350Y-114684855D01*
X96354605Y-115826600D01*
X95995395Y-115826600D01*
X94853650Y-114684855D01*
X94459606Y-114737274D01*
X94173316Y-115476647D01*
X89426958Y-115476647D01*
X88741487Y-115192015D01*
X87792675Y-115191187D01*
X86915771Y-115553516D01*
X86244274Y-116223842D01*
X85880415Y-117100113D01*
X85879587Y-118048925D01*
X84530000Y-118048925D01*
X84530000Y-114505250D01*
X95033255Y-114505250D01*
X96175000Y-115646995D01*
X97316745Y-114505250D01*
X97264326Y-114111206D01*
X96524953Y-113824916D01*
X95732303Y-113843365D01*
X95085674Y-114111206D01*
X95033255Y-114505250D01*
X84530000Y-114505250D01*
X84530000Y-93749657D01*
X162712246Y-93749657D01*
X162847303Y-94076520D01*
X163097164Y-94326818D01*
X163423791Y-94462446D01*
X163777457Y-94462754D01*
X164104320Y-94327697D01*
X164354618Y-94077836D01*
X164490246Y-93751209D01*
X164490554Y-93397543D01*
X164355497Y-93070680D01*
X164105636Y-92820382D01*
X163779009Y-92684754D01*
X163425343Y-92684446D01*
X163098480Y-92819503D01*
X162848182Y-93069364D01*
X162712554Y-93395991D01*
X162712246Y-93749657D01*
X84530000Y-93749657D01*
X84530000Y-91844657D01*
X146405446Y-91844657D01*
X146540503Y-92171520D01*
X146790364Y-92421818D01*
X147116991Y-92557446D01*
X147470657Y-92557754D01*
X147797520Y-92422697D01*
X148047818Y-92172836D01*
X148183446Y-91846209D01*
X148183754Y-91492543D01*
X148048697Y-91165680D01*
X147798836Y-90915382D01*
X147472209Y-90779754D01*
X147118543Y-90779446D01*
X146791680Y-90914503D01*
X146541382Y-91164364D01*
X146405754Y-91490991D01*
X146405446Y-91844657D01*
X84530000Y-91844657D01*
X84530000Y-89977757D01*
X115948306Y-89977757D01*
X116083363Y-90304620D01*
X116333224Y-90554918D01*
X116659851Y-90690546D01*
X117013517Y-90690854D01*
X117340380Y-90555797D01*
X117590678Y-90305936D01*
X117622748Y-90228701D01*
X155638291Y-90228701D01*
X155909468Y-90885000D01*
X156411159Y-91387567D01*
X157066984Y-91659889D01*
X157777101Y-91660509D01*
X158433400Y-91389332D01*
X158935967Y-90887641D01*
X159208289Y-90231816D01*
X159208909Y-89521699D01*
X158937732Y-88865400D01*
X158436041Y-88362833D01*
X157780216Y-88090511D01*
X157070099Y-88089891D01*
X156413800Y-88361068D01*
X155911233Y-88862759D01*
X155638911Y-89518584D01*
X155638291Y-90228701D01*
X117622748Y-90228701D01*
X117726306Y-89979309D01*
X117726614Y-89625643D01*
X117591557Y-89298780D01*
X117341696Y-89048482D01*
X117015069Y-88912854D01*
X116661403Y-88912546D01*
X116334540Y-89047603D01*
X116084242Y-89297464D01*
X115948614Y-89624091D01*
X115948306Y-89977757D01*
X84530000Y-89977757D01*
X84530000Y-85719874D01*
X86364370Y-85719874D01*
X86916600Y-87056372D01*
X87938249Y-88079806D01*
X89273782Y-88634368D01*
X90719874Y-88635630D01*
X92056372Y-88083400D01*
X93079806Y-87061751D01*
X93108247Y-86993257D01*
X106095646Y-86993257D01*
X106230703Y-87320120D01*
X106480564Y-87570418D01*
X106807191Y-87706046D01*
X107014128Y-87706226D01*
X107043503Y-87777320D01*
X107293364Y-88027618D01*
X107619991Y-88163246D01*
X107973657Y-88163554D01*
X108300520Y-88028497D01*
X108550818Y-87778636D01*
X108592314Y-87678701D01*
X149638291Y-87678701D01*
X149909468Y-88335000D01*
X150411159Y-88837567D01*
X151066984Y-89109889D01*
X151777101Y-89110509D01*
X152433400Y-88839332D01*
X152935967Y-88337641D01*
X153208289Y-87681816D01*
X153208291Y-87678701D01*
X161638291Y-87678701D01*
X161909468Y-88335000D01*
X162411159Y-88837567D01*
X163066984Y-89109889D01*
X163777101Y-89110509D01*
X164433400Y-88839332D01*
X164935967Y-88337641D01*
X165208289Y-87681816D01*
X165208909Y-86971699D01*
X164937732Y-86315400D01*
X164436041Y-85812833D01*
X163780216Y-85540511D01*
X163070099Y-85539891D01*
X162413800Y-85811068D01*
X161911233Y-86312759D01*
X161638911Y-86968584D01*
X161638291Y-87678701D01*
X153208291Y-87678701D01*
X153208909Y-86971699D01*
X152937732Y-86315400D01*
X152436041Y-85812833D01*
X151780216Y-85540511D01*
X151070099Y-85539891D01*
X150413800Y-85811068D01*
X149911233Y-86312759D01*
X149638911Y-86968584D01*
X149638291Y-87678701D01*
X108592314Y-87678701D01*
X108686446Y-87452009D01*
X108686754Y-87098343D01*
X108551697Y-86771480D01*
X108301836Y-86521182D01*
X107975209Y-86385554D01*
X107768272Y-86385374D01*
X107738897Y-86314280D01*
X107489036Y-86063982D01*
X107162409Y-85928354D01*
X106808743Y-85928046D01*
X106481880Y-86063103D01*
X106231582Y-86312964D01*
X106095954Y-86639591D01*
X106095646Y-86993257D01*
X93108247Y-86993257D01*
X93634368Y-85726218D01*
X93635630Y-84280126D01*
X93083400Y-82943628D01*
X92061751Y-81920194D01*
X90726218Y-81365632D01*
X89280126Y-81364370D01*
X87943628Y-81916600D01*
X86920194Y-82938249D01*
X86365632Y-84273782D01*
X86364370Y-85719874D01*
X84530000Y-85719874D01*
X84530000Y-79421975D01*
X98001003Y-79421975D01*
X98170710Y-79832695D01*
X98001397Y-80240444D01*
X98001003Y-80691975D01*
X98170710Y-81102695D01*
X98001397Y-81510444D01*
X98001003Y-81961975D01*
X98170710Y-82372695D01*
X98001397Y-82780444D01*
X98001003Y-83231975D01*
X98170710Y-83642695D01*
X98001397Y-84050444D01*
X98001003Y-84501975D01*
X98173433Y-84919286D01*
X98492435Y-85238845D01*
X98909444Y-85412003D01*
X99360975Y-85412397D01*
X99771695Y-85242690D01*
X100179444Y-85412003D01*
X100630975Y-85412397D01*
X101048286Y-85239967D01*
X101367845Y-84920965D01*
X101416505Y-84803777D01*
X127192886Y-84803777D01*
X127327943Y-85130640D01*
X127577804Y-85380938D01*
X127904431Y-85516566D01*
X128258097Y-85516874D01*
X128584960Y-85381817D01*
X128835258Y-85131956D01*
X128970886Y-84805329D01*
X128971194Y-84451663D01*
X128836137Y-84124800D01*
X128586276Y-83874502D01*
X128259649Y-83738874D01*
X127905983Y-83738566D01*
X127579120Y-83873623D01*
X127328822Y-84123484D01*
X127193194Y-84450111D01*
X127192886Y-84803777D01*
X101416505Y-84803777D01*
X101541003Y-84503956D01*
X101541397Y-84052425D01*
X101371690Y-83641705D01*
X101541003Y-83233956D01*
X101541238Y-82963767D01*
X108792838Y-82963767D01*
X108934883Y-83307543D01*
X109197673Y-83570792D01*
X109541201Y-83713438D01*
X109913167Y-83713762D01*
X110256943Y-83571717D01*
X110520192Y-83308927D01*
X110662838Y-82965399D01*
X110663162Y-82593433D01*
X110521117Y-82249657D01*
X110258327Y-81986408D01*
X109914799Y-81843762D01*
X109542833Y-81843438D01*
X109199057Y-81985483D01*
X108935808Y-82248273D01*
X108793162Y-82591801D01*
X108792838Y-82963767D01*
X101541238Y-82963767D01*
X101541397Y-82782425D01*
X101476642Y-82625706D01*
X101832204Y-82616272D01*
X102060062Y-82003649D01*
X102036135Y-81350461D01*
X101832204Y-80858128D01*
X101476749Y-80848697D01*
X101477679Y-80846457D01*
X106959246Y-80846457D01*
X107094303Y-81173320D01*
X107344164Y-81423618D01*
X107670791Y-81559246D01*
X108024457Y-81559554D01*
X108351320Y-81424497D01*
X108601618Y-81174636D01*
X108669747Y-81010565D01*
X108842073Y-81183192D01*
X109185601Y-81325838D01*
X109557567Y-81326162D01*
X109901343Y-81184117D01*
X110164592Y-80921327D01*
X110307238Y-80577799D01*
X110307269Y-80541657D01*
X110794646Y-80541657D01*
X110929703Y-80868520D01*
X111179564Y-81118818D01*
X111506191Y-81254446D01*
X111859857Y-81254754D01*
X112048866Y-81176657D01*
X130581246Y-81176657D01*
X130716303Y-81503520D01*
X130966164Y-81753818D01*
X131292791Y-81889446D01*
X131646457Y-81889754D01*
X131973320Y-81754697D01*
X132223618Y-81504836D01*
X132340905Y-81222377D01*
X132928206Y-81222377D01*
X133063263Y-81549240D01*
X133313124Y-81799538D01*
X133639751Y-81935166D01*
X133993417Y-81935474D01*
X134320280Y-81800417D01*
X134570578Y-81550556D01*
X134706206Y-81223929D01*
X134706514Y-80870263D01*
X134571457Y-80543400D01*
X134321596Y-80293102D01*
X133994969Y-80157474D01*
X133641303Y-80157166D01*
X133314440Y-80292223D01*
X133064142Y-80542084D01*
X132928514Y-80868711D01*
X132928206Y-81222377D01*
X132340905Y-81222377D01*
X132359246Y-81178209D01*
X132359554Y-80824543D01*
X132224497Y-80497680D01*
X131974636Y-80247382D01*
X131648009Y-80111754D01*
X131294343Y-80111446D01*
X130967480Y-80246503D01*
X130717182Y-80496364D01*
X130581554Y-80822991D01*
X130581246Y-81176657D01*
X112048866Y-81176657D01*
X112186720Y-81119697D01*
X112437018Y-80869836D01*
X112572646Y-80543209D01*
X112572954Y-80189543D01*
X112437897Y-79862680D01*
X112188036Y-79612382D01*
X111861409Y-79476754D01*
X111507743Y-79476446D01*
X111180880Y-79611503D01*
X110930582Y-79861364D01*
X110794954Y-80187991D01*
X110794646Y-80541657D01*
X110307269Y-80541657D01*
X110307562Y-80205833D01*
X110165517Y-79862057D01*
X109902727Y-79598808D01*
X109559199Y-79456162D01*
X109187233Y-79455838D01*
X108843457Y-79597883D01*
X108580208Y-79860673D01*
X108496783Y-80061581D01*
X108352636Y-79917182D01*
X108026009Y-79781554D01*
X107672343Y-79781246D01*
X107345480Y-79916303D01*
X107095182Y-80166164D01*
X106959554Y-80492791D01*
X106959246Y-80846457D01*
X101477679Y-80846457D01*
X101541003Y-80693956D01*
X101541397Y-80242425D01*
X101476642Y-80085706D01*
X101832204Y-80076272D01*
X102060062Y-79463649D01*
X102036135Y-78810461D01*
X101832204Y-78318128D01*
X101474371Y-78308634D01*
X100585805Y-79197200D01*
X100783523Y-79394918D01*
X100632956Y-79332397D01*
X100333245Y-79332135D01*
X100271137Y-79270027D01*
X100271397Y-78972425D01*
X100208283Y-78819678D01*
X100406200Y-79017595D01*
X101294766Y-78129029D01*
X101293409Y-78077857D01*
X113893446Y-78077857D01*
X114028503Y-78404720D01*
X114278364Y-78655018D01*
X114604991Y-78790646D01*
X114958657Y-78790954D01*
X115285520Y-78655897D01*
X115535818Y-78406036D01*
X115671446Y-78079409D01*
X115671597Y-77905137D01*
X129036926Y-77905137D01*
X129171983Y-78232000D01*
X129421844Y-78482298D01*
X129748471Y-78617926D01*
X130102137Y-78618234D01*
X130429000Y-78483177D01*
X130679298Y-78233316D01*
X130814926Y-77906689D01*
X130815234Y-77553023D01*
X130680177Y-77226160D01*
X130430316Y-76975862D01*
X130103689Y-76840234D01*
X129750023Y-76839926D01*
X129423160Y-76974983D01*
X129172862Y-77224844D01*
X129037234Y-77551471D01*
X129036926Y-77905137D01*
X115671597Y-77905137D01*
X115671754Y-77725743D01*
X115536697Y-77398880D01*
X115286836Y-77148582D01*
X114960209Y-77012954D01*
X114606543Y-77012646D01*
X114279680Y-77147703D01*
X114029382Y-77397564D01*
X113893754Y-77724191D01*
X113893446Y-78077857D01*
X101293409Y-78077857D01*
X101285272Y-77771196D01*
X100672649Y-77543338D01*
X100019461Y-77567265D01*
X99527128Y-77771196D01*
X99517697Y-78126651D01*
X99362956Y-78062397D01*
X98911425Y-78062003D01*
X98494114Y-78234433D01*
X98174555Y-78553435D01*
X98001397Y-78970444D01*
X98001003Y-79421975D01*
X84530000Y-79421975D01*
X84530000Y-77876194D01*
X85023740Y-78014700D01*
X85298740Y-78014700D01*
X85298740Y-76498700D01*
X85278740Y-76498700D01*
X85278740Y-76244700D01*
X85298740Y-76244700D01*
X85298740Y-74728700D01*
X85552740Y-74728700D01*
X85552740Y-76244700D01*
X85572740Y-76244700D01*
X85572740Y-76498700D01*
X85552740Y-76498700D01*
X85552740Y-78014700D01*
X85827740Y-78014700D01*
X86446822Y-77841033D01*
X86952319Y-77443673D01*
X87267275Y-76883115D01*
X87269839Y-76872562D01*
X87725450Y-77090502D01*
X87747974Y-77094982D01*
X87998740Y-76847883D01*
X87998740Y-75498700D01*
X88252740Y-75498700D01*
X88252740Y-76847883D01*
X88503506Y-77094982D01*
X88526030Y-77090502D01*
X89063809Y-76833257D01*
X107822846Y-76833257D01*
X107957903Y-77160120D01*
X108207764Y-77410418D01*
X108534391Y-77546046D01*
X108888057Y-77546354D01*
X109149223Y-77438442D01*
X109347191Y-77520646D01*
X109700857Y-77520954D01*
X110027720Y-77385897D01*
X110278018Y-77136036D01*
X110413646Y-76809409D01*
X110413954Y-76455743D01*
X110278897Y-76128880D01*
X110029036Y-75878582D01*
X109702409Y-75742954D01*
X109348743Y-75742646D01*
X109087577Y-75850558D01*
X108889609Y-75768354D01*
X108535943Y-75768046D01*
X108209080Y-75903103D01*
X107958782Y-76152964D01*
X107823154Y-76479591D01*
X107822846Y-76833257D01*
X89063809Y-76833257D01*
X89095914Y-76817900D01*
X89518098Y-76347963D01*
X89728308Y-75752235D01*
X89458891Y-75498700D01*
X88252740Y-75498700D01*
X87998740Y-75498700D01*
X87978740Y-75498700D01*
X87978740Y-75410857D01*
X105562246Y-75410857D01*
X105697303Y-75737720D01*
X105947164Y-75988018D01*
X106273791Y-76123646D01*
X106627457Y-76123954D01*
X106954320Y-75988897D01*
X107204618Y-75739036D01*
X107340246Y-75412409D01*
X107340554Y-75058743D01*
X107205497Y-74731880D01*
X106955636Y-74481582D01*
X106629009Y-74345954D01*
X106275343Y-74345646D01*
X105948480Y-74480703D01*
X105698182Y-74730564D01*
X105562554Y-75057191D01*
X105562246Y-75410857D01*
X87978740Y-75410857D01*
X87978740Y-75244700D01*
X87998740Y-75244700D01*
X87998740Y-73895517D01*
X88252740Y-73895517D01*
X88252740Y-75244700D01*
X89458891Y-75244700D01*
X89728308Y-74991165D01*
X89696553Y-74901172D01*
X89716564Y-74921218D01*
X90043191Y-75056846D01*
X90396857Y-75057154D01*
X90723720Y-74922097D01*
X90974018Y-74672236D01*
X91109646Y-74345609D01*
X91109954Y-73991943D01*
X90974897Y-73665080D01*
X90725036Y-73414782D01*
X90398409Y-73279154D01*
X90044743Y-73278846D01*
X89717880Y-73413903D01*
X89467582Y-73663764D01*
X89331954Y-73990391D01*
X89331782Y-74188047D01*
X89095914Y-73925500D01*
X88526030Y-73652898D01*
X88503506Y-73648418D01*
X88252740Y-73895517D01*
X87998740Y-73895517D01*
X87747974Y-73648418D01*
X87725450Y-73652898D01*
X87155566Y-73925500D01*
X86733382Y-74395437D01*
X86531122Y-74968634D01*
X86446822Y-74902367D01*
X85827740Y-74728700D01*
X85552740Y-74728700D01*
X85298740Y-74728700D01*
X85023740Y-74728700D01*
X84530000Y-74867206D01*
X84530000Y-70876194D01*
X85023740Y-71014700D01*
X85298740Y-71014700D01*
X85298740Y-69498700D01*
X85278740Y-69498700D01*
X85278740Y-69244700D01*
X85298740Y-69244700D01*
X85298740Y-67728700D01*
X85552740Y-67728700D01*
X85552740Y-69244700D01*
X85572740Y-69244700D01*
X85572740Y-69498700D01*
X85552740Y-69498700D01*
X85552740Y-71014700D01*
X85827740Y-71014700D01*
X86446822Y-70841033D01*
X86531122Y-70774766D01*
X86733382Y-71347963D01*
X87155566Y-71817900D01*
X87725450Y-72090502D01*
X87747974Y-72094982D01*
X87998740Y-71847883D01*
X87998740Y-70498700D01*
X88252740Y-70498700D01*
X88252740Y-71847883D01*
X88503506Y-72094982D01*
X88526030Y-72090502D01*
X88992104Y-71867557D01*
X99021746Y-71867557D01*
X99156803Y-72194420D01*
X99406664Y-72444718D01*
X99733291Y-72580346D01*
X100086957Y-72580654D01*
X100413820Y-72445597D01*
X100664118Y-72195736D01*
X100799746Y-71869109D01*
X100800054Y-71515443D01*
X100664997Y-71188580D01*
X100415136Y-70938282D01*
X100088509Y-70802654D01*
X99734843Y-70802346D01*
X99407980Y-70937403D01*
X99157682Y-71187264D01*
X99022054Y-71513891D01*
X99021746Y-71867557D01*
X88992104Y-71867557D01*
X89095914Y-71817900D01*
X89518098Y-71347963D01*
X89728308Y-70752235D01*
X89577437Y-70610257D01*
X100558446Y-70610257D01*
X100693503Y-70937120D01*
X100943364Y-71187418D01*
X101269991Y-71323046D01*
X101465582Y-71323216D01*
X101396954Y-71488491D01*
X101396646Y-71842157D01*
X101531703Y-72169020D01*
X101676119Y-72313689D01*
X101627143Y-72313646D01*
X101300280Y-72448703D01*
X101049982Y-72698564D01*
X100914354Y-73025191D01*
X100914046Y-73378857D01*
X101049103Y-73705720D01*
X101298964Y-73956018D01*
X101625591Y-74091646D01*
X101979257Y-74091954D01*
X102306120Y-73956897D01*
X102556418Y-73707036D01*
X102692046Y-73380409D01*
X102692354Y-73026743D01*
X102557297Y-72699880D01*
X102412881Y-72555211D01*
X102461857Y-72555254D01*
X102788720Y-72420197D01*
X103039018Y-72170336D01*
X103174646Y-71843709D01*
X103174945Y-71499257D01*
X104724046Y-71499257D01*
X104859103Y-71826120D01*
X105108964Y-72076418D01*
X105435591Y-72212046D01*
X105789257Y-72212354D01*
X105841663Y-72190700D01*
X105841646Y-72210457D01*
X105905326Y-72364575D01*
X105841954Y-72517191D01*
X105841646Y-72870857D01*
X105905326Y-73024975D01*
X105841954Y-73177591D01*
X105841646Y-73531257D01*
X105976703Y-73858120D01*
X106226564Y-74108418D01*
X106553191Y-74244046D01*
X106906857Y-74244354D01*
X107233720Y-74109297D01*
X107484018Y-73859436D01*
X107619646Y-73532809D01*
X107619954Y-73179143D01*
X107556274Y-73025025D01*
X107619646Y-72872409D01*
X107619954Y-72518743D01*
X107556274Y-72364625D01*
X107619646Y-72212009D01*
X107619954Y-71858343D01*
X107484897Y-71531480D01*
X107235036Y-71281182D01*
X106908409Y-71145554D01*
X106554743Y-71145246D01*
X106502337Y-71166900D01*
X106502354Y-71147143D01*
X106367297Y-70820280D01*
X106117436Y-70569982D01*
X105790809Y-70434354D01*
X105437143Y-70434046D01*
X105110280Y-70569103D01*
X104859982Y-70818964D01*
X104724354Y-71145591D01*
X104724046Y-71499257D01*
X103174945Y-71499257D01*
X103174954Y-71490043D01*
X103039897Y-71163180D01*
X102790036Y-70912882D01*
X102463409Y-70777254D01*
X102267818Y-70777084D01*
X102336446Y-70611809D01*
X102336754Y-70258143D01*
X102201697Y-69931280D01*
X101951836Y-69680982D01*
X101625209Y-69545354D01*
X101271543Y-69545046D01*
X100944680Y-69680103D01*
X100694382Y-69929964D01*
X100558754Y-70256591D01*
X100558446Y-70610257D01*
X89577437Y-70610257D01*
X89458891Y-70498700D01*
X88252740Y-70498700D01*
X87998740Y-70498700D01*
X87978740Y-70498700D01*
X87978740Y-70244700D01*
X87998740Y-70244700D01*
X87998740Y-68895517D01*
X88252740Y-68895517D01*
X88252740Y-70244700D01*
X89458891Y-70244700D01*
X89728308Y-69991165D01*
X89518098Y-69395437D01*
X89095914Y-68925500D01*
X88526030Y-68652898D01*
X88503506Y-68648418D01*
X88252740Y-68895517D01*
X87998740Y-68895517D01*
X87747974Y-68648418D01*
X87725450Y-68652898D01*
X87269839Y-68870838D01*
X87267275Y-68860285D01*
X86952319Y-68299727D01*
X86773495Y-68159157D01*
X98907446Y-68159157D01*
X99042503Y-68486020D01*
X99047364Y-68490889D01*
X99043382Y-68494864D01*
X98907754Y-68821491D01*
X98907446Y-69175157D01*
X99042503Y-69502020D01*
X99292364Y-69752318D01*
X99618991Y-69887946D01*
X99972657Y-69888254D01*
X100299520Y-69753197D01*
X100549818Y-69503336D01*
X100685446Y-69176709D01*
X100685754Y-68823043D01*
X100550697Y-68496180D01*
X100545836Y-68491311D01*
X100549818Y-68487336D01*
X100685446Y-68160709D01*
X100685754Y-67807043D01*
X100550697Y-67480180D01*
X100300836Y-67229882D01*
X99974209Y-67094254D01*
X99620543Y-67093946D01*
X99293680Y-67229003D01*
X99043382Y-67478864D01*
X98907754Y-67805491D01*
X98907446Y-68159157D01*
X86773495Y-68159157D01*
X86446822Y-67902367D01*
X85827740Y-67728700D01*
X85552740Y-67728700D01*
X85298740Y-67728700D01*
X85023740Y-67728700D01*
X84530000Y-67867206D01*
X84530000Y-67016157D01*
X91084246Y-67016157D01*
X91219303Y-67343020D01*
X91469164Y-67593318D01*
X91795791Y-67728946D01*
X92149457Y-67729254D01*
X92476320Y-67594197D01*
X92726618Y-67344336D01*
X92862246Y-67017709D01*
X92862554Y-66664043D01*
X92727497Y-66337180D01*
X92477636Y-66086882D01*
X92151009Y-65951254D01*
X91797343Y-65950946D01*
X91470480Y-66086003D01*
X91220182Y-66335864D01*
X91084554Y-66662491D01*
X91084246Y-67016157D01*
X84530000Y-67016157D01*
X84530000Y-65911257D01*
X101625246Y-65911257D01*
X101760303Y-66238120D01*
X102010164Y-66488418D01*
X102336791Y-66624046D01*
X102690457Y-66624354D01*
X103017320Y-66489297D01*
X103267618Y-66239436D01*
X103403246Y-65912809D01*
X103403554Y-65559143D01*
X103268497Y-65232280D01*
X103018636Y-64981982D01*
X102692009Y-64846354D01*
X102338343Y-64846046D01*
X102011480Y-64981103D01*
X101761182Y-65230964D01*
X101625554Y-65557591D01*
X101625246Y-65911257D01*
X84530000Y-65911257D01*
X84530000Y-62710857D01*
X96977046Y-62710857D01*
X97112103Y-63037720D01*
X97361964Y-63288018D01*
X97688591Y-63423646D01*
X98042257Y-63423954D01*
X98369120Y-63288897D01*
X98619418Y-63039036D01*
X98755046Y-62712409D01*
X98755354Y-62358743D01*
X98620297Y-62031880D01*
X98370436Y-61781582D01*
X98043809Y-61645954D01*
X97690143Y-61645646D01*
X97363280Y-61780703D01*
X97112982Y-62030564D01*
X96977354Y-62357191D01*
X96977046Y-62710857D01*
X84530000Y-62710857D01*
X84530000Y-60374057D01*
X97053246Y-60374057D01*
X97188303Y-60700920D01*
X97438164Y-60951218D01*
X97764791Y-61086846D01*
X98118457Y-61087154D01*
X98445320Y-60952097D01*
X98695618Y-60702236D01*
X98831246Y-60375609D01*
X98831554Y-60021943D01*
X98696497Y-59695080D01*
X98446636Y-59444782D01*
X98120009Y-59309154D01*
X97766343Y-59308846D01*
X97439480Y-59443903D01*
X97189182Y-59693764D01*
X97053554Y-60020391D01*
X97053246Y-60374057D01*
X84530000Y-60374057D01*
X84530000Y-58418257D01*
X94945046Y-58418257D01*
X95080103Y-58745120D01*
X95329964Y-58995418D01*
X95656591Y-59131046D01*
X96010257Y-59131354D01*
X96337120Y-58996297D01*
X96587418Y-58746436D01*
X96723046Y-58419809D01*
X96723354Y-58066143D01*
X96588297Y-57739280D01*
X96338436Y-57488982D01*
X96011809Y-57353354D01*
X95658143Y-57353046D01*
X95331280Y-57488103D01*
X95080982Y-57737964D01*
X94945354Y-58064591D01*
X94945046Y-58418257D01*
X84530000Y-58418257D01*
X84530000Y-57046657D01*
X97104046Y-57046657D01*
X97239103Y-57373520D01*
X97488964Y-57623818D01*
X97815591Y-57759446D01*
X98169257Y-57759754D01*
X98496120Y-57624697D01*
X98741849Y-57379397D01*
X101820826Y-57379397D01*
X101955883Y-57706260D01*
X102205744Y-57956558D01*
X102532371Y-58092186D01*
X102886037Y-58092494D01*
X103212900Y-57957437D01*
X103463198Y-57707576D01*
X103598826Y-57380949D01*
X103599134Y-57027283D01*
X103464077Y-56700420D01*
X103214216Y-56450122D01*
X102887589Y-56314494D01*
X102533923Y-56314186D01*
X102207060Y-56449243D01*
X101956762Y-56699104D01*
X101821134Y-57025731D01*
X101820826Y-57379397D01*
X98741849Y-57379397D01*
X98746418Y-57374836D01*
X98882046Y-57048209D01*
X98882354Y-56694543D01*
X98747297Y-56367680D01*
X98497436Y-56117382D01*
X98170809Y-55981754D01*
X97817143Y-55981446D01*
X97490280Y-56116503D01*
X97239982Y-56366364D01*
X97104354Y-56692991D01*
X97104046Y-57046657D01*
X84530000Y-57046657D01*
X84530000Y-51520000D01*
X118197197Y-51520000D01*
X118084754Y-51790791D01*
X118084754Y-51790791D01*
G37*
X118084754Y-51790791D02*
X118084446Y-52144457D01*
X118219503Y-52471320D01*
X118469364Y-52721618D01*
X118795991Y-52857246D01*
X119149657Y-52857554D01*
X119476520Y-52722497D01*
X119726818Y-52472636D01*
X119862446Y-52146009D01*
X119862754Y-51792343D01*
X119750224Y-51520000D01*
X145786161Y-51520000D01*
X145718560Y-51533829D01*
X145119455Y-51862867D01*
X144890191Y-52148793D01*
X144718714Y-52034216D01*
X144246100Y-51940207D01*
X143773486Y-52034216D01*
X143372823Y-52301930D01*
X143246100Y-52491585D01*
X143119377Y-52301930D01*
X142718714Y-52034216D01*
X142246100Y-51940207D01*
X141773486Y-52034216D01*
X141396104Y-52286374D01*
X141310190Y-52152859D01*
X141097990Y-52007869D01*
X140846100Y-51956860D01*
X139646100Y-51956860D01*
X139410783Y-52001138D01*
X139194659Y-52140210D01*
X139049669Y-52352410D01*
X138998660Y-52604300D01*
X138998660Y-54304300D01*
X139042938Y-54539617D01*
X139182010Y-54755741D01*
X139394210Y-54900731D01*
X139646100Y-54951740D01*
X140846100Y-54951740D01*
X141081417Y-54907462D01*
X141297541Y-54768390D01*
X141397001Y-54622825D01*
X141486100Y-54682359D01*
X141486100Y-54751378D01*
X140238638Y-55998840D01*
X137097097Y-55998840D01*
X137375646Y-55581961D01*
X137481310Y-55050754D01*
X137481310Y-53458046D01*
X137375646Y-52926839D01*
X137074742Y-52476504D01*
X136624407Y-52175600D01*
X136093200Y-52069936D01*
X135561993Y-52175600D01*
X135111658Y-52476504D01*
X134823200Y-52908212D01*
X134534742Y-52476504D01*
X134084407Y-52175600D01*
X133553200Y-52069936D01*
X133021993Y-52175600D01*
X132571658Y-52476504D01*
X132270754Y-52926839D01*
X132165090Y-53458046D01*
X132165090Y-55050754D01*
X132270754Y-55581961D01*
X132549303Y-55998840D01*
X131500668Y-55998840D01*
X131762246Y-55607361D01*
X131867910Y-55076154D01*
X131867910Y-53483446D01*
X131762246Y-52952239D01*
X131461342Y-52501904D01*
X131011007Y-52201000D01*
X130479800Y-52095336D01*
X129948593Y-52201000D01*
X129498258Y-52501904D01*
X129209800Y-52933612D01*
X128921342Y-52501904D01*
X128471007Y-52201000D01*
X127939800Y-52095336D01*
X127408593Y-52201000D01*
X126958258Y-52501904D01*
X126657354Y-52952239D01*
X126551690Y-53483446D01*
X126551690Y-55076154D01*
X126657354Y-55607361D01*
X126918932Y-55998840D01*
X125785668Y-55998840D01*
X126047246Y-55607361D01*
X126152910Y-55076154D01*
X126152910Y-53483446D01*
X126047246Y-52952239D01*
X125746342Y-52501904D01*
X125296007Y-52201000D01*
X124764800Y-52095336D01*
X124233593Y-52201000D01*
X123783258Y-52501904D01*
X123494800Y-52933612D01*
X123206342Y-52501904D01*
X122756007Y-52201000D01*
X122224800Y-52095336D01*
X121693593Y-52201000D01*
X121243258Y-52501904D01*
X120942354Y-52952239D01*
X120836690Y-53483446D01*
X120836690Y-55076154D01*
X120942354Y-55607361D01*
X121203932Y-55998840D01*
X112131383Y-55998840D01*
X112131264Y-55998864D01*
X112131145Y-55998840D01*
X111985577Y-56027843D01*
X111840544Y-56056692D01*
X111840443Y-56056759D01*
X111840324Y-56056783D01*
X111716790Y-56139381D01*
X111593982Y-56221439D01*
X111593915Y-56221540D01*
X111593814Y-56221607D01*
X104745431Y-63074278D01*
X104662788Y-63198046D01*
X104580852Y-63320672D01*
X104580829Y-63320790D01*
X104580761Y-63320891D01*
X104551851Y-63466468D01*
X104523000Y-63611511D01*
X104523000Y-67685697D01*
X104394154Y-67995991D01*
X104393846Y-68349657D01*
X104528903Y-68676520D01*
X104540403Y-68688040D01*
X104432254Y-68948491D01*
X104431946Y-69302157D01*
X104567003Y-69629020D01*
X104816864Y-69879318D01*
X105143491Y-70014946D01*
X105497157Y-70015254D01*
X105593957Y-69975257D01*
X110083446Y-69975257D01*
X110218503Y-70302120D01*
X110468364Y-70552418D01*
X110794991Y-70688046D01*
X111148657Y-70688354D01*
X111475520Y-70553297D01*
X111725818Y-70303436D01*
X111861446Y-69976809D01*
X111861754Y-69623143D01*
X111726697Y-69296280D01*
X111476836Y-69045982D01*
X111150209Y-68910354D01*
X110796543Y-68910046D01*
X110469680Y-69045103D01*
X110219382Y-69294964D01*
X110083754Y-69621591D01*
X110083446Y-69975257D01*
X105593957Y-69975257D01*
X105824020Y-69880197D01*
X106074318Y-69630336D01*
X106169749Y-69400513D01*
X106496041Y-69074221D01*
X106660788Y-68827659D01*
X106718640Y-68536820D01*
X106718640Y-67948337D01*
X107010046Y-67948337D01*
X107145103Y-68275200D01*
X107394964Y-68525498D01*
X107721591Y-68661126D01*
X108075257Y-68661434D01*
X108233142Y-68596197D01*
X108420091Y-68673826D01*
X108773757Y-68674134D01*
X109086334Y-68544980D01*
X112903008Y-68544980D01*
X112902846Y-68730657D01*
X113032000Y-69043234D01*
X113032000Y-70525836D01*
X112953954Y-70713791D01*
X112953646Y-71067457D01*
X113088703Y-71394320D01*
X113320708Y-71626730D01*
X113309554Y-71653591D01*
X113309246Y-72007257D01*
X113444303Y-72334120D01*
X113694164Y-72584418D01*
X113833085Y-72642103D01*
X110993999Y-75481189D01*
X110829252Y-75727751D01*
X110805715Y-75846079D01*
X110778182Y-75873564D01*
X110642554Y-76200191D01*
X110642246Y-76553857D01*
X110777303Y-76880720D01*
X111027164Y-77131018D01*
X111353791Y-77266646D01*
X111707457Y-77266954D01*
X111751664Y-77248688D01*
X112039591Y-77368246D01*
X112393257Y-77368554D01*
X112720120Y-77233497D01*
X112788689Y-77165048D01*
X112957564Y-77334218D01*
X113284191Y-77469846D01*
X113637857Y-77470154D01*
X113964720Y-77335097D01*
X114215018Y-77085236D01*
X114350646Y-76758609D01*
X114350797Y-76584337D01*
X120461886Y-76584337D01*
X120596943Y-76911200D01*
X120846804Y-77161498D01*
X121173431Y-77297126D01*
X121527097Y-77297434D01*
X121853960Y-77162377D01*
X122104258Y-76912516D01*
X122206779Y-76665617D01*
X134884006Y-76665617D01*
X135019063Y-76992480D01*
X135268924Y-77242778D01*
X135595551Y-77378406D01*
X135949217Y-77378714D01*
X136276080Y-77243657D01*
X136526378Y-76993796D01*
X136662006Y-76667169D01*
X136662314Y-76313503D01*
X136527257Y-75986640D01*
X136277396Y-75736342D01*
X135950769Y-75600714D01*
X135597103Y-75600406D01*
X135270240Y-75735463D01*
X135019942Y-75985324D01*
X134884314Y-76311951D01*
X134884006Y-76665617D01*
X122206779Y-76665617D01*
X122239886Y-76585889D01*
X122240194Y-76232223D01*
X122105137Y-75905360D01*
X121855276Y-75655062D01*
X121528649Y-75519434D01*
X121174983Y-75519126D01*
X120848120Y-75654183D01*
X120597822Y-75904044D01*
X120462194Y-76230671D01*
X120461886Y-76584337D01*
X114350797Y-76584337D01*
X114350954Y-76404943D01*
X114215897Y-76078080D01*
X114143158Y-76005214D01*
X114244120Y-75963497D01*
X114494418Y-75713636D01*
X114630046Y-75387009D01*
X114630354Y-75033343D01*
X114507198Y-74735282D01*
X116560550Y-72681930D01*
X116716764Y-72838418D01*
X116865309Y-72900100D01*
X116865246Y-72972457D01*
X117000303Y-73299320D01*
X117250164Y-73549618D01*
X117576791Y-73685246D01*
X117930457Y-73685554D01*
X118033404Y-73643017D01*
X125364086Y-73643017D01*
X125499143Y-73969880D01*
X125749004Y-74220178D01*
X126075631Y-74355806D01*
X126429297Y-74356114D01*
X126756160Y-74221057D01*
X127006458Y-73971196D01*
X127142086Y-73644569D01*
X127142394Y-73290903D01*
X127007337Y-72964040D01*
X126757476Y-72713742D01*
X126430849Y-72578114D01*
X126077183Y-72577806D01*
X125750320Y-72712863D01*
X125500022Y-72962724D01*
X125364394Y-73289351D01*
X125364086Y-73643017D01*
X118033404Y-73643017D01*
X118257320Y-73550497D01*
X118507618Y-73300636D01*
X118643246Y-72974009D01*
X118643554Y-72620343D01*
X118508497Y-72293480D01*
X118258636Y-72043182D01*
X118171500Y-72007000D01*
X127591642Y-72007000D01*
X127591623Y-72028277D01*
X127726680Y-72355140D01*
X127976541Y-72605438D01*
X128303168Y-72741066D01*
X128656834Y-72741374D01*
X128983697Y-72606317D01*
X129233995Y-72356456D01*
X129369623Y-72029829D01*
X129369643Y-72007000D01*
X141650497Y-72007000D01*
X141960791Y-72135846D01*
X142314457Y-72136154D01*
X142641320Y-72001097D01*
X142891618Y-71751236D01*
X143027246Y-71424609D01*
X143027554Y-71070943D01*
X142971282Y-70934754D01*
X143052646Y-70738809D01*
X143052954Y-70385143D01*
X142917897Y-70058280D01*
X142668036Y-69807982D01*
X142341409Y-69672354D01*
X141987743Y-69672046D01*
X141660880Y-69807103D01*
X141660393Y-69807589D01*
X137632024Y-69807589D01*
X137502617Y-69494400D01*
X137252756Y-69244102D01*
X136926129Y-69108474D01*
X136572463Y-69108166D01*
X136245600Y-69243223D01*
X135995302Y-69493084D01*
X135864708Y-69807589D01*
X130806719Y-69807589D01*
X130936846Y-69494209D01*
X130937154Y-69140543D01*
X130805087Y-68820917D01*
X130936846Y-68503609D01*
X130937154Y-68149943D01*
X130802097Y-67823080D01*
X130552236Y-67572782D01*
X130225609Y-67437154D01*
X129871943Y-67436846D01*
X129545080Y-67571903D01*
X129294782Y-67821764D01*
X129159154Y-68148391D01*
X129158846Y-68502057D01*
X129290913Y-68821683D01*
X129159154Y-69138991D01*
X129158846Y-69492657D01*
X129288973Y-69807589D01*
X121208749Y-69807589D01*
X121208954Y-69572343D01*
X121073897Y-69245480D01*
X120824036Y-68995182D01*
X120497409Y-68859554D01*
X120143743Y-68859246D01*
X119816880Y-68994303D01*
X119566582Y-69244164D01*
X119430954Y-69570791D01*
X119430748Y-69807589D01*
X116982401Y-69807589D01*
X116691562Y-69865441D01*
X116445000Y-70030188D01*
X115009339Y-71465849D01*
X114952497Y-71328280D01*
X114720492Y-71095870D01*
X114731646Y-71069009D01*
X114731954Y-70715343D01*
X114596897Y-70388480D01*
X114552000Y-70343504D01*
X114552000Y-69042503D01*
X114680846Y-68732209D01*
X114681009Y-68544980D01*
X126855687Y-68544980D01*
X126902164Y-68591538D01*
X127228791Y-68727166D01*
X127582457Y-68727474D01*
X127909320Y-68592417D01*
X128159618Y-68342556D01*
X128295246Y-68015929D01*
X128295554Y-67662263D01*
X128171904Y-67363008D01*
X128226279Y-67232057D01*
X131165446Y-67232057D01*
X131300503Y-67558920D01*
X131550364Y-67809218D01*
X131876991Y-67944846D01*
X132230657Y-67945154D01*
X132557520Y-67810097D01*
X132807818Y-67560236D01*
X132943446Y-67233609D01*
X132943754Y-66879943D01*
X132808697Y-66553080D01*
X132558836Y-66302782D01*
X132232209Y-66167154D01*
X131878543Y-66166846D01*
X131551680Y-66301903D01*
X131301382Y-66551764D01*
X131165754Y-66878391D01*
X131165446Y-67232057D01*
X128226279Y-67232057D01*
X128295246Y-67065969D01*
X128295554Y-66712303D01*
X128160497Y-66385440D01*
X127934723Y-66159271D01*
X128083418Y-66010836D01*
X128201356Y-65726811D01*
X144509609Y-65726811D01*
X152366936Y-73584138D01*
X151780216Y-73340511D01*
X151070099Y-73339891D01*
X150413800Y-73611068D01*
X149911233Y-74112759D01*
X149638911Y-74768584D01*
X149638291Y-75478701D01*
X149909468Y-76135000D01*
X150411159Y-76637567D01*
X151066984Y-76909889D01*
X151777101Y-76910509D01*
X152433400Y-76639332D01*
X152935967Y-76137641D01*
X153208289Y-75481816D01*
X153208909Y-74771699D01*
X152965569Y-74182771D01*
X166321200Y-87538402D01*
X166321200Y-91770200D01*
X166379052Y-92061039D01*
X166543799Y-92307601D01*
X168093198Y-93857001D01*
X168257945Y-93967080D01*
X168339761Y-94021748D01*
X168630600Y-94079600D01*
X170022297Y-94079600D01*
X170332591Y-94208446D01*
X170686257Y-94208754D01*
X171013120Y-94073697D01*
X171263418Y-93823836D01*
X171399046Y-93497209D01*
X171399354Y-93143543D01*
X171264297Y-92816680D01*
X171014436Y-92566382D01*
X170687809Y-92430754D01*
X170334143Y-92430446D01*
X170021566Y-92559600D01*
X168945403Y-92559600D01*
X167841200Y-91455398D01*
X167841200Y-89775689D01*
X170853743Y-89775689D01*
X171079344Y-90321686D01*
X171496717Y-90739788D01*
X172042319Y-90966342D01*
X172633089Y-90966857D01*
X173179086Y-90741256D01*
X173597188Y-90323883D01*
X173823742Y-89778281D01*
X173824257Y-89187511D01*
X173598656Y-88641514D01*
X173181283Y-88223412D01*
X173134354Y-88203925D01*
X177863587Y-88203925D01*
X178225916Y-89080829D01*
X178896242Y-89752326D01*
X179772513Y-90116185D01*
X180721325Y-90117013D01*
X181598229Y-89754684D01*
X182269726Y-89084358D01*
X182633585Y-88208087D01*
X182634413Y-87259275D01*
X182272084Y-86382371D01*
X181601758Y-85710874D01*
X180725487Y-85347015D01*
X179776675Y-85346187D01*
X178899771Y-85708516D01*
X178228274Y-86378842D01*
X177864415Y-87255113D01*
X177863587Y-88203925D01*
X173134354Y-88203925D01*
X172635681Y-87996858D01*
X172044911Y-87996343D01*
X171498914Y-88221944D01*
X171080812Y-88639317D01*
X170854258Y-89184919D01*
X170853743Y-89775689D01*
X167841200Y-89775689D01*
X167841200Y-87223600D01*
X167783348Y-86932761D01*
X167618601Y-86686199D01*
X167208091Y-86275689D01*
X170853743Y-86275689D01*
X171079344Y-86821686D01*
X171496717Y-87239788D01*
X172042319Y-87466342D01*
X172633089Y-87466857D01*
X173179086Y-87241256D01*
X173597188Y-86823883D01*
X173823742Y-86278281D01*
X173824257Y-85687511D01*
X173598656Y-85141514D01*
X173181283Y-84723412D01*
X172635681Y-84496858D01*
X172044911Y-84496343D01*
X171498914Y-84721944D01*
X171080812Y-85139317D01*
X170854258Y-85684919D01*
X170853743Y-86275689D01*
X167208091Y-86275689D01*
X161880202Y-80947800D01*
X170174697Y-80947800D01*
X170484991Y-81076646D01*
X170838657Y-81076954D01*
X171165520Y-80941897D01*
X171415818Y-80692036D01*
X171551446Y-80365409D01*
X171551754Y-80011743D01*
X171438316Y-79737200D01*
X178843400Y-79737200D01*
X178901252Y-80028039D01*
X179065999Y-80274601D01*
X179312561Y-80439348D01*
X179603400Y-80497200D01*
X180388598Y-80497200D01*
X181251599Y-81360201D01*
X181498160Y-81524948D01*
X181789000Y-81582800D01*
X182079839Y-81524948D01*
X182326401Y-81360201D01*
X182491148Y-81113639D01*
X182549000Y-80822800D01*
X182491148Y-80531960D01*
X182326401Y-80285399D01*
X181240801Y-79199799D01*
X180994239Y-79035052D01*
X180703400Y-78977200D01*
X179603400Y-78977200D01*
X179312561Y-79035052D01*
X179065999Y-79199799D01*
X178901252Y-79446361D01*
X178843400Y-79737200D01*
X171438316Y-79737200D01*
X171416697Y-79684880D01*
X171166836Y-79434582D01*
X170840209Y-79298954D01*
X170486543Y-79298646D01*
X170173966Y-79427800D01*
X161960402Y-79427800D01*
X159275491Y-76742889D01*
X170853743Y-76742889D01*
X171079344Y-77288886D01*
X171496717Y-77706988D01*
X172042319Y-77933542D01*
X172633089Y-77934057D01*
X173179086Y-77708456D01*
X173597188Y-77291083D01*
X173823742Y-76745481D01*
X173824257Y-76154711D01*
X173598656Y-75608714D01*
X173181283Y-75190612D01*
X173134354Y-75171125D01*
X177863587Y-75171125D01*
X178225916Y-76048029D01*
X178896242Y-76719526D01*
X179772513Y-77083385D01*
X180721325Y-77084213D01*
X181598229Y-76721884D01*
X182269726Y-76051558D01*
X182633585Y-75175287D01*
X182634413Y-74226475D01*
X182272084Y-73349571D01*
X181601758Y-72678074D01*
X180725487Y-72314215D01*
X179776675Y-72313387D01*
X178899771Y-72675716D01*
X178228274Y-73346042D01*
X177864415Y-74222313D01*
X177863587Y-75171125D01*
X173134354Y-75171125D01*
X172635681Y-74964058D01*
X172044911Y-74963543D01*
X171498914Y-75189144D01*
X171080812Y-75606517D01*
X170854258Y-76152119D01*
X170853743Y-76742889D01*
X159275491Y-76742889D01*
X155775491Y-73242889D01*
X170853743Y-73242889D01*
X171079344Y-73788886D01*
X171496717Y-74206988D01*
X172042319Y-74433542D01*
X172633089Y-74434057D01*
X173179086Y-74208456D01*
X173597188Y-73791083D01*
X173823742Y-73245481D01*
X173824257Y-72654711D01*
X173598656Y-72108714D01*
X173181283Y-71690612D01*
X172635681Y-71464058D01*
X172044911Y-71463543D01*
X171498914Y-71689144D01*
X171080812Y-72106517D01*
X170854258Y-72652119D01*
X170853743Y-73242889D01*
X155775491Y-73242889D01*
X147173602Y-64641000D01*
X155158598Y-64641000D01*
X158314199Y-67796601D01*
X158560760Y-67961348D01*
X158851600Y-68019200D01*
X169895297Y-68019200D01*
X170205591Y-68148046D01*
X170559257Y-68148354D01*
X170886120Y-68013297D01*
X171136418Y-67763436D01*
X171272046Y-67436809D01*
X171272354Y-67083143D01*
X171137297Y-66756280D01*
X170887436Y-66505982D01*
X170560809Y-66370354D01*
X170207143Y-66370046D01*
X169894566Y-66499200D01*
X159166402Y-66499200D01*
X156216259Y-63549057D01*
X165201446Y-63549057D01*
X165336503Y-63875920D01*
X165586364Y-64126218D01*
X165912991Y-64261846D01*
X166266657Y-64262154D01*
X166593520Y-64127097D01*
X166843818Y-63877236D01*
X166979446Y-63550609D01*
X166979754Y-63196943D01*
X166844697Y-62870080D01*
X166594836Y-62619782D01*
X166268209Y-62484154D01*
X165914543Y-62483846D01*
X165587680Y-62618903D01*
X165337382Y-62868764D01*
X165201754Y-63195391D01*
X165201446Y-63549057D01*
X156216259Y-63549057D01*
X156010801Y-63343599D01*
X155764239Y-63178852D01*
X155473400Y-63121000D01*
X115819066Y-63121000D01*
X115925446Y-62864809D01*
X115925754Y-62511143D01*
X115790697Y-62184280D01*
X115540836Y-61933982D01*
X115214209Y-61798354D01*
X114860543Y-61798046D01*
X114533680Y-61933103D01*
X114283382Y-62182964D01*
X114147754Y-62509591D01*
X114147446Y-62863257D01*
X114253943Y-63121000D01*
X110942133Y-63121000D01*
X110693009Y-63017554D01*
X110553471Y-63017432D01*
X110616846Y-62864809D01*
X110617154Y-62511143D01*
X110482097Y-62184280D01*
X110232236Y-61933982D01*
X109905609Y-61798354D01*
X109551943Y-61798046D01*
X109225080Y-61933103D01*
X108974782Y-62182964D01*
X108839154Y-62509591D01*
X108838846Y-62863257D01*
X108973903Y-63190120D01*
X109223764Y-63440418D01*
X109550391Y-63576046D01*
X109689929Y-63576168D01*
X109626554Y-63728791D01*
X109626246Y-64082457D01*
X109761303Y-64409320D01*
X110011164Y-64659618D01*
X110235781Y-64752888D01*
X110303723Y-64917320D01*
X110553584Y-65167618D01*
X110676321Y-65218583D01*
X110803723Y-65526920D01*
X111053584Y-65777218D01*
X111380211Y-65912846D01*
X111733877Y-65913154D01*
X112060740Y-65778097D01*
X112089117Y-65749769D01*
X112204536Y-65726811D01*
X113567117Y-65726811D01*
X113563554Y-65735391D01*
X113563246Y-66089057D01*
X113579486Y-66128360D01*
X108351320Y-66128360D01*
X108060480Y-66186212D01*
X107813919Y-66350959D01*
X107361799Y-66803079D01*
X107197052Y-67049641D01*
X107155498Y-67258544D01*
X107145982Y-67268044D01*
X107010354Y-67594671D01*
X107010046Y-67948337D01*
X106718640Y-67948337D01*
X106718640Y-64051022D01*
X109279844Y-61489818D01*
X109325364Y-61535418D01*
X109651991Y-61671046D01*
X110005657Y-61671354D01*
X110332520Y-61536297D01*
X110453571Y-61415457D01*
X115290446Y-61415457D01*
X115425503Y-61742320D01*
X115675364Y-61992618D01*
X116001991Y-62128246D01*
X116355657Y-62128554D01*
X116682520Y-61993497D01*
X116932818Y-61743636D01*
X117068446Y-61417009D01*
X117068754Y-61063343D01*
X116933697Y-60736480D01*
X116683836Y-60486182D01*
X116597320Y-60450257D01*
X142252546Y-60450257D01*
X142387603Y-60777120D01*
X142637464Y-61027418D01*
X142964091Y-61163046D01*
X143317757Y-61163354D01*
X143644620Y-61028297D01*
X143894918Y-60778436D01*
X144030546Y-60451809D01*
X144030854Y-60098143D01*
X143895797Y-59771280D01*
X143645936Y-59520982D01*
X143319309Y-59385354D01*
X142965643Y-59385046D01*
X142638780Y-59520103D01*
X142388482Y-59769964D01*
X142252854Y-60096591D01*
X142252546Y-60450257D01*
X116597320Y-60450257D01*
X116357209Y-60350554D01*
X116003543Y-60350246D01*
X115676680Y-60485303D01*
X115426382Y-60735164D01*
X115290754Y-61061791D01*
X115290446Y-61415457D01*
X110453571Y-61415457D01*
X110582818Y-61286436D01*
X110718446Y-60959809D01*
X110718754Y-60606143D01*
X110583697Y-60279280D01*
X110537080Y-60232582D01*
X110903605Y-59866057D01*
X112801246Y-59866057D01*
X112936303Y-60192920D01*
X113186164Y-60443218D01*
X113512791Y-60578846D01*
X113866457Y-60579154D01*
X114193320Y-60444097D01*
X114443618Y-60194236D01*
X114579246Y-59867609D01*
X114579554Y-59513943D01*
X114444497Y-59187080D01*
X114194636Y-58936782D01*
X113868009Y-58801154D01*
X113514343Y-58800846D01*
X113187480Y-58935903D01*
X112937182Y-59185764D01*
X112801554Y-59512391D01*
X112801246Y-59866057D01*
X110903605Y-59866057D01*
X112676782Y-58092880D01*
X142298420Y-58092880D01*
X142589259Y-58035028D01*
X142835821Y-57870281D01*
X143684845Y-57021257D01*
X154558846Y-57021257D01*
X154693903Y-57348120D01*
X154943764Y-57598418D01*
X155270391Y-57734046D01*
X155624057Y-57734354D01*
X155950920Y-57599297D01*
X156201218Y-57349436D01*
X156336846Y-57022809D01*
X156337154Y-56669143D01*
X156202097Y-56342280D01*
X155952236Y-56091982D01*
X155625609Y-55956354D01*
X155271943Y-55956046D01*
X154945080Y-56091103D01*
X154694782Y-56340964D01*
X154559154Y-56667591D01*
X154558846Y-57021257D01*
X143684845Y-57021257D01*
X144783501Y-55922601D01*
X144948248Y-55676040D01*
X144966961Y-55581961D01*
X145006100Y-55385200D01*
X145006100Y-54904363D01*
X145119455Y-55045733D01*
X145718560Y-55374771D01*
X145848723Y-55401398D01*
X146119100Y-55156005D01*
X146119100Y-53581300D01*
X146373100Y-53581300D01*
X146373100Y-55156005D01*
X146643477Y-55401398D01*
X146773640Y-55374771D01*
X147372745Y-55045733D01*
X147800328Y-54512474D01*
X147991294Y-53856178D01*
X147707817Y-53581300D01*
X146373100Y-53581300D01*
X146119100Y-53581300D01*
X146099100Y-53581300D01*
X146099100Y-53327300D01*
X146119100Y-53327300D01*
X146119100Y-53307300D01*
X146373100Y-53307300D01*
X146373100Y-53327300D01*
X147707817Y-53327300D01*
X147991294Y-53052422D01*
X147800328Y-52396126D01*
X147372745Y-51862867D01*
X146773640Y-51533829D01*
X146706039Y-51520000D01*
X156835161Y-51520000D01*
X156767560Y-51533829D01*
X156168455Y-51862867D01*
X155939191Y-52148793D01*
X155767714Y-52034216D01*
X155295100Y-51940207D01*
X154822486Y-52034216D01*
X154421823Y-52301930D01*
X154295100Y-52491585D01*
X154168377Y-52301930D01*
X153767714Y-52034216D01*
X153295100Y-51940207D01*
X152822486Y-52034216D01*
X152445104Y-52286374D01*
X152359190Y-52152859D01*
X152146990Y-52007869D01*
X151895100Y-51956860D01*
X150695100Y-51956860D01*
X150459783Y-52001138D01*
X150243659Y-52140210D01*
X150098669Y-52352410D01*
X150047660Y-52604300D01*
X150047660Y-54304300D01*
X150091938Y-54539617D01*
X150231010Y-54755741D01*
X150443210Y-54900731D01*
X150695100Y-54951740D01*
X151895100Y-54951740D01*
X152130417Y-54907462D01*
X152346541Y-54768390D01*
X152446001Y-54622825D01*
X152822486Y-54874384D01*
X153295100Y-54968393D01*
X153767714Y-54874384D01*
X154168377Y-54606670D01*
X154295100Y-54417015D01*
X154421823Y-54606670D01*
X154822486Y-54874384D01*
X155295100Y-54968393D01*
X155767714Y-54874384D01*
X155939191Y-54759807D01*
X156168455Y-55045733D01*
X156767560Y-55374771D01*
X156897723Y-55401398D01*
X157168100Y-55156005D01*
X157168100Y-53581300D01*
X157422100Y-53581300D01*
X157422100Y-55156005D01*
X157692477Y-55401398D01*
X157822640Y-55374771D01*
X158421745Y-55045733D01*
X158849328Y-54512474D01*
X159040294Y-53856178D01*
X158756817Y-53581300D01*
X157422100Y-53581300D01*
X157168100Y-53581300D01*
X157148100Y-53581300D01*
X157148100Y-53327300D01*
X157168100Y-53327300D01*
X157168100Y-53307300D01*
X157422100Y-53307300D01*
X157422100Y-53327300D01*
X158756817Y-53327300D01*
X159040294Y-53052422D01*
X158849328Y-52396126D01*
X158421745Y-51862867D01*
X157822640Y-51533829D01*
X157755039Y-51520000D01*
X167960361Y-51520000D01*
X167892760Y-51533829D01*
X167293655Y-51862867D01*
X167064391Y-52148793D01*
X166892914Y-52034216D01*
X166420300Y-51940207D01*
X165947686Y-52034216D01*
X165547023Y-52301930D01*
X165420300Y-52491585D01*
X165293577Y-52301930D01*
X164892914Y-52034216D01*
X164420300Y-51940207D01*
X163947686Y-52034216D01*
X163570304Y-52286374D01*
X163484390Y-52152859D01*
X163272190Y-52007869D01*
X163020300Y-51956860D01*
X161820300Y-51956860D01*
X161584983Y-52001138D01*
X161368859Y-52140210D01*
X161223869Y-52352410D01*
X161172860Y-52604300D01*
X161172860Y-54304300D01*
X161217138Y-54539617D01*
X161356210Y-54755741D01*
X161568410Y-54900731D01*
X161820300Y-54951740D01*
X163020300Y-54951740D01*
X163255617Y-54907462D01*
X163471741Y-54768390D01*
X163571201Y-54622825D01*
X163947686Y-54874384D01*
X164420300Y-54968393D01*
X164892914Y-54874384D01*
X165293577Y-54606670D01*
X165420300Y-54417015D01*
X165547023Y-54606670D01*
X165947686Y-54874384D01*
X166420300Y-54968393D01*
X166892914Y-54874384D01*
X167064391Y-54759807D01*
X167293655Y-55045733D01*
X167892760Y-55374771D01*
X168022923Y-55401398D01*
X168293300Y-55156005D01*
X168293300Y-53581300D01*
X168547300Y-53581300D01*
X168547300Y-55156005D01*
X168817677Y-55401398D01*
X168947840Y-55374771D01*
X169546945Y-55045733D01*
X169974528Y-54512474D01*
X170165494Y-53856178D01*
X169882017Y-53581300D01*
X168547300Y-53581300D01*
X168293300Y-53581300D01*
X168273300Y-53581300D01*
X168273300Y-53327300D01*
X168293300Y-53327300D01*
X168293300Y-53307300D01*
X168547300Y-53307300D01*
X168547300Y-53327300D01*
X169882017Y-53327300D01*
X170165494Y-53052422D01*
X169974528Y-52396126D01*
X169546945Y-51862867D01*
X168947840Y-51533829D01*
X168880239Y-51520000D01*
X179085561Y-51520000D01*
X179017960Y-51533829D01*
X178418855Y-51862867D01*
X178189591Y-52148793D01*
X178018114Y-52034216D01*
X177545500Y-51940207D01*
X177072886Y-52034216D01*
X176672223Y-52301930D01*
X176545500Y-52491585D01*
X176418777Y-52301930D01*
X176018114Y-52034216D01*
X175545500Y-51940207D01*
X175072886Y-52034216D01*
X174695504Y-52286374D01*
X174609590Y-52152859D01*
X174397390Y-52007869D01*
X174145500Y-51956860D01*
X172945500Y-51956860D01*
X172710183Y-52001138D01*
X172494059Y-52140210D01*
X172349069Y-52352410D01*
X172298060Y-52604300D01*
X172298060Y-54304300D01*
X172342338Y-54539617D01*
X172481410Y-54755741D01*
X172693610Y-54900731D01*
X172945500Y-54951740D01*
X174145500Y-54951740D01*
X174380817Y-54907462D01*
X174596941Y-54768390D01*
X174696401Y-54622825D01*
X175072886Y-54874384D01*
X175545500Y-54968393D01*
X176018114Y-54874384D01*
X176418777Y-54606670D01*
X176545500Y-54417015D01*
X176672223Y-54606670D01*
X177072886Y-54874384D01*
X177545500Y-54968393D01*
X178018114Y-54874384D01*
X178189591Y-54759807D01*
X178418855Y-55045733D01*
X179017960Y-55374771D01*
X179148123Y-55401398D01*
X179418500Y-55156005D01*
X179418500Y-53581300D01*
X179672500Y-53581300D01*
X179672500Y-55156005D01*
X179942877Y-55401398D01*
X180073040Y-55374771D01*
X180672145Y-55045733D01*
X181099728Y-54512474D01*
X181290694Y-53856178D01*
X181007217Y-53581300D01*
X179672500Y-53581300D01*
X179418500Y-53581300D01*
X179398500Y-53581300D01*
X179398500Y-53327300D01*
X179418500Y-53327300D01*
X179418500Y-53307300D01*
X179672500Y-53307300D01*
X179672500Y-53327300D01*
X181007217Y-53327300D01*
X181290694Y-53052422D01*
X181099728Y-52396126D01*
X180672145Y-51862867D01*
X180073040Y-51533829D01*
X180005439Y-51520000D01*
X183110000Y-51520000D01*
X183110000Y-62718097D01*
X182583400Y-61443628D01*
X181561751Y-60420194D01*
X180226218Y-59865632D01*
X178780126Y-59864370D01*
X177443628Y-60416600D01*
X176420194Y-61438249D01*
X175865632Y-62773782D01*
X175864370Y-64219874D01*
X176416600Y-65556372D01*
X177438249Y-66579806D01*
X178773782Y-67134368D01*
X180219874Y-67135630D01*
X181556372Y-66583400D01*
X182579806Y-65561751D01*
X183110000Y-64284903D01*
X183110000Y-130100000D01*
X84530000Y-130100000D01*
X84530000Y-126719874D01*
X86364370Y-126719874D01*
X86916600Y-128056372D01*
X87938249Y-129079806D01*
X89273782Y-129634368D01*
X90719874Y-129635630D01*
X92056372Y-129083400D01*
X93079806Y-128061751D01*
X93634368Y-126726218D01*
X93635630Y-125280126D01*
X93083400Y-123943628D01*
X92061751Y-122920194D01*
X90726218Y-122365632D01*
X89280126Y-122364370D01*
X87943628Y-122916600D01*
X86920194Y-123938249D01*
X86365632Y-125273782D01*
X86364370Y-126719874D01*
X84530000Y-126719874D01*
X84530000Y-118048925D01*
X85879587Y-118048925D01*
X86241916Y-118925829D01*
X86912242Y-119597326D01*
X87788513Y-119961185D01*
X88737325Y-119962013D01*
X89563392Y-119620689D01*
X94689743Y-119620689D01*
X94915344Y-120166686D01*
X95332717Y-120584788D01*
X95878319Y-120811342D01*
X96469089Y-120811857D01*
X97015086Y-120586256D01*
X97433188Y-120168883D01*
X97659742Y-119623281D01*
X97660257Y-119032511D01*
X97434656Y-118486514D01*
X97017283Y-118068412D01*
X96471681Y-117841858D01*
X95880911Y-117841343D01*
X95334914Y-118066944D01*
X94916812Y-118484317D01*
X94690258Y-119029919D01*
X94689743Y-119620689D01*
X89563392Y-119620689D01*
X89614229Y-119599684D01*
X90285726Y-118929358D01*
X90649585Y-118053087D01*
X90650374Y-117147950D01*
X95033255Y-117147950D01*
X95085674Y-117541994D01*
X95825047Y-117828284D01*
X96617697Y-117809835D01*
X97264326Y-117541994D01*
X97316745Y-117147950D01*
X96175000Y-116006205D01*
X95033255Y-117147950D01*
X90650374Y-117147950D01*
X90650413Y-117104275D01*
X90288084Y-116227371D01*
X89617758Y-115555874D01*
X89426958Y-115476647D01*
X94173316Y-115476647D01*
X94191765Y-116269297D01*
X94459606Y-116915926D01*
X94853650Y-116968345D01*
X95995395Y-115826600D01*
X96354605Y-115826600D01*
X97496350Y-116968345D01*
X97890394Y-116915926D01*
X98176684Y-116176553D01*
X98169661Y-115874800D01*
X106324400Y-115874800D01*
X106324400Y-128930400D01*
X106333085Y-128976559D01*
X106360365Y-129018953D01*
X106401990Y-129047394D01*
X106451400Y-129057400D01*
X130388918Y-129057400D01*
X130408965Y-129088553D01*
X130450590Y-129116994D01*
X130500000Y-129127000D01*
X151000000Y-129127000D01*
X151046159Y-129118315D01*
X151088553Y-129091035D01*
X151116994Y-129049410D01*
X151127000Y-129000000D01*
X151127000Y-128459889D01*
X170766943Y-128459889D01*
X170992544Y-129005886D01*
X171409917Y-129423988D01*
X171955519Y-129650542D01*
X172546289Y-129651057D01*
X173092286Y-129425456D01*
X173510388Y-129008083D01*
X173736942Y-128462481D01*
X173737457Y-127871711D01*
X173511856Y-127325714D01*
X173094483Y-126907612D01*
X173047554Y-126888125D01*
X177776787Y-126888125D01*
X178139116Y-127765029D01*
X178809442Y-128436526D01*
X179685713Y-128800385D01*
X180634525Y-128801213D01*
X181511429Y-128438884D01*
X182182926Y-127768558D01*
X182546785Y-126892287D01*
X182547613Y-125943475D01*
X182185284Y-125066571D01*
X181514958Y-124395074D01*
X180638687Y-124031215D01*
X179689875Y-124030387D01*
X178812971Y-124392716D01*
X178141474Y-125063042D01*
X177777615Y-125939313D01*
X177776787Y-126888125D01*
X173047554Y-126888125D01*
X172548881Y-126681058D01*
X171958111Y-126680543D01*
X171412114Y-126906144D01*
X170994012Y-127323517D01*
X170767458Y-127869119D01*
X170766943Y-128459889D01*
X151127000Y-128459889D01*
X151127000Y-125987150D01*
X171110455Y-125987150D01*
X171162874Y-126381194D01*
X171902247Y-126667484D01*
X172694897Y-126649035D01*
X173341526Y-126381194D01*
X173393945Y-125987150D01*
X172252200Y-124845405D01*
X171110455Y-125987150D01*
X151127000Y-125987150D01*
X151127000Y-124500000D01*
X151123622Y-124470903D01*
X151102562Y-124425100D01*
X151065341Y-124391098D01*
X150939923Y-124315847D01*
X170250516Y-124315847D01*
X170268965Y-125108497D01*
X170536806Y-125755126D01*
X170930850Y-125807545D01*
X172072595Y-124665800D01*
X172431805Y-124665800D01*
X173573550Y-125807545D01*
X173967594Y-125755126D01*
X174253884Y-125015753D01*
X174235435Y-124223103D01*
X173967594Y-123576474D01*
X173573550Y-123524055D01*
X172431805Y-124665800D01*
X172072595Y-124665800D01*
X170930850Y-123524055D01*
X170536806Y-123576474D01*
X170250516Y-124315847D01*
X150939923Y-124315847D01*
X149320929Y-123344450D01*
X171110455Y-123344450D01*
X172252200Y-124486195D01*
X173393945Y-123344450D01*
X173341526Y-122950406D01*
X172602153Y-122664116D01*
X171809503Y-122682565D01*
X171162874Y-122950406D01*
X171110455Y-123344450D01*
X149320929Y-123344450D01*
X148627000Y-122928093D01*
X148627000Y-118750901D01*
X161624091Y-118750901D01*
X161895268Y-119407200D01*
X162396959Y-119909767D01*
X163052784Y-120182089D01*
X163762901Y-120182709D01*
X164419200Y-119911532D01*
X164430662Y-119900089D01*
X170792343Y-119900089D01*
X171017944Y-120446086D01*
X171435317Y-120864188D01*
X171980919Y-121090742D01*
X172571689Y-121091257D01*
X173117686Y-120865656D01*
X173535788Y-120448283D01*
X173762342Y-119902681D01*
X173762857Y-119311911D01*
X173537256Y-118765914D01*
X173119883Y-118347812D01*
X173072954Y-118328325D01*
X177802187Y-118328325D01*
X178164516Y-119205229D01*
X178834842Y-119876726D01*
X179711113Y-120240585D01*
X180659925Y-120241413D01*
X181536829Y-119879084D01*
X182208326Y-119208758D01*
X182572185Y-118332487D01*
X182573013Y-117383675D01*
X182210684Y-116506771D01*
X181540358Y-115835274D01*
X180664087Y-115471415D01*
X179715275Y-115470587D01*
X178838371Y-115832916D01*
X178166874Y-116503242D01*
X177803015Y-117379513D01*
X177802187Y-118328325D01*
X173072954Y-118328325D01*
X172574281Y-118121258D01*
X171983511Y-118120743D01*
X171437514Y-118346344D01*
X171019412Y-118763717D01*
X170792858Y-119309319D01*
X170792343Y-119900089D01*
X164430662Y-119900089D01*
X164921767Y-119409841D01*
X165194089Y-118754016D01*
X165194709Y-118043899D01*
X164939957Y-117427350D01*
X171135855Y-117427350D01*
X171188274Y-117821394D01*
X171927647Y-118107684D01*
X172720297Y-118089235D01*
X173366926Y-117821394D01*
X173419345Y-117427350D01*
X172277600Y-116285605D01*
X171135855Y-117427350D01*
X164939957Y-117427350D01*
X164923532Y-117387600D01*
X164421841Y-116885033D01*
X163766016Y-116612711D01*
X163055899Y-116612091D01*
X162399600Y-116883268D01*
X161897033Y-117384959D01*
X161624711Y-118040784D01*
X161624091Y-118750901D01*
X148627000Y-118750901D01*
X148627000Y-115756047D01*
X170275916Y-115756047D01*
X170294365Y-116548697D01*
X170562206Y-117195326D01*
X170956250Y-117247745D01*
X172097995Y-116106000D01*
X172457205Y-116106000D01*
X173598950Y-117247745D01*
X173992994Y-117195326D01*
X174279284Y-116455953D01*
X174260835Y-115663303D01*
X173992994Y-115016674D01*
X173598950Y-114964255D01*
X172457205Y-116106000D01*
X172097995Y-116106000D01*
X170956250Y-114964255D01*
X170562206Y-115016674D01*
X170275916Y-115756047D01*
X148627000Y-115756047D01*
X148627000Y-114784650D01*
X171135855Y-114784650D01*
X172277600Y-115926395D01*
X173419345Y-114784650D01*
X173366926Y-114390606D01*
X172627553Y-114104316D01*
X171834903Y-114122765D01*
X171188274Y-114390606D01*
X171135855Y-114784650D01*
X148627000Y-114784650D01*
X148627000Y-111391089D01*
X170741543Y-111391089D01*
X170967144Y-111937086D01*
X171384517Y-112355188D01*
X171930119Y-112581742D01*
X172520889Y-112582257D01*
X173066886Y-112356656D01*
X173484988Y-111939283D01*
X173711542Y-111393681D01*
X173712057Y-110802911D01*
X173486456Y-110256914D01*
X173069083Y-109838812D01*
X173022154Y-109819325D01*
X177751387Y-109819325D01*
X178113716Y-110696229D01*
X178784042Y-111367726D01*
X179660313Y-111731585D01*
X180609125Y-111732413D01*
X181486029Y-111370084D01*
X182157526Y-110699758D01*
X182521385Y-109823487D01*
X182522213Y-108874675D01*
X182159884Y-107997771D01*
X181489558Y-107326274D01*
X180613287Y-106962415D01*
X179664475Y-106961587D01*
X178787571Y-107323916D01*
X178116074Y-107994242D01*
X177752215Y-108870513D01*
X177751387Y-109819325D01*
X173022154Y-109819325D01*
X172523481Y-109612258D01*
X171932711Y-109611743D01*
X171386714Y-109837344D01*
X170968612Y-110254717D01*
X170742058Y-110800319D01*
X170741543Y-111391089D01*
X148627000Y-111391089D01*
X148627000Y-108918350D01*
X171085055Y-108918350D01*
X171137474Y-109312394D01*
X171876847Y-109598684D01*
X172669497Y-109580235D01*
X173316126Y-109312394D01*
X173368545Y-108918350D01*
X172226800Y-107776605D01*
X171085055Y-108918350D01*
X148627000Y-108918350D01*
X148627000Y-106550901D01*
X149624091Y-106550901D01*
X149895268Y-107207200D01*
X150396959Y-107709767D01*
X151052784Y-107982089D01*
X151762901Y-107982709D01*
X152419200Y-107711532D01*
X152921767Y-107209841D01*
X153194089Y-106554016D01*
X153194091Y-106550901D01*
X161624091Y-106550901D01*
X161895268Y-107207200D01*
X162396959Y-107709767D01*
X163052784Y-107982089D01*
X163762901Y-107982709D01*
X164419200Y-107711532D01*
X164884496Y-107247047D01*
X170225116Y-107247047D01*
X170243565Y-108039697D01*
X170511406Y-108686326D01*
X170905450Y-108738745D01*
X172047195Y-107597000D01*
X172406405Y-107597000D01*
X173548150Y-108738745D01*
X173942194Y-108686326D01*
X174228484Y-107946953D01*
X174210035Y-107154303D01*
X173942194Y-106507674D01*
X173548150Y-106455255D01*
X172406405Y-107597000D01*
X172047195Y-107597000D01*
X170905450Y-106455255D01*
X170511406Y-106507674D01*
X170225116Y-107247047D01*
X164884496Y-107247047D01*
X164921767Y-107209841D01*
X165194089Y-106554016D01*
X165194332Y-106275650D01*
X171085055Y-106275650D01*
X172226800Y-107417395D01*
X173368545Y-106275650D01*
X173316126Y-105881606D01*
X172576753Y-105595316D01*
X171784103Y-105613765D01*
X171137474Y-105881606D01*
X171085055Y-106275650D01*
X165194332Y-106275650D01*
X165194709Y-105843899D01*
X164923532Y-105187600D01*
X164421841Y-104685033D01*
X163766016Y-104412711D01*
X163055899Y-104412091D01*
X162399600Y-104683268D01*
X161897033Y-105184959D01*
X161624711Y-105840784D01*
X161624091Y-106550901D01*
X153194091Y-106550901D01*
X153194709Y-105843899D01*
X152923532Y-105187600D01*
X152421841Y-104685033D01*
X151766016Y-104412711D01*
X151055899Y-104412091D01*
X150399600Y-104683268D01*
X149897033Y-105184959D01*
X149624711Y-105840784D01*
X149624091Y-106550901D01*
X148627000Y-106550901D01*
X148627000Y-104000901D01*
X155624091Y-104000901D01*
X155895268Y-104657200D01*
X156396959Y-105159767D01*
X157052784Y-105432089D01*
X157762901Y-105432709D01*
X158419200Y-105161532D01*
X158921767Y-104659841D01*
X159194089Y-104004016D01*
X159194709Y-103293899D01*
X159056038Y-102958289D01*
X170716143Y-102958289D01*
X170941744Y-103504286D01*
X171359117Y-103922388D01*
X171904719Y-104148942D01*
X172495489Y-104149457D01*
X173041486Y-103923856D01*
X173459588Y-103506483D01*
X173686142Y-102960881D01*
X173686657Y-102370111D01*
X173461056Y-101824114D01*
X173043683Y-101406012D01*
X172996754Y-101386525D01*
X177725987Y-101386525D01*
X178088316Y-102263429D01*
X178758642Y-102934926D01*
X179634913Y-103298785D01*
X180583725Y-103299613D01*
X181460629Y-102937284D01*
X182132126Y-102266958D01*
X182495985Y-101390687D01*
X182496813Y-100441875D01*
X182134484Y-99564971D01*
X181464158Y-98893474D01*
X180587887Y-98529615D01*
X179639075Y-98528787D01*
X178762171Y-98891116D01*
X178090674Y-99561442D01*
X177726815Y-100437713D01*
X177725987Y-101386525D01*
X172996754Y-101386525D01*
X172498081Y-101179458D01*
X171907311Y-101178943D01*
X171361314Y-101404544D01*
X170943212Y-101821917D01*
X170716658Y-102367519D01*
X170716143Y-102958289D01*
X159056038Y-102958289D01*
X158923532Y-102637600D01*
X158421841Y-102135033D01*
X157766016Y-101862711D01*
X157055899Y-101862091D01*
X156399600Y-102133268D01*
X155897033Y-102634959D01*
X155624711Y-103290784D01*
X155624091Y-104000901D01*
X148627000Y-104000901D01*
X148627000Y-99458289D01*
X170716143Y-99458289D01*
X170941744Y-100004286D01*
X171359117Y-100422388D01*
X171904719Y-100648942D01*
X172495489Y-100649457D01*
X173041486Y-100423856D01*
X173459588Y-100006483D01*
X173686142Y-99460881D01*
X173686657Y-98870111D01*
X173461056Y-98324114D01*
X173043683Y-97906012D01*
X172498081Y-97679458D01*
X171907311Y-97678943D01*
X171361314Y-97904544D01*
X170943212Y-98321917D01*
X170716658Y-98867519D01*
X170716143Y-99458289D01*
X148627000Y-99458289D01*
X148627000Y-99000000D01*
X148618315Y-98953841D01*
X148591035Y-98911447D01*
X148549410Y-98883006D01*
X148500000Y-98873000D01*
X148130234Y-98873000D01*
X148004236Y-98746782D01*
X147677609Y-98611154D01*
X147388904Y-98610903D01*
X147389154Y-98323943D01*
X147254097Y-97997080D01*
X147004236Y-97746782D01*
X146677609Y-97611154D01*
X146323943Y-97610846D01*
X145999606Y-97744859D01*
X145677609Y-97611154D01*
X145323943Y-97610846D01*
X144999606Y-97744859D01*
X144677609Y-97611154D01*
X144323943Y-97610846D01*
X143999606Y-97744859D01*
X143677609Y-97611154D01*
X143323943Y-97610846D01*
X142999606Y-97744859D01*
X142677609Y-97611154D01*
X142323943Y-97610846D01*
X141999606Y-97744859D01*
X141677609Y-97611154D01*
X141323943Y-97610846D01*
X140999606Y-97744859D01*
X140677609Y-97611154D01*
X140323943Y-97610846D01*
X139999606Y-97744859D01*
X139677609Y-97611154D01*
X139323943Y-97610846D01*
X138997080Y-97745903D01*
X138746782Y-97995764D01*
X138611154Y-98322391D01*
X138610846Y-98676057D01*
X138744859Y-99000394D01*
X138611154Y-99322391D01*
X138610846Y-99676057D01*
X138744859Y-100000394D01*
X138611154Y-100322391D01*
X138610846Y-100676057D01*
X138745903Y-101002920D01*
X138995764Y-101253218D01*
X139322391Y-101388846D01*
X139676057Y-101389154D01*
X139873000Y-101307779D01*
X139873000Y-101574600D01*
X118369985Y-101574600D01*
X118362272Y-101528321D01*
X118330446Y-101463195D01*
X118289623Y-101433616D01*
X118240509Y-101422248D01*
X118190841Y-101430885D01*
X118148447Y-101458165D01*
X118120006Y-101499790D01*
X118110000Y-101549200D01*
X118110000Y-115747800D01*
X106451400Y-115747800D01*
X106405241Y-115756485D01*
X106362847Y-115783765D01*
X106334406Y-115825390D01*
X106324400Y-115874800D01*
X98169661Y-115874800D01*
X98158235Y-115383903D01*
X97890394Y-114737274D01*
X97496350Y-114684855D01*
X96354605Y-115826600D01*
X95995395Y-115826600D01*
X94853650Y-114684855D01*
X94459606Y-114737274D01*
X94173316Y-115476647D01*
X89426958Y-115476647D01*
X88741487Y-115192015D01*
X87792675Y-115191187D01*
X86915771Y-115553516D01*
X86244274Y-116223842D01*
X85880415Y-117100113D01*
X85879587Y-118048925D01*
X84530000Y-118048925D01*
X84530000Y-114505250D01*
X95033255Y-114505250D01*
X96175000Y-115646995D01*
X97316745Y-114505250D01*
X97264326Y-114111206D01*
X96524953Y-113824916D01*
X95732303Y-113843365D01*
X95085674Y-114111206D01*
X95033255Y-114505250D01*
X84530000Y-114505250D01*
X84530000Y-93749657D01*
X162712246Y-93749657D01*
X162847303Y-94076520D01*
X163097164Y-94326818D01*
X163423791Y-94462446D01*
X163777457Y-94462754D01*
X164104320Y-94327697D01*
X164354618Y-94077836D01*
X164490246Y-93751209D01*
X164490554Y-93397543D01*
X164355497Y-93070680D01*
X164105636Y-92820382D01*
X163779009Y-92684754D01*
X163425343Y-92684446D01*
X163098480Y-92819503D01*
X162848182Y-93069364D01*
X162712554Y-93395991D01*
X162712246Y-93749657D01*
X84530000Y-93749657D01*
X84530000Y-91844657D01*
X146405446Y-91844657D01*
X146540503Y-92171520D01*
X146790364Y-92421818D01*
X147116991Y-92557446D01*
X147470657Y-92557754D01*
X147797520Y-92422697D01*
X148047818Y-92172836D01*
X148183446Y-91846209D01*
X148183754Y-91492543D01*
X148048697Y-91165680D01*
X147798836Y-90915382D01*
X147472209Y-90779754D01*
X147118543Y-90779446D01*
X146791680Y-90914503D01*
X146541382Y-91164364D01*
X146405754Y-91490991D01*
X146405446Y-91844657D01*
X84530000Y-91844657D01*
X84530000Y-89977757D01*
X115948306Y-89977757D01*
X116083363Y-90304620D01*
X116333224Y-90554918D01*
X116659851Y-90690546D01*
X117013517Y-90690854D01*
X117340380Y-90555797D01*
X117590678Y-90305936D01*
X117622748Y-90228701D01*
X155638291Y-90228701D01*
X155909468Y-90885000D01*
X156411159Y-91387567D01*
X157066984Y-91659889D01*
X157777101Y-91660509D01*
X158433400Y-91389332D01*
X158935967Y-90887641D01*
X159208289Y-90231816D01*
X159208909Y-89521699D01*
X158937732Y-88865400D01*
X158436041Y-88362833D01*
X157780216Y-88090511D01*
X157070099Y-88089891D01*
X156413800Y-88361068D01*
X155911233Y-88862759D01*
X155638911Y-89518584D01*
X155638291Y-90228701D01*
X117622748Y-90228701D01*
X117726306Y-89979309D01*
X117726614Y-89625643D01*
X117591557Y-89298780D01*
X117341696Y-89048482D01*
X117015069Y-88912854D01*
X116661403Y-88912546D01*
X116334540Y-89047603D01*
X116084242Y-89297464D01*
X115948614Y-89624091D01*
X115948306Y-89977757D01*
X84530000Y-89977757D01*
X84530000Y-85719874D01*
X86364370Y-85719874D01*
X86916600Y-87056372D01*
X87938249Y-88079806D01*
X89273782Y-88634368D01*
X90719874Y-88635630D01*
X92056372Y-88083400D01*
X93079806Y-87061751D01*
X93108247Y-86993257D01*
X106095646Y-86993257D01*
X106230703Y-87320120D01*
X106480564Y-87570418D01*
X106807191Y-87706046D01*
X107014128Y-87706226D01*
X107043503Y-87777320D01*
X107293364Y-88027618D01*
X107619991Y-88163246D01*
X107973657Y-88163554D01*
X108300520Y-88028497D01*
X108550818Y-87778636D01*
X108592314Y-87678701D01*
X149638291Y-87678701D01*
X149909468Y-88335000D01*
X150411159Y-88837567D01*
X151066984Y-89109889D01*
X151777101Y-89110509D01*
X152433400Y-88839332D01*
X152935967Y-88337641D01*
X153208289Y-87681816D01*
X153208291Y-87678701D01*
X161638291Y-87678701D01*
X161909468Y-88335000D01*
X162411159Y-88837567D01*
X163066984Y-89109889D01*
X163777101Y-89110509D01*
X164433400Y-88839332D01*
X164935967Y-88337641D01*
X165208289Y-87681816D01*
X165208909Y-86971699D01*
X164937732Y-86315400D01*
X164436041Y-85812833D01*
X163780216Y-85540511D01*
X163070099Y-85539891D01*
X162413800Y-85811068D01*
X161911233Y-86312759D01*
X161638911Y-86968584D01*
X161638291Y-87678701D01*
X153208291Y-87678701D01*
X153208909Y-86971699D01*
X152937732Y-86315400D01*
X152436041Y-85812833D01*
X151780216Y-85540511D01*
X151070099Y-85539891D01*
X150413800Y-85811068D01*
X149911233Y-86312759D01*
X149638911Y-86968584D01*
X149638291Y-87678701D01*
X108592314Y-87678701D01*
X108686446Y-87452009D01*
X108686754Y-87098343D01*
X108551697Y-86771480D01*
X108301836Y-86521182D01*
X107975209Y-86385554D01*
X107768272Y-86385374D01*
X107738897Y-86314280D01*
X107489036Y-86063982D01*
X107162409Y-85928354D01*
X106808743Y-85928046D01*
X106481880Y-86063103D01*
X106231582Y-86312964D01*
X106095954Y-86639591D01*
X106095646Y-86993257D01*
X93108247Y-86993257D01*
X93634368Y-85726218D01*
X93635630Y-84280126D01*
X93083400Y-82943628D01*
X92061751Y-81920194D01*
X90726218Y-81365632D01*
X89280126Y-81364370D01*
X87943628Y-81916600D01*
X86920194Y-82938249D01*
X86365632Y-84273782D01*
X86364370Y-85719874D01*
X84530000Y-85719874D01*
X84530000Y-79421975D01*
X98001003Y-79421975D01*
X98170710Y-79832695D01*
X98001397Y-80240444D01*
X98001003Y-80691975D01*
X98170710Y-81102695D01*
X98001397Y-81510444D01*
X98001003Y-81961975D01*
X98170710Y-82372695D01*
X98001397Y-82780444D01*
X98001003Y-83231975D01*
X98170710Y-83642695D01*
X98001397Y-84050444D01*
X98001003Y-84501975D01*
X98173433Y-84919286D01*
X98492435Y-85238845D01*
X98909444Y-85412003D01*
X99360975Y-85412397D01*
X99771695Y-85242690D01*
X100179444Y-85412003D01*
X100630975Y-85412397D01*
X101048286Y-85239967D01*
X101367845Y-84920965D01*
X101416505Y-84803777D01*
X127192886Y-84803777D01*
X127327943Y-85130640D01*
X127577804Y-85380938D01*
X127904431Y-85516566D01*
X128258097Y-85516874D01*
X128584960Y-85381817D01*
X128835258Y-85131956D01*
X128970886Y-84805329D01*
X128971194Y-84451663D01*
X128836137Y-84124800D01*
X128586276Y-83874502D01*
X128259649Y-83738874D01*
X127905983Y-83738566D01*
X127579120Y-83873623D01*
X127328822Y-84123484D01*
X127193194Y-84450111D01*
X127192886Y-84803777D01*
X101416505Y-84803777D01*
X101541003Y-84503956D01*
X101541397Y-84052425D01*
X101371690Y-83641705D01*
X101541003Y-83233956D01*
X101541238Y-82963767D01*
X108792838Y-82963767D01*
X108934883Y-83307543D01*
X109197673Y-83570792D01*
X109541201Y-83713438D01*
X109913167Y-83713762D01*
X110256943Y-83571717D01*
X110520192Y-83308927D01*
X110662838Y-82965399D01*
X110663162Y-82593433D01*
X110521117Y-82249657D01*
X110258327Y-81986408D01*
X109914799Y-81843762D01*
X109542833Y-81843438D01*
X109199057Y-81985483D01*
X108935808Y-82248273D01*
X108793162Y-82591801D01*
X108792838Y-82963767D01*
X101541238Y-82963767D01*
X101541397Y-82782425D01*
X101476642Y-82625706D01*
X101832204Y-82616272D01*
X102060062Y-82003649D01*
X102036135Y-81350461D01*
X101832204Y-80858128D01*
X101476749Y-80848697D01*
X101477679Y-80846457D01*
X106959246Y-80846457D01*
X107094303Y-81173320D01*
X107344164Y-81423618D01*
X107670791Y-81559246D01*
X108024457Y-81559554D01*
X108351320Y-81424497D01*
X108601618Y-81174636D01*
X108669747Y-81010565D01*
X108842073Y-81183192D01*
X109185601Y-81325838D01*
X109557567Y-81326162D01*
X109901343Y-81184117D01*
X110164592Y-80921327D01*
X110307238Y-80577799D01*
X110307269Y-80541657D01*
X110794646Y-80541657D01*
X110929703Y-80868520D01*
X111179564Y-81118818D01*
X111506191Y-81254446D01*
X111859857Y-81254754D01*
X112048866Y-81176657D01*
X130581246Y-81176657D01*
X130716303Y-81503520D01*
X130966164Y-81753818D01*
X131292791Y-81889446D01*
X131646457Y-81889754D01*
X131973320Y-81754697D01*
X132223618Y-81504836D01*
X132340905Y-81222377D01*
X132928206Y-81222377D01*
X133063263Y-81549240D01*
X133313124Y-81799538D01*
X133639751Y-81935166D01*
X133993417Y-81935474D01*
X134320280Y-81800417D01*
X134570578Y-81550556D01*
X134706206Y-81223929D01*
X134706514Y-80870263D01*
X134571457Y-80543400D01*
X134321596Y-80293102D01*
X133994969Y-80157474D01*
X133641303Y-80157166D01*
X133314440Y-80292223D01*
X133064142Y-80542084D01*
X132928514Y-80868711D01*
X132928206Y-81222377D01*
X132340905Y-81222377D01*
X132359246Y-81178209D01*
X132359554Y-80824543D01*
X132224497Y-80497680D01*
X131974636Y-80247382D01*
X131648009Y-80111754D01*
X131294343Y-80111446D01*
X130967480Y-80246503D01*
X130717182Y-80496364D01*
X130581554Y-80822991D01*
X130581246Y-81176657D01*
X112048866Y-81176657D01*
X112186720Y-81119697D01*
X112437018Y-80869836D01*
X112572646Y-80543209D01*
X112572954Y-80189543D01*
X112437897Y-79862680D01*
X112188036Y-79612382D01*
X111861409Y-79476754D01*
X111507743Y-79476446D01*
X111180880Y-79611503D01*
X110930582Y-79861364D01*
X110794954Y-80187991D01*
X110794646Y-80541657D01*
X110307269Y-80541657D01*
X110307562Y-80205833D01*
X110165517Y-79862057D01*
X109902727Y-79598808D01*
X109559199Y-79456162D01*
X109187233Y-79455838D01*
X108843457Y-79597883D01*
X108580208Y-79860673D01*
X108496783Y-80061581D01*
X108352636Y-79917182D01*
X108026009Y-79781554D01*
X107672343Y-79781246D01*
X107345480Y-79916303D01*
X107095182Y-80166164D01*
X106959554Y-80492791D01*
X106959246Y-80846457D01*
X101477679Y-80846457D01*
X101541003Y-80693956D01*
X101541397Y-80242425D01*
X101476642Y-80085706D01*
X101832204Y-80076272D01*
X102060062Y-79463649D01*
X102036135Y-78810461D01*
X101832204Y-78318128D01*
X101474371Y-78308634D01*
X100585805Y-79197200D01*
X100783523Y-79394918D01*
X100632956Y-79332397D01*
X100333245Y-79332135D01*
X100271137Y-79270027D01*
X100271397Y-78972425D01*
X100208283Y-78819678D01*
X100406200Y-79017595D01*
X101294766Y-78129029D01*
X101293409Y-78077857D01*
X113893446Y-78077857D01*
X114028503Y-78404720D01*
X114278364Y-78655018D01*
X114604991Y-78790646D01*
X114958657Y-78790954D01*
X115285520Y-78655897D01*
X115535818Y-78406036D01*
X115671446Y-78079409D01*
X115671597Y-77905137D01*
X129036926Y-77905137D01*
X129171983Y-78232000D01*
X129421844Y-78482298D01*
X129748471Y-78617926D01*
X130102137Y-78618234D01*
X130429000Y-78483177D01*
X130679298Y-78233316D01*
X130814926Y-77906689D01*
X130815234Y-77553023D01*
X130680177Y-77226160D01*
X130430316Y-76975862D01*
X130103689Y-76840234D01*
X129750023Y-76839926D01*
X129423160Y-76974983D01*
X129172862Y-77224844D01*
X129037234Y-77551471D01*
X129036926Y-77905137D01*
X115671597Y-77905137D01*
X115671754Y-77725743D01*
X115536697Y-77398880D01*
X115286836Y-77148582D01*
X114960209Y-77012954D01*
X114606543Y-77012646D01*
X114279680Y-77147703D01*
X114029382Y-77397564D01*
X113893754Y-77724191D01*
X113893446Y-78077857D01*
X101293409Y-78077857D01*
X101285272Y-77771196D01*
X100672649Y-77543338D01*
X100019461Y-77567265D01*
X99527128Y-77771196D01*
X99517697Y-78126651D01*
X99362956Y-78062397D01*
X98911425Y-78062003D01*
X98494114Y-78234433D01*
X98174555Y-78553435D01*
X98001397Y-78970444D01*
X98001003Y-79421975D01*
X84530000Y-79421975D01*
X84530000Y-77876194D01*
X85023740Y-78014700D01*
X85298740Y-78014700D01*
X85298740Y-76498700D01*
X85278740Y-76498700D01*
X85278740Y-76244700D01*
X85298740Y-76244700D01*
X85298740Y-74728700D01*
X85552740Y-74728700D01*
X85552740Y-76244700D01*
X85572740Y-76244700D01*
X85572740Y-76498700D01*
X85552740Y-76498700D01*
X85552740Y-78014700D01*
X85827740Y-78014700D01*
X86446822Y-77841033D01*
X86952319Y-77443673D01*
X87267275Y-76883115D01*
X87269839Y-76872562D01*
X87725450Y-77090502D01*
X87747974Y-77094982D01*
X87998740Y-76847883D01*
X87998740Y-75498700D01*
X88252740Y-75498700D01*
X88252740Y-76847883D01*
X88503506Y-77094982D01*
X88526030Y-77090502D01*
X89063809Y-76833257D01*
X107822846Y-76833257D01*
X107957903Y-77160120D01*
X108207764Y-77410418D01*
X108534391Y-77546046D01*
X108888057Y-77546354D01*
X109149223Y-77438442D01*
X109347191Y-77520646D01*
X109700857Y-77520954D01*
X110027720Y-77385897D01*
X110278018Y-77136036D01*
X110413646Y-76809409D01*
X110413954Y-76455743D01*
X110278897Y-76128880D01*
X110029036Y-75878582D01*
X109702409Y-75742954D01*
X109348743Y-75742646D01*
X109087577Y-75850558D01*
X108889609Y-75768354D01*
X108535943Y-75768046D01*
X108209080Y-75903103D01*
X107958782Y-76152964D01*
X107823154Y-76479591D01*
X107822846Y-76833257D01*
X89063809Y-76833257D01*
X89095914Y-76817900D01*
X89518098Y-76347963D01*
X89728308Y-75752235D01*
X89458891Y-75498700D01*
X88252740Y-75498700D01*
X87998740Y-75498700D01*
X87978740Y-75498700D01*
X87978740Y-75410857D01*
X105562246Y-75410857D01*
X105697303Y-75737720D01*
X105947164Y-75988018D01*
X106273791Y-76123646D01*
X106627457Y-76123954D01*
X106954320Y-75988897D01*
X107204618Y-75739036D01*
X107340246Y-75412409D01*
X107340554Y-75058743D01*
X107205497Y-74731880D01*
X106955636Y-74481582D01*
X106629009Y-74345954D01*
X106275343Y-74345646D01*
X105948480Y-74480703D01*
X105698182Y-74730564D01*
X105562554Y-75057191D01*
X105562246Y-75410857D01*
X87978740Y-75410857D01*
X87978740Y-75244700D01*
X87998740Y-75244700D01*
X87998740Y-73895517D01*
X88252740Y-73895517D01*
X88252740Y-75244700D01*
X89458891Y-75244700D01*
X89728308Y-74991165D01*
X89696553Y-74901172D01*
X89716564Y-74921218D01*
X90043191Y-75056846D01*
X90396857Y-75057154D01*
X90723720Y-74922097D01*
X90974018Y-74672236D01*
X91109646Y-74345609D01*
X91109954Y-73991943D01*
X90974897Y-73665080D01*
X90725036Y-73414782D01*
X90398409Y-73279154D01*
X90044743Y-73278846D01*
X89717880Y-73413903D01*
X89467582Y-73663764D01*
X89331954Y-73990391D01*
X89331782Y-74188047D01*
X89095914Y-73925500D01*
X88526030Y-73652898D01*
X88503506Y-73648418D01*
X88252740Y-73895517D01*
X87998740Y-73895517D01*
X87747974Y-73648418D01*
X87725450Y-73652898D01*
X87155566Y-73925500D01*
X86733382Y-74395437D01*
X86531122Y-74968634D01*
X86446822Y-74902367D01*
X85827740Y-74728700D01*
X85552740Y-74728700D01*
X85298740Y-74728700D01*
X85023740Y-74728700D01*
X84530000Y-74867206D01*
X84530000Y-70876194D01*
X85023740Y-71014700D01*
X85298740Y-71014700D01*
X85298740Y-69498700D01*
X85278740Y-69498700D01*
X85278740Y-69244700D01*
X85298740Y-69244700D01*
X85298740Y-67728700D01*
X85552740Y-67728700D01*
X85552740Y-69244700D01*
X85572740Y-69244700D01*
X85572740Y-69498700D01*
X85552740Y-69498700D01*
X85552740Y-71014700D01*
X85827740Y-71014700D01*
X86446822Y-70841033D01*
X86531122Y-70774766D01*
X86733382Y-71347963D01*
X87155566Y-71817900D01*
X87725450Y-72090502D01*
X87747974Y-72094982D01*
X87998740Y-71847883D01*
X87998740Y-70498700D01*
X88252740Y-70498700D01*
X88252740Y-71847883D01*
X88503506Y-72094982D01*
X88526030Y-72090502D01*
X88992104Y-71867557D01*
X99021746Y-71867557D01*
X99156803Y-72194420D01*
X99406664Y-72444718D01*
X99733291Y-72580346D01*
X100086957Y-72580654D01*
X100413820Y-72445597D01*
X100664118Y-72195736D01*
X100799746Y-71869109D01*
X100800054Y-71515443D01*
X100664997Y-71188580D01*
X100415136Y-70938282D01*
X100088509Y-70802654D01*
X99734843Y-70802346D01*
X99407980Y-70937403D01*
X99157682Y-71187264D01*
X99022054Y-71513891D01*
X99021746Y-71867557D01*
X88992104Y-71867557D01*
X89095914Y-71817900D01*
X89518098Y-71347963D01*
X89728308Y-70752235D01*
X89577437Y-70610257D01*
X100558446Y-70610257D01*
X100693503Y-70937120D01*
X100943364Y-71187418D01*
X101269991Y-71323046D01*
X101465582Y-71323216D01*
X101396954Y-71488491D01*
X101396646Y-71842157D01*
X101531703Y-72169020D01*
X101676119Y-72313689D01*
X101627143Y-72313646D01*
X101300280Y-72448703D01*
X101049982Y-72698564D01*
X100914354Y-73025191D01*
X100914046Y-73378857D01*
X101049103Y-73705720D01*
X101298964Y-73956018D01*
X101625591Y-74091646D01*
X101979257Y-74091954D01*
X102306120Y-73956897D01*
X102556418Y-73707036D01*
X102692046Y-73380409D01*
X102692354Y-73026743D01*
X102557297Y-72699880D01*
X102412881Y-72555211D01*
X102461857Y-72555254D01*
X102788720Y-72420197D01*
X103039018Y-72170336D01*
X103174646Y-71843709D01*
X103174945Y-71499257D01*
X104724046Y-71499257D01*
X104859103Y-71826120D01*
X105108964Y-72076418D01*
X105435591Y-72212046D01*
X105789257Y-72212354D01*
X105841663Y-72190700D01*
X105841646Y-72210457D01*
X105905326Y-72364575D01*
X105841954Y-72517191D01*
X105841646Y-72870857D01*
X105905326Y-73024975D01*
X105841954Y-73177591D01*
X105841646Y-73531257D01*
X105976703Y-73858120D01*
X106226564Y-74108418D01*
X106553191Y-74244046D01*
X106906857Y-74244354D01*
X107233720Y-74109297D01*
X107484018Y-73859436D01*
X107619646Y-73532809D01*
X107619954Y-73179143D01*
X107556274Y-73025025D01*
X107619646Y-72872409D01*
X107619954Y-72518743D01*
X107556274Y-72364625D01*
X107619646Y-72212009D01*
X107619954Y-71858343D01*
X107484897Y-71531480D01*
X107235036Y-71281182D01*
X106908409Y-71145554D01*
X106554743Y-71145246D01*
X106502337Y-71166900D01*
X106502354Y-71147143D01*
X106367297Y-70820280D01*
X106117436Y-70569982D01*
X105790809Y-70434354D01*
X105437143Y-70434046D01*
X105110280Y-70569103D01*
X104859982Y-70818964D01*
X104724354Y-71145591D01*
X104724046Y-71499257D01*
X103174945Y-71499257D01*
X103174954Y-71490043D01*
X103039897Y-71163180D01*
X102790036Y-70912882D01*
X102463409Y-70777254D01*
X102267818Y-70777084D01*
X102336446Y-70611809D01*
X102336754Y-70258143D01*
X102201697Y-69931280D01*
X101951836Y-69680982D01*
X101625209Y-69545354D01*
X101271543Y-69545046D01*
X100944680Y-69680103D01*
X100694382Y-69929964D01*
X100558754Y-70256591D01*
X100558446Y-70610257D01*
X89577437Y-70610257D01*
X89458891Y-70498700D01*
X88252740Y-70498700D01*
X87998740Y-70498700D01*
X87978740Y-70498700D01*
X87978740Y-70244700D01*
X87998740Y-70244700D01*
X87998740Y-68895517D01*
X88252740Y-68895517D01*
X88252740Y-70244700D01*
X89458891Y-70244700D01*
X89728308Y-69991165D01*
X89518098Y-69395437D01*
X89095914Y-68925500D01*
X88526030Y-68652898D01*
X88503506Y-68648418D01*
X88252740Y-68895517D01*
X87998740Y-68895517D01*
X87747974Y-68648418D01*
X87725450Y-68652898D01*
X87269839Y-68870838D01*
X87267275Y-68860285D01*
X86952319Y-68299727D01*
X86773495Y-68159157D01*
X98907446Y-68159157D01*
X99042503Y-68486020D01*
X99047364Y-68490889D01*
X99043382Y-68494864D01*
X98907754Y-68821491D01*
X98907446Y-69175157D01*
X99042503Y-69502020D01*
X99292364Y-69752318D01*
X99618991Y-69887946D01*
X99972657Y-69888254D01*
X100299520Y-69753197D01*
X100549818Y-69503336D01*
X100685446Y-69176709D01*
X100685754Y-68823043D01*
X100550697Y-68496180D01*
X100545836Y-68491311D01*
X100549818Y-68487336D01*
X100685446Y-68160709D01*
X100685754Y-67807043D01*
X100550697Y-67480180D01*
X100300836Y-67229882D01*
X99974209Y-67094254D01*
X99620543Y-67093946D01*
X99293680Y-67229003D01*
X99043382Y-67478864D01*
X98907754Y-67805491D01*
X98907446Y-68159157D01*
X86773495Y-68159157D01*
X86446822Y-67902367D01*
X85827740Y-67728700D01*
X85552740Y-67728700D01*
X85298740Y-67728700D01*
X85023740Y-67728700D01*
X84530000Y-67867206D01*
X84530000Y-67016157D01*
X91084246Y-67016157D01*
X91219303Y-67343020D01*
X91469164Y-67593318D01*
X91795791Y-67728946D01*
X92149457Y-67729254D01*
X92476320Y-67594197D01*
X92726618Y-67344336D01*
X92862246Y-67017709D01*
X92862554Y-66664043D01*
X92727497Y-66337180D01*
X92477636Y-66086882D01*
X92151009Y-65951254D01*
X91797343Y-65950946D01*
X91470480Y-66086003D01*
X91220182Y-66335864D01*
X91084554Y-66662491D01*
X91084246Y-67016157D01*
X84530000Y-67016157D01*
X84530000Y-65911257D01*
X101625246Y-65911257D01*
X101760303Y-66238120D01*
X102010164Y-66488418D01*
X102336791Y-66624046D01*
X102690457Y-66624354D01*
X103017320Y-66489297D01*
X103267618Y-66239436D01*
X103403246Y-65912809D01*
X103403554Y-65559143D01*
X103268497Y-65232280D01*
X103018636Y-64981982D01*
X102692009Y-64846354D01*
X102338343Y-64846046D01*
X102011480Y-64981103D01*
X101761182Y-65230964D01*
X101625554Y-65557591D01*
X101625246Y-65911257D01*
X84530000Y-65911257D01*
X84530000Y-62710857D01*
X96977046Y-62710857D01*
X97112103Y-63037720D01*
X97361964Y-63288018D01*
X97688591Y-63423646D01*
X98042257Y-63423954D01*
X98369120Y-63288897D01*
X98619418Y-63039036D01*
X98755046Y-62712409D01*
X98755354Y-62358743D01*
X98620297Y-62031880D01*
X98370436Y-61781582D01*
X98043809Y-61645954D01*
X97690143Y-61645646D01*
X97363280Y-61780703D01*
X97112982Y-62030564D01*
X96977354Y-62357191D01*
X96977046Y-62710857D01*
X84530000Y-62710857D01*
X84530000Y-60374057D01*
X97053246Y-60374057D01*
X97188303Y-60700920D01*
X97438164Y-60951218D01*
X97764791Y-61086846D01*
X98118457Y-61087154D01*
X98445320Y-60952097D01*
X98695618Y-60702236D01*
X98831246Y-60375609D01*
X98831554Y-60021943D01*
X98696497Y-59695080D01*
X98446636Y-59444782D01*
X98120009Y-59309154D01*
X97766343Y-59308846D01*
X97439480Y-59443903D01*
X97189182Y-59693764D01*
X97053554Y-60020391D01*
X97053246Y-60374057D01*
X84530000Y-60374057D01*
X84530000Y-58418257D01*
X94945046Y-58418257D01*
X95080103Y-58745120D01*
X95329964Y-58995418D01*
X95656591Y-59131046D01*
X96010257Y-59131354D01*
X96337120Y-58996297D01*
X96587418Y-58746436D01*
X96723046Y-58419809D01*
X96723354Y-58066143D01*
X96588297Y-57739280D01*
X96338436Y-57488982D01*
X96011809Y-57353354D01*
X95658143Y-57353046D01*
X95331280Y-57488103D01*
X95080982Y-57737964D01*
X94945354Y-58064591D01*
X94945046Y-58418257D01*
X84530000Y-58418257D01*
X84530000Y-57046657D01*
X97104046Y-57046657D01*
X97239103Y-57373520D01*
X97488964Y-57623818D01*
X97815591Y-57759446D01*
X98169257Y-57759754D01*
X98496120Y-57624697D01*
X98741849Y-57379397D01*
X101820826Y-57379397D01*
X101955883Y-57706260D01*
X102205744Y-57956558D01*
X102532371Y-58092186D01*
X102886037Y-58092494D01*
X103212900Y-57957437D01*
X103463198Y-57707576D01*
X103598826Y-57380949D01*
X103599134Y-57027283D01*
X103464077Y-56700420D01*
X103214216Y-56450122D01*
X102887589Y-56314494D01*
X102533923Y-56314186D01*
X102207060Y-56449243D01*
X101956762Y-56699104D01*
X101821134Y-57025731D01*
X101820826Y-57379397D01*
X98741849Y-57379397D01*
X98746418Y-57374836D01*
X98882046Y-57048209D01*
X98882354Y-56694543D01*
X98747297Y-56367680D01*
X98497436Y-56117382D01*
X98170809Y-55981754D01*
X97817143Y-55981446D01*
X97490280Y-56116503D01*
X97239982Y-56366364D01*
X97104354Y-56692991D01*
X97104046Y-57046657D01*
X84530000Y-57046657D01*
X84530000Y-51520000D01*
X118197197Y-51520000D01*
X118084754Y-51790791D01*
G36*
X130610846Y-102676057D02*
X130744859Y-103000394D01*
X130611154Y-103322391D01*
X130610846Y-103676057D01*
X130745903Y-104002920D01*
X130995764Y-104253218D01*
X131322391Y-104388846D01*
X131676057Y-104389154D01*
X132000394Y-104255141D01*
X132322391Y-104388846D01*
X132676057Y-104389154D01*
X133002920Y-104254097D01*
X133253218Y-104004236D01*
X133388846Y-103677609D01*
X133389097Y-103388904D01*
X133676057Y-103389154D01*
X134000394Y-103255141D01*
X134322391Y-103388846D01*
X134611096Y-103389097D01*
X134610846Y-103676057D01*
X134745903Y-104002920D01*
X134995764Y-104253218D01*
X135322391Y-104388846D01*
X135676057Y-104389154D01*
X136000394Y-104255141D01*
X136322391Y-104388846D01*
X136676057Y-104389154D01*
X137002920Y-104254097D01*
X137253218Y-104004236D01*
X137388846Y-103677609D01*
X137389097Y-103388904D01*
X137676057Y-103389154D01*
X138002920Y-103254097D01*
X138253218Y-103004236D01*
X138388846Y-102677609D01*
X138388855Y-102666800D01*
X138934614Y-102666800D01*
X138861844Y-105432059D01*
X138861800Y-105435400D01*
X138861800Y-108570880D01*
X130126021Y-114882859D01*
X130083406Y-114936390D01*
X130073400Y-114985800D01*
X130073400Y-116316067D01*
X130004236Y-116246782D01*
X129677609Y-116111154D01*
X129323943Y-116110846D01*
X128999606Y-116244859D01*
X128677609Y-116111154D01*
X128323943Y-116110846D01*
X127999606Y-116244859D01*
X127677609Y-116111154D01*
X127323943Y-116110846D01*
X126997080Y-116245903D01*
X126746782Y-116495764D01*
X126611154Y-116822391D01*
X126610903Y-117111096D01*
X126323943Y-117110846D01*
X125997080Y-117245903D01*
X125746782Y-117495764D01*
X125611154Y-117822391D01*
X125610903Y-118111096D01*
X125323943Y-118110846D01*
X124997080Y-118245903D01*
X124746782Y-118495764D01*
X124611154Y-118822391D01*
X124610846Y-119176057D01*
X124745903Y-119502920D01*
X124995764Y-119753218D01*
X125322391Y-119888846D01*
X125676057Y-119889154D01*
X126000394Y-119755141D01*
X126322391Y-119888846D01*
X126676057Y-119889154D01*
X127000394Y-119755141D01*
X127322391Y-119888846D01*
X127676057Y-119889154D01*
X128000394Y-119755141D01*
X128322391Y-119888846D01*
X128676057Y-119889154D01*
X129000394Y-119755141D01*
X129322391Y-119888846D01*
X129676057Y-119889154D01*
X130002920Y-119754097D01*
X130073400Y-119683740D01*
X130073400Y-128092200D01*
X107416600Y-128092200D01*
X107416600Y-121176057D01*
X115610846Y-121176057D01*
X115745903Y-121502920D01*
X115767764Y-121524819D01*
X115746782Y-121545764D01*
X115611154Y-121872391D01*
X115610846Y-122226057D01*
X115745903Y-122552920D01*
X115995764Y-122803218D01*
X116322391Y-122938846D01*
X116676057Y-122939154D01*
X117000394Y-122805141D01*
X117322391Y-122938846D01*
X117676057Y-122939154D01*
X118002920Y-122804097D01*
X118253218Y-122554236D01*
X118388846Y-122227609D01*
X118389154Y-121873943D01*
X118254097Y-121547080D01*
X118232236Y-121525181D01*
X118253218Y-121504236D01*
X118388846Y-121177609D01*
X118389154Y-120823943D01*
X118254097Y-120497080D01*
X118004236Y-120246782D01*
X117677609Y-120111154D01*
X117323943Y-120110846D01*
X116999606Y-120244859D01*
X116677609Y-120111154D01*
X116323943Y-120110846D01*
X115997080Y-120245903D01*
X115746782Y-120495764D01*
X115611154Y-120822391D01*
X115610846Y-121176057D01*
X107416600Y-121176057D01*
X107416600Y-116560600D01*
X119202200Y-116560600D01*
X119248359Y-116551915D01*
X119290753Y-116524635D01*
X119319194Y-116483010D01*
X119329200Y-116433600D01*
X119329200Y-107176057D01*
X123110846Y-107176057D01*
X123245903Y-107502920D01*
X123495764Y-107753218D01*
X123822391Y-107888846D01*
X124176057Y-107889154D01*
X124502920Y-107754097D01*
X124753218Y-107504236D01*
X124888846Y-107177609D01*
X124889154Y-106823943D01*
X124828049Y-106676057D01*
X128610846Y-106676057D01*
X128693083Y-106875085D01*
X128611154Y-107072391D01*
X128610846Y-107426057D01*
X128745903Y-107752920D01*
X128995764Y-108003218D01*
X129322391Y-108138846D01*
X129676057Y-108139154D01*
X130002920Y-108004097D01*
X130253218Y-107754236D01*
X130388846Y-107427609D01*
X130388880Y-107388904D01*
X130676057Y-107389154D01*
X131000394Y-107255141D01*
X131322391Y-107388846D01*
X131676057Y-107389154D01*
X132002920Y-107254097D01*
X132253218Y-107004236D01*
X132388846Y-106677609D01*
X132389154Y-106323943D01*
X132254097Y-105997080D01*
X132004236Y-105746782D01*
X131677609Y-105611154D01*
X131323943Y-105610846D01*
X130999606Y-105744859D01*
X130677609Y-105611154D01*
X130323943Y-105610846D01*
X129999606Y-105744859D01*
X129677609Y-105611154D01*
X129323943Y-105610846D01*
X128997080Y-105745903D01*
X128746782Y-105995764D01*
X128611154Y-106322391D01*
X128610846Y-106676057D01*
X124828049Y-106676057D01*
X124754097Y-106497080D01*
X124504236Y-106246782D01*
X124177609Y-106111154D01*
X123823943Y-106110846D01*
X123497080Y-106245903D01*
X123246782Y-106495764D01*
X123111154Y-106822391D01*
X123110846Y-107176057D01*
X119329200Y-107176057D01*
X119329200Y-102666800D01*
X130610854Y-102666800D01*
X130610846Y-102676057D01*
X130610846Y-102676057D01*
G37*
X130610846Y-102676057D02*
X130744859Y-103000394D01*
X130611154Y-103322391D01*
X130610846Y-103676057D01*
X130745903Y-104002920D01*
X130995764Y-104253218D01*
X131322391Y-104388846D01*
X131676057Y-104389154D01*
X132000394Y-104255141D01*
X132322391Y-104388846D01*
X132676057Y-104389154D01*
X133002920Y-104254097D01*
X133253218Y-104004236D01*
X133388846Y-103677609D01*
X133389097Y-103388904D01*
X133676057Y-103389154D01*
X134000394Y-103255141D01*
X134322391Y-103388846D01*
X134611096Y-103389097D01*
X134610846Y-103676057D01*
X134745903Y-104002920D01*
X134995764Y-104253218D01*
X135322391Y-104388846D01*
X135676057Y-104389154D01*
X136000394Y-104255141D01*
X136322391Y-104388846D01*
X136676057Y-104389154D01*
X137002920Y-104254097D01*
X137253218Y-104004236D01*
X137388846Y-103677609D01*
X137389097Y-103388904D01*
X137676057Y-103389154D01*
X138002920Y-103254097D01*
X138253218Y-103004236D01*
X138388846Y-102677609D01*
X138388855Y-102666800D01*
X138934614Y-102666800D01*
X138861844Y-105432059D01*
X138861800Y-105435400D01*
X138861800Y-108570880D01*
X130126021Y-114882859D01*
X130083406Y-114936390D01*
X130073400Y-114985800D01*
X130073400Y-116316067D01*
X130004236Y-116246782D01*
X129677609Y-116111154D01*
X129323943Y-116110846D01*
X128999606Y-116244859D01*
X128677609Y-116111154D01*
X128323943Y-116110846D01*
X127999606Y-116244859D01*
X127677609Y-116111154D01*
X127323943Y-116110846D01*
X126997080Y-116245903D01*
X126746782Y-116495764D01*
X126611154Y-116822391D01*
X126610903Y-117111096D01*
X126323943Y-117110846D01*
X125997080Y-117245903D01*
X125746782Y-117495764D01*
X125611154Y-117822391D01*
X125610903Y-118111096D01*
X125323943Y-118110846D01*
X124997080Y-118245903D01*
X124746782Y-118495764D01*
X124611154Y-118822391D01*
X124610846Y-119176057D01*
X124745903Y-119502920D01*
X124995764Y-119753218D01*
X125322391Y-119888846D01*
X125676057Y-119889154D01*
X126000394Y-119755141D01*
X126322391Y-119888846D01*
X126676057Y-119889154D01*
X127000394Y-119755141D01*
X127322391Y-119888846D01*
X127676057Y-119889154D01*
X128000394Y-119755141D01*
X128322391Y-119888846D01*
X128676057Y-119889154D01*
X129000394Y-119755141D01*
X129322391Y-119888846D01*
X129676057Y-119889154D01*
X130002920Y-119754097D01*
X130073400Y-119683740D01*
X130073400Y-128092200D01*
X107416600Y-128092200D01*
X107416600Y-121176057D01*
X115610846Y-121176057D01*
X115745903Y-121502920D01*
X115767764Y-121524819D01*
X115746782Y-121545764D01*
X115611154Y-121872391D01*
X115610846Y-122226057D01*
X115745903Y-122552920D01*
X115995764Y-122803218D01*
X116322391Y-122938846D01*
X116676057Y-122939154D01*
X117000394Y-122805141D01*
X117322391Y-122938846D01*
X117676057Y-122939154D01*
X118002920Y-122804097D01*
X118253218Y-122554236D01*
X118388846Y-122227609D01*
X118389154Y-121873943D01*
X118254097Y-121547080D01*
X118232236Y-121525181D01*
X118253218Y-121504236D01*
X118388846Y-121177609D01*
X118389154Y-120823943D01*
X118254097Y-120497080D01*
X118004236Y-120246782D01*
X117677609Y-120111154D01*
X117323943Y-120110846D01*
X116999606Y-120244859D01*
X116677609Y-120111154D01*
X116323943Y-120110846D01*
X115997080Y-120245903D01*
X115746782Y-120495764D01*
X115611154Y-120822391D01*
X115610846Y-121176057D01*
X107416600Y-121176057D01*
X107416600Y-116560600D01*
X119202200Y-116560600D01*
X119248359Y-116551915D01*
X119290753Y-116524635D01*
X119319194Y-116483010D01*
X119329200Y-116433600D01*
X119329200Y-107176057D01*
X123110846Y-107176057D01*
X123245903Y-107502920D01*
X123495764Y-107753218D01*
X123822391Y-107888846D01*
X124176057Y-107889154D01*
X124502920Y-107754097D01*
X124753218Y-107504236D01*
X124888846Y-107177609D01*
X124889154Y-106823943D01*
X124828049Y-106676057D01*
X128610846Y-106676057D01*
X128693083Y-106875085D01*
X128611154Y-107072391D01*
X128610846Y-107426057D01*
X128745903Y-107752920D01*
X128995764Y-108003218D01*
X129322391Y-108138846D01*
X129676057Y-108139154D01*
X130002920Y-108004097D01*
X130253218Y-107754236D01*
X130388846Y-107427609D01*
X130388880Y-107388904D01*
X130676057Y-107389154D01*
X131000394Y-107255141D01*
X131322391Y-107388846D01*
X131676057Y-107389154D01*
X132002920Y-107254097D01*
X132253218Y-107004236D01*
X132388846Y-106677609D01*
X132389154Y-106323943D01*
X132254097Y-105997080D01*
X132004236Y-105746782D01*
X131677609Y-105611154D01*
X131323943Y-105610846D01*
X130999606Y-105744859D01*
X130677609Y-105611154D01*
X130323943Y-105610846D01*
X129999606Y-105744859D01*
X129677609Y-105611154D01*
X129323943Y-105610846D01*
X128997080Y-105745903D01*
X128746782Y-105995764D01*
X128611154Y-106322391D01*
X128610846Y-106676057D01*
X124828049Y-106676057D01*
X124754097Y-106497080D01*
X124504236Y-106246782D01*
X124177609Y-106111154D01*
X123823943Y-106110846D01*
X123497080Y-106245903D01*
X123246782Y-106495764D01*
X123111154Y-106822391D01*
X123110846Y-107176057D01*
X119329200Y-107176057D01*
X119329200Y-102666800D01*
X130610854Y-102666800D01*
X130610846Y-102676057D01*
G36*
X100585805Y-81737200D02*
X100783523Y-81934918D01*
X100632956Y-81872397D01*
X100333245Y-81872135D01*
X100271137Y-81810027D01*
X100271265Y-81664245D01*
X100333373Y-81602137D01*
X100630975Y-81602397D01*
X100783722Y-81539283D01*
X100585805Y-81737200D01*
X100585805Y-81737200D01*
G37*
X100585805Y-81737200D02*
X100783523Y-81934918D01*
X100632956Y-81872397D01*
X100333245Y-81872135D01*
X100271137Y-81810027D01*
X100271265Y-81664245D01*
X100333373Y-81602137D01*
X100630975Y-81602397D01*
X100783722Y-81539283D01*
X100585805Y-81737200D01*
G36*
X147050103Y-99198820D02*
X146969092Y-99393914D01*
X146968908Y-99605159D01*
X147049578Y-99800394D01*
X147198820Y-99949897D01*
X147319536Y-100000023D01*
X147199606Y-100049578D01*
X147050103Y-100198820D01*
X146969092Y-100393914D01*
X146968908Y-100605159D01*
X147049578Y-100800394D01*
X147198820Y-100949897D01*
X147319536Y-101000023D01*
X147199606Y-101049578D01*
X147050103Y-101198820D01*
X146969092Y-101393914D01*
X146968908Y-101605159D01*
X147049578Y-101800394D01*
X147198820Y-101949897D01*
X147319536Y-102000023D01*
X147199606Y-102049578D01*
X147050103Y-102198820D01*
X146969092Y-102393914D01*
X146968908Y-102605159D01*
X147049578Y-102800394D01*
X147198820Y-102949897D01*
X147393914Y-103030908D01*
X147605159Y-103031092D01*
X147800394Y-102950422D01*
X147949897Y-102801180D01*
X148030908Y-102606086D01*
X148031092Y-102394841D01*
X147950422Y-102199606D01*
X147801180Y-102050103D01*
X147680464Y-101999977D01*
X147800394Y-101950422D01*
X147949897Y-101801180D01*
X148030908Y-101606086D01*
X148031092Y-101394841D01*
X147950422Y-101199606D01*
X147801180Y-101050103D01*
X147680464Y-100999977D01*
X147800394Y-100950422D01*
X147949897Y-100801180D01*
X148030908Y-100606086D01*
X148031092Y-100394841D01*
X147950422Y-100199606D01*
X147801180Y-100050103D01*
X147680464Y-99999977D01*
X147800394Y-99950422D01*
X147949897Y-99801180D01*
X148030908Y-99606086D01*
X148031092Y-99394841D01*
X147950422Y-99199606D01*
X147877943Y-99127000D01*
X148373000Y-99127000D01*
X148373000Y-123000000D01*
X148383006Y-123049410D01*
X148411447Y-123091035D01*
X148434659Y-123108902D01*
X150873000Y-124571907D01*
X150873000Y-128873000D01*
X131127000Y-128873000D01*
X131127000Y-118105159D01*
X135468148Y-118105159D01*
X135548818Y-118300394D01*
X135698060Y-118449897D01*
X135893154Y-118530908D01*
X136104399Y-118531092D01*
X136299634Y-118450422D01*
X136449137Y-118301180D01*
X136530148Y-118106086D01*
X136530332Y-117894841D01*
X136449662Y-117699606D01*
X136300420Y-117550103D01*
X136105326Y-117469092D01*
X135894081Y-117468908D01*
X135698846Y-117549578D01*
X135549343Y-117698820D01*
X135468332Y-117893914D01*
X135468148Y-118105159D01*
X131127000Y-118105159D01*
X131127000Y-115607119D01*
X133185670Y-114105159D01*
X138968908Y-114105159D01*
X139049578Y-114300394D01*
X139198820Y-114449897D01*
X139319536Y-114500023D01*
X139199606Y-114549578D01*
X139050103Y-114698820D01*
X138969092Y-114893914D01*
X138968908Y-115105159D01*
X139049578Y-115300394D01*
X139198820Y-115449897D01*
X139319536Y-115500023D01*
X139199606Y-115549578D01*
X139050103Y-115698820D01*
X138969092Y-115893914D01*
X138968908Y-116105159D01*
X139049578Y-116300394D01*
X139198820Y-116449897D01*
X139393914Y-116530908D01*
X139605159Y-116531092D01*
X139723000Y-116482401D01*
X139723000Y-119000000D01*
X139782146Y-119297345D01*
X139950578Y-119549422D01*
X140099849Y-119649161D01*
X140050103Y-119698820D01*
X139969092Y-119893914D01*
X139968908Y-120105159D01*
X140049578Y-120300394D01*
X140198820Y-120449897D01*
X140319536Y-120500023D01*
X140199606Y-120549578D01*
X140050103Y-120698820D01*
X139969092Y-120893914D01*
X139968908Y-121105159D01*
X140049578Y-121300394D01*
X140198820Y-121449897D01*
X140393914Y-121530908D01*
X140605159Y-121531092D01*
X140800394Y-121450422D01*
X140949897Y-121301180D01*
X141000023Y-121180464D01*
X141049578Y-121300394D01*
X141198820Y-121449897D01*
X141393914Y-121530908D01*
X141605159Y-121531092D01*
X141800394Y-121450422D01*
X141949897Y-121301180D01*
X142000023Y-121180464D01*
X142049578Y-121300394D01*
X142198820Y-121449897D01*
X142393914Y-121530908D01*
X142605159Y-121531092D01*
X142800394Y-121450422D01*
X142949897Y-121301180D01*
X143030908Y-121106086D01*
X143031092Y-120894841D01*
X142950422Y-120699606D01*
X142801180Y-120550103D01*
X142606086Y-120469092D01*
X142394841Y-120468908D01*
X142199606Y-120549578D01*
X142050103Y-120698820D01*
X141999977Y-120819536D01*
X141950422Y-120699606D01*
X141801180Y-120550103D01*
X141606086Y-120469092D01*
X141394841Y-120468908D01*
X141199606Y-120549578D01*
X141050103Y-120698820D01*
X140999977Y-120819536D01*
X140950422Y-120699606D01*
X140801180Y-120550103D01*
X140680464Y-120499977D01*
X140800394Y-120450422D01*
X140949897Y-120301180D01*
X141030908Y-120106086D01*
X141031092Y-119894841D01*
X140950422Y-119699606D01*
X140900100Y-119649196D01*
X141049422Y-119549422D01*
X141217854Y-119297345D01*
X141277000Y-119000000D01*
X141277000Y-118105159D01*
X144968908Y-118105159D01*
X145049578Y-118300394D01*
X145198820Y-118449897D01*
X145393914Y-118530908D01*
X145605159Y-118531092D01*
X145800394Y-118450422D01*
X145949897Y-118301180D01*
X146030908Y-118106086D01*
X146031092Y-117894841D01*
X145950422Y-117699606D01*
X145801180Y-117550103D01*
X145606086Y-117469092D01*
X145394841Y-117468908D01*
X145199606Y-117549578D01*
X145050103Y-117698820D01*
X144969092Y-117893914D01*
X144968908Y-118105159D01*
X141277000Y-118105159D01*
X141277000Y-116000000D01*
X141217854Y-115702655D01*
X141049422Y-115450578D01*
X140900151Y-115350839D01*
X140949897Y-115301180D01*
X141000023Y-115180464D01*
X141049578Y-115300394D01*
X141198820Y-115449897D01*
X141393914Y-115530908D01*
X141605159Y-115531092D01*
X141800394Y-115450422D01*
X141949897Y-115301180D01*
X142000023Y-115180464D01*
X142049578Y-115300394D01*
X142198820Y-115449897D01*
X142393914Y-115530908D01*
X142605159Y-115531092D01*
X142800394Y-115450422D01*
X142949897Y-115301180D01*
X143030908Y-115106086D01*
X143031092Y-114894841D01*
X142950422Y-114699606D01*
X142801180Y-114550103D01*
X142680464Y-114499977D01*
X142800394Y-114450422D01*
X142949897Y-114301180D01*
X143030908Y-114106086D01*
X143031092Y-113894841D01*
X142950422Y-113699606D01*
X142801180Y-113550103D01*
X142606086Y-113469092D01*
X142394841Y-113468908D01*
X142199606Y-113549578D01*
X142050103Y-113698820D01*
X141999977Y-113819536D01*
X141950422Y-113699606D01*
X141801180Y-113550103D01*
X141606086Y-113469092D01*
X141394841Y-113468908D01*
X141199606Y-113549578D01*
X141050103Y-113698820D01*
X140999977Y-113819536D01*
X140950422Y-113699606D01*
X140801180Y-113550103D01*
X140606086Y-113469092D01*
X140394841Y-113468908D01*
X140199606Y-113549578D01*
X140050103Y-113698820D01*
X139999977Y-113819536D01*
X139950422Y-113699606D01*
X139801180Y-113550103D01*
X139606086Y-113469092D01*
X139394841Y-113468908D01*
X139199606Y-113549578D01*
X139050103Y-113698820D01*
X138969092Y-113893914D01*
X138968908Y-114105159D01*
X133185670Y-114105159D01*
X136862072Y-111422939D01*
X140074357Y-109102956D01*
X140108555Y-109065916D01*
X140127000Y-109000000D01*
X140127000Y-99127000D01*
X147122049Y-99127000D01*
X147050103Y-99198820D01*
X147050103Y-99198820D01*
G37*
X147050103Y-99198820D02*
X146969092Y-99393914D01*
X146968908Y-99605159D01*
X147049578Y-99800394D01*
X147198820Y-99949897D01*
X147319536Y-100000023D01*
X147199606Y-100049578D01*
X147050103Y-100198820D01*
X146969092Y-100393914D01*
X146968908Y-100605159D01*
X147049578Y-100800394D01*
X147198820Y-100949897D01*
X147319536Y-101000023D01*
X147199606Y-101049578D01*
X147050103Y-101198820D01*
X146969092Y-101393914D01*
X146968908Y-101605159D01*
X147049578Y-101800394D01*
X147198820Y-101949897D01*
X147319536Y-102000023D01*
X147199606Y-102049578D01*
X147050103Y-102198820D01*
X146969092Y-102393914D01*
X146968908Y-102605159D01*
X147049578Y-102800394D01*
X147198820Y-102949897D01*
X147393914Y-103030908D01*
X147605159Y-103031092D01*
X147800394Y-102950422D01*
X147949897Y-102801180D01*
X148030908Y-102606086D01*
X148031092Y-102394841D01*
X147950422Y-102199606D01*
X147801180Y-102050103D01*
X147680464Y-101999977D01*
X147800394Y-101950422D01*
X147949897Y-101801180D01*
X148030908Y-101606086D01*
X148031092Y-101394841D01*
X147950422Y-101199606D01*
X147801180Y-101050103D01*
X147680464Y-100999977D01*
X147800394Y-100950422D01*
X147949897Y-100801180D01*
X148030908Y-100606086D01*
X148031092Y-100394841D01*
X147950422Y-100199606D01*
X147801180Y-100050103D01*
X147680464Y-99999977D01*
X147800394Y-99950422D01*
X147949897Y-99801180D01*
X148030908Y-99606086D01*
X148031092Y-99394841D01*
X147950422Y-99199606D01*
X147877943Y-99127000D01*
X148373000Y-99127000D01*
X148373000Y-123000000D01*
X148383006Y-123049410D01*
X148411447Y-123091035D01*
X148434659Y-123108902D01*
X150873000Y-124571907D01*
X150873000Y-128873000D01*
X131127000Y-128873000D01*
X131127000Y-118105159D01*
X135468148Y-118105159D01*
X135548818Y-118300394D01*
X135698060Y-118449897D01*
X135893154Y-118530908D01*
X136104399Y-118531092D01*
X136299634Y-118450422D01*
X136449137Y-118301180D01*
X136530148Y-118106086D01*
X136530332Y-117894841D01*
X136449662Y-117699606D01*
X136300420Y-117550103D01*
X136105326Y-117469092D01*
X135894081Y-117468908D01*
X135698846Y-117549578D01*
X135549343Y-117698820D01*
X135468332Y-117893914D01*
X135468148Y-118105159D01*
X131127000Y-118105159D01*
X131127000Y-115607119D01*
X133185670Y-114105159D01*
X138968908Y-114105159D01*
X139049578Y-114300394D01*
X139198820Y-114449897D01*
X139319536Y-114500023D01*
X139199606Y-114549578D01*
X139050103Y-114698820D01*
X138969092Y-114893914D01*
X138968908Y-115105159D01*
X139049578Y-115300394D01*
X139198820Y-115449897D01*
X139319536Y-115500023D01*
X139199606Y-115549578D01*
X139050103Y-115698820D01*
X138969092Y-115893914D01*
X138968908Y-116105159D01*
X139049578Y-116300394D01*
X139198820Y-116449897D01*
X139393914Y-116530908D01*
X139605159Y-116531092D01*
X139723000Y-116482401D01*
X139723000Y-119000000D01*
X139782146Y-119297345D01*
X139950578Y-119549422D01*
X140099849Y-119649161D01*
X140050103Y-119698820D01*
X139969092Y-119893914D01*
X139968908Y-120105159D01*
X140049578Y-120300394D01*
X140198820Y-120449897D01*
X140319536Y-120500023D01*
X140199606Y-120549578D01*
X140050103Y-120698820D01*
X139969092Y-120893914D01*
X139968908Y-121105159D01*
X140049578Y-121300394D01*
X140198820Y-121449897D01*
X140393914Y-121530908D01*
X140605159Y-121531092D01*
X140800394Y-121450422D01*
X140949897Y-121301180D01*
X141000023Y-121180464D01*
X141049578Y-121300394D01*
X141198820Y-121449897D01*
X141393914Y-121530908D01*
X141605159Y-121531092D01*
X141800394Y-121450422D01*
X141949897Y-121301180D01*
X142000023Y-121180464D01*
X142049578Y-121300394D01*
X142198820Y-121449897D01*
X142393914Y-121530908D01*
X142605159Y-121531092D01*
X142800394Y-121450422D01*
X142949897Y-121301180D01*
X143030908Y-121106086D01*
X143031092Y-120894841D01*
X142950422Y-120699606D01*
X142801180Y-120550103D01*
X142606086Y-120469092D01*
X142394841Y-120468908D01*
X142199606Y-120549578D01*
X142050103Y-120698820D01*
X141999977Y-120819536D01*
X141950422Y-120699606D01*
X141801180Y-120550103D01*
X141606086Y-120469092D01*
X141394841Y-120468908D01*
X141199606Y-120549578D01*
X141050103Y-120698820D01*
X140999977Y-120819536D01*
X140950422Y-120699606D01*
X140801180Y-120550103D01*
X140680464Y-120499977D01*
X140800394Y-120450422D01*
X140949897Y-120301180D01*
X141030908Y-120106086D01*
X141031092Y-119894841D01*
X140950422Y-119699606D01*
X140900100Y-119649196D01*
X141049422Y-119549422D01*
X141217854Y-119297345D01*
X141277000Y-119000000D01*
X141277000Y-118105159D01*
X144968908Y-118105159D01*
X145049578Y-118300394D01*
X145198820Y-118449897D01*
X145393914Y-118530908D01*
X145605159Y-118531092D01*
X145800394Y-118450422D01*
X145949897Y-118301180D01*
X146030908Y-118106086D01*
X146031092Y-117894841D01*
X145950422Y-117699606D01*
X145801180Y-117550103D01*
X145606086Y-117469092D01*
X145394841Y-117468908D01*
X145199606Y-117549578D01*
X145050103Y-117698820D01*
X144969092Y-117893914D01*
X144968908Y-118105159D01*
X141277000Y-118105159D01*
X141277000Y-116000000D01*
X141217854Y-115702655D01*
X141049422Y-115450578D01*
X140900151Y-115350839D01*
X140949897Y-115301180D01*
X141000023Y-115180464D01*
X141049578Y-115300394D01*
X141198820Y-115449897D01*
X141393914Y-115530908D01*
X141605159Y-115531092D01*
X141800394Y-115450422D01*
X141949897Y-115301180D01*
X142000023Y-115180464D01*
X142049578Y-115300394D01*
X142198820Y-115449897D01*
X142393914Y-115530908D01*
X142605159Y-115531092D01*
X142800394Y-115450422D01*
X142949897Y-115301180D01*
X143030908Y-115106086D01*
X143031092Y-114894841D01*
X142950422Y-114699606D01*
X142801180Y-114550103D01*
X142680464Y-114499977D01*
X142800394Y-114450422D01*
X142949897Y-114301180D01*
X143030908Y-114106086D01*
X143031092Y-113894841D01*
X142950422Y-113699606D01*
X142801180Y-113550103D01*
X142606086Y-113469092D01*
X142394841Y-113468908D01*
X142199606Y-113549578D01*
X142050103Y-113698820D01*
X141999977Y-113819536D01*
X141950422Y-113699606D01*
X141801180Y-113550103D01*
X141606086Y-113469092D01*
X141394841Y-113468908D01*
X141199606Y-113549578D01*
X141050103Y-113698820D01*
X140999977Y-113819536D01*
X140950422Y-113699606D01*
X140801180Y-113550103D01*
X140606086Y-113469092D01*
X140394841Y-113468908D01*
X140199606Y-113549578D01*
X140050103Y-113698820D01*
X139999977Y-113819536D01*
X139950422Y-113699606D01*
X139801180Y-113550103D01*
X139606086Y-113469092D01*
X139394841Y-113468908D01*
X139199606Y-113549578D01*
X139050103Y-113698820D01*
X138969092Y-113893914D01*
X138968908Y-114105159D01*
X133185670Y-114105159D01*
X136862072Y-111422939D01*
X140074357Y-109102956D01*
X140108555Y-109065916D01*
X140127000Y-109000000D01*
X140127000Y-99127000D01*
X147122049Y-99127000D01*
X147050103Y-99198820D01*
M02*
