G04 #@! TF.FileFunction,Paste,Top*
%FSLAX46Y46*%
G04 Gerber Fmt 4.6, Leading zero omitted, Abs format (unit mm)*
G04 Created by KiCad (PCBNEW 4.0.2-stable) date 4/8/2016 7:07:07 PM*
%MOMM*%
G01*
G04 APERTURE LIST*
%ADD10C,0.100000*%
%ADD11R,0.700000X1.000000*%
%ADD12R,1.000000X0.250000*%
%ADD13R,0.250000X1.000000*%
%ADD14R,1.300000X1.550000*%
%ADD15R,1.200000X0.600000*%
%ADD16R,0.600000X1.200000*%
%ADD17R,1.450000X0.450000*%
%ADD18R,0.500000X0.350000*%
%ADD19R,0.800000X0.750000*%
%ADD20R,0.750000X0.800000*%
%ADD21R,1.600000X1.000000*%
%ADD22R,0.600000X0.500000*%
%ADD23R,1.000000X1.600000*%
%ADD24R,0.910000X1.220000*%
%ADD25R,1.220000X0.910000*%
%ADD26R,0.457200X0.711200*%
%ADD27R,2.499360X1.800860*%
%ADD28R,5.600000X2.300000*%
%ADD29R,2.700020X1.800860*%
%ADD30R,7.500000X1.800000*%
%ADD31R,1.350000X0.400000*%
%ADD32R,0.800100X0.800100*%
%ADD33R,0.410000X0.650000*%
%ADD34R,0.508000X0.699000*%
%ADD35R,0.500000X0.900000*%
%ADD36R,0.900000X0.500000*%
%ADD37R,1.000000X0.700000*%
%ADD38R,0.400000X0.290000*%
%ADD39R,0.290000X0.400000*%
%ADD40R,1.060000X0.650000*%
%ADD41O,1.473200X0.609600*%
%ADD42R,1.143000X0.508000*%
%ADD43R,0.797560X0.797560*%
%ADD44R,1.150000X0.745000*%
%ADD45R,0.900000X0.950000*%
%ADD46R,0.750000X0.700000*%
%ADD47R,0.850000X1.200000*%
%ADD48R,0.750000X0.650000*%
%ADD49R,0.850000X1.300000*%
%ADD50R,1.300000X1.050000*%
G04 APERTURE END LIST*
D10*
D11*
X124780080Y-74174200D03*
X124780080Y-71774200D03*
X123830080Y-74174200D03*
X123830080Y-71774200D03*
X122880080Y-74174200D03*
X122880080Y-71774200D03*
D12*
X104078800Y-68335200D03*
X104078800Y-68835200D03*
X104078800Y-69335200D03*
X104078800Y-69835200D03*
X104078800Y-70335200D03*
X104078800Y-70835200D03*
X104078800Y-71335200D03*
X104078800Y-71835200D03*
X104078800Y-72335200D03*
X104078800Y-72835200D03*
X104078800Y-73335200D03*
X104078800Y-73835200D03*
X104078800Y-74335200D03*
X104078800Y-74835200D03*
X104078800Y-75335200D03*
X104078800Y-75835200D03*
D13*
X106028800Y-77785200D03*
X106528800Y-77785200D03*
X107028800Y-77785200D03*
X107528800Y-77785200D03*
X108028800Y-77785200D03*
X108528800Y-77785200D03*
X109028800Y-77785200D03*
X109528800Y-77785200D03*
X110028800Y-77785200D03*
X110528800Y-77785200D03*
X111028800Y-77785200D03*
X111528800Y-77785200D03*
X112028800Y-77785200D03*
X112528800Y-77785200D03*
X113028800Y-77785200D03*
X113528800Y-77785200D03*
D12*
X115478800Y-75835200D03*
X115478800Y-75335200D03*
X115478800Y-74835200D03*
X115478800Y-74335200D03*
X115478800Y-73835200D03*
X115478800Y-73335200D03*
X115478800Y-72835200D03*
X115478800Y-72335200D03*
X115478800Y-71835200D03*
X115478800Y-71335200D03*
X115478800Y-70835200D03*
X115478800Y-70335200D03*
X115478800Y-69835200D03*
X115478800Y-69335200D03*
X115478800Y-68835200D03*
X115478800Y-68335200D03*
D13*
X113528800Y-66385200D03*
X113028800Y-66385200D03*
X112528800Y-66385200D03*
X112028800Y-66385200D03*
X111528800Y-66385200D03*
X111028800Y-66385200D03*
X110528800Y-66385200D03*
X110028800Y-66385200D03*
X109528800Y-66385200D03*
X109028800Y-66385200D03*
X108528800Y-66385200D03*
X108028800Y-66385200D03*
X107528800Y-66385200D03*
X107028800Y-66385200D03*
X106528800Y-66385200D03*
X106028800Y-66385200D03*
D14*
X101919600Y-88176200D03*
X101919600Y-96126200D03*
X97419600Y-88176200D03*
X97419600Y-96126200D03*
D15*
X114028800Y-92665200D03*
X114028800Y-91865200D03*
X114028800Y-91065200D03*
X114028800Y-90265200D03*
X114028800Y-89465200D03*
X114028800Y-88665200D03*
X114028800Y-87865200D03*
X114028800Y-87065200D03*
D16*
X112578800Y-85615200D03*
X111778800Y-85615200D03*
X110978800Y-85615200D03*
X110178800Y-85615200D03*
X109378800Y-85615200D03*
X108578800Y-85615200D03*
X107778800Y-85615200D03*
X106978800Y-85615200D03*
D15*
X105528800Y-87065200D03*
X105528800Y-87865200D03*
X105528800Y-88665200D03*
X105528800Y-89465200D03*
X105528800Y-90265200D03*
X105528800Y-91065200D03*
X105528800Y-91865200D03*
X105528800Y-92665200D03*
D16*
X106978800Y-94115200D03*
X107778800Y-94115200D03*
X108578800Y-94115200D03*
X109378800Y-94115200D03*
X110178800Y-94115200D03*
X110978800Y-94115200D03*
X111778800Y-94115200D03*
X112578800Y-94115200D03*
D17*
X129890160Y-71130520D03*
X129890160Y-71780520D03*
X129890160Y-72430520D03*
X129890160Y-73080520D03*
X134290160Y-73080520D03*
X134290160Y-72430520D03*
X134290160Y-71780520D03*
X134290160Y-71130520D03*
D18*
X132611160Y-75768560D03*
X131061160Y-75768560D03*
X132611160Y-76418560D03*
X131061160Y-76418560D03*
X132611160Y-77068560D03*
X131061160Y-77068560D03*
X132611160Y-77718560D03*
X131061160Y-77718560D03*
D19*
X120331800Y-68326000D03*
X121831800Y-68326000D03*
D20*
X112674400Y-80377600D03*
X112674400Y-81877600D03*
D19*
X116818980Y-91041220D03*
X118318980Y-91041220D03*
D20*
X101447600Y-69342700D03*
X101447600Y-67842700D03*
D19*
X101791200Y-74371200D03*
X100291200Y-74371200D03*
D20*
X106019600Y-79666400D03*
X106019600Y-81166400D03*
D19*
X135785160Y-77683360D03*
X137285160Y-77683360D03*
X135785160Y-75321160D03*
X137285160Y-75321160D03*
D20*
X129560320Y-85244240D03*
X129560320Y-86744240D03*
D19*
X128720280Y-80187800D03*
X127220280Y-80187800D03*
X116878800Y-56235600D03*
X115378800Y-56235600D03*
X128730440Y-81742280D03*
X127230440Y-81742280D03*
X128730440Y-83296760D03*
X127230440Y-83296760D03*
D20*
X166156111Y-62283153D03*
X166156111Y-60783153D03*
D19*
X155335624Y-58064032D03*
X153835624Y-58064032D03*
X102715760Y-58404760D03*
X101215760Y-58404760D03*
X102736080Y-60022740D03*
X101236080Y-60022740D03*
X127316800Y-64287400D03*
X128816800Y-64287400D03*
D21*
X137500000Y-104000000D03*
X137500000Y-107000000D03*
D22*
X131050000Y-112500000D03*
X129950000Y-112500000D03*
D21*
X130500000Y-110500000D03*
X130500000Y-107500000D03*
X118500000Y-124500000D03*
X118500000Y-121500000D03*
D23*
X135500000Y-122500000D03*
X138500000Y-122500000D03*
D21*
X141500000Y-122000000D03*
X141500000Y-125000000D03*
D19*
X117250000Y-127000000D03*
X115750000Y-127000000D03*
D23*
X121500000Y-118000000D03*
X118500000Y-118000000D03*
D21*
X146989800Y-120369200D03*
X146989800Y-123369200D03*
D24*
X135365000Y-119500000D03*
X138635000Y-119500000D03*
D25*
X132500000Y-115865000D03*
X132500000Y-119135000D03*
D26*
X146329400Y-127228600D03*
X147650200Y-127228600D03*
X146989800Y-125196600D03*
D27*
X145498980Y-111500000D03*
X141501020Y-111500000D03*
D28*
X143500000Y-100800000D03*
X143500000Y-108200000D03*
D29*
X134000000Y-104099700D03*
X134000000Y-108900300D03*
D30*
X125000000Y-126800000D03*
X125000000Y-121200000D03*
D31*
X88125740Y-71571700D03*
X88125740Y-72221700D03*
X88125740Y-72871700D03*
X88125740Y-73521700D03*
X88125740Y-74171700D03*
D32*
X165338800Y-97678240D03*
X163438800Y-97678240D03*
X164388800Y-99677220D03*
X149595800Y-95590360D03*
X151495800Y-95590360D03*
X150545800Y-93591380D03*
X103057960Y-63586400D03*
X103057960Y-61686400D03*
X101058980Y-62636400D03*
D33*
X175993700Y-69049900D03*
X175993700Y-67017900D03*
X175343700Y-69049900D03*
X175343700Y-67017900D03*
X174693700Y-69049900D03*
X174693700Y-67017900D03*
X174043700Y-69049900D03*
X174043700Y-67017900D03*
X176019100Y-82003900D03*
X176019100Y-79971900D03*
X175369100Y-82003900D03*
X175369100Y-79971900D03*
X174719100Y-82003900D03*
X174719100Y-79971900D03*
X174069100Y-82003900D03*
X174069100Y-79971900D03*
X175930200Y-95186500D03*
X175930200Y-93154500D03*
X175280200Y-95186500D03*
X175280200Y-93154500D03*
X174630200Y-95186500D03*
X174630200Y-93154500D03*
X173980200Y-95186500D03*
X173980200Y-93154500D03*
D32*
X122050000Y-113500760D03*
X123950000Y-113500760D03*
X123000000Y-111501780D03*
X109050000Y-126500760D03*
X110950000Y-126500760D03*
X110000000Y-124501780D03*
D34*
X141999000Y-119354000D03*
X143000000Y-119354000D03*
X144001000Y-119354000D03*
X141999000Y-117000000D03*
X143009000Y-117000000D03*
X144001000Y-117000000D03*
D32*
X135999240Y-115050000D03*
X135999240Y-116950000D03*
X137998220Y-116000000D03*
D35*
X90335800Y-67208400D03*
X88835800Y-67208400D03*
X93561600Y-68732400D03*
X92061600Y-68732400D03*
X97676400Y-73406000D03*
X96176400Y-73406000D03*
X97676400Y-71704200D03*
X96176400Y-71704200D03*
D36*
X141836140Y-58744420D03*
X141836140Y-60244420D03*
X144475200Y-58744420D03*
X144475200Y-60244420D03*
X120319800Y-72657400D03*
X120319800Y-71157400D03*
X120319800Y-73849800D03*
X120319800Y-75349800D03*
X104449880Y-57605360D03*
X104449880Y-56105360D03*
X106735880Y-57630760D03*
X106735880Y-56130760D03*
D35*
X93064900Y-66840100D03*
X94564900Y-66840100D03*
X122353640Y-76321920D03*
X123853640Y-76321920D03*
X124827600Y-59334400D03*
X126327600Y-59334400D03*
X130517200Y-59334400D03*
X132017200Y-59334400D03*
X136156000Y-59334400D03*
X137656000Y-59334400D03*
D36*
X118973600Y-52996400D03*
X118973600Y-54496400D03*
D35*
X171808311Y-57723153D03*
X170308311Y-57723153D03*
X165164200Y-95910400D03*
X163664200Y-95910400D03*
D36*
X159665624Y-59269832D03*
X159665624Y-60769832D03*
X159665624Y-62038432D03*
X159665624Y-63538432D03*
D35*
X175729200Y-58445400D03*
X177229200Y-58445400D03*
X164578600Y-58013600D03*
X166078600Y-58013600D03*
X149770400Y-97332800D03*
X151270400Y-97332800D03*
D36*
X172148500Y-68783900D03*
X172148500Y-67283900D03*
X172275500Y-81687100D03*
X172275500Y-80187100D03*
X172186600Y-94869700D03*
X172186600Y-93369700D03*
X104780080Y-63353380D03*
X104780080Y-61853380D03*
D35*
X131250000Y-104500000D03*
X129750000Y-104500000D03*
X128250000Y-104500000D03*
X126750000Y-104500000D03*
D36*
X123000000Y-108750000D03*
X123000000Y-107250000D03*
X121000000Y-107250000D03*
X121000000Y-108750000D03*
D35*
X109750000Y-122000000D03*
X108250000Y-122000000D03*
X108250000Y-119500000D03*
X109750000Y-119500000D03*
X113250000Y-119500000D03*
X111750000Y-119500000D03*
D36*
X150000000Y-126750000D03*
X150000000Y-128250000D03*
D35*
X116250000Y-119500000D03*
X114750000Y-119500000D03*
D36*
X144000000Y-121750000D03*
X144000000Y-123250000D03*
X132500000Y-121250000D03*
X132500000Y-122750000D03*
X147000000Y-116750000D03*
X147000000Y-118250000D03*
X144000000Y-126750000D03*
X144000000Y-125250000D03*
X138000000Y-112750000D03*
X138000000Y-111250000D03*
D11*
X92623600Y-71291600D03*
X92623600Y-73691600D03*
X93573600Y-71291600D03*
X93573600Y-73691600D03*
X94523600Y-71291600D03*
X94523600Y-73691600D03*
X98587600Y-69703800D03*
X98587600Y-67303800D03*
X97637600Y-69703800D03*
X97637600Y-67303800D03*
X96687600Y-69703800D03*
X96687600Y-67303800D03*
D37*
X111296600Y-62697400D03*
X113696600Y-62697400D03*
X111296600Y-61747400D03*
X113696600Y-61747400D03*
X111296600Y-60797400D03*
X113696600Y-60797400D03*
D38*
X130605360Y-80185160D03*
D39*
X131185360Y-80185160D03*
X131615360Y-80185160D03*
X132045360Y-80185160D03*
X132475360Y-80185160D03*
D38*
X133055360Y-80185160D03*
X133055360Y-80615160D03*
X133055360Y-81045160D03*
X133055360Y-81475160D03*
X133055360Y-81905160D03*
X133055360Y-82335160D03*
X133055360Y-82765160D03*
X133055360Y-83195160D03*
D39*
X132475360Y-83195160D03*
X132045360Y-83195160D03*
X131615360Y-83195160D03*
X131185360Y-83195160D03*
D38*
X130605360Y-83195160D03*
X130605360Y-82765160D03*
X130605360Y-82335160D03*
X130605360Y-81905160D03*
X130605360Y-81475160D03*
X130605360Y-81045160D03*
X130605360Y-80615160D03*
D40*
X114825600Y-52694800D03*
X114825600Y-53644800D03*
X114825600Y-54594800D03*
X117025600Y-54594800D03*
X117025600Y-52694800D03*
D41*
X151791624Y-59499132D03*
X151791624Y-60769132D03*
X151791624Y-62039132D03*
X151791624Y-63309132D03*
X157379624Y-63309132D03*
X157379624Y-62039132D03*
X157379624Y-60769132D03*
X157379624Y-59499132D03*
D42*
X124841000Y-61747400D03*
X124841000Y-63017400D03*
X124841000Y-64287400D03*
X124841000Y-65557400D03*
X118491000Y-65557400D03*
X118491000Y-64287400D03*
X118491000Y-63017400D03*
X118491000Y-61747400D03*
D40*
X128100000Y-109950000D03*
X128100000Y-109000000D03*
X128100000Y-108050000D03*
X125900000Y-108050000D03*
X125900000Y-109950000D03*
X125900000Y-109000000D03*
X115600000Y-123950000D03*
X115600000Y-123000000D03*
X115600000Y-122050000D03*
X113400000Y-122050000D03*
X113400000Y-123950000D03*
X113400000Y-123000000D03*
D41*
X168111911Y-59602753D03*
X168111911Y-60872753D03*
X168111911Y-62142753D03*
X168111911Y-63412753D03*
X173699911Y-63412753D03*
X173699911Y-62142753D03*
X173699911Y-60872753D03*
X173699911Y-59602753D03*
D43*
X87541100Y-67233800D03*
X86042500Y-67233800D03*
X104449880Y-54785260D03*
X104449880Y-53286660D03*
X106735880Y-54810660D03*
X106735880Y-53312060D03*
X109047280Y-54810660D03*
X109047280Y-53312060D03*
D27*
X155557220Y-99085400D03*
X159555180Y-99085400D03*
X159605980Y-94284800D03*
X155608020Y-94284800D03*
D19*
X128699960Y-78623160D03*
X127199960Y-78623160D03*
D36*
X109047280Y-57630760D03*
X109047280Y-56130760D03*
D19*
X136760520Y-71140320D03*
X138260520Y-71140320D03*
D44*
X99473200Y-64927100D03*
D45*
X99548200Y-51892100D03*
D46*
X97973200Y-57717100D03*
X97973200Y-61717100D03*
X96773200Y-63217100D03*
X96773200Y-62217100D03*
X96773200Y-61217100D03*
X96773200Y-60217100D03*
X96773200Y-59217100D03*
X96773200Y-58217100D03*
X96773200Y-57217100D03*
X96773200Y-56217100D03*
D47*
X84748200Y-63179600D03*
D48*
X84723200Y-61942100D03*
X84723200Y-55592100D03*
D49*
X84748200Y-52454600D03*
D35*
X114896200Y-64287400D03*
X116396200Y-64287400D03*
D50*
X116756800Y-80050200D03*
X116756800Y-81900200D03*
X119056800Y-80050200D03*
X119056800Y-81900200D03*
M02*
