G04 #@! TF.FileFunction,Soldermask,Top*
%FSLAX46Y46*%
G04 Gerber Fmt 4.6, Leading zero omitted, Abs format (unit mm)*
G04 Created by KiCad (PCBNEW 4.0.5) date 03/03/17 18:09:40*
%MOMM*%
%LPD*%
G01*
G04 APERTURE LIST*
%ADD10C,0.100000*%
%ADD11R,0.900000X0.500000*%
%ADD12R,0.500000X0.900000*%
%ADD13O,3.014980X1.506220*%
%ADD14C,6.400000*%
%ADD15O,0.750000X0.300000*%
%ADD16O,0.300000X0.750000*%
%ADD17R,0.900000X0.900000*%
%ADD18R,0.500000X0.350000*%
%ADD19R,1.300000X1.050000*%
%ADD20R,1.060000X0.650000*%
%ADD21R,0.650000X1.060000*%
%ADD22O,0.609600X1.473200*%
%ADD23R,1.450000X0.450000*%
%ADD24R,1.000000X0.700000*%
%ADD25R,0.700000X1.000000*%
%ADD26R,0.250000X1.000000*%
%ADD27R,1.000000X0.250000*%
%ADD28R,1.550000X1.300000*%
%ADD29R,0.800100X0.800100*%
%ADD30R,0.699000X0.508000*%
%ADD31R,0.410000X0.650000*%
%ADD32C,1.700000*%
%ADD33C,3.500000*%
%ADD34R,1.200000X1.700000*%
%ADD35O,1.200000X1.700000*%
%ADD36R,1.700000X1.200000*%
%ADD37O,1.700000X1.200000*%
%ADD38R,1.350000X0.400000*%
%ADD39O,0.950000X1.250000*%
%ADD40O,1.550000X1.000000*%
%ADD41R,7.500000X1.800000*%
%ADD42R,1.800860X2.700020*%
%ADD43R,5.600000X2.300000*%
%ADD44R,0.797560X0.797560*%
%ADD45R,1.000000X1.600000*%
%ADD46R,0.800000X0.750000*%
%ADD47R,1.600000X1.000000*%
%ADD48R,0.500000X0.600000*%
%ADD49R,0.750000X0.800000*%
%ADD50R,0.745000X1.150000*%
%ADD51R,0.950000X0.900000*%
%ADD52R,0.700000X0.750000*%
%ADD53R,1.200000X0.850000*%
%ADD54R,0.650000X0.750000*%
%ADD55R,1.300000X0.850000*%
%ADD56R,1.220000X0.910000*%
%ADD57R,0.711200X0.457200*%
%ADD58R,2.499360X1.800860*%
%ADD59R,0.490000X0.600000*%
%ADD60R,0.600000X0.490000*%
%ADD61R,0.480000X0.600000*%
G04 APERTURE END LIST*
D10*
D11*
X158275000Y-134950000D03*
X158275000Y-133450000D03*
D12*
X139000000Y-127000000D03*
X140500000Y-127000000D03*
D11*
X152750000Y-106925000D03*
X152750000Y-105425000D03*
D13*
X121790000Y-77330000D03*
X121790000Y-74790000D03*
D14*
X189930000Y-134010000D03*
X189930000Y-59010000D03*
X119930000Y-59010000D03*
X119930000Y-134010000D03*
D15*
X131737800Y-102316400D03*
X131737800Y-101816400D03*
X131737800Y-101316400D03*
X131737800Y-100816400D03*
D16*
X131012800Y-100091400D03*
X130512800Y-100091400D03*
X130012800Y-100091400D03*
X129512800Y-100091400D03*
D15*
X128787800Y-100816400D03*
X128787800Y-101316400D03*
X128787800Y-101816400D03*
X128787800Y-102316400D03*
D16*
X129512800Y-103041400D03*
X130012800Y-103041400D03*
X130512800Y-103041400D03*
X131012800Y-103041400D03*
D17*
X129812800Y-101116400D03*
X129812800Y-102016400D03*
X130712800Y-101116400D03*
X130712800Y-102016400D03*
D18*
X119573545Y-116407215D03*
X121623545Y-116407215D03*
X119573545Y-115757215D03*
X121623545Y-115757215D03*
X119573545Y-115107215D03*
X121623545Y-115107215D03*
X119573545Y-114457215D03*
X121623545Y-114457215D03*
D19*
X133481600Y-105772200D03*
X133481600Y-107622200D03*
X135781600Y-105772200D03*
X135781600Y-107622200D03*
D20*
X162601106Y-66296280D03*
X162601106Y-67246280D03*
X162601106Y-68196280D03*
X164801106Y-68196280D03*
X164801106Y-66296280D03*
X164801106Y-67246280D03*
D21*
X170876354Y-74458250D03*
X169926354Y-74458250D03*
X168976354Y-74458250D03*
X168976354Y-76658250D03*
X170876354Y-76658250D03*
X169926354Y-76658250D03*
D22*
X168553300Y-118936600D03*
X167283300Y-118936600D03*
X166013300Y-118936600D03*
X164743300Y-118936600D03*
X164743300Y-124524600D03*
X166013300Y-124524600D03*
X167283300Y-124524600D03*
X168553300Y-124524600D03*
D20*
X179574923Y-59959019D03*
X179574923Y-60909019D03*
X179574923Y-61859019D03*
X181774923Y-61859019D03*
X181774923Y-59959019D03*
D23*
X134829000Y-116622800D03*
X134829000Y-115972800D03*
X134829000Y-115322800D03*
X134829000Y-114672800D03*
X130429000Y-114672800D03*
X130429000Y-115322800D03*
X130429000Y-115972800D03*
X130429000Y-116622800D03*
D24*
X141141800Y-109279400D03*
X143541800Y-109279400D03*
X141141800Y-108329400D03*
X143541800Y-108329400D03*
X141141800Y-107379400D03*
X143541800Y-107379400D03*
D25*
X153572859Y-90215631D03*
X153572859Y-87815631D03*
X152622859Y-90215631D03*
X152622859Y-87815631D03*
X151672859Y-90215631D03*
X151672859Y-87815631D03*
D26*
X148490800Y-92412000D03*
X147990800Y-92412000D03*
X147490800Y-92412000D03*
X146990800Y-92412000D03*
X146490800Y-92412000D03*
X145990800Y-92412000D03*
X145490800Y-92412000D03*
X144990800Y-92412000D03*
X144490800Y-92412000D03*
X143990800Y-92412000D03*
X143490800Y-92412000D03*
X142990800Y-92412000D03*
X142490800Y-92412000D03*
X141990800Y-92412000D03*
X141490800Y-92412000D03*
X140990800Y-92412000D03*
D27*
X139040800Y-94362000D03*
X139040800Y-94862000D03*
X139040800Y-95362000D03*
X139040800Y-95862000D03*
X139040800Y-96362000D03*
X139040800Y-96862000D03*
X139040800Y-97362000D03*
X139040800Y-97862000D03*
X139040800Y-98362000D03*
X139040800Y-98862000D03*
X139040800Y-99362000D03*
X139040800Y-99862000D03*
X139040800Y-100362000D03*
X139040800Y-100862000D03*
X139040800Y-101362000D03*
X139040800Y-101862000D03*
D26*
X140990800Y-103812000D03*
X141490800Y-103812000D03*
X141990800Y-103812000D03*
X142490800Y-103812000D03*
X142990800Y-103812000D03*
X143490800Y-103812000D03*
X143990800Y-103812000D03*
X144490800Y-103812000D03*
X144990800Y-103812000D03*
X145490800Y-103812000D03*
X145990800Y-103812000D03*
X146490800Y-103812000D03*
X146990800Y-103812000D03*
X147490800Y-103812000D03*
X147990800Y-103812000D03*
X148490800Y-103812000D03*
D27*
X150440800Y-101862000D03*
X150440800Y-101362000D03*
X150440800Y-100862000D03*
X150440800Y-100362000D03*
X150440800Y-99862000D03*
X150440800Y-99362000D03*
X150440800Y-98862000D03*
X150440800Y-98362000D03*
X150440800Y-97862000D03*
X150440800Y-97362000D03*
X150440800Y-96862000D03*
X150440800Y-96362000D03*
X150440800Y-95862000D03*
X150440800Y-95362000D03*
X150440800Y-94862000D03*
X150440800Y-94362000D03*
D25*
X122200800Y-92949600D03*
X122200800Y-95349600D03*
X123150800Y-92949600D03*
X123150800Y-95349600D03*
X124100800Y-92949600D03*
X124100800Y-95349600D03*
D13*
X188855000Y-65046000D03*
X188855000Y-67586000D03*
X188855000Y-70215000D03*
X188855000Y-72755000D03*
X188849400Y-75363800D03*
X188849400Y-77903800D03*
D28*
X117900873Y-80317200D03*
X125850873Y-80317200D03*
X117900873Y-84817200D03*
X125850873Y-84817200D03*
X117900873Y-101793429D03*
X125850873Y-101793429D03*
X117900873Y-106293429D03*
X125850873Y-106293429D03*
D11*
X138909600Y-77968600D03*
X138909600Y-76468600D03*
X156181600Y-73625200D03*
X156181600Y-72125200D03*
X146250200Y-73472800D03*
X146250200Y-71972800D03*
D12*
X142909400Y-81206400D03*
X144409400Y-81206400D03*
D11*
X154073400Y-73599800D03*
X154073400Y-72099800D03*
D12*
X166673706Y-63326166D03*
X168173706Y-63326166D03*
D11*
X149269845Y-68784439D03*
X149269845Y-67284439D03*
D12*
X168173706Y-65426166D03*
X166673706Y-65426166D03*
D11*
X166623706Y-67376166D03*
X166623706Y-68876166D03*
D12*
X169826354Y-78358250D03*
X168326354Y-78358250D03*
D11*
X171276354Y-80508250D03*
X171276354Y-79008250D03*
X173076354Y-79008250D03*
X173076354Y-80508250D03*
D12*
X139000000Y-132750000D03*
X140500000Y-132750000D03*
D11*
X175647600Y-105961000D03*
X175647600Y-104461000D03*
X175647200Y-96756200D03*
X175647200Y-95256200D03*
X175622200Y-87675200D03*
X175622200Y-86175200D03*
D12*
X167423700Y-129439500D03*
X165923700Y-129439500D03*
X165683800Y-126899500D03*
X164183800Y-126899500D03*
X169163600Y-126950300D03*
X167663600Y-126950300D03*
X180074923Y-63634019D03*
X181574923Y-63634019D03*
D11*
X183505000Y-67596000D03*
X183505000Y-66096000D03*
X183430000Y-72735000D03*
X183430000Y-71235000D03*
X183755000Y-77974000D03*
X183755000Y-76474000D03*
X138633400Y-109511200D03*
X138633400Y-108011200D03*
D12*
X154137859Y-92377431D03*
X152637859Y-92377431D03*
X156530000Y-97910000D03*
X158030000Y-97910000D03*
X156530000Y-96160000D03*
X158030000Y-96160000D03*
X156530000Y-94410000D03*
X158030000Y-94410000D03*
X141136000Y-111910800D03*
X139636000Y-111910800D03*
X143547600Y-111910800D03*
X145047600Y-111910800D03*
D11*
X155930000Y-87810000D03*
X155930000Y-86310000D03*
X155937859Y-90210000D03*
X155937859Y-91710000D03*
D12*
X128345800Y-92905000D03*
X126845800Y-92905000D03*
X128281600Y-95368800D03*
X126781600Y-95368800D03*
X123150800Y-90847600D03*
X121650800Y-90847600D03*
X121626800Y-88917200D03*
X123126800Y-88917200D03*
D29*
X145422160Y-78270200D03*
X145422160Y-76370200D03*
X143423180Y-77320200D03*
D30*
X152066800Y-78981600D03*
X152066800Y-77980600D03*
X152066800Y-76979600D03*
X149712800Y-78981600D03*
X149712800Y-77971600D03*
X149712800Y-76979600D03*
D31*
X179161400Y-106497400D03*
X179161400Y-104465400D03*
X178511400Y-106497400D03*
X178511400Y-104465400D03*
X177861400Y-106497400D03*
X177861400Y-104465400D03*
X177211400Y-106497400D03*
X177211400Y-104465400D03*
X179200200Y-97302000D03*
X179200200Y-95270000D03*
X178550200Y-97302000D03*
X178550200Y-95270000D03*
X177900200Y-97302000D03*
X177900200Y-95270000D03*
X177250200Y-97302000D03*
X177250200Y-95270000D03*
X179160600Y-88202200D03*
X179160600Y-86170200D03*
X178510600Y-88202200D03*
X178510600Y-86170200D03*
X177860600Y-88202200D03*
X177860600Y-86170200D03*
X177210600Y-88202200D03*
X177210600Y-86170200D03*
D29*
X138800000Y-130750760D03*
X140700000Y-130750760D03*
X139750000Y-128751780D03*
D32*
X124880000Y-67010000D03*
X124880000Y-70510000D03*
D33*
X116970000Y-68760000D03*
D32*
X183378000Y-104877200D03*
X183378000Y-101377200D03*
D33*
X191288000Y-103127200D03*
D32*
X183363200Y-95711200D03*
X183363200Y-92211200D03*
D33*
X191273200Y-93961200D03*
D32*
X183352600Y-86561400D03*
X183352600Y-83061400D03*
D33*
X191262600Y-84811400D03*
D34*
X181628700Y-134226200D03*
D35*
X179628700Y-134226200D03*
X177628700Y-134226200D03*
X175628700Y-134226200D03*
D34*
X169657700Y-134163900D03*
D35*
X167657700Y-134163900D03*
X165657700Y-134163900D03*
X163657700Y-134163900D03*
D36*
X191454800Y-121152200D03*
D37*
X191454800Y-123152200D03*
X191454800Y-125152200D03*
X191454800Y-127152200D03*
D36*
X191504800Y-110052200D03*
D37*
X191504800Y-112052200D03*
X191504800Y-114052200D03*
X191504800Y-116052200D03*
D38*
X117931540Y-92721700D03*
X117931540Y-93371700D03*
X117931540Y-94021700D03*
X117931540Y-94671700D03*
X117931540Y-95321700D03*
D39*
X117931540Y-91521700D03*
X117931540Y-96521700D03*
D40*
X115231540Y-90521700D03*
X115231540Y-97521700D03*
D41*
X156423706Y-67226166D03*
X156423706Y-61626166D03*
D42*
X174676654Y-71058250D03*
X169876054Y-71058250D03*
D43*
X133180000Y-66110000D03*
X133180000Y-73510000D03*
D44*
X159930700Y-97910000D03*
X161429300Y-97910000D03*
X159930700Y-96160000D03*
X161429300Y-96160000D03*
X159930700Y-94410000D03*
X161429300Y-94410000D03*
X125754300Y-88917200D03*
X127252900Y-88917200D03*
D45*
X146302400Y-69243000D03*
X143302400Y-69243000D03*
X162223706Y-61526166D03*
X165223706Y-61526166D03*
D46*
X163173706Y-64426166D03*
X164673706Y-64426166D03*
D47*
X155495800Y-78871000D03*
X155495800Y-75871000D03*
X151762000Y-73307000D03*
X151762000Y-70307000D03*
D45*
X165623706Y-70926166D03*
X162623706Y-70926166D03*
D47*
X166076354Y-77458250D03*
X166076354Y-74458250D03*
D48*
X172376354Y-75008250D03*
X172376354Y-76108250D03*
D47*
X174676354Y-74258250D03*
X174676354Y-77258250D03*
D49*
X128107800Y-116321600D03*
X128107800Y-114821600D03*
D46*
X140500000Y-137000000D03*
X139000000Y-137000000D03*
X140500000Y-134750000D03*
X139000000Y-134750000D03*
D49*
X170826600Y-124499900D03*
X170826600Y-122999900D03*
X131473500Y-124698500D03*
X131473500Y-126198500D03*
X183490000Y-61860000D03*
X183490000Y-60360000D03*
X133759500Y-124698500D03*
X133759500Y-126198500D03*
X127231700Y-124698500D03*
X127231700Y-126198500D03*
D46*
X136057500Y-122171900D03*
X137557500Y-122171900D03*
X124040808Y-115715750D03*
X125540808Y-115715750D03*
X124053508Y-113963150D03*
X125553508Y-113963150D03*
X136143600Y-94327400D03*
X134643600Y-94327400D03*
D49*
X141972200Y-89921200D03*
X141972200Y-88421200D03*
D46*
X135915000Y-100880600D03*
X134415000Y-100880600D03*
D49*
X147509400Y-89946600D03*
X147509400Y-88446600D03*
X148474600Y-106353600D03*
X148474600Y-107853600D03*
D46*
X135915000Y-102379200D03*
X134415000Y-102379200D03*
D49*
X129797100Y-124698500D03*
X129797100Y-126198500D03*
D25*
X155050000Y-103025000D03*
X155050000Y-105425000D03*
X156000000Y-103025000D03*
X156000000Y-105425000D03*
X156950000Y-103025000D03*
X156950000Y-105425000D03*
D50*
X143249000Y-137634200D03*
D51*
X156284000Y-137709200D03*
D52*
X150459000Y-136134200D03*
X146459000Y-136134200D03*
X144959000Y-134934200D03*
X145959000Y-134934200D03*
X146959000Y-134934200D03*
X147959000Y-134934200D03*
X148959000Y-134934200D03*
X149959000Y-134934200D03*
X150959000Y-134934200D03*
X151959000Y-134934200D03*
D53*
X144996500Y-122909200D03*
D54*
X146234000Y-122884200D03*
X152584000Y-122884200D03*
D55*
X155721500Y-122909200D03*
D56*
X149269845Y-73352439D03*
X149269845Y-70082439D03*
X140916200Y-78022000D03*
X140916200Y-81292000D03*
D57*
X158112000Y-72249600D03*
X158112000Y-73570400D03*
X160144000Y-72910000D03*
D58*
X142932960Y-73510200D03*
X138935000Y-73510200D03*
D59*
X130928700Y-122147300D03*
D60*
X130928700Y-121567300D03*
X130928700Y-121137300D03*
X130928700Y-120707300D03*
X130928700Y-120277300D03*
D61*
X130928700Y-119697300D03*
X131358700Y-119697300D03*
X131788700Y-119697300D03*
X132218700Y-119697300D03*
X132648700Y-119697300D03*
X133078700Y-119697300D03*
X133508700Y-119697300D03*
X133938700Y-119697300D03*
D60*
X133938700Y-120277300D03*
X133938700Y-120707300D03*
X133938700Y-121137300D03*
X133938700Y-121567300D03*
D61*
X133938700Y-122147300D03*
X133508700Y-122147300D03*
D59*
X133078700Y-122147300D03*
X132648700Y-122147300D03*
X132218700Y-122147300D03*
X131788700Y-122147300D03*
X131358700Y-122147300D03*
M02*
