G04 #@! TF.FileFunction,Other,User*
%FSLAX46Y46*%
G04 Gerber Fmt 4.6, Leading zero omitted, Abs format (unit mm)*
G04 Created by KiCad (PCBNEW 4.0.2-stable) date 4/8/2016 7:07:07 PM*
%MOMM*%
G01*
G04 APERTURE LIST*
%ADD10C,0.100000*%
%ADD11C,0.050000*%
G04 APERTURE END LIST*
D10*
D11*
X103328800Y-65635200D02*
X103328800Y-78535200D01*
X116228800Y-65635200D02*
X116228800Y-78535200D01*
X103328800Y-65635200D02*
X116228800Y-65635200D01*
X103328800Y-78535200D02*
X116228800Y-78535200D01*
X95969600Y-87151200D02*
X95969600Y-97151200D01*
X95969600Y-97151200D02*
X103369600Y-97151200D01*
X103369600Y-97151200D02*
X103369600Y-87151200D01*
X103369600Y-87151200D02*
X95969600Y-87151200D01*
X114878800Y-94965200D02*
X114878800Y-84765200D01*
X104678800Y-94965200D02*
X104678800Y-84765200D01*
X114878800Y-94965200D02*
X104678800Y-94965200D01*
X114878800Y-84765200D02*
X104678800Y-84765200D01*
X128890160Y-70255520D02*
X128890160Y-73955520D01*
X135290160Y-70255520D02*
X135290160Y-73955520D01*
X128890160Y-70255520D02*
X135290160Y-70255520D01*
X128890160Y-73955520D02*
X135290160Y-73955520D01*
X119631800Y-67576000D02*
X122531800Y-67576000D01*
X119631800Y-69076000D02*
X122531800Y-69076000D01*
X119631800Y-67576000D02*
X119631800Y-69076000D01*
X122531800Y-67576000D02*
X122531800Y-69076000D01*
X113424400Y-79677600D02*
X113424400Y-82577600D01*
X111924400Y-79677600D02*
X111924400Y-82577600D01*
X113424400Y-79677600D02*
X111924400Y-79677600D01*
X113424400Y-82577600D02*
X111924400Y-82577600D01*
X116118980Y-90291220D02*
X119018980Y-90291220D01*
X116118980Y-91791220D02*
X119018980Y-91791220D01*
X116118980Y-90291220D02*
X116118980Y-91791220D01*
X119018980Y-90291220D02*
X119018980Y-91791220D01*
X100697600Y-70042700D02*
X100697600Y-67142700D01*
X102197600Y-70042700D02*
X102197600Y-67142700D01*
X100697600Y-70042700D02*
X102197600Y-70042700D01*
X100697600Y-67142700D02*
X102197600Y-67142700D01*
X102491200Y-75121200D02*
X99591200Y-75121200D01*
X102491200Y-73621200D02*
X99591200Y-73621200D01*
X102491200Y-75121200D02*
X102491200Y-73621200D01*
X99591200Y-75121200D02*
X99591200Y-73621200D01*
X106769600Y-78966400D02*
X106769600Y-81866400D01*
X105269600Y-78966400D02*
X105269600Y-81866400D01*
X106769600Y-78966400D02*
X105269600Y-78966400D01*
X106769600Y-81866400D02*
X105269600Y-81866400D01*
X135085160Y-76933360D02*
X137985160Y-76933360D01*
X135085160Y-78433360D02*
X137985160Y-78433360D01*
X135085160Y-76933360D02*
X135085160Y-78433360D01*
X137985160Y-76933360D02*
X137985160Y-78433360D01*
X135085160Y-74571160D02*
X137985160Y-74571160D01*
X135085160Y-76071160D02*
X137985160Y-76071160D01*
X135085160Y-74571160D02*
X135085160Y-76071160D01*
X137985160Y-74571160D02*
X137985160Y-76071160D01*
X130310320Y-84544240D02*
X130310320Y-87444240D01*
X128810320Y-84544240D02*
X128810320Y-87444240D01*
X130310320Y-84544240D02*
X128810320Y-84544240D01*
X130310320Y-87444240D02*
X128810320Y-87444240D01*
X129420280Y-80937800D02*
X126520280Y-80937800D01*
X129420280Y-79437800D02*
X126520280Y-79437800D01*
X129420280Y-80937800D02*
X129420280Y-79437800D01*
X126520280Y-80937800D02*
X126520280Y-79437800D01*
X117578800Y-56985600D02*
X114678800Y-56985600D01*
X117578800Y-55485600D02*
X114678800Y-55485600D01*
X117578800Y-56985600D02*
X117578800Y-55485600D01*
X114678800Y-56985600D02*
X114678800Y-55485600D01*
X129430440Y-82492280D02*
X126530440Y-82492280D01*
X129430440Y-80992280D02*
X126530440Y-80992280D01*
X129430440Y-82492280D02*
X129430440Y-80992280D01*
X126530440Y-82492280D02*
X126530440Y-80992280D01*
X129430440Y-84046760D02*
X126530440Y-84046760D01*
X129430440Y-82546760D02*
X126530440Y-82546760D01*
X129430440Y-84046760D02*
X129430440Y-82546760D01*
X126530440Y-84046760D02*
X126530440Y-82546760D01*
X165406111Y-62983153D02*
X165406111Y-60083153D01*
X166906111Y-62983153D02*
X166906111Y-60083153D01*
X165406111Y-62983153D02*
X166906111Y-62983153D01*
X165406111Y-60083153D02*
X166906111Y-60083153D01*
X156035624Y-58814032D02*
X153135624Y-58814032D01*
X156035624Y-57314032D02*
X153135624Y-57314032D01*
X156035624Y-58814032D02*
X156035624Y-57314032D01*
X153135624Y-58814032D02*
X153135624Y-57314032D01*
X103415760Y-59154760D02*
X100515760Y-59154760D01*
X103415760Y-57654760D02*
X100515760Y-57654760D01*
X103415760Y-59154760D02*
X103415760Y-57654760D01*
X100515760Y-59154760D02*
X100515760Y-57654760D01*
X103436080Y-60772740D02*
X100536080Y-60772740D01*
X103436080Y-59272740D02*
X100536080Y-59272740D01*
X103436080Y-60772740D02*
X103436080Y-59272740D01*
X100536080Y-60772740D02*
X100536080Y-59272740D01*
X126616800Y-63537400D02*
X129516800Y-63537400D01*
X126616800Y-65037400D02*
X129516800Y-65037400D01*
X126616800Y-63537400D02*
X126616800Y-65037400D01*
X129516800Y-63537400D02*
X129516800Y-65037400D01*
X138650000Y-103200000D02*
X138650000Y-107800000D01*
X136350000Y-103200000D02*
X136350000Y-107800000D01*
X138650000Y-103200000D02*
X136350000Y-103200000D01*
X138650000Y-107800000D02*
X136350000Y-107800000D01*
X131650000Y-113100000D02*
X129350000Y-113100000D01*
X131650000Y-111900000D02*
X129350000Y-111900000D01*
X131650000Y-113100000D02*
X131650000Y-111900000D01*
X129350000Y-113100000D02*
X129350000Y-111900000D01*
X129350000Y-111300000D02*
X129350000Y-106700000D01*
X131650000Y-111300000D02*
X131650000Y-106700000D01*
X129350000Y-111300000D02*
X131650000Y-111300000D01*
X129350000Y-106700000D02*
X131650000Y-106700000D01*
X117350000Y-125300000D02*
X117350000Y-120700000D01*
X119650000Y-125300000D02*
X119650000Y-120700000D01*
X117350000Y-125300000D02*
X119650000Y-125300000D01*
X117350000Y-120700000D02*
X119650000Y-120700000D01*
X134700000Y-121350000D02*
X139300000Y-121350000D01*
X134700000Y-123650000D02*
X139300000Y-123650000D01*
X134700000Y-121350000D02*
X134700000Y-123650000D01*
X139300000Y-121350000D02*
X139300000Y-123650000D01*
X142650000Y-121200000D02*
X142650000Y-125800000D01*
X140350000Y-121200000D02*
X140350000Y-125800000D01*
X142650000Y-121200000D02*
X140350000Y-121200000D01*
X142650000Y-125800000D02*
X140350000Y-125800000D01*
X117950000Y-127750000D02*
X115050000Y-127750000D01*
X117950000Y-126250000D02*
X115050000Y-126250000D01*
X117950000Y-127750000D02*
X117950000Y-126250000D01*
X115050000Y-127750000D02*
X115050000Y-126250000D01*
X122300000Y-119150000D02*
X117700000Y-119150000D01*
X122300000Y-116850000D02*
X117700000Y-116850000D01*
X122300000Y-119150000D02*
X122300000Y-116850000D01*
X117700000Y-119150000D02*
X117700000Y-116850000D01*
X148139800Y-119569200D02*
X148139800Y-124169200D01*
X145839800Y-119569200D02*
X145839800Y-124169200D01*
X148139800Y-119569200D02*
X145839800Y-119569200D01*
X148139800Y-124169200D02*
X145839800Y-124169200D01*
X134750000Y-118450000D02*
X139250000Y-118450000D01*
X139250000Y-118450000D02*
X139250000Y-120550000D01*
X139250000Y-120550000D02*
X134750000Y-120550000D01*
X134750000Y-118450000D02*
X134750000Y-120550000D01*
X133550000Y-115250000D02*
X133550000Y-119750000D01*
X133550000Y-119750000D02*
X131450000Y-119750000D01*
X131450000Y-119750000D02*
X131450000Y-115250000D01*
X133550000Y-115250000D02*
X131450000Y-115250000D01*
X147000000Y-113500000D02*
X140000000Y-113500000D01*
X140000000Y-113500000D02*
X140000000Y-109500000D01*
X140000000Y-109500000D02*
X147000000Y-109500000D01*
X147000000Y-109500000D02*
X147000000Y-113500000D01*
X146800000Y-109600000D02*
X140200000Y-109600000D01*
X146800000Y-99400000D02*
X140200000Y-99400000D01*
X140200000Y-99400000D02*
X140200000Y-109600000D01*
X146800000Y-99400000D02*
X146800000Y-109600000D01*
X89363200Y-68272600D02*
X89363200Y-77472600D01*
X89363200Y-77472600D02*
X82513200Y-77472600D01*
X82513200Y-77472600D02*
X82513200Y-68272600D01*
X82513200Y-68272600D02*
X89363200Y-68272600D01*
X166038800Y-100279000D02*
X162738800Y-100279000D01*
X162738800Y-100279000D02*
X162738800Y-97079000D01*
X162738800Y-97079000D02*
X166038800Y-97079000D01*
X166038800Y-97079000D02*
X166038800Y-100279000D01*
X148895800Y-92989600D02*
X152195800Y-92989600D01*
X152195800Y-92989600D02*
X152195800Y-96189600D01*
X152195800Y-96189600D02*
X148895800Y-96189600D01*
X148895800Y-96189600D02*
X148895800Y-92989600D01*
X100457200Y-64286400D02*
X100457200Y-60986400D01*
X100457200Y-60986400D02*
X103657200Y-60986400D01*
X103657200Y-60986400D02*
X103657200Y-64286400D01*
X103657200Y-64286400D02*
X100457200Y-64286400D01*
X121350000Y-110900000D02*
X124650000Y-110900000D01*
X124650000Y-110900000D02*
X124650000Y-114100000D01*
X124650000Y-114100000D02*
X121350000Y-114100000D01*
X121350000Y-114100000D02*
X121350000Y-110900000D01*
X108350000Y-123900000D02*
X111650000Y-123900000D01*
X111650000Y-123900000D02*
X111650000Y-127100000D01*
X111650000Y-127100000D02*
X108350000Y-127100000D01*
X108350000Y-127100000D02*
X108350000Y-123900000D01*
X138600000Y-114350000D02*
X138600000Y-117650000D01*
X138600000Y-117650000D02*
X135400000Y-117650000D01*
X135400000Y-117650000D02*
X135400000Y-114350000D01*
X135400000Y-114350000D02*
X138600000Y-114350000D01*
X90885800Y-68008400D02*
X88285800Y-68008400D01*
X90885800Y-66408400D02*
X88285800Y-66408400D01*
X90885800Y-68008400D02*
X90885800Y-66408400D01*
X88285800Y-68008400D02*
X88285800Y-66408400D01*
X94111600Y-69532400D02*
X91511600Y-69532400D01*
X94111600Y-67932400D02*
X91511600Y-67932400D01*
X94111600Y-69532400D02*
X94111600Y-67932400D01*
X91511600Y-69532400D02*
X91511600Y-67932400D01*
X98226400Y-74206000D02*
X95626400Y-74206000D01*
X98226400Y-72606000D02*
X95626400Y-72606000D01*
X98226400Y-74206000D02*
X98226400Y-72606000D01*
X95626400Y-74206000D02*
X95626400Y-72606000D01*
X98226400Y-72504200D02*
X95626400Y-72504200D01*
X98226400Y-70904200D02*
X95626400Y-70904200D01*
X98226400Y-72504200D02*
X98226400Y-70904200D01*
X95626400Y-72504200D02*
X95626400Y-70904200D01*
X142636140Y-58194420D02*
X142636140Y-60794420D01*
X141036140Y-58194420D02*
X141036140Y-60794420D01*
X142636140Y-58194420D02*
X141036140Y-58194420D01*
X142636140Y-60794420D02*
X141036140Y-60794420D01*
X145275200Y-58194420D02*
X145275200Y-60794420D01*
X143675200Y-58194420D02*
X143675200Y-60794420D01*
X145275200Y-58194420D02*
X143675200Y-58194420D01*
X145275200Y-60794420D02*
X143675200Y-60794420D01*
X119519800Y-73207400D02*
X119519800Y-70607400D01*
X121119800Y-73207400D02*
X121119800Y-70607400D01*
X119519800Y-73207400D02*
X121119800Y-73207400D01*
X119519800Y-70607400D02*
X121119800Y-70607400D01*
X121119800Y-73299800D02*
X121119800Y-75899800D01*
X119519800Y-73299800D02*
X119519800Y-75899800D01*
X121119800Y-73299800D02*
X119519800Y-73299800D01*
X121119800Y-75899800D02*
X119519800Y-75899800D01*
X103649880Y-58155360D02*
X103649880Y-55555360D01*
X105249880Y-58155360D02*
X105249880Y-55555360D01*
X103649880Y-58155360D02*
X105249880Y-58155360D01*
X103649880Y-55555360D02*
X105249880Y-55555360D01*
X105935880Y-58180760D02*
X105935880Y-55580760D01*
X107535880Y-58180760D02*
X107535880Y-55580760D01*
X105935880Y-58180760D02*
X107535880Y-58180760D01*
X105935880Y-55580760D02*
X107535880Y-55580760D01*
X92514900Y-66040100D02*
X95114900Y-66040100D01*
X92514900Y-67640100D02*
X95114900Y-67640100D01*
X92514900Y-66040100D02*
X92514900Y-67640100D01*
X95114900Y-66040100D02*
X95114900Y-67640100D01*
X121803640Y-75521920D02*
X124403640Y-75521920D01*
X121803640Y-77121920D02*
X124403640Y-77121920D01*
X121803640Y-75521920D02*
X121803640Y-77121920D01*
X124403640Y-75521920D02*
X124403640Y-77121920D01*
X124277600Y-58534400D02*
X126877600Y-58534400D01*
X124277600Y-60134400D02*
X126877600Y-60134400D01*
X124277600Y-58534400D02*
X124277600Y-60134400D01*
X126877600Y-58534400D02*
X126877600Y-60134400D01*
X129967200Y-58534400D02*
X132567200Y-58534400D01*
X129967200Y-60134400D02*
X132567200Y-60134400D01*
X129967200Y-58534400D02*
X129967200Y-60134400D01*
X132567200Y-58534400D02*
X132567200Y-60134400D01*
X135606000Y-58534400D02*
X138206000Y-58534400D01*
X135606000Y-60134400D02*
X138206000Y-60134400D01*
X135606000Y-58534400D02*
X135606000Y-60134400D01*
X138206000Y-58534400D02*
X138206000Y-60134400D01*
X119773600Y-52446400D02*
X119773600Y-55046400D01*
X118173600Y-52446400D02*
X118173600Y-55046400D01*
X119773600Y-52446400D02*
X118173600Y-52446400D01*
X119773600Y-55046400D02*
X118173600Y-55046400D01*
X172358311Y-58523153D02*
X169758311Y-58523153D01*
X172358311Y-56923153D02*
X169758311Y-56923153D01*
X172358311Y-58523153D02*
X172358311Y-56923153D01*
X169758311Y-58523153D02*
X169758311Y-56923153D01*
X165714200Y-96710400D02*
X163114200Y-96710400D01*
X165714200Y-95110400D02*
X163114200Y-95110400D01*
X165714200Y-96710400D02*
X165714200Y-95110400D01*
X163114200Y-96710400D02*
X163114200Y-95110400D01*
X160465624Y-58719832D02*
X160465624Y-61319832D01*
X158865624Y-58719832D02*
X158865624Y-61319832D01*
X160465624Y-58719832D02*
X158865624Y-58719832D01*
X160465624Y-61319832D02*
X158865624Y-61319832D01*
X160465624Y-61488432D02*
X160465624Y-64088432D01*
X158865624Y-61488432D02*
X158865624Y-64088432D01*
X160465624Y-61488432D02*
X158865624Y-61488432D01*
X160465624Y-64088432D02*
X158865624Y-64088432D01*
X175179200Y-57645400D02*
X177779200Y-57645400D01*
X175179200Y-59245400D02*
X177779200Y-59245400D01*
X175179200Y-57645400D02*
X175179200Y-59245400D01*
X177779200Y-57645400D02*
X177779200Y-59245400D01*
X164028600Y-57213600D02*
X166628600Y-57213600D01*
X164028600Y-58813600D02*
X166628600Y-58813600D01*
X164028600Y-57213600D02*
X164028600Y-58813600D01*
X166628600Y-57213600D02*
X166628600Y-58813600D01*
X149220400Y-96532800D02*
X151820400Y-96532800D01*
X149220400Y-98132800D02*
X151820400Y-98132800D01*
X149220400Y-96532800D02*
X149220400Y-98132800D01*
X151820400Y-96532800D02*
X151820400Y-98132800D01*
X171348500Y-69333900D02*
X171348500Y-66733900D01*
X172948500Y-69333900D02*
X172948500Y-66733900D01*
X171348500Y-69333900D02*
X172948500Y-69333900D01*
X171348500Y-66733900D02*
X172948500Y-66733900D01*
X171475500Y-82237100D02*
X171475500Y-79637100D01*
X173075500Y-82237100D02*
X173075500Y-79637100D01*
X171475500Y-82237100D02*
X173075500Y-82237100D01*
X171475500Y-79637100D02*
X173075500Y-79637100D01*
X171386600Y-95419700D02*
X171386600Y-92819700D01*
X172986600Y-95419700D02*
X172986600Y-92819700D01*
X171386600Y-95419700D02*
X172986600Y-95419700D01*
X171386600Y-92819700D02*
X172986600Y-92819700D01*
X103980080Y-63903380D02*
X103980080Y-61303380D01*
X105580080Y-63903380D02*
X105580080Y-61303380D01*
X103980080Y-63903380D02*
X105580080Y-63903380D01*
X103980080Y-61303380D02*
X105580080Y-61303380D01*
X131800000Y-105300000D02*
X129200000Y-105300000D01*
X131800000Y-103700000D02*
X129200000Y-103700000D01*
X131800000Y-105300000D02*
X131800000Y-103700000D01*
X129200000Y-105300000D02*
X129200000Y-103700000D01*
X128800000Y-105300000D02*
X126200000Y-105300000D01*
X128800000Y-103700000D02*
X126200000Y-103700000D01*
X128800000Y-105300000D02*
X128800000Y-103700000D01*
X126200000Y-105300000D02*
X126200000Y-103700000D01*
X122200000Y-109300000D02*
X122200000Y-106700000D01*
X123800000Y-109300000D02*
X123800000Y-106700000D01*
X122200000Y-109300000D02*
X123800000Y-109300000D01*
X122200000Y-106700000D02*
X123800000Y-106700000D01*
X121800000Y-106700000D02*
X121800000Y-109300000D01*
X120200000Y-106700000D02*
X120200000Y-109300000D01*
X121800000Y-106700000D02*
X120200000Y-106700000D01*
X121800000Y-109300000D02*
X120200000Y-109300000D01*
X110300000Y-122800000D02*
X107700000Y-122800000D01*
X110300000Y-121200000D02*
X107700000Y-121200000D01*
X110300000Y-122800000D02*
X110300000Y-121200000D01*
X107700000Y-122800000D02*
X107700000Y-121200000D01*
X107700000Y-118700000D02*
X110300000Y-118700000D01*
X107700000Y-120300000D02*
X110300000Y-120300000D01*
X107700000Y-118700000D02*
X107700000Y-120300000D01*
X110300000Y-118700000D02*
X110300000Y-120300000D01*
X113800000Y-120300000D02*
X111200000Y-120300000D01*
X113800000Y-118700000D02*
X111200000Y-118700000D01*
X113800000Y-120300000D02*
X113800000Y-118700000D01*
X111200000Y-120300000D02*
X111200000Y-118700000D01*
X150800000Y-126200000D02*
X150800000Y-128800000D01*
X149200000Y-126200000D02*
X149200000Y-128800000D01*
X150800000Y-126200000D02*
X149200000Y-126200000D01*
X150800000Y-128800000D02*
X149200000Y-128800000D01*
X116800000Y-120300000D02*
X114200000Y-120300000D01*
X116800000Y-118700000D02*
X114200000Y-118700000D01*
X116800000Y-120300000D02*
X116800000Y-118700000D01*
X114200000Y-120300000D02*
X114200000Y-118700000D01*
X144800000Y-121200000D02*
X144800000Y-123800000D01*
X143200000Y-121200000D02*
X143200000Y-123800000D01*
X144800000Y-121200000D02*
X143200000Y-121200000D01*
X144800000Y-123800000D02*
X143200000Y-123800000D01*
X133300000Y-120700000D02*
X133300000Y-123300000D01*
X131700000Y-120700000D02*
X131700000Y-123300000D01*
X133300000Y-120700000D02*
X131700000Y-120700000D01*
X133300000Y-123300000D02*
X131700000Y-123300000D01*
X147800000Y-116200000D02*
X147800000Y-118800000D01*
X146200000Y-116200000D02*
X146200000Y-118800000D01*
X147800000Y-116200000D02*
X146200000Y-116200000D01*
X147800000Y-118800000D02*
X146200000Y-118800000D01*
X143200000Y-127300000D02*
X143200000Y-124700000D01*
X144800000Y-127300000D02*
X144800000Y-124700000D01*
X143200000Y-127300000D02*
X144800000Y-127300000D01*
X143200000Y-124700000D02*
X144800000Y-124700000D01*
X137200000Y-113300000D02*
X137200000Y-110700000D01*
X138800000Y-113300000D02*
X138800000Y-110700000D01*
X137200000Y-113300000D02*
X138800000Y-113300000D01*
X137200000Y-110700000D02*
X138800000Y-110700000D01*
X114125600Y-52044800D02*
X117725600Y-52044800D01*
X117725600Y-52044800D02*
X117725600Y-55244800D01*
X117725600Y-55244800D02*
X114125600Y-55244800D01*
X114125600Y-55244800D02*
X114125600Y-52044800D01*
X88191800Y-66483800D02*
X88191800Y-67983800D01*
X88191800Y-67983800D02*
X85391800Y-67983800D01*
X85391800Y-67983800D02*
X85391800Y-66483800D01*
X85391800Y-66483800D02*
X88191800Y-66483800D01*
X105199880Y-55435960D02*
X103699880Y-55435960D01*
X103699880Y-55435960D02*
X103699880Y-52635960D01*
X103699880Y-52635960D02*
X105199880Y-52635960D01*
X105199880Y-52635960D02*
X105199880Y-55435960D01*
X107485880Y-55461360D02*
X105985880Y-55461360D01*
X105985880Y-55461360D02*
X105985880Y-52661360D01*
X105985880Y-52661360D02*
X107485880Y-52661360D01*
X107485880Y-52661360D02*
X107485880Y-55461360D01*
X109797280Y-55461360D02*
X108297280Y-55461360D01*
X108297280Y-55461360D02*
X108297280Y-52661360D01*
X108297280Y-52661360D02*
X109797280Y-52661360D01*
X109797280Y-52661360D02*
X109797280Y-55461360D01*
X154056200Y-97085400D02*
X161056200Y-97085400D01*
X161056200Y-97085400D02*
X161056200Y-101085400D01*
X161056200Y-101085400D02*
X154056200Y-101085400D01*
X154056200Y-101085400D02*
X154056200Y-97085400D01*
X161107000Y-96284800D02*
X154107000Y-96284800D01*
X154107000Y-96284800D02*
X154107000Y-92284800D01*
X154107000Y-92284800D02*
X161107000Y-92284800D01*
X161107000Y-92284800D02*
X161107000Y-96284800D01*
X129399960Y-79373160D02*
X126499960Y-79373160D01*
X129399960Y-77873160D02*
X126499960Y-77873160D01*
X129399960Y-79373160D02*
X129399960Y-77873160D01*
X126499960Y-79373160D02*
X126499960Y-77873160D01*
X108247280Y-58180760D02*
X108247280Y-55580760D01*
X109847280Y-58180760D02*
X109847280Y-55580760D01*
X108247280Y-58180760D02*
X109847280Y-58180760D01*
X108247280Y-55580760D02*
X109847280Y-55580760D01*
X136060520Y-70390320D02*
X138960520Y-70390320D01*
X136060520Y-71890320D02*
X138960520Y-71890320D01*
X136060520Y-70390320D02*
X136060520Y-71890320D01*
X138960520Y-70390320D02*
X138960520Y-71890320D01*
X137796100Y-56754300D02*
X137796100Y-51254300D01*
X137796100Y-51254300D02*
X148696100Y-51254300D01*
X148696100Y-51254300D02*
X148696100Y-56754300D01*
X148696100Y-56754300D02*
X137796100Y-56754300D01*
X148845100Y-56754300D02*
X148845100Y-51254300D01*
X148845100Y-51254300D02*
X159745100Y-51254300D01*
X159745100Y-51254300D02*
X159745100Y-56754300D01*
X159745100Y-56754300D02*
X148845100Y-56754300D01*
X159970300Y-56754300D02*
X159970300Y-51254300D01*
X159970300Y-51254300D02*
X170870300Y-51254300D01*
X170870300Y-51254300D02*
X170870300Y-56754300D01*
X170870300Y-56754300D02*
X159970300Y-56754300D01*
X171095500Y-56754300D02*
X171095500Y-51254300D01*
X171095500Y-51254300D02*
X181995500Y-51254300D01*
X181995500Y-51254300D02*
X181995500Y-56754300D01*
X181995500Y-56754300D02*
X171095500Y-56754300D01*
X114346200Y-63487400D02*
X116946200Y-63487400D01*
X114346200Y-65087400D02*
X116946200Y-65087400D01*
X114346200Y-63487400D02*
X114346200Y-65087400D01*
X116946200Y-63487400D02*
X116946200Y-65087400D01*
X93250000Y-126000000D02*
G75*
G03X93250000Y-126000000I-3250000J0D01*
G01*
X93250000Y-85000000D02*
G75*
G03X93250000Y-85000000I-3250000J0D01*
G01*
X182750000Y-63500000D02*
G75*
G03X182750000Y-63500000I-3250000J0D01*
G01*
M02*
