G04 #@! TF.FileFunction,Copper,L2,Inr,Plane*
%FSLAX46Y46*%
G04 Gerber Fmt 4.6, Leading zero omitted, Abs format (unit mm)*
G04 Created by KiCad (PCBNEW 4.0.5) date 03/03/17 18:09:40*
%MOMM*%
%LPD*%
G01*
G04 APERTURE LIST*
%ADD10C,0.100000*%
%ADD11O,3.014980X1.506220*%
%ADD12C,6.400000*%
%ADD13C,1.700000*%
%ADD14C,3.500000*%
%ADD15R,1.200000X1.700000*%
%ADD16O,1.200000X1.700000*%
%ADD17R,1.700000X1.200000*%
%ADD18O,1.700000X1.200000*%
%ADD19O,0.950000X1.250000*%
%ADD20O,1.550000X1.000000*%
%ADD21C,0.600000*%
%ADD22C,0.457200*%
%ADD23C,0.254000*%
G04 APERTURE END LIST*
D10*
D11*
X121790000Y-77330000D03*
X121790000Y-74790000D03*
D12*
X189930000Y-134010000D03*
X189930000Y-59010000D03*
X119930000Y-59010000D03*
X119930000Y-134010000D03*
D11*
X188855000Y-65046000D03*
X188855000Y-67586000D03*
X188855000Y-70215000D03*
X188855000Y-72755000D03*
X188849400Y-75363800D03*
X188849400Y-77903800D03*
D13*
X124880000Y-67010000D03*
X124880000Y-70510000D03*
D14*
X116970000Y-68760000D03*
D13*
X183378000Y-104877200D03*
X183378000Y-101377200D03*
D14*
X191288000Y-103127200D03*
D13*
X183363200Y-95711200D03*
X183363200Y-92211200D03*
D14*
X191273200Y-93961200D03*
D13*
X183352600Y-86561400D03*
X183352600Y-83061400D03*
D14*
X191262600Y-84811400D03*
D15*
X181628700Y-134226200D03*
D16*
X179628700Y-134226200D03*
X177628700Y-134226200D03*
X175628700Y-134226200D03*
D15*
X169657700Y-134163900D03*
D16*
X167657700Y-134163900D03*
X165657700Y-134163900D03*
X163657700Y-134163900D03*
D17*
X191454800Y-121152200D03*
D18*
X191454800Y-123152200D03*
X191454800Y-125152200D03*
X191454800Y-127152200D03*
D17*
X191504800Y-110052200D03*
D18*
X191504800Y-112052200D03*
X191504800Y-114052200D03*
X191504800Y-116052200D03*
D19*
X117931540Y-91521700D03*
X117931540Y-96521700D03*
D20*
X115231540Y-90521700D03*
X115231540Y-97521700D03*
D21*
X133505500Y-118666700D03*
X149820800Y-106367000D03*
X158275000Y-132450000D03*
X138075000Y-127050000D03*
X141700000Y-130775000D03*
X179060000Y-63630000D03*
D22*
X154680000Y-86310000D03*
X155330000Y-92377431D03*
D21*
X177080000Y-73335000D03*
X177080000Y-75210000D03*
X177080000Y-74310000D03*
X127091800Y-116333600D03*
X146645800Y-89933200D03*
X145025000Y-110800000D03*
X138608000Y-110742400D03*
X140535600Y-138033000D03*
X170813900Y-125870800D03*
X118751500Y-115752800D03*
X124047400Y-112806400D03*
X128654100Y-124686500D03*
X136045500Y-123264100D03*
X135927000Y-101642600D03*
X140854600Y-89933200D03*
X155675000Y-102050000D03*
X156000000Y-106450000D03*
X124240000Y-74810000D03*
X143837600Y-122894600D03*
X154048400Y-122894600D03*
X156309000Y-136712200D03*
X149654200Y-136153400D03*
X145615600Y-136153400D03*
X144193200Y-137626600D03*
X133500000Y-94200000D03*
X183502300Y-59270900D03*
X182300000Y-66100000D03*
X182650000Y-76480000D03*
X182282000Y-71188000D03*
X160438000Y-93032000D03*
X177171000Y-98306200D03*
X177159800Y-89214000D03*
X177197600Y-107536000D03*
X127280000Y-84860000D03*
X152637859Y-86727431D03*
X166076354Y-78658250D03*
X174676354Y-78558250D03*
X171276354Y-78058250D03*
X170876354Y-73458250D03*
X166623706Y-61526166D03*
X165923706Y-65426166D03*
X167023706Y-70926166D03*
X161453592Y-66296280D03*
X157326000Y-72210000D03*
X145780000Y-81210000D03*
X149280000Y-66210000D03*
X141500400Y-69217600D03*
X137518700Y-121282900D03*
X125558700Y-112869900D03*
D22*
X129812800Y-101116400D03*
X129812800Y-102016400D03*
D21*
X144856400Y-108329400D03*
X139062400Y-135975600D03*
X164197200Y-125680300D03*
X118764200Y-116781500D03*
X122637700Y-114000200D03*
X134623100Y-119708100D03*
X130076500Y-122171900D03*
X132641900Y-126210500D03*
X128450900Y-126210500D03*
X136235800Y-114682600D03*
X128082400Y-113869800D03*
X137573751Y-102070151D03*
X117913473Y-105084829D03*
X146976000Y-93743200D03*
X134428400Y-101617200D03*
X119366200Y-96080000D03*
X127646600Y-90161800D03*
X123150000Y-96550000D03*
X141972200Y-87240800D03*
X147509400Y-87317000D03*
X141500000Y-91100000D03*
X148449200Y-108830800D03*
X147966600Y-102785600D03*
X161020000Y-77270000D03*
X147780000Y-70110000D03*
X143380000Y-76210000D03*
X163205000Y-59135000D03*
X161180000Y-59110000D03*
X162180000Y-59110000D03*
X124497000Y-96892800D03*
X130961950Y-99094750D03*
X141348767Y-102644767D03*
X129526200Y-104081000D03*
X133133000Y-100829800D03*
X132701200Y-98366000D03*
X130800000Y-98200000D03*
D22*
X166480000Y-100685000D03*
X164605000Y-98135000D03*
X167424100Y-100660200D03*
X165605000Y-98060000D03*
X173908655Y-110241740D03*
X151580000Y-95860000D03*
X173330000Y-110560000D03*
X152069701Y-96303083D03*
D21*
X133539400Y-95368800D03*
X143250000Y-94650000D03*
X143242200Y-93514600D03*
X133641000Y-92905000D03*
D22*
X133062500Y-120712500D03*
D21*
X118650000Y-114950000D03*
D22*
X139175000Y-116675000D03*
X133087500Y-121387500D03*
X139175000Y-115975000D03*
D21*
X118700000Y-114100000D03*
D22*
X159187272Y-85454400D03*
D21*
X182028000Y-78046000D03*
D22*
X158670000Y-84845000D03*
D21*
X181774000Y-72712000D03*
D22*
X159234725Y-84275898D03*
D21*
X182028000Y-67632000D03*
X141930000Y-86010000D03*
X150430000Y-92410000D03*
X130450000Y-96500000D03*
X140016400Y-97858000D03*
D22*
X143819597Y-102810000D03*
X168555000Y-109860000D03*
X164755000Y-106285000D03*
X144480000Y-102810000D03*
X145140403Y-102810000D03*
X167380000Y-109760000D03*
D21*
X158400000Y-117700000D03*
X156950000Y-106825000D03*
X159000000Y-119300000D03*
X155050000Y-103950000D03*
X156950000Y-103975000D03*
X157825000Y-115925000D03*
D22*
X140220211Y-99702311D03*
X170033596Y-108254034D03*
X140280000Y-100360000D03*
X169570000Y-108770000D03*
D23*
G36*
X194003000Y-138433000D02*
X141093160Y-138433000D01*
X141109198Y-138416990D01*
X141212482Y-138168254D01*
X141212717Y-137898927D01*
X141109867Y-137650011D01*
X140919590Y-137459402D01*
X140670854Y-137356118D01*
X140401527Y-137355883D01*
X140152611Y-137458733D01*
X139962002Y-137649010D01*
X139858718Y-137897746D01*
X139858483Y-138167073D01*
X139961333Y-138415989D01*
X139978314Y-138433000D01*
X112857000Y-138433000D01*
X112857000Y-134718388D01*
X116352380Y-134718388D01*
X116895798Y-136033561D01*
X117901146Y-137040665D01*
X119215369Y-137586378D01*
X120638388Y-137587620D01*
X121953561Y-137044202D01*
X122960665Y-136038854D01*
X123506378Y-134724631D01*
X123506585Y-134486596D01*
X162412444Y-134486596D01*
X162535053Y-134957601D01*
X162828575Y-135345833D01*
X163248324Y-135592186D01*
X163340091Y-135607362D01*
X163530700Y-135482631D01*
X163530700Y-134290900D01*
X162575153Y-134290900D01*
X162412444Y-134486596D01*
X123506585Y-134486596D01*
X123507148Y-133841204D01*
X162412444Y-133841204D01*
X162575153Y-134036900D01*
X163530700Y-134036900D01*
X163530700Y-132845169D01*
X163784700Y-132845169D01*
X163784700Y-134036900D01*
X163804700Y-134036900D01*
X163804700Y-134290900D01*
X163784700Y-134290900D01*
X163784700Y-135482631D01*
X163975309Y-135607362D01*
X164067076Y-135592186D01*
X164486825Y-135345833D01*
X164780347Y-134957601D01*
X164800570Y-134879915D01*
X164966857Y-135128781D01*
X165283818Y-135340568D01*
X165657700Y-135414938D01*
X166031582Y-135340568D01*
X166348543Y-135128781D01*
X166560330Y-134811820D01*
X166634700Y-134437938D01*
X166634700Y-133889862D01*
X166680700Y-133889862D01*
X166680700Y-134437938D01*
X166755070Y-134811820D01*
X166966857Y-135128781D01*
X167283818Y-135340568D01*
X167657700Y-135414938D01*
X168031582Y-135340568D01*
X168348543Y-135128781D01*
X168560330Y-134811820D01*
X168634700Y-134437938D01*
X168634700Y-133889862D01*
X168560330Y-133515980D01*
X168425305Y-133313900D01*
X168673315Y-133313900D01*
X168673315Y-135013900D01*
X168699603Y-135153608D01*
X168782170Y-135281920D01*
X168908153Y-135368001D01*
X169057700Y-135398285D01*
X170257700Y-135398285D01*
X170397408Y-135371997D01*
X170525720Y-135289430D01*
X170611801Y-135163447D01*
X170642085Y-135013900D01*
X170642085Y-134548896D01*
X174383444Y-134548896D01*
X174506053Y-135019901D01*
X174799575Y-135408133D01*
X175219324Y-135654486D01*
X175311091Y-135669662D01*
X175501700Y-135544931D01*
X175501700Y-134353200D01*
X174546153Y-134353200D01*
X174383444Y-134548896D01*
X170642085Y-134548896D01*
X170642085Y-133903504D01*
X174383444Y-133903504D01*
X174546153Y-134099200D01*
X175501700Y-134099200D01*
X175501700Y-132907469D01*
X175755700Y-132907469D01*
X175755700Y-134099200D01*
X175775700Y-134099200D01*
X175775700Y-134353200D01*
X175755700Y-134353200D01*
X175755700Y-135544931D01*
X175946309Y-135669662D01*
X176038076Y-135654486D01*
X176457825Y-135408133D01*
X176751347Y-135019901D01*
X176771570Y-134942215D01*
X176937857Y-135191081D01*
X177254818Y-135402868D01*
X177628700Y-135477238D01*
X178002582Y-135402868D01*
X178319543Y-135191081D01*
X178531330Y-134874120D01*
X178605700Y-134500238D01*
X178605700Y-133952162D01*
X178651700Y-133952162D01*
X178651700Y-134500238D01*
X178726070Y-134874120D01*
X178937857Y-135191081D01*
X179254818Y-135402868D01*
X179628700Y-135477238D01*
X180002582Y-135402868D01*
X180319543Y-135191081D01*
X180531330Y-134874120D01*
X180605700Y-134500238D01*
X180605700Y-133952162D01*
X180531330Y-133578280D01*
X180396305Y-133376200D01*
X180644315Y-133376200D01*
X180644315Y-135076200D01*
X180670603Y-135215908D01*
X180753170Y-135344220D01*
X180879153Y-135430301D01*
X181028700Y-135460585D01*
X182228700Y-135460585D01*
X182368408Y-135434297D01*
X182496720Y-135351730D01*
X182582801Y-135225747D01*
X182613085Y-135076200D01*
X182613085Y-134718388D01*
X186352380Y-134718388D01*
X186895798Y-136033561D01*
X187901146Y-137040665D01*
X189215369Y-137586378D01*
X190638388Y-137587620D01*
X191953561Y-137044202D01*
X192960665Y-136038854D01*
X193506378Y-134724631D01*
X193507620Y-133301612D01*
X192964202Y-131986439D01*
X191958854Y-130979335D01*
X190644631Y-130433622D01*
X189221612Y-130432380D01*
X187906439Y-130975798D01*
X186899335Y-131981146D01*
X186353622Y-133295369D01*
X186352380Y-134718388D01*
X182613085Y-134718388D01*
X182613085Y-133376200D01*
X182586797Y-133236492D01*
X182504230Y-133108180D01*
X182378247Y-133022099D01*
X182228700Y-132991815D01*
X181028700Y-132991815D01*
X180888992Y-133018103D01*
X180760680Y-133100670D01*
X180674599Y-133226653D01*
X180644315Y-133376200D01*
X180396305Y-133376200D01*
X180319543Y-133261319D01*
X180002582Y-133049532D01*
X179628700Y-132975162D01*
X179254818Y-133049532D01*
X178937857Y-133261319D01*
X178726070Y-133578280D01*
X178651700Y-133952162D01*
X178605700Y-133952162D01*
X178531330Y-133578280D01*
X178319543Y-133261319D01*
X178002582Y-133049532D01*
X177628700Y-132975162D01*
X177254818Y-133049532D01*
X176937857Y-133261319D01*
X176771570Y-133510185D01*
X176751347Y-133432499D01*
X176457825Y-133044267D01*
X176038076Y-132797914D01*
X175946309Y-132782738D01*
X175755700Y-132907469D01*
X175501700Y-132907469D01*
X175311091Y-132782738D01*
X175219324Y-132797914D01*
X174799575Y-133044267D01*
X174506053Y-133432499D01*
X174383444Y-133903504D01*
X170642085Y-133903504D01*
X170642085Y-133313900D01*
X170615797Y-133174192D01*
X170533230Y-133045880D01*
X170407247Y-132959799D01*
X170257700Y-132929515D01*
X169057700Y-132929515D01*
X168917992Y-132955803D01*
X168789680Y-133038370D01*
X168703599Y-133164353D01*
X168673315Y-133313900D01*
X168425305Y-133313900D01*
X168348543Y-133199019D01*
X168031582Y-132987232D01*
X167657700Y-132912862D01*
X167283818Y-132987232D01*
X166966857Y-133199019D01*
X166755070Y-133515980D01*
X166680700Y-133889862D01*
X166634700Y-133889862D01*
X166560330Y-133515980D01*
X166348543Y-133199019D01*
X166031582Y-132987232D01*
X165657700Y-132912862D01*
X165283818Y-132987232D01*
X164966857Y-133199019D01*
X164800570Y-133447885D01*
X164780347Y-133370199D01*
X164486825Y-132981967D01*
X164067076Y-132735614D01*
X163975309Y-132720438D01*
X163784700Y-132845169D01*
X163530700Y-132845169D01*
X163340091Y-132720438D01*
X163248324Y-132735614D01*
X162828575Y-132981967D01*
X162535053Y-133370199D01*
X162412444Y-133841204D01*
X123507148Y-133841204D01*
X123507620Y-133301612D01*
X123211140Y-132584073D01*
X157597883Y-132584073D01*
X157700733Y-132832989D01*
X157891010Y-133023598D01*
X158139746Y-133126882D01*
X158409073Y-133127117D01*
X158657989Y-133024267D01*
X158848598Y-132833990D01*
X158951882Y-132585254D01*
X158952117Y-132315927D01*
X158849267Y-132067011D01*
X158658990Y-131876402D01*
X158410254Y-131773118D01*
X158140927Y-131772883D01*
X157892011Y-131875733D01*
X157701402Y-132066010D01*
X157598118Y-132314746D01*
X157597883Y-132584073D01*
X123211140Y-132584073D01*
X122964202Y-131986439D01*
X121958854Y-130979335D01*
X121789645Y-130909073D01*
X141022883Y-130909073D01*
X141125733Y-131157989D01*
X141316010Y-131348598D01*
X141564746Y-131451882D01*
X141834073Y-131452117D01*
X142082989Y-131349267D01*
X142273598Y-131158990D01*
X142376882Y-130910254D01*
X142377117Y-130640927D01*
X142274267Y-130392011D01*
X142083990Y-130201402D01*
X141835254Y-130098118D01*
X141565927Y-130097883D01*
X141317011Y-130200733D01*
X141126402Y-130391010D01*
X141023118Y-130639746D01*
X141022883Y-130909073D01*
X121789645Y-130909073D01*
X120644631Y-130433622D01*
X119221612Y-130432380D01*
X117906439Y-130975798D01*
X116899335Y-131981146D01*
X116353622Y-133295369D01*
X116352380Y-134718388D01*
X112857000Y-134718388D01*
X112857000Y-127184073D01*
X137397883Y-127184073D01*
X137500733Y-127432989D01*
X137691010Y-127623598D01*
X137939746Y-127726882D01*
X138209073Y-127727117D01*
X138457989Y-127624267D01*
X138612716Y-127469809D01*
X190011338Y-127469809D01*
X190026514Y-127561576D01*
X190272867Y-127981325D01*
X190661099Y-128274847D01*
X191132104Y-128397456D01*
X191327800Y-128234747D01*
X191327800Y-127279200D01*
X191581800Y-127279200D01*
X191581800Y-128234747D01*
X191777496Y-128397456D01*
X192248501Y-128274847D01*
X192636733Y-127981325D01*
X192883086Y-127561576D01*
X192898262Y-127469809D01*
X192773531Y-127279200D01*
X191581800Y-127279200D01*
X191327800Y-127279200D01*
X190136069Y-127279200D01*
X190011338Y-127469809D01*
X138612716Y-127469809D01*
X138648598Y-127433990D01*
X138751882Y-127185254D01*
X138752117Y-126915927D01*
X138718510Y-126834591D01*
X190011338Y-126834591D01*
X190136069Y-127025200D01*
X191327800Y-127025200D01*
X191327800Y-127005200D01*
X191581800Y-127005200D01*
X191581800Y-127025200D01*
X192773531Y-127025200D01*
X192898262Y-126834591D01*
X192883086Y-126742824D01*
X192636733Y-126323075D01*
X192248501Y-126029553D01*
X192170815Y-126009330D01*
X192419681Y-125843043D01*
X192631468Y-125526082D01*
X192705838Y-125152200D01*
X192631468Y-124778318D01*
X192419681Y-124461357D01*
X192102720Y-124249570D01*
X191728838Y-124175200D01*
X191180762Y-124175200D01*
X190806880Y-124249570D01*
X190489919Y-124461357D01*
X190278132Y-124778318D01*
X190203762Y-125152200D01*
X190278132Y-125526082D01*
X190489919Y-125843043D01*
X190738785Y-126009330D01*
X190661099Y-126029553D01*
X190272867Y-126323075D01*
X190026514Y-126742824D01*
X190011338Y-126834591D01*
X138718510Y-126834591D01*
X138649267Y-126667011D01*
X138458990Y-126476402D01*
X138210254Y-126373118D01*
X137940927Y-126372883D01*
X137692011Y-126475733D01*
X137501402Y-126666010D01*
X137398118Y-126914746D01*
X137397883Y-127184073D01*
X112857000Y-127184073D01*
X112857000Y-126004873D01*
X170136783Y-126004873D01*
X170239633Y-126253789D01*
X170429910Y-126444398D01*
X170678646Y-126547682D01*
X170947973Y-126547917D01*
X171196889Y-126445067D01*
X171387498Y-126254790D01*
X171490782Y-126006054D01*
X171491017Y-125736727D01*
X171388167Y-125487811D01*
X171197890Y-125297202D01*
X170949154Y-125193918D01*
X170679827Y-125193683D01*
X170430911Y-125296533D01*
X170240302Y-125486810D01*
X170137018Y-125735546D01*
X170136783Y-126004873D01*
X112857000Y-126004873D01*
X112857000Y-124820573D01*
X127976983Y-124820573D01*
X128079833Y-125069489D01*
X128270110Y-125260098D01*
X128518846Y-125363382D01*
X128788173Y-125363617D01*
X129037089Y-125260767D01*
X129227698Y-125070490D01*
X129330982Y-124821754D01*
X129331217Y-124552427D01*
X129228367Y-124303511D01*
X129038090Y-124112902D01*
X128789354Y-124009618D01*
X128520027Y-124009383D01*
X128271111Y-124112233D01*
X128080502Y-124302510D01*
X127977218Y-124551246D01*
X127976983Y-124820573D01*
X112857000Y-124820573D01*
X112857000Y-123398173D01*
X135368383Y-123398173D01*
X135471233Y-123647089D01*
X135661510Y-123837698D01*
X135910246Y-123940982D01*
X136179573Y-123941217D01*
X136428489Y-123838367D01*
X136619098Y-123648090D01*
X136722382Y-123399354D01*
X136722597Y-123152200D01*
X190203762Y-123152200D01*
X190278132Y-123526082D01*
X190489919Y-123843043D01*
X190806880Y-124054830D01*
X191180762Y-124129200D01*
X191728838Y-124129200D01*
X192102720Y-124054830D01*
X192419681Y-123843043D01*
X192631468Y-123526082D01*
X192705838Y-123152200D01*
X192631468Y-122778318D01*
X192419681Y-122461357D01*
X192102720Y-122249570D01*
X191728838Y-122175200D01*
X191180762Y-122175200D01*
X190806880Y-122249570D01*
X190489919Y-122461357D01*
X190278132Y-122778318D01*
X190203762Y-123152200D01*
X136722597Y-123152200D01*
X136722617Y-123130027D01*
X136619767Y-122881111D01*
X136429490Y-122690502D01*
X136180754Y-122587218D01*
X135911427Y-122586983D01*
X135662511Y-122689833D01*
X135471902Y-122880110D01*
X135368618Y-123128846D01*
X135368383Y-123398173D01*
X112857000Y-123398173D01*
X112857000Y-120832433D01*
X132456796Y-120832433D01*
X132548798Y-121055096D01*
X132563625Y-121069949D01*
X132482006Y-121266510D01*
X132481796Y-121507433D01*
X132573798Y-121730096D01*
X132744007Y-121900603D01*
X132966510Y-121992994D01*
X133207433Y-121993204D01*
X133430096Y-121901202D01*
X133600603Y-121730993D01*
X133692994Y-121508490D01*
X133693204Y-121267567D01*
X133601202Y-121044904D01*
X133586375Y-121030051D01*
X133667994Y-120833490D01*
X133668204Y-120592567D01*
X133651525Y-120552200D01*
X190220415Y-120552200D01*
X190220415Y-121752200D01*
X190246703Y-121891908D01*
X190329270Y-122020220D01*
X190455253Y-122106301D01*
X190604800Y-122136585D01*
X192304800Y-122136585D01*
X192444508Y-122110297D01*
X192572820Y-122027730D01*
X192658901Y-121901747D01*
X192689185Y-121752200D01*
X192689185Y-120552200D01*
X192662897Y-120412492D01*
X192580330Y-120284180D01*
X192454347Y-120198099D01*
X192304800Y-120167815D01*
X190604800Y-120167815D01*
X190465092Y-120194103D01*
X190336780Y-120276670D01*
X190250699Y-120402653D01*
X190220415Y-120552200D01*
X133651525Y-120552200D01*
X133576202Y-120369904D01*
X133405993Y-120199397D01*
X133183490Y-120107006D01*
X132942567Y-120106796D01*
X132719904Y-120198798D01*
X132549397Y-120369007D01*
X132457006Y-120591510D01*
X132456796Y-120832433D01*
X112857000Y-120832433D01*
X112857000Y-119434073D01*
X158322883Y-119434073D01*
X158425733Y-119682989D01*
X158616010Y-119873598D01*
X158864746Y-119976882D01*
X159134073Y-119977117D01*
X159382989Y-119874267D01*
X159573598Y-119683990D01*
X159676882Y-119435254D01*
X159677117Y-119165927D01*
X159574267Y-118917011D01*
X159383990Y-118726402D01*
X159135254Y-118623118D01*
X158865927Y-118622883D01*
X158617011Y-118725733D01*
X158426402Y-118916010D01*
X158323118Y-119164746D01*
X158322883Y-119434073D01*
X112857000Y-119434073D01*
X112857000Y-118800773D01*
X132828383Y-118800773D01*
X132931233Y-119049689D01*
X133121510Y-119240298D01*
X133370246Y-119343582D01*
X133639573Y-119343817D01*
X133888489Y-119240967D01*
X134079098Y-119050690D01*
X134182382Y-118801954D01*
X134182617Y-118532627D01*
X134079767Y-118283711D01*
X133889490Y-118093102D01*
X133640754Y-117989818D01*
X133371427Y-117989583D01*
X133122511Y-118092433D01*
X132931902Y-118282710D01*
X132828618Y-118531446D01*
X132828383Y-118800773D01*
X112857000Y-118800773D01*
X112857000Y-117834073D01*
X157722883Y-117834073D01*
X157825733Y-118082989D01*
X158016010Y-118273598D01*
X158264746Y-118376882D01*
X158534073Y-118377117D01*
X158782989Y-118274267D01*
X158973598Y-118083990D01*
X159076882Y-117835254D01*
X159077117Y-117565927D01*
X158974267Y-117317011D01*
X158783990Y-117126402D01*
X158535254Y-117023118D01*
X158265927Y-117022883D01*
X158017011Y-117125733D01*
X157826402Y-117316010D01*
X157723118Y-117564746D01*
X157722883Y-117834073D01*
X112857000Y-117834073D01*
X112857000Y-116467673D01*
X126414683Y-116467673D01*
X126517533Y-116716589D01*
X126707810Y-116907198D01*
X126956546Y-117010482D01*
X127225873Y-117010717D01*
X127474789Y-116907867D01*
X127665398Y-116717590D01*
X127768682Y-116468854D01*
X127768917Y-116199527D01*
X127725700Y-116094933D01*
X138569296Y-116094933D01*
X138661298Y-116317596D01*
X138668552Y-116324863D01*
X138661897Y-116331507D01*
X138569506Y-116554010D01*
X138569296Y-116794933D01*
X138661298Y-117017596D01*
X138831507Y-117188103D01*
X139054010Y-117280494D01*
X139294933Y-117280704D01*
X139517596Y-117188702D01*
X139688103Y-117018493D01*
X139780494Y-116795990D01*
X139780704Y-116555067D01*
X139688702Y-116332404D01*
X139681448Y-116325137D01*
X139688103Y-116318493D01*
X139780494Y-116095990D01*
X139780526Y-116059073D01*
X157147883Y-116059073D01*
X157250733Y-116307989D01*
X157441010Y-116498598D01*
X157689746Y-116601882D01*
X157959073Y-116602117D01*
X158207989Y-116499267D01*
X158337672Y-116369809D01*
X190061338Y-116369809D01*
X190076514Y-116461576D01*
X190322867Y-116881325D01*
X190711099Y-117174847D01*
X191182104Y-117297456D01*
X191377800Y-117134747D01*
X191377800Y-116179200D01*
X191631800Y-116179200D01*
X191631800Y-117134747D01*
X191827496Y-117297456D01*
X192298501Y-117174847D01*
X192686733Y-116881325D01*
X192933086Y-116461576D01*
X192948262Y-116369809D01*
X192823531Y-116179200D01*
X191631800Y-116179200D01*
X191377800Y-116179200D01*
X190186069Y-116179200D01*
X190061338Y-116369809D01*
X158337672Y-116369809D01*
X158398598Y-116308990D01*
X158501882Y-116060254D01*
X158502117Y-115790927D01*
X158478840Y-115734591D01*
X190061338Y-115734591D01*
X190186069Y-115925200D01*
X191377800Y-115925200D01*
X191377800Y-115905200D01*
X191631800Y-115905200D01*
X191631800Y-115925200D01*
X192823531Y-115925200D01*
X192948262Y-115734591D01*
X192933086Y-115642824D01*
X192686733Y-115223075D01*
X192298501Y-114929553D01*
X192220815Y-114909330D01*
X192469681Y-114743043D01*
X192681468Y-114426082D01*
X192755838Y-114052200D01*
X192681468Y-113678318D01*
X192469681Y-113361357D01*
X192152720Y-113149570D01*
X191778838Y-113075200D01*
X191230762Y-113075200D01*
X190856880Y-113149570D01*
X190539919Y-113361357D01*
X190328132Y-113678318D01*
X190253762Y-114052200D01*
X190328132Y-114426082D01*
X190539919Y-114743043D01*
X190788785Y-114909330D01*
X190711099Y-114929553D01*
X190322867Y-115223075D01*
X190076514Y-115642824D01*
X190061338Y-115734591D01*
X158478840Y-115734591D01*
X158399267Y-115542011D01*
X158208990Y-115351402D01*
X157960254Y-115248118D01*
X157690927Y-115247883D01*
X157442011Y-115350733D01*
X157251402Y-115541010D01*
X157148118Y-115789746D01*
X157147883Y-116059073D01*
X139780526Y-116059073D01*
X139780704Y-115855067D01*
X139688702Y-115632404D01*
X139518493Y-115461897D01*
X139295990Y-115369506D01*
X139055067Y-115369296D01*
X138832404Y-115461298D01*
X138661897Y-115631507D01*
X138569506Y-115854010D01*
X138569296Y-116094933D01*
X127725700Y-116094933D01*
X127666067Y-115950611D01*
X127475790Y-115760002D01*
X127227054Y-115656718D01*
X126957727Y-115656483D01*
X126708811Y-115759333D01*
X126518202Y-115949610D01*
X126414918Y-116198346D01*
X126414683Y-116467673D01*
X112857000Y-116467673D01*
X112857000Y-115084073D01*
X117972883Y-115084073D01*
X118075733Y-115332989D01*
X118158393Y-115415793D01*
X118074618Y-115617546D01*
X118074383Y-115886873D01*
X118177233Y-116135789D01*
X118367510Y-116326398D01*
X118616246Y-116429682D01*
X118885573Y-116429917D01*
X119134489Y-116327067D01*
X119325098Y-116136790D01*
X119428382Y-115888054D01*
X119428617Y-115618727D01*
X119325767Y-115369811D01*
X119243107Y-115287007D01*
X119326882Y-115085254D01*
X119327117Y-114815927D01*
X119224267Y-114567011D01*
X119207379Y-114550094D01*
X119273598Y-114483990D01*
X119376882Y-114235254D01*
X119377117Y-113965927D01*
X119274267Y-113717011D01*
X119083990Y-113526402D01*
X118835254Y-113423118D01*
X118565927Y-113422883D01*
X118317011Y-113525733D01*
X118126402Y-113716010D01*
X118023118Y-113964746D01*
X118022883Y-114234073D01*
X118125733Y-114482989D01*
X118142621Y-114499906D01*
X118076402Y-114566010D01*
X117973118Y-114814746D01*
X117972883Y-115084073D01*
X112857000Y-115084073D01*
X112857000Y-112940473D01*
X123370283Y-112940473D01*
X123473133Y-113189389D01*
X123663410Y-113379998D01*
X123912146Y-113483282D01*
X124181473Y-113483517D01*
X124430389Y-113380667D01*
X124620998Y-113190390D01*
X124724282Y-112941654D01*
X124724517Y-112672327D01*
X124621667Y-112423411D01*
X124431390Y-112232802D01*
X124182654Y-112129518D01*
X123913327Y-112129283D01*
X123664411Y-112232133D01*
X123473802Y-112422410D01*
X123370518Y-112671146D01*
X123370283Y-112940473D01*
X112857000Y-112940473D01*
X112857000Y-112052200D01*
X190253762Y-112052200D01*
X190328132Y-112426082D01*
X190539919Y-112743043D01*
X190856880Y-112954830D01*
X191230762Y-113029200D01*
X191778838Y-113029200D01*
X192152720Y-112954830D01*
X192469681Y-112743043D01*
X192681468Y-112426082D01*
X192755838Y-112052200D01*
X192681468Y-111678318D01*
X192469681Y-111361357D01*
X192152720Y-111149570D01*
X191778838Y-111075200D01*
X191230762Y-111075200D01*
X190856880Y-111149570D01*
X190539919Y-111361357D01*
X190328132Y-111678318D01*
X190253762Y-112052200D01*
X112857000Y-112052200D01*
X112857000Y-110876473D01*
X137930883Y-110876473D01*
X138033733Y-111125389D01*
X138224010Y-111315998D01*
X138472746Y-111419282D01*
X138742073Y-111419517D01*
X138990989Y-111316667D01*
X139181598Y-111126390D01*
X139261454Y-110934073D01*
X144347883Y-110934073D01*
X144450733Y-111182989D01*
X144641010Y-111373598D01*
X144889746Y-111476882D01*
X145159073Y-111477117D01*
X145407989Y-111374267D01*
X145598598Y-111183990D01*
X145701882Y-110935254D01*
X145702104Y-110679933D01*
X172724296Y-110679933D01*
X172816298Y-110902596D01*
X172986507Y-111073103D01*
X173209010Y-111165494D01*
X173449933Y-111165704D01*
X173672596Y-111073702D01*
X173843103Y-110903493D01*
X173866435Y-110847303D01*
X174028588Y-110847444D01*
X174251251Y-110755442D01*
X174421758Y-110585233D01*
X174514149Y-110362730D01*
X174514359Y-110121807D01*
X174422357Y-109899144D01*
X174252148Y-109728637D01*
X174029645Y-109636246D01*
X173788722Y-109636036D01*
X173566059Y-109728038D01*
X173395552Y-109898247D01*
X173372220Y-109954437D01*
X173210067Y-109954296D01*
X172987404Y-110046298D01*
X172816897Y-110216507D01*
X172724506Y-110439010D01*
X172724296Y-110679933D01*
X145702104Y-110679933D01*
X145702117Y-110665927D01*
X145599267Y-110417011D01*
X145408990Y-110226402D01*
X145160254Y-110123118D01*
X144890927Y-110122883D01*
X144642011Y-110225733D01*
X144451402Y-110416010D01*
X144348118Y-110664746D01*
X144347883Y-110934073D01*
X139261454Y-110934073D01*
X139284882Y-110877654D01*
X139285117Y-110608327D01*
X139182267Y-110359411D01*
X138991990Y-110168802D01*
X138743254Y-110065518D01*
X138473927Y-110065283D01*
X138225011Y-110168133D01*
X138034402Y-110358410D01*
X137931118Y-110607146D01*
X137930883Y-110876473D01*
X112857000Y-110876473D01*
X112857000Y-109879933D01*
X166774296Y-109879933D01*
X166866298Y-110102596D01*
X167036507Y-110273103D01*
X167259010Y-110365494D01*
X167499933Y-110365704D01*
X167722596Y-110273702D01*
X167893103Y-110103493D01*
X167949306Y-109968140D01*
X167949296Y-109979933D01*
X168041298Y-110202596D01*
X168211507Y-110373103D01*
X168434010Y-110465494D01*
X168674933Y-110465704D01*
X168897596Y-110373702D01*
X169068103Y-110203493D01*
X169160494Y-109980990D01*
X169160704Y-109740067D01*
X169068702Y-109517404D01*
X169003612Y-109452200D01*
X190270415Y-109452200D01*
X190270415Y-110652200D01*
X190296703Y-110791908D01*
X190379270Y-110920220D01*
X190505253Y-111006301D01*
X190654800Y-111036585D01*
X192354800Y-111036585D01*
X192494508Y-111010297D01*
X192622820Y-110927730D01*
X192708901Y-110801747D01*
X192739185Y-110652200D01*
X192739185Y-109452200D01*
X192712897Y-109312492D01*
X192630330Y-109184180D01*
X192504347Y-109098099D01*
X192354800Y-109067815D01*
X190654800Y-109067815D01*
X190515092Y-109094103D01*
X190386780Y-109176670D01*
X190300699Y-109302653D01*
X190270415Y-109452200D01*
X169003612Y-109452200D01*
X168898493Y-109346897D01*
X168675990Y-109254506D01*
X168435067Y-109254296D01*
X168212404Y-109346298D01*
X168041897Y-109516507D01*
X167985694Y-109651860D01*
X167985704Y-109640067D01*
X167893702Y-109417404D01*
X167723493Y-109246897D01*
X167500990Y-109154506D01*
X167260067Y-109154296D01*
X167037404Y-109246298D01*
X166866897Y-109416507D01*
X166774506Y-109639010D01*
X166774296Y-109879933D01*
X112857000Y-109879933D01*
X112857000Y-108889933D01*
X168964296Y-108889933D01*
X169056298Y-109112596D01*
X169226507Y-109283103D01*
X169449010Y-109375494D01*
X169689933Y-109375704D01*
X169912596Y-109283702D01*
X170083103Y-109113493D01*
X170175494Y-108890990D01*
X170175529Y-108850648D01*
X170376192Y-108767736D01*
X170546699Y-108597527D01*
X170639090Y-108375024D01*
X170639300Y-108134101D01*
X170547298Y-107911438D01*
X170377089Y-107740931D01*
X170154586Y-107648540D01*
X169913663Y-107648330D01*
X169691000Y-107740332D01*
X169520493Y-107910541D01*
X169428102Y-108133044D01*
X169428067Y-108173386D01*
X169227404Y-108256298D01*
X169056897Y-108426507D01*
X168964506Y-108649010D01*
X168964296Y-108889933D01*
X112857000Y-108889933D01*
X112857000Y-106501073D01*
X149143683Y-106501073D01*
X149246533Y-106749989D01*
X149436810Y-106940598D01*
X149685546Y-107043882D01*
X149954873Y-107044117D01*
X150160695Y-106959073D01*
X156272883Y-106959073D01*
X156375733Y-107207989D01*
X156566010Y-107398598D01*
X156814746Y-107501882D01*
X157084073Y-107502117D01*
X157332989Y-107399267D01*
X157523598Y-107208990D01*
X157626882Y-106960254D01*
X157627117Y-106690927D01*
X157524267Y-106442011D01*
X157487254Y-106404933D01*
X164149296Y-106404933D01*
X164241298Y-106627596D01*
X164411507Y-106798103D01*
X164634010Y-106890494D01*
X164874933Y-106890704D01*
X165097596Y-106798702D01*
X165268103Y-106628493D01*
X165360494Y-106405990D01*
X165360704Y-106165067D01*
X165268702Y-105942404D01*
X165098493Y-105771897D01*
X164875990Y-105679506D01*
X164635067Y-105679296D01*
X164412404Y-105771298D01*
X164241897Y-105941507D01*
X164149506Y-106164010D01*
X164149296Y-106404933D01*
X157487254Y-106404933D01*
X157333990Y-106251402D01*
X157085254Y-106148118D01*
X156815927Y-106147883D01*
X156567011Y-106250733D01*
X156376402Y-106441010D01*
X156273118Y-106689746D01*
X156272883Y-106959073D01*
X150160695Y-106959073D01*
X150203789Y-106941267D01*
X150394398Y-106750990D01*
X150497682Y-106502254D01*
X150497917Y-106232927D01*
X150395067Y-105984011D01*
X150204790Y-105793402D01*
X149956054Y-105690118D01*
X149686727Y-105689883D01*
X149437811Y-105792733D01*
X149247202Y-105983010D01*
X149143918Y-106231746D01*
X149143683Y-106501073D01*
X112857000Y-106501073D01*
X112857000Y-105120195D01*
X182150788Y-105120195D01*
X182337194Y-105571331D01*
X182682053Y-105916793D01*
X183132864Y-106103986D01*
X183620995Y-106104412D01*
X184072131Y-105918006D01*
X184417593Y-105573147D01*
X184604786Y-105122336D01*
X184605212Y-104634205D01*
X184418806Y-104183069D01*
X184073947Y-103837607D01*
X183623136Y-103650414D01*
X183135005Y-103649988D01*
X182683869Y-103836394D01*
X182338407Y-104181253D01*
X182151214Y-104632064D01*
X182150788Y-105120195D01*
X112857000Y-105120195D01*
X112857000Y-104215073D01*
X128849083Y-104215073D01*
X128951933Y-104463989D01*
X129142210Y-104654598D01*
X129390946Y-104757882D01*
X129660273Y-104758117D01*
X129909189Y-104655267D01*
X130099798Y-104464990D01*
X130203082Y-104216254D01*
X130203197Y-104084073D01*
X154372883Y-104084073D01*
X154475733Y-104332989D01*
X154666010Y-104523598D01*
X154914746Y-104626882D01*
X155184073Y-104627117D01*
X155432989Y-104524267D01*
X155623598Y-104333990D01*
X155716991Y-104109073D01*
X156272883Y-104109073D01*
X156375733Y-104357989D01*
X156566010Y-104548598D01*
X156814746Y-104651882D01*
X157084073Y-104652117D01*
X157332989Y-104549267D01*
X157523598Y-104358990D01*
X157626882Y-104110254D01*
X157627117Y-103840927D01*
X157524267Y-103592011D01*
X157480762Y-103548430D01*
X189160632Y-103548430D01*
X189483766Y-104330474D01*
X190081578Y-104929331D01*
X190863057Y-105253830D01*
X191709230Y-105254568D01*
X192491274Y-104931434D01*
X193090131Y-104333622D01*
X193414630Y-103552143D01*
X193415368Y-102705970D01*
X193092234Y-101923926D01*
X192494422Y-101325069D01*
X191712943Y-101000570D01*
X190866770Y-100999832D01*
X190084726Y-101322966D01*
X189485869Y-101920778D01*
X189161370Y-102702257D01*
X189160632Y-103548430D01*
X157480762Y-103548430D01*
X157333990Y-103401402D01*
X157085254Y-103298118D01*
X156815927Y-103297883D01*
X156567011Y-103400733D01*
X156376402Y-103591010D01*
X156273118Y-103839746D01*
X156272883Y-104109073D01*
X155716991Y-104109073D01*
X155726882Y-104085254D01*
X155727117Y-103815927D01*
X155624267Y-103567011D01*
X155433990Y-103376402D01*
X155185254Y-103273118D01*
X154915927Y-103272883D01*
X154667011Y-103375733D01*
X154476402Y-103566010D01*
X154373118Y-103814746D01*
X154372883Y-104084073D01*
X130203197Y-104084073D01*
X130203317Y-103946927D01*
X130100467Y-103698011D01*
X129910190Y-103507402D01*
X129661454Y-103404118D01*
X129392127Y-103403883D01*
X129143211Y-103506733D01*
X128952602Y-103697010D01*
X128849318Y-103945746D01*
X128849083Y-104215073D01*
X112857000Y-104215073D01*
X112857000Y-102778840D01*
X140671650Y-102778840D01*
X140774500Y-103027756D01*
X140964777Y-103218365D01*
X141213513Y-103321649D01*
X141482840Y-103321884D01*
X141731756Y-103219034D01*
X141922365Y-103028757D01*
X141963400Y-102929933D01*
X143213893Y-102929933D01*
X143305895Y-103152596D01*
X143476104Y-103323103D01*
X143698607Y-103415494D01*
X143939530Y-103415704D01*
X144150041Y-103328723D01*
X144359010Y-103415494D01*
X144599933Y-103415704D01*
X144810444Y-103328723D01*
X145019413Y-103415494D01*
X145260336Y-103415704D01*
X145482999Y-103323702D01*
X145653506Y-103153493D01*
X145745897Y-102930990D01*
X145746107Y-102690067D01*
X145654105Y-102467404D01*
X145483896Y-102296897D01*
X145261393Y-102204506D01*
X145020470Y-102204296D01*
X144809959Y-102291277D01*
X144600990Y-102204506D01*
X144360067Y-102204296D01*
X144149556Y-102291277D01*
X143940587Y-102204506D01*
X143699664Y-102204296D01*
X143477001Y-102296298D01*
X143306494Y-102466507D01*
X143214103Y-102689010D01*
X143213893Y-102929933D01*
X141963400Y-102929933D01*
X142025649Y-102780021D01*
X142025884Y-102510694D01*
X141923034Y-102261778D01*
X141732757Y-102071169D01*
X141484021Y-101967885D01*
X141214694Y-101967650D01*
X140965778Y-102070500D01*
X140775169Y-102260777D01*
X140671885Y-102509513D01*
X140671650Y-102778840D01*
X112857000Y-102778840D01*
X112857000Y-101776673D01*
X135249883Y-101776673D01*
X135352733Y-102025589D01*
X135543010Y-102216198D01*
X135791746Y-102319482D01*
X136061073Y-102319717D01*
X136309989Y-102216867D01*
X136500598Y-102026590D01*
X136603882Y-101777854D01*
X136604019Y-101620195D01*
X182150788Y-101620195D01*
X182337194Y-102071331D01*
X182682053Y-102416793D01*
X183132864Y-102603986D01*
X183620995Y-102604412D01*
X184072131Y-102418006D01*
X184417593Y-102073147D01*
X184604786Y-101622336D01*
X184605212Y-101134205D01*
X184418806Y-100683069D01*
X184073947Y-100337607D01*
X183623136Y-100150414D01*
X183135005Y-100149988D01*
X182683869Y-100336394D01*
X182338407Y-100681253D01*
X182151214Y-101132064D01*
X182150788Y-101620195D01*
X136604019Y-101620195D01*
X136604117Y-101508527D01*
X136501267Y-101259611D01*
X136310990Y-101069002D01*
X136062254Y-100965718D01*
X135792927Y-100965483D01*
X135544011Y-101068333D01*
X135353402Y-101258610D01*
X135250118Y-101507346D01*
X135249883Y-101776673D01*
X112857000Y-101776673D01*
X112857000Y-100963873D01*
X132455883Y-100963873D01*
X132558733Y-101212789D01*
X132749010Y-101403398D01*
X132997746Y-101506682D01*
X133267073Y-101506917D01*
X133515989Y-101404067D01*
X133706598Y-101213790D01*
X133809882Y-100965054D01*
X133810117Y-100695727D01*
X133707267Y-100446811D01*
X133516990Y-100256202D01*
X133268254Y-100152918D01*
X132998927Y-100152683D01*
X132750011Y-100255533D01*
X132559402Y-100445810D01*
X132456118Y-100694546D01*
X132455883Y-100963873D01*
X112857000Y-100963873D01*
X112857000Y-99822244D01*
X139614507Y-99822244D01*
X139706509Y-100044907D01*
X139740829Y-100079287D01*
X139674506Y-100239010D01*
X139674296Y-100479933D01*
X139766298Y-100702596D01*
X139936507Y-100873103D01*
X140159010Y-100965494D01*
X140399933Y-100965704D01*
X140622596Y-100873702D01*
X140691485Y-100804933D01*
X165874296Y-100804933D01*
X165966298Y-101027596D01*
X166136507Y-101198103D01*
X166359010Y-101290494D01*
X166599933Y-101290704D01*
X166822596Y-101198702D01*
X166964527Y-101057019D01*
X167080607Y-101173303D01*
X167303110Y-101265694D01*
X167544033Y-101265904D01*
X167766696Y-101173902D01*
X167937203Y-101003693D01*
X168029594Y-100781190D01*
X168029804Y-100540267D01*
X167937802Y-100317604D01*
X167767593Y-100147097D01*
X167545090Y-100054706D01*
X167304167Y-100054496D01*
X167081504Y-100146498D01*
X166939573Y-100288181D01*
X166823493Y-100171897D01*
X166600990Y-100079506D01*
X166360067Y-100079296D01*
X166137404Y-100171298D01*
X165966897Y-100341507D01*
X165874506Y-100564010D01*
X165874296Y-100804933D01*
X140691485Y-100804933D01*
X140793103Y-100703493D01*
X140885494Y-100480990D01*
X140885704Y-100240067D01*
X140793702Y-100017404D01*
X140759382Y-99983024D01*
X140825705Y-99823301D01*
X140825915Y-99582378D01*
X140733913Y-99359715D01*
X140563704Y-99189208D01*
X140341201Y-99096817D01*
X140100278Y-99096607D01*
X139877615Y-99188609D01*
X139707108Y-99358818D01*
X139614717Y-99581321D01*
X139614507Y-99822244D01*
X112857000Y-99822244D01*
X112857000Y-97823574D01*
X113862421Y-97823574D01*
X114064172Y-98234463D01*
X114404862Y-98521702D01*
X114829540Y-98656700D01*
X115104540Y-98656700D01*
X115104540Y-97648700D01*
X115358540Y-97648700D01*
X115358540Y-98656700D01*
X115633540Y-98656700D01*
X116058218Y-98521702D01*
X116280762Y-98334073D01*
X130122883Y-98334073D01*
X130225733Y-98582989D01*
X130378049Y-98735571D01*
X130285068Y-98959496D01*
X130284833Y-99228823D01*
X130387683Y-99477739D01*
X130577960Y-99668348D01*
X130826696Y-99771632D01*
X131096023Y-99771867D01*
X131344939Y-99669017D01*
X131535548Y-99478740D01*
X131638832Y-99230004D01*
X131639067Y-98960677D01*
X131536217Y-98711761D01*
X131383901Y-98559179D01*
X131408443Y-98500073D01*
X132024083Y-98500073D01*
X132126933Y-98748989D01*
X132317210Y-98939598D01*
X132565946Y-99042882D01*
X132835273Y-99043117D01*
X133084189Y-98940267D01*
X133274798Y-98749990D01*
X133378082Y-98501254D01*
X133378317Y-98231927D01*
X133279212Y-97992073D01*
X139339283Y-97992073D01*
X139442133Y-98240989D01*
X139632410Y-98431598D01*
X139881146Y-98534882D01*
X140150473Y-98535117D01*
X140399389Y-98432267D01*
X140577032Y-98254933D01*
X163999296Y-98254933D01*
X164091298Y-98477596D01*
X164261507Y-98648103D01*
X164484010Y-98740494D01*
X164724933Y-98740704D01*
X164947596Y-98648702D01*
X165118103Y-98478493D01*
X165132486Y-98443856D01*
X165261507Y-98573103D01*
X165484010Y-98665494D01*
X165724933Y-98665704D01*
X165947596Y-98573702D01*
X166118103Y-98403493D01*
X166210494Y-98180990D01*
X166210704Y-97940067D01*
X166118702Y-97717404D01*
X165948493Y-97546897D01*
X165725990Y-97454506D01*
X165485067Y-97454296D01*
X165262404Y-97546298D01*
X165091897Y-97716507D01*
X165077514Y-97751144D01*
X164948493Y-97621897D01*
X164725990Y-97529506D01*
X164485067Y-97529296D01*
X164262404Y-97621298D01*
X164091897Y-97791507D01*
X163999506Y-98014010D01*
X163999296Y-98254933D01*
X140577032Y-98254933D01*
X140589998Y-98241990D01*
X140693282Y-97993254D01*
X140693517Y-97723927D01*
X140590667Y-97475011D01*
X140400390Y-97284402D01*
X140151654Y-97181118D01*
X139882327Y-97180883D01*
X139633411Y-97283733D01*
X139442802Y-97474010D01*
X139339518Y-97722746D01*
X139339283Y-97992073D01*
X133279212Y-97992073D01*
X133275467Y-97983011D01*
X133085190Y-97792402D01*
X132836454Y-97689118D01*
X132567127Y-97688883D01*
X132318211Y-97791733D01*
X132127602Y-97982010D01*
X132024318Y-98230746D01*
X132024083Y-98500073D01*
X131408443Y-98500073D01*
X131476882Y-98335254D01*
X131477117Y-98065927D01*
X131374267Y-97817011D01*
X131183990Y-97626402D01*
X130935254Y-97523118D01*
X130665927Y-97522883D01*
X130417011Y-97625733D01*
X130226402Y-97816010D01*
X130123118Y-98064746D01*
X130122883Y-98334073D01*
X116280762Y-98334073D01*
X116398908Y-98234463D01*
X116600659Y-97823574D01*
X116474494Y-97648700D01*
X115358540Y-97648700D01*
X115104540Y-97648700D01*
X113988586Y-97648700D01*
X113862421Y-97823574D01*
X112857000Y-97823574D01*
X112857000Y-97219826D01*
X113862421Y-97219826D01*
X113988586Y-97394700D01*
X115104540Y-97394700D01*
X115104540Y-96386700D01*
X115358540Y-96386700D01*
X115358540Y-97394700D01*
X116474494Y-97394700D01*
X116600659Y-97219826D01*
X116405731Y-96822831D01*
X116830311Y-96822831D01*
X116971972Y-97232749D01*
X117259719Y-97557252D01*
X117633602Y-97740968D01*
X117804540Y-97614434D01*
X117804540Y-96648700D01*
X118058540Y-96648700D01*
X118058540Y-97614434D01*
X118229478Y-97740968D01*
X118603361Y-97557252D01*
X118891108Y-97232749D01*
X118962255Y-97026873D01*
X123819883Y-97026873D01*
X123922733Y-97275789D01*
X124113010Y-97466398D01*
X124361746Y-97569682D01*
X124631073Y-97569917D01*
X124879989Y-97467067D01*
X125070598Y-97276790D01*
X125173882Y-97028054D01*
X125174117Y-96758727D01*
X125122612Y-96634073D01*
X129772883Y-96634073D01*
X129875733Y-96882989D01*
X130066010Y-97073598D01*
X130314746Y-97176882D01*
X130584073Y-97177117D01*
X130832989Y-97074267D01*
X131023598Y-96883990D01*
X131126882Y-96635254D01*
X131127117Y-96365927D01*
X131024267Y-96117011D01*
X130833990Y-95926402D01*
X130585254Y-95823118D01*
X130315927Y-95822883D01*
X130067011Y-95925733D01*
X129876402Y-96116010D01*
X129773118Y-96364746D01*
X129772883Y-96634073D01*
X125122612Y-96634073D01*
X125071267Y-96509811D01*
X124880990Y-96319202D01*
X124632254Y-96215918D01*
X124362927Y-96215683D01*
X124114011Y-96318533D01*
X123923402Y-96508810D01*
X123820118Y-96757546D01*
X123819883Y-97026873D01*
X118962255Y-97026873D01*
X119032769Y-96822831D01*
X118884103Y-96648700D01*
X118058540Y-96648700D01*
X117804540Y-96648700D01*
X116978977Y-96648700D01*
X116830311Y-96822831D01*
X116405731Y-96822831D01*
X116398908Y-96808937D01*
X116058218Y-96521698D01*
X115633540Y-96386700D01*
X115358540Y-96386700D01*
X115104540Y-96386700D01*
X114829540Y-96386700D01*
X114404862Y-96521698D01*
X114064172Y-96808937D01*
X113862421Y-97219826D01*
X112857000Y-97219826D01*
X112857000Y-96220569D01*
X116830311Y-96220569D01*
X116978977Y-96394700D01*
X117804540Y-96394700D01*
X117804540Y-95428966D01*
X118058540Y-95428966D01*
X118058540Y-96394700D01*
X118884103Y-96394700D01*
X119032769Y-96220569D01*
X118891108Y-95810651D01*
X118618192Y-95502873D01*
X132862283Y-95502873D01*
X132965133Y-95751789D01*
X133155410Y-95942398D01*
X133404146Y-96045682D01*
X133673473Y-96045917D01*
X133833166Y-95979933D01*
X150974296Y-95979933D01*
X151066298Y-96202596D01*
X151236507Y-96373103D01*
X151459010Y-96465494D01*
X151481557Y-96465514D01*
X151555999Y-96645679D01*
X151726208Y-96816186D01*
X151948711Y-96908577D01*
X152189634Y-96908787D01*
X152412297Y-96816785D01*
X152582804Y-96646576D01*
X152675195Y-96424073D01*
X152675405Y-96183150D01*
X152583403Y-95960487D01*
X152577122Y-95954195D01*
X182135988Y-95954195D01*
X182322394Y-96405331D01*
X182667253Y-96750793D01*
X183118064Y-96937986D01*
X183606195Y-96938412D01*
X184057331Y-96752006D01*
X184402793Y-96407147D01*
X184589986Y-95956336D01*
X184590412Y-95468205D01*
X184404006Y-95017069D01*
X184059147Y-94671607D01*
X183608336Y-94484414D01*
X183120205Y-94483988D01*
X182669069Y-94670394D01*
X182323607Y-95015253D01*
X182136414Y-95466064D01*
X182135988Y-95954195D01*
X152577122Y-95954195D01*
X152413194Y-95789980D01*
X152190691Y-95697589D01*
X152168144Y-95697569D01*
X152093702Y-95517404D01*
X151923493Y-95346897D01*
X151700990Y-95254506D01*
X151460067Y-95254296D01*
X151237404Y-95346298D01*
X151066897Y-95516507D01*
X150974506Y-95739010D01*
X150974296Y-95979933D01*
X133833166Y-95979933D01*
X133922389Y-95943067D01*
X134112998Y-95752790D01*
X134216282Y-95504054D01*
X134216517Y-95234727D01*
X134113667Y-94985811D01*
X133923390Y-94795202D01*
X133674654Y-94691918D01*
X133405327Y-94691683D01*
X133156411Y-94794533D01*
X132965802Y-94984810D01*
X132862518Y-95233546D01*
X132862283Y-95502873D01*
X118618192Y-95502873D01*
X118603361Y-95486148D01*
X118229478Y-95302432D01*
X118058540Y-95428966D01*
X117804540Y-95428966D01*
X117633602Y-95302432D01*
X117259719Y-95486148D01*
X116971972Y-95810651D01*
X116830311Y-96220569D01*
X112857000Y-96220569D01*
X112857000Y-93648673D01*
X142565083Y-93648673D01*
X142667933Y-93897589D01*
X142856370Y-94086355D01*
X142676402Y-94266010D01*
X142573118Y-94514746D01*
X142572883Y-94784073D01*
X142675733Y-95032989D01*
X142866010Y-95223598D01*
X143114746Y-95326882D01*
X143384073Y-95327117D01*
X143632989Y-95224267D01*
X143823598Y-95033990D01*
X143926882Y-94785254D01*
X143927117Y-94515927D01*
X143871958Y-94382430D01*
X189145832Y-94382430D01*
X189468966Y-95164474D01*
X190066778Y-95763331D01*
X190848257Y-96087830D01*
X191694430Y-96088568D01*
X192476474Y-95765434D01*
X193075331Y-95167622D01*
X193399830Y-94386143D01*
X193400568Y-93539970D01*
X193077434Y-92757926D01*
X192479622Y-92159069D01*
X191698143Y-91834570D01*
X190851970Y-91833832D01*
X190069926Y-92156966D01*
X189471069Y-92754778D01*
X189146570Y-93536257D01*
X189145832Y-94382430D01*
X143871958Y-94382430D01*
X143824267Y-94267011D01*
X143635830Y-94078245D01*
X143815798Y-93898590D01*
X143919082Y-93649854D01*
X143919317Y-93380527D01*
X143816467Y-93131611D01*
X143626190Y-92941002D01*
X143377454Y-92837718D01*
X143108127Y-92837483D01*
X142859211Y-92940333D01*
X142668602Y-93130610D01*
X142565318Y-93379346D01*
X142565083Y-93648673D01*
X112857000Y-93648673D01*
X112857000Y-93039073D01*
X132963883Y-93039073D01*
X133066733Y-93287989D01*
X133257010Y-93478598D01*
X133505746Y-93581882D01*
X133775073Y-93582117D01*
X134023989Y-93479267D01*
X134214598Y-93288990D01*
X134317882Y-93040254D01*
X134318117Y-92770927D01*
X134224383Y-92544073D01*
X149752883Y-92544073D01*
X149855733Y-92792989D01*
X150046010Y-92983598D01*
X150294746Y-93086882D01*
X150564073Y-93087117D01*
X150812989Y-92984267D01*
X151003598Y-92793990D01*
X151106882Y-92545254D01*
X151106923Y-92497364D01*
X154724296Y-92497364D01*
X154816298Y-92720027D01*
X154986507Y-92890534D01*
X155209010Y-92982925D01*
X155449933Y-92983135D01*
X155672596Y-92891133D01*
X155843103Y-92720924D01*
X155935494Y-92498421D01*
X155935532Y-92454195D01*
X182135988Y-92454195D01*
X182322394Y-92905331D01*
X182667253Y-93250793D01*
X183118064Y-93437986D01*
X183606195Y-93438412D01*
X184057331Y-93252006D01*
X184402793Y-92907147D01*
X184589986Y-92456336D01*
X184590412Y-91968205D01*
X184404006Y-91517069D01*
X184059147Y-91171607D01*
X183608336Y-90984414D01*
X183120205Y-90983988D01*
X182669069Y-91170394D01*
X182323607Y-91515253D01*
X182136414Y-91966064D01*
X182135988Y-92454195D01*
X155935532Y-92454195D01*
X155935704Y-92257498D01*
X155843702Y-92034835D01*
X155673493Y-91864328D01*
X155450990Y-91771937D01*
X155210067Y-91771727D01*
X154987404Y-91863729D01*
X154816897Y-92033938D01*
X154724506Y-92256441D01*
X154724296Y-92497364D01*
X151106923Y-92497364D01*
X151107117Y-92275927D01*
X151004267Y-92027011D01*
X150813990Y-91836402D01*
X150565254Y-91733118D01*
X150295927Y-91732883D01*
X150047011Y-91835733D01*
X149856402Y-92026010D01*
X149753118Y-92274746D01*
X149752883Y-92544073D01*
X134224383Y-92544073D01*
X134215267Y-92522011D01*
X134024990Y-92331402D01*
X133776254Y-92228118D01*
X133506927Y-92227883D01*
X133258011Y-92330733D01*
X133067402Y-92521010D01*
X132964118Y-92769746D01*
X132963883Y-93039073D01*
X112857000Y-93039073D01*
X112857000Y-91822831D01*
X116830311Y-91822831D01*
X116971972Y-92232749D01*
X117259719Y-92557252D01*
X117633602Y-92740968D01*
X117804540Y-92614434D01*
X117804540Y-91648700D01*
X118058540Y-91648700D01*
X118058540Y-92614434D01*
X118229478Y-92740968D01*
X118603361Y-92557252D01*
X118891108Y-92232749D01*
X119032769Y-91822831D01*
X118884103Y-91648700D01*
X118058540Y-91648700D01*
X117804540Y-91648700D01*
X116978977Y-91648700D01*
X116830311Y-91822831D01*
X112857000Y-91822831D01*
X112857000Y-90823574D01*
X113862421Y-90823574D01*
X114064172Y-91234463D01*
X114404862Y-91521702D01*
X114829540Y-91656700D01*
X115104540Y-91656700D01*
X115104540Y-90648700D01*
X115358540Y-90648700D01*
X115358540Y-91656700D01*
X115633540Y-91656700D01*
X116058218Y-91521702D01*
X116398908Y-91234463D01*
X116405730Y-91220569D01*
X116830311Y-91220569D01*
X116978977Y-91394700D01*
X117804540Y-91394700D01*
X117804540Y-90428966D01*
X118058540Y-90428966D01*
X118058540Y-91394700D01*
X118884103Y-91394700D01*
X119032769Y-91220569D01*
X118891108Y-90810651D01*
X118603361Y-90486148D01*
X118229478Y-90302432D01*
X118058540Y-90428966D01*
X117804540Y-90428966D01*
X117633602Y-90302432D01*
X117259719Y-90486148D01*
X116971972Y-90810651D01*
X116830311Y-91220569D01*
X116405730Y-91220569D01*
X116600659Y-90823574D01*
X116474494Y-90648700D01*
X115358540Y-90648700D01*
X115104540Y-90648700D01*
X113988586Y-90648700D01*
X113862421Y-90823574D01*
X112857000Y-90823574D01*
X112857000Y-90219826D01*
X113862421Y-90219826D01*
X113988586Y-90394700D01*
X115104540Y-90394700D01*
X115104540Y-89386700D01*
X115358540Y-89386700D01*
X115358540Y-90394700D01*
X116474494Y-90394700D01*
X116600659Y-90219826D01*
X116525754Y-90067273D01*
X140177483Y-90067273D01*
X140280333Y-90316189D01*
X140470610Y-90506798D01*
X140719346Y-90610082D01*
X140988673Y-90610317D01*
X141237589Y-90507467D01*
X141428198Y-90317190D01*
X141531482Y-90068454D01*
X141531483Y-90067273D01*
X145968683Y-90067273D01*
X146071533Y-90316189D01*
X146261810Y-90506798D01*
X146510546Y-90610082D01*
X146779873Y-90610317D01*
X147028789Y-90507467D01*
X147219398Y-90317190D01*
X147322682Y-90068454D01*
X147322917Y-89799127D01*
X147220067Y-89550211D01*
X147029790Y-89359602D01*
X146781054Y-89256318D01*
X146511727Y-89256083D01*
X146262811Y-89358933D01*
X146072202Y-89549210D01*
X145968918Y-89797946D01*
X145968683Y-90067273D01*
X141531483Y-90067273D01*
X141531717Y-89799127D01*
X141428867Y-89550211D01*
X141238590Y-89359602D01*
X140989854Y-89256318D01*
X140720527Y-89256083D01*
X140471611Y-89358933D01*
X140281002Y-89549210D01*
X140177718Y-89797946D01*
X140177483Y-90067273D01*
X116525754Y-90067273D01*
X116398908Y-89808937D01*
X116058218Y-89521698D01*
X115633540Y-89386700D01*
X115358540Y-89386700D01*
X115104540Y-89386700D01*
X114829540Y-89386700D01*
X114404862Y-89521698D01*
X114064172Y-89808937D01*
X113862421Y-90219826D01*
X112857000Y-90219826D01*
X112857000Y-86144073D01*
X141252883Y-86144073D01*
X141355733Y-86392989D01*
X141546010Y-86583598D01*
X141794746Y-86686882D01*
X142064073Y-86687117D01*
X142312989Y-86584267D01*
X142467592Y-86429933D01*
X154074296Y-86429933D01*
X154166298Y-86652596D01*
X154336507Y-86823103D01*
X154559010Y-86915494D01*
X154799933Y-86915704D01*
X155022596Y-86823702D01*
X155041936Y-86804395D01*
X182125388Y-86804395D01*
X182311794Y-87255531D01*
X182656653Y-87600993D01*
X183107464Y-87788186D01*
X183595595Y-87788612D01*
X184046731Y-87602206D01*
X184392193Y-87257347D01*
X184579386Y-86806536D01*
X184579812Y-86318405D01*
X184393406Y-85867269D01*
X184048547Y-85521807D01*
X183597736Y-85334614D01*
X183109605Y-85334188D01*
X182658469Y-85520594D01*
X182313007Y-85865453D01*
X182125814Y-86316264D01*
X182125388Y-86804395D01*
X155041936Y-86804395D01*
X155193103Y-86653493D01*
X155285494Y-86430990D01*
X155285704Y-86190067D01*
X155193702Y-85967404D01*
X155023493Y-85796897D01*
X154800990Y-85704506D01*
X154560067Y-85704296D01*
X154337404Y-85796298D01*
X154166897Y-85966507D01*
X154074506Y-86189010D01*
X154074296Y-86429933D01*
X142467592Y-86429933D01*
X142503598Y-86393990D01*
X142606882Y-86145254D01*
X142607117Y-85875927D01*
X142504267Y-85627011D01*
X142313990Y-85436402D01*
X142065254Y-85333118D01*
X141795927Y-85332883D01*
X141547011Y-85435733D01*
X141356402Y-85626010D01*
X141253118Y-85874746D01*
X141252883Y-86144073D01*
X112857000Y-86144073D01*
X112857000Y-84964933D01*
X158064296Y-84964933D01*
X158156298Y-85187596D01*
X158326507Y-85358103D01*
X158549010Y-85450494D01*
X158581676Y-85450522D01*
X158581568Y-85574333D01*
X158673570Y-85796996D01*
X158843779Y-85967503D01*
X159066282Y-86059894D01*
X159307205Y-86060104D01*
X159529868Y-85968102D01*
X159700375Y-85797893D01*
X159792766Y-85575390D01*
X159792976Y-85334467D01*
X159750899Y-85232630D01*
X189135232Y-85232630D01*
X189458366Y-86014674D01*
X190056178Y-86613531D01*
X190837657Y-86938030D01*
X191683830Y-86938768D01*
X192465874Y-86615634D01*
X193064731Y-86017822D01*
X193389230Y-85236343D01*
X193389968Y-84390170D01*
X193066834Y-83608126D01*
X192469022Y-83009269D01*
X191687543Y-82684770D01*
X190841370Y-82684032D01*
X190059326Y-83007166D01*
X189460469Y-83604978D01*
X189135970Y-84386457D01*
X189135232Y-85232630D01*
X159750899Y-85232630D01*
X159700974Y-85111804D01*
X159530765Y-84941297D01*
X159370870Y-84874903D01*
X159577321Y-84789600D01*
X159747828Y-84619391D01*
X159840219Y-84396888D01*
X159840429Y-84155965D01*
X159748427Y-83933302D01*
X159578218Y-83762795D01*
X159355715Y-83670404D01*
X159114792Y-83670194D01*
X158892129Y-83762196D01*
X158721622Y-83932405D01*
X158629231Y-84154908D01*
X158629157Y-84239365D01*
X158550067Y-84239296D01*
X158327404Y-84331298D01*
X158156897Y-84501507D01*
X158064506Y-84724010D01*
X158064296Y-84964933D01*
X112857000Y-84964933D01*
X112857000Y-83304395D01*
X182125388Y-83304395D01*
X182311794Y-83755531D01*
X182656653Y-84100993D01*
X183107464Y-84288186D01*
X183595595Y-84288612D01*
X184046731Y-84102206D01*
X184392193Y-83757347D01*
X184579386Y-83306536D01*
X184579812Y-82818405D01*
X184393406Y-82367269D01*
X184048547Y-82021807D01*
X183597736Y-81834614D01*
X183109605Y-81834188D01*
X182658469Y-82020594D01*
X182313007Y-82365453D01*
X182125814Y-82816264D01*
X182125388Y-83304395D01*
X112857000Y-83304395D01*
X112857000Y-77330000D01*
X119868591Y-77330000D01*
X119954616Y-77762474D01*
X120199593Y-78129108D01*
X120566227Y-78374085D01*
X120998701Y-78460110D01*
X122581299Y-78460110D01*
X123013773Y-78374085D01*
X123325294Y-78165933D01*
X181422296Y-78165933D01*
X181514298Y-78388596D01*
X181684507Y-78559103D01*
X181907010Y-78651494D01*
X182147933Y-78651704D01*
X182370596Y-78559702D01*
X182541103Y-78389493D01*
X182633494Y-78166990D01*
X182633704Y-77926067D01*
X182624504Y-77903800D01*
X186927991Y-77903800D01*
X187014016Y-78336274D01*
X187258993Y-78702908D01*
X187625627Y-78947885D01*
X188058101Y-79033910D01*
X189640699Y-79033910D01*
X190073173Y-78947885D01*
X190439807Y-78702908D01*
X190684784Y-78336274D01*
X190770809Y-77903800D01*
X190684784Y-77471326D01*
X190439807Y-77104692D01*
X190073173Y-76859715D01*
X189640699Y-76773690D01*
X188058101Y-76773690D01*
X187625627Y-76859715D01*
X187258993Y-77104692D01*
X187014016Y-77471326D01*
X186927991Y-77903800D01*
X182624504Y-77903800D01*
X182541702Y-77703404D01*
X182371493Y-77532897D01*
X182148990Y-77440506D01*
X181908067Y-77440296D01*
X181685404Y-77532298D01*
X181514897Y-77702507D01*
X181422506Y-77925010D01*
X181422296Y-78165933D01*
X123325294Y-78165933D01*
X123380407Y-78129108D01*
X123625384Y-77762474D01*
X123696674Y-77404073D01*
X160342883Y-77404073D01*
X160445733Y-77652989D01*
X160636010Y-77843598D01*
X160884746Y-77946882D01*
X161154073Y-77947117D01*
X161402989Y-77844267D01*
X161593598Y-77653990D01*
X161696882Y-77405254D01*
X161697117Y-77135927D01*
X161594267Y-76887011D01*
X161403990Y-76696402D01*
X161155254Y-76593118D01*
X160885927Y-76592883D01*
X160637011Y-76695733D01*
X160446402Y-76886010D01*
X160343118Y-77134746D01*
X160342883Y-77404073D01*
X123696674Y-77404073D01*
X123711409Y-77330000D01*
X123625384Y-76897526D01*
X123380407Y-76530892D01*
X123100813Y-76344073D01*
X142702883Y-76344073D01*
X142805733Y-76592989D01*
X142996010Y-76783598D01*
X143244746Y-76886882D01*
X143514073Y-76887117D01*
X143762989Y-76784267D01*
X143953598Y-76593990D01*
X144056882Y-76345254D01*
X144057117Y-76075927D01*
X143954267Y-75827011D01*
X143763990Y-75636402D01*
X143515254Y-75533118D01*
X143245927Y-75532883D01*
X142997011Y-75635733D01*
X142806402Y-75826010D01*
X142703118Y-76074746D01*
X142702883Y-76344073D01*
X123100813Y-76344073D01*
X123013773Y-76285915D01*
X122581299Y-76199890D01*
X120998701Y-76199890D01*
X120566227Y-76285915D01*
X120199593Y-76530892D01*
X119954616Y-76897526D01*
X119868591Y-77330000D01*
X112857000Y-77330000D01*
X112857000Y-75131674D01*
X119690217Y-75131674D01*
X119704573Y-75203875D01*
X119964276Y-75681740D01*
X120387081Y-76023846D01*
X120908620Y-76178110D01*
X121663000Y-76178110D01*
X121663000Y-74917000D01*
X121917000Y-74917000D01*
X121917000Y-76178110D01*
X122671380Y-76178110D01*
X123192919Y-76023846D01*
X123615724Y-75681740D01*
X123875427Y-75203875D01*
X123889783Y-75131674D01*
X123767162Y-74917000D01*
X121917000Y-74917000D01*
X121663000Y-74917000D01*
X119812838Y-74917000D01*
X119690217Y-75131674D01*
X112857000Y-75131674D01*
X112857000Y-74448326D01*
X119690217Y-74448326D01*
X119812838Y-74663000D01*
X121663000Y-74663000D01*
X121663000Y-73401890D01*
X121917000Y-73401890D01*
X121917000Y-74663000D01*
X123767162Y-74663000D01*
X123889783Y-74448326D01*
X123875427Y-74376125D01*
X123615724Y-73898260D01*
X123192919Y-73556154D01*
X122898514Y-73469073D01*
X176402883Y-73469073D01*
X176505733Y-73717989D01*
X176610077Y-73822515D01*
X176506402Y-73926010D01*
X176403118Y-74174746D01*
X176402883Y-74444073D01*
X176505733Y-74692989D01*
X176572577Y-74759950D01*
X176506402Y-74826010D01*
X176403118Y-75074746D01*
X176402883Y-75344073D01*
X176505733Y-75592989D01*
X176696010Y-75783598D01*
X176944746Y-75886882D01*
X177214073Y-75887117D01*
X177462989Y-75784267D01*
X177653598Y-75593990D01*
X177749181Y-75363800D01*
X186927991Y-75363800D01*
X187014016Y-75796274D01*
X187258993Y-76162908D01*
X187625627Y-76407885D01*
X188058101Y-76493910D01*
X189640699Y-76493910D01*
X190073173Y-76407885D01*
X190439807Y-76162908D01*
X190684784Y-75796274D01*
X190770809Y-75363800D01*
X190684784Y-74931326D01*
X190439807Y-74564692D01*
X190073173Y-74319715D01*
X189640699Y-74233690D01*
X188058101Y-74233690D01*
X187625627Y-74319715D01*
X187258993Y-74564692D01*
X187014016Y-74931326D01*
X186927991Y-75363800D01*
X177749181Y-75363800D01*
X177756882Y-75345254D01*
X177757117Y-75075927D01*
X177654267Y-74827011D01*
X177587423Y-74760050D01*
X177653598Y-74693990D01*
X177756882Y-74445254D01*
X177757117Y-74175927D01*
X177654267Y-73927011D01*
X177549923Y-73822485D01*
X177653598Y-73718990D01*
X177756882Y-73470254D01*
X177757117Y-73200927D01*
X177654267Y-72952011D01*
X177534399Y-72831933D01*
X181168296Y-72831933D01*
X181260298Y-73054596D01*
X181430507Y-73225103D01*
X181653010Y-73317494D01*
X181893933Y-73317704D01*
X182116596Y-73225702D01*
X182287103Y-73055493D01*
X182379494Y-72832990D01*
X182379561Y-72755000D01*
X186933591Y-72755000D01*
X187019616Y-73187474D01*
X187264593Y-73554108D01*
X187631227Y-73799085D01*
X188063701Y-73885110D01*
X189646299Y-73885110D01*
X190078773Y-73799085D01*
X190445407Y-73554108D01*
X190690384Y-73187474D01*
X190776409Y-72755000D01*
X190690384Y-72322526D01*
X190445407Y-71955892D01*
X190078773Y-71710915D01*
X189646299Y-71624890D01*
X188063701Y-71624890D01*
X187631227Y-71710915D01*
X187264593Y-71955892D01*
X187019616Y-72322526D01*
X186933591Y-72755000D01*
X182379561Y-72755000D01*
X182379704Y-72592067D01*
X182287702Y-72369404D01*
X182117493Y-72198897D01*
X181894990Y-72106506D01*
X181654067Y-72106296D01*
X181431404Y-72198298D01*
X181260897Y-72368507D01*
X181168506Y-72591010D01*
X181168296Y-72831933D01*
X177534399Y-72831933D01*
X177463990Y-72761402D01*
X177215254Y-72658118D01*
X176945927Y-72657883D01*
X176697011Y-72760733D01*
X176506402Y-72951010D01*
X176403118Y-73199746D01*
X176402883Y-73469073D01*
X122898514Y-73469073D01*
X122671380Y-73401890D01*
X121917000Y-73401890D01*
X121663000Y-73401890D01*
X120908620Y-73401890D01*
X120387081Y-73556154D01*
X119964276Y-73898260D01*
X119704573Y-74376125D01*
X119690217Y-74448326D01*
X112857000Y-74448326D01*
X112857000Y-69181230D01*
X114842632Y-69181230D01*
X115165766Y-69963274D01*
X115763578Y-70562131D01*
X116545057Y-70886630D01*
X117391230Y-70887368D01*
X117716437Y-70752995D01*
X123652788Y-70752995D01*
X123839194Y-71204131D01*
X124184053Y-71549593D01*
X124634864Y-71736786D01*
X125122995Y-71737212D01*
X125574131Y-71550806D01*
X125919593Y-71205947D01*
X126106786Y-70755136D01*
X126107212Y-70267005D01*
X126097737Y-70244073D01*
X147102883Y-70244073D01*
X147205733Y-70492989D01*
X147396010Y-70683598D01*
X147644746Y-70786882D01*
X147914073Y-70787117D01*
X148162989Y-70684267D01*
X148353598Y-70493990D01*
X148456882Y-70245254D01*
X148456908Y-70215000D01*
X186933591Y-70215000D01*
X187019616Y-70647474D01*
X187264593Y-71014108D01*
X187631227Y-71259085D01*
X188063701Y-71345110D01*
X189646299Y-71345110D01*
X190078773Y-71259085D01*
X190445407Y-71014108D01*
X190690384Y-70647474D01*
X190776409Y-70215000D01*
X190690384Y-69782526D01*
X190445407Y-69415892D01*
X190078773Y-69170915D01*
X189646299Y-69084890D01*
X188063701Y-69084890D01*
X187631227Y-69170915D01*
X187264593Y-69415892D01*
X187019616Y-69782526D01*
X186933591Y-70215000D01*
X148456908Y-70215000D01*
X148457117Y-69975927D01*
X148354267Y-69727011D01*
X148163990Y-69536402D01*
X147915254Y-69433118D01*
X147645927Y-69432883D01*
X147397011Y-69535733D01*
X147206402Y-69726010D01*
X147103118Y-69974746D01*
X147102883Y-70244073D01*
X126097737Y-70244073D01*
X125920806Y-69815869D01*
X125575947Y-69470407D01*
X125125136Y-69283214D01*
X124637005Y-69282788D01*
X124185869Y-69469194D01*
X123840407Y-69814053D01*
X123653214Y-70264864D01*
X123652788Y-70752995D01*
X117716437Y-70752995D01*
X118173274Y-70564234D01*
X118772131Y-69966422D01*
X119096630Y-69184943D01*
X119097368Y-68338770D01*
X118979687Y-68053958D01*
X124015647Y-68053958D01*
X124095920Y-68305259D01*
X124651279Y-68506718D01*
X125241458Y-68480315D01*
X125664080Y-68305259D01*
X125744353Y-68053958D01*
X124880000Y-67189605D01*
X124015647Y-68053958D01*
X118979687Y-68053958D01*
X118774234Y-67556726D01*
X118176422Y-66957869D01*
X117751147Y-66781279D01*
X123383282Y-66781279D01*
X123409685Y-67371458D01*
X123584741Y-67794080D01*
X123836042Y-67874353D01*
X124700395Y-67010000D01*
X125059605Y-67010000D01*
X125923958Y-67874353D01*
X126175259Y-67794080D01*
X126190548Y-67751933D01*
X181422296Y-67751933D01*
X181514298Y-67974596D01*
X181684507Y-68145103D01*
X181907010Y-68237494D01*
X182147933Y-68237704D01*
X182370596Y-68145702D01*
X182541103Y-67975493D01*
X182633494Y-67752990D01*
X182633639Y-67586000D01*
X186933591Y-67586000D01*
X187019616Y-68018474D01*
X187264593Y-68385108D01*
X187631227Y-68630085D01*
X188063701Y-68716110D01*
X189646299Y-68716110D01*
X190078773Y-68630085D01*
X190445407Y-68385108D01*
X190690384Y-68018474D01*
X190776409Y-67586000D01*
X190690384Y-67153526D01*
X190445407Y-66786892D01*
X190078773Y-66541915D01*
X189646299Y-66455890D01*
X188063701Y-66455890D01*
X187631227Y-66541915D01*
X187264593Y-66786892D01*
X187019616Y-67153526D01*
X186933591Y-67586000D01*
X182633639Y-67586000D01*
X182633704Y-67512067D01*
X182541702Y-67289404D01*
X182371493Y-67118897D01*
X182148990Y-67026506D01*
X181908067Y-67026296D01*
X181685404Y-67118298D01*
X181514897Y-67288507D01*
X181422506Y-67511010D01*
X181422296Y-67751933D01*
X126190548Y-67751933D01*
X126376718Y-67238721D01*
X126350315Y-66648542D01*
X126175259Y-66225920D01*
X125923958Y-66145647D01*
X125059605Y-67010000D01*
X124700395Y-67010000D01*
X123836042Y-66145647D01*
X123584741Y-66225920D01*
X123383282Y-66781279D01*
X117751147Y-66781279D01*
X117394943Y-66633370D01*
X116548770Y-66632632D01*
X115766726Y-66955766D01*
X115167869Y-67553578D01*
X114843370Y-68335057D01*
X114842632Y-69181230D01*
X112857000Y-69181230D01*
X112857000Y-65966042D01*
X124015647Y-65966042D01*
X124880000Y-66830395D01*
X125744353Y-65966042D01*
X125664080Y-65714741D01*
X125108721Y-65513282D01*
X124518542Y-65539685D01*
X124095920Y-65714741D01*
X124015647Y-65966042D01*
X112857000Y-65966042D01*
X112857000Y-65046000D01*
X186933591Y-65046000D01*
X187019616Y-65478474D01*
X187264593Y-65845108D01*
X187631227Y-66090085D01*
X188063701Y-66176110D01*
X189646299Y-66176110D01*
X190078773Y-66090085D01*
X190445407Y-65845108D01*
X190690384Y-65478474D01*
X190776409Y-65046000D01*
X190690384Y-64613526D01*
X190445407Y-64246892D01*
X190078773Y-64001915D01*
X189646299Y-63915890D01*
X188063701Y-63915890D01*
X187631227Y-64001915D01*
X187264593Y-64246892D01*
X187019616Y-64613526D01*
X186933591Y-65046000D01*
X112857000Y-65046000D01*
X112857000Y-63749933D01*
X178454296Y-63749933D01*
X178546298Y-63972596D01*
X178716507Y-64143103D01*
X178939010Y-64235494D01*
X179179933Y-64235704D01*
X179402596Y-64143702D01*
X179573103Y-63973493D01*
X179665494Y-63750990D01*
X179665704Y-63510067D01*
X179573702Y-63287404D01*
X179403493Y-63116897D01*
X179180990Y-63024506D01*
X178940067Y-63024296D01*
X178717404Y-63116298D01*
X178546897Y-63286507D01*
X178454506Y-63509010D01*
X178454296Y-63749933D01*
X112857000Y-63749933D01*
X112857000Y-59718388D01*
X116352380Y-59718388D01*
X116895798Y-61033561D01*
X117901146Y-62040665D01*
X119215369Y-62586378D01*
X120638388Y-62587620D01*
X121953561Y-62044202D01*
X122960665Y-61038854D01*
X123506378Y-59724631D01*
X123506797Y-59244073D01*
X160502883Y-59244073D01*
X160605733Y-59492989D01*
X160796010Y-59683598D01*
X161044746Y-59786882D01*
X161314073Y-59787117D01*
X161562989Y-59684267D01*
X161680037Y-59567423D01*
X161796010Y-59683598D01*
X162044746Y-59786882D01*
X162314073Y-59787117D01*
X162562989Y-59684267D01*
X162680059Y-59567401D01*
X162821010Y-59708598D01*
X163069746Y-59811882D01*
X163339073Y-59812117D01*
X163565914Y-59718388D01*
X186352380Y-59718388D01*
X186895798Y-61033561D01*
X187901146Y-62040665D01*
X189215369Y-62586378D01*
X190638388Y-62587620D01*
X191953561Y-62044202D01*
X192960665Y-61038854D01*
X193506378Y-59724631D01*
X193507620Y-58301612D01*
X192964202Y-56986439D01*
X191958854Y-55979335D01*
X190644631Y-55433622D01*
X189221612Y-55432380D01*
X187906439Y-55975798D01*
X186899335Y-56981146D01*
X186353622Y-58295369D01*
X186352380Y-59718388D01*
X163565914Y-59718388D01*
X163587989Y-59709267D01*
X163778598Y-59518990D01*
X163881882Y-59270254D01*
X163882117Y-59000927D01*
X163779267Y-58752011D01*
X163588990Y-58561402D01*
X163340254Y-58458118D01*
X163070927Y-58457883D01*
X162822011Y-58560733D01*
X162704941Y-58677599D01*
X162563990Y-58536402D01*
X162315254Y-58433118D01*
X162045927Y-58432883D01*
X161797011Y-58535733D01*
X161679963Y-58652577D01*
X161563990Y-58536402D01*
X161315254Y-58433118D01*
X161045927Y-58432883D01*
X160797011Y-58535733D01*
X160606402Y-58726010D01*
X160503118Y-58974746D01*
X160502883Y-59244073D01*
X123506797Y-59244073D01*
X123507620Y-58301612D01*
X122964202Y-56986439D01*
X121958854Y-55979335D01*
X120644631Y-55433622D01*
X119221612Y-55432380D01*
X117906439Y-55975798D01*
X116899335Y-56981146D01*
X116353622Y-58295369D01*
X116352380Y-59718388D01*
X112857000Y-59718388D01*
X112857000Y-54587000D01*
X194003000Y-54587000D01*
X194003000Y-138433000D01*
X194003000Y-138433000D01*
G37*
X194003000Y-138433000D02*
X141093160Y-138433000D01*
X141109198Y-138416990D01*
X141212482Y-138168254D01*
X141212717Y-137898927D01*
X141109867Y-137650011D01*
X140919590Y-137459402D01*
X140670854Y-137356118D01*
X140401527Y-137355883D01*
X140152611Y-137458733D01*
X139962002Y-137649010D01*
X139858718Y-137897746D01*
X139858483Y-138167073D01*
X139961333Y-138415989D01*
X139978314Y-138433000D01*
X112857000Y-138433000D01*
X112857000Y-134718388D01*
X116352380Y-134718388D01*
X116895798Y-136033561D01*
X117901146Y-137040665D01*
X119215369Y-137586378D01*
X120638388Y-137587620D01*
X121953561Y-137044202D01*
X122960665Y-136038854D01*
X123506378Y-134724631D01*
X123506585Y-134486596D01*
X162412444Y-134486596D01*
X162535053Y-134957601D01*
X162828575Y-135345833D01*
X163248324Y-135592186D01*
X163340091Y-135607362D01*
X163530700Y-135482631D01*
X163530700Y-134290900D01*
X162575153Y-134290900D01*
X162412444Y-134486596D01*
X123506585Y-134486596D01*
X123507148Y-133841204D01*
X162412444Y-133841204D01*
X162575153Y-134036900D01*
X163530700Y-134036900D01*
X163530700Y-132845169D01*
X163784700Y-132845169D01*
X163784700Y-134036900D01*
X163804700Y-134036900D01*
X163804700Y-134290900D01*
X163784700Y-134290900D01*
X163784700Y-135482631D01*
X163975309Y-135607362D01*
X164067076Y-135592186D01*
X164486825Y-135345833D01*
X164780347Y-134957601D01*
X164800570Y-134879915D01*
X164966857Y-135128781D01*
X165283818Y-135340568D01*
X165657700Y-135414938D01*
X166031582Y-135340568D01*
X166348543Y-135128781D01*
X166560330Y-134811820D01*
X166634700Y-134437938D01*
X166634700Y-133889862D01*
X166680700Y-133889862D01*
X166680700Y-134437938D01*
X166755070Y-134811820D01*
X166966857Y-135128781D01*
X167283818Y-135340568D01*
X167657700Y-135414938D01*
X168031582Y-135340568D01*
X168348543Y-135128781D01*
X168560330Y-134811820D01*
X168634700Y-134437938D01*
X168634700Y-133889862D01*
X168560330Y-133515980D01*
X168425305Y-133313900D01*
X168673315Y-133313900D01*
X168673315Y-135013900D01*
X168699603Y-135153608D01*
X168782170Y-135281920D01*
X168908153Y-135368001D01*
X169057700Y-135398285D01*
X170257700Y-135398285D01*
X170397408Y-135371997D01*
X170525720Y-135289430D01*
X170611801Y-135163447D01*
X170642085Y-135013900D01*
X170642085Y-134548896D01*
X174383444Y-134548896D01*
X174506053Y-135019901D01*
X174799575Y-135408133D01*
X175219324Y-135654486D01*
X175311091Y-135669662D01*
X175501700Y-135544931D01*
X175501700Y-134353200D01*
X174546153Y-134353200D01*
X174383444Y-134548896D01*
X170642085Y-134548896D01*
X170642085Y-133903504D01*
X174383444Y-133903504D01*
X174546153Y-134099200D01*
X175501700Y-134099200D01*
X175501700Y-132907469D01*
X175755700Y-132907469D01*
X175755700Y-134099200D01*
X175775700Y-134099200D01*
X175775700Y-134353200D01*
X175755700Y-134353200D01*
X175755700Y-135544931D01*
X175946309Y-135669662D01*
X176038076Y-135654486D01*
X176457825Y-135408133D01*
X176751347Y-135019901D01*
X176771570Y-134942215D01*
X176937857Y-135191081D01*
X177254818Y-135402868D01*
X177628700Y-135477238D01*
X178002582Y-135402868D01*
X178319543Y-135191081D01*
X178531330Y-134874120D01*
X178605700Y-134500238D01*
X178605700Y-133952162D01*
X178651700Y-133952162D01*
X178651700Y-134500238D01*
X178726070Y-134874120D01*
X178937857Y-135191081D01*
X179254818Y-135402868D01*
X179628700Y-135477238D01*
X180002582Y-135402868D01*
X180319543Y-135191081D01*
X180531330Y-134874120D01*
X180605700Y-134500238D01*
X180605700Y-133952162D01*
X180531330Y-133578280D01*
X180396305Y-133376200D01*
X180644315Y-133376200D01*
X180644315Y-135076200D01*
X180670603Y-135215908D01*
X180753170Y-135344220D01*
X180879153Y-135430301D01*
X181028700Y-135460585D01*
X182228700Y-135460585D01*
X182368408Y-135434297D01*
X182496720Y-135351730D01*
X182582801Y-135225747D01*
X182613085Y-135076200D01*
X182613085Y-134718388D01*
X186352380Y-134718388D01*
X186895798Y-136033561D01*
X187901146Y-137040665D01*
X189215369Y-137586378D01*
X190638388Y-137587620D01*
X191953561Y-137044202D01*
X192960665Y-136038854D01*
X193506378Y-134724631D01*
X193507620Y-133301612D01*
X192964202Y-131986439D01*
X191958854Y-130979335D01*
X190644631Y-130433622D01*
X189221612Y-130432380D01*
X187906439Y-130975798D01*
X186899335Y-131981146D01*
X186353622Y-133295369D01*
X186352380Y-134718388D01*
X182613085Y-134718388D01*
X182613085Y-133376200D01*
X182586797Y-133236492D01*
X182504230Y-133108180D01*
X182378247Y-133022099D01*
X182228700Y-132991815D01*
X181028700Y-132991815D01*
X180888992Y-133018103D01*
X180760680Y-133100670D01*
X180674599Y-133226653D01*
X180644315Y-133376200D01*
X180396305Y-133376200D01*
X180319543Y-133261319D01*
X180002582Y-133049532D01*
X179628700Y-132975162D01*
X179254818Y-133049532D01*
X178937857Y-133261319D01*
X178726070Y-133578280D01*
X178651700Y-133952162D01*
X178605700Y-133952162D01*
X178531330Y-133578280D01*
X178319543Y-133261319D01*
X178002582Y-133049532D01*
X177628700Y-132975162D01*
X177254818Y-133049532D01*
X176937857Y-133261319D01*
X176771570Y-133510185D01*
X176751347Y-133432499D01*
X176457825Y-133044267D01*
X176038076Y-132797914D01*
X175946309Y-132782738D01*
X175755700Y-132907469D01*
X175501700Y-132907469D01*
X175311091Y-132782738D01*
X175219324Y-132797914D01*
X174799575Y-133044267D01*
X174506053Y-133432499D01*
X174383444Y-133903504D01*
X170642085Y-133903504D01*
X170642085Y-133313900D01*
X170615797Y-133174192D01*
X170533230Y-133045880D01*
X170407247Y-132959799D01*
X170257700Y-132929515D01*
X169057700Y-132929515D01*
X168917992Y-132955803D01*
X168789680Y-133038370D01*
X168703599Y-133164353D01*
X168673315Y-133313900D01*
X168425305Y-133313900D01*
X168348543Y-133199019D01*
X168031582Y-132987232D01*
X167657700Y-132912862D01*
X167283818Y-132987232D01*
X166966857Y-133199019D01*
X166755070Y-133515980D01*
X166680700Y-133889862D01*
X166634700Y-133889862D01*
X166560330Y-133515980D01*
X166348543Y-133199019D01*
X166031582Y-132987232D01*
X165657700Y-132912862D01*
X165283818Y-132987232D01*
X164966857Y-133199019D01*
X164800570Y-133447885D01*
X164780347Y-133370199D01*
X164486825Y-132981967D01*
X164067076Y-132735614D01*
X163975309Y-132720438D01*
X163784700Y-132845169D01*
X163530700Y-132845169D01*
X163340091Y-132720438D01*
X163248324Y-132735614D01*
X162828575Y-132981967D01*
X162535053Y-133370199D01*
X162412444Y-133841204D01*
X123507148Y-133841204D01*
X123507620Y-133301612D01*
X123211140Y-132584073D01*
X157597883Y-132584073D01*
X157700733Y-132832989D01*
X157891010Y-133023598D01*
X158139746Y-133126882D01*
X158409073Y-133127117D01*
X158657989Y-133024267D01*
X158848598Y-132833990D01*
X158951882Y-132585254D01*
X158952117Y-132315927D01*
X158849267Y-132067011D01*
X158658990Y-131876402D01*
X158410254Y-131773118D01*
X158140927Y-131772883D01*
X157892011Y-131875733D01*
X157701402Y-132066010D01*
X157598118Y-132314746D01*
X157597883Y-132584073D01*
X123211140Y-132584073D01*
X122964202Y-131986439D01*
X121958854Y-130979335D01*
X121789645Y-130909073D01*
X141022883Y-130909073D01*
X141125733Y-131157989D01*
X141316010Y-131348598D01*
X141564746Y-131451882D01*
X141834073Y-131452117D01*
X142082989Y-131349267D01*
X142273598Y-131158990D01*
X142376882Y-130910254D01*
X142377117Y-130640927D01*
X142274267Y-130392011D01*
X142083990Y-130201402D01*
X141835254Y-130098118D01*
X141565927Y-130097883D01*
X141317011Y-130200733D01*
X141126402Y-130391010D01*
X141023118Y-130639746D01*
X141022883Y-130909073D01*
X121789645Y-130909073D01*
X120644631Y-130433622D01*
X119221612Y-130432380D01*
X117906439Y-130975798D01*
X116899335Y-131981146D01*
X116353622Y-133295369D01*
X116352380Y-134718388D01*
X112857000Y-134718388D01*
X112857000Y-127184073D01*
X137397883Y-127184073D01*
X137500733Y-127432989D01*
X137691010Y-127623598D01*
X137939746Y-127726882D01*
X138209073Y-127727117D01*
X138457989Y-127624267D01*
X138612716Y-127469809D01*
X190011338Y-127469809D01*
X190026514Y-127561576D01*
X190272867Y-127981325D01*
X190661099Y-128274847D01*
X191132104Y-128397456D01*
X191327800Y-128234747D01*
X191327800Y-127279200D01*
X191581800Y-127279200D01*
X191581800Y-128234747D01*
X191777496Y-128397456D01*
X192248501Y-128274847D01*
X192636733Y-127981325D01*
X192883086Y-127561576D01*
X192898262Y-127469809D01*
X192773531Y-127279200D01*
X191581800Y-127279200D01*
X191327800Y-127279200D01*
X190136069Y-127279200D01*
X190011338Y-127469809D01*
X138612716Y-127469809D01*
X138648598Y-127433990D01*
X138751882Y-127185254D01*
X138752117Y-126915927D01*
X138718510Y-126834591D01*
X190011338Y-126834591D01*
X190136069Y-127025200D01*
X191327800Y-127025200D01*
X191327800Y-127005200D01*
X191581800Y-127005200D01*
X191581800Y-127025200D01*
X192773531Y-127025200D01*
X192898262Y-126834591D01*
X192883086Y-126742824D01*
X192636733Y-126323075D01*
X192248501Y-126029553D01*
X192170815Y-126009330D01*
X192419681Y-125843043D01*
X192631468Y-125526082D01*
X192705838Y-125152200D01*
X192631468Y-124778318D01*
X192419681Y-124461357D01*
X192102720Y-124249570D01*
X191728838Y-124175200D01*
X191180762Y-124175200D01*
X190806880Y-124249570D01*
X190489919Y-124461357D01*
X190278132Y-124778318D01*
X190203762Y-125152200D01*
X190278132Y-125526082D01*
X190489919Y-125843043D01*
X190738785Y-126009330D01*
X190661099Y-126029553D01*
X190272867Y-126323075D01*
X190026514Y-126742824D01*
X190011338Y-126834591D01*
X138718510Y-126834591D01*
X138649267Y-126667011D01*
X138458990Y-126476402D01*
X138210254Y-126373118D01*
X137940927Y-126372883D01*
X137692011Y-126475733D01*
X137501402Y-126666010D01*
X137398118Y-126914746D01*
X137397883Y-127184073D01*
X112857000Y-127184073D01*
X112857000Y-126004873D01*
X170136783Y-126004873D01*
X170239633Y-126253789D01*
X170429910Y-126444398D01*
X170678646Y-126547682D01*
X170947973Y-126547917D01*
X171196889Y-126445067D01*
X171387498Y-126254790D01*
X171490782Y-126006054D01*
X171491017Y-125736727D01*
X171388167Y-125487811D01*
X171197890Y-125297202D01*
X170949154Y-125193918D01*
X170679827Y-125193683D01*
X170430911Y-125296533D01*
X170240302Y-125486810D01*
X170137018Y-125735546D01*
X170136783Y-126004873D01*
X112857000Y-126004873D01*
X112857000Y-124820573D01*
X127976983Y-124820573D01*
X128079833Y-125069489D01*
X128270110Y-125260098D01*
X128518846Y-125363382D01*
X128788173Y-125363617D01*
X129037089Y-125260767D01*
X129227698Y-125070490D01*
X129330982Y-124821754D01*
X129331217Y-124552427D01*
X129228367Y-124303511D01*
X129038090Y-124112902D01*
X128789354Y-124009618D01*
X128520027Y-124009383D01*
X128271111Y-124112233D01*
X128080502Y-124302510D01*
X127977218Y-124551246D01*
X127976983Y-124820573D01*
X112857000Y-124820573D01*
X112857000Y-123398173D01*
X135368383Y-123398173D01*
X135471233Y-123647089D01*
X135661510Y-123837698D01*
X135910246Y-123940982D01*
X136179573Y-123941217D01*
X136428489Y-123838367D01*
X136619098Y-123648090D01*
X136722382Y-123399354D01*
X136722597Y-123152200D01*
X190203762Y-123152200D01*
X190278132Y-123526082D01*
X190489919Y-123843043D01*
X190806880Y-124054830D01*
X191180762Y-124129200D01*
X191728838Y-124129200D01*
X192102720Y-124054830D01*
X192419681Y-123843043D01*
X192631468Y-123526082D01*
X192705838Y-123152200D01*
X192631468Y-122778318D01*
X192419681Y-122461357D01*
X192102720Y-122249570D01*
X191728838Y-122175200D01*
X191180762Y-122175200D01*
X190806880Y-122249570D01*
X190489919Y-122461357D01*
X190278132Y-122778318D01*
X190203762Y-123152200D01*
X136722597Y-123152200D01*
X136722617Y-123130027D01*
X136619767Y-122881111D01*
X136429490Y-122690502D01*
X136180754Y-122587218D01*
X135911427Y-122586983D01*
X135662511Y-122689833D01*
X135471902Y-122880110D01*
X135368618Y-123128846D01*
X135368383Y-123398173D01*
X112857000Y-123398173D01*
X112857000Y-120832433D01*
X132456796Y-120832433D01*
X132548798Y-121055096D01*
X132563625Y-121069949D01*
X132482006Y-121266510D01*
X132481796Y-121507433D01*
X132573798Y-121730096D01*
X132744007Y-121900603D01*
X132966510Y-121992994D01*
X133207433Y-121993204D01*
X133430096Y-121901202D01*
X133600603Y-121730993D01*
X133692994Y-121508490D01*
X133693204Y-121267567D01*
X133601202Y-121044904D01*
X133586375Y-121030051D01*
X133667994Y-120833490D01*
X133668204Y-120592567D01*
X133651525Y-120552200D01*
X190220415Y-120552200D01*
X190220415Y-121752200D01*
X190246703Y-121891908D01*
X190329270Y-122020220D01*
X190455253Y-122106301D01*
X190604800Y-122136585D01*
X192304800Y-122136585D01*
X192444508Y-122110297D01*
X192572820Y-122027730D01*
X192658901Y-121901747D01*
X192689185Y-121752200D01*
X192689185Y-120552200D01*
X192662897Y-120412492D01*
X192580330Y-120284180D01*
X192454347Y-120198099D01*
X192304800Y-120167815D01*
X190604800Y-120167815D01*
X190465092Y-120194103D01*
X190336780Y-120276670D01*
X190250699Y-120402653D01*
X190220415Y-120552200D01*
X133651525Y-120552200D01*
X133576202Y-120369904D01*
X133405993Y-120199397D01*
X133183490Y-120107006D01*
X132942567Y-120106796D01*
X132719904Y-120198798D01*
X132549397Y-120369007D01*
X132457006Y-120591510D01*
X132456796Y-120832433D01*
X112857000Y-120832433D01*
X112857000Y-119434073D01*
X158322883Y-119434073D01*
X158425733Y-119682989D01*
X158616010Y-119873598D01*
X158864746Y-119976882D01*
X159134073Y-119977117D01*
X159382989Y-119874267D01*
X159573598Y-119683990D01*
X159676882Y-119435254D01*
X159677117Y-119165927D01*
X159574267Y-118917011D01*
X159383990Y-118726402D01*
X159135254Y-118623118D01*
X158865927Y-118622883D01*
X158617011Y-118725733D01*
X158426402Y-118916010D01*
X158323118Y-119164746D01*
X158322883Y-119434073D01*
X112857000Y-119434073D01*
X112857000Y-118800773D01*
X132828383Y-118800773D01*
X132931233Y-119049689D01*
X133121510Y-119240298D01*
X133370246Y-119343582D01*
X133639573Y-119343817D01*
X133888489Y-119240967D01*
X134079098Y-119050690D01*
X134182382Y-118801954D01*
X134182617Y-118532627D01*
X134079767Y-118283711D01*
X133889490Y-118093102D01*
X133640754Y-117989818D01*
X133371427Y-117989583D01*
X133122511Y-118092433D01*
X132931902Y-118282710D01*
X132828618Y-118531446D01*
X132828383Y-118800773D01*
X112857000Y-118800773D01*
X112857000Y-117834073D01*
X157722883Y-117834073D01*
X157825733Y-118082989D01*
X158016010Y-118273598D01*
X158264746Y-118376882D01*
X158534073Y-118377117D01*
X158782989Y-118274267D01*
X158973598Y-118083990D01*
X159076882Y-117835254D01*
X159077117Y-117565927D01*
X158974267Y-117317011D01*
X158783990Y-117126402D01*
X158535254Y-117023118D01*
X158265927Y-117022883D01*
X158017011Y-117125733D01*
X157826402Y-117316010D01*
X157723118Y-117564746D01*
X157722883Y-117834073D01*
X112857000Y-117834073D01*
X112857000Y-116467673D01*
X126414683Y-116467673D01*
X126517533Y-116716589D01*
X126707810Y-116907198D01*
X126956546Y-117010482D01*
X127225873Y-117010717D01*
X127474789Y-116907867D01*
X127665398Y-116717590D01*
X127768682Y-116468854D01*
X127768917Y-116199527D01*
X127725700Y-116094933D01*
X138569296Y-116094933D01*
X138661298Y-116317596D01*
X138668552Y-116324863D01*
X138661897Y-116331507D01*
X138569506Y-116554010D01*
X138569296Y-116794933D01*
X138661298Y-117017596D01*
X138831507Y-117188103D01*
X139054010Y-117280494D01*
X139294933Y-117280704D01*
X139517596Y-117188702D01*
X139688103Y-117018493D01*
X139780494Y-116795990D01*
X139780704Y-116555067D01*
X139688702Y-116332404D01*
X139681448Y-116325137D01*
X139688103Y-116318493D01*
X139780494Y-116095990D01*
X139780526Y-116059073D01*
X157147883Y-116059073D01*
X157250733Y-116307989D01*
X157441010Y-116498598D01*
X157689746Y-116601882D01*
X157959073Y-116602117D01*
X158207989Y-116499267D01*
X158337672Y-116369809D01*
X190061338Y-116369809D01*
X190076514Y-116461576D01*
X190322867Y-116881325D01*
X190711099Y-117174847D01*
X191182104Y-117297456D01*
X191377800Y-117134747D01*
X191377800Y-116179200D01*
X191631800Y-116179200D01*
X191631800Y-117134747D01*
X191827496Y-117297456D01*
X192298501Y-117174847D01*
X192686733Y-116881325D01*
X192933086Y-116461576D01*
X192948262Y-116369809D01*
X192823531Y-116179200D01*
X191631800Y-116179200D01*
X191377800Y-116179200D01*
X190186069Y-116179200D01*
X190061338Y-116369809D01*
X158337672Y-116369809D01*
X158398598Y-116308990D01*
X158501882Y-116060254D01*
X158502117Y-115790927D01*
X158478840Y-115734591D01*
X190061338Y-115734591D01*
X190186069Y-115925200D01*
X191377800Y-115925200D01*
X191377800Y-115905200D01*
X191631800Y-115905200D01*
X191631800Y-115925200D01*
X192823531Y-115925200D01*
X192948262Y-115734591D01*
X192933086Y-115642824D01*
X192686733Y-115223075D01*
X192298501Y-114929553D01*
X192220815Y-114909330D01*
X192469681Y-114743043D01*
X192681468Y-114426082D01*
X192755838Y-114052200D01*
X192681468Y-113678318D01*
X192469681Y-113361357D01*
X192152720Y-113149570D01*
X191778838Y-113075200D01*
X191230762Y-113075200D01*
X190856880Y-113149570D01*
X190539919Y-113361357D01*
X190328132Y-113678318D01*
X190253762Y-114052200D01*
X190328132Y-114426082D01*
X190539919Y-114743043D01*
X190788785Y-114909330D01*
X190711099Y-114929553D01*
X190322867Y-115223075D01*
X190076514Y-115642824D01*
X190061338Y-115734591D01*
X158478840Y-115734591D01*
X158399267Y-115542011D01*
X158208990Y-115351402D01*
X157960254Y-115248118D01*
X157690927Y-115247883D01*
X157442011Y-115350733D01*
X157251402Y-115541010D01*
X157148118Y-115789746D01*
X157147883Y-116059073D01*
X139780526Y-116059073D01*
X139780704Y-115855067D01*
X139688702Y-115632404D01*
X139518493Y-115461897D01*
X139295990Y-115369506D01*
X139055067Y-115369296D01*
X138832404Y-115461298D01*
X138661897Y-115631507D01*
X138569506Y-115854010D01*
X138569296Y-116094933D01*
X127725700Y-116094933D01*
X127666067Y-115950611D01*
X127475790Y-115760002D01*
X127227054Y-115656718D01*
X126957727Y-115656483D01*
X126708811Y-115759333D01*
X126518202Y-115949610D01*
X126414918Y-116198346D01*
X126414683Y-116467673D01*
X112857000Y-116467673D01*
X112857000Y-115084073D01*
X117972883Y-115084073D01*
X118075733Y-115332989D01*
X118158393Y-115415793D01*
X118074618Y-115617546D01*
X118074383Y-115886873D01*
X118177233Y-116135789D01*
X118367510Y-116326398D01*
X118616246Y-116429682D01*
X118885573Y-116429917D01*
X119134489Y-116327067D01*
X119325098Y-116136790D01*
X119428382Y-115888054D01*
X119428617Y-115618727D01*
X119325767Y-115369811D01*
X119243107Y-115287007D01*
X119326882Y-115085254D01*
X119327117Y-114815927D01*
X119224267Y-114567011D01*
X119207379Y-114550094D01*
X119273598Y-114483990D01*
X119376882Y-114235254D01*
X119377117Y-113965927D01*
X119274267Y-113717011D01*
X119083990Y-113526402D01*
X118835254Y-113423118D01*
X118565927Y-113422883D01*
X118317011Y-113525733D01*
X118126402Y-113716010D01*
X118023118Y-113964746D01*
X118022883Y-114234073D01*
X118125733Y-114482989D01*
X118142621Y-114499906D01*
X118076402Y-114566010D01*
X117973118Y-114814746D01*
X117972883Y-115084073D01*
X112857000Y-115084073D01*
X112857000Y-112940473D01*
X123370283Y-112940473D01*
X123473133Y-113189389D01*
X123663410Y-113379998D01*
X123912146Y-113483282D01*
X124181473Y-113483517D01*
X124430389Y-113380667D01*
X124620998Y-113190390D01*
X124724282Y-112941654D01*
X124724517Y-112672327D01*
X124621667Y-112423411D01*
X124431390Y-112232802D01*
X124182654Y-112129518D01*
X123913327Y-112129283D01*
X123664411Y-112232133D01*
X123473802Y-112422410D01*
X123370518Y-112671146D01*
X123370283Y-112940473D01*
X112857000Y-112940473D01*
X112857000Y-112052200D01*
X190253762Y-112052200D01*
X190328132Y-112426082D01*
X190539919Y-112743043D01*
X190856880Y-112954830D01*
X191230762Y-113029200D01*
X191778838Y-113029200D01*
X192152720Y-112954830D01*
X192469681Y-112743043D01*
X192681468Y-112426082D01*
X192755838Y-112052200D01*
X192681468Y-111678318D01*
X192469681Y-111361357D01*
X192152720Y-111149570D01*
X191778838Y-111075200D01*
X191230762Y-111075200D01*
X190856880Y-111149570D01*
X190539919Y-111361357D01*
X190328132Y-111678318D01*
X190253762Y-112052200D01*
X112857000Y-112052200D01*
X112857000Y-110876473D01*
X137930883Y-110876473D01*
X138033733Y-111125389D01*
X138224010Y-111315998D01*
X138472746Y-111419282D01*
X138742073Y-111419517D01*
X138990989Y-111316667D01*
X139181598Y-111126390D01*
X139261454Y-110934073D01*
X144347883Y-110934073D01*
X144450733Y-111182989D01*
X144641010Y-111373598D01*
X144889746Y-111476882D01*
X145159073Y-111477117D01*
X145407989Y-111374267D01*
X145598598Y-111183990D01*
X145701882Y-110935254D01*
X145702104Y-110679933D01*
X172724296Y-110679933D01*
X172816298Y-110902596D01*
X172986507Y-111073103D01*
X173209010Y-111165494D01*
X173449933Y-111165704D01*
X173672596Y-111073702D01*
X173843103Y-110903493D01*
X173866435Y-110847303D01*
X174028588Y-110847444D01*
X174251251Y-110755442D01*
X174421758Y-110585233D01*
X174514149Y-110362730D01*
X174514359Y-110121807D01*
X174422357Y-109899144D01*
X174252148Y-109728637D01*
X174029645Y-109636246D01*
X173788722Y-109636036D01*
X173566059Y-109728038D01*
X173395552Y-109898247D01*
X173372220Y-109954437D01*
X173210067Y-109954296D01*
X172987404Y-110046298D01*
X172816897Y-110216507D01*
X172724506Y-110439010D01*
X172724296Y-110679933D01*
X145702104Y-110679933D01*
X145702117Y-110665927D01*
X145599267Y-110417011D01*
X145408990Y-110226402D01*
X145160254Y-110123118D01*
X144890927Y-110122883D01*
X144642011Y-110225733D01*
X144451402Y-110416010D01*
X144348118Y-110664746D01*
X144347883Y-110934073D01*
X139261454Y-110934073D01*
X139284882Y-110877654D01*
X139285117Y-110608327D01*
X139182267Y-110359411D01*
X138991990Y-110168802D01*
X138743254Y-110065518D01*
X138473927Y-110065283D01*
X138225011Y-110168133D01*
X138034402Y-110358410D01*
X137931118Y-110607146D01*
X137930883Y-110876473D01*
X112857000Y-110876473D01*
X112857000Y-109879933D01*
X166774296Y-109879933D01*
X166866298Y-110102596D01*
X167036507Y-110273103D01*
X167259010Y-110365494D01*
X167499933Y-110365704D01*
X167722596Y-110273702D01*
X167893103Y-110103493D01*
X167949306Y-109968140D01*
X167949296Y-109979933D01*
X168041298Y-110202596D01*
X168211507Y-110373103D01*
X168434010Y-110465494D01*
X168674933Y-110465704D01*
X168897596Y-110373702D01*
X169068103Y-110203493D01*
X169160494Y-109980990D01*
X169160704Y-109740067D01*
X169068702Y-109517404D01*
X169003612Y-109452200D01*
X190270415Y-109452200D01*
X190270415Y-110652200D01*
X190296703Y-110791908D01*
X190379270Y-110920220D01*
X190505253Y-111006301D01*
X190654800Y-111036585D01*
X192354800Y-111036585D01*
X192494508Y-111010297D01*
X192622820Y-110927730D01*
X192708901Y-110801747D01*
X192739185Y-110652200D01*
X192739185Y-109452200D01*
X192712897Y-109312492D01*
X192630330Y-109184180D01*
X192504347Y-109098099D01*
X192354800Y-109067815D01*
X190654800Y-109067815D01*
X190515092Y-109094103D01*
X190386780Y-109176670D01*
X190300699Y-109302653D01*
X190270415Y-109452200D01*
X169003612Y-109452200D01*
X168898493Y-109346897D01*
X168675990Y-109254506D01*
X168435067Y-109254296D01*
X168212404Y-109346298D01*
X168041897Y-109516507D01*
X167985694Y-109651860D01*
X167985704Y-109640067D01*
X167893702Y-109417404D01*
X167723493Y-109246897D01*
X167500990Y-109154506D01*
X167260067Y-109154296D01*
X167037404Y-109246298D01*
X166866897Y-109416507D01*
X166774506Y-109639010D01*
X166774296Y-109879933D01*
X112857000Y-109879933D01*
X112857000Y-108889933D01*
X168964296Y-108889933D01*
X169056298Y-109112596D01*
X169226507Y-109283103D01*
X169449010Y-109375494D01*
X169689933Y-109375704D01*
X169912596Y-109283702D01*
X170083103Y-109113493D01*
X170175494Y-108890990D01*
X170175529Y-108850648D01*
X170376192Y-108767736D01*
X170546699Y-108597527D01*
X170639090Y-108375024D01*
X170639300Y-108134101D01*
X170547298Y-107911438D01*
X170377089Y-107740931D01*
X170154586Y-107648540D01*
X169913663Y-107648330D01*
X169691000Y-107740332D01*
X169520493Y-107910541D01*
X169428102Y-108133044D01*
X169428067Y-108173386D01*
X169227404Y-108256298D01*
X169056897Y-108426507D01*
X168964506Y-108649010D01*
X168964296Y-108889933D01*
X112857000Y-108889933D01*
X112857000Y-106501073D01*
X149143683Y-106501073D01*
X149246533Y-106749989D01*
X149436810Y-106940598D01*
X149685546Y-107043882D01*
X149954873Y-107044117D01*
X150160695Y-106959073D01*
X156272883Y-106959073D01*
X156375733Y-107207989D01*
X156566010Y-107398598D01*
X156814746Y-107501882D01*
X157084073Y-107502117D01*
X157332989Y-107399267D01*
X157523598Y-107208990D01*
X157626882Y-106960254D01*
X157627117Y-106690927D01*
X157524267Y-106442011D01*
X157487254Y-106404933D01*
X164149296Y-106404933D01*
X164241298Y-106627596D01*
X164411507Y-106798103D01*
X164634010Y-106890494D01*
X164874933Y-106890704D01*
X165097596Y-106798702D01*
X165268103Y-106628493D01*
X165360494Y-106405990D01*
X165360704Y-106165067D01*
X165268702Y-105942404D01*
X165098493Y-105771897D01*
X164875990Y-105679506D01*
X164635067Y-105679296D01*
X164412404Y-105771298D01*
X164241897Y-105941507D01*
X164149506Y-106164010D01*
X164149296Y-106404933D01*
X157487254Y-106404933D01*
X157333990Y-106251402D01*
X157085254Y-106148118D01*
X156815927Y-106147883D01*
X156567011Y-106250733D01*
X156376402Y-106441010D01*
X156273118Y-106689746D01*
X156272883Y-106959073D01*
X150160695Y-106959073D01*
X150203789Y-106941267D01*
X150394398Y-106750990D01*
X150497682Y-106502254D01*
X150497917Y-106232927D01*
X150395067Y-105984011D01*
X150204790Y-105793402D01*
X149956054Y-105690118D01*
X149686727Y-105689883D01*
X149437811Y-105792733D01*
X149247202Y-105983010D01*
X149143918Y-106231746D01*
X149143683Y-106501073D01*
X112857000Y-106501073D01*
X112857000Y-105120195D01*
X182150788Y-105120195D01*
X182337194Y-105571331D01*
X182682053Y-105916793D01*
X183132864Y-106103986D01*
X183620995Y-106104412D01*
X184072131Y-105918006D01*
X184417593Y-105573147D01*
X184604786Y-105122336D01*
X184605212Y-104634205D01*
X184418806Y-104183069D01*
X184073947Y-103837607D01*
X183623136Y-103650414D01*
X183135005Y-103649988D01*
X182683869Y-103836394D01*
X182338407Y-104181253D01*
X182151214Y-104632064D01*
X182150788Y-105120195D01*
X112857000Y-105120195D01*
X112857000Y-104215073D01*
X128849083Y-104215073D01*
X128951933Y-104463989D01*
X129142210Y-104654598D01*
X129390946Y-104757882D01*
X129660273Y-104758117D01*
X129909189Y-104655267D01*
X130099798Y-104464990D01*
X130203082Y-104216254D01*
X130203197Y-104084073D01*
X154372883Y-104084073D01*
X154475733Y-104332989D01*
X154666010Y-104523598D01*
X154914746Y-104626882D01*
X155184073Y-104627117D01*
X155432989Y-104524267D01*
X155623598Y-104333990D01*
X155716991Y-104109073D01*
X156272883Y-104109073D01*
X156375733Y-104357989D01*
X156566010Y-104548598D01*
X156814746Y-104651882D01*
X157084073Y-104652117D01*
X157332989Y-104549267D01*
X157523598Y-104358990D01*
X157626882Y-104110254D01*
X157627117Y-103840927D01*
X157524267Y-103592011D01*
X157480762Y-103548430D01*
X189160632Y-103548430D01*
X189483766Y-104330474D01*
X190081578Y-104929331D01*
X190863057Y-105253830D01*
X191709230Y-105254568D01*
X192491274Y-104931434D01*
X193090131Y-104333622D01*
X193414630Y-103552143D01*
X193415368Y-102705970D01*
X193092234Y-101923926D01*
X192494422Y-101325069D01*
X191712943Y-101000570D01*
X190866770Y-100999832D01*
X190084726Y-101322966D01*
X189485869Y-101920778D01*
X189161370Y-102702257D01*
X189160632Y-103548430D01*
X157480762Y-103548430D01*
X157333990Y-103401402D01*
X157085254Y-103298118D01*
X156815927Y-103297883D01*
X156567011Y-103400733D01*
X156376402Y-103591010D01*
X156273118Y-103839746D01*
X156272883Y-104109073D01*
X155716991Y-104109073D01*
X155726882Y-104085254D01*
X155727117Y-103815927D01*
X155624267Y-103567011D01*
X155433990Y-103376402D01*
X155185254Y-103273118D01*
X154915927Y-103272883D01*
X154667011Y-103375733D01*
X154476402Y-103566010D01*
X154373118Y-103814746D01*
X154372883Y-104084073D01*
X130203197Y-104084073D01*
X130203317Y-103946927D01*
X130100467Y-103698011D01*
X129910190Y-103507402D01*
X129661454Y-103404118D01*
X129392127Y-103403883D01*
X129143211Y-103506733D01*
X128952602Y-103697010D01*
X128849318Y-103945746D01*
X128849083Y-104215073D01*
X112857000Y-104215073D01*
X112857000Y-102778840D01*
X140671650Y-102778840D01*
X140774500Y-103027756D01*
X140964777Y-103218365D01*
X141213513Y-103321649D01*
X141482840Y-103321884D01*
X141731756Y-103219034D01*
X141922365Y-103028757D01*
X141963400Y-102929933D01*
X143213893Y-102929933D01*
X143305895Y-103152596D01*
X143476104Y-103323103D01*
X143698607Y-103415494D01*
X143939530Y-103415704D01*
X144150041Y-103328723D01*
X144359010Y-103415494D01*
X144599933Y-103415704D01*
X144810444Y-103328723D01*
X145019413Y-103415494D01*
X145260336Y-103415704D01*
X145482999Y-103323702D01*
X145653506Y-103153493D01*
X145745897Y-102930990D01*
X145746107Y-102690067D01*
X145654105Y-102467404D01*
X145483896Y-102296897D01*
X145261393Y-102204506D01*
X145020470Y-102204296D01*
X144809959Y-102291277D01*
X144600990Y-102204506D01*
X144360067Y-102204296D01*
X144149556Y-102291277D01*
X143940587Y-102204506D01*
X143699664Y-102204296D01*
X143477001Y-102296298D01*
X143306494Y-102466507D01*
X143214103Y-102689010D01*
X143213893Y-102929933D01*
X141963400Y-102929933D01*
X142025649Y-102780021D01*
X142025884Y-102510694D01*
X141923034Y-102261778D01*
X141732757Y-102071169D01*
X141484021Y-101967885D01*
X141214694Y-101967650D01*
X140965778Y-102070500D01*
X140775169Y-102260777D01*
X140671885Y-102509513D01*
X140671650Y-102778840D01*
X112857000Y-102778840D01*
X112857000Y-101776673D01*
X135249883Y-101776673D01*
X135352733Y-102025589D01*
X135543010Y-102216198D01*
X135791746Y-102319482D01*
X136061073Y-102319717D01*
X136309989Y-102216867D01*
X136500598Y-102026590D01*
X136603882Y-101777854D01*
X136604019Y-101620195D01*
X182150788Y-101620195D01*
X182337194Y-102071331D01*
X182682053Y-102416793D01*
X183132864Y-102603986D01*
X183620995Y-102604412D01*
X184072131Y-102418006D01*
X184417593Y-102073147D01*
X184604786Y-101622336D01*
X184605212Y-101134205D01*
X184418806Y-100683069D01*
X184073947Y-100337607D01*
X183623136Y-100150414D01*
X183135005Y-100149988D01*
X182683869Y-100336394D01*
X182338407Y-100681253D01*
X182151214Y-101132064D01*
X182150788Y-101620195D01*
X136604019Y-101620195D01*
X136604117Y-101508527D01*
X136501267Y-101259611D01*
X136310990Y-101069002D01*
X136062254Y-100965718D01*
X135792927Y-100965483D01*
X135544011Y-101068333D01*
X135353402Y-101258610D01*
X135250118Y-101507346D01*
X135249883Y-101776673D01*
X112857000Y-101776673D01*
X112857000Y-100963873D01*
X132455883Y-100963873D01*
X132558733Y-101212789D01*
X132749010Y-101403398D01*
X132997746Y-101506682D01*
X133267073Y-101506917D01*
X133515989Y-101404067D01*
X133706598Y-101213790D01*
X133809882Y-100965054D01*
X133810117Y-100695727D01*
X133707267Y-100446811D01*
X133516990Y-100256202D01*
X133268254Y-100152918D01*
X132998927Y-100152683D01*
X132750011Y-100255533D01*
X132559402Y-100445810D01*
X132456118Y-100694546D01*
X132455883Y-100963873D01*
X112857000Y-100963873D01*
X112857000Y-99822244D01*
X139614507Y-99822244D01*
X139706509Y-100044907D01*
X139740829Y-100079287D01*
X139674506Y-100239010D01*
X139674296Y-100479933D01*
X139766298Y-100702596D01*
X139936507Y-100873103D01*
X140159010Y-100965494D01*
X140399933Y-100965704D01*
X140622596Y-100873702D01*
X140691485Y-100804933D01*
X165874296Y-100804933D01*
X165966298Y-101027596D01*
X166136507Y-101198103D01*
X166359010Y-101290494D01*
X166599933Y-101290704D01*
X166822596Y-101198702D01*
X166964527Y-101057019D01*
X167080607Y-101173303D01*
X167303110Y-101265694D01*
X167544033Y-101265904D01*
X167766696Y-101173902D01*
X167937203Y-101003693D01*
X168029594Y-100781190D01*
X168029804Y-100540267D01*
X167937802Y-100317604D01*
X167767593Y-100147097D01*
X167545090Y-100054706D01*
X167304167Y-100054496D01*
X167081504Y-100146498D01*
X166939573Y-100288181D01*
X166823493Y-100171897D01*
X166600990Y-100079506D01*
X166360067Y-100079296D01*
X166137404Y-100171298D01*
X165966897Y-100341507D01*
X165874506Y-100564010D01*
X165874296Y-100804933D01*
X140691485Y-100804933D01*
X140793103Y-100703493D01*
X140885494Y-100480990D01*
X140885704Y-100240067D01*
X140793702Y-100017404D01*
X140759382Y-99983024D01*
X140825705Y-99823301D01*
X140825915Y-99582378D01*
X140733913Y-99359715D01*
X140563704Y-99189208D01*
X140341201Y-99096817D01*
X140100278Y-99096607D01*
X139877615Y-99188609D01*
X139707108Y-99358818D01*
X139614717Y-99581321D01*
X139614507Y-99822244D01*
X112857000Y-99822244D01*
X112857000Y-97823574D01*
X113862421Y-97823574D01*
X114064172Y-98234463D01*
X114404862Y-98521702D01*
X114829540Y-98656700D01*
X115104540Y-98656700D01*
X115104540Y-97648700D01*
X115358540Y-97648700D01*
X115358540Y-98656700D01*
X115633540Y-98656700D01*
X116058218Y-98521702D01*
X116280762Y-98334073D01*
X130122883Y-98334073D01*
X130225733Y-98582989D01*
X130378049Y-98735571D01*
X130285068Y-98959496D01*
X130284833Y-99228823D01*
X130387683Y-99477739D01*
X130577960Y-99668348D01*
X130826696Y-99771632D01*
X131096023Y-99771867D01*
X131344939Y-99669017D01*
X131535548Y-99478740D01*
X131638832Y-99230004D01*
X131639067Y-98960677D01*
X131536217Y-98711761D01*
X131383901Y-98559179D01*
X131408443Y-98500073D01*
X132024083Y-98500073D01*
X132126933Y-98748989D01*
X132317210Y-98939598D01*
X132565946Y-99042882D01*
X132835273Y-99043117D01*
X133084189Y-98940267D01*
X133274798Y-98749990D01*
X133378082Y-98501254D01*
X133378317Y-98231927D01*
X133279212Y-97992073D01*
X139339283Y-97992073D01*
X139442133Y-98240989D01*
X139632410Y-98431598D01*
X139881146Y-98534882D01*
X140150473Y-98535117D01*
X140399389Y-98432267D01*
X140577032Y-98254933D01*
X163999296Y-98254933D01*
X164091298Y-98477596D01*
X164261507Y-98648103D01*
X164484010Y-98740494D01*
X164724933Y-98740704D01*
X164947596Y-98648702D01*
X165118103Y-98478493D01*
X165132486Y-98443856D01*
X165261507Y-98573103D01*
X165484010Y-98665494D01*
X165724933Y-98665704D01*
X165947596Y-98573702D01*
X166118103Y-98403493D01*
X166210494Y-98180990D01*
X166210704Y-97940067D01*
X166118702Y-97717404D01*
X165948493Y-97546897D01*
X165725990Y-97454506D01*
X165485067Y-97454296D01*
X165262404Y-97546298D01*
X165091897Y-97716507D01*
X165077514Y-97751144D01*
X164948493Y-97621897D01*
X164725990Y-97529506D01*
X164485067Y-97529296D01*
X164262404Y-97621298D01*
X164091897Y-97791507D01*
X163999506Y-98014010D01*
X163999296Y-98254933D01*
X140577032Y-98254933D01*
X140589998Y-98241990D01*
X140693282Y-97993254D01*
X140693517Y-97723927D01*
X140590667Y-97475011D01*
X140400390Y-97284402D01*
X140151654Y-97181118D01*
X139882327Y-97180883D01*
X139633411Y-97283733D01*
X139442802Y-97474010D01*
X139339518Y-97722746D01*
X139339283Y-97992073D01*
X133279212Y-97992073D01*
X133275467Y-97983011D01*
X133085190Y-97792402D01*
X132836454Y-97689118D01*
X132567127Y-97688883D01*
X132318211Y-97791733D01*
X132127602Y-97982010D01*
X132024318Y-98230746D01*
X132024083Y-98500073D01*
X131408443Y-98500073D01*
X131476882Y-98335254D01*
X131477117Y-98065927D01*
X131374267Y-97817011D01*
X131183990Y-97626402D01*
X130935254Y-97523118D01*
X130665927Y-97522883D01*
X130417011Y-97625733D01*
X130226402Y-97816010D01*
X130123118Y-98064746D01*
X130122883Y-98334073D01*
X116280762Y-98334073D01*
X116398908Y-98234463D01*
X116600659Y-97823574D01*
X116474494Y-97648700D01*
X115358540Y-97648700D01*
X115104540Y-97648700D01*
X113988586Y-97648700D01*
X113862421Y-97823574D01*
X112857000Y-97823574D01*
X112857000Y-97219826D01*
X113862421Y-97219826D01*
X113988586Y-97394700D01*
X115104540Y-97394700D01*
X115104540Y-96386700D01*
X115358540Y-96386700D01*
X115358540Y-97394700D01*
X116474494Y-97394700D01*
X116600659Y-97219826D01*
X116405731Y-96822831D01*
X116830311Y-96822831D01*
X116971972Y-97232749D01*
X117259719Y-97557252D01*
X117633602Y-97740968D01*
X117804540Y-97614434D01*
X117804540Y-96648700D01*
X118058540Y-96648700D01*
X118058540Y-97614434D01*
X118229478Y-97740968D01*
X118603361Y-97557252D01*
X118891108Y-97232749D01*
X118962255Y-97026873D01*
X123819883Y-97026873D01*
X123922733Y-97275789D01*
X124113010Y-97466398D01*
X124361746Y-97569682D01*
X124631073Y-97569917D01*
X124879989Y-97467067D01*
X125070598Y-97276790D01*
X125173882Y-97028054D01*
X125174117Y-96758727D01*
X125122612Y-96634073D01*
X129772883Y-96634073D01*
X129875733Y-96882989D01*
X130066010Y-97073598D01*
X130314746Y-97176882D01*
X130584073Y-97177117D01*
X130832989Y-97074267D01*
X131023598Y-96883990D01*
X131126882Y-96635254D01*
X131127117Y-96365927D01*
X131024267Y-96117011D01*
X130833990Y-95926402D01*
X130585254Y-95823118D01*
X130315927Y-95822883D01*
X130067011Y-95925733D01*
X129876402Y-96116010D01*
X129773118Y-96364746D01*
X129772883Y-96634073D01*
X125122612Y-96634073D01*
X125071267Y-96509811D01*
X124880990Y-96319202D01*
X124632254Y-96215918D01*
X124362927Y-96215683D01*
X124114011Y-96318533D01*
X123923402Y-96508810D01*
X123820118Y-96757546D01*
X123819883Y-97026873D01*
X118962255Y-97026873D01*
X119032769Y-96822831D01*
X118884103Y-96648700D01*
X118058540Y-96648700D01*
X117804540Y-96648700D01*
X116978977Y-96648700D01*
X116830311Y-96822831D01*
X116405731Y-96822831D01*
X116398908Y-96808937D01*
X116058218Y-96521698D01*
X115633540Y-96386700D01*
X115358540Y-96386700D01*
X115104540Y-96386700D01*
X114829540Y-96386700D01*
X114404862Y-96521698D01*
X114064172Y-96808937D01*
X113862421Y-97219826D01*
X112857000Y-97219826D01*
X112857000Y-96220569D01*
X116830311Y-96220569D01*
X116978977Y-96394700D01*
X117804540Y-96394700D01*
X117804540Y-95428966D01*
X118058540Y-95428966D01*
X118058540Y-96394700D01*
X118884103Y-96394700D01*
X119032769Y-96220569D01*
X118891108Y-95810651D01*
X118618192Y-95502873D01*
X132862283Y-95502873D01*
X132965133Y-95751789D01*
X133155410Y-95942398D01*
X133404146Y-96045682D01*
X133673473Y-96045917D01*
X133833166Y-95979933D01*
X150974296Y-95979933D01*
X151066298Y-96202596D01*
X151236507Y-96373103D01*
X151459010Y-96465494D01*
X151481557Y-96465514D01*
X151555999Y-96645679D01*
X151726208Y-96816186D01*
X151948711Y-96908577D01*
X152189634Y-96908787D01*
X152412297Y-96816785D01*
X152582804Y-96646576D01*
X152675195Y-96424073D01*
X152675405Y-96183150D01*
X152583403Y-95960487D01*
X152577122Y-95954195D01*
X182135988Y-95954195D01*
X182322394Y-96405331D01*
X182667253Y-96750793D01*
X183118064Y-96937986D01*
X183606195Y-96938412D01*
X184057331Y-96752006D01*
X184402793Y-96407147D01*
X184589986Y-95956336D01*
X184590412Y-95468205D01*
X184404006Y-95017069D01*
X184059147Y-94671607D01*
X183608336Y-94484414D01*
X183120205Y-94483988D01*
X182669069Y-94670394D01*
X182323607Y-95015253D01*
X182136414Y-95466064D01*
X182135988Y-95954195D01*
X152577122Y-95954195D01*
X152413194Y-95789980D01*
X152190691Y-95697589D01*
X152168144Y-95697569D01*
X152093702Y-95517404D01*
X151923493Y-95346897D01*
X151700990Y-95254506D01*
X151460067Y-95254296D01*
X151237404Y-95346298D01*
X151066897Y-95516507D01*
X150974506Y-95739010D01*
X150974296Y-95979933D01*
X133833166Y-95979933D01*
X133922389Y-95943067D01*
X134112998Y-95752790D01*
X134216282Y-95504054D01*
X134216517Y-95234727D01*
X134113667Y-94985811D01*
X133923390Y-94795202D01*
X133674654Y-94691918D01*
X133405327Y-94691683D01*
X133156411Y-94794533D01*
X132965802Y-94984810D01*
X132862518Y-95233546D01*
X132862283Y-95502873D01*
X118618192Y-95502873D01*
X118603361Y-95486148D01*
X118229478Y-95302432D01*
X118058540Y-95428966D01*
X117804540Y-95428966D01*
X117633602Y-95302432D01*
X117259719Y-95486148D01*
X116971972Y-95810651D01*
X116830311Y-96220569D01*
X112857000Y-96220569D01*
X112857000Y-93648673D01*
X142565083Y-93648673D01*
X142667933Y-93897589D01*
X142856370Y-94086355D01*
X142676402Y-94266010D01*
X142573118Y-94514746D01*
X142572883Y-94784073D01*
X142675733Y-95032989D01*
X142866010Y-95223598D01*
X143114746Y-95326882D01*
X143384073Y-95327117D01*
X143632989Y-95224267D01*
X143823598Y-95033990D01*
X143926882Y-94785254D01*
X143927117Y-94515927D01*
X143871958Y-94382430D01*
X189145832Y-94382430D01*
X189468966Y-95164474D01*
X190066778Y-95763331D01*
X190848257Y-96087830D01*
X191694430Y-96088568D01*
X192476474Y-95765434D01*
X193075331Y-95167622D01*
X193399830Y-94386143D01*
X193400568Y-93539970D01*
X193077434Y-92757926D01*
X192479622Y-92159069D01*
X191698143Y-91834570D01*
X190851970Y-91833832D01*
X190069926Y-92156966D01*
X189471069Y-92754778D01*
X189146570Y-93536257D01*
X189145832Y-94382430D01*
X143871958Y-94382430D01*
X143824267Y-94267011D01*
X143635830Y-94078245D01*
X143815798Y-93898590D01*
X143919082Y-93649854D01*
X143919317Y-93380527D01*
X143816467Y-93131611D01*
X143626190Y-92941002D01*
X143377454Y-92837718D01*
X143108127Y-92837483D01*
X142859211Y-92940333D01*
X142668602Y-93130610D01*
X142565318Y-93379346D01*
X142565083Y-93648673D01*
X112857000Y-93648673D01*
X112857000Y-93039073D01*
X132963883Y-93039073D01*
X133066733Y-93287989D01*
X133257010Y-93478598D01*
X133505746Y-93581882D01*
X133775073Y-93582117D01*
X134023989Y-93479267D01*
X134214598Y-93288990D01*
X134317882Y-93040254D01*
X134318117Y-92770927D01*
X134224383Y-92544073D01*
X149752883Y-92544073D01*
X149855733Y-92792989D01*
X150046010Y-92983598D01*
X150294746Y-93086882D01*
X150564073Y-93087117D01*
X150812989Y-92984267D01*
X151003598Y-92793990D01*
X151106882Y-92545254D01*
X151106923Y-92497364D01*
X154724296Y-92497364D01*
X154816298Y-92720027D01*
X154986507Y-92890534D01*
X155209010Y-92982925D01*
X155449933Y-92983135D01*
X155672596Y-92891133D01*
X155843103Y-92720924D01*
X155935494Y-92498421D01*
X155935532Y-92454195D01*
X182135988Y-92454195D01*
X182322394Y-92905331D01*
X182667253Y-93250793D01*
X183118064Y-93437986D01*
X183606195Y-93438412D01*
X184057331Y-93252006D01*
X184402793Y-92907147D01*
X184589986Y-92456336D01*
X184590412Y-91968205D01*
X184404006Y-91517069D01*
X184059147Y-91171607D01*
X183608336Y-90984414D01*
X183120205Y-90983988D01*
X182669069Y-91170394D01*
X182323607Y-91515253D01*
X182136414Y-91966064D01*
X182135988Y-92454195D01*
X155935532Y-92454195D01*
X155935704Y-92257498D01*
X155843702Y-92034835D01*
X155673493Y-91864328D01*
X155450990Y-91771937D01*
X155210067Y-91771727D01*
X154987404Y-91863729D01*
X154816897Y-92033938D01*
X154724506Y-92256441D01*
X154724296Y-92497364D01*
X151106923Y-92497364D01*
X151107117Y-92275927D01*
X151004267Y-92027011D01*
X150813990Y-91836402D01*
X150565254Y-91733118D01*
X150295927Y-91732883D01*
X150047011Y-91835733D01*
X149856402Y-92026010D01*
X149753118Y-92274746D01*
X149752883Y-92544073D01*
X134224383Y-92544073D01*
X134215267Y-92522011D01*
X134024990Y-92331402D01*
X133776254Y-92228118D01*
X133506927Y-92227883D01*
X133258011Y-92330733D01*
X133067402Y-92521010D01*
X132964118Y-92769746D01*
X132963883Y-93039073D01*
X112857000Y-93039073D01*
X112857000Y-91822831D01*
X116830311Y-91822831D01*
X116971972Y-92232749D01*
X117259719Y-92557252D01*
X117633602Y-92740968D01*
X117804540Y-92614434D01*
X117804540Y-91648700D01*
X118058540Y-91648700D01*
X118058540Y-92614434D01*
X118229478Y-92740968D01*
X118603361Y-92557252D01*
X118891108Y-92232749D01*
X119032769Y-91822831D01*
X118884103Y-91648700D01*
X118058540Y-91648700D01*
X117804540Y-91648700D01*
X116978977Y-91648700D01*
X116830311Y-91822831D01*
X112857000Y-91822831D01*
X112857000Y-90823574D01*
X113862421Y-90823574D01*
X114064172Y-91234463D01*
X114404862Y-91521702D01*
X114829540Y-91656700D01*
X115104540Y-91656700D01*
X115104540Y-90648700D01*
X115358540Y-90648700D01*
X115358540Y-91656700D01*
X115633540Y-91656700D01*
X116058218Y-91521702D01*
X116398908Y-91234463D01*
X116405730Y-91220569D01*
X116830311Y-91220569D01*
X116978977Y-91394700D01*
X117804540Y-91394700D01*
X117804540Y-90428966D01*
X118058540Y-90428966D01*
X118058540Y-91394700D01*
X118884103Y-91394700D01*
X119032769Y-91220569D01*
X118891108Y-90810651D01*
X118603361Y-90486148D01*
X118229478Y-90302432D01*
X118058540Y-90428966D01*
X117804540Y-90428966D01*
X117633602Y-90302432D01*
X117259719Y-90486148D01*
X116971972Y-90810651D01*
X116830311Y-91220569D01*
X116405730Y-91220569D01*
X116600659Y-90823574D01*
X116474494Y-90648700D01*
X115358540Y-90648700D01*
X115104540Y-90648700D01*
X113988586Y-90648700D01*
X113862421Y-90823574D01*
X112857000Y-90823574D01*
X112857000Y-90219826D01*
X113862421Y-90219826D01*
X113988586Y-90394700D01*
X115104540Y-90394700D01*
X115104540Y-89386700D01*
X115358540Y-89386700D01*
X115358540Y-90394700D01*
X116474494Y-90394700D01*
X116600659Y-90219826D01*
X116525754Y-90067273D01*
X140177483Y-90067273D01*
X140280333Y-90316189D01*
X140470610Y-90506798D01*
X140719346Y-90610082D01*
X140988673Y-90610317D01*
X141237589Y-90507467D01*
X141428198Y-90317190D01*
X141531482Y-90068454D01*
X141531483Y-90067273D01*
X145968683Y-90067273D01*
X146071533Y-90316189D01*
X146261810Y-90506798D01*
X146510546Y-90610082D01*
X146779873Y-90610317D01*
X147028789Y-90507467D01*
X147219398Y-90317190D01*
X147322682Y-90068454D01*
X147322917Y-89799127D01*
X147220067Y-89550211D01*
X147029790Y-89359602D01*
X146781054Y-89256318D01*
X146511727Y-89256083D01*
X146262811Y-89358933D01*
X146072202Y-89549210D01*
X145968918Y-89797946D01*
X145968683Y-90067273D01*
X141531483Y-90067273D01*
X141531717Y-89799127D01*
X141428867Y-89550211D01*
X141238590Y-89359602D01*
X140989854Y-89256318D01*
X140720527Y-89256083D01*
X140471611Y-89358933D01*
X140281002Y-89549210D01*
X140177718Y-89797946D01*
X140177483Y-90067273D01*
X116525754Y-90067273D01*
X116398908Y-89808937D01*
X116058218Y-89521698D01*
X115633540Y-89386700D01*
X115358540Y-89386700D01*
X115104540Y-89386700D01*
X114829540Y-89386700D01*
X114404862Y-89521698D01*
X114064172Y-89808937D01*
X113862421Y-90219826D01*
X112857000Y-90219826D01*
X112857000Y-86144073D01*
X141252883Y-86144073D01*
X141355733Y-86392989D01*
X141546010Y-86583598D01*
X141794746Y-86686882D01*
X142064073Y-86687117D01*
X142312989Y-86584267D01*
X142467592Y-86429933D01*
X154074296Y-86429933D01*
X154166298Y-86652596D01*
X154336507Y-86823103D01*
X154559010Y-86915494D01*
X154799933Y-86915704D01*
X155022596Y-86823702D01*
X155041936Y-86804395D01*
X182125388Y-86804395D01*
X182311794Y-87255531D01*
X182656653Y-87600993D01*
X183107464Y-87788186D01*
X183595595Y-87788612D01*
X184046731Y-87602206D01*
X184392193Y-87257347D01*
X184579386Y-86806536D01*
X184579812Y-86318405D01*
X184393406Y-85867269D01*
X184048547Y-85521807D01*
X183597736Y-85334614D01*
X183109605Y-85334188D01*
X182658469Y-85520594D01*
X182313007Y-85865453D01*
X182125814Y-86316264D01*
X182125388Y-86804395D01*
X155041936Y-86804395D01*
X155193103Y-86653493D01*
X155285494Y-86430990D01*
X155285704Y-86190067D01*
X155193702Y-85967404D01*
X155023493Y-85796897D01*
X154800990Y-85704506D01*
X154560067Y-85704296D01*
X154337404Y-85796298D01*
X154166897Y-85966507D01*
X154074506Y-86189010D01*
X154074296Y-86429933D01*
X142467592Y-86429933D01*
X142503598Y-86393990D01*
X142606882Y-86145254D01*
X142607117Y-85875927D01*
X142504267Y-85627011D01*
X142313990Y-85436402D01*
X142065254Y-85333118D01*
X141795927Y-85332883D01*
X141547011Y-85435733D01*
X141356402Y-85626010D01*
X141253118Y-85874746D01*
X141252883Y-86144073D01*
X112857000Y-86144073D01*
X112857000Y-84964933D01*
X158064296Y-84964933D01*
X158156298Y-85187596D01*
X158326507Y-85358103D01*
X158549010Y-85450494D01*
X158581676Y-85450522D01*
X158581568Y-85574333D01*
X158673570Y-85796996D01*
X158843779Y-85967503D01*
X159066282Y-86059894D01*
X159307205Y-86060104D01*
X159529868Y-85968102D01*
X159700375Y-85797893D01*
X159792766Y-85575390D01*
X159792976Y-85334467D01*
X159750899Y-85232630D01*
X189135232Y-85232630D01*
X189458366Y-86014674D01*
X190056178Y-86613531D01*
X190837657Y-86938030D01*
X191683830Y-86938768D01*
X192465874Y-86615634D01*
X193064731Y-86017822D01*
X193389230Y-85236343D01*
X193389968Y-84390170D01*
X193066834Y-83608126D01*
X192469022Y-83009269D01*
X191687543Y-82684770D01*
X190841370Y-82684032D01*
X190059326Y-83007166D01*
X189460469Y-83604978D01*
X189135970Y-84386457D01*
X189135232Y-85232630D01*
X159750899Y-85232630D01*
X159700974Y-85111804D01*
X159530765Y-84941297D01*
X159370870Y-84874903D01*
X159577321Y-84789600D01*
X159747828Y-84619391D01*
X159840219Y-84396888D01*
X159840429Y-84155965D01*
X159748427Y-83933302D01*
X159578218Y-83762795D01*
X159355715Y-83670404D01*
X159114792Y-83670194D01*
X158892129Y-83762196D01*
X158721622Y-83932405D01*
X158629231Y-84154908D01*
X158629157Y-84239365D01*
X158550067Y-84239296D01*
X158327404Y-84331298D01*
X158156897Y-84501507D01*
X158064506Y-84724010D01*
X158064296Y-84964933D01*
X112857000Y-84964933D01*
X112857000Y-83304395D01*
X182125388Y-83304395D01*
X182311794Y-83755531D01*
X182656653Y-84100993D01*
X183107464Y-84288186D01*
X183595595Y-84288612D01*
X184046731Y-84102206D01*
X184392193Y-83757347D01*
X184579386Y-83306536D01*
X184579812Y-82818405D01*
X184393406Y-82367269D01*
X184048547Y-82021807D01*
X183597736Y-81834614D01*
X183109605Y-81834188D01*
X182658469Y-82020594D01*
X182313007Y-82365453D01*
X182125814Y-82816264D01*
X182125388Y-83304395D01*
X112857000Y-83304395D01*
X112857000Y-77330000D01*
X119868591Y-77330000D01*
X119954616Y-77762474D01*
X120199593Y-78129108D01*
X120566227Y-78374085D01*
X120998701Y-78460110D01*
X122581299Y-78460110D01*
X123013773Y-78374085D01*
X123325294Y-78165933D01*
X181422296Y-78165933D01*
X181514298Y-78388596D01*
X181684507Y-78559103D01*
X181907010Y-78651494D01*
X182147933Y-78651704D01*
X182370596Y-78559702D01*
X182541103Y-78389493D01*
X182633494Y-78166990D01*
X182633704Y-77926067D01*
X182624504Y-77903800D01*
X186927991Y-77903800D01*
X187014016Y-78336274D01*
X187258993Y-78702908D01*
X187625627Y-78947885D01*
X188058101Y-79033910D01*
X189640699Y-79033910D01*
X190073173Y-78947885D01*
X190439807Y-78702908D01*
X190684784Y-78336274D01*
X190770809Y-77903800D01*
X190684784Y-77471326D01*
X190439807Y-77104692D01*
X190073173Y-76859715D01*
X189640699Y-76773690D01*
X188058101Y-76773690D01*
X187625627Y-76859715D01*
X187258993Y-77104692D01*
X187014016Y-77471326D01*
X186927991Y-77903800D01*
X182624504Y-77903800D01*
X182541702Y-77703404D01*
X182371493Y-77532897D01*
X182148990Y-77440506D01*
X181908067Y-77440296D01*
X181685404Y-77532298D01*
X181514897Y-77702507D01*
X181422506Y-77925010D01*
X181422296Y-78165933D01*
X123325294Y-78165933D01*
X123380407Y-78129108D01*
X123625384Y-77762474D01*
X123696674Y-77404073D01*
X160342883Y-77404073D01*
X160445733Y-77652989D01*
X160636010Y-77843598D01*
X160884746Y-77946882D01*
X161154073Y-77947117D01*
X161402989Y-77844267D01*
X161593598Y-77653990D01*
X161696882Y-77405254D01*
X161697117Y-77135927D01*
X161594267Y-76887011D01*
X161403990Y-76696402D01*
X161155254Y-76593118D01*
X160885927Y-76592883D01*
X160637011Y-76695733D01*
X160446402Y-76886010D01*
X160343118Y-77134746D01*
X160342883Y-77404073D01*
X123696674Y-77404073D01*
X123711409Y-77330000D01*
X123625384Y-76897526D01*
X123380407Y-76530892D01*
X123100813Y-76344073D01*
X142702883Y-76344073D01*
X142805733Y-76592989D01*
X142996010Y-76783598D01*
X143244746Y-76886882D01*
X143514073Y-76887117D01*
X143762989Y-76784267D01*
X143953598Y-76593990D01*
X144056882Y-76345254D01*
X144057117Y-76075927D01*
X143954267Y-75827011D01*
X143763990Y-75636402D01*
X143515254Y-75533118D01*
X143245927Y-75532883D01*
X142997011Y-75635733D01*
X142806402Y-75826010D01*
X142703118Y-76074746D01*
X142702883Y-76344073D01*
X123100813Y-76344073D01*
X123013773Y-76285915D01*
X122581299Y-76199890D01*
X120998701Y-76199890D01*
X120566227Y-76285915D01*
X120199593Y-76530892D01*
X119954616Y-76897526D01*
X119868591Y-77330000D01*
X112857000Y-77330000D01*
X112857000Y-75131674D01*
X119690217Y-75131674D01*
X119704573Y-75203875D01*
X119964276Y-75681740D01*
X120387081Y-76023846D01*
X120908620Y-76178110D01*
X121663000Y-76178110D01*
X121663000Y-74917000D01*
X121917000Y-74917000D01*
X121917000Y-76178110D01*
X122671380Y-76178110D01*
X123192919Y-76023846D01*
X123615724Y-75681740D01*
X123875427Y-75203875D01*
X123889783Y-75131674D01*
X123767162Y-74917000D01*
X121917000Y-74917000D01*
X121663000Y-74917000D01*
X119812838Y-74917000D01*
X119690217Y-75131674D01*
X112857000Y-75131674D01*
X112857000Y-74448326D01*
X119690217Y-74448326D01*
X119812838Y-74663000D01*
X121663000Y-74663000D01*
X121663000Y-73401890D01*
X121917000Y-73401890D01*
X121917000Y-74663000D01*
X123767162Y-74663000D01*
X123889783Y-74448326D01*
X123875427Y-74376125D01*
X123615724Y-73898260D01*
X123192919Y-73556154D01*
X122898514Y-73469073D01*
X176402883Y-73469073D01*
X176505733Y-73717989D01*
X176610077Y-73822515D01*
X176506402Y-73926010D01*
X176403118Y-74174746D01*
X176402883Y-74444073D01*
X176505733Y-74692989D01*
X176572577Y-74759950D01*
X176506402Y-74826010D01*
X176403118Y-75074746D01*
X176402883Y-75344073D01*
X176505733Y-75592989D01*
X176696010Y-75783598D01*
X176944746Y-75886882D01*
X177214073Y-75887117D01*
X177462989Y-75784267D01*
X177653598Y-75593990D01*
X177749181Y-75363800D01*
X186927991Y-75363800D01*
X187014016Y-75796274D01*
X187258993Y-76162908D01*
X187625627Y-76407885D01*
X188058101Y-76493910D01*
X189640699Y-76493910D01*
X190073173Y-76407885D01*
X190439807Y-76162908D01*
X190684784Y-75796274D01*
X190770809Y-75363800D01*
X190684784Y-74931326D01*
X190439807Y-74564692D01*
X190073173Y-74319715D01*
X189640699Y-74233690D01*
X188058101Y-74233690D01*
X187625627Y-74319715D01*
X187258993Y-74564692D01*
X187014016Y-74931326D01*
X186927991Y-75363800D01*
X177749181Y-75363800D01*
X177756882Y-75345254D01*
X177757117Y-75075927D01*
X177654267Y-74827011D01*
X177587423Y-74760050D01*
X177653598Y-74693990D01*
X177756882Y-74445254D01*
X177757117Y-74175927D01*
X177654267Y-73927011D01*
X177549923Y-73822485D01*
X177653598Y-73718990D01*
X177756882Y-73470254D01*
X177757117Y-73200927D01*
X177654267Y-72952011D01*
X177534399Y-72831933D01*
X181168296Y-72831933D01*
X181260298Y-73054596D01*
X181430507Y-73225103D01*
X181653010Y-73317494D01*
X181893933Y-73317704D01*
X182116596Y-73225702D01*
X182287103Y-73055493D01*
X182379494Y-72832990D01*
X182379561Y-72755000D01*
X186933591Y-72755000D01*
X187019616Y-73187474D01*
X187264593Y-73554108D01*
X187631227Y-73799085D01*
X188063701Y-73885110D01*
X189646299Y-73885110D01*
X190078773Y-73799085D01*
X190445407Y-73554108D01*
X190690384Y-73187474D01*
X190776409Y-72755000D01*
X190690384Y-72322526D01*
X190445407Y-71955892D01*
X190078773Y-71710915D01*
X189646299Y-71624890D01*
X188063701Y-71624890D01*
X187631227Y-71710915D01*
X187264593Y-71955892D01*
X187019616Y-72322526D01*
X186933591Y-72755000D01*
X182379561Y-72755000D01*
X182379704Y-72592067D01*
X182287702Y-72369404D01*
X182117493Y-72198897D01*
X181894990Y-72106506D01*
X181654067Y-72106296D01*
X181431404Y-72198298D01*
X181260897Y-72368507D01*
X181168506Y-72591010D01*
X181168296Y-72831933D01*
X177534399Y-72831933D01*
X177463990Y-72761402D01*
X177215254Y-72658118D01*
X176945927Y-72657883D01*
X176697011Y-72760733D01*
X176506402Y-72951010D01*
X176403118Y-73199746D01*
X176402883Y-73469073D01*
X122898514Y-73469073D01*
X122671380Y-73401890D01*
X121917000Y-73401890D01*
X121663000Y-73401890D01*
X120908620Y-73401890D01*
X120387081Y-73556154D01*
X119964276Y-73898260D01*
X119704573Y-74376125D01*
X119690217Y-74448326D01*
X112857000Y-74448326D01*
X112857000Y-69181230D01*
X114842632Y-69181230D01*
X115165766Y-69963274D01*
X115763578Y-70562131D01*
X116545057Y-70886630D01*
X117391230Y-70887368D01*
X117716437Y-70752995D01*
X123652788Y-70752995D01*
X123839194Y-71204131D01*
X124184053Y-71549593D01*
X124634864Y-71736786D01*
X125122995Y-71737212D01*
X125574131Y-71550806D01*
X125919593Y-71205947D01*
X126106786Y-70755136D01*
X126107212Y-70267005D01*
X126097737Y-70244073D01*
X147102883Y-70244073D01*
X147205733Y-70492989D01*
X147396010Y-70683598D01*
X147644746Y-70786882D01*
X147914073Y-70787117D01*
X148162989Y-70684267D01*
X148353598Y-70493990D01*
X148456882Y-70245254D01*
X148456908Y-70215000D01*
X186933591Y-70215000D01*
X187019616Y-70647474D01*
X187264593Y-71014108D01*
X187631227Y-71259085D01*
X188063701Y-71345110D01*
X189646299Y-71345110D01*
X190078773Y-71259085D01*
X190445407Y-71014108D01*
X190690384Y-70647474D01*
X190776409Y-70215000D01*
X190690384Y-69782526D01*
X190445407Y-69415892D01*
X190078773Y-69170915D01*
X189646299Y-69084890D01*
X188063701Y-69084890D01*
X187631227Y-69170915D01*
X187264593Y-69415892D01*
X187019616Y-69782526D01*
X186933591Y-70215000D01*
X148456908Y-70215000D01*
X148457117Y-69975927D01*
X148354267Y-69727011D01*
X148163990Y-69536402D01*
X147915254Y-69433118D01*
X147645927Y-69432883D01*
X147397011Y-69535733D01*
X147206402Y-69726010D01*
X147103118Y-69974746D01*
X147102883Y-70244073D01*
X126097737Y-70244073D01*
X125920806Y-69815869D01*
X125575947Y-69470407D01*
X125125136Y-69283214D01*
X124637005Y-69282788D01*
X124185869Y-69469194D01*
X123840407Y-69814053D01*
X123653214Y-70264864D01*
X123652788Y-70752995D01*
X117716437Y-70752995D01*
X118173274Y-70564234D01*
X118772131Y-69966422D01*
X119096630Y-69184943D01*
X119097368Y-68338770D01*
X118979687Y-68053958D01*
X124015647Y-68053958D01*
X124095920Y-68305259D01*
X124651279Y-68506718D01*
X125241458Y-68480315D01*
X125664080Y-68305259D01*
X125744353Y-68053958D01*
X124880000Y-67189605D01*
X124015647Y-68053958D01*
X118979687Y-68053958D01*
X118774234Y-67556726D01*
X118176422Y-66957869D01*
X117751147Y-66781279D01*
X123383282Y-66781279D01*
X123409685Y-67371458D01*
X123584741Y-67794080D01*
X123836042Y-67874353D01*
X124700395Y-67010000D01*
X125059605Y-67010000D01*
X125923958Y-67874353D01*
X126175259Y-67794080D01*
X126190548Y-67751933D01*
X181422296Y-67751933D01*
X181514298Y-67974596D01*
X181684507Y-68145103D01*
X181907010Y-68237494D01*
X182147933Y-68237704D01*
X182370596Y-68145702D01*
X182541103Y-67975493D01*
X182633494Y-67752990D01*
X182633639Y-67586000D01*
X186933591Y-67586000D01*
X187019616Y-68018474D01*
X187264593Y-68385108D01*
X187631227Y-68630085D01*
X188063701Y-68716110D01*
X189646299Y-68716110D01*
X190078773Y-68630085D01*
X190445407Y-68385108D01*
X190690384Y-68018474D01*
X190776409Y-67586000D01*
X190690384Y-67153526D01*
X190445407Y-66786892D01*
X190078773Y-66541915D01*
X189646299Y-66455890D01*
X188063701Y-66455890D01*
X187631227Y-66541915D01*
X187264593Y-66786892D01*
X187019616Y-67153526D01*
X186933591Y-67586000D01*
X182633639Y-67586000D01*
X182633704Y-67512067D01*
X182541702Y-67289404D01*
X182371493Y-67118897D01*
X182148990Y-67026506D01*
X181908067Y-67026296D01*
X181685404Y-67118298D01*
X181514897Y-67288507D01*
X181422506Y-67511010D01*
X181422296Y-67751933D01*
X126190548Y-67751933D01*
X126376718Y-67238721D01*
X126350315Y-66648542D01*
X126175259Y-66225920D01*
X125923958Y-66145647D01*
X125059605Y-67010000D01*
X124700395Y-67010000D01*
X123836042Y-66145647D01*
X123584741Y-66225920D01*
X123383282Y-66781279D01*
X117751147Y-66781279D01*
X117394943Y-66633370D01*
X116548770Y-66632632D01*
X115766726Y-66955766D01*
X115167869Y-67553578D01*
X114843370Y-68335057D01*
X114842632Y-69181230D01*
X112857000Y-69181230D01*
X112857000Y-65966042D01*
X124015647Y-65966042D01*
X124880000Y-66830395D01*
X125744353Y-65966042D01*
X125664080Y-65714741D01*
X125108721Y-65513282D01*
X124518542Y-65539685D01*
X124095920Y-65714741D01*
X124015647Y-65966042D01*
X112857000Y-65966042D01*
X112857000Y-65046000D01*
X186933591Y-65046000D01*
X187019616Y-65478474D01*
X187264593Y-65845108D01*
X187631227Y-66090085D01*
X188063701Y-66176110D01*
X189646299Y-66176110D01*
X190078773Y-66090085D01*
X190445407Y-65845108D01*
X190690384Y-65478474D01*
X190776409Y-65046000D01*
X190690384Y-64613526D01*
X190445407Y-64246892D01*
X190078773Y-64001915D01*
X189646299Y-63915890D01*
X188063701Y-63915890D01*
X187631227Y-64001915D01*
X187264593Y-64246892D01*
X187019616Y-64613526D01*
X186933591Y-65046000D01*
X112857000Y-65046000D01*
X112857000Y-63749933D01*
X178454296Y-63749933D01*
X178546298Y-63972596D01*
X178716507Y-64143103D01*
X178939010Y-64235494D01*
X179179933Y-64235704D01*
X179402596Y-64143702D01*
X179573103Y-63973493D01*
X179665494Y-63750990D01*
X179665704Y-63510067D01*
X179573702Y-63287404D01*
X179403493Y-63116897D01*
X179180990Y-63024506D01*
X178940067Y-63024296D01*
X178717404Y-63116298D01*
X178546897Y-63286507D01*
X178454506Y-63509010D01*
X178454296Y-63749933D01*
X112857000Y-63749933D01*
X112857000Y-59718388D01*
X116352380Y-59718388D01*
X116895798Y-61033561D01*
X117901146Y-62040665D01*
X119215369Y-62586378D01*
X120638388Y-62587620D01*
X121953561Y-62044202D01*
X122960665Y-61038854D01*
X123506378Y-59724631D01*
X123506797Y-59244073D01*
X160502883Y-59244073D01*
X160605733Y-59492989D01*
X160796010Y-59683598D01*
X161044746Y-59786882D01*
X161314073Y-59787117D01*
X161562989Y-59684267D01*
X161680037Y-59567423D01*
X161796010Y-59683598D01*
X162044746Y-59786882D01*
X162314073Y-59787117D01*
X162562989Y-59684267D01*
X162680059Y-59567401D01*
X162821010Y-59708598D01*
X163069746Y-59811882D01*
X163339073Y-59812117D01*
X163565914Y-59718388D01*
X186352380Y-59718388D01*
X186895798Y-61033561D01*
X187901146Y-62040665D01*
X189215369Y-62586378D01*
X190638388Y-62587620D01*
X191953561Y-62044202D01*
X192960665Y-61038854D01*
X193506378Y-59724631D01*
X193507620Y-58301612D01*
X192964202Y-56986439D01*
X191958854Y-55979335D01*
X190644631Y-55433622D01*
X189221612Y-55432380D01*
X187906439Y-55975798D01*
X186899335Y-56981146D01*
X186353622Y-58295369D01*
X186352380Y-59718388D01*
X163565914Y-59718388D01*
X163587989Y-59709267D01*
X163778598Y-59518990D01*
X163881882Y-59270254D01*
X163882117Y-59000927D01*
X163779267Y-58752011D01*
X163588990Y-58561402D01*
X163340254Y-58458118D01*
X163070927Y-58457883D01*
X162822011Y-58560733D01*
X162704941Y-58677599D01*
X162563990Y-58536402D01*
X162315254Y-58433118D01*
X162045927Y-58432883D01*
X161797011Y-58535733D01*
X161679963Y-58652577D01*
X161563990Y-58536402D01*
X161315254Y-58433118D01*
X161045927Y-58432883D01*
X160797011Y-58535733D01*
X160606402Y-58726010D01*
X160503118Y-58974746D01*
X160502883Y-59244073D01*
X123506797Y-59244073D01*
X123507620Y-58301612D01*
X122964202Y-56986439D01*
X121958854Y-55979335D01*
X120644631Y-55433622D01*
X119221612Y-55432380D01*
X117906439Y-55975798D01*
X116899335Y-56981146D01*
X116353622Y-58295369D01*
X116352380Y-59718388D01*
X112857000Y-59718388D01*
X112857000Y-54587000D01*
X194003000Y-54587000D01*
X194003000Y-138433000D01*
M02*
