G04 #@! TF.FileFunction,Legend,Top*
%FSLAX46Y46*%
G04 Gerber Fmt 4.6, Leading zero omitted, Abs format (unit mm)*
G04 Created by KiCad (PCBNEW 4.0.2-stable) date 4/11/2016 8:36:19 PM*
%MOMM*%
G01*
G04 APERTURE LIST*
%ADD10C,0.100000*%
%ADD11C,0.125000*%
%ADD12C,0.300000*%
%ADD13C,0.150000*%
%ADD14C,0.030000*%
%ADD15C,0.050000*%
G04 APERTURE END LIST*
D10*
D11*
X85872486Y-102065271D02*
X85372486Y-101350986D01*
X85015343Y-102065271D02*
X85015343Y-100565271D01*
X85586771Y-100565271D01*
X85729629Y-100636700D01*
X85801057Y-100708129D01*
X85872486Y-100850986D01*
X85872486Y-101065271D01*
X85801057Y-101208129D01*
X85729629Y-101279557D01*
X85586771Y-101350986D01*
X85015343Y-101350986D01*
X86515343Y-102065271D02*
X86515343Y-100565271D01*
X87015343Y-100565271D02*
X87872486Y-100565271D01*
X87443915Y-102065271D02*
X87443915Y-100565271D01*
X89443914Y-101993843D02*
X89658200Y-102065271D01*
X90015343Y-102065271D01*
X90158200Y-101993843D01*
X90229629Y-101922414D01*
X90301057Y-101779557D01*
X90301057Y-101636700D01*
X90229629Y-101493843D01*
X90158200Y-101422414D01*
X90015343Y-101350986D01*
X89729629Y-101279557D01*
X89586771Y-101208129D01*
X89515343Y-101136700D01*
X89443914Y-100993843D01*
X89443914Y-100850986D01*
X89515343Y-100708129D01*
X89586771Y-100636700D01*
X89729629Y-100565271D01*
X90086771Y-100565271D01*
X90301057Y-100636700D01*
X90943914Y-102065271D02*
X90943914Y-100565271D01*
X91515342Y-100565271D01*
X91658200Y-100636700D01*
X91729628Y-100708129D01*
X91801057Y-100850986D01*
X91801057Y-101065271D01*
X91729628Y-101208129D01*
X91658200Y-101279557D01*
X91515342Y-101350986D01*
X90943914Y-101350986D01*
X92443914Y-101279557D02*
X92943914Y-101279557D01*
X93158200Y-102065271D02*
X92443914Y-102065271D01*
X92443914Y-100565271D01*
X93158200Y-100565271D01*
X93658200Y-100565271D02*
X94658200Y-102065271D01*
X94658200Y-100565271D02*
X93658200Y-102065271D01*
X96372485Y-102065271D02*
X96372485Y-100565271D01*
X96372485Y-101279557D02*
X97229628Y-101279557D01*
X97229628Y-102065271D02*
X97229628Y-100565271D01*
X97872485Y-101636700D02*
X98586771Y-101636700D01*
X97729628Y-102065271D02*
X98229628Y-100565271D01*
X98729628Y-102065271D01*
X99729628Y-101279557D02*
X99943914Y-101350986D01*
X100015342Y-101422414D01*
X100086771Y-101565271D01*
X100086771Y-101779557D01*
X100015342Y-101922414D01*
X99943914Y-101993843D01*
X99801056Y-102065271D01*
X99229628Y-102065271D01*
X99229628Y-100565271D01*
X99729628Y-100565271D01*
X99872485Y-100636700D01*
X99943914Y-100708129D01*
X100015342Y-100850986D01*
X100015342Y-100993843D01*
X99943914Y-101136700D01*
X99872485Y-101208129D01*
X99729628Y-101279557D01*
X99229628Y-101279557D01*
X101801056Y-100708129D02*
X101872485Y-100636700D01*
X102015342Y-100565271D01*
X102372485Y-100565271D01*
X102515342Y-100636700D01*
X102586771Y-100708129D01*
X102658199Y-100850986D01*
X102658199Y-100993843D01*
X102586771Y-101208129D01*
X101729628Y-102065271D01*
X102658199Y-102065271D01*
X104443913Y-102065271D02*
X104443913Y-100565271D01*
X104943913Y-101636700D01*
X105443913Y-100565271D01*
X105443913Y-102065271D01*
X106086770Y-101636700D02*
X106801056Y-101636700D01*
X105943913Y-102065271D02*
X106443913Y-100565271D01*
X106943913Y-102065271D01*
X107443913Y-102065271D02*
X107443913Y-100565271D01*
X108158199Y-102065271D02*
X108158199Y-100565271D01*
X109015342Y-102065271D01*
X109015342Y-100565271D01*
X110229628Y-101279557D02*
X110443914Y-101350986D01*
X110515342Y-101422414D01*
X110586771Y-101565271D01*
X110586771Y-101779557D01*
X110515342Y-101922414D01*
X110443914Y-101993843D01*
X110301056Y-102065271D01*
X109729628Y-102065271D01*
X109729628Y-100565271D01*
X110229628Y-100565271D01*
X110372485Y-100636700D01*
X110443914Y-100708129D01*
X110515342Y-100850986D01*
X110515342Y-100993843D01*
X110443914Y-101136700D01*
X110372485Y-101208129D01*
X110229628Y-101279557D01*
X109729628Y-101279557D01*
X111515342Y-100565271D02*
X111801056Y-100565271D01*
X111943914Y-100636700D01*
X112086771Y-100779557D01*
X112158199Y-101065271D01*
X112158199Y-101565271D01*
X112086771Y-101850986D01*
X111943914Y-101993843D01*
X111801056Y-102065271D01*
X111515342Y-102065271D01*
X111372485Y-101993843D01*
X111229628Y-101850986D01*
X111158199Y-101565271D01*
X111158199Y-101065271D01*
X111229628Y-100779557D01*
X111372485Y-100636700D01*
X111515342Y-100565271D01*
X112729628Y-101636700D02*
X113443914Y-101636700D01*
X112586771Y-102065271D02*
X113086771Y-100565271D01*
X113586771Y-102065271D01*
X114943914Y-102065271D02*
X114443914Y-101350986D01*
X114086771Y-102065271D02*
X114086771Y-100565271D01*
X114658199Y-100565271D01*
X114801057Y-100636700D01*
X114872485Y-100708129D01*
X114943914Y-100850986D01*
X114943914Y-101065271D01*
X114872485Y-101208129D01*
X114801057Y-101279557D01*
X114658199Y-101350986D01*
X114086771Y-101350986D01*
X115586771Y-102065271D02*
X115586771Y-100565271D01*
X115943914Y-100565271D01*
X116158199Y-100636700D01*
X116301057Y-100779557D01*
X116372485Y-100922414D01*
X116443914Y-101208129D01*
X116443914Y-101422414D01*
X116372485Y-101708129D01*
X116301057Y-101850986D01*
X116158199Y-101993843D01*
X115943914Y-102065271D01*
X115586771Y-102065271D01*
X85015343Y-104290271D02*
X85015343Y-102790271D01*
X85372486Y-102790271D01*
X85586771Y-102861700D01*
X85729629Y-103004557D01*
X85801057Y-103147414D01*
X85872486Y-103433129D01*
X85872486Y-103647414D01*
X85801057Y-103933129D01*
X85729629Y-104075986D01*
X85586771Y-104218843D01*
X85372486Y-104290271D01*
X85015343Y-104290271D01*
X86515343Y-103504557D02*
X87015343Y-103504557D01*
X87229629Y-104290271D02*
X86515343Y-104290271D01*
X86515343Y-102790271D01*
X87229629Y-102790271D01*
X87801057Y-104218843D02*
X88015343Y-104290271D01*
X88372486Y-104290271D01*
X88515343Y-104218843D01*
X88586772Y-104147414D01*
X88658200Y-104004557D01*
X88658200Y-103861700D01*
X88586772Y-103718843D01*
X88515343Y-103647414D01*
X88372486Y-103575986D01*
X88086772Y-103504557D01*
X87943914Y-103433129D01*
X87872486Y-103361700D01*
X87801057Y-103218843D01*
X87801057Y-103075986D01*
X87872486Y-102933129D01*
X87943914Y-102861700D01*
X88086772Y-102790271D01*
X88443914Y-102790271D01*
X88658200Y-102861700D01*
X89301057Y-104290271D02*
X89301057Y-102790271D01*
X90801057Y-102861700D02*
X90658200Y-102790271D01*
X90443914Y-102790271D01*
X90229629Y-102861700D01*
X90086771Y-103004557D01*
X90015343Y-103147414D01*
X89943914Y-103433129D01*
X89943914Y-103647414D01*
X90015343Y-103933129D01*
X90086771Y-104075986D01*
X90229629Y-104218843D01*
X90443914Y-104290271D01*
X90586771Y-104290271D01*
X90801057Y-104218843D01*
X90872486Y-104147414D01*
X90872486Y-103647414D01*
X90586771Y-103647414D01*
X91515343Y-104290271D02*
X91515343Y-102790271D01*
X92372486Y-104290271D01*
X92372486Y-102790271D01*
X93086772Y-103504557D02*
X93586772Y-103504557D01*
X93801058Y-104290271D02*
X93086772Y-104290271D01*
X93086772Y-102790271D01*
X93801058Y-102790271D01*
X95301058Y-104290271D02*
X94801058Y-103575986D01*
X94443915Y-104290271D02*
X94443915Y-102790271D01*
X95015343Y-102790271D01*
X95158201Y-102861700D01*
X95229629Y-102933129D01*
X95301058Y-103075986D01*
X95301058Y-103290271D01*
X95229629Y-103433129D01*
X95158201Y-103504557D01*
X95015343Y-103575986D01*
X94443915Y-103575986D01*
X95872486Y-104218843D02*
X96086772Y-104290271D01*
X96443915Y-104290271D01*
X96586772Y-104218843D01*
X96658201Y-104147414D01*
X96729629Y-104004557D01*
X96729629Y-103861700D01*
X96658201Y-103718843D01*
X96586772Y-103647414D01*
X96443915Y-103575986D01*
X96158201Y-103504557D01*
X96015343Y-103433129D01*
X95943915Y-103361700D01*
X95872486Y-103218843D01*
X95872486Y-103075986D01*
X95943915Y-102933129D01*
X96015343Y-102861700D01*
X96158201Y-102790271D01*
X96515343Y-102790271D01*
X96729629Y-102861700D01*
X97372486Y-104147414D02*
X97443914Y-104218843D01*
X97372486Y-104290271D01*
X97301057Y-104218843D01*
X97372486Y-104147414D01*
X97372486Y-104290271D01*
X97372486Y-103361700D02*
X97443914Y-103433129D01*
X97372486Y-103504557D01*
X97301057Y-103433129D01*
X97372486Y-103361700D01*
X97372486Y-103504557D01*
X85015343Y-106515271D02*
X85015343Y-105015271D01*
X85515343Y-106086700D01*
X86015343Y-105015271D01*
X86015343Y-106515271D01*
X86658200Y-106086700D02*
X87372486Y-106086700D01*
X86515343Y-106515271D02*
X87015343Y-105015271D01*
X87515343Y-106515271D01*
X87801057Y-105015271D02*
X88658200Y-105015271D01*
X88229629Y-106515271D02*
X88229629Y-105015271D01*
X88943914Y-105015271D02*
X89801057Y-105015271D01*
X89372486Y-106515271D02*
X89372486Y-105015271D01*
X90301057Y-106515271D02*
X90301057Y-105015271D01*
X90301057Y-105729557D02*
X91158200Y-105729557D01*
X91158200Y-106515271D02*
X91158200Y-105015271D01*
X91872486Y-105729557D02*
X92372486Y-105729557D01*
X92586772Y-106515271D02*
X91872486Y-106515271D01*
X91872486Y-105015271D01*
X92586772Y-105015271D01*
X93086772Y-105015271D02*
X93443915Y-106515271D01*
X93729629Y-105443843D01*
X94015343Y-106515271D01*
X94372486Y-105015271D01*
X96872486Y-105086700D02*
X96729629Y-105015271D01*
X96515343Y-105015271D01*
X96301058Y-105086700D01*
X96158200Y-105229557D01*
X96086772Y-105372414D01*
X96015343Y-105658129D01*
X96015343Y-105872414D01*
X96086772Y-106158129D01*
X96158200Y-106300986D01*
X96301058Y-106443843D01*
X96515343Y-106515271D01*
X96658200Y-106515271D01*
X96872486Y-106443843D01*
X96943915Y-106372414D01*
X96943915Y-105872414D01*
X96658200Y-105872414D01*
X98301058Y-106515271D02*
X97586772Y-106515271D01*
X97586772Y-105015271D01*
X98729629Y-106086700D02*
X99443915Y-106086700D01*
X98586772Y-106515271D02*
X99086772Y-105015271D01*
X99586772Y-106515271D01*
X99943915Y-105015271D02*
X100943915Y-105015271D01*
X99943915Y-106515271D01*
X100943915Y-106515271D01*
X101515343Y-105729557D02*
X102015343Y-105729557D01*
X102229629Y-106515271D02*
X101515343Y-106515271D01*
X101515343Y-105015271D01*
X102229629Y-105015271D01*
X103729629Y-106515271D02*
X103229629Y-105800986D01*
X102872486Y-106515271D02*
X102872486Y-105015271D01*
X103443914Y-105015271D01*
X103586772Y-105086700D01*
X103658200Y-105158129D01*
X103729629Y-105300986D01*
X103729629Y-105515271D01*
X103658200Y-105658129D01*
X103586772Y-105729557D01*
X103443914Y-105800986D01*
X102872486Y-105800986D01*
X85872486Y-108597414D02*
X85801057Y-108668843D01*
X85586771Y-108740271D01*
X85443914Y-108740271D01*
X85229629Y-108668843D01*
X85086771Y-108525986D01*
X85015343Y-108383129D01*
X84943914Y-108097414D01*
X84943914Y-107883129D01*
X85015343Y-107597414D01*
X85086771Y-107454557D01*
X85229629Y-107311700D01*
X85443914Y-107240271D01*
X85586771Y-107240271D01*
X85801057Y-107311700D01*
X85872486Y-107383129D01*
X86515343Y-108740271D02*
X86515343Y-107240271D01*
X86515343Y-107954557D02*
X87372486Y-107954557D01*
X87372486Y-108740271D02*
X87372486Y-107240271D01*
X88943915Y-108740271D02*
X88443915Y-108025986D01*
X88086772Y-108740271D02*
X88086772Y-107240271D01*
X88658200Y-107240271D01*
X88801058Y-107311700D01*
X88872486Y-107383129D01*
X88943915Y-107525986D01*
X88943915Y-107740271D01*
X88872486Y-107883129D01*
X88801058Y-107954557D01*
X88658200Y-108025986D01*
X88086772Y-108025986D01*
X89586772Y-108740271D02*
X89586772Y-107240271D01*
X90229629Y-108668843D02*
X90443915Y-108740271D01*
X90801058Y-108740271D01*
X90943915Y-108668843D01*
X91015344Y-108597414D01*
X91086772Y-108454557D01*
X91086772Y-108311700D01*
X91015344Y-108168843D01*
X90943915Y-108097414D01*
X90801058Y-108025986D01*
X90515344Y-107954557D01*
X90372486Y-107883129D01*
X90301058Y-107811700D01*
X90229629Y-107668843D01*
X90229629Y-107525986D01*
X90301058Y-107383129D01*
X90372486Y-107311700D01*
X90515344Y-107240271D01*
X90872486Y-107240271D01*
X91086772Y-107311700D01*
X93729629Y-108597414D02*
X93658200Y-108668843D01*
X93443914Y-108740271D01*
X93301057Y-108740271D01*
X93086772Y-108668843D01*
X92943914Y-108525986D01*
X92872486Y-108383129D01*
X92801057Y-108097414D01*
X92801057Y-107883129D01*
X92872486Y-107597414D01*
X92943914Y-107454557D01*
X93086772Y-107311700D01*
X93301057Y-107240271D01*
X93443914Y-107240271D01*
X93658200Y-107311700D01*
X93729629Y-107383129D01*
X94372486Y-107240271D02*
X94372486Y-108454557D01*
X94443914Y-108597414D01*
X94515343Y-108668843D01*
X94658200Y-108740271D01*
X94943914Y-108740271D01*
X95086772Y-108668843D01*
X95158200Y-108597414D01*
X95229629Y-108454557D01*
X95229629Y-107240271D01*
X96658201Y-108740271D02*
X95943915Y-108740271D01*
X95943915Y-107240271D01*
X97158201Y-108740271D02*
X97158201Y-107240271D01*
X97729629Y-107240271D01*
X97872487Y-107311700D01*
X97943915Y-107383129D01*
X98015344Y-107525986D01*
X98015344Y-107740271D01*
X97943915Y-107883129D01*
X97872487Y-107954557D01*
X97729629Y-108025986D01*
X97158201Y-108025986D01*
X98658201Y-107954557D02*
X99158201Y-107954557D01*
X99372487Y-108740271D02*
X98658201Y-108740271D01*
X98658201Y-107240271D01*
X99372487Y-107240271D01*
X100015344Y-108740271D02*
X100015344Y-107240271D01*
X100586772Y-107240271D01*
X100729630Y-107311700D01*
X100801058Y-107383129D01*
X100872487Y-107525986D01*
X100872487Y-107740271D01*
X100801058Y-107883129D01*
X100729630Y-107954557D01*
X100586772Y-108025986D01*
X100015344Y-108025986D01*
X101515344Y-108740271D02*
X101515344Y-107240271D01*
X102086772Y-107240271D01*
X102229630Y-107311700D01*
X102301058Y-107383129D01*
X102372487Y-107525986D01*
X102372487Y-107740271D01*
X102301058Y-107883129D01*
X102229630Y-107954557D01*
X102086772Y-108025986D01*
X101515344Y-108025986D01*
X103015344Y-107954557D02*
X103515344Y-107954557D01*
X103729630Y-108740271D02*
X103015344Y-108740271D01*
X103015344Y-107240271D01*
X103729630Y-107240271D01*
X105229630Y-108740271D02*
X104729630Y-108025986D01*
X104372487Y-108740271D02*
X104372487Y-107240271D01*
X104943915Y-107240271D01*
X105086773Y-107311700D01*
X105158201Y-107383129D01*
X105229630Y-107525986D01*
X105229630Y-107740271D01*
X105158201Y-107883129D01*
X105086773Y-107954557D01*
X104943915Y-108025986D01*
X104372487Y-108025986D01*
X84815754Y-115669190D02*
X84815754Y-115169190D01*
X85006230Y-115169190D01*
X85053849Y-115193000D01*
X85077658Y-115216810D01*
X85101468Y-115264429D01*
X85101468Y-115335857D01*
X85077658Y-115383476D01*
X85053849Y-115407286D01*
X85006230Y-115431095D01*
X84815754Y-115431095D01*
X85410992Y-115169190D02*
X85506230Y-115169190D01*
X85553849Y-115193000D01*
X85601468Y-115240619D01*
X85625277Y-115335857D01*
X85625277Y-115502524D01*
X85601468Y-115597762D01*
X85553849Y-115645381D01*
X85506230Y-115669190D01*
X85410992Y-115669190D01*
X85363373Y-115645381D01*
X85315754Y-115597762D01*
X85291944Y-115502524D01*
X85291944Y-115335857D01*
X85315754Y-115240619D01*
X85363373Y-115193000D01*
X85410992Y-115169190D01*
X85791945Y-115169190D02*
X85910992Y-115669190D01*
X86006230Y-115312048D01*
X86101468Y-115669190D01*
X86220516Y-115169190D01*
X86410993Y-115407286D02*
X86577659Y-115407286D01*
X86649088Y-115669190D02*
X86410993Y-115669190D01*
X86410993Y-115169190D01*
X86649088Y-115169190D01*
X87149088Y-115669190D02*
X86982421Y-115431095D01*
X86863374Y-115669190D02*
X86863374Y-115169190D01*
X87053850Y-115169190D01*
X87101469Y-115193000D01*
X87125278Y-115216810D01*
X87149088Y-115264429D01*
X87149088Y-115335857D01*
X87125278Y-115383476D01*
X87101469Y-115407286D01*
X87053850Y-115431095D01*
X86863374Y-115431095D01*
X87744326Y-115669190D02*
X87744326Y-115169190D01*
X87982421Y-115669190D02*
X87982421Y-115169190D01*
X88268135Y-115669190D01*
X88268135Y-115169190D01*
X89030040Y-115859667D02*
X89006230Y-115835857D01*
X88958611Y-115764429D01*
X88934802Y-115716810D01*
X88910992Y-115645381D01*
X88887183Y-115526333D01*
X88887183Y-115431095D01*
X88910992Y-115312048D01*
X88934802Y-115240619D01*
X88958611Y-115193000D01*
X89006230Y-115121571D01*
X89030040Y-115097762D01*
X89149087Y-115169190D02*
X89315754Y-115669190D01*
X89482420Y-115169190D01*
X89815753Y-115407286D02*
X89887182Y-115431095D01*
X89910991Y-115454905D01*
X89934801Y-115502524D01*
X89934801Y-115573952D01*
X89910991Y-115621571D01*
X89887182Y-115645381D01*
X89839563Y-115669190D01*
X89649087Y-115669190D01*
X89649087Y-115169190D01*
X89815753Y-115169190D01*
X89863372Y-115193000D01*
X89887182Y-115216810D01*
X89910991Y-115264429D01*
X89910991Y-115312048D01*
X89887182Y-115359667D01*
X89863372Y-115383476D01*
X89815753Y-115407286D01*
X89649087Y-115407286D01*
X90125277Y-115526333D02*
X90363372Y-115526333D01*
X90077658Y-115669190D02*
X90244325Y-115169190D01*
X90410991Y-115669190D01*
X90506229Y-115169190D02*
X90791943Y-115169190D01*
X90649086Y-115669190D02*
X90649086Y-115169190D01*
X90910991Y-115859667D02*
X90934800Y-115835857D01*
X90982419Y-115764429D01*
X91006229Y-115716810D01*
X91030038Y-115645381D01*
X91053848Y-115526333D01*
X91053848Y-115431095D01*
X91030038Y-115312048D01*
X91006229Y-115240619D01*
X90982419Y-115193000D01*
X90934800Y-115121571D01*
X90910991Y-115097762D01*
X85594724Y-110332281D02*
X85261390Y-109856090D01*
X85023295Y-110332281D02*
X85023295Y-109332281D01*
X85404248Y-109332281D01*
X85499486Y-109379900D01*
X85547105Y-109427519D01*
X85594724Y-109522757D01*
X85594724Y-109665614D01*
X85547105Y-109760852D01*
X85499486Y-109808471D01*
X85404248Y-109856090D01*
X85023295Y-109856090D01*
X86404248Y-110284662D02*
X86309010Y-110332281D01*
X86118533Y-110332281D01*
X86023295Y-110284662D01*
X85975676Y-110189424D01*
X85975676Y-109808471D01*
X86023295Y-109713233D01*
X86118533Y-109665614D01*
X86309010Y-109665614D01*
X86404248Y-109713233D01*
X86451867Y-109808471D01*
X86451867Y-109903710D01*
X85975676Y-109998948D01*
X86785200Y-109665614D02*
X87023295Y-110332281D01*
X87261391Y-109665614D01*
X87642343Y-110332281D02*
X87642343Y-109665614D01*
X87642343Y-109332281D02*
X87594724Y-109379900D01*
X87642343Y-109427519D01*
X87689962Y-109379900D01*
X87642343Y-109332281D01*
X87642343Y-109427519D01*
X88070914Y-110284662D02*
X88166152Y-110332281D01*
X88356628Y-110332281D01*
X88451867Y-110284662D01*
X88499486Y-110189424D01*
X88499486Y-110141805D01*
X88451867Y-110046567D01*
X88356628Y-109998948D01*
X88213771Y-109998948D01*
X88118533Y-109951329D01*
X88070914Y-109856090D01*
X88070914Y-109808471D01*
X88118533Y-109713233D01*
X88213771Y-109665614D01*
X88356628Y-109665614D01*
X88451867Y-109713233D01*
X88928057Y-110332281D02*
X88928057Y-109665614D01*
X88928057Y-109332281D02*
X88880438Y-109379900D01*
X88928057Y-109427519D01*
X88975676Y-109379900D01*
X88928057Y-109332281D01*
X88928057Y-109427519D01*
X89547104Y-110332281D02*
X89451866Y-110284662D01*
X89404247Y-110237043D01*
X89356628Y-110141805D01*
X89356628Y-109856090D01*
X89404247Y-109760852D01*
X89451866Y-109713233D01*
X89547104Y-109665614D01*
X89689962Y-109665614D01*
X89785200Y-109713233D01*
X89832819Y-109760852D01*
X89880438Y-109856090D01*
X89880438Y-110141805D01*
X89832819Y-110237043D01*
X89785200Y-110284662D01*
X89689962Y-110332281D01*
X89547104Y-110332281D01*
X90309009Y-109665614D02*
X90309009Y-110332281D01*
X90309009Y-109760852D02*
X90356628Y-109713233D01*
X90451866Y-109665614D01*
X90594724Y-109665614D01*
X90689962Y-109713233D01*
X90737581Y-109808471D01*
X90737581Y-110332281D01*
X91213771Y-110237043D02*
X91261390Y-110284662D01*
X91213771Y-110332281D01*
X91166152Y-110284662D01*
X91213771Y-110237043D01*
X91213771Y-110332281D01*
X91213771Y-109713233D02*
X91261390Y-109760852D01*
X91213771Y-109808471D01*
X91166152Y-109760852D01*
X91213771Y-109713233D01*
X91213771Y-109808471D01*
X92975676Y-110332281D02*
X92404247Y-110332281D01*
X92689961Y-110332281D02*
X92689961Y-109332281D01*
X92594723Y-109475138D01*
X92499485Y-109570376D01*
X92404247Y-109617995D01*
X85023295Y-111857281D02*
X85023295Y-110857281D01*
X85261390Y-110857281D01*
X85404248Y-110904900D01*
X85499486Y-111000138D01*
X85547105Y-111095376D01*
X85594724Y-111285852D01*
X85594724Y-111428710D01*
X85547105Y-111619186D01*
X85499486Y-111714424D01*
X85404248Y-111809662D01*
X85261390Y-111857281D01*
X85023295Y-111857281D01*
X86404248Y-111809662D02*
X86309010Y-111857281D01*
X86118533Y-111857281D01*
X86023295Y-111809662D01*
X85975676Y-111714424D01*
X85975676Y-111333471D01*
X86023295Y-111238233D01*
X86118533Y-111190614D01*
X86309010Y-111190614D01*
X86404248Y-111238233D01*
X86451867Y-111333471D01*
X86451867Y-111428710D01*
X85975676Y-111523948D01*
X86832819Y-111809662D02*
X86928057Y-111857281D01*
X87118533Y-111857281D01*
X87213772Y-111809662D01*
X87261391Y-111714424D01*
X87261391Y-111666805D01*
X87213772Y-111571567D01*
X87118533Y-111523948D01*
X86975676Y-111523948D01*
X86880438Y-111476329D01*
X86832819Y-111381090D01*
X86832819Y-111333471D01*
X86880438Y-111238233D01*
X86975676Y-111190614D01*
X87118533Y-111190614D01*
X87213772Y-111238233D01*
X87689962Y-111857281D02*
X87689962Y-111190614D01*
X87689962Y-110857281D02*
X87642343Y-110904900D01*
X87689962Y-110952519D01*
X87737581Y-110904900D01*
X87689962Y-110857281D01*
X87689962Y-110952519D01*
X88594724Y-111190614D02*
X88594724Y-112000138D01*
X88547105Y-112095376D01*
X88499486Y-112142995D01*
X88404247Y-112190614D01*
X88261390Y-112190614D01*
X88166152Y-112142995D01*
X88594724Y-111809662D02*
X88499486Y-111857281D01*
X88309009Y-111857281D01*
X88213771Y-111809662D01*
X88166152Y-111762043D01*
X88118533Y-111666805D01*
X88118533Y-111381090D01*
X88166152Y-111285852D01*
X88213771Y-111238233D01*
X88309009Y-111190614D01*
X88499486Y-111190614D01*
X88594724Y-111238233D01*
X89070914Y-111190614D02*
X89070914Y-111857281D01*
X89070914Y-111285852D02*
X89118533Y-111238233D01*
X89213771Y-111190614D01*
X89356629Y-111190614D01*
X89451867Y-111238233D01*
X89499486Y-111333471D01*
X89499486Y-111857281D01*
X90737581Y-111857281D02*
X90737581Y-110857281D01*
X90975676Y-110857281D01*
X91118534Y-110904900D01*
X91213772Y-111000138D01*
X91261391Y-111095376D01*
X91309010Y-111285852D01*
X91309010Y-111428710D01*
X91261391Y-111619186D01*
X91213772Y-111714424D01*
X91118534Y-111809662D01*
X90975676Y-111857281D01*
X90737581Y-111857281D01*
X92166153Y-111857281D02*
X92166153Y-111333471D01*
X92118534Y-111238233D01*
X92023296Y-111190614D01*
X91832819Y-111190614D01*
X91737581Y-111238233D01*
X92166153Y-111809662D02*
X92070915Y-111857281D01*
X91832819Y-111857281D01*
X91737581Y-111809662D01*
X91689962Y-111714424D01*
X91689962Y-111619186D01*
X91737581Y-111523948D01*
X91832819Y-111476329D01*
X92070915Y-111476329D01*
X92166153Y-111428710D01*
X92499486Y-111190614D02*
X92880438Y-111190614D01*
X92642343Y-110857281D02*
X92642343Y-111714424D01*
X92689962Y-111809662D01*
X92785200Y-111857281D01*
X92880438Y-111857281D01*
X93594725Y-111809662D02*
X93499487Y-111857281D01*
X93309010Y-111857281D01*
X93213772Y-111809662D01*
X93166153Y-111714424D01*
X93166153Y-111333471D01*
X93213772Y-111238233D01*
X93309010Y-111190614D01*
X93499487Y-111190614D01*
X93594725Y-111238233D01*
X93642344Y-111333471D01*
X93642344Y-111428710D01*
X93166153Y-111523948D01*
X94070915Y-111762043D02*
X94118534Y-111809662D01*
X94070915Y-111857281D01*
X94023296Y-111809662D01*
X94070915Y-111762043D01*
X94070915Y-111857281D01*
X94070915Y-111238233D02*
X94118534Y-111285852D01*
X94070915Y-111333471D01*
X94023296Y-111285852D01*
X94070915Y-111238233D01*
X94070915Y-111333471D01*
X95737582Y-111190614D02*
X95737582Y-111857281D01*
X95499486Y-110809662D02*
X95261391Y-111523948D01*
X95880439Y-111523948D01*
X96975677Y-110809662D02*
X96118534Y-112095376D01*
X97832820Y-111857281D02*
X97261391Y-111857281D01*
X97547105Y-111857281D02*
X97547105Y-110857281D01*
X97451867Y-111000138D01*
X97356629Y-111095376D01*
X97261391Y-111142995D01*
X98689963Y-110857281D02*
X98499486Y-110857281D01*
X98404248Y-110904900D01*
X98356629Y-110952519D01*
X98261391Y-111095376D01*
X98213772Y-111285852D01*
X98213772Y-111666805D01*
X98261391Y-111762043D01*
X98309010Y-111809662D01*
X98404248Y-111857281D01*
X98594725Y-111857281D01*
X98689963Y-111809662D01*
X98737582Y-111762043D01*
X98785201Y-111666805D01*
X98785201Y-111428710D01*
X98737582Y-111333471D01*
X98689963Y-111285852D01*
X98594725Y-111238233D01*
X98404248Y-111238233D01*
X98309010Y-111285852D01*
X98261391Y-111333471D01*
X98213772Y-111428710D01*
D12*
X84793084Y-97863162D02*
X85935941Y-97863162D01*
X85364513Y-99863162D02*
X85364513Y-97863162D01*
X86602608Y-99863162D02*
X86602608Y-97863162D01*
X88602609Y-97958400D02*
X88412132Y-97863162D01*
X88126418Y-97863162D01*
X87840704Y-97958400D01*
X87650228Y-98148876D01*
X87554989Y-98339352D01*
X87459751Y-98720305D01*
X87459751Y-99006019D01*
X87554989Y-99386971D01*
X87650228Y-99577448D01*
X87840704Y-99767924D01*
X88126418Y-99863162D01*
X88316894Y-99863162D01*
X88602609Y-99767924D01*
X88697847Y-99672686D01*
X88697847Y-99006019D01*
X88316894Y-99006019D01*
X90697847Y-99863162D02*
X90031180Y-98910781D01*
X89554989Y-99863162D02*
X89554989Y-97863162D01*
X90316894Y-97863162D01*
X90507370Y-97958400D01*
X90602609Y-98053638D01*
X90697847Y-98244114D01*
X90697847Y-98529829D01*
X90602609Y-98720305D01*
X90507370Y-98815543D01*
X90316894Y-98910781D01*
X89554989Y-98910781D01*
X91554989Y-99863162D02*
X91554989Y-97863162D01*
X92412132Y-99767924D02*
X92697847Y-99863162D01*
X93174037Y-99863162D01*
X93364513Y-99767924D01*
X93459751Y-99672686D01*
X93554990Y-99482210D01*
X93554990Y-99291733D01*
X93459751Y-99101257D01*
X93364513Y-99006019D01*
X93174037Y-98910781D01*
X92793085Y-98815543D01*
X92602609Y-98720305D01*
X92507370Y-98625067D01*
X92412132Y-98434590D01*
X92412132Y-98244114D01*
X92507370Y-98053638D01*
X92602609Y-97958400D01*
X92793085Y-97863162D01*
X93269275Y-97863162D01*
X93554990Y-97958400D01*
X95840704Y-99291733D02*
X96793085Y-99291733D01*
X95650228Y-99863162D02*
X96316895Y-97863162D01*
X96983562Y-99863162D01*
X97650228Y-99863162D02*
X97650228Y-97863162D01*
X98126419Y-97863162D01*
X98412133Y-97958400D01*
X98602609Y-98148876D01*
X98697848Y-98339352D01*
X98793086Y-98720305D01*
X98793086Y-99006019D01*
X98697848Y-99386971D01*
X98602609Y-99577448D01*
X98412133Y-99767924D01*
X98126419Y-99863162D01*
X97650228Y-99863162D01*
X101078800Y-99291733D02*
X102031181Y-99291733D01*
X100888324Y-99863162D02*
X101554991Y-97863162D01*
X102221658Y-99863162D01*
X102793086Y-99767924D02*
X103078801Y-99863162D01*
X103554991Y-99863162D01*
X103745467Y-99767924D01*
X103840705Y-99672686D01*
X103935944Y-99482210D01*
X103935944Y-99291733D01*
X103840705Y-99101257D01*
X103745467Y-99006019D01*
X103554991Y-98910781D01*
X103174039Y-98815543D01*
X102983563Y-98720305D01*
X102888324Y-98625067D01*
X102793086Y-98434590D01*
X102793086Y-98244114D01*
X102888324Y-98053638D01*
X102983563Y-97958400D01*
X103174039Y-97863162D01*
X103650229Y-97863162D01*
X103935944Y-97958400D01*
X104507372Y-97863162D02*
X105650229Y-97863162D01*
X105078801Y-99863162D02*
X105078801Y-97863162D01*
X107459754Y-99863162D02*
X106793087Y-98910781D01*
X106316896Y-99863162D02*
X106316896Y-97863162D01*
X107078801Y-97863162D01*
X107269277Y-97958400D01*
X107364516Y-98053638D01*
X107459754Y-98244114D01*
X107459754Y-98529829D01*
X107364516Y-98720305D01*
X107269277Y-98815543D01*
X107078801Y-98910781D01*
X106316896Y-98910781D01*
X108221658Y-99291733D02*
X109174039Y-99291733D01*
X108031182Y-99863162D02*
X108697849Y-97863162D01*
X109364516Y-99863162D01*
D13*
X149173600Y-91875200D02*
X165673600Y-91875200D01*
X165673600Y-91875200D02*
X165673600Y-69375200D01*
X149173600Y-69375200D02*
X165673600Y-69375200D01*
X149173600Y-91875200D02*
X149173600Y-69375200D01*
X104603800Y-66910200D02*
X104603800Y-67985200D01*
X114953800Y-66910200D02*
X114953800Y-67985200D01*
X114953800Y-77260200D02*
X114953800Y-76185200D01*
X104603800Y-77260200D02*
X104603800Y-76185200D01*
X104603800Y-66910200D02*
X105678800Y-66910200D01*
X104603800Y-77260200D02*
X105678800Y-77260200D01*
X114953800Y-77260200D02*
X113878800Y-77260200D01*
X114953800Y-66910200D02*
X113878800Y-66910200D01*
X104603800Y-67985200D02*
X103578800Y-67985200D01*
X102869600Y-89001200D02*
X103119600Y-89001200D01*
X103119600Y-89001200D02*
X103119600Y-95301200D01*
X103119600Y-95301200D02*
X102869600Y-95301200D01*
X98369600Y-89001200D02*
X100969600Y-89001200D01*
X96469600Y-95301200D02*
X96219600Y-95301200D01*
X96219600Y-95301200D02*
X96219600Y-89001200D01*
X96219600Y-89001200D02*
X96469600Y-89001200D01*
X100969600Y-95301200D02*
X98369600Y-95301200D01*
X101319600Y-92151200D02*
G75*
G03X101319600Y-92151200I-1650000J0D01*
G01*
X113403800Y-93490200D02*
X113403800Y-93190200D01*
X106153800Y-93490200D02*
X106153800Y-93190200D01*
X106153800Y-86240200D02*
X106153800Y-86540200D01*
X113403800Y-86240200D02*
X113403800Y-86540200D01*
X113403800Y-93490200D02*
X113103800Y-93490200D01*
X113403800Y-86240200D02*
X113103800Y-86240200D01*
X106153800Y-86240200D02*
X106453800Y-86240200D01*
X106153800Y-93490200D02*
X106453800Y-93490200D01*
X113403800Y-93190200D02*
X114628800Y-93190200D01*
X130415160Y-70430520D02*
X130415160Y-70680520D01*
X133765160Y-70430520D02*
X133765160Y-70680520D01*
X133765160Y-73780520D02*
X133765160Y-73530520D01*
X130415160Y-73780520D02*
X130415160Y-73530520D01*
X130415160Y-70430520D02*
X133765160Y-70430520D01*
X130415160Y-73780520D02*
X133765160Y-73780520D01*
X130415160Y-70680520D02*
X129165160Y-70680520D01*
X120731800Y-67726000D02*
X121431800Y-67726000D01*
X121431800Y-68926000D02*
X120731800Y-68926000D01*
X113274400Y-80777600D02*
X113274400Y-81477600D01*
X112074400Y-81477600D02*
X112074400Y-80777600D01*
X117218980Y-90441220D02*
X117918980Y-90441220D01*
X117918980Y-91641220D02*
X117218980Y-91641220D01*
X100847600Y-68942700D02*
X100847600Y-68242700D01*
X102047600Y-68242700D02*
X102047600Y-68942700D01*
X101391200Y-74971200D02*
X100691200Y-74971200D01*
X100691200Y-73771200D02*
X101391200Y-73771200D01*
X106619600Y-80066400D02*
X106619600Y-80766400D01*
X105419600Y-80766400D02*
X105419600Y-80066400D01*
X136185160Y-77083360D02*
X136885160Y-77083360D01*
X136885160Y-78283360D02*
X136185160Y-78283360D01*
X136185160Y-74721160D02*
X136885160Y-74721160D01*
X136885160Y-75921160D02*
X136185160Y-75921160D01*
X130160320Y-85644240D02*
X130160320Y-86344240D01*
X128960320Y-86344240D02*
X128960320Y-85644240D01*
X128320280Y-80787800D02*
X127620280Y-80787800D01*
X127620280Y-79587800D02*
X128320280Y-79587800D01*
X116478800Y-56835600D02*
X115778800Y-56835600D01*
X115778800Y-55635600D02*
X116478800Y-55635600D01*
X128330440Y-82342280D02*
X127630440Y-82342280D01*
X127630440Y-81142280D02*
X128330440Y-81142280D01*
X128330440Y-83896760D02*
X127630440Y-83896760D01*
X127630440Y-82696760D02*
X128330440Y-82696760D01*
X165556111Y-61883153D02*
X165556111Y-61183153D01*
X166756111Y-61183153D02*
X166756111Y-61883153D01*
X154935624Y-58664032D02*
X154235624Y-58664032D01*
X154235624Y-57464032D02*
X154935624Y-57464032D01*
X102315760Y-59004760D02*
X101615760Y-59004760D01*
X101615760Y-57804760D02*
X102315760Y-57804760D01*
X102336080Y-60622740D02*
X101636080Y-60622740D01*
X101636080Y-59422740D02*
X102336080Y-59422740D01*
X127716800Y-63687400D02*
X128416800Y-63687400D01*
X128416800Y-64887400D02*
X127716800Y-64887400D01*
X138525000Y-106500000D02*
X138525000Y-104500000D01*
X136475000Y-104500000D02*
X136475000Y-106500000D01*
X130250000Y-112975000D02*
X130750000Y-112975000D01*
X130750000Y-112025000D02*
X130250000Y-112025000D01*
X129475000Y-108000000D02*
X129475000Y-110000000D01*
X131525000Y-110000000D02*
X131525000Y-108000000D01*
X117475000Y-122000000D02*
X117475000Y-124000000D01*
X119525000Y-124000000D02*
X119525000Y-122000000D01*
X138000000Y-121475000D02*
X136000000Y-121475000D01*
X136000000Y-123525000D02*
X138000000Y-123525000D01*
X142525000Y-124500000D02*
X142525000Y-122500000D01*
X140475000Y-122500000D02*
X140475000Y-124500000D01*
X116850000Y-127600000D02*
X116150000Y-127600000D01*
X116150000Y-126400000D02*
X116850000Y-126400000D01*
X119000000Y-119025000D02*
X121000000Y-119025000D01*
X121000000Y-116975000D02*
X119000000Y-116975000D01*
X148014800Y-122869200D02*
X148014800Y-120869200D01*
X145964800Y-120869200D02*
X145964800Y-122869200D01*
X137317500Y-119500000D02*
X137698500Y-119500000D01*
X136301500Y-119500000D02*
X136682500Y-119500000D01*
X136682500Y-119500000D02*
X137317500Y-119119000D01*
X137317500Y-119119000D02*
X137317500Y-119881000D01*
X137317500Y-119881000D02*
X136682500Y-119500000D01*
X136682500Y-118992000D02*
X136682500Y-120008000D01*
X135000000Y-120400000D02*
X138540000Y-120400000D01*
X135000000Y-118600000D02*
X138540000Y-118600000D01*
X132500000Y-117817500D02*
X132500000Y-118198500D01*
X132500000Y-116801500D02*
X132500000Y-117182500D01*
X132500000Y-117182500D02*
X132881000Y-117817500D01*
X132881000Y-117817500D02*
X132119000Y-117817500D01*
X132119000Y-117817500D02*
X132500000Y-117182500D01*
X133008000Y-117182500D02*
X131992000Y-117182500D01*
X131600000Y-115500000D02*
X131600000Y-119040000D01*
X133400000Y-115500000D02*
X133400000Y-119040000D01*
X145889800Y-125662600D02*
X145889800Y-126762600D01*
X145889800Y-126762600D02*
X148089800Y-126762600D01*
X148089800Y-126762600D02*
X148089800Y-125662600D01*
X148089800Y-125662600D02*
X145939800Y-125662600D01*
X145939800Y-125662600D02*
X145889800Y-125662600D01*
X145299140Y-109749940D02*
X145299140Y-110100460D01*
X145299140Y-113250060D02*
X145299140Y-112899540D01*
X141249560Y-109749940D02*
X141249560Y-110100460D01*
X145750440Y-109749940D02*
X145750440Y-110100460D01*
X145750440Y-113250060D02*
X145750440Y-112899540D01*
X141249560Y-113250060D02*
X141249560Y-112899540D01*
X145750440Y-109749940D02*
X141249560Y-109749940D01*
X145750440Y-113250060D02*
X141249560Y-113250060D01*
X146548000Y-100944000D02*
X146548000Y-108056000D01*
X140452000Y-100944000D02*
X140452000Y-108056000D01*
X135600000Y-103200000D02*
X132400000Y-103200000D01*
X135600200Y-110000120D02*
X132399800Y-110000120D01*
X135600000Y-103000000D02*
X132400000Y-103000000D01*
X132394720Y-107696340D02*
X132394720Y-109982340D01*
X135605280Y-109982340D02*
X135605280Y-107696340D01*
X135600000Y-105300000D02*
X135600000Y-103000000D01*
X132400000Y-103000000D02*
X132400000Y-105300000D01*
X120500000Y-119500000D02*
X129500000Y-119500000D01*
X120500000Y-128500000D02*
X120500000Y-119500000D01*
X129500000Y-128500000D02*
X120500000Y-128500000D01*
X129500000Y-119500000D02*
X129500000Y-128500000D01*
X82745740Y-68521700D02*
X82745740Y-77221700D01*
X89150740Y-68521700D02*
X89150740Y-77221700D01*
X89150740Y-77221700D02*
X82745740Y-77221700D01*
X83975740Y-77221700D02*
X83975740Y-68521700D01*
X82745740Y-68521700D02*
X89150740Y-68521700D01*
X101406199Y-85277200D02*
X101406200Y-78197200D01*
X101406200Y-78197200D02*
X98136201Y-78197200D01*
X98136201Y-78197200D02*
X98136200Y-85277200D01*
X98136200Y-85277200D02*
X99226200Y-85277200D01*
X99226200Y-85277200D02*
X99226200Y-84827200D01*
X99226200Y-84827200D02*
X100316199Y-84827200D01*
X100316199Y-84827200D02*
X100316199Y-85277200D01*
X100316199Y-85277200D02*
X101406199Y-85277200D01*
X163089640Y-99329240D02*
X163137900Y-99329240D01*
X165888620Y-98628200D02*
X165888620Y-99329240D01*
X165888620Y-99329240D02*
X165639700Y-99329240D01*
X163089640Y-99329240D02*
X162888980Y-99329240D01*
X162888980Y-99329240D02*
X162888980Y-98628200D01*
X151844960Y-93939360D02*
X151796700Y-93939360D01*
X149045980Y-94640400D02*
X149045980Y-93939360D01*
X149045980Y-93939360D02*
X149294900Y-93939360D01*
X151844960Y-93939360D02*
X152045620Y-93939360D01*
X152045620Y-93939360D02*
X152045620Y-94640400D01*
X101406960Y-61337240D02*
X101406960Y-61385500D01*
X102108000Y-64136220D02*
X101406960Y-64136220D01*
X101406960Y-64136220D02*
X101406960Y-63887300D01*
X101406960Y-61337240D02*
X101406960Y-61136580D01*
X101406960Y-61136580D02*
X102108000Y-61136580D01*
X176950003Y-66573400D02*
G75*
G03X176950003Y-66573400I-89803J0D01*
G01*
X176542700Y-69684900D02*
X176542700Y-66382900D01*
X176542700Y-66382900D02*
X173494700Y-66382900D01*
X173494700Y-66382900D02*
X173494700Y-69684900D01*
X173494700Y-69684900D02*
X176542700Y-69684900D01*
X176975403Y-79527400D02*
G75*
G03X176975403Y-79527400I-89803J0D01*
G01*
X176568100Y-82638900D02*
X176568100Y-79336900D01*
X176568100Y-79336900D02*
X173520100Y-79336900D01*
X173520100Y-79336900D02*
X173520100Y-82638900D01*
X173520100Y-82638900D02*
X176568100Y-82638900D01*
X176886503Y-92710000D02*
G75*
G03X176886503Y-92710000I-89803J0D01*
G01*
X176479200Y-95821500D02*
X176479200Y-92519500D01*
X176479200Y-92519500D02*
X173431200Y-92519500D01*
X173431200Y-92519500D02*
X173431200Y-95821500D01*
X173431200Y-95821500D02*
X176479200Y-95821500D01*
X124299160Y-111849760D02*
X124250900Y-111849760D01*
X121500180Y-112550800D02*
X121500180Y-111849760D01*
X121500180Y-111849760D02*
X121749100Y-111849760D01*
X124299160Y-111849760D02*
X124499820Y-111849760D01*
X124499820Y-111849760D02*
X124499820Y-112550800D01*
X111299160Y-124849760D02*
X111250900Y-124849760D01*
X108500180Y-125550800D02*
X108500180Y-124849760D01*
X108500180Y-124849760D02*
X108749100Y-124849760D01*
X111299160Y-124849760D02*
X111499820Y-124849760D01*
X111499820Y-124849760D02*
X111499820Y-125550800D01*
X141364000Y-119989000D02*
X141364000Y-116179000D01*
X145174000Y-119989000D02*
X141364000Y-119989000D01*
X145174000Y-116179000D02*
X145174000Y-119989000D01*
X141364000Y-116179000D02*
X145174000Y-116179000D01*
X137650240Y-117299160D02*
X137650240Y-117250900D01*
X136949200Y-114500180D02*
X137650240Y-114500180D01*
X137650240Y-114500180D02*
X137650240Y-114749100D01*
X137650240Y-117299160D02*
X137650240Y-117499820D01*
X137650240Y-117499820D02*
X136949200Y-117499820D01*
X89085800Y-66533400D02*
X90085800Y-66533400D01*
X90085800Y-67883400D02*
X89085800Y-67883400D01*
X92311600Y-68057400D02*
X93311600Y-68057400D01*
X93311600Y-69407400D02*
X92311600Y-69407400D01*
X96426400Y-72731000D02*
X97426400Y-72731000D01*
X97426400Y-74081000D02*
X96426400Y-74081000D01*
X96426400Y-71029200D02*
X97426400Y-71029200D01*
X97426400Y-72379200D02*
X96426400Y-72379200D01*
X141161140Y-59994420D02*
X141161140Y-58994420D01*
X142511140Y-58994420D02*
X142511140Y-59994420D01*
X143800200Y-59994420D02*
X143800200Y-58994420D01*
X145150200Y-58994420D02*
X145150200Y-59994420D01*
X120994800Y-71407400D02*
X120994800Y-72407400D01*
X119644800Y-72407400D02*
X119644800Y-71407400D01*
X119644800Y-75099800D02*
X119644800Y-74099800D01*
X120994800Y-74099800D02*
X120994800Y-75099800D01*
X105124880Y-56355360D02*
X105124880Y-57355360D01*
X103774880Y-57355360D02*
X103774880Y-56355360D01*
X107410880Y-56380760D02*
X107410880Y-57380760D01*
X106060880Y-57380760D02*
X106060880Y-56380760D01*
X94314900Y-67515100D02*
X93314900Y-67515100D01*
X93314900Y-66165100D02*
X94314900Y-66165100D01*
X123603640Y-76996920D02*
X122603640Y-76996920D01*
X122603640Y-75646920D02*
X123603640Y-75646920D01*
X126077600Y-60009400D02*
X125077600Y-60009400D01*
X125077600Y-58659400D02*
X126077600Y-58659400D01*
X131767200Y-60009400D02*
X130767200Y-60009400D01*
X130767200Y-58659400D02*
X131767200Y-58659400D01*
X137406000Y-60009400D02*
X136406000Y-60009400D01*
X136406000Y-58659400D02*
X137406000Y-58659400D01*
X118298600Y-54246400D02*
X118298600Y-53246400D01*
X119648600Y-53246400D02*
X119648600Y-54246400D01*
X170558311Y-57048153D02*
X171558311Y-57048153D01*
X171558311Y-58398153D02*
X170558311Y-58398153D01*
X163914200Y-95235400D02*
X164914200Y-95235400D01*
X164914200Y-96585400D02*
X163914200Y-96585400D01*
X158990624Y-60519832D02*
X158990624Y-59519832D01*
X160340624Y-59519832D02*
X160340624Y-60519832D01*
X158990624Y-63288432D02*
X158990624Y-62288432D01*
X160340624Y-62288432D02*
X160340624Y-63288432D01*
X176979200Y-59120400D02*
X175979200Y-59120400D01*
X175979200Y-57770400D02*
X176979200Y-57770400D01*
X165828600Y-58688600D02*
X164828600Y-58688600D01*
X164828600Y-57338600D02*
X165828600Y-57338600D01*
X151020400Y-98007800D02*
X150020400Y-98007800D01*
X150020400Y-96657800D02*
X151020400Y-96657800D01*
X172823500Y-67533900D02*
X172823500Y-68533900D01*
X171473500Y-68533900D02*
X171473500Y-67533900D01*
X172950500Y-80437100D02*
X172950500Y-81437100D01*
X171600500Y-81437100D02*
X171600500Y-80437100D01*
X172861600Y-93619700D02*
X172861600Y-94619700D01*
X171511600Y-94619700D02*
X171511600Y-93619700D01*
X105455080Y-62103380D02*
X105455080Y-63103380D01*
X104105080Y-63103380D02*
X104105080Y-62103380D01*
X130000000Y-103825000D02*
X131000000Y-103825000D01*
X131000000Y-105175000D02*
X130000000Y-105175000D01*
X127000000Y-103825000D02*
X128000000Y-103825000D01*
X128000000Y-105175000D02*
X127000000Y-105175000D01*
X123675000Y-107500000D02*
X123675000Y-108500000D01*
X122325000Y-108500000D02*
X122325000Y-107500000D01*
X120325000Y-108500000D02*
X120325000Y-107500000D01*
X121675000Y-107500000D02*
X121675000Y-108500000D01*
X108500000Y-121325000D02*
X109500000Y-121325000D01*
X109500000Y-122675000D02*
X108500000Y-122675000D01*
X109500000Y-120175000D02*
X108500000Y-120175000D01*
X108500000Y-118825000D02*
X109500000Y-118825000D01*
X112000000Y-118825000D02*
X113000000Y-118825000D01*
X113000000Y-120175000D02*
X112000000Y-120175000D01*
X149325000Y-128000000D02*
X149325000Y-127000000D01*
X150675000Y-127000000D02*
X150675000Y-128000000D01*
X115000000Y-118825000D02*
X116000000Y-118825000D01*
X116000000Y-120175000D02*
X115000000Y-120175000D01*
X143325000Y-123000000D02*
X143325000Y-122000000D01*
X144675000Y-122000000D02*
X144675000Y-123000000D01*
X131825000Y-122500000D02*
X131825000Y-121500000D01*
X133175000Y-121500000D02*
X133175000Y-122500000D01*
X146325000Y-118000000D02*
X146325000Y-117000000D01*
X147675000Y-117000000D02*
X147675000Y-118000000D01*
X144675000Y-125500000D02*
X144675000Y-126500000D01*
X143325000Y-126500000D02*
X143325000Y-125500000D01*
X138675000Y-111500000D02*
X138675000Y-112500000D01*
X137325000Y-112500000D02*
X137325000Y-111500000D01*
X126034800Y-53009800D02*
X120954800Y-53009800D01*
X126034800Y-57454800D02*
X120954800Y-57454800D01*
X120954800Y-51104800D02*
X126034800Y-51104800D01*
X120954800Y-51104800D02*
X120954800Y-57454800D01*
X126034800Y-51104800D02*
X126034800Y-57454800D01*
X131749800Y-53009800D02*
X126669800Y-53009800D01*
X131749800Y-57454800D02*
X126669800Y-57454800D01*
X126669800Y-51104800D02*
X131749800Y-51104800D01*
X126669800Y-51104800D02*
X126669800Y-57454800D01*
X131749800Y-51104800D02*
X131749800Y-57454800D01*
X137363200Y-52984400D02*
X132283200Y-52984400D01*
X137363200Y-57429400D02*
X132283200Y-57429400D01*
X132283200Y-51079400D02*
X137363200Y-51079400D01*
X132283200Y-51079400D02*
X132283200Y-57429400D01*
X137363200Y-51079400D02*
X137363200Y-57429400D01*
X115725600Y-51944800D02*
G75*
G03X115725600Y-51944800I-100000J0D01*
G01*
X116175600Y-52194800D02*
X115675600Y-52194800D01*
X116175600Y-55094800D02*
X116175600Y-52194800D01*
X115675600Y-55094800D02*
X116175600Y-55094800D01*
X115675600Y-52194800D02*
X115675600Y-55094800D01*
X153950624Y-59499132D02*
G75*
G03X153950624Y-59499132I-127000J0D01*
G01*
X153188624Y-58864132D02*
X153188624Y-63944132D01*
X156490624Y-58864132D02*
X156490624Y-63944132D01*
X152680624Y-58864132D02*
X152680624Y-63944132D01*
X152680624Y-58864132D02*
X156490624Y-58864132D01*
X152680624Y-63944132D02*
X156490624Y-63944132D01*
X123952000Y-61112400D02*
X123952000Y-66192400D01*
X123952000Y-66192400D02*
X119380000Y-66192400D01*
X119380000Y-66192400D02*
X119380000Y-61112400D01*
X119380000Y-61112400D02*
X123952000Y-61112400D01*
X122428000Y-61112400D02*
X122428000Y-61620400D01*
X122428000Y-61620400D02*
X121158000Y-61620400D01*
X121158000Y-61620400D02*
X121158000Y-61112400D01*
X127500000Y-110700000D02*
G75*
G03X127500000Y-110700000I-100000J0D01*
G01*
X126750000Y-110450000D02*
X127250000Y-110450000D01*
X126750000Y-107550000D02*
X126750000Y-110450000D01*
X127250000Y-107550000D02*
X126750000Y-107550000D01*
X127250000Y-110450000D02*
X127250000Y-107550000D01*
X115000000Y-124700000D02*
G75*
G03X115000000Y-124700000I-100000J0D01*
G01*
X114250000Y-124450000D02*
X114750000Y-124450000D01*
X114250000Y-121550000D02*
X114250000Y-124450000D01*
X114750000Y-121550000D02*
X114250000Y-121550000D01*
X114750000Y-124450000D02*
X114750000Y-121550000D01*
X170270911Y-59602753D02*
G75*
G03X170270911Y-59602753I-127000J0D01*
G01*
X169508911Y-58967753D02*
X169508911Y-64047753D01*
X172810911Y-58967753D02*
X172810911Y-64047753D01*
X169000911Y-58967753D02*
X169000911Y-64047753D01*
X169000911Y-58967753D02*
X172810911Y-58967753D01*
X169000911Y-64047753D02*
X172810911Y-64047753D01*
X85691800Y-67783800D02*
X87591800Y-67783800D01*
X85691800Y-66683800D02*
X87591800Y-66683800D01*
X86591800Y-67233800D02*
X87041800Y-67233800D01*
X86541800Y-66983800D02*
X86541800Y-67483800D01*
X86541800Y-67233800D02*
X86791800Y-66983800D01*
X86791800Y-66983800D02*
X86791800Y-67483800D01*
X86791800Y-67483800D02*
X86541800Y-67233800D01*
X103899880Y-52935960D02*
X103899880Y-54835960D01*
X104999880Y-52935960D02*
X104999880Y-54835960D01*
X104449880Y-53835960D02*
X104449880Y-54285960D01*
X104699880Y-53785960D02*
X104199880Y-53785960D01*
X104449880Y-53785960D02*
X104699880Y-54035960D01*
X104699880Y-54035960D02*
X104199880Y-54035960D01*
X104199880Y-54035960D02*
X104449880Y-53785960D01*
X106185880Y-52961360D02*
X106185880Y-54861360D01*
X107285880Y-52961360D02*
X107285880Y-54861360D01*
X106735880Y-53861360D02*
X106735880Y-54311360D01*
X106985880Y-53811360D02*
X106485880Y-53811360D01*
X106735880Y-53811360D02*
X106985880Y-54061360D01*
X106985880Y-54061360D02*
X106485880Y-54061360D01*
X106485880Y-54061360D02*
X106735880Y-53811360D01*
X108497280Y-52961360D02*
X108497280Y-54861360D01*
X109597280Y-52961360D02*
X109597280Y-54861360D01*
X109047280Y-53861360D02*
X109047280Y-54311360D01*
X109297280Y-53811360D02*
X108797280Y-53811360D01*
X109047280Y-53811360D02*
X109297280Y-54061360D01*
X109297280Y-54061360D02*
X108797280Y-54061360D01*
X108797280Y-54061360D02*
X109047280Y-53811360D01*
X155757060Y-100835460D02*
X155757060Y-100484940D01*
X155757060Y-97335340D02*
X155757060Y-97685860D01*
X159806640Y-100835460D02*
X159806640Y-100484940D01*
X155305760Y-100835460D02*
X155305760Y-100484940D01*
X155305760Y-97335340D02*
X155305760Y-97685860D01*
X159806640Y-97335340D02*
X159806640Y-97685860D01*
X155305760Y-100835460D02*
X159806640Y-100835460D01*
X155305760Y-97335340D02*
X159806640Y-97335340D01*
X159406140Y-92534740D02*
X159406140Y-92885260D01*
X159406140Y-96034860D02*
X159406140Y-95684340D01*
X155356560Y-92534740D02*
X155356560Y-92885260D01*
X159857440Y-92534740D02*
X159857440Y-92885260D01*
X159857440Y-96034860D02*
X159857440Y-95684340D01*
X155356560Y-96034860D02*
X155356560Y-95684340D01*
X159857440Y-92534740D02*
X155356560Y-92534740D01*
X159857440Y-96034860D02*
X155356560Y-96034860D01*
X128299960Y-79223160D02*
X127599960Y-79223160D01*
X127599960Y-78023160D02*
X128299960Y-78023160D01*
X109722280Y-56380760D02*
X109722280Y-57380760D01*
X108372280Y-57380760D02*
X108372280Y-56380760D01*
X137160520Y-70540320D02*
X137860520Y-70540320D01*
X137860520Y-71740320D02*
X137160520Y-71740320D01*
X165659400Y-101647400D02*
X149159400Y-101647400D01*
X149159400Y-101647400D02*
X149159400Y-124147400D01*
X165659400Y-124147400D02*
X149159400Y-124147400D01*
X165659400Y-101647400D02*
X165659400Y-124147400D01*
X138296100Y-56254300D02*
X138296100Y-51754300D01*
X138296100Y-51754300D02*
X148196100Y-51754300D01*
X148196100Y-51754300D02*
X148196100Y-56254300D01*
X148196100Y-56254300D02*
X138296100Y-56254300D01*
X140746100Y-51754300D02*
X140746100Y-52254300D01*
X140746100Y-52254300D02*
X138796100Y-52254300D01*
X138796100Y-52254300D02*
X138796100Y-55754300D01*
X138796100Y-55754300D02*
X147696100Y-55754300D01*
X147696100Y-55754300D02*
X147696100Y-52254300D01*
X147696100Y-52254300D02*
X145746100Y-52254300D01*
X145746100Y-52254300D02*
X145746100Y-51754300D01*
X138296100Y-52954300D02*
X138796100Y-52954300D01*
X138296100Y-54254300D02*
X138796100Y-54254300D01*
X147696100Y-52954300D02*
X148196100Y-52954300D01*
X147696100Y-54254300D02*
X148196100Y-54254300D01*
X139946100Y-51754300D02*
X139946100Y-51554300D01*
X139946100Y-51554300D02*
X139646100Y-51554300D01*
X139646100Y-51554300D02*
X139646100Y-51754300D01*
X139946100Y-51654300D02*
X139646100Y-51654300D01*
X141146100Y-55754300D02*
X141146100Y-55254300D01*
X141146100Y-55254300D02*
X141346100Y-55254300D01*
X141346100Y-55254300D02*
X141346100Y-55754300D01*
X141246100Y-55754300D02*
X141246100Y-55254300D01*
X143146100Y-55754300D02*
X143146100Y-55254300D01*
X143146100Y-55254300D02*
X143346100Y-55254300D01*
X143346100Y-55254300D02*
X143346100Y-55754300D01*
X143246100Y-55754300D02*
X143246100Y-55254300D01*
X145146100Y-55754300D02*
X145146100Y-55254300D01*
X145146100Y-55254300D02*
X145346100Y-55254300D01*
X145346100Y-55254300D02*
X145346100Y-55754300D01*
X145246100Y-55754300D02*
X145246100Y-55254300D01*
X149345100Y-56254300D02*
X149345100Y-51754300D01*
X149345100Y-51754300D02*
X159245100Y-51754300D01*
X159245100Y-51754300D02*
X159245100Y-56254300D01*
X159245100Y-56254300D02*
X149345100Y-56254300D01*
X151795100Y-51754300D02*
X151795100Y-52254300D01*
X151795100Y-52254300D02*
X149845100Y-52254300D01*
X149845100Y-52254300D02*
X149845100Y-55754300D01*
X149845100Y-55754300D02*
X158745100Y-55754300D01*
X158745100Y-55754300D02*
X158745100Y-52254300D01*
X158745100Y-52254300D02*
X156795100Y-52254300D01*
X156795100Y-52254300D02*
X156795100Y-51754300D01*
X149345100Y-52954300D02*
X149845100Y-52954300D01*
X149345100Y-54254300D02*
X149845100Y-54254300D01*
X158745100Y-52954300D02*
X159245100Y-52954300D01*
X158745100Y-54254300D02*
X159245100Y-54254300D01*
X150995100Y-51754300D02*
X150995100Y-51554300D01*
X150995100Y-51554300D02*
X150695100Y-51554300D01*
X150695100Y-51554300D02*
X150695100Y-51754300D01*
X150995100Y-51654300D02*
X150695100Y-51654300D01*
X152195100Y-55754300D02*
X152195100Y-55254300D01*
X152195100Y-55254300D02*
X152395100Y-55254300D01*
X152395100Y-55254300D02*
X152395100Y-55754300D01*
X152295100Y-55754300D02*
X152295100Y-55254300D01*
X154195100Y-55754300D02*
X154195100Y-55254300D01*
X154195100Y-55254300D02*
X154395100Y-55254300D01*
X154395100Y-55254300D02*
X154395100Y-55754300D01*
X154295100Y-55754300D02*
X154295100Y-55254300D01*
X156195100Y-55754300D02*
X156195100Y-55254300D01*
X156195100Y-55254300D02*
X156395100Y-55254300D01*
X156395100Y-55254300D02*
X156395100Y-55754300D01*
X156295100Y-55754300D02*
X156295100Y-55254300D01*
X160470300Y-56254300D02*
X160470300Y-51754300D01*
X160470300Y-51754300D02*
X170370300Y-51754300D01*
X170370300Y-51754300D02*
X170370300Y-56254300D01*
X170370300Y-56254300D02*
X160470300Y-56254300D01*
X162920300Y-51754300D02*
X162920300Y-52254300D01*
X162920300Y-52254300D02*
X160970300Y-52254300D01*
X160970300Y-52254300D02*
X160970300Y-55754300D01*
X160970300Y-55754300D02*
X169870300Y-55754300D01*
X169870300Y-55754300D02*
X169870300Y-52254300D01*
X169870300Y-52254300D02*
X167920300Y-52254300D01*
X167920300Y-52254300D02*
X167920300Y-51754300D01*
X160470300Y-52954300D02*
X160970300Y-52954300D01*
X160470300Y-54254300D02*
X160970300Y-54254300D01*
X169870300Y-52954300D02*
X170370300Y-52954300D01*
X169870300Y-54254300D02*
X170370300Y-54254300D01*
X162120300Y-51754300D02*
X162120300Y-51554300D01*
X162120300Y-51554300D02*
X161820300Y-51554300D01*
X161820300Y-51554300D02*
X161820300Y-51754300D01*
X162120300Y-51654300D02*
X161820300Y-51654300D01*
X163320300Y-55754300D02*
X163320300Y-55254300D01*
X163320300Y-55254300D02*
X163520300Y-55254300D01*
X163520300Y-55254300D02*
X163520300Y-55754300D01*
X163420300Y-55754300D02*
X163420300Y-55254300D01*
X165320300Y-55754300D02*
X165320300Y-55254300D01*
X165320300Y-55254300D02*
X165520300Y-55254300D01*
X165520300Y-55254300D02*
X165520300Y-55754300D01*
X165420300Y-55754300D02*
X165420300Y-55254300D01*
X167320300Y-55754300D02*
X167320300Y-55254300D01*
X167320300Y-55254300D02*
X167520300Y-55254300D01*
X167520300Y-55254300D02*
X167520300Y-55754300D01*
X167420300Y-55754300D02*
X167420300Y-55254300D01*
X171595500Y-56254300D02*
X171595500Y-51754300D01*
X171595500Y-51754300D02*
X181495500Y-51754300D01*
X181495500Y-51754300D02*
X181495500Y-56254300D01*
X181495500Y-56254300D02*
X171595500Y-56254300D01*
X174045500Y-51754300D02*
X174045500Y-52254300D01*
X174045500Y-52254300D02*
X172095500Y-52254300D01*
X172095500Y-52254300D02*
X172095500Y-55754300D01*
X172095500Y-55754300D02*
X180995500Y-55754300D01*
X180995500Y-55754300D02*
X180995500Y-52254300D01*
X180995500Y-52254300D02*
X179045500Y-52254300D01*
X179045500Y-52254300D02*
X179045500Y-51754300D01*
X171595500Y-52954300D02*
X172095500Y-52954300D01*
X171595500Y-54254300D02*
X172095500Y-54254300D01*
X180995500Y-52954300D02*
X181495500Y-52954300D01*
X180995500Y-54254300D02*
X181495500Y-54254300D01*
X173245500Y-51754300D02*
X173245500Y-51554300D01*
X173245500Y-51554300D02*
X172945500Y-51554300D01*
X172945500Y-51554300D02*
X172945500Y-51754300D01*
X173245500Y-51654300D02*
X172945500Y-51654300D01*
X174445500Y-55754300D02*
X174445500Y-55254300D01*
X174445500Y-55254300D02*
X174645500Y-55254300D01*
X174645500Y-55254300D02*
X174645500Y-55754300D01*
X174545500Y-55754300D02*
X174545500Y-55254300D01*
X176445500Y-55754300D02*
X176445500Y-55254300D01*
X176445500Y-55254300D02*
X176645500Y-55254300D01*
X176645500Y-55254300D02*
X176645500Y-55754300D01*
X176545500Y-55754300D02*
X176545500Y-55254300D01*
X178445500Y-55754300D02*
X178445500Y-55254300D01*
X178445500Y-55254300D02*
X178645500Y-55254300D01*
X178645500Y-55254300D02*
X178645500Y-55754300D01*
X178545500Y-55754300D02*
X178545500Y-55254300D01*
X100248720Y-65412620D02*
X100223320Y-51356260D01*
X84134960Y-52910740D02*
X84129880Y-51386740D01*
X84129880Y-51386740D02*
X84175600Y-51391820D01*
X100101400Y-65407540D02*
X84203540Y-65417700D01*
X84203540Y-65417700D02*
X84145120Y-65415160D01*
X100045520Y-51371500D02*
X84145120Y-51386740D01*
X84145120Y-51386740D02*
X84160360Y-51386740D01*
X84134960Y-65432940D02*
X84134960Y-52889760D01*
X116146200Y-64962400D02*
X115146200Y-64962400D01*
X115146200Y-63612400D02*
X116146200Y-63612400D01*
X120446800Y-78816200D02*
G75*
G03X120446800Y-78816200I-127000J0D01*
G01*
X115620800Y-83134200D02*
G75*
G03X115620800Y-83134200I-127000J0D01*
G01*
X116636800Y-79070200D02*
X115620800Y-79070200D01*
X115620800Y-79070200D02*
X115620800Y-82880200D01*
X115620800Y-82880200D02*
X120192800Y-82880200D01*
X120192800Y-82880200D02*
X120192800Y-79070200D01*
X120192800Y-79070200D02*
X116636800Y-79070200D01*
X98765000Y-113576600D02*
X83015000Y-113576600D01*
X98765000Y-121576600D02*
X98765000Y-113576600D01*
X83015000Y-121576600D02*
X98765000Y-121576600D01*
X83015000Y-121576600D02*
X83015000Y-113576600D01*
X169749000Y-78698800D02*
X185499000Y-78698800D01*
X169749000Y-70698800D02*
X169749000Y-78698800D01*
X185499000Y-70698800D02*
X169749000Y-70698800D01*
X185499000Y-70698800D02*
X185499000Y-78698800D01*
X169749000Y-91731600D02*
X185499000Y-91731600D01*
X169749000Y-83731600D02*
X169749000Y-91731600D01*
X185499000Y-83731600D02*
X169749000Y-83731600D01*
X185499000Y-83731600D02*
X185499000Y-91731600D01*
X169611400Y-104914200D02*
X185361400Y-104914200D01*
X169611400Y-96914200D02*
X169611400Y-104914200D01*
X185361400Y-96914200D02*
X169611400Y-96914200D01*
X185361400Y-96914200D02*
X185361400Y-104914200D01*
X169662200Y-130415800D02*
X185412200Y-130415800D01*
X169662200Y-122415800D02*
X169662200Y-130415800D01*
X185412200Y-122415800D02*
X169662200Y-122415800D01*
X185412200Y-122415800D02*
X185412200Y-130415800D01*
X169687600Y-121856000D02*
X185437600Y-121856000D01*
X169687600Y-113856000D02*
X169687600Y-121856000D01*
X185437600Y-113856000D02*
X169687600Y-113856000D01*
X185437600Y-113856000D02*
X185437600Y-121856000D01*
X169636800Y-113347000D02*
X185386800Y-113347000D01*
X169636800Y-105347000D02*
X169636800Y-113347000D01*
X185386800Y-105347000D02*
X169636800Y-105347000D01*
X185386800Y-105347000D02*
X185386800Y-113347000D01*
X130185160Y-74965560D02*
G75*
G03X130185160Y-74965560I-127000J0D01*
G01*
X133233160Y-76108560D02*
X133233160Y-75219560D01*
X133233160Y-75219560D02*
X130439160Y-75219560D01*
X130439160Y-75219560D02*
X130439160Y-78267560D01*
X130439160Y-78267560D02*
X133233160Y-78267560D01*
X133233160Y-78267560D02*
X133233160Y-76108560D01*
D14*
X130331000Y-83431400D02*
X130331000Y-79931400D01*
X130331000Y-79931400D02*
X133331000Y-79931400D01*
X133331000Y-79931400D02*
X133331000Y-83431400D01*
X133331000Y-83431400D02*
X130331000Y-83431400D01*
D13*
X125746103Y-70754200D02*
G75*
G03X125746103Y-70754200I-86023J0D01*
G01*
X124592080Y-75006200D02*
X125481080Y-75006200D01*
X125481080Y-75006200D02*
X125481080Y-70942200D01*
X125481080Y-70942200D02*
X122179080Y-70942200D01*
X122179080Y-70942200D02*
X122179080Y-75006200D01*
X122179080Y-75006200D02*
X124592080Y-75006200D01*
X114802623Y-63577400D02*
G75*
G03X114802623Y-63577400I-86023J0D01*
G01*
X110464600Y-62509400D02*
X110464600Y-63398400D01*
X110464600Y-63398400D02*
X114528600Y-63398400D01*
X114528600Y-63398400D02*
X114528600Y-60096400D01*
X114528600Y-60096400D02*
X110464600Y-60096400D01*
X110464600Y-60096400D02*
X110464600Y-62509400D01*
X99553623Y-66283800D02*
G75*
G03X99553623Y-66283800I-86023J0D01*
G01*
X98399600Y-70535800D02*
X99288600Y-70535800D01*
X99288600Y-70535800D02*
X99288600Y-66471800D01*
X99288600Y-66471800D02*
X95986600Y-66471800D01*
X95986600Y-66471800D02*
X95986600Y-70535800D01*
X95986600Y-70535800D02*
X98399600Y-70535800D01*
X91829623Y-74711600D02*
G75*
G03X91829623Y-74711600I-86023J0D01*
G01*
X92811600Y-70459600D02*
X91922600Y-70459600D01*
X91922600Y-70459600D02*
X91922600Y-74523600D01*
X91922600Y-74523600D02*
X95224600Y-74523600D01*
X95224600Y-74523600D02*
X95224600Y-70459600D01*
X95224600Y-70459600D02*
X92811600Y-70459600D01*
X153845981Y-86793295D02*
X152845981Y-86793295D01*
X153845981Y-86221866D02*
X153274552Y-86650438D01*
X152845981Y-86221866D02*
X153417410Y-86793295D01*
X152941219Y-85840914D02*
X152893600Y-85793295D01*
X152845981Y-85698057D01*
X152845981Y-85459961D01*
X152893600Y-85364723D01*
X152941219Y-85317104D01*
X153036457Y-85269485D01*
X153131695Y-85269485D01*
X153274552Y-85317104D01*
X153845981Y-85888533D01*
X153845981Y-85269485D01*
D11*
X109397848Y-64611390D02*
X109397848Y-65016152D01*
X109421657Y-65063771D01*
X109445467Y-65087581D01*
X109493086Y-65111390D01*
X109588324Y-65111390D01*
X109635943Y-65087581D01*
X109659752Y-65063771D01*
X109683562Y-65016152D01*
X109683562Y-64611390D01*
X109874039Y-64611390D02*
X110183562Y-64611390D01*
X110016896Y-64801867D01*
X110088324Y-64801867D01*
X110135943Y-64825676D01*
X110159753Y-64849486D01*
X110183562Y-64897105D01*
X110183562Y-65016152D01*
X110159753Y-65063771D01*
X110135943Y-65087581D01*
X110088324Y-65111390D01*
X109945467Y-65111390D01*
X109897848Y-65087581D01*
X109874039Y-65063771D01*
X96107334Y-86917981D02*
X96178763Y-86941790D01*
X96297810Y-86941790D01*
X96345429Y-86917981D01*
X96369239Y-86894171D01*
X96393048Y-86846552D01*
X96393048Y-86798933D01*
X96369239Y-86751314D01*
X96345429Y-86727505D01*
X96297810Y-86703695D01*
X96202572Y-86679886D01*
X96154953Y-86656076D01*
X96131144Y-86632267D01*
X96107334Y-86584648D01*
X96107334Y-86537029D01*
X96131144Y-86489410D01*
X96154953Y-86465600D01*
X96202572Y-86441790D01*
X96321620Y-86441790D01*
X96393048Y-86465600D01*
X96559715Y-86441790D02*
X96678762Y-86941790D01*
X96774000Y-86584648D01*
X96869238Y-86941790D01*
X96988286Y-86441790D01*
X97440667Y-86941790D02*
X97154953Y-86941790D01*
X97297810Y-86941790D02*
X97297810Y-86441790D01*
X97250191Y-86513219D01*
X97202572Y-86560838D01*
X97154953Y-86584648D01*
D13*
X109016895Y-95167581D02*
X109016895Y-95977105D01*
X109064514Y-96072343D01*
X109112133Y-96119962D01*
X109207371Y-96167581D01*
X109397848Y-96167581D01*
X109493086Y-96119962D01*
X109540705Y-96072343D01*
X109588324Y-95977105D01*
X109588324Y-95167581D01*
X110588324Y-96167581D02*
X110016895Y-96167581D01*
X110302609Y-96167581D02*
X110302609Y-95167581D01*
X110207371Y-95310438D01*
X110112133Y-95405676D01*
X110016895Y-95453295D01*
X131328255Y-68957901D02*
X131328255Y-69767425D01*
X131375874Y-69862663D01*
X131423493Y-69910282D01*
X131518731Y-69957901D01*
X131709208Y-69957901D01*
X131804446Y-69910282D01*
X131852065Y-69862663D01*
X131899684Y-69767425D01*
X131899684Y-68957901D01*
X132280636Y-68957901D02*
X132947303Y-68957901D01*
X132518731Y-69957901D01*
D11*
X120998467Y-67285371D02*
X120974657Y-67309181D01*
X120903229Y-67332990D01*
X120855610Y-67332990D01*
X120784181Y-67309181D01*
X120736562Y-67261562D01*
X120712753Y-67213943D01*
X120688943Y-67118705D01*
X120688943Y-67047276D01*
X120712753Y-66952038D01*
X120736562Y-66904419D01*
X120784181Y-66856800D01*
X120855610Y-66832990D01*
X120903229Y-66832990D01*
X120974657Y-66856800D01*
X120998467Y-66880610D01*
X121474657Y-67332990D02*
X121188943Y-67332990D01*
X121331800Y-67332990D02*
X121331800Y-66832990D01*
X121284181Y-66904419D01*
X121236562Y-66952038D01*
X121188943Y-66975848D01*
X114224571Y-81160133D02*
X114248381Y-81183943D01*
X114272190Y-81255371D01*
X114272190Y-81302990D01*
X114248381Y-81374419D01*
X114200762Y-81422038D01*
X114153143Y-81445847D01*
X114057905Y-81469657D01*
X113986476Y-81469657D01*
X113891238Y-81445847D01*
X113843619Y-81422038D01*
X113796000Y-81374419D01*
X113772190Y-81302990D01*
X113772190Y-81255371D01*
X113796000Y-81183943D01*
X113819810Y-81160133D01*
X113819810Y-80969657D02*
X113796000Y-80945847D01*
X113772190Y-80898228D01*
X113772190Y-80779181D01*
X113796000Y-80731562D01*
X113819810Y-80707752D01*
X113867429Y-80683943D01*
X113915048Y-80683943D01*
X113986476Y-80707752D01*
X114272190Y-80993466D01*
X114272190Y-80683943D01*
D13*
X117402314Y-89498363D02*
X117354695Y-89545982D01*
X117211838Y-89593601D01*
X117116600Y-89593601D01*
X116973742Y-89545982D01*
X116878504Y-89450744D01*
X116830885Y-89355506D01*
X116783266Y-89165030D01*
X116783266Y-89022172D01*
X116830885Y-88831696D01*
X116878504Y-88736458D01*
X116973742Y-88641220D01*
X117116600Y-88593601D01*
X117211838Y-88593601D01*
X117354695Y-88641220D01*
X117402314Y-88688839D01*
X117735647Y-88593601D02*
X118354695Y-88593601D01*
X118021361Y-88974553D01*
X118164219Y-88974553D01*
X118259457Y-89022172D01*
X118307076Y-89069791D01*
X118354695Y-89165030D01*
X118354695Y-89403125D01*
X118307076Y-89498363D01*
X118259457Y-89545982D01*
X118164219Y-89593601D01*
X117878504Y-89593601D01*
X117783266Y-89545982D01*
X117735647Y-89498363D01*
X99904743Y-68759366D02*
X99952362Y-68806985D01*
X99999981Y-68949842D01*
X99999981Y-69045080D01*
X99952362Y-69187938D01*
X99857124Y-69283176D01*
X99761886Y-69330795D01*
X99571410Y-69378414D01*
X99428552Y-69378414D01*
X99238076Y-69330795D01*
X99142838Y-69283176D01*
X99047600Y-69187938D01*
X98999981Y-69045080D01*
X98999981Y-68949842D01*
X99047600Y-68806985D01*
X99095219Y-68759366D01*
X99333314Y-67902223D02*
X99999981Y-67902223D01*
X98952362Y-68140319D02*
X99666648Y-68378414D01*
X99666648Y-67759366D01*
D11*
X99441771Y-74759333D02*
X99465581Y-74783143D01*
X99489390Y-74854571D01*
X99489390Y-74902190D01*
X99465581Y-74973619D01*
X99417962Y-75021238D01*
X99370343Y-75045047D01*
X99275105Y-75068857D01*
X99203676Y-75068857D01*
X99108438Y-75045047D01*
X99060819Y-75021238D01*
X99013200Y-74973619D01*
X98989390Y-74902190D01*
X98989390Y-74854571D01*
X99013200Y-74783143D01*
X99037010Y-74759333D01*
X98989390Y-74306952D02*
X98989390Y-74545047D01*
X99227486Y-74568857D01*
X99203676Y-74545047D01*
X99179867Y-74497428D01*
X99179867Y-74378381D01*
X99203676Y-74330762D01*
X99227486Y-74306952D01*
X99275105Y-74283143D01*
X99394152Y-74283143D01*
X99441771Y-74306952D01*
X99465581Y-74330762D01*
X99489390Y-74378381D01*
X99489390Y-74497428D01*
X99465581Y-74545047D01*
X99441771Y-74568857D01*
X105631467Y-78766171D02*
X105607657Y-78789981D01*
X105536229Y-78813790D01*
X105488610Y-78813790D01*
X105417181Y-78789981D01*
X105369562Y-78742362D01*
X105345753Y-78694743D01*
X105321943Y-78599505D01*
X105321943Y-78528076D01*
X105345753Y-78432838D01*
X105369562Y-78385219D01*
X105417181Y-78337600D01*
X105488610Y-78313790D01*
X105536229Y-78313790D01*
X105607657Y-78337600D01*
X105631467Y-78361410D01*
X106060038Y-78313790D02*
X105964800Y-78313790D01*
X105917181Y-78337600D01*
X105893372Y-78361410D01*
X105845753Y-78432838D01*
X105821943Y-78528076D01*
X105821943Y-78718552D01*
X105845753Y-78766171D01*
X105869562Y-78789981D01*
X105917181Y-78813790D01*
X106012419Y-78813790D01*
X106060038Y-78789981D01*
X106083848Y-78766171D01*
X106107657Y-78718552D01*
X106107657Y-78599505D01*
X106083848Y-78551886D01*
X106060038Y-78528076D01*
X106012419Y-78504267D01*
X105917181Y-78504267D01*
X105869562Y-78528076D01*
X105845753Y-78551886D01*
X105821943Y-78599505D01*
D13*
X138756094Y-78065903D02*
X138708475Y-78113522D01*
X138565618Y-78161141D01*
X138470380Y-78161141D01*
X138327522Y-78113522D01*
X138232284Y-78018284D01*
X138184665Y-77923046D01*
X138137046Y-77732570D01*
X138137046Y-77589712D01*
X138184665Y-77399236D01*
X138232284Y-77303998D01*
X138327522Y-77208760D01*
X138470380Y-77161141D01*
X138565618Y-77161141D01*
X138708475Y-77208760D01*
X138756094Y-77256379D01*
X139232284Y-78161141D02*
X139422760Y-78161141D01*
X139517999Y-78113522D01*
X139565618Y-78065903D01*
X139660856Y-77923046D01*
X139708475Y-77732570D01*
X139708475Y-77351617D01*
X139660856Y-77256379D01*
X139613237Y-77208760D01*
X139517999Y-77161141D01*
X139327522Y-77161141D01*
X139232284Y-77208760D01*
X139184665Y-77256379D01*
X139137046Y-77351617D01*
X139137046Y-77589712D01*
X139184665Y-77684950D01*
X139232284Y-77732570D01*
X139327522Y-77780189D01*
X139517999Y-77780189D01*
X139613237Y-77732570D01*
X139660856Y-77684950D01*
X139708475Y-77589712D01*
X138889503Y-75703703D02*
X138841884Y-75751322D01*
X138699027Y-75798941D01*
X138603789Y-75798941D01*
X138460931Y-75751322D01*
X138365693Y-75656084D01*
X138318074Y-75560846D01*
X138270455Y-75370370D01*
X138270455Y-75227512D01*
X138318074Y-75037036D01*
X138365693Y-74941798D01*
X138460931Y-74846560D01*
X138603789Y-74798941D01*
X138699027Y-74798941D01*
X138841884Y-74846560D01*
X138889503Y-74894179D01*
X139841884Y-75798941D02*
X139270455Y-75798941D01*
X139556169Y-75798941D02*
X139556169Y-74798941D01*
X139460931Y-74941798D01*
X139365693Y-75037036D01*
X139270455Y-75084655D01*
X140460931Y-74798941D02*
X140556170Y-74798941D01*
X140651408Y-74846560D01*
X140699027Y-74894179D01*
X140746646Y-74989417D01*
X140794265Y-75179893D01*
X140794265Y-75417989D01*
X140746646Y-75608465D01*
X140699027Y-75703703D01*
X140651408Y-75751322D01*
X140556170Y-75798941D01*
X140460931Y-75798941D01*
X140365693Y-75751322D01*
X140318074Y-75703703D01*
X140270455Y-75608465D01*
X140222836Y-75417989D01*
X140222836Y-75179893D01*
X140270455Y-74989417D01*
X140318074Y-74894179D01*
X140365693Y-74846560D01*
X140460931Y-74798941D01*
D11*
X129233812Y-88016851D02*
X129210002Y-88040661D01*
X129138574Y-88064470D01*
X129090955Y-88064470D01*
X129019526Y-88040661D01*
X128971907Y-87993042D01*
X128948098Y-87945423D01*
X128924288Y-87850185D01*
X128924288Y-87778756D01*
X128948098Y-87683518D01*
X128971907Y-87635899D01*
X129019526Y-87588280D01*
X129090955Y-87564470D01*
X129138574Y-87564470D01*
X129210002Y-87588280D01*
X129233812Y-87612090D01*
X129710002Y-88064470D02*
X129424288Y-88064470D01*
X129567145Y-88064470D02*
X129567145Y-87564470D01*
X129519526Y-87635899D01*
X129471907Y-87683518D01*
X129424288Y-87707328D01*
X129900478Y-87612090D02*
X129924288Y-87588280D01*
X129971907Y-87564470D01*
X130090954Y-87564470D01*
X130138573Y-87588280D01*
X130162383Y-87612090D01*
X130186192Y-87659709D01*
X130186192Y-87707328D01*
X130162383Y-87778756D01*
X129876669Y-88064470D01*
X130186192Y-88064470D01*
X126304811Y-80463508D02*
X126328621Y-80487318D01*
X126352430Y-80558746D01*
X126352430Y-80606365D01*
X126328621Y-80677794D01*
X126281002Y-80725413D01*
X126233383Y-80749222D01*
X126138145Y-80773032D01*
X126066716Y-80773032D01*
X125971478Y-80749222D01*
X125923859Y-80725413D01*
X125876240Y-80677794D01*
X125852430Y-80606365D01*
X125852430Y-80558746D01*
X125876240Y-80487318D01*
X125900050Y-80463508D01*
X126352430Y-79987318D02*
X126352430Y-80273032D01*
X126352430Y-80130175D02*
X125852430Y-80130175D01*
X125923859Y-80177794D01*
X125971478Y-80225413D01*
X125995288Y-80273032D01*
X125852430Y-79820651D02*
X125852430Y-79511128D01*
X126042907Y-79677794D01*
X126042907Y-79606366D01*
X126066716Y-79558747D01*
X126090526Y-79534937D01*
X126138145Y-79511128D01*
X126257192Y-79511128D01*
X126304811Y-79534937D01*
X126328621Y-79558747D01*
X126352430Y-79606366D01*
X126352430Y-79749223D01*
X126328621Y-79796842D01*
X126304811Y-79820651D01*
X115045372Y-57734971D02*
X115021562Y-57758781D01*
X114950134Y-57782590D01*
X114902515Y-57782590D01*
X114831086Y-57758781D01*
X114783467Y-57711162D01*
X114759658Y-57663543D01*
X114735848Y-57568305D01*
X114735848Y-57496876D01*
X114759658Y-57401638D01*
X114783467Y-57354019D01*
X114831086Y-57306400D01*
X114902515Y-57282590D01*
X114950134Y-57282590D01*
X115021562Y-57306400D01*
X115045372Y-57330210D01*
X115521562Y-57782590D02*
X115235848Y-57782590D01*
X115378705Y-57782590D02*
X115378705Y-57282590D01*
X115331086Y-57354019D01*
X115283467Y-57401638D01*
X115235848Y-57425448D01*
X115950133Y-57449257D02*
X115950133Y-57782590D01*
X115831086Y-57258781D02*
X115712038Y-57615924D01*
X116021562Y-57615924D01*
X126342911Y-82038308D02*
X126366721Y-82062118D01*
X126390530Y-82133546D01*
X126390530Y-82181165D01*
X126366721Y-82252594D01*
X126319102Y-82300213D01*
X126271483Y-82324022D01*
X126176245Y-82347832D01*
X126104816Y-82347832D01*
X126009578Y-82324022D01*
X125961959Y-82300213D01*
X125914340Y-82252594D01*
X125890530Y-82181165D01*
X125890530Y-82133546D01*
X125914340Y-82062118D01*
X125938150Y-82038308D01*
X126390530Y-81562118D02*
X126390530Y-81847832D01*
X126390530Y-81704975D02*
X125890530Y-81704975D01*
X125961959Y-81752594D01*
X126009578Y-81800213D01*
X126033388Y-81847832D01*
X125890530Y-81109737D02*
X125890530Y-81347832D01*
X126128626Y-81371642D01*
X126104816Y-81347832D01*
X126081007Y-81300213D01*
X126081007Y-81181166D01*
X126104816Y-81133547D01*
X126128626Y-81109737D01*
X126176245Y-81085928D01*
X126295292Y-81085928D01*
X126342911Y-81109737D01*
X126366721Y-81133547D01*
X126390530Y-81181166D01*
X126390530Y-81300213D01*
X126366721Y-81347832D01*
X126342911Y-81371642D01*
X126304811Y-83668988D02*
X126328621Y-83692798D01*
X126352430Y-83764226D01*
X126352430Y-83811845D01*
X126328621Y-83883274D01*
X126281002Y-83930893D01*
X126233383Y-83954702D01*
X126138145Y-83978512D01*
X126066716Y-83978512D01*
X125971478Y-83954702D01*
X125923859Y-83930893D01*
X125876240Y-83883274D01*
X125852430Y-83811845D01*
X125852430Y-83764226D01*
X125876240Y-83692798D01*
X125900050Y-83668988D01*
X126352430Y-83192798D02*
X126352430Y-83478512D01*
X126352430Y-83335655D02*
X125852430Y-83335655D01*
X125923859Y-83383274D01*
X125971478Y-83430893D01*
X125995288Y-83478512D01*
X125852430Y-82764227D02*
X125852430Y-82859465D01*
X125876240Y-82907084D01*
X125900050Y-82930893D01*
X125971478Y-82978512D01*
X126066716Y-83002322D01*
X126257192Y-83002322D01*
X126304811Y-82978512D01*
X126328621Y-82954703D01*
X126352430Y-82907084D01*
X126352430Y-82811846D01*
X126328621Y-82764227D01*
X126304811Y-82740417D01*
X126257192Y-82716608D01*
X126138145Y-82716608D01*
X126090526Y-82740417D01*
X126066716Y-82764227D01*
X126042907Y-82811846D01*
X126042907Y-82907084D01*
X126066716Y-82954703D01*
X126090526Y-82978512D01*
X126138145Y-83002322D01*
X165064682Y-61879981D02*
X165088492Y-61903791D01*
X165112301Y-61975219D01*
X165112301Y-62022838D01*
X165088492Y-62094267D01*
X165040873Y-62141886D01*
X164993254Y-62165695D01*
X164898016Y-62189505D01*
X164826587Y-62189505D01*
X164731349Y-62165695D01*
X164683730Y-62141886D01*
X164636111Y-62094267D01*
X164612301Y-62022838D01*
X164612301Y-61975219D01*
X164636111Y-61903791D01*
X164659921Y-61879981D01*
X165112301Y-61403791D02*
X165112301Y-61689505D01*
X165112301Y-61546648D02*
X164612301Y-61546648D01*
X164683730Y-61594267D01*
X164731349Y-61641886D01*
X164755159Y-61689505D01*
X164612301Y-61237124D02*
X164612301Y-60903791D01*
X165112301Y-61118077D01*
X156664115Y-58273700D02*
X156687925Y-58297510D01*
X156711734Y-58368938D01*
X156711734Y-58416557D01*
X156687925Y-58487986D01*
X156640306Y-58535605D01*
X156592687Y-58559414D01*
X156497449Y-58583224D01*
X156426020Y-58583224D01*
X156330782Y-58559414D01*
X156283163Y-58535605D01*
X156235544Y-58487986D01*
X156211734Y-58416557D01*
X156211734Y-58368938D01*
X156235544Y-58297510D01*
X156259354Y-58273700D01*
X156711734Y-57797510D02*
X156711734Y-58083224D01*
X156711734Y-57940367D02*
X156211734Y-57940367D01*
X156283163Y-57987986D01*
X156330782Y-58035605D01*
X156354592Y-58083224D01*
X156426020Y-57511796D02*
X156402211Y-57559415D01*
X156378401Y-57583224D01*
X156330782Y-57607034D01*
X156306973Y-57607034D01*
X156259354Y-57583224D01*
X156235544Y-57559415D01*
X156211734Y-57511796D01*
X156211734Y-57416558D01*
X156235544Y-57368939D01*
X156259354Y-57345129D01*
X156306973Y-57321320D01*
X156330782Y-57321320D01*
X156378401Y-57345129D01*
X156402211Y-57368939D01*
X156426020Y-57416558D01*
X156426020Y-57511796D01*
X156449830Y-57559415D01*
X156473639Y-57583224D01*
X156521258Y-57607034D01*
X156616496Y-57607034D01*
X156664115Y-57583224D01*
X156687925Y-57559415D01*
X156711734Y-57511796D01*
X156711734Y-57416558D01*
X156687925Y-57368939D01*
X156664115Y-57345129D01*
X156616496Y-57321320D01*
X156521258Y-57321320D01*
X156473639Y-57345129D01*
X156449830Y-57368939D01*
X156426020Y-57416558D01*
X100264731Y-58693168D02*
X100288541Y-58716978D01*
X100312350Y-58788406D01*
X100312350Y-58836025D01*
X100288541Y-58907454D01*
X100240922Y-58955073D01*
X100193303Y-58978882D01*
X100098065Y-59002692D01*
X100026636Y-59002692D01*
X99931398Y-58978882D01*
X99883779Y-58955073D01*
X99836160Y-58907454D01*
X99812350Y-58836025D01*
X99812350Y-58788406D01*
X99836160Y-58716978D01*
X99859970Y-58693168D01*
X100312350Y-58216978D02*
X100312350Y-58502692D01*
X100312350Y-58359835D02*
X99812350Y-58359835D01*
X99883779Y-58407454D01*
X99931398Y-58455073D01*
X99955208Y-58502692D01*
X100312350Y-57978883D02*
X100312350Y-57883645D01*
X100288541Y-57836026D01*
X100264731Y-57812216D01*
X100193303Y-57764597D01*
X100098065Y-57740788D01*
X99907589Y-57740788D01*
X99859970Y-57764597D01*
X99836160Y-57788407D01*
X99812350Y-57836026D01*
X99812350Y-57931264D01*
X99836160Y-57978883D01*
X99859970Y-58002692D01*
X99907589Y-58026502D01*
X100026636Y-58026502D01*
X100074255Y-58002692D01*
X100098065Y-57978883D01*
X100121874Y-57931264D01*
X100121874Y-57836026D01*
X100098065Y-57788407D01*
X100074255Y-57764597D01*
X100026636Y-57740788D01*
X100295211Y-60308608D02*
X100319021Y-60332418D01*
X100342830Y-60403846D01*
X100342830Y-60451465D01*
X100319021Y-60522894D01*
X100271402Y-60570513D01*
X100223783Y-60594322D01*
X100128545Y-60618132D01*
X100057116Y-60618132D01*
X99961878Y-60594322D01*
X99914259Y-60570513D01*
X99866640Y-60522894D01*
X99842830Y-60451465D01*
X99842830Y-60403846D01*
X99866640Y-60332418D01*
X99890450Y-60308608D01*
X99890450Y-60118132D02*
X99866640Y-60094322D01*
X99842830Y-60046703D01*
X99842830Y-59927656D01*
X99866640Y-59880037D01*
X99890450Y-59856227D01*
X99938069Y-59832418D01*
X99985688Y-59832418D01*
X100057116Y-59856227D01*
X100342830Y-60141941D01*
X100342830Y-59832418D01*
X99842830Y-59522894D02*
X99842830Y-59475275D01*
X99866640Y-59427656D01*
X99890450Y-59403847D01*
X99938069Y-59380037D01*
X100033307Y-59356228D01*
X100152354Y-59356228D01*
X100247592Y-59380037D01*
X100295211Y-59403847D01*
X100319021Y-59427656D01*
X100342830Y-59475275D01*
X100342830Y-59522894D01*
X100319021Y-59570513D01*
X100295211Y-59594323D01*
X100247592Y-59618132D01*
X100152354Y-59641942D01*
X100033307Y-59641942D01*
X99938069Y-59618132D01*
X99890450Y-59594323D01*
X99866640Y-59570513D01*
X99842830Y-59522894D01*
D13*
X127423943Y-62744543D02*
X127376324Y-62792162D01*
X127233467Y-62839781D01*
X127138229Y-62839781D01*
X126995371Y-62792162D01*
X126900133Y-62696924D01*
X126852514Y-62601686D01*
X126804895Y-62411210D01*
X126804895Y-62268352D01*
X126852514Y-62077876D01*
X126900133Y-61982638D01*
X126995371Y-61887400D01*
X127138229Y-61839781D01*
X127233467Y-61839781D01*
X127376324Y-61887400D01*
X127423943Y-61935019D01*
X127804895Y-61935019D02*
X127852514Y-61887400D01*
X127947752Y-61839781D01*
X128185848Y-61839781D01*
X128281086Y-61887400D01*
X128328705Y-61935019D01*
X128376324Y-62030257D01*
X128376324Y-62125495D01*
X128328705Y-62268352D01*
X127757276Y-62839781D01*
X128376324Y-62839781D01*
X129328705Y-62839781D02*
X128757276Y-62839781D01*
X129042990Y-62839781D02*
X129042990Y-61839781D01*
X128947752Y-61982638D01*
X128852514Y-62077876D01*
X128757276Y-62125495D01*
X140157143Y-106619047D02*
X140204762Y-106666666D01*
X140252381Y-106809523D01*
X140252381Y-106904761D01*
X140204762Y-107047619D01*
X140109524Y-107142857D01*
X140014286Y-107190476D01*
X139823810Y-107238095D01*
X139680952Y-107238095D01*
X139490476Y-107190476D01*
X139395238Y-107142857D01*
X139300000Y-107047619D01*
X139252381Y-106904761D01*
X139252381Y-106809523D01*
X139300000Y-106666666D01*
X139347619Y-106619047D01*
X140252381Y-105666666D02*
X140252381Y-106238095D01*
X140252381Y-105952381D02*
X139252381Y-105952381D01*
X139395238Y-106047619D01*
X139490476Y-106142857D01*
X139538095Y-106238095D01*
X139252381Y-105047619D02*
X139252381Y-104952380D01*
X139300000Y-104857142D01*
X139347619Y-104809523D01*
X139442857Y-104761904D01*
X139633333Y-104714285D01*
X139871429Y-104714285D01*
X140061905Y-104761904D01*
X140157143Y-104809523D01*
X140204762Y-104857142D01*
X140252381Y-104952380D01*
X140252381Y-105047619D01*
X140204762Y-105142857D01*
X140157143Y-105190476D01*
X140061905Y-105238095D01*
X139871429Y-105285714D01*
X139633333Y-105285714D01*
X139442857Y-105238095D01*
X139347619Y-105190476D01*
X139300000Y-105142857D01*
X139252381Y-105047619D01*
X139252381Y-103809523D02*
X139252381Y-104285714D01*
X139728571Y-104333333D01*
X139680952Y-104285714D01*
X139633333Y-104190476D01*
X139633333Y-103952380D01*
X139680952Y-103857142D01*
X139728571Y-103809523D01*
X139823810Y-103761904D01*
X140061905Y-103761904D01*
X140157143Y-103809523D01*
X140204762Y-103857142D01*
X140252381Y-103952380D01*
X140252381Y-104190476D01*
X140204762Y-104285714D01*
X140157143Y-104333333D01*
X129380953Y-114557143D02*
X129333334Y-114604762D01*
X129190477Y-114652381D01*
X129095239Y-114652381D01*
X128952381Y-114604762D01*
X128857143Y-114509524D01*
X128809524Y-114414286D01*
X128761905Y-114223810D01*
X128761905Y-114080952D01*
X128809524Y-113890476D01*
X128857143Y-113795238D01*
X128952381Y-113700000D01*
X129095239Y-113652381D01*
X129190477Y-113652381D01*
X129333334Y-113700000D01*
X129380953Y-113747619D01*
X130333334Y-114652381D02*
X129761905Y-114652381D01*
X130047619Y-114652381D02*
X130047619Y-113652381D01*
X129952381Y-113795238D01*
X129857143Y-113890476D01*
X129761905Y-113938095D01*
X130952381Y-113652381D02*
X131047620Y-113652381D01*
X131142858Y-113700000D01*
X131190477Y-113747619D01*
X131238096Y-113842857D01*
X131285715Y-114033333D01*
X131285715Y-114271429D01*
X131238096Y-114461905D01*
X131190477Y-114557143D01*
X131142858Y-114604762D01*
X131047620Y-114652381D01*
X130952381Y-114652381D01*
X130857143Y-114604762D01*
X130809524Y-114557143D01*
X130761905Y-114461905D01*
X130714286Y-114271429D01*
X130714286Y-114033333D01*
X130761905Y-113842857D01*
X130809524Y-113747619D01*
X130857143Y-113700000D01*
X130952381Y-113652381D01*
X131761905Y-114652381D02*
X131952381Y-114652381D01*
X132047620Y-114604762D01*
X132095239Y-114557143D01*
X132190477Y-114414286D01*
X132238096Y-114223810D01*
X132238096Y-113842857D01*
X132190477Y-113747619D01*
X132142858Y-113700000D01*
X132047620Y-113652381D01*
X131857143Y-113652381D01*
X131761905Y-113700000D01*
X131714286Y-113747619D01*
X131666667Y-113842857D01*
X131666667Y-114080952D01*
X131714286Y-114176190D01*
X131761905Y-114223810D01*
X131857143Y-114271429D01*
X132047620Y-114271429D01*
X132142858Y-114223810D01*
X132190477Y-114176190D01*
X132238096Y-114080952D01*
X128557143Y-110119047D02*
X128604762Y-110166666D01*
X128652381Y-110309523D01*
X128652381Y-110404761D01*
X128604762Y-110547619D01*
X128509524Y-110642857D01*
X128414286Y-110690476D01*
X128223810Y-110738095D01*
X128080952Y-110738095D01*
X127890476Y-110690476D01*
X127795238Y-110642857D01*
X127700000Y-110547619D01*
X127652381Y-110404761D01*
X127652381Y-110309523D01*
X127700000Y-110166666D01*
X127747619Y-110119047D01*
X128652381Y-109166666D02*
X128652381Y-109738095D01*
X128652381Y-109452381D02*
X127652381Y-109452381D01*
X127795238Y-109547619D01*
X127890476Y-109642857D01*
X127938095Y-109738095D01*
X128652381Y-108214285D02*
X128652381Y-108785714D01*
X128652381Y-108500000D02*
X127652381Y-108500000D01*
X127795238Y-108595238D01*
X127890476Y-108690476D01*
X127938095Y-108785714D01*
X127985714Y-107357142D02*
X128652381Y-107357142D01*
X127604762Y-107595238D02*
X128319048Y-107833333D01*
X128319048Y-107214285D01*
X116557143Y-124119047D02*
X116604762Y-124166666D01*
X116652381Y-124309523D01*
X116652381Y-124404761D01*
X116604762Y-124547619D01*
X116509524Y-124642857D01*
X116414286Y-124690476D01*
X116223810Y-124738095D01*
X116080952Y-124738095D01*
X115890476Y-124690476D01*
X115795238Y-124642857D01*
X115700000Y-124547619D01*
X115652381Y-124404761D01*
X115652381Y-124309523D01*
X115700000Y-124166666D01*
X115747619Y-124119047D01*
X116652381Y-123166666D02*
X116652381Y-123738095D01*
X116652381Y-123452381D02*
X115652381Y-123452381D01*
X115795238Y-123547619D01*
X115890476Y-123642857D01*
X115938095Y-123738095D01*
X116652381Y-122214285D02*
X116652381Y-122785714D01*
X116652381Y-122500000D02*
X115652381Y-122500000D01*
X115795238Y-122595238D01*
X115890476Y-122690476D01*
X115938095Y-122785714D01*
X116080952Y-121642857D02*
X116033333Y-121738095D01*
X115985714Y-121785714D01*
X115890476Y-121833333D01*
X115842857Y-121833333D01*
X115747619Y-121785714D01*
X115700000Y-121738095D01*
X115652381Y-121642857D01*
X115652381Y-121452380D01*
X115700000Y-121357142D01*
X115747619Y-121309523D01*
X115842857Y-121261904D01*
X115890476Y-121261904D01*
X115985714Y-121309523D01*
X116033333Y-121357142D01*
X116080952Y-121452380D01*
X116080952Y-121642857D01*
X116128571Y-121738095D01*
X116176190Y-121785714D01*
X116271429Y-121833333D01*
X116461905Y-121833333D01*
X116557143Y-121785714D01*
X116604762Y-121738095D01*
X116652381Y-121642857D01*
X116652381Y-121452380D01*
X116604762Y-121357142D01*
X116557143Y-121309523D01*
X116461905Y-121261904D01*
X116271429Y-121261904D01*
X116176190Y-121309523D01*
X116128571Y-121357142D01*
X116080952Y-121452380D01*
X135880953Y-120557143D02*
X135833334Y-120604762D01*
X135690477Y-120652381D01*
X135595239Y-120652381D01*
X135452381Y-120604762D01*
X135357143Y-120509524D01*
X135309524Y-120414286D01*
X135261905Y-120223810D01*
X135261905Y-120080952D01*
X135309524Y-119890476D01*
X135357143Y-119795238D01*
X135452381Y-119700000D01*
X135595239Y-119652381D01*
X135690477Y-119652381D01*
X135833334Y-119700000D01*
X135880953Y-119747619D01*
X136833334Y-120652381D02*
X136261905Y-120652381D01*
X136547619Y-120652381D02*
X136547619Y-119652381D01*
X136452381Y-119795238D01*
X136357143Y-119890476D01*
X136261905Y-119938095D01*
X137785715Y-120652381D02*
X137214286Y-120652381D01*
X137500000Y-120652381D02*
X137500000Y-119652381D01*
X137404762Y-119795238D01*
X137309524Y-119890476D01*
X137214286Y-119938095D01*
X138261905Y-120652381D02*
X138452381Y-120652381D01*
X138547620Y-120604762D01*
X138595239Y-120557143D01*
X138690477Y-120414286D01*
X138738096Y-120223810D01*
X138738096Y-119842857D01*
X138690477Y-119747619D01*
X138642858Y-119700000D01*
X138547620Y-119652381D01*
X138357143Y-119652381D01*
X138261905Y-119700000D01*
X138214286Y-119747619D01*
X138166667Y-119842857D01*
X138166667Y-120080952D01*
X138214286Y-120176190D01*
X138261905Y-120223810D01*
X138357143Y-120271429D01*
X138547620Y-120271429D01*
X138642858Y-120223810D01*
X138690477Y-120176190D01*
X138738096Y-120080952D01*
X144157143Y-124619047D02*
X144204762Y-124666666D01*
X144252381Y-124809523D01*
X144252381Y-124904761D01*
X144204762Y-125047619D01*
X144109524Y-125142857D01*
X144014286Y-125190476D01*
X143823810Y-125238095D01*
X143680952Y-125238095D01*
X143490476Y-125190476D01*
X143395238Y-125142857D01*
X143300000Y-125047619D01*
X143252381Y-124904761D01*
X143252381Y-124809523D01*
X143300000Y-124666666D01*
X143347619Y-124619047D01*
X144252381Y-123666666D02*
X144252381Y-124238095D01*
X144252381Y-123952381D02*
X143252381Y-123952381D01*
X143395238Y-124047619D01*
X143490476Y-124142857D01*
X143538095Y-124238095D01*
X143347619Y-123285714D02*
X143300000Y-123238095D01*
X143252381Y-123142857D01*
X143252381Y-122904761D01*
X143300000Y-122809523D01*
X143347619Y-122761904D01*
X143442857Y-122714285D01*
X143538095Y-122714285D01*
X143680952Y-122761904D01*
X144252381Y-123333333D01*
X144252381Y-122714285D01*
X143252381Y-122095238D02*
X143252381Y-121999999D01*
X143300000Y-121904761D01*
X143347619Y-121857142D01*
X143442857Y-121809523D01*
X143633333Y-121761904D01*
X143871429Y-121761904D01*
X144061905Y-121809523D01*
X144157143Y-121857142D01*
X144204762Y-121904761D01*
X144252381Y-121999999D01*
X144252381Y-122095238D01*
X144204762Y-122190476D01*
X144157143Y-122238095D01*
X144061905Y-122285714D01*
X143871429Y-122333333D01*
X143633333Y-122333333D01*
X143442857Y-122285714D01*
X143347619Y-122238095D01*
X143300000Y-122190476D01*
X143252381Y-122095238D01*
X115380953Y-129257143D02*
X115333334Y-129304762D01*
X115190477Y-129352381D01*
X115095239Y-129352381D01*
X114952381Y-129304762D01*
X114857143Y-129209524D01*
X114809524Y-129114286D01*
X114761905Y-128923810D01*
X114761905Y-128780952D01*
X114809524Y-128590476D01*
X114857143Y-128495238D01*
X114952381Y-128400000D01*
X115095239Y-128352381D01*
X115190477Y-128352381D01*
X115333334Y-128400000D01*
X115380953Y-128447619D01*
X116333334Y-129352381D02*
X115761905Y-129352381D01*
X116047619Y-129352381D02*
X116047619Y-128352381D01*
X115952381Y-128495238D01*
X115857143Y-128590476D01*
X115761905Y-128638095D01*
X116714286Y-128447619D02*
X116761905Y-128400000D01*
X116857143Y-128352381D01*
X117095239Y-128352381D01*
X117190477Y-128400000D01*
X117238096Y-128447619D01*
X117285715Y-128542857D01*
X117285715Y-128638095D01*
X117238096Y-128780952D01*
X116666667Y-129352381D01*
X117285715Y-129352381D01*
X118238096Y-129352381D02*
X117666667Y-129352381D01*
X117952381Y-129352381D02*
X117952381Y-128352381D01*
X117857143Y-128495238D01*
X117761905Y-128590476D01*
X117666667Y-128638095D01*
X118880953Y-120657143D02*
X118833334Y-120704762D01*
X118690477Y-120752381D01*
X118595239Y-120752381D01*
X118452381Y-120704762D01*
X118357143Y-120609524D01*
X118309524Y-120514286D01*
X118261905Y-120323810D01*
X118261905Y-120180952D01*
X118309524Y-119990476D01*
X118357143Y-119895238D01*
X118452381Y-119800000D01*
X118595239Y-119752381D01*
X118690477Y-119752381D01*
X118833334Y-119800000D01*
X118880953Y-119847619D01*
X119833334Y-120752381D02*
X119261905Y-120752381D01*
X119547619Y-120752381D02*
X119547619Y-119752381D01*
X119452381Y-119895238D01*
X119357143Y-119990476D01*
X119261905Y-120038095D01*
X120214286Y-119847619D02*
X120261905Y-119800000D01*
X120357143Y-119752381D01*
X120595239Y-119752381D01*
X120690477Y-119800000D01*
X120738096Y-119847619D01*
X120785715Y-119942857D01*
X120785715Y-120038095D01*
X120738096Y-120180952D01*
X120166667Y-120752381D01*
X120785715Y-120752381D01*
X121166667Y-119847619D02*
X121214286Y-119800000D01*
X121309524Y-119752381D01*
X121547620Y-119752381D01*
X121642858Y-119800000D01*
X121690477Y-119847619D01*
X121738096Y-119942857D01*
X121738096Y-120038095D01*
X121690477Y-120180952D01*
X121119048Y-120752381D01*
X121738096Y-120752381D01*
X149646943Y-122988247D02*
X149694562Y-123035866D01*
X149742181Y-123178723D01*
X149742181Y-123273961D01*
X149694562Y-123416819D01*
X149599324Y-123512057D01*
X149504086Y-123559676D01*
X149313610Y-123607295D01*
X149170752Y-123607295D01*
X148980276Y-123559676D01*
X148885038Y-123512057D01*
X148789800Y-123416819D01*
X148742181Y-123273961D01*
X148742181Y-123178723D01*
X148789800Y-123035866D01*
X148837419Y-122988247D01*
X149742181Y-122035866D02*
X149742181Y-122607295D01*
X149742181Y-122321581D02*
X148742181Y-122321581D01*
X148885038Y-122416819D01*
X148980276Y-122512057D01*
X149027895Y-122607295D01*
X148837419Y-121654914D02*
X148789800Y-121607295D01*
X148742181Y-121512057D01*
X148742181Y-121273961D01*
X148789800Y-121178723D01*
X148837419Y-121131104D01*
X148932657Y-121083485D01*
X149027895Y-121083485D01*
X149170752Y-121131104D01*
X149742181Y-121702533D01*
X149742181Y-121083485D01*
X148742181Y-120750152D02*
X148742181Y-120131104D01*
X149123133Y-120464438D01*
X149123133Y-120321580D01*
X149170752Y-120226342D01*
X149218371Y-120178723D01*
X149313610Y-120131104D01*
X149551705Y-120131104D01*
X149646943Y-120178723D01*
X149694562Y-120226342D01*
X149742181Y-120321580D01*
X149742181Y-120607295D01*
X149694562Y-120702533D01*
X149646943Y-120750152D01*
X135309524Y-117952381D02*
X135309524Y-116952381D01*
X135547619Y-116952381D01*
X135690477Y-117000000D01*
X135785715Y-117095238D01*
X135833334Y-117190476D01*
X135880953Y-117380952D01*
X135880953Y-117523810D01*
X135833334Y-117714286D01*
X135785715Y-117809524D01*
X135690477Y-117904762D01*
X135547619Y-117952381D01*
X135309524Y-117952381D01*
X136833334Y-117952381D02*
X136261905Y-117952381D01*
X136547619Y-117952381D02*
X136547619Y-116952381D01*
X136452381Y-117095238D01*
X136357143Y-117190476D01*
X136261905Y-117238095D01*
X137452381Y-116952381D02*
X137547620Y-116952381D01*
X137642858Y-117000000D01*
X137690477Y-117047619D01*
X137738096Y-117142857D01*
X137785715Y-117333333D01*
X137785715Y-117571429D01*
X137738096Y-117761905D01*
X137690477Y-117857143D01*
X137642858Y-117904762D01*
X137547620Y-117952381D01*
X137452381Y-117952381D01*
X137357143Y-117904762D01*
X137309524Y-117857143D01*
X137261905Y-117761905D01*
X137214286Y-117571429D01*
X137214286Y-117333333D01*
X137261905Y-117142857D01*
X137309524Y-117047619D01*
X137357143Y-117000000D01*
X137452381Y-116952381D01*
X138642858Y-116952381D02*
X138452381Y-116952381D01*
X138357143Y-117000000D01*
X138309524Y-117047619D01*
X138214286Y-117190476D01*
X138166667Y-117380952D01*
X138166667Y-117761905D01*
X138214286Y-117857143D01*
X138261905Y-117904762D01*
X138357143Y-117952381D01*
X138547620Y-117952381D01*
X138642858Y-117904762D01*
X138690477Y-117857143D01*
X138738096Y-117761905D01*
X138738096Y-117523810D01*
X138690477Y-117428571D01*
X138642858Y-117380952D01*
X138547620Y-117333333D01*
X138357143Y-117333333D01*
X138261905Y-117380952D01*
X138214286Y-117428571D01*
X138166667Y-117523810D01*
X134952381Y-119190476D02*
X133952381Y-119190476D01*
X133952381Y-118952381D01*
X134000000Y-118809523D01*
X134095238Y-118714285D01*
X134190476Y-118666666D01*
X134380952Y-118619047D01*
X134523810Y-118619047D01*
X134714286Y-118666666D01*
X134809524Y-118714285D01*
X134904762Y-118809523D01*
X134952381Y-118952381D01*
X134952381Y-119190476D01*
X134952381Y-117666666D02*
X134952381Y-118238095D01*
X134952381Y-117952381D02*
X133952381Y-117952381D01*
X134095238Y-118047619D01*
X134190476Y-118142857D01*
X134238095Y-118238095D01*
X133952381Y-117047619D02*
X133952381Y-116952380D01*
X134000000Y-116857142D01*
X134047619Y-116809523D01*
X134142857Y-116761904D01*
X134333333Y-116714285D01*
X134571429Y-116714285D01*
X134761905Y-116761904D01*
X134857143Y-116809523D01*
X134904762Y-116857142D01*
X134952381Y-116952380D01*
X134952381Y-117047619D01*
X134904762Y-117142857D01*
X134857143Y-117190476D01*
X134761905Y-117238095D01*
X134571429Y-117285714D01*
X134333333Y-117285714D01*
X134142857Y-117238095D01*
X134047619Y-117190476D01*
X134000000Y-117142857D01*
X133952381Y-117047619D01*
X134380952Y-116142857D02*
X134333333Y-116238095D01*
X134285714Y-116285714D01*
X134190476Y-116333333D01*
X134142857Y-116333333D01*
X134047619Y-116285714D01*
X134000000Y-116238095D01*
X133952381Y-116142857D01*
X133952381Y-115952380D01*
X134000000Y-115857142D01*
X134047619Y-115809523D01*
X134142857Y-115761904D01*
X134190476Y-115761904D01*
X134285714Y-115809523D01*
X134333333Y-115857142D01*
X134380952Y-115952380D01*
X134380952Y-116142857D01*
X134428571Y-116238095D01*
X134476190Y-116285714D01*
X134571429Y-116333333D01*
X134761905Y-116333333D01*
X134857143Y-116285714D01*
X134904762Y-116238095D01*
X134952381Y-116142857D01*
X134952381Y-115952380D01*
X134904762Y-115857142D01*
X134857143Y-115809523D01*
X134761905Y-115761904D01*
X134571429Y-115761904D01*
X134476190Y-115809523D01*
X134428571Y-115857142D01*
X134380952Y-115952380D01*
X146249324Y-125664981D02*
X146249324Y-124664981D01*
X146487419Y-124664981D01*
X146630277Y-124712600D01*
X146725515Y-124807838D01*
X146773134Y-124903076D01*
X146820753Y-125093552D01*
X146820753Y-125236410D01*
X146773134Y-125426886D01*
X146725515Y-125522124D01*
X146630277Y-125617362D01*
X146487419Y-125664981D01*
X146249324Y-125664981D01*
X147773134Y-125664981D02*
X147201705Y-125664981D01*
X147487419Y-125664981D02*
X147487419Y-124664981D01*
X147392181Y-124807838D01*
X147296943Y-124903076D01*
X147201705Y-124950695D01*
X148392181Y-124664981D02*
X148487420Y-124664981D01*
X148582658Y-124712600D01*
X148630277Y-124760219D01*
X148677896Y-124855457D01*
X148725515Y-125045933D01*
X148725515Y-125284029D01*
X148677896Y-125474505D01*
X148630277Y-125569743D01*
X148582658Y-125617362D01*
X148487420Y-125664981D01*
X148392181Y-125664981D01*
X148296943Y-125617362D01*
X148249324Y-125569743D01*
X148201705Y-125474505D01*
X148154086Y-125284029D01*
X148154086Y-125045933D01*
X148201705Y-124855457D01*
X148249324Y-124760219D01*
X148296943Y-124712600D01*
X148392181Y-124664981D01*
X149201705Y-125664981D02*
X149392181Y-125664981D01*
X149487420Y-125617362D01*
X149535039Y-125569743D01*
X149630277Y-125426886D01*
X149677896Y-125236410D01*
X149677896Y-124855457D01*
X149630277Y-124760219D01*
X149582658Y-124712600D01*
X149487420Y-124664981D01*
X149296943Y-124664981D01*
X149201705Y-124712600D01*
X149154086Y-124760219D01*
X149106467Y-124855457D01*
X149106467Y-125093552D01*
X149154086Y-125188790D01*
X149201705Y-125236410D01*
X149296943Y-125284029D01*
X149487420Y-125284029D01*
X149582658Y-125236410D01*
X149630277Y-125188790D01*
X149677896Y-125093552D01*
X141809524Y-115762381D02*
X141809524Y-114762381D01*
X142047619Y-114762381D01*
X142190477Y-114810000D01*
X142285715Y-114905238D01*
X142333334Y-115000476D01*
X142380953Y-115190952D01*
X142380953Y-115333810D01*
X142333334Y-115524286D01*
X142285715Y-115619524D01*
X142190477Y-115714762D01*
X142047619Y-115762381D01*
X141809524Y-115762381D01*
X143333334Y-115762381D02*
X142761905Y-115762381D01*
X143047619Y-115762381D02*
X143047619Y-114762381D01*
X142952381Y-114905238D01*
X142857143Y-115000476D01*
X142761905Y-115048095D01*
X144285715Y-115762381D02*
X143714286Y-115762381D01*
X144000000Y-115762381D02*
X144000000Y-114762381D01*
X143904762Y-114905238D01*
X143809524Y-115000476D01*
X143714286Y-115048095D01*
X144904762Y-114762381D02*
X145000001Y-114762381D01*
X145095239Y-114810000D01*
X145142858Y-114857619D01*
X145190477Y-114952857D01*
X145238096Y-115143333D01*
X145238096Y-115381429D01*
X145190477Y-115571905D01*
X145142858Y-115667143D01*
X145095239Y-115714762D01*
X145000001Y-115762381D01*
X144904762Y-115762381D01*
X144809524Y-115714762D01*
X144761905Y-115667143D01*
X144714286Y-115571905D01*
X144666667Y-115381429D01*
X144666667Y-115143333D01*
X144714286Y-114952857D01*
X144761905Y-114857619D01*
X144809524Y-114810000D01*
X144904762Y-114762381D01*
X146138095Y-109002381D02*
X146138095Y-108002381D01*
X146709524Y-109002381D02*
X146280952Y-108430952D01*
X146709524Y-108002381D02*
X146138095Y-108573810D01*
X140361905Y-108766667D02*
X140838096Y-108766667D01*
X140266667Y-109052381D02*
X140600000Y-108052381D01*
X140933334Y-109052381D01*
X147556071Y-105785714D02*
X147556071Y-106119048D01*
X148079881Y-106119048D02*
X147079881Y-106119048D01*
X147079881Y-105642857D01*
X148079881Y-104738095D02*
X148079881Y-105309524D01*
X148079881Y-105023810D02*
X147079881Y-105023810D01*
X147222738Y-105119048D01*
X147317976Y-105214286D01*
X147365595Y-105309524D01*
X147079881Y-104119048D02*
X147079881Y-104023809D01*
X147127500Y-103928571D01*
X147175119Y-103880952D01*
X147270357Y-103833333D01*
X147460833Y-103785714D01*
X147698929Y-103785714D01*
X147889405Y-103833333D01*
X147984643Y-103880952D01*
X148032262Y-103928571D01*
X148079881Y-104023809D01*
X148079881Y-104119048D01*
X148032262Y-104214286D01*
X147984643Y-104261905D01*
X147889405Y-104309524D01*
X147698929Y-104357143D01*
X147460833Y-104357143D01*
X147270357Y-104309524D01*
X147175119Y-104261905D01*
X147127500Y-104214286D01*
X147079881Y-104119048D01*
X148079881Y-102833333D02*
X148079881Y-103404762D01*
X148079881Y-103119048D02*
X147079881Y-103119048D01*
X147222738Y-103214286D01*
X147317976Y-103309524D01*
X147365595Y-103404762D01*
X135152381Y-107619047D02*
X135152381Y-108095238D01*
X134152381Y-108095238D01*
X135152381Y-106761904D02*
X135152381Y-107333333D01*
X135152381Y-107047619D02*
X134152381Y-107047619D01*
X134295238Y-107142857D01*
X134390476Y-107238095D01*
X134438095Y-107333333D01*
X134152381Y-106142857D02*
X134152381Y-106047618D01*
X134200000Y-105952380D01*
X134247619Y-105904761D01*
X134342857Y-105857142D01*
X134533333Y-105809523D01*
X134771429Y-105809523D01*
X134961905Y-105857142D01*
X135057143Y-105904761D01*
X135104762Y-105952380D01*
X135152381Y-106047618D01*
X135152381Y-106142857D01*
X135104762Y-106238095D01*
X135057143Y-106285714D01*
X134961905Y-106333333D01*
X134771429Y-106380952D01*
X134533333Y-106380952D01*
X134342857Y-106333333D01*
X134247619Y-106285714D01*
X134200000Y-106238095D01*
X134152381Y-106142857D01*
X134247619Y-105428571D02*
X134200000Y-105380952D01*
X134152381Y-105285714D01*
X134152381Y-105047618D01*
X134200000Y-104952380D01*
X134247619Y-104904761D01*
X134342857Y-104857142D01*
X134438095Y-104857142D01*
X134580952Y-104904761D01*
X135152381Y-105476190D01*
X135152381Y-104857142D01*
X121952381Y-125619047D02*
X121952381Y-126095238D01*
X120952381Y-126095238D01*
X121952381Y-124761904D02*
X121952381Y-125333333D01*
X121952381Y-125047619D02*
X120952381Y-125047619D01*
X121095238Y-125142857D01*
X121190476Y-125238095D01*
X121238095Y-125333333D01*
X120952381Y-124142857D02*
X120952381Y-124047618D01*
X121000000Y-123952380D01*
X121047619Y-123904761D01*
X121142857Y-123857142D01*
X121333333Y-123809523D01*
X121571429Y-123809523D01*
X121761905Y-123857142D01*
X121857143Y-123904761D01*
X121904762Y-123952380D01*
X121952381Y-124047618D01*
X121952381Y-124142857D01*
X121904762Y-124238095D01*
X121857143Y-124285714D01*
X121761905Y-124333333D01*
X121571429Y-124380952D01*
X121333333Y-124380952D01*
X121142857Y-124333333D01*
X121047619Y-124285714D01*
X121000000Y-124238095D01*
X120952381Y-124142857D01*
X120952381Y-123476190D02*
X120952381Y-122857142D01*
X121333333Y-123190476D01*
X121333333Y-123047618D01*
X121380952Y-122952380D01*
X121428571Y-122904761D01*
X121523810Y-122857142D01*
X121761905Y-122857142D01*
X121857143Y-122904761D01*
X121904762Y-122952380D01*
X121952381Y-123047618D01*
X121952381Y-123333333D01*
X121904762Y-123428571D01*
X121857143Y-123476190D01*
D11*
X90239390Y-73241647D02*
X89739390Y-73241647D01*
X89739390Y-73051171D01*
X89763200Y-73003552D01*
X89787010Y-72979743D01*
X89834629Y-72955933D01*
X89906057Y-72955933D01*
X89953676Y-72979743D01*
X89977486Y-73003552D01*
X90001295Y-73051171D01*
X90001295Y-73241647D01*
X90239390Y-72479743D02*
X90239390Y-72765457D01*
X90239390Y-72622600D02*
X89739390Y-72622600D01*
X89810819Y-72670219D01*
X89858438Y-72717838D01*
X89882248Y-72765457D01*
X99402153Y-85925790D02*
X99402153Y-85425790D01*
X99592629Y-85425790D01*
X99640248Y-85449600D01*
X99664057Y-85473410D01*
X99687867Y-85521029D01*
X99687867Y-85592457D01*
X99664057Y-85640076D01*
X99640248Y-85663886D01*
X99592629Y-85687695D01*
X99402153Y-85687695D01*
X99878343Y-85473410D02*
X99902153Y-85449600D01*
X99949772Y-85425790D01*
X100068819Y-85425790D01*
X100116438Y-85449600D01*
X100140248Y-85473410D01*
X100164057Y-85521029D01*
X100164057Y-85568648D01*
X100140248Y-85640076D01*
X99854534Y-85925790D01*
X100164057Y-85925790D01*
X165240341Y-101416610D02*
X165192722Y-101392800D01*
X165145103Y-101345181D01*
X165073674Y-101273752D01*
X165026055Y-101249943D01*
X164978436Y-101249943D01*
X165002246Y-101368990D02*
X164954627Y-101345181D01*
X164907008Y-101297562D01*
X164883198Y-101202324D01*
X164883198Y-101035657D01*
X164907008Y-100940419D01*
X164954627Y-100892800D01*
X165002246Y-100868990D01*
X165097484Y-100868990D01*
X165145103Y-100892800D01*
X165192722Y-100940419D01*
X165216531Y-101035657D01*
X165216531Y-101202324D01*
X165192722Y-101297562D01*
X165145103Y-101345181D01*
X165097484Y-101368990D01*
X165002246Y-101368990D01*
X165692722Y-101368990D02*
X165407008Y-101368990D01*
X165549865Y-101368990D02*
X165549865Y-100868990D01*
X165502246Y-100940419D01*
X165454627Y-100988038D01*
X165407008Y-101011848D01*
X150498181Y-92613410D02*
X150450562Y-92589600D01*
X150402943Y-92541981D01*
X150331514Y-92470552D01*
X150283895Y-92446743D01*
X150236276Y-92446743D01*
X150260086Y-92565790D02*
X150212467Y-92541981D01*
X150164848Y-92494362D01*
X150141038Y-92399124D01*
X150141038Y-92232457D01*
X150164848Y-92137219D01*
X150212467Y-92089600D01*
X150260086Y-92065790D01*
X150355324Y-92065790D01*
X150402943Y-92089600D01*
X150450562Y-92137219D01*
X150474371Y-92232457D01*
X150474371Y-92399124D01*
X150450562Y-92494362D01*
X150402943Y-92541981D01*
X150355324Y-92565790D01*
X150260086Y-92565790D01*
X150664848Y-92113410D02*
X150688658Y-92089600D01*
X150736277Y-92065790D01*
X150855324Y-92065790D01*
X150902943Y-92089600D01*
X150926753Y-92113410D01*
X150950562Y-92161029D01*
X150950562Y-92208648D01*
X150926753Y-92280076D01*
X150641039Y-92565790D01*
X150950562Y-92565790D01*
X104378250Y-63918459D02*
X104354440Y-63966078D01*
X104306821Y-64013697D01*
X104235392Y-64085126D01*
X104211583Y-64132745D01*
X104211583Y-64180364D01*
X104330630Y-64156554D02*
X104306821Y-64204173D01*
X104259202Y-64251792D01*
X104163964Y-64275602D01*
X103997297Y-64275602D01*
X103902059Y-64251792D01*
X103854440Y-64204173D01*
X103830630Y-64156554D01*
X103830630Y-64061316D01*
X103854440Y-64013697D01*
X103902059Y-63966078D01*
X103997297Y-63942269D01*
X104163964Y-63942269D01*
X104259202Y-63966078D01*
X104306821Y-64013697D01*
X104330630Y-64061316D01*
X104330630Y-64156554D01*
X103830630Y-63775601D02*
X103830630Y-63466078D01*
X104021107Y-63632744D01*
X104021107Y-63561316D01*
X104044916Y-63513697D01*
X104068726Y-63489887D01*
X104116345Y-63466078D01*
X104235392Y-63466078D01*
X104283011Y-63489887D01*
X104306821Y-63513697D01*
X104330630Y-63561316D01*
X104330630Y-63704173D01*
X104306821Y-63751792D01*
X104283011Y-63775601D01*
X174945681Y-66148710D02*
X174898062Y-66124900D01*
X174850443Y-66077281D01*
X174779014Y-66005852D01*
X174731395Y-65982043D01*
X174683776Y-65982043D01*
X174707586Y-66101090D02*
X174659967Y-66077281D01*
X174612348Y-66029662D01*
X174588538Y-65934424D01*
X174588538Y-65767757D01*
X174612348Y-65672519D01*
X174659967Y-65624900D01*
X174707586Y-65601090D01*
X174802824Y-65601090D01*
X174850443Y-65624900D01*
X174898062Y-65672519D01*
X174921871Y-65767757D01*
X174921871Y-65934424D01*
X174898062Y-66029662D01*
X174850443Y-66077281D01*
X174802824Y-66101090D01*
X174707586Y-66101090D01*
X175350443Y-65767757D02*
X175350443Y-66101090D01*
X175231396Y-65577281D02*
X175112348Y-65934424D01*
X175421872Y-65934424D01*
X174996481Y-79102710D02*
X174948862Y-79078900D01*
X174901243Y-79031281D01*
X174829814Y-78959852D01*
X174782195Y-78936043D01*
X174734576Y-78936043D01*
X174758386Y-79055090D02*
X174710767Y-79031281D01*
X174663148Y-78983662D01*
X174639338Y-78888424D01*
X174639338Y-78721757D01*
X174663148Y-78626519D01*
X174710767Y-78578900D01*
X174758386Y-78555090D01*
X174853624Y-78555090D01*
X174901243Y-78578900D01*
X174948862Y-78626519D01*
X174972671Y-78721757D01*
X174972671Y-78888424D01*
X174948862Y-78983662D01*
X174901243Y-79031281D01*
X174853624Y-79055090D01*
X174758386Y-79055090D01*
X175425053Y-78555090D02*
X175186958Y-78555090D01*
X175163148Y-78793186D01*
X175186958Y-78769376D01*
X175234577Y-78745567D01*
X175353624Y-78745567D01*
X175401243Y-78769376D01*
X175425053Y-78793186D01*
X175448862Y-78840805D01*
X175448862Y-78959852D01*
X175425053Y-79007471D01*
X175401243Y-79031281D01*
X175353624Y-79055090D01*
X175234577Y-79055090D01*
X175186958Y-79031281D01*
X175163148Y-79007471D01*
X174872892Y-92258908D02*
X174825273Y-92235098D01*
X174777654Y-92187479D01*
X174706225Y-92116050D01*
X174658606Y-92092241D01*
X174610987Y-92092241D01*
X174634797Y-92211288D02*
X174587178Y-92187479D01*
X174539559Y-92139860D01*
X174515749Y-92044622D01*
X174515749Y-91877955D01*
X174539559Y-91782717D01*
X174587178Y-91735098D01*
X174634797Y-91711288D01*
X174730035Y-91711288D01*
X174777654Y-91735098D01*
X174825273Y-91782717D01*
X174849082Y-91877955D01*
X174849082Y-92044622D01*
X174825273Y-92139860D01*
X174777654Y-92187479D01*
X174730035Y-92211288D01*
X174634797Y-92211288D01*
X175277654Y-91711288D02*
X175182416Y-91711288D01*
X175134797Y-91735098D01*
X175110988Y-91758908D01*
X175063369Y-91830336D01*
X175039559Y-91925574D01*
X175039559Y-92116050D01*
X175063369Y-92163669D01*
X175087178Y-92187479D01*
X175134797Y-92211288D01*
X175230035Y-92211288D01*
X175277654Y-92187479D01*
X175301464Y-92163669D01*
X175325273Y-92116050D01*
X175325273Y-91997003D01*
X175301464Y-91949384D01*
X175277654Y-91925574D01*
X175230035Y-91901765D01*
X175134797Y-91901765D01*
X175087178Y-91925574D01*
X175063369Y-91949384D01*
X175039559Y-91997003D01*
D13*
X121952381Y-110797619D02*
X121857143Y-110750000D01*
X121761905Y-110654762D01*
X121619048Y-110511905D01*
X121523809Y-110464286D01*
X121428571Y-110464286D01*
X121476190Y-110702381D02*
X121380952Y-110654762D01*
X121285714Y-110559524D01*
X121238095Y-110369048D01*
X121238095Y-110035714D01*
X121285714Y-109845238D01*
X121380952Y-109750000D01*
X121476190Y-109702381D01*
X121666667Y-109702381D01*
X121761905Y-109750000D01*
X121857143Y-109845238D01*
X121904762Y-110035714D01*
X121904762Y-110369048D01*
X121857143Y-110559524D01*
X121761905Y-110654762D01*
X121666667Y-110702381D01*
X121476190Y-110702381D01*
X122857143Y-110702381D02*
X122285714Y-110702381D01*
X122571428Y-110702381D02*
X122571428Y-109702381D01*
X122476190Y-109845238D01*
X122380952Y-109940476D01*
X122285714Y-109988095D01*
X123476190Y-109702381D02*
X123571429Y-109702381D01*
X123666667Y-109750000D01*
X123714286Y-109797619D01*
X123761905Y-109892857D01*
X123809524Y-110083333D01*
X123809524Y-110321429D01*
X123761905Y-110511905D01*
X123714286Y-110607143D01*
X123666667Y-110654762D01*
X123571429Y-110702381D01*
X123476190Y-110702381D01*
X123380952Y-110654762D01*
X123333333Y-110607143D01*
X123285714Y-110511905D01*
X123238095Y-110321429D01*
X123238095Y-110083333D01*
X123285714Y-109892857D01*
X123333333Y-109797619D01*
X123380952Y-109750000D01*
X123476190Y-109702381D01*
X124761905Y-110702381D02*
X124190476Y-110702381D01*
X124476190Y-110702381D02*
X124476190Y-109702381D01*
X124380952Y-109845238D01*
X124285714Y-109940476D01*
X124190476Y-109988095D01*
X108952381Y-123797619D02*
X108857143Y-123750000D01*
X108761905Y-123654762D01*
X108619048Y-123511905D01*
X108523809Y-123464286D01*
X108428571Y-123464286D01*
X108476190Y-123702381D02*
X108380952Y-123654762D01*
X108285714Y-123559524D01*
X108238095Y-123369048D01*
X108238095Y-123035714D01*
X108285714Y-122845238D01*
X108380952Y-122750000D01*
X108476190Y-122702381D01*
X108666667Y-122702381D01*
X108761905Y-122750000D01*
X108857143Y-122845238D01*
X108904762Y-123035714D01*
X108904762Y-123369048D01*
X108857143Y-123559524D01*
X108761905Y-123654762D01*
X108666667Y-123702381D01*
X108476190Y-123702381D01*
X109857143Y-123702381D02*
X109285714Y-123702381D01*
X109571428Y-123702381D02*
X109571428Y-122702381D01*
X109476190Y-122845238D01*
X109380952Y-122940476D01*
X109285714Y-122988095D01*
X110476190Y-122702381D02*
X110571429Y-122702381D01*
X110666667Y-122750000D01*
X110714286Y-122797619D01*
X110761905Y-122892857D01*
X110809524Y-123083333D01*
X110809524Y-123321429D01*
X110761905Y-123511905D01*
X110714286Y-123607143D01*
X110666667Y-123654762D01*
X110571429Y-123702381D01*
X110476190Y-123702381D01*
X110380952Y-123654762D01*
X110333333Y-123607143D01*
X110285714Y-123511905D01*
X110238095Y-123321429D01*
X110238095Y-123083333D01*
X110285714Y-122892857D01*
X110333333Y-122797619D01*
X110380952Y-122750000D01*
X110476190Y-122702381D01*
X111666667Y-123035714D02*
X111666667Y-123702381D01*
X111428571Y-122654762D02*
X111190476Y-123369048D01*
X111809524Y-123369048D01*
X141713381Y-121425619D02*
X141618143Y-121378000D01*
X141522905Y-121282762D01*
X141380048Y-121139905D01*
X141284809Y-121092286D01*
X141189571Y-121092286D01*
X141237190Y-121330381D02*
X141141952Y-121282762D01*
X141046714Y-121187524D01*
X140999095Y-120997048D01*
X140999095Y-120663714D01*
X141046714Y-120473238D01*
X141141952Y-120378000D01*
X141237190Y-120330381D01*
X141427667Y-120330381D01*
X141522905Y-120378000D01*
X141618143Y-120473238D01*
X141665762Y-120663714D01*
X141665762Y-120997048D01*
X141618143Y-121187524D01*
X141522905Y-121282762D01*
X141427667Y-121330381D01*
X141237190Y-121330381D01*
X142618143Y-121330381D02*
X142046714Y-121330381D01*
X142332428Y-121330381D02*
X142332428Y-120330381D01*
X142237190Y-120473238D01*
X142141952Y-120568476D01*
X142046714Y-120616095D01*
X143237190Y-120330381D02*
X143332429Y-120330381D01*
X143427667Y-120378000D01*
X143475286Y-120425619D01*
X143522905Y-120520857D01*
X143570524Y-120711333D01*
X143570524Y-120949429D01*
X143522905Y-121139905D01*
X143475286Y-121235143D01*
X143427667Y-121282762D01*
X143332429Y-121330381D01*
X143237190Y-121330381D01*
X143141952Y-121282762D01*
X143094333Y-121235143D01*
X143046714Y-121139905D01*
X142999095Y-120949429D01*
X142999095Y-120711333D01*
X143046714Y-120520857D01*
X143094333Y-120425619D01*
X143141952Y-120378000D01*
X143237190Y-120330381D01*
X144475286Y-120330381D02*
X143999095Y-120330381D01*
X143951476Y-120806571D01*
X143999095Y-120758952D01*
X144094333Y-120711333D01*
X144332429Y-120711333D01*
X144427667Y-120758952D01*
X144475286Y-120806571D01*
X144522905Y-120901810D01*
X144522905Y-121139905D01*
X144475286Y-121235143D01*
X144427667Y-121282762D01*
X144332429Y-121330381D01*
X144094333Y-121330381D01*
X143999095Y-121282762D01*
X143951476Y-121235143D01*
X139797619Y-117047619D02*
X139750000Y-117142857D01*
X139654762Y-117238095D01*
X139511905Y-117380952D01*
X139464286Y-117476191D01*
X139464286Y-117571429D01*
X139702381Y-117523810D02*
X139654762Y-117619048D01*
X139559524Y-117714286D01*
X139369048Y-117761905D01*
X139035714Y-117761905D01*
X138845238Y-117714286D01*
X138750000Y-117619048D01*
X138702381Y-117523810D01*
X138702381Y-117333333D01*
X138750000Y-117238095D01*
X138845238Y-117142857D01*
X139035714Y-117095238D01*
X139369048Y-117095238D01*
X139559524Y-117142857D01*
X139654762Y-117238095D01*
X139702381Y-117333333D01*
X139702381Y-117523810D01*
X139702381Y-116142857D02*
X139702381Y-116714286D01*
X139702381Y-116428572D02*
X138702381Y-116428572D01*
X138845238Y-116523810D01*
X138940476Y-116619048D01*
X138988095Y-116714286D01*
X138702381Y-115523810D02*
X138702381Y-115428571D01*
X138750000Y-115333333D01*
X138797619Y-115285714D01*
X138892857Y-115238095D01*
X139083333Y-115190476D01*
X139321429Y-115190476D01*
X139511905Y-115238095D01*
X139607143Y-115285714D01*
X139654762Y-115333333D01*
X139702381Y-115428571D01*
X139702381Y-115523810D01*
X139654762Y-115619048D01*
X139607143Y-115666667D01*
X139511905Y-115714286D01*
X139321429Y-115761905D01*
X139083333Y-115761905D01*
X138892857Y-115714286D01*
X138797619Y-115666667D01*
X138750000Y-115619048D01*
X138702381Y-115523810D01*
X138702381Y-114333333D02*
X138702381Y-114523810D01*
X138750000Y-114619048D01*
X138797619Y-114666667D01*
X138940476Y-114761905D01*
X139130952Y-114809524D01*
X139511905Y-114809524D01*
X139607143Y-114761905D01*
X139654762Y-114714286D01*
X139702381Y-114619048D01*
X139702381Y-114428571D01*
X139654762Y-114333333D01*
X139607143Y-114285714D01*
X139511905Y-114238095D01*
X139273810Y-114238095D01*
X139178571Y-114285714D01*
X139130952Y-114333333D01*
X139083333Y-114428571D01*
X139083333Y-114619048D01*
X139130952Y-114714286D01*
X139178571Y-114761905D01*
X139273810Y-114809524D01*
D11*
X91513790Y-67190133D02*
X91275695Y-67356800D01*
X91513790Y-67475847D02*
X91013790Y-67475847D01*
X91013790Y-67285371D01*
X91037600Y-67237752D01*
X91061410Y-67213943D01*
X91109029Y-67190133D01*
X91180457Y-67190133D01*
X91228076Y-67213943D01*
X91251886Y-67237752D01*
X91275695Y-67285371D01*
X91275695Y-67475847D01*
X91513790Y-66713943D02*
X91513790Y-66999657D01*
X91513790Y-66856800D02*
X91013790Y-66856800D01*
X91085219Y-66904419D01*
X91132838Y-66952038D01*
X91156648Y-66999657D01*
X94790390Y-68790333D02*
X94552295Y-68957000D01*
X94790390Y-69076047D02*
X94290390Y-69076047D01*
X94290390Y-68885571D01*
X94314200Y-68837952D01*
X94338010Y-68814143D01*
X94385629Y-68790333D01*
X94457057Y-68790333D01*
X94504676Y-68814143D01*
X94528486Y-68837952D01*
X94552295Y-68885571D01*
X94552295Y-69076047D01*
X94338010Y-68599857D02*
X94314200Y-68576047D01*
X94290390Y-68528428D01*
X94290390Y-68409381D01*
X94314200Y-68361762D01*
X94338010Y-68337952D01*
X94385629Y-68314143D01*
X94433248Y-68314143D01*
X94504676Y-68337952D01*
X94790390Y-68623666D01*
X94790390Y-68314143D01*
X98854390Y-73032133D02*
X98616295Y-73198800D01*
X98854390Y-73317847D02*
X98354390Y-73317847D01*
X98354390Y-73127371D01*
X98378200Y-73079752D01*
X98402010Y-73055943D01*
X98449629Y-73032133D01*
X98521057Y-73032133D01*
X98568676Y-73055943D01*
X98592486Y-73079752D01*
X98616295Y-73127371D01*
X98616295Y-73317847D01*
X98354390Y-72865466D02*
X98354390Y-72555943D01*
X98544867Y-72722609D01*
X98544867Y-72651181D01*
X98568676Y-72603562D01*
X98592486Y-72579752D01*
X98640105Y-72555943D01*
X98759152Y-72555943D01*
X98806771Y-72579752D01*
X98830581Y-72603562D01*
X98854390Y-72651181D01*
X98854390Y-72794038D01*
X98830581Y-72841657D01*
X98806771Y-72865466D01*
X98854390Y-71355733D02*
X98616295Y-71522400D01*
X98854390Y-71641447D02*
X98354390Y-71641447D01*
X98354390Y-71450971D01*
X98378200Y-71403352D01*
X98402010Y-71379543D01*
X98449629Y-71355733D01*
X98521057Y-71355733D01*
X98568676Y-71379543D01*
X98592486Y-71403352D01*
X98616295Y-71450971D01*
X98616295Y-71641447D01*
X98521057Y-70927162D02*
X98854390Y-70927162D01*
X98330581Y-71046209D02*
X98687724Y-71165257D01*
X98687724Y-70855733D01*
X141740107Y-61325890D02*
X141573440Y-61087795D01*
X141454393Y-61325890D02*
X141454393Y-60825890D01*
X141644869Y-60825890D01*
X141692488Y-60849700D01*
X141716297Y-60873510D01*
X141740107Y-60921129D01*
X141740107Y-60992557D01*
X141716297Y-61040176D01*
X141692488Y-61063986D01*
X141644869Y-61087795D01*
X141454393Y-61087795D01*
X142192488Y-60825890D02*
X141954393Y-60825890D01*
X141930583Y-61063986D01*
X141954393Y-61040176D01*
X142002012Y-61016367D01*
X142121059Y-61016367D01*
X142168678Y-61040176D01*
X142192488Y-61063986D01*
X142216297Y-61111605D01*
X142216297Y-61230652D01*
X142192488Y-61278271D01*
X142168678Y-61302081D01*
X142121059Y-61325890D01*
X142002012Y-61325890D01*
X141954393Y-61302081D01*
X141930583Y-61278271D01*
X144310587Y-61363990D02*
X144143920Y-61125895D01*
X144024873Y-61363990D02*
X144024873Y-60863990D01*
X144215349Y-60863990D01*
X144262968Y-60887800D01*
X144286777Y-60911610D01*
X144310587Y-60959229D01*
X144310587Y-61030657D01*
X144286777Y-61078276D01*
X144262968Y-61102086D01*
X144215349Y-61125895D01*
X144024873Y-61125895D01*
X144739158Y-60863990D02*
X144643920Y-60863990D01*
X144596301Y-60887800D01*
X144572492Y-60911610D01*
X144524873Y-60983038D01*
X144501063Y-61078276D01*
X144501063Y-61268752D01*
X144524873Y-61316371D01*
X144548682Y-61340181D01*
X144596301Y-61363990D01*
X144691539Y-61363990D01*
X144739158Y-61340181D01*
X144762968Y-61316371D01*
X144786777Y-61268752D01*
X144786777Y-61149705D01*
X144762968Y-61102086D01*
X144739158Y-61078276D01*
X144691539Y-61054467D01*
X144596301Y-61054467D01*
X144548682Y-61078276D01*
X144524873Y-61102086D01*
X144501063Y-61149705D01*
X121800750Y-72011053D02*
X121562655Y-72177720D01*
X121800750Y-72296767D02*
X121300750Y-72296767D01*
X121300750Y-72106291D01*
X121324560Y-72058672D01*
X121348370Y-72034863D01*
X121395989Y-72011053D01*
X121467417Y-72011053D01*
X121515036Y-72034863D01*
X121538846Y-72058672D01*
X121562655Y-72106291D01*
X121562655Y-72296767D01*
X121300750Y-71844386D02*
X121300750Y-71511053D01*
X121800750Y-71725339D01*
X121775350Y-74759333D02*
X121537255Y-74926000D01*
X121775350Y-75045047D02*
X121275350Y-75045047D01*
X121275350Y-74854571D01*
X121299160Y-74806952D01*
X121322970Y-74783143D01*
X121370589Y-74759333D01*
X121442017Y-74759333D01*
X121489636Y-74783143D01*
X121513446Y-74806952D01*
X121537255Y-74854571D01*
X121537255Y-75045047D01*
X121489636Y-74473619D02*
X121465827Y-74521238D01*
X121442017Y-74545047D01*
X121394398Y-74568857D01*
X121370589Y-74568857D01*
X121322970Y-74545047D01*
X121299160Y-74521238D01*
X121275350Y-74473619D01*
X121275350Y-74378381D01*
X121299160Y-74330762D01*
X121322970Y-74306952D01*
X121370589Y-74283143D01*
X121394398Y-74283143D01*
X121442017Y-74306952D01*
X121465827Y-74330762D01*
X121489636Y-74378381D01*
X121489636Y-74473619D01*
X121513446Y-74521238D01*
X121537255Y-74545047D01*
X121584874Y-74568857D01*
X121680112Y-74568857D01*
X121727731Y-74545047D01*
X121751541Y-74521238D01*
X121775350Y-74473619D01*
X121775350Y-74378381D01*
X121751541Y-74330762D01*
X121727731Y-74306952D01*
X121680112Y-74283143D01*
X121584874Y-74283143D01*
X121537255Y-74306952D01*
X121513446Y-74330762D01*
X121489636Y-74378381D01*
X104361467Y-58793510D02*
X104194800Y-58555415D01*
X104075753Y-58793510D02*
X104075753Y-58293510D01*
X104266229Y-58293510D01*
X104313848Y-58317320D01*
X104337657Y-58341130D01*
X104361467Y-58388749D01*
X104361467Y-58460177D01*
X104337657Y-58507796D01*
X104313848Y-58531606D01*
X104266229Y-58555415D01*
X104075753Y-58555415D01*
X104599562Y-58793510D02*
X104694800Y-58793510D01*
X104742419Y-58769701D01*
X104766229Y-58745891D01*
X104813848Y-58674463D01*
X104837657Y-58579225D01*
X104837657Y-58388749D01*
X104813848Y-58341130D01*
X104790038Y-58317320D01*
X104742419Y-58293510D01*
X104647181Y-58293510D01*
X104599562Y-58317320D01*
X104575753Y-58341130D01*
X104551943Y-58388749D01*
X104551943Y-58507796D01*
X104575753Y-58555415D01*
X104599562Y-58579225D01*
X104647181Y-58603034D01*
X104742419Y-58603034D01*
X104790038Y-58579225D01*
X104813848Y-58555415D01*
X104837657Y-58507796D01*
X106363652Y-58834150D02*
X106196985Y-58596055D01*
X106077938Y-58834150D02*
X106077938Y-58334150D01*
X106268414Y-58334150D01*
X106316033Y-58357960D01*
X106339842Y-58381770D01*
X106363652Y-58429389D01*
X106363652Y-58500817D01*
X106339842Y-58548436D01*
X106316033Y-58572246D01*
X106268414Y-58596055D01*
X106077938Y-58596055D01*
X106839842Y-58834150D02*
X106554128Y-58834150D01*
X106696985Y-58834150D02*
X106696985Y-58334150D01*
X106649366Y-58405579D01*
X106601747Y-58453198D01*
X106554128Y-58477008D01*
X107149366Y-58334150D02*
X107196985Y-58334150D01*
X107244604Y-58357960D01*
X107268413Y-58381770D01*
X107292223Y-58429389D01*
X107316032Y-58524627D01*
X107316032Y-58643674D01*
X107292223Y-58738912D01*
X107268413Y-58786531D01*
X107244604Y-58810341D01*
X107196985Y-58834150D01*
X107149366Y-58834150D01*
X107101747Y-58810341D01*
X107077937Y-58786531D01*
X107054128Y-58738912D01*
X107030318Y-58643674D01*
X107030318Y-58524627D01*
X107054128Y-58429389D01*
X107077937Y-58381770D01*
X107101747Y-58357960D01*
X107149366Y-58334150D01*
X95793690Y-67136128D02*
X95555595Y-67302795D01*
X95793690Y-67421842D02*
X95293690Y-67421842D01*
X95293690Y-67231366D01*
X95317500Y-67183747D01*
X95341310Y-67159938D01*
X95388929Y-67136128D01*
X95460357Y-67136128D01*
X95507976Y-67159938D01*
X95531786Y-67183747D01*
X95555595Y-67231366D01*
X95555595Y-67421842D01*
X95793690Y-66659938D02*
X95793690Y-66945652D01*
X95793690Y-66802795D02*
X95293690Y-66802795D01*
X95365119Y-66850414D01*
X95412738Y-66898033D01*
X95436548Y-66945652D01*
X95341310Y-66469462D02*
X95317500Y-66445652D01*
X95293690Y-66398033D01*
X95293690Y-66278986D01*
X95317500Y-66231367D01*
X95341310Y-66207557D01*
X95388929Y-66183748D01*
X95436548Y-66183748D01*
X95507976Y-66207557D01*
X95793690Y-66493271D01*
X95793690Y-66183748D01*
X125072270Y-76617948D02*
X124834175Y-76784615D01*
X125072270Y-76903662D02*
X124572270Y-76903662D01*
X124572270Y-76713186D01*
X124596080Y-76665567D01*
X124619890Y-76641758D01*
X124667509Y-76617948D01*
X124738937Y-76617948D01*
X124786556Y-76641758D01*
X124810366Y-76665567D01*
X124834175Y-76713186D01*
X124834175Y-76903662D01*
X125072270Y-76141758D02*
X125072270Y-76427472D01*
X125072270Y-76284615D02*
X124572270Y-76284615D01*
X124643699Y-76332234D01*
X124691318Y-76379853D01*
X124715128Y-76427472D01*
X124572270Y-75975091D02*
X124572270Y-75665568D01*
X124762747Y-75832234D01*
X124762747Y-75760806D01*
X124786556Y-75713187D01*
X124810366Y-75689377D01*
X124857985Y-75665568D01*
X124977032Y-75665568D01*
X125024651Y-75689377D01*
X125048461Y-75713187D01*
X125072270Y-75760806D01*
X125072270Y-75903663D01*
X125048461Y-75951282D01*
X125024651Y-75975091D01*
X127581790Y-59554228D02*
X127343695Y-59720895D01*
X127581790Y-59839942D02*
X127081790Y-59839942D01*
X127081790Y-59649466D01*
X127105600Y-59601847D01*
X127129410Y-59578038D01*
X127177029Y-59554228D01*
X127248457Y-59554228D01*
X127296076Y-59578038D01*
X127319886Y-59601847D01*
X127343695Y-59649466D01*
X127343695Y-59839942D01*
X127581790Y-59078038D02*
X127581790Y-59363752D01*
X127581790Y-59220895D02*
X127081790Y-59220895D01*
X127153219Y-59268514D01*
X127200838Y-59316133D01*
X127224648Y-59363752D01*
X127248457Y-58649467D02*
X127581790Y-58649467D01*
X127057981Y-58768514D02*
X127415124Y-58887562D01*
X127415124Y-58578038D01*
X133220590Y-59554228D02*
X132982495Y-59720895D01*
X133220590Y-59839942D02*
X132720590Y-59839942D01*
X132720590Y-59649466D01*
X132744400Y-59601847D01*
X132768210Y-59578038D01*
X132815829Y-59554228D01*
X132887257Y-59554228D01*
X132934876Y-59578038D01*
X132958686Y-59601847D01*
X132982495Y-59649466D01*
X132982495Y-59839942D01*
X133220590Y-59078038D02*
X133220590Y-59363752D01*
X133220590Y-59220895D02*
X132720590Y-59220895D01*
X132792019Y-59268514D01*
X132839638Y-59316133D01*
X132863448Y-59363752D01*
X132720590Y-58625657D02*
X132720590Y-58863752D01*
X132958686Y-58887562D01*
X132934876Y-58863752D01*
X132911067Y-58816133D01*
X132911067Y-58697086D01*
X132934876Y-58649467D01*
X132958686Y-58625657D01*
X133006305Y-58601848D01*
X133125352Y-58601848D01*
X133172971Y-58625657D01*
X133196781Y-58649467D01*
X133220590Y-58697086D01*
X133220590Y-58816133D01*
X133196781Y-58863752D01*
X133172971Y-58887562D01*
X138910190Y-59605028D02*
X138672095Y-59771695D01*
X138910190Y-59890742D02*
X138410190Y-59890742D01*
X138410190Y-59700266D01*
X138434000Y-59652647D01*
X138457810Y-59628838D01*
X138505429Y-59605028D01*
X138576857Y-59605028D01*
X138624476Y-59628838D01*
X138648286Y-59652647D01*
X138672095Y-59700266D01*
X138672095Y-59890742D01*
X138910190Y-59128838D02*
X138910190Y-59414552D01*
X138910190Y-59271695D02*
X138410190Y-59271695D01*
X138481619Y-59319314D01*
X138529238Y-59366933D01*
X138553048Y-59414552D01*
X138410190Y-58700267D02*
X138410190Y-58795505D01*
X138434000Y-58843124D01*
X138457810Y-58866933D01*
X138529238Y-58914552D01*
X138624476Y-58938362D01*
X138814952Y-58938362D01*
X138862571Y-58914552D01*
X138886381Y-58890743D01*
X138910190Y-58843124D01*
X138910190Y-58747886D01*
X138886381Y-58700267D01*
X138862571Y-58676457D01*
X138814952Y-58652648D01*
X138695905Y-58652648D01*
X138648286Y-58676457D01*
X138624476Y-58700267D01*
X138600667Y-58747886D01*
X138600667Y-58843124D01*
X138624476Y-58890743D01*
X138648286Y-58914552D01*
X138695905Y-58938362D01*
X120469790Y-53458228D02*
X120231695Y-53624895D01*
X120469790Y-53743942D02*
X119969790Y-53743942D01*
X119969790Y-53553466D01*
X119993600Y-53505847D01*
X120017410Y-53482038D01*
X120065029Y-53458228D01*
X120136457Y-53458228D01*
X120184076Y-53482038D01*
X120207886Y-53505847D01*
X120231695Y-53553466D01*
X120231695Y-53743942D01*
X120469790Y-52982038D02*
X120469790Y-53267752D01*
X120469790Y-53124895D02*
X119969790Y-53124895D01*
X120041219Y-53172514D01*
X120088838Y-53220133D01*
X120112648Y-53267752D01*
X119969790Y-52815371D02*
X119969790Y-52482038D01*
X120469790Y-52696324D01*
X173011701Y-58069981D02*
X172773606Y-58236648D01*
X173011701Y-58355695D02*
X172511701Y-58355695D01*
X172511701Y-58165219D01*
X172535511Y-58117600D01*
X172559321Y-58093791D01*
X172606940Y-58069981D01*
X172678368Y-58069981D01*
X172725987Y-58093791D01*
X172749797Y-58117600D01*
X172773606Y-58165219D01*
X172773606Y-58355695D01*
X172559321Y-57879505D02*
X172535511Y-57855695D01*
X172511701Y-57808076D01*
X172511701Y-57689029D01*
X172535511Y-57641410D01*
X172559321Y-57617600D01*
X172606940Y-57593791D01*
X172654559Y-57593791D01*
X172725987Y-57617600D01*
X173011701Y-57903314D01*
X173011701Y-57593791D01*
X172725987Y-57308077D02*
X172702178Y-57355696D01*
X172678368Y-57379505D01*
X172630749Y-57403315D01*
X172606940Y-57403315D01*
X172559321Y-57379505D01*
X172535511Y-57355696D01*
X172511701Y-57308077D01*
X172511701Y-57212839D01*
X172535511Y-57165220D01*
X172559321Y-57141410D01*
X172606940Y-57117601D01*
X172630749Y-57117601D01*
X172678368Y-57141410D01*
X172702178Y-57165220D01*
X172725987Y-57212839D01*
X172725987Y-57308077D01*
X172749797Y-57355696D01*
X172773606Y-57379505D01*
X172821225Y-57403315D01*
X172916463Y-57403315D01*
X172964082Y-57379505D01*
X172987892Y-57355696D01*
X173011701Y-57308077D01*
X173011701Y-57212839D01*
X172987892Y-57165220D01*
X172964082Y-57141410D01*
X172916463Y-57117601D01*
X172821225Y-57117601D01*
X172773606Y-57141410D01*
X172749797Y-57165220D01*
X172725987Y-57212839D01*
X164727772Y-94942790D02*
X164561105Y-94704695D01*
X164442058Y-94942790D02*
X164442058Y-94442790D01*
X164632534Y-94442790D01*
X164680153Y-94466600D01*
X164703962Y-94490410D01*
X164727772Y-94538029D01*
X164727772Y-94609457D01*
X164703962Y-94657076D01*
X164680153Y-94680886D01*
X164632534Y-94704695D01*
X164442058Y-94704695D01*
X164918248Y-94490410D02*
X164942058Y-94466600D01*
X164989677Y-94442790D01*
X165108724Y-94442790D01*
X165156343Y-94466600D01*
X165180153Y-94490410D01*
X165203962Y-94538029D01*
X165203962Y-94585648D01*
X165180153Y-94657076D01*
X164894439Y-94942790D01*
X165203962Y-94942790D01*
X165442057Y-94942790D02*
X165537295Y-94942790D01*
X165584914Y-94918981D01*
X165608724Y-94895171D01*
X165656343Y-94823743D01*
X165680152Y-94728505D01*
X165680152Y-94538029D01*
X165656343Y-94490410D01*
X165632533Y-94466600D01*
X165584914Y-94442790D01*
X165489676Y-94442790D01*
X165442057Y-94466600D01*
X165418248Y-94490410D01*
X165394438Y-94538029D01*
X165394438Y-94657076D01*
X165418248Y-94704695D01*
X165442057Y-94728505D01*
X165489676Y-94752314D01*
X165584914Y-94752314D01*
X165632533Y-94728505D01*
X165656343Y-94704695D01*
X165680152Y-94657076D01*
X161111014Y-59960260D02*
X160872919Y-60126927D01*
X161111014Y-60245974D02*
X160611014Y-60245974D01*
X160611014Y-60055498D01*
X160634824Y-60007879D01*
X160658634Y-59984070D01*
X160706253Y-59960260D01*
X160777681Y-59960260D01*
X160825300Y-59984070D01*
X160849110Y-60007879D01*
X160872919Y-60055498D01*
X160872919Y-60245974D01*
X160611014Y-59793593D02*
X160611014Y-59484070D01*
X160801491Y-59650736D01*
X160801491Y-59579308D01*
X160825300Y-59531689D01*
X160849110Y-59507879D01*
X160896729Y-59484070D01*
X161015776Y-59484070D01*
X161063395Y-59507879D01*
X161087205Y-59531689D01*
X161111014Y-59579308D01*
X161111014Y-59722165D01*
X161087205Y-59769784D01*
X161063395Y-59793593D01*
X160611014Y-59174546D02*
X160611014Y-59126927D01*
X160634824Y-59079308D01*
X160658634Y-59055499D01*
X160706253Y-59031689D01*
X160801491Y-59007880D01*
X160920538Y-59007880D01*
X161015776Y-59031689D01*
X161063395Y-59055499D01*
X161087205Y-59079308D01*
X161111014Y-59126927D01*
X161111014Y-59174546D01*
X161087205Y-59222165D01*
X161063395Y-59245975D01*
X161015776Y-59269784D01*
X160920538Y-59293594D01*
X160801491Y-59293594D01*
X160706253Y-59269784D01*
X160658634Y-59245975D01*
X160634824Y-59222165D01*
X160611014Y-59174546D01*
X161136414Y-63592460D02*
X160898319Y-63759127D01*
X161136414Y-63878174D02*
X160636414Y-63878174D01*
X160636414Y-63687698D01*
X160660224Y-63640079D01*
X160684034Y-63616270D01*
X160731653Y-63592460D01*
X160803081Y-63592460D01*
X160850700Y-63616270D01*
X160874510Y-63640079D01*
X160898319Y-63687698D01*
X160898319Y-63878174D01*
X160636414Y-63425793D02*
X160636414Y-63116270D01*
X160826891Y-63282936D01*
X160826891Y-63211508D01*
X160850700Y-63163889D01*
X160874510Y-63140079D01*
X160922129Y-63116270D01*
X161041176Y-63116270D01*
X161088795Y-63140079D01*
X161112605Y-63163889D01*
X161136414Y-63211508D01*
X161136414Y-63354365D01*
X161112605Y-63401984D01*
X161088795Y-63425793D01*
X161136414Y-62640080D02*
X161136414Y-62925794D01*
X161136414Y-62782937D02*
X160636414Y-62782937D01*
X160707843Y-62830556D01*
X160755462Y-62878175D01*
X160779272Y-62925794D01*
X176157772Y-57452390D02*
X175991105Y-57214295D01*
X175872058Y-57452390D02*
X175872058Y-56952390D01*
X176062534Y-56952390D01*
X176110153Y-56976200D01*
X176133962Y-57000010D01*
X176157772Y-57047629D01*
X176157772Y-57119057D01*
X176133962Y-57166676D01*
X176110153Y-57190486D01*
X176062534Y-57214295D01*
X175872058Y-57214295D01*
X176324439Y-56952390D02*
X176633962Y-56952390D01*
X176467296Y-57142867D01*
X176538724Y-57142867D01*
X176586343Y-57166676D01*
X176610153Y-57190486D01*
X176633962Y-57238105D01*
X176633962Y-57357152D01*
X176610153Y-57404771D01*
X176586343Y-57428581D01*
X176538724Y-57452390D01*
X176395867Y-57452390D01*
X176348248Y-57428581D01*
X176324439Y-57404771D01*
X176824438Y-57000010D02*
X176848248Y-56976200D01*
X176895867Y-56952390D01*
X177014914Y-56952390D01*
X177062533Y-56976200D01*
X177086343Y-57000010D01*
X177110152Y-57047629D01*
X177110152Y-57095248D01*
X177086343Y-57166676D01*
X176800629Y-57452390D01*
X177110152Y-57452390D01*
X165057972Y-57071390D02*
X164891305Y-56833295D01*
X164772258Y-57071390D02*
X164772258Y-56571390D01*
X164962734Y-56571390D01*
X165010353Y-56595200D01*
X165034162Y-56619010D01*
X165057972Y-56666629D01*
X165057972Y-56738057D01*
X165034162Y-56785676D01*
X165010353Y-56809486D01*
X164962734Y-56833295D01*
X164772258Y-56833295D01*
X165224639Y-56571390D02*
X165534162Y-56571390D01*
X165367496Y-56761867D01*
X165438924Y-56761867D01*
X165486543Y-56785676D01*
X165510353Y-56809486D01*
X165534162Y-56857105D01*
X165534162Y-56976152D01*
X165510353Y-57023771D01*
X165486543Y-57047581D01*
X165438924Y-57071390D01*
X165296067Y-57071390D01*
X165248448Y-57047581D01*
X165224639Y-57023771D01*
X165700829Y-56571390D02*
X166010352Y-56571390D01*
X165843686Y-56761867D01*
X165915114Y-56761867D01*
X165962733Y-56785676D01*
X165986543Y-56809486D01*
X166010352Y-56857105D01*
X166010352Y-56976152D01*
X165986543Y-57023771D01*
X165962733Y-57047581D01*
X165915114Y-57071390D01*
X165772257Y-57071390D01*
X165724638Y-57047581D01*
X165700829Y-57023771D01*
X149528412Y-98788350D02*
X149361745Y-98550255D01*
X149242698Y-98788350D02*
X149242698Y-98288350D01*
X149433174Y-98288350D01*
X149480793Y-98312160D01*
X149504602Y-98335970D01*
X149528412Y-98383589D01*
X149528412Y-98455017D01*
X149504602Y-98502636D01*
X149480793Y-98526446D01*
X149433174Y-98550255D01*
X149242698Y-98550255D01*
X149695079Y-98288350D02*
X150004602Y-98288350D01*
X149837936Y-98478827D01*
X149909364Y-98478827D01*
X149956983Y-98502636D01*
X149980793Y-98526446D01*
X150004602Y-98574065D01*
X150004602Y-98693112D01*
X149980793Y-98740731D01*
X149956983Y-98764541D01*
X149909364Y-98788350D01*
X149766507Y-98788350D01*
X149718888Y-98764541D01*
X149695079Y-98740731D01*
X150433173Y-98455017D02*
X150433173Y-98788350D01*
X150314126Y-98264541D02*
X150195078Y-98621684D01*
X150504602Y-98621684D01*
X171104690Y-68431528D02*
X170866595Y-68598195D01*
X171104690Y-68717242D02*
X170604690Y-68717242D01*
X170604690Y-68526766D01*
X170628500Y-68479147D01*
X170652310Y-68455338D01*
X170699929Y-68431528D01*
X170771357Y-68431528D01*
X170818976Y-68455338D01*
X170842786Y-68479147D01*
X170866595Y-68526766D01*
X170866595Y-68717242D01*
X170604690Y-68264861D02*
X170604690Y-67955338D01*
X170795167Y-68122004D01*
X170795167Y-68050576D01*
X170818976Y-68002957D01*
X170842786Y-67979147D01*
X170890405Y-67955338D01*
X171009452Y-67955338D01*
X171057071Y-67979147D01*
X171080881Y-68002957D01*
X171104690Y-68050576D01*
X171104690Y-68193433D01*
X171080881Y-68241052D01*
X171057071Y-68264861D01*
X170604690Y-67502957D02*
X170604690Y-67741052D01*
X170842786Y-67764862D01*
X170818976Y-67741052D01*
X170795167Y-67693433D01*
X170795167Y-67574386D01*
X170818976Y-67526767D01*
X170842786Y-67502957D01*
X170890405Y-67479148D01*
X171009452Y-67479148D01*
X171057071Y-67502957D01*
X171080881Y-67526767D01*
X171104690Y-67574386D01*
X171104690Y-67693433D01*
X171080881Y-67741052D01*
X171057071Y-67764862D01*
X171231690Y-81360128D02*
X170993595Y-81526795D01*
X171231690Y-81645842D02*
X170731690Y-81645842D01*
X170731690Y-81455366D01*
X170755500Y-81407747D01*
X170779310Y-81383938D01*
X170826929Y-81360128D01*
X170898357Y-81360128D01*
X170945976Y-81383938D01*
X170969786Y-81407747D01*
X170993595Y-81455366D01*
X170993595Y-81645842D01*
X170731690Y-81193461D02*
X170731690Y-80883938D01*
X170922167Y-81050604D01*
X170922167Y-80979176D01*
X170945976Y-80931557D01*
X170969786Y-80907747D01*
X171017405Y-80883938D01*
X171136452Y-80883938D01*
X171184071Y-80907747D01*
X171207881Y-80931557D01*
X171231690Y-80979176D01*
X171231690Y-81122033D01*
X171207881Y-81169652D01*
X171184071Y-81193461D01*
X170731690Y-80455367D02*
X170731690Y-80550605D01*
X170755500Y-80598224D01*
X170779310Y-80622033D01*
X170850738Y-80669652D01*
X170945976Y-80693462D01*
X171136452Y-80693462D01*
X171184071Y-80669652D01*
X171207881Y-80645843D01*
X171231690Y-80598224D01*
X171231690Y-80502986D01*
X171207881Y-80455367D01*
X171184071Y-80431557D01*
X171136452Y-80407748D01*
X171017405Y-80407748D01*
X170969786Y-80431557D01*
X170945976Y-80455367D01*
X170922167Y-80502986D01*
X170922167Y-80598224D01*
X170945976Y-80645843D01*
X170969786Y-80669652D01*
X171017405Y-80693462D01*
X171168190Y-94542728D02*
X170930095Y-94709395D01*
X171168190Y-94828442D02*
X170668190Y-94828442D01*
X170668190Y-94637966D01*
X170692000Y-94590347D01*
X170715810Y-94566538D01*
X170763429Y-94542728D01*
X170834857Y-94542728D01*
X170882476Y-94566538D01*
X170906286Y-94590347D01*
X170930095Y-94637966D01*
X170930095Y-94828442D01*
X170668190Y-94376061D02*
X170668190Y-94066538D01*
X170858667Y-94233204D01*
X170858667Y-94161776D01*
X170882476Y-94114157D01*
X170906286Y-94090347D01*
X170953905Y-94066538D01*
X171072952Y-94066538D01*
X171120571Y-94090347D01*
X171144381Y-94114157D01*
X171168190Y-94161776D01*
X171168190Y-94304633D01*
X171144381Y-94352252D01*
X171120571Y-94376061D01*
X170668190Y-93899871D02*
X170668190Y-93566538D01*
X171168190Y-93780824D01*
D13*
X103332461Y-63246237D02*
X102856270Y-63579571D01*
X103332461Y-63817666D02*
X102332461Y-63817666D01*
X102332461Y-63436713D01*
X102380080Y-63341475D01*
X102427699Y-63293856D01*
X102522937Y-63246237D01*
X102665794Y-63246237D01*
X102761032Y-63293856D01*
X102808651Y-63341475D01*
X102856270Y-63436713D01*
X102856270Y-63817666D01*
X102332461Y-62912904D02*
X102332461Y-62293856D01*
X102713413Y-62627190D01*
X102713413Y-62484332D01*
X102761032Y-62389094D01*
X102808651Y-62341475D01*
X102903890Y-62293856D01*
X103141985Y-62293856D01*
X103237223Y-62341475D01*
X103284842Y-62389094D01*
X103332461Y-62484332D01*
X103332461Y-62770047D01*
X103284842Y-62865285D01*
X103237223Y-62912904D01*
X102761032Y-61722428D02*
X102713413Y-61817666D01*
X102665794Y-61865285D01*
X102570556Y-61912904D01*
X102522937Y-61912904D01*
X102427699Y-61865285D01*
X102380080Y-61817666D01*
X102332461Y-61722428D01*
X102332461Y-61531951D01*
X102380080Y-61436713D01*
X102427699Y-61389094D01*
X102522937Y-61341475D01*
X102570556Y-61341475D01*
X102665794Y-61389094D01*
X102713413Y-61436713D01*
X102761032Y-61531951D01*
X102761032Y-61722428D01*
X102808651Y-61817666D01*
X102856270Y-61865285D01*
X102951509Y-61912904D01*
X103141985Y-61912904D01*
X103237223Y-61865285D01*
X103284842Y-61817666D01*
X103332461Y-61722428D01*
X103332461Y-61531951D01*
X103284842Y-61436713D01*
X103237223Y-61389094D01*
X103141985Y-61341475D01*
X102951509Y-61341475D01*
X102856270Y-61389094D01*
X102808651Y-61436713D01*
X102761032Y-61531951D01*
X129380953Y-106886779D02*
X129047619Y-106410588D01*
X128809524Y-106886779D02*
X128809524Y-105886779D01*
X129190477Y-105886779D01*
X129285715Y-105934398D01*
X129333334Y-105982017D01*
X129380953Y-106077255D01*
X129380953Y-106220112D01*
X129333334Y-106315350D01*
X129285715Y-106362969D01*
X129190477Y-106410588D01*
X128809524Y-106410588D01*
X130333334Y-106886779D02*
X129761905Y-106886779D01*
X130047619Y-106886779D02*
X130047619Y-105886779D01*
X129952381Y-106029636D01*
X129857143Y-106124874D01*
X129761905Y-106172493D01*
X130952381Y-105886779D02*
X131047620Y-105886779D01*
X131142858Y-105934398D01*
X131190477Y-105982017D01*
X131238096Y-106077255D01*
X131285715Y-106267731D01*
X131285715Y-106505827D01*
X131238096Y-106696303D01*
X131190477Y-106791541D01*
X131142858Y-106839160D01*
X131047620Y-106886779D01*
X130952381Y-106886779D01*
X130857143Y-106839160D01*
X130809524Y-106791541D01*
X130761905Y-106696303D01*
X130714286Y-106505827D01*
X130714286Y-106267731D01*
X130761905Y-106077255D01*
X130809524Y-105982017D01*
X130857143Y-105934398D01*
X130952381Y-105886779D01*
X131857143Y-106315350D02*
X131761905Y-106267731D01*
X131714286Y-106220112D01*
X131666667Y-106124874D01*
X131666667Y-106077255D01*
X131714286Y-105982017D01*
X131761905Y-105934398D01*
X131857143Y-105886779D01*
X132047620Y-105886779D01*
X132142858Y-105934398D01*
X132190477Y-105982017D01*
X132238096Y-106077255D01*
X132238096Y-106124874D01*
X132190477Y-106220112D01*
X132142858Y-106267731D01*
X132047620Y-106315350D01*
X131857143Y-106315350D01*
X131761905Y-106362969D01*
X131714286Y-106410588D01*
X131666667Y-106505827D01*
X131666667Y-106696303D01*
X131714286Y-106791541D01*
X131761905Y-106839160D01*
X131857143Y-106886779D01*
X132047620Y-106886779D01*
X132142858Y-106839160D01*
X132190477Y-106791541D01*
X132238096Y-106696303D01*
X132238096Y-106505827D01*
X132190477Y-106410588D01*
X132142858Y-106362969D01*
X132047620Y-106315350D01*
X126380953Y-106852381D02*
X126047619Y-106376190D01*
X125809524Y-106852381D02*
X125809524Y-105852381D01*
X126190477Y-105852381D01*
X126285715Y-105900000D01*
X126333334Y-105947619D01*
X126380953Y-106042857D01*
X126380953Y-106185714D01*
X126333334Y-106280952D01*
X126285715Y-106328571D01*
X126190477Y-106376190D01*
X125809524Y-106376190D01*
X127333334Y-106852381D02*
X126761905Y-106852381D01*
X127047619Y-106852381D02*
X127047619Y-105852381D01*
X126952381Y-105995238D01*
X126857143Y-106090476D01*
X126761905Y-106138095D01*
X127952381Y-105852381D02*
X128047620Y-105852381D01*
X128142858Y-105900000D01*
X128190477Y-105947619D01*
X128238096Y-106042857D01*
X128285715Y-106233333D01*
X128285715Y-106471429D01*
X128238096Y-106661905D01*
X128190477Y-106757143D01*
X128142858Y-106804762D01*
X128047620Y-106852381D01*
X127952381Y-106852381D01*
X127857143Y-106804762D01*
X127809524Y-106757143D01*
X127761905Y-106661905D01*
X127714286Y-106471429D01*
X127714286Y-106233333D01*
X127761905Y-106042857D01*
X127809524Y-105947619D01*
X127857143Y-105900000D01*
X127952381Y-105852381D01*
X128761905Y-106852381D02*
X128952381Y-106852381D01*
X129047620Y-106804762D01*
X129095239Y-106757143D01*
X129190477Y-106614286D01*
X129238096Y-106423810D01*
X129238096Y-106042857D01*
X129190477Y-105947619D01*
X129142858Y-105900000D01*
X129047620Y-105852381D01*
X128857143Y-105852381D01*
X128761905Y-105900000D01*
X128714286Y-105947619D01*
X128666667Y-106042857D01*
X128666667Y-106280952D01*
X128714286Y-106376190D01*
X128761905Y-106423810D01*
X128857143Y-106471429D01*
X129047620Y-106471429D01*
X129142858Y-106423810D01*
X129190477Y-106376190D01*
X129238096Y-106280952D01*
X121552381Y-109119047D02*
X121076190Y-109452381D01*
X121552381Y-109690476D02*
X120552381Y-109690476D01*
X120552381Y-109309523D01*
X120600000Y-109214285D01*
X120647619Y-109166666D01*
X120742857Y-109119047D01*
X120885714Y-109119047D01*
X120980952Y-109166666D01*
X121028571Y-109214285D01*
X121076190Y-109309523D01*
X121076190Y-109690476D01*
X121552381Y-108166666D02*
X121552381Y-108738095D01*
X121552381Y-108452381D02*
X120552381Y-108452381D01*
X120695238Y-108547619D01*
X120790476Y-108642857D01*
X120838095Y-108738095D01*
X120647619Y-107785714D02*
X120600000Y-107738095D01*
X120552381Y-107642857D01*
X120552381Y-107404761D01*
X120600000Y-107309523D01*
X120647619Y-107261904D01*
X120742857Y-107214285D01*
X120838095Y-107214285D01*
X120980952Y-107261904D01*
X121552381Y-107833333D01*
X121552381Y-107214285D01*
X120552381Y-106357142D02*
X120552381Y-106547619D01*
X120600000Y-106642857D01*
X120647619Y-106690476D01*
X120790476Y-106785714D01*
X120980952Y-106833333D01*
X121361905Y-106833333D01*
X121457143Y-106785714D01*
X121504762Y-106738095D01*
X121552381Y-106642857D01*
X121552381Y-106452380D01*
X121504762Y-106357142D01*
X121457143Y-106309523D01*
X121361905Y-106261904D01*
X121123810Y-106261904D01*
X121028571Y-106309523D01*
X120980952Y-106357142D01*
X120933333Y-106452380D01*
X120933333Y-106642857D01*
X120980952Y-106738095D01*
X121028571Y-106785714D01*
X121123810Y-106833333D01*
X123352381Y-109119047D02*
X122876190Y-109452381D01*
X123352381Y-109690476D02*
X122352381Y-109690476D01*
X122352381Y-109309523D01*
X122400000Y-109214285D01*
X122447619Y-109166666D01*
X122542857Y-109119047D01*
X122685714Y-109119047D01*
X122780952Y-109166666D01*
X122828571Y-109214285D01*
X122876190Y-109309523D01*
X122876190Y-109690476D01*
X123352381Y-108166666D02*
X123352381Y-108738095D01*
X123352381Y-108452381D02*
X122352381Y-108452381D01*
X122495238Y-108547619D01*
X122590476Y-108642857D01*
X122638095Y-108738095D01*
X122352381Y-107833333D02*
X122352381Y-107214285D01*
X122733333Y-107547619D01*
X122733333Y-107404761D01*
X122780952Y-107309523D01*
X122828571Y-107261904D01*
X122923810Y-107214285D01*
X123161905Y-107214285D01*
X123257143Y-107261904D01*
X123304762Y-107309523D01*
X123352381Y-107404761D01*
X123352381Y-107690476D01*
X123304762Y-107785714D01*
X123257143Y-107833333D01*
X122352381Y-106595238D02*
X122352381Y-106499999D01*
X122400000Y-106404761D01*
X122447619Y-106357142D01*
X122542857Y-106309523D01*
X122733333Y-106261904D01*
X122971429Y-106261904D01*
X123161905Y-106309523D01*
X123257143Y-106357142D01*
X123304762Y-106404761D01*
X123352381Y-106499999D01*
X123352381Y-106595238D01*
X123304762Y-106690476D01*
X123257143Y-106738095D01*
X123161905Y-106785714D01*
X122971429Y-106833333D01*
X122733333Y-106833333D01*
X122542857Y-106785714D01*
X122447619Y-106738095D01*
X122400000Y-106690476D01*
X122352381Y-106595238D01*
X107880953Y-124352381D02*
X107547619Y-123876190D01*
X107309524Y-124352381D02*
X107309524Y-123352381D01*
X107690477Y-123352381D01*
X107785715Y-123400000D01*
X107833334Y-123447619D01*
X107880953Y-123542857D01*
X107880953Y-123685714D01*
X107833334Y-123780952D01*
X107785715Y-123828571D01*
X107690477Y-123876190D01*
X107309524Y-123876190D01*
X108833334Y-124352381D02*
X108261905Y-124352381D01*
X108547619Y-124352381D02*
X108547619Y-123352381D01*
X108452381Y-123495238D01*
X108357143Y-123590476D01*
X108261905Y-123638095D01*
X109690477Y-123685714D02*
X109690477Y-124352381D01*
X109452381Y-123304762D02*
X109214286Y-124019048D01*
X109833334Y-124019048D01*
X110404762Y-123352381D02*
X110500001Y-123352381D01*
X110595239Y-123400000D01*
X110642858Y-123447619D01*
X110690477Y-123542857D01*
X110738096Y-123733333D01*
X110738096Y-123971429D01*
X110690477Y-124161905D01*
X110642858Y-124257143D01*
X110595239Y-124304762D01*
X110500001Y-124352381D01*
X110404762Y-124352381D01*
X110309524Y-124304762D01*
X110261905Y-124257143D01*
X110214286Y-124161905D01*
X110166667Y-123971429D01*
X110166667Y-123733333D01*
X110214286Y-123542857D01*
X110261905Y-123447619D01*
X110309524Y-123400000D01*
X110404762Y-123352381D01*
X107880953Y-118052381D02*
X107547619Y-117576190D01*
X107309524Y-118052381D02*
X107309524Y-117052381D01*
X107690477Y-117052381D01*
X107785715Y-117100000D01*
X107833334Y-117147619D01*
X107880953Y-117242857D01*
X107880953Y-117385714D01*
X107833334Y-117480952D01*
X107785715Y-117528571D01*
X107690477Y-117576190D01*
X107309524Y-117576190D01*
X108833334Y-118052381D02*
X108261905Y-118052381D01*
X108547619Y-118052381D02*
X108547619Y-117052381D01*
X108452381Y-117195238D01*
X108357143Y-117290476D01*
X108261905Y-117338095D01*
X109690477Y-117385714D02*
X109690477Y-118052381D01*
X109452381Y-117004762D02*
X109214286Y-117719048D01*
X109833334Y-117719048D01*
X110738096Y-118052381D02*
X110166667Y-118052381D01*
X110452381Y-118052381D02*
X110452381Y-117052381D01*
X110357143Y-117195238D01*
X110261905Y-117290476D01*
X110166667Y-117338095D01*
X111380953Y-121852381D02*
X111047619Y-121376190D01*
X110809524Y-121852381D02*
X110809524Y-120852381D01*
X111190477Y-120852381D01*
X111285715Y-120900000D01*
X111333334Y-120947619D01*
X111380953Y-121042857D01*
X111380953Y-121185714D01*
X111333334Y-121280952D01*
X111285715Y-121328571D01*
X111190477Y-121376190D01*
X110809524Y-121376190D01*
X112333334Y-121852381D02*
X111761905Y-121852381D01*
X112047619Y-121852381D02*
X112047619Y-120852381D01*
X111952381Y-120995238D01*
X111857143Y-121090476D01*
X111761905Y-121138095D01*
X113190477Y-121185714D02*
X113190477Y-121852381D01*
X112952381Y-120804762D02*
X112714286Y-121519048D01*
X113333334Y-121519048D01*
X114190477Y-120852381D02*
X113714286Y-120852381D01*
X113666667Y-121328571D01*
X113714286Y-121280952D01*
X113809524Y-121233333D01*
X114047620Y-121233333D01*
X114142858Y-121280952D01*
X114190477Y-121328571D01*
X114238096Y-121423810D01*
X114238096Y-121661905D01*
X114190477Y-121757143D01*
X114142858Y-121804762D01*
X114047620Y-121852381D01*
X113809524Y-121852381D01*
X113714286Y-121804762D01*
X113666667Y-121757143D01*
X152352381Y-128619047D02*
X151876190Y-128952381D01*
X152352381Y-129190476D02*
X151352381Y-129190476D01*
X151352381Y-128809523D01*
X151400000Y-128714285D01*
X151447619Y-128666666D01*
X151542857Y-128619047D01*
X151685714Y-128619047D01*
X151780952Y-128666666D01*
X151828571Y-128714285D01*
X151876190Y-128809523D01*
X151876190Y-129190476D01*
X152352381Y-127666666D02*
X152352381Y-128238095D01*
X152352381Y-127952381D02*
X151352381Y-127952381D01*
X151495238Y-128047619D01*
X151590476Y-128142857D01*
X151638095Y-128238095D01*
X151685714Y-126809523D02*
X152352381Y-126809523D01*
X151304762Y-127047619D02*
X152019048Y-127285714D01*
X152019048Y-126666666D01*
X151352381Y-125857142D02*
X151352381Y-126047619D01*
X151400000Y-126142857D01*
X151447619Y-126190476D01*
X151590476Y-126285714D01*
X151780952Y-126333333D01*
X152161905Y-126333333D01*
X152257143Y-126285714D01*
X152304762Y-126238095D01*
X152352381Y-126142857D01*
X152352381Y-125952380D01*
X152304762Y-125857142D01*
X152257143Y-125809523D01*
X152161905Y-125761904D01*
X151923810Y-125761904D01*
X151828571Y-125809523D01*
X151780952Y-125857142D01*
X151733333Y-125952380D01*
X151733333Y-126142857D01*
X151780952Y-126238095D01*
X151828571Y-126285714D01*
X151923810Y-126333333D01*
X114380953Y-121852381D02*
X114047619Y-121376190D01*
X113809524Y-121852381D02*
X113809524Y-120852381D01*
X114190477Y-120852381D01*
X114285715Y-120900000D01*
X114333334Y-120947619D01*
X114380953Y-121042857D01*
X114380953Y-121185714D01*
X114333334Y-121280952D01*
X114285715Y-121328571D01*
X114190477Y-121376190D01*
X113809524Y-121376190D01*
X115333334Y-121852381D02*
X114761905Y-121852381D01*
X115047619Y-121852381D02*
X115047619Y-120852381D01*
X114952381Y-120995238D01*
X114857143Y-121090476D01*
X114761905Y-121138095D01*
X116190477Y-121185714D02*
X116190477Y-121852381D01*
X115952381Y-120804762D02*
X115714286Y-121519048D01*
X116333334Y-121519048D01*
X116619048Y-120852381D02*
X117285715Y-120852381D01*
X116857143Y-121852381D01*
X146352381Y-123619047D02*
X145876190Y-123952381D01*
X146352381Y-124190476D02*
X145352381Y-124190476D01*
X145352381Y-123809523D01*
X145400000Y-123714285D01*
X145447619Y-123666666D01*
X145542857Y-123619047D01*
X145685714Y-123619047D01*
X145780952Y-123666666D01*
X145828571Y-123714285D01*
X145876190Y-123809523D01*
X145876190Y-124190476D01*
X146352381Y-122666666D02*
X146352381Y-123238095D01*
X146352381Y-122952381D02*
X145352381Y-122952381D01*
X145495238Y-123047619D01*
X145590476Y-123142857D01*
X145638095Y-123238095D01*
X145685714Y-121809523D02*
X146352381Y-121809523D01*
X145304762Y-122047619D02*
X146019048Y-122285714D01*
X146019048Y-121666666D01*
X145780952Y-121142857D02*
X145733333Y-121238095D01*
X145685714Y-121285714D01*
X145590476Y-121333333D01*
X145542857Y-121333333D01*
X145447619Y-121285714D01*
X145400000Y-121238095D01*
X145352381Y-121142857D01*
X145352381Y-120952380D01*
X145400000Y-120857142D01*
X145447619Y-120809523D01*
X145542857Y-120761904D01*
X145590476Y-120761904D01*
X145685714Y-120809523D01*
X145733333Y-120857142D01*
X145780952Y-120952380D01*
X145780952Y-121142857D01*
X145828571Y-121238095D01*
X145876190Y-121285714D01*
X145971429Y-121333333D01*
X146161905Y-121333333D01*
X146257143Y-121285714D01*
X146304762Y-121238095D01*
X146352381Y-121142857D01*
X146352381Y-120952380D01*
X146304762Y-120857142D01*
X146257143Y-120809523D01*
X146161905Y-120761904D01*
X145971429Y-120761904D01*
X145876190Y-120809523D01*
X145828571Y-120857142D01*
X145780952Y-120952380D01*
X134852381Y-123119047D02*
X134376190Y-123452381D01*
X134852381Y-123690476D02*
X133852381Y-123690476D01*
X133852381Y-123309523D01*
X133900000Y-123214285D01*
X133947619Y-123166666D01*
X134042857Y-123119047D01*
X134185714Y-123119047D01*
X134280952Y-123166666D01*
X134328571Y-123214285D01*
X134376190Y-123309523D01*
X134376190Y-123690476D01*
X134852381Y-122166666D02*
X134852381Y-122738095D01*
X134852381Y-122452381D02*
X133852381Y-122452381D01*
X133995238Y-122547619D01*
X134090476Y-122642857D01*
X134138095Y-122738095D01*
X134185714Y-121309523D02*
X134852381Y-121309523D01*
X133804762Y-121547619D02*
X134519048Y-121785714D01*
X134519048Y-121166666D01*
X134852381Y-120738095D02*
X134852381Y-120547619D01*
X134804762Y-120452380D01*
X134757143Y-120404761D01*
X134614286Y-120309523D01*
X134423810Y-120261904D01*
X134042857Y-120261904D01*
X133947619Y-120309523D01*
X133900000Y-120357142D01*
X133852381Y-120452380D01*
X133852381Y-120642857D01*
X133900000Y-120738095D01*
X133947619Y-120785714D01*
X134042857Y-120833333D01*
X134280952Y-120833333D01*
X134376190Y-120785714D01*
X134423810Y-120738095D01*
X134471429Y-120642857D01*
X134471429Y-120452380D01*
X134423810Y-120357142D01*
X134376190Y-120309523D01*
X134280952Y-120261904D01*
X149352381Y-118619047D02*
X148876190Y-118952381D01*
X149352381Y-119190476D02*
X148352381Y-119190476D01*
X148352381Y-118809523D01*
X148400000Y-118714285D01*
X148447619Y-118666666D01*
X148542857Y-118619047D01*
X148685714Y-118619047D01*
X148780952Y-118666666D01*
X148828571Y-118714285D01*
X148876190Y-118809523D01*
X148876190Y-119190476D01*
X149352381Y-117666666D02*
X149352381Y-118238095D01*
X149352381Y-117952381D02*
X148352381Y-117952381D01*
X148495238Y-118047619D01*
X148590476Y-118142857D01*
X148638095Y-118238095D01*
X148352381Y-116761904D02*
X148352381Y-117238095D01*
X148828571Y-117285714D01*
X148780952Y-117238095D01*
X148733333Y-117142857D01*
X148733333Y-116904761D01*
X148780952Y-116809523D01*
X148828571Y-116761904D01*
X148923810Y-116714285D01*
X149161905Y-116714285D01*
X149257143Y-116761904D01*
X149304762Y-116809523D01*
X149352381Y-116904761D01*
X149352381Y-117142857D01*
X149304762Y-117238095D01*
X149257143Y-117285714D01*
X148352381Y-116095238D02*
X148352381Y-115999999D01*
X148400000Y-115904761D01*
X148447619Y-115857142D01*
X148542857Y-115809523D01*
X148733333Y-115761904D01*
X148971429Y-115761904D01*
X149161905Y-115809523D01*
X149257143Y-115857142D01*
X149304762Y-115904761D01*
X149352381Y-115999999D01*
X149352381Y-116095238D01*
X149304762Y-116190476D01*
X149257143Y-116238095D01*
X149161905Y-116285714D01*
X148971429Y-116333333D01*
X148733333Y-116333333D01*
X148542857Y-116285714D01*
X148447619Y-116238095D01*
X148400000Y-116190476D01*
X148352381Y-116095238D01*
X142552381Y-127119047D02*
X142076190Y-127452381D01*
X142552381Y-127690476D02*
X141552381Y-127690476D01*
X141552381Y-127309523D01*
X141600000Y-127214285D01*
X141647619Y-127166666D01*
X141742857Y-127119047D01*
X141885714Y-127119047D01*
X141980952Y-127166666D01*
X142028571Y-127214285D01*
X142076190Y-127309523D01*
X142076190Y-127690476D01*
X142552381Y-126166666D02*
X142552381Y-126738095D01*
X142552381Y-126452381D02*
X141552381Y-126452381D01*
X141695238Y-126547619D01*
X141790476Y-126642857D01*
X141838095Y-126738095D01*
X141552381Y-125261904D02*
X141552381Y-125738095D01*
X142028571Y-125785714D01*
X141980952Y-125738095D01*
X141933333Y-125642857D01*
X141933333Y-125404761D01*
X141980952Y-125309523D01*
X142028571Y-125261904D01*
X142123810Y-125214285D01*
X142361905Y-125214285D01*
X142457143Y-125261904D01*
X142504762Y-125309523D01*
X142552381Y-125404761D01*
X142552381Y-125642857D01*
X142504762Y-125738095D01*
X142457143Y-125785714D01*
X142552381Y-124261904D02*
X142552381Y-124833333D01*
X142552381Y-124547619D02*
X141552381Y-124547619D01*
X141695238Y-124642857D01*
X141790476Y-124738095D01*
X141838095Y-124833333D01*
X136552381Y-113119047D02*
X136076190Y-113452381D01*
X136552381Y-113690476D02*
X135552381Y-113690476D01*
X135552381Y-113309523D01*
X135600000Y-113214285D01*
X135647619Y-113166666D01*
X135742857Y-113119047D01*
X135885714Y-113119047D01*
X135980952Y-113166666D01*
X136028571Y-113214285D01*
X136076190Y-113309523D01*
X136076190Y-113690476D01*
X136552381Y-112166666D02*
X136552381Y-112738095D01*
X136552381Y-112452381D02*
X135552381Y-112452381D01*
X135695238Y-112547619D01*
X135790476Y-112642857D01*
X135838095Y-112738095D01*
X135552381Y-111261904D02*
X135552381Y-111738095D01*
X136028571Y-111785714D01*
X135980952Y-111738095D01*
X135933333Y-111642857D01*
X135933333Y-111404761D01*
X135980952Y-111309523D01*
X136028571Y-111261904D01*
X136123810Y-111214285D01*
X136361905Y-111214285D01*
X136457143Y-111261904D01*
X136504762Y-111309523D01*
X136552381Y-111404761D01*
X136552381Y-111642857D01*
X136504762Y-111738095D01*
X136457143Y-111785714D01*
X135647619Y-110833333D02*
X135600000Y-110785714D01*
X135552381Y-110690476D01*
X135552381Y-110452380D01*
X135600000Y-110357142D01*
X135647619Y-110309523D01*
X135742857Y-110261904D01*
X135838095Y-110261904D01*
X135980952Y-110309523D01*
X136552381Y-110880952D01*
X136552381Y-110261904D01*
D11*
X124782343Y-57790590D02*
X125068057Y-57790590D01*
X124925200Y-58290590D02*
X124925200Y-57790590D01*
X125234724Y-58290590D02*
X125234724Y-57790590D01*
X125234724Y-58028686D02*
X125520438Y-58028686D01*
X125520438Y-58290590D02*
X125520438Y-57790590D01*
X126020438Y-58290590D02*
X125734724Y-58290590D01*
X125877581Y-58290590D02*
X125877581Y-57790590D01*
X125829962Y-57862019D01*
X125782343Y-57909638D01*
X125734724Y-57933448D01*
X130522743Y-57739790D02*
X130808457Y-57739790D01*
X130665600Y-58239790D02*
X130665600Y-57739790D01*
X130975124Y-58239790D02*
X130975124Y-57739790D01*
X130975124Y-57977886D02*
X131260838Y-57977886D01*
X131260838Y-58239790D02*
X131260838Y-57739790D01*
X131475124Y-57787410D02*
X131498934Y-57763600D01*
X131546553Y-57739790D01*
X131665600Y-57739790D01*
X131713219Y-57763600D01*
X131737029Y-57787410D01*
X131760838Y-57835029D01*
X131760838Y-57882648D01*
X131737029Y-57954076D01*
X131451315Y-58239790D01*
X131760838Y-58239790D01*
X136009143Y-57688990D02*
X136294857Y-57688990D01*
X136152000Y-58188990D02*
X136152000Y-57688990D01*
X136461524Y-58188990D02*
X136461524Y-57688990D01*
X136461524Y-57927086D02*
X136747238Y-57927086D01*
X136747238Y-58188990D02*
X136747238Y-57688990D01*
X136937715Y-57688990D02*
X137247238Y-57688990D01*
X137080572Y-57879467D01*
X137152000Y-57879467D01*
X137199619Y-57903276D01*
X137223429Y-57927086D01*
X137247238Y-57974705D01*
X137247238Y-58093752D01*
X137223429Y-58141371D01*
X137199619Y-58165181D01*
X137152000Y-58188990D01*
X137009143Y-58188990D01*
X136961524Y-58165181D01*
X136937715Y-58141371D01*
X116322553Y-51338990D02*
X116322553Y-51743752D01*
X116346362Y-51791371D01*
X116370172Y-51815181D01*
X116417791Y-51838990D01*
X116513029Y-51838990D01*
X116560648Y-51815181D01*
X116584457Y-51791371D01*
X116608267Y-51743752D01*
X116608267Y-51338990D01*
X117108267Y-51838990D02*
X116822553Y-51838990D01*
X116965410Y-51838990D02*
X116965410Y-51338990D01*
X116917791Y-51410419D01*
X116870172Y-51458038D01*
X116822553Y-51481848D01*
X117417791Y-51338990D02*
X117465410Y-51338990D01*
X117513029Y-51362800D01*
X117536838Y-51386610D01*
X117560648Y-51434229D01*
X117584457Y-51529467D01*
X117584457Y-51648514D01*
X117560648Y-51743752D01*
X117536838Y-51791371D01*
X117513029Y-51815181D01*
X117465410Y-51838990D01*
X117417791Y-51838990D01*
X117370172Y-51815181D01*
X117346362Y-51791371D01*
X117322553Y-51743752D01*
X117298743Y-51648514D01*
X117298743Y-51529467D01*
X117322553Y-51434229D01*
X117346362Y-51386610D01*
X117370172Y-51362800D01*
X117417791Y-51338990D01*
X155180697Y-64216422D02*
X155180697Y-64621184D01*
X155204506Y-64668803D01*
X155228316Y-64692613D01*
X155275935Y-64716422D01*
X155371173Y-64716422D01*
X155418792Y-64692613D01*
X155442601Y-64668803D01*
X155466411Y-64621184D01*
X155466411Y-64216422D01*
X155966411Y-64716422D02*
X155680697Y-64716422D01*
X155823554Y-64716422D02*
X155823554Y-64216422D01*
X155775935Y-64287851D01*
X155728316Y-64335470D01*
X155680697Y-64359280D01*
X156156887Y-64264042D02*
X156180697Y-64240232D01*
X156228316Y-64216422D01*
X156347363Y-64216422D01*
X156394982Y-64240232D01*
X156418792Y-64264042D01*
X156442601Y-64311661D01*
X156442601Y-64359280D01*
X156418792Y-64430708D01*
X156133078Y-64716422D01*
X156442601Y-64716422D01*
X123119390Y-68386247D02*
X123524152Y-68386247D01*
X123571771Y-68362438D01*
X123595581Y-68338628D01*
X123619390Y-68291009D01*
X123619390Y-68195771D01*
X123595581Y-68148152D01*
X123571771Y-68124343D01*
X123524152Y-68100533D01*
X123119390Y-68100533D01*
X123619390Y-67600533D02*
X123619390Y-67886247D01*
X123619390Y-67743390D02*
X123119390Y-67743390D01*
X123190819Y-67791009D01*
X123238438Y-67838628D01*
X123262248Y-67886247D01*
X123286057Y-67171962D02*
X123619390Y-67171962D01*
X123095581Y-67291009D02*
X123452724Y-67410057D01*
X123452724Y-67100533D01*
D13*
X125285714Y-111352381D02*
X125285714Y-112161905D01*
X125333333Y-112257143D01*
X125380952Y-112304762D01*
X125476190Y-112352381D01*
X125666667Y-112352381D01*
X125761905Y-112304762D01*
X125809524Y-112257143D01*
X125857143Y-112161905D01*
X125857143Y-111352381D01*
X126857143Y-112352381D02*
X126285714Y-112352381D01*
X126571428Y-112352381D02*
X126571428Y-111352381D01*
X126476190Y-111495238D01*
X126380952Y-111590476D01*
X126285714Y-111638095D01*
X127476190Y-111352381D02*
X127571429Y-111352381D01*
X127666667Y-111400000D01*
X127714286Y-111447619D01*
X127761905Y-111542857D01*
X127809524Y-111733333D01*
X127809524Y-111971429D01*
X127761905Y-112161905D01*
X127714286Y-112257143D01*
X127666667Y-112304762D01*
X127571429Y-112352381D01*
X127476190Y-112352381D01*
X127380952Y-112304762D01*
X127333333Y-112257143D01*
X127285714Y-112161905D01*
X127238095Y-111971429D01*
X127238095Y-111733333D01*
X127285714Y-111542857D01*
X127333333Y-111447619D01*
X127380952Y-111400000D01*
X127476190Y-111352381D01*
X128714286Y-111352381D02*
X128238095Y-111352381D01*
X128190476Y-111828571D01*
X128238095Y-111780952D01*
X128333333Y-111733333D01*
X128571429Y-111733333D01*
X128666667Y-111780952D01*
X128714286Y-111828571D01*
X128761905Y-111923810D01*
X128761905Y-112161905D01*
X128714286Y-112257143D01*
X128666667Y-112304762D01*
X128571429Y-112352381D01*
X128333333Y-112352381D01*
X128238095Y-112304762D01*
X128190476Y-112257143D01*
X112785714Y-125352381D02*
X112785714Y-126161905D01*
X112833333Y-126257143D01*
X112880952Y-126304762D01*
X112976190Y-126352381D01*
X113166667Y-126352381D01*
X113261905Y-126304762D01*
X113309524Y-126257143D01*
X113357143Y-126161905D01*
X113357143Y-125352381D01*
X114357143Y-126352381D02*
X113785714Y-126352381D01*
X114071428Y-126352381D02*
X114071428Y-125352381D01*
X113976190Y-125495238D01*
X113880952Y-125590476D01*
X113785714Y-125638095D01*
X114976190Y-125352381D02*
X115071429Y-125352381D01*
X115166667Y-125400000D01*
X115214286Y-125447619D01*
X115261905Y-125542857D01*
X115309524Y-125733333D01*
X115309524Y-125971429D01*
X115261905Y-126161905D01*
X115214286Y-126257143D01*
X115166667Y-126304762D01*
X115071429Y-126352381D01*
X114976190Y-126352381D01*
X114880952Y-126304762D01*
X114833333Y-126257143D01*
X114785714Y-126161905D01*
X114738095Y-125971429D01*
X114738095Y-125733333D01*
X114785714Y-125542857D01*
X114833333Y-125447619D01*
X114880952Y-125400000D01*
X114976190Y-125352381D01*
X115880952Y-125780952D02*
X115785714Y-125733333D01*
X115738095Y-125685714D01*
X115690476Y-125590476D01*
X115690476Y-125542857D01*
X115738095Y-125447619D01*
X115785714Y-125400000D01*
X115880952Y-125352381D01*
X116071429Y-125352381D01*
X116166667Y-125400000D01*
X116214286Y-125447619D01*
X116261905Y-125542857D01*
X116261905Y-125590476D01*
X116214286Y-125685714D01*
X116166667Y-125733333D01*
X116071429Y-125780952D01*
X115880952Y-125780952D01*
X115785714Y-125828571D01*
X115738095Y-125876190D01*
X115690476Y-125971429D01*
X115690476Y-126161905D01*
X115738095Y-126257143D01*
X115785714Y-126304762D01*
X115880952Y-126352381D01*
X116071429Y-126352381D01*
X116166667Y-126304762D01*
X116214286Y-126257143D01*
X116261905Y-126161905D01*
X116261905Y-125971429D01*
X116214286Y-125876190D01*
X116166667Y-125828571D01*
X116071429Y-125780952D01*
D11*
X170388464Y-64332743D02*
X170388464Y-64737505D01*
X170412273Y-64785124D01*
X170436083Y-64808934D01*
X170483702Y-64832743D01*
X170578940Y-64832743D01*
X170626559Y-64808934D01*
X170650368Y-64785124D01*
X170674178Y-64737505D01*
X170674178Y-64332743D01*
X171174178Y-64832743D02*
X170888464Y-64832743D01*
X171031321Y-64832743D02*
X171031321Y-64332743D01*
X170983702Y-64404172D01*
X170936083Y-64451791D01*
X170888464Y-64475601D01*
X171650368Y-64832743D02*
X171364654Y-64832743D01*
X171507511Y-64832743D02*
X171507511Y-64332743D01*
X171459892Y-64404172D01*
X171412273Y-64451791D01*
X171364654Y-64475601D01*
X85189190Y-67526647D02*
X84689190Y-67526647D01*
X84689190Y-67407600D01*
X84713000Y-67336171D01*
X84760619Y-67288552D01*
X84808238Y-67264743D01*
X84903476Y-67240933D01*
X84974905Y-67240933D01*
X85070143Y-67264743D01*
X85117762Y-67288552D01*
X85165381Y-67336171D01*
X85189190Y-67407600D01*
X85189190Y-67526647D01*
X85189190Y-66764743D02*
X85189190Y-67050457D01*
X85189190Y-66907600D02*
X84689190Y-66907600D01*
X84760619Y-66955219D01*
X84808238Y-67002838D01*
X84832048Y-67050457D01*
X104050353Y-52463830D02*
X104050353Y-51963830D01*
X104169400Y-51963830D01*
X104240829Y-51987640D01*
X104288448Y-52035259D01*
X104312257Y-52082878D01*
X104336067Y-52178116D01*
X104336067Y-52249545D01*
X104312257Y-52344783D01*
X104288448Y-52392402D01*
X104240829Y-52440021D01*
X104169400Y-52463830D01*
X104050353Y-52463830D01*
X104526543Y-52011450D02*
X104550353Y-51987640D01*
X104597972Y-51963830D01*
X104717019Y-51963830D01*
X104764638Y-51987640D01*
X104788448Y-52011450D01*
X104812257Y-52059069D01*
X104812257Y-52106688D01*
X104788448Y-52178116D01*
X104502734Y-52463830D01*
X104812257Y-52463830D01*
X106316033Y-52534950D02*
X106316033Y-52034950D01*
X106435080Y-52034950D01*
X106506509Y-52058760D01*
X106554128Y-52106379D01*
X106577937Y-52153998D01*
X106601747Y-52249236D01*
X106601747Y-52320665D01*
X106577937Y-52415903D01*
X106554128Y-52463522D01*
X106506509Y-52511141D01*
X106435080Y-52534950D01*
X106316033Y-52534950D01*
X106768414Y-52034950D02*
X107077937Y-52034950D01*
X106911271Y-52225427D01*
X106982699Y-52225427D01*
X107030318Y-52249236D01*
X107054128Y-52273046D01*
X107077937Y-52320665D01*
X107077937Y-52439712D01*
X107054128Y-52487331D01*
X107030318Y-52511141D01*
X106982699Y-52534950D01*
X106839842Y-52534950D01*
X106792223Y-52511141D01*
X106768414Y-52487331D01*
X108652833Y-52484150D02*
X108652833Y-51984150D01*
X108771880Y-51984150D01*
X108843309Y-52007960D01*
X108890928Y-52055579D01*
X108914737Y-52103198D01*
X108938547Y-52198436D01*
X108938547Y-52269865D01*
X108914737Y-52365103D01*
X108890928Y-52412722D01*
X108843309Y-52460341D01*
X108771880Y-52484150D01*
X108652833Y-52484150D01*
X109367118Y-52150817D02*
X109367118Y-52484150D01*
X109248071Y-51960341D02*
X109129023Y-52317484D01*
X109438547Y-52317484D01*
X154228053Y-96863030D02*
X154228053Y-96363030D01*
X154347100Y-96363030D01*
X154418529Y-96386840D01*
X154466148Y-96434459D01*
X154489957Y-96482078D01*
X154513767Y-96577316D01*
X154513767Y-96648745D01*
X154489957Y-96743983D01*
X154466148Y-96791602D01*
X154418529Y-96839221D01*
X154347100Y-96863030D01*
X154228053Y-96863030D01*
X154966148Y-96363030D02*
X154728053Y-96363030D01*
X154704243Y-96601126D01*
X154728053Y-96577316D01*
X154775672Y-96553507D01*
X154894719Y-96553507D01*
X154942338Y-96577316D01*
X154966148Y-96601126D01*
X154989957Y-96648745D01*
X154989957Y-96767792D01*
X154966148Y-96815411D01*
X154942338Y-96839221D01*
X154894719Y-96863030D01*
X154775672Y-96863030D01*
X154728053Y-96839221D01*
X154704243Y-96815411D01*
D13*
X153230295Y-101061781D02*
X153230295Y-100061781D01*
X153801724Y-101061781D02*
X153373152Y-100490352D01*
X153801724Y-100061781D02*
X153230295Y-100633210D01*
X161382105Y-100826867D02*
X161858296Y-100826867D01*
X161286867Y-101112581D02*
X161620200Y-100112581D01*
X161953534Y-101112581D01*
D11*
X157237953Y-98320990D02*
X157237953Y-97820990D01*
X157357000Y-97820990D01*
X157428429Y-97844800D01*
X157476048Y-97892419D01*
X157499857Y-97940038D01*
X157523667Y-98035276D01*
X157523667Y-98106705D01*
X157499857Y-98201943D01*
X157476048Y-98249562D01*
X157428429Y-98297181D01*
X157357000Y-98320990D01*
X157237953Y-98320990D01*
X157952238Y-97820990D02*
X157857000Y-97820990D01*
X157809381Y-97844800D01*
X157785572Y-97868610D01*
X157737953Y-97940038D01*
X157714143Y-98035276D01*
X157714143Y-98225752D01*
X157737953Y-98273371D01*
X157761762Y-98297181D01*
X157809381Y-98320990D01*
X157904619Y-98320990D01*
X157952238Y-98297181D01*
X157976048Y-98273371D01*
X157999857Y-98225752D01*
X157999857Y-98106705D01*
X157976048Y-98059086D01*
X157952238Y-98035276D01*
X157904619Y-98011467D01*
X157809381Y-98011467D01*
X157761762Y-98035276D01*
X157737953Y-98059086D01*
X157714143Y-98106705D01*
D13*
X160245095Y-91787181D02*
X160245095Y-90787181D01*
X160816524Y-91787181D02*
X160387952Y-91215752D01*
X160816524Y-90787181D02*
X160245095Y-91358610D01*
X154468905Y-91551467D02*
X154945096Y-91551467D01*
X154373667Y-91837181D02*
X154707000Y-90837181D01*
X155040334Y-91837181D01*
D11*
X126299731Y-78964908D02*
X126323541Y-78988718D01*
X126347350Y-79060146D01*
X126347350Y-79107765D01*
X126323541Y-79179194D01*
X126275922Y-79226813D01*
X126228303Y-79250622D01*
X126133065Y-79274432D01*
X126061636Y-79274432D01*
X125966398Y-79250622D01*
X125918779Y-79226813D01*
X125871160Y-79179194D01*
X125847350Y-79107765D01*
X125847350Y-79060146D01*
X125871160Y-78988718D01*
X125894970Y-78964908D01*
X126347350Y-78488718D02*
X126347350Y-78774432D01*
X126347350Y-78631575D02*
X125847350Y-78631575D01*
X125918779Y-78679194D01*
X125966398Y-78726813D01*
X125990208Y-78774432D01*
X126347350Y-78012528D02*
X126347350Y-78298242D01*
X126347350Y-78155385D02*
X125847350Y-78155385D01*
X125918779Y-78203004D01*
X125966398Y-78250623D01*
X125990208Y-78298242D01*
X108751252Y-58859550D02*
X108584585Y-58621455D01*
X108465538Y-58859550D02*
X108465538Y-58359550D01*
X108656014Y-58359550D01*
X108703633Y-58383360D01*
X108727442Y-58407170D01*
X108751252Y-58454789D01*
X108751252Y-58526217D01*
X108727442Y-58573836D01*
X108703633Y-58597646D01*
X108656014Y-58621455D01*
X108465538Y-58621455D01*
X109227442Y-58859550D02*
X108941728Y-58859550D01*
X109084585Y-58859550D02*
X109084585Y-58359550D01*
X109036966Y-58430979D01*
X108989347Y-58478598D01*
X108941728Y-58502408D01*
X109703632Y-58859550D02*
X109417918Y-58859550D01*
X109560775Y-58859550D02*
X109560775Y-58359550D01*
X109513156Y-58430979D01*
X109465537Y-58478598D01*
X109417918Y-58502408D01*
D13*
X136867663Y-69597463D02*
X136820044Y-69645082D01*
X136677187Y-69692701D01*
X136581949Y-69692701D01*
X136439091Y-69645082D01*
X136343853Y-69549844D01*
X136296234Y-69454606D01*
X136248615Y-69264130D01*
X136248615Y-69121272D01*
X136296234Y-68930796D01*
X136343853Y-68835558D01*
X136439091Y-68740320D01*
X136581949Y-68692701D01*
X136677187Y-68692701D01*
X136820044Y-68740320D01*
X136867663Y-68787939D01*
X137248615Y-68787939D02*
X137296234Y-68740320D01*
X137391472Y-68692701D01*
X137629568Y-68692701D01*
X137724806Y-68740320D01*
X137772425Y-68787939D01*
X137820044Y-68883177D01*
X137820044Y-68978415D01*
X137772425Y-69121272D01*
X137200996Y-69692701D01*
X137820044Y-69692701D01*
X138200996Y-68787939D02*
X138248615Y-68740320D01*
X138343853Y-68692701D01*
X138581949Y-68692701D01*
X138677187Y-68740320D01*
X138724806Y-68787939D01*
X138772425Y-68883177D01*
X138772425Y-68978415D01*
X138724806Y-69121272D01*
X138153377Y-69692701D01*
X138772425Y-69692701D01*
X161891781Y-108205495D02*
X160891781Y-108205495D01*
X161891781Y-107634066D02*
X161320352Y-108062638D01*
X160891781Y-107634066D02*
X161463210Y-108205495D01*
X161891781Y-106681685D02*
X161891781Y-107253114D01*
X161891781Y-106967400D02*
X160891781Y-106967400D01*
X161034638Y-107062638D01*
X161129876Y-107157876D01*
X161177495Y-107253114D01*
D11*
X138355593Y-57691150D02*
X138355593Y-57191150D01*
X138546069Y-57191150D01*
X138593688Y-57214960D01*
X138617497Y-57238770D01*
X138641307Y-57286389D01*
X138641307Y-57357817D01*
X138617497Y-57405436D01*
X138593688Y-57429246D01*
X138546069Y-57453055D01*
X138355593Y-57453055D01*
X138807974Y-57191150D02*
X139117497Y-57191150D01*
X138950831Y-57381627D01*
X139022259Y-57381627D01*
X139069878Y-57405436D01*
X139093688Y-57429246D01*
X139117497Y-57476865D01*
X139117497Y-57595912D01*
X139093688Y-57643531D01*
X139069878Y-57667341D01*
X139022259Y-57691150D01*
X138879402Y-57691150D01*
X138831783Y-57667341D01*
X138807974Y-57643531D01*
X149389353Y-57020590D02*
X149389353Y-56520590D01*
X149579829Y-56520590D01*
X149627448Y-56544400D01*
X149651257Y-56568210D01*
X149675067Y-56615829D01*
X149675067Y-56687257D01*
X149651257Y-56734876D01*
X149627448Y-56758686D01*
X149579829Y-56782495D01*
X149389353Y-56782495D01*
X150103638Y-56687257D02*
X150103638Y-57020590D01*
X149984591Y-56496781D02*
X149865543Y-56853924D01*
X150175067Y-56853924D01*
X160484073Y-57040910D02*
X160484073Y-56540910D01*
X160674549Y-56540910D01*
X160722168Y-56564720D01*
X160745977Y-56588530D01*
X160769787Y-56636149D01*
X160769787Y-56707577D01*
X160745977Y-56755196D01*
X160722168Y-56779006D01*
X160674549Y-56802815D01*
X160484073Y-56802815D01*
X161222168Y-56540910D02*
X160984073Y-56540910D01*
X160960263Y-56779006D01*
X160984073Y-56755196D01*
X161031692Y-56731387D01*
X161150739Y-56731387D01*
X161198358Y-56755196D01*
X161222168Y-56779006D01*
X161245977Y-56826625D01*
X161245977Y-56945672D01*
X161222168Y-56993291D01*
X161198358Y-57017101D01*
X161150739Y-57040910D01*
X161031692Y-57040910D01*
X160984073Y-57017101D01*
X160960263Y-56993291D01*
X171619433Y-57020590D02*
X171619433Y-56520590D01*
X171809909Y-56520590D01*
X171857528Y-56544400D01*
X171881337Y-56568210D01*
X171905147Y-56615829D01*
X171905147Y-56687257D01*
X171881337Y-56734876D01*
X171857528Y-56758686D01*
X171809909Y-56782495D01*
X171619433Y-56782495D01*
X172333718Y-56520590D02*
X172238480Y-56520590D01*
X172190861Y-56544400D01*
X172167052Y-56568210D01*
X172119433Y-56639638D01*
X172095623Y-56734876D01*
X172095623Y-56925352D01*
X172119433Y-56972971D01*
X172143242Y-56996781D01*
X172190861Y-57020590D01*
X172286099Y-57020590D01*
X172333718Y-56996781D01*
X172357528Y-56972971D01*
X172381337Y-56925352D01*
X172381337Y-56806305D01*
X172357528Y-56758686D01*
X172333718Y-56734876D01*
X172286099Y-56711067D01*
X172190861Y-56711067D01*
X172143242Y-56734876D01*
X172119433Y-56758686D01*
X172095623Y-56806305D01*
D13*
X104135941Y-60341355D02*
X104945465Y-60341355D01*
X105040703Y-60293736D01*
X105088322Y-60246117D01*
X105135941Y-60150879D01*
X105135941Y-59960402D01*
X105088322Y-59865164D01*
X105040703Y-59817545D01*
X104945465Y-59769926D01*
X104135941Y-59769926D01*
X105135941Y-58769926D02*
X105135941Y-59341355D01*
X105135941Y-59055641D02*
X104135941Y-59055641D01*
X104278798Y-59150879D01*
X104374036Y-59246117D01*
X104421655Y-59341355D01*
X104135941Y-58436593D02*
X104135941Y-57817545D01*
X104516893Y-58150879D01*
X104516893Y-58008021D01*
X104564512Y-57912783D01*
X104612131Y-57865164D01*
X104707370Y-57817545D01*
X104945465Y-57817545D01*
X105040703Y-57865164D01*
X105088322Y-57912783D01*
X105135941Y-58008021D01*
X105135941Y-58293736D01*
X105088322Y-58388974D01*
X105040703Y-58436593D01*
X115003343Y-62839781D02*
X114670009Y-62363590D01*
X114431914Y-62839781D02*
X114431914Y-61839781D01*
X114812867Y-61839781D01*
X114908105Y-61887400D01*
X114955724Y-61935019D01*
X115003343Y-62030257D01*
X115003343Y-62173114D01*
X114955724Y-62268352D01*
X114908105Y-62315971D01*
X114812867Y-62363590D01*
X114431914Y-62363590D01*
X115955724Y-62839781D02*
X115384295Y-62839781D01*
X115670009Y-62839781D02*
X115670009Y-61839781D01*
X115574771Y-61982638D01*
X115479533Y-62077876D01*
X115384295Y-62125495D01*
X116527152Y-62268352D02*
X116431914Y-62220733D01*
X116384295Y-62173114D01*
X116336676Y-62077876D01*
X116336676Y-62030257D01*
X116384295Y-61935019D01*
X116431914Y-61887400D01*
X116527152Y-61839781D01*
X116717629Y-61839781D01*
X116812867Y-61887400D01*
X116860486Y-61935019D01*
X116908105Y-62030257D01*
X116908105Y-62077876D01*
X116860486Y-62173114D01*
X116812867Y-62220733D01*
X116717629Y-62268352D01*
X116527152Y-62268352D01*
X116431914Y-62315971D01*
X116384295Y-62363590D01*
X116336676Y-62458829D01*
X116336676Y-62649305D01*
X116384295Y-62744543D01*
X116431914Y-62792162D01*
X116527152Y-62839781D01*
X116717629Y-62839781D01*
X116812867Y-62792162D01*
X116860486Y-62744543D01*
X116908105Y-62649305D01*
X116908105Y-62458829D01*
X116860486Y-62363590D01*
X116812867Y-62315971D01*
X116717629Y-62268352D01*
X114378229Y-81546628D02*
X114949657Y-81546628D01*
X113749657Y-81946628D02*
X114378229Y-81546628D01*
X113749657Y-81146628D01*
X114949657Y-80118057D02*
X114949657Y-80803772D01*
X114949657Y-80460914D02*
X113749657Y-80460914D01*
X113921086Y-80575200D01*
X114035371Y-80689486D01*
X114092514Y-80803772D01*
X100447381Y-118470886D02*
X99447381Y-118470886D01*
X99447381Y-118089933D01*
X99495000Y-117994695D01*
X99542619Y-117947076D01*
X99637857Y-117899457D01*
X99780714Y-117899457D01*
X99875952Y-117947076D01*
X99923571Y-117994695D01*
X99971190Y-118089933D01*
X99971190Y-118470886D01*
X100447381Y-116947076D02*
X100447381Y-117518505D01*
X100447381Y-117232791D02*
X99447381Y-117232791D01*
X99590238Y-117328029D01*
X99685476Y-117423267D01*
X99733095Y-117518505D01*
X99447381Y-116613743D02*
X99447381Y-115994695D01*
X99828333Y-116328029D01*
X99828333Y-116185171D01*
X99875952Y-116089933D01*
X99923571Y-116042314D01*
X100018810Y-115994695D01*
X100256905Y-115994695D01*
X100352143Y-116042314D01*
X100399762Y-116089933D01*
X100447381Y-116185171D01*
X100447381Y-116470886D01*
X100399762Y-116566124D01*
X100352143Y-116613743D01*
X168971381Y-75756895D02*
X167971381Y-75756895D01*
X167971381Y-75375942D01*
X168019000Y-75280704D01*
X168066619Y-75233085D01*
X168161857Y-75185466D01*
X168304714Y-75185466D01*
X168399952Y-75233085D01*
X168447571Y-75280704D01*
X168495190Y-75375942D01*
X168495190Y-75756895D01*
X167971381Y-74852133D02*
X167971381Y-74185466D01*
X168971381Y-74614038D01*
X168971381Y-88789695D02*
X167971381Y-88789695D01*
X167971381Y-88408742D01*
X168019000Y-88313504D01*
X168066619Y-88265885D01*
X168161857Y-88218266D01*
X168304714Y-88218266D01*
X168399952Y-88265885D01*
X168447571Y-88313504D01*
X168495190Y-88408742D01*
X168495190Y-88789695D01*
X168399952Y-87646838D02*
X168352333Y-87742076D01*
X168304714Y-87789695D01*
X168209476Y-87837314D01*
X168161857Y-87837314D01*
X168066619Y-87789695D01*
X168019000Y-87742076D01*
X167971381Y-87646838D01*
X167971381Y-87456361D01*
X168019000Y-87361123D01*
X168066619Y-87313504D01*
X168161857Y-87265885D01*
X168209476Y-87265885D01*
X168304714Y-87313504D01*
X168352333Y-87361123D01*
X168399952Y-87456361D01*
X168399952Y-87646838D01*
X168447571Y-87742076D01*
X168495190Y-87789695D01*
X168590429Y-87837314D01*
X168780905Y-87837314D01*
X168876143Y-87789695D01*
X168923762Y-87742076D01*
X168971381Y-87646838D01*
X168971381Y-87456361D01*
X168923762Y-87361123D01*
X168876143Y-87313504D01*
X168780905Y-87265885D01*
X168590429Y-87265885D01*
X168495190Y-87313504D01*
X168447571Y-87361123D01*
X168399952Y-87456361D01*
X168833781Y-101972295D02*
X167833781Y-101972295D01*
X167833781Y-101591342D01*
X167881400Y-101496104D01*
X167929019Y-101448485D01*
X168024257Y-101400866D01*
X168167114Y-101400866D01*
X168262352Y-101448485D01*
X168309971Y-101496104D01*
X168357590Y-101591342D01*
X168357590Y-101972295D01*
X168833781Y-100924676D02*
X168833781Y-100734200D01*
X168786162Y-100638961D01*
X168738543Y-100591342D01*
X168595686Y-100496104D01*
X168405210Y-100448485D01*
X168024257Y-100448485D01*
X167929019Y-100496104D01*
X167881400Y-100543723D01*
X167833781Y-100638961D01*
X167833781Y-100829438D01*
X167881400Y-100924676D01*
X167929019Y-100972295D01*
X168024257Y-101019914D01*
X168262352Y-101019914D01*
X168357590Y-100972295D01*
X168405210Y-100924676D01*
X168452829Y-100829438D01*
X168452829Y-100638961D01*
X168405210Y-100543723D01*
X168357590Y-100496104D01*
X168262352Y-100448485D01*
X168884581Y-127950086D02*
X167884581Y-127950086D01*
X167884581Y-127569133D01*
X167932200Y-127473895D01*
X167979819Y-127426276D01*
X168075057Y-127378657D01*
X168217914Y-127378657D01*
X168313152Y-127426276D01*
X168360771Y-127473895D01*
X168408390Y-127569133D01*
X168408390Y-127950086D01*
X168884581Y-126426276D02*
X168884581Y-126997705D01*
X168884581Y-126711991D02*
X167884581Y-126711991D01*
X168027438Y-126807229D01*
X168122676Y-126902467D01*
X168170295Y-126997705D01*
X167884581Y-125807229D02*
X167884581Y-125711990D01*
X167932200Y-125616752D01*
X167979819Y-125569133D01*
X168075057Y-125521514D01*
X168265533Y-125473895D01*
X168503629Y-125473895D01*
X168694105Y-125521514D01*
X168789343Y-125569133D01*
X168836962Y-125616752D01*
X168884581Y-125711990D01*
X168884581Y-125807229D01*
X168836962Y-125902467D01*
X168789343Y-125950086D01*
X168694105Y-125997705D01*
X168503629Y-126045324D01*
X168265533Y-126045324D01*
X168075057Y-125997705D01*
X167979819Y-125950086D01*
X167932200Y-125902467D01*
X167884581Y-125807229D01*
X168909981Y-119390286D02*
X167909981Y-119390286D01*
X167909981Y-119009333D01*
X167957600Y-118914095D01*
X168005219Y-118866476D01*
X168100457Y-118818857D01*
X168243314Y-118818857D01*
X168338552Y-118866476D01*
X168386171Y-118914095D01*
X168433790Y-119009333D01*
X168433790Y-119390286D01*
X168909981Y-117866476D02*
X168909981Y-118437905D01*
X168909981Y-118152191D02*
X167909981Y-118152191D01*
X168052838Y-118247429D01*
X168148076Y-118342667D01*
X168195695Y-118437905D01*
X168909981Y-116914095D02*
X168909981Y-117485524D01*
X168909981Y-117199810D02*
X167909981Y-117199810D01*
X168052838Y-117295048D01*
X168148076Y-117390286D01*
X168195695Y-117485524D01*
X168859181Y-110881286D02*
X167859181Y-110881286D01*
X167859181Y-110500333D01*
X167906800Y-110405095D01*
X167954419Y-110357476D01*
X168049657Y-110309857D01*
X168192514Y-110309857D01*
X168287752Y-110357476D01*
X168335371Y-110405095D01*
X168382990Y-110500333D01*
X168382990Y-110881286D01*
X168859181Y-109357476D02*
X168859181Y-109928905D01*
X168859181Y-109643191D02*
X167859181Y-109643191D01*
X168002038Y-109738429D01*
X168097276Y-109833667D01*
X168144895Y-109928905D01*
X167954419Y-108976524D02*
X167906800Y-108928905D01*
X167859181Y-108833667D01*
X167859181Y-108595571D01*
X167906800Y-108500333D01*
X167954419Y-108452714D01*
X168049657Y-108405095D01*
X168144895Y-108405095D01*
X168287752Y-108452714D01*
X168859181Y-109024143D01*
X168859181Y-108405095D01*
X88684667Y-122318381D02*
X88351333Y-121842190D01*
X88113238Y-122318381D02*
X88113238Y-121318381D01*
X88494191Y-121318381D01*
X88589429Y-121366000D01*
X88637048Y-121413619D01*
X88684667Y-121508857D01*
X88684667Y-121651714D01*
X88637048Y-121746952D01*
X88589429Y-121794571D01*
X88494191Y-121842190D01*
X88113238Y-121842190D01*
X89113238Y-121794571D02*
X89446572Y-121794571D01*
X89589429Y-122318381D02*
X89113238Y-122318381D01*
X89113238Y-121318381D01*
X89589429Y-121318381D01*
X90351334Y-121794571D02*
X90018000Y-121794571D01*
X90018000Y-122318381D02*
X90018000Y-121318381D01*
X90494191Y-121318381D01*
X91018000Y-121318381D02*
X91018000Y-121556476D01*
X90779905Y-121461238D02*
X91018000Y-121556476D01*
X91256096Y-121461238D01*
X90875143Y-121746952D02*
X91018000Y-121556476D01*
X91160858Y-121746952D01*
X91779905Y-121318381D02*
X91779905Y-121556476D01*
X91541810Y-121461238D02*
X91779905Y-121556476D01*
X92018001Y-121461238D01*
X91637048Y-121746952D02*
X91779905Y-121556476D01*
X91922763Y-121746952D01*
X88720667Y-81265381D02*
X88387333Y-80789190D01*
X88149238Y-81265381D02*
X88149238Y-80265381D01*
X88530191Y-80265381D01*
X88625429Y-80313000D01*
X88673048Y-80360619D01*
X88720667Y-80455857D01*
X88720667Y-80598714D01*
X88673048Y-80693952D01*
X88625429Y-80741571D01*
X88530191Y-80789190D01*
X88149238Y-80789190D01*
X89149238Y-80741571D02*
X89482572Y-80741571D01*
X89625429Y-81265381D02*
X89149238Y-81265381D01*
X89149238Y-80265381D01*
X89625429Y-80265381D01*
X90387334Y-80741571D02*
X90054000Y-80741571D01*
X90054000Y-81265381D02*
X90054000Y-80265381D01*
X90530191Y-80265381D01*
X91054000Y-80265381D02*
X91054000Y-80503476D01*
X90815905Y-80408238D02*
X91054000Y-80503476D01*
X91292096Y-80408238D01*
X90911143Y-80693952D02*
X91054000Y-80503476D01*
X91196858Y-80693952D01*
X91815905Y-80265381D02*
X91815905Y-80503476D01*
X91577810Y-80408238D02*
X91815905Y-80503476D01*
X92054001Y-80408238D01*
X91673048Y-80693952D02*
X91815905Y-80503476D01*
X91958763Y-80693952D01*
X178166667Y-59952381D02*
X177833333Y-59476190D01*
X177595238Y-59952381D02*
X177595238Y-58952381D01*
X177976191Y-58952381D01*
X178071429Y-59000000D01*
X178119048Y-59047619D01*
X178166667Y-59142857D01*
X178166667Y-59285714D01*
X178119048Y-59380952D01*
X178071429Y-59428571D01*
X177976191Y-59476190D01*
X177595238Y-59476190D01*
X178595238Y-59428571D02*
X178928572Y-59428571D01*
X179071429Y-59952381D02*
X178595238Y-59952381D01*
X178595238Y-58952381D01*
X179071429Y-58952381D01*
X179833334Y-59428571D02*
X179500000Y-59428571D01*
X179500000Y-59952381D02*
X179500000Y-58952381D01*
X179976191Y-58952381D01*
X180500000Y-58952381D02*
X180500000Y-59190476D01*
X180261905Y-59095238D02*
X180500000Y-59190476D01*
X180738096Y-59095238D01*
X180357143Y-59380952D02*
X180500000Y-59190476D01*
X180642858Y-59380952D01*
X181261905Y-58952381D02*
X181261905Y-59190476D01*
X181023810Y-59095238D02*
X181261905Y-59190476D01*
X181500001Y-59095238D01*
X181119048Y-59380952D02*
X181261905Y-59190476D01*
X181404763Y-59380952D01*
X127496017Y-77657846D02*
X128467446Y-77657846D01*
X128581731Y-77600703D01*
X128638874Y-77543560D01*
X128696017Y-77429274D01*
X128696017Y-77200703D01*
X128638874Y-77086417D01*
X128581731Y-77029274D01*
X128467446Y-76972131D01*
X127496017Y-76972131D01*
X128010303Y-76229274D02*
X127953160Y-76343560D01*
X127896017Y-76400703D01*
X127781731Y-76457846D01*
X127724589Y-76457846D01*
X127610303Y-76400703D01*
X127553160Y-76343560D01*
X127496017Y-76229274D01*
X127496017Y-76000703D01*
X127553160Y-75886417D01*
X127610303Y-75829274D01*
X127724589Y-75772131D01*
X127781731Y-75772131D01*
X127896017Y-75829274D01*
X127953160Y-75886417D01*
X128010303Y-76000703D01*
X128010303Y-76229274D01*
X128067446Y-76343560D01*
X128124589Y-76400703D01*
X128238874Y-76457846D01*
X128467446Y-76457846D01*
X128581731Y-76400703D01*
X128638874Y-76343560D01*
X128696017Y-76229274D01*
X128696017Y-76000703D01*
X128638874Y-75886417D01*
X128581731Y-75829274D01*
X128467446Y-75772131D01*
X128238874Y-75772131D01*
X128124589Y-75829274D01*
X128067446Y-75886417D01*
X128010303Y-76000703D01*
D15*
X129976641Y-82966377D02*
X130167867Y-82966377D01*
X130190364Y-82955129D01*
X130201613Y-82943880D01*
X130212861Y-82921383D01*
X130212861Y-82876389D01*
X130201613Y-82853891D01*
X130190364Y-82842643D01*
X130167867Y-82831394D01*
X129976641Y-82831394D01*
X130212861Y-82707660D02*
X130212861Y-82662665D01*
X130201613Y-82640168D01*
X130190364Y-82628920D01*
X130156619Y-82606422D01*
X130111624Y-82595174D01*
X130021636Y-82595174D01*
X129999139Y-82606422D01*
X129987890Y-82617671D01*
X129976641Y-82640168D01*
X129976641Y-82685162D01*
X129987890Y-82707660D01*
X129999139Y-82718908D01*
X130021636Y-82730157D01*
X130077879Y-82730157D01*
X130100376Y-82718908D01*
X130111624Y-82707660D01*
X130122873Y-82685162D01*
X130122873Y-82640168D01*
X130111624Y-82617671D01*
X130100376Y-82606422D01*
X130077879Y-82595174D01*
X133712861Y-83366319D02*
X133712861Y-83478805D01*
X133476641Y-83478805D01*
X133701613Y-83298828D02*
X133712861Y-83265082D01*
X133712861Y-83208839D01*
X133701613Y-83186342D01*
X133690364Y-83175093D01*
X133667867Y-83163845D01*
X133645370Y-83163845D01*
X133622873Y-83175093D01*
X133611624Y-83186342D01*
X133600376Y-83208839D01*
X133589127Y-83253833D01*
X133577879Y-83276331D01*
X133566630Y-83287579D01*
X133544133Y-83298828D01*
X133521636Y-83298828D01*
X133499139Y-83287579D01*
X133487890Y-83276331D01*
X133476641Y-83253833D01*
X133476641Y-83197591D01*
X133487890Y-83163845D01*
X133712861Y-83062608D02*
X133476641Y-83062608D01*
X133645370Y-82983868D01*
X133476641Y-82905128D01*
X133712861Y-82905128D01*
X133712861Y-82781394D02*
X133712861Y-82736399D01*
X133701613Y-82713902D01*
X133690364Y-82702654D01*
X133656619Y-82680156D01*
X133611624Y-82668908D01*
X133521636Y-82668908D01*
X133499139Y-82680156D01*
X133487890Y-82691405D01*
X133476641Y-82713902D01*
X133476641Y-82758896D01*
X133487890Y-82781394D01*
X133499139Y-82792642D01*
X133521636Y-82803891D01*
X133577879Y-82803891D01*
X133600376Y-82792642D01*
X133611624Y-82781394D01*
X133622873Y-82758896D01*
X133622873Y-82713902D01*
X133611624Y-82691405D01*
X133600376Y-82680156D01*
X133577879Y-82668908D01*
X133712861Y-82567671D02*
X133476641Y-82567671D01*
X133476641Y-82511428D01*
X133487890Y-82477683D01*
X133510387Y-82455185D01*
X133532884Y-82443937D01*
X133577879Y-82432688D01*
X133611624Y-82432688D01*
X133656619Y-82443937D01*
X133679116Y-82455185D01*
X133701613Y-82477683D01*
X133712861Y-82511428D01*
X133712861Y-82567671D01*
X133701613Y-82342700D02*
X133712861Y-82308954D01*
X133712861Y-82252711D01*
X133701613Y-82230214D01*
X133690364Y-82218965D01*
X133667867Y-82207717D01*
X133645370Y-82207717D01*
X133622873Y-82218965D01*
X133611624Y-82230214D01*
X133600376Y-82252711D01*
X133589127Y-82297705D01*
X133577879Y-82320203D01*
X133566630Y-82331451D01*
X133544133Y-82342700D01*
X133521636Y-82342700D01*
X133499139Y-82331451D01*
X133487890Y-82320203D01*
X133476641Y-82297705D01*
X133476641Y-82241463D01*
X133487890Y-82207717D01*
X133712861Y-81982746D02*
X133712861Y-82117729D01*
X133712861Y-82050237D02*
X133476641Y-82050237D01*
X133510387Y-82072734D01*
X133532884Y-82095232D01*
X133544133Y-82117729D01*
D11*
X124536248Y-70160390D02*
X124536248Y-70565152D01*
X124560057Y-70612771D01*
X124583867Y-70636581D01*
X124631486Y-70660390D01*
X124726724Y-70660390D01*
X124774343Y-70636581D01*
X124798152Y-70612771D01*
X124821962Y-70565152D01*
X124821962Y-70160390D01*
X125298153Y-70160390D02*
X125060058Y-70160390D01*
X125036248Y-70398486D01*
X125060058Y-70374676D01*
X125107677Y-70350867D01*
X125226724Y-70350867D01*
X125274343Y-70374676D01*
X125298153Y-70398486D01*
X125321962Y-70446105D01*
X125321962Y-70565152D01*
X125298153Y-70612771D01*
X125274343Y-70636581D01*
X125226724Y-70660390D01*
X125107677Y-70660390D01*
X125060058Y-70636581D01*
X125036248Y-70612771D01*
X114762790Y-63215472D02*
X115167552Y-63215472D01*
X115215171Y-63191663D01*
X115238981Y-63167853D01*
X115262790Y-63120234D01*
X115262790Y-63024996D01*
X115238981Y-62977377D01*
X115215171Y-62953568D01*
X115167552Y-62929758D01*
X114762790Y-62929758D01*
X114762790Y-62477377D02*
X114762790Y-62572615D01*
X114786600Y-62620234D01*
X114810410Y-62644043D01*
X114881838Y-62691662D01*
X114977076Y-62715472D01*
X115167552Y-62715472D01*
X115215171Y-62691662D01*
X115238981Y-62667853D01*
X115262790Y-62620234D01*
X115262790Y-62524996D01*
X115238981Y-62477377D01*
X115215171Y-62453567D01*
X115167552Y-62429758D01*
X115048505Y-62429758D01*
X115000886Y-62453567D01*
X114977076Y-62477377D01*
X114953267Y-62524996D01*
X114953267Y-62620234D01*
X114977076Y-62667853D01*
X115000886Y-62691662D01*
X115048505Y-62715472D01*
X98343768Y-65689990D02*
X98343768Y-66094752D01*
X98367577Y-66142371D01*
X98391387Y-66166181D01*
X98439006Y-66189990D01*
X98534244Y-66189990D01*
X98581863Y-66166181D01*
X98605672Y-66142371D01*
X98629482Y-66094752D01*
X98629482Y-65689990D01*
X99081863Y-65856657D02*
X99081863Y-66189990D01*
X98962816Y-65666181D02*
X98843768Y-66023324D01*
X99153292Y-66023324D01*
X92105528Y-74757790D02*
X92105528Y-75162552D01*
X92129337Y-75210171D01*
X92153147Y-75233981D01*
X92200766Y-75257790D01*
X92296004Y-75257790D01*
X92343623Y-75233981D01*
X92367432Y-75210171D01*
X92391242Y-75162552D01*
X92391242Y-74757790D01*
X92605528Y-74805410D02*
X92629338Y-74781600D01*
X92676957Y-74757790D01*
X92796004Y-74757790D01*
X92843623Y-74781600D01*
X92867433Y-74805410D01*
X92891242Y-74853029D01*
X92891242Y-74900648D01*
X92867433Y-74972076D01*
X92581719Y-75257790D01*
X92891242Y-75257790D01*
M02*
